<?xml version="1.0" encoding="UTF-8"?>
<svg xmlns="http://www.w3.org/2000/svg" xmlns:xlink="http://www.w3.org/1999/xlink" width="477.76pt" height="76.46pt" viewBox="0 0 477.76 76.46" version="1.1">
<defs>
<clipPath id="clip1">
  <path d="M 275 26 L 477.761719 26 L 477.761719 27 L 275 27 Z M 275 26 "/>
</clipPath>
<clipPath id="clip2">
  <path d="M 111 39 L 477.761719 39 L 477.761719 41 L 111 41 Z M 111 39 "/>
</clipPath>
<clipPath id="clip3">
  <path d="M 75 52 L 477.761719 52 L 477.761719 53 L 75 53 Z M 75 52 "/>
</clipPath>
<clipPath id="clip4">
  <path d="M 37 65 L 477.761719 65 L 477.761719 66 L 37 66 Z M 37 65 "/>
</clipPath>
<clipPath id="clip5">
  <path d="M 223 69 L 229 69 L 229 76.460938 L 223 76.460938 Z M 223 69 "/>
</clipPath>
<clipPath id="clip6">
  <path d="M 247 69 L 253 69 L 253 76.460938 L 247 76.460938 Z M 247 69 "/>
</clipPath>
<clipPath id="clip7">
  <path d="M 269 69 L 275 69 L 275 76.460938 L 269 76.460938 Z M 269 69 "/>
</clipPath>
<clipPath id="clip8">
  <path d="M 288 69 L 293 69 L 293 76.460938 L 288 76.460938 Z M 288 69 "/>
</clipPath>
<clipPath id="clip9">
  <path d="M 309 69 L 314 69 L 314 76.460938 L 309 76.460938 Z M 309 69 "/>
</clipPath>
</defs>
<g id="surface1">
<path style=" stroke:none;fill-rule:nonzero;fill:rgb(0%,0%,0%);fill-opacity:1;" d="M 2.992188 69.378906 C 1.710938 69.128906 1.640625 66.714844 1.640625 65.039062 C 1.640625 63.539062 1.726562 61.015625 2.992188 60.699219 L 2.992188 60.429688 C 1.957031 60.609375 1.507812 61.738281 1.320312 62.695312 C 1.171875 63.4375 1.121094 64.214844 1.121094 64.980469 C 1.121094 65.785156 1.164062 66.589844 1.300781 67.382812 C 1.46875 68.324219 1.945312 69.527344 2.992188 69.617188 L 2.992188 69.378906 "/>
<path style=" stroke:none;fill-rule:nonzero;fill:rgb(0%,0%,0%);fill-opacity:1;" d="M 12.582031 65.476562 C 12.214844 65.933594 11.6875 66.714844 11.4375 67.761719 L 11.835938 67.761719 C 12.144531 66.457031 12.980469 65.554688 13.277344 65.277344 C 12.960938 64.980469 12.144531 64.085938 11.835938 62.792969 L 11.4375 62.792969 C 11.6875 63.824219 12.203125 64.613281 12.582031 65.078125 L 4.804688 65.078125 C 4.625 65.078125 4.457031 65.078125 4.457031 65.277344 C 4.457031 65.476562 4.632812 65.476562 4.804688 65.476562 L 12.582031 65.476562 "/>
<path style=" stroke:none;fill-rule:nonzero;fill:rgb(0%,0%,0%);fill-opacity:1;" d="M 20.039062 67.769531 L 20.054688 67.53125 C 20.046875 67.53125 19.621094 67.421875 19.410156 67.363281 C 18.992188 67.253906 19.101562 66.507812 19.09375 66.082031 C 19.082031 65.476562 19.074219 64.859375 19.074219 64.195312 C 19.074219 63.417969 19.015625 62.238281 19.101562 61.652344 C 19.113281 61.53125 19.191406 61.421875 19.320312 61.394531 L 19.988281 61.242188 L 19.988281 61.035156 L 19.929688 60.976562 L 17.445312 60.976562 L 17.375 61.035156 L 17.375 61.253906 C 18.167969 61.433594 18.238281 61.382812 18.257812 61.679688 C 18.289062 62.058594 18.289062 62.433594 18.289062 62.824219 L 18.289062 66.429688 C 18.25 67.253906 18.378906 67.324219 17.40625 67.511719 L 17.40625 67.769531 L 20.039062 67.769531 "/>
<path style=" stroke:none;fill-rule:nonzero;fill:rgb(0%,0%,0%);fill-opacity:1;" d="M 21.355469 60.714844 C 22.160156 61.003906 22.386719 61.9375 22.535156 62.683594 C 22.6875 63.449219 22.726562 64.242188 22.726562 65.019531 C 22.726562 66.152344 22.746094 67.363281 22.386719 68.425781 C 22.1875 69.019531 21.8125 69.28125 21.355469 69.398438 L 21.355469 69.636719 C 23.132812 69.410156 23.242188 66.757812 23.242188 65.058594 C 23.242188 63.398438 23.03125 60.796875 21.355469 60.449219 L 21.355469 60.714844 "/>
<path style=" stroke:none;fill-rule:nonzero;fill:rgb(0%,0%,0%);fill-opacity:1;" d="M 41.890625 56.777344 C 40.609375 56.53125 40.539062 54.117188 40.539062 52.4375 C 40.539062 50.9375 40.628906 48.414062 41.890625 48.097656 L 41.890625 47.828125 C 40.855469 48.007812 40.410156 49.140625 40.222656 50.09375 C 40.070312 50.839844 40.023438 51.613281 40.023438 52.378906 C 40.023438 53.183594 40.0625 53.988281 40.203125 54.78125 C 40.371094 55.726562 40.847656 56.929688 41.890625 57.019531 L 41.890625 56.777344 "/>
<path style=" stroke:none;fill-rule:nonzero;fill:rgb(0%,0%,0%);fill-opacity:1;" d="M 51.484375 52.875 C 51.113281 53.332031 50.585938 54.117188 50.339844 55.160156 L 50.738281 55.160156 C 51.046875 53.859375 51.878906 52.957031 52.179688 52.675781 C 51.859375 52.378906 51.046875 51.484375 50.738281 50.191406 L 50.339844 50.191406 C 50.585938 51.226562 51.105469 52.011719 51.484375 52.476562 L 43.703125 52.476562 C 43.523438 52.476562 43.355469 52.476562 43.355469 52.675781 C 43.355469 52.875 43.535156 52.875 43.703125 52.875 L 51.484375 52.875 "/>
<path style=" stroke:none;fill-rule:nonzero;fill:rgb(0%,0%,0%);fill-opacity:1;" d="M 58.9375 55.167969 L 58.957031 54.933594 C 58.945312 54.933594 58.519531 54.824219 58.3125 54.761719 C 57.894531 54.652344 58.003906 53.910156 57.992188 53.480469 C 57.984375 52.875 57.972656 52.261719 57.972656 51.59375 C 57.972656 50.820312 57.914062 49.636719 58.003906 49.050781 C 58.011719 48.933594 58.09375 48.824219 58.222656 48.792969 L 58.886719 48.644531 L 58.886719 48.433594 L 58.828125 48.375 L 56.34375 48.375 L 56.273438 48.433594 L 56.273438 48.652344 C 57.070312 48.832031 57.140625 48.78125 57.160156 49.082031 C 57.1875 49.457031 57.1875 49.835938 57.1875 50.222656 L 57.1875 53.828125 C 57.148438 54.652344 57.277344 54.722656 56.304688 54.910156 L 56.304688 55.167969 L 58.9375 55.167969 "/>
<path style=" stroke:none;fill-rule:nonzero;fill:rgb(0%,0%,0%);fill-opacity:1;" d="M 60.253906 48.117188 C 61.058594 48.40625 61.289062 49.339844 61.4375 50.082031 C 61.585938 50.847656 61.625 51.644531 61.625 52.417969 C 61.625 53.550781 61.644531 54.761719 61.289062 55.824219 C 61.089844 56.421875 60.710938 56.679688 60.253906 56.800781 L 60.253906 57.039062 C 62.03125 56.808594 62.140625 54.15625 62.140625 52.457031 C 62.140625 50.800781 61.933594 48.195312 60.253906 47.847656 L 60.253906 48.117188 "/>
<path style=" stroke:none;fill-rule:nonzero;fill:rgb(0%,0%,0%);fill-opacity:1;" d="M 80.789062 44.179688 C 79.507812 43.929688 79.4375 41.515625 79.4375 39.839844 C 79.4375 38.339844 79.527344 35.816406 80.789062 35.496094 L 80.789062 35.230469 C 79.757812 35.410156 79.308594 36.539062 79.121094 37.496094 C 78.972656 38.238281 78.921875 39.011719 78.921875 39.777344 C 78.921875 40.582031 78.960938 41.386719 79.101562 42.183594 C 79.269531 43.125 79.746094 44.328125 80.789062 44.417969 L 80.789062 44.179688 "/>
<path style=" stroke:none;fill-rule:nonzero;fill:rgb(0%,0%,0%);fill-opacity:1;" d="M 89.109375 35.765625 L 89.070312 35.726562 L 88.683594 35.726562 L 85.324219 41.972656 L 82.078125 35.765625 L 81.660156 35.835938 L 85.246094 42.679688 L 85.394531 42.679688 L 89.109375 35.765625 "/>
<path style=" stroke:none;fill-rule:nonzero;fill:rgb(0%,0%,0%);fill-opacity:1;" d="M 93.929688 39.222656 L 93.988281 38.746094 L 93.929688 38.675781 C 93.402344 38.714844 92.667969 38.746094 92.140625 38.746094 C 91.773438 38.746094 91.484375 38.777344 91.484375 38.605469 L 91.484375 36.957031 C 91.484375 36.609375 91.527344 36.242188 91.726562 36.203125 L 92.121094 36.203125 C 92.191406 36.203125 93.511719 36.261719 94.199219 36.300781 L 94.238281 36.230469 L 94.257812 35.734375 C 94.128906 35.726562 93.980469 35.726562 93.800781 35.726562 C 93.09375 35.734375 92.09375 35.785156 91.398438 35.785156 L 89.925781 35.792969 L 89.855469 35.863281 L 89.867188 36.0625 C 90.335938 36.132812 90.5625 36.253906 90.621094 36.382812 C 90.710938 36.582031 90.710938 36.878906 90.710938 37.015625 L 90.710938 41.902344 C 90.710938 42.171875 90.769531 42.449219 90.96875 42.558594 L 94.824219 42.558594 L 94.953125 42.035156 L 94.902344 41.984375 C 93.273438 42.121094 93.046875 42.121094 92.578125 42.121094 C 91.972656 42.121094 91.765625 42.0625 91.625 41.804688 C 91.484375 41.558594 91.476562 41.070312 91.476562 40.691406 L 91.476562 39.3125 C 91.476562 39.132812 92.179688 39.164062 92.757812 39.164062 C 93.144531 39.164062 93.542969 39.191406 93.929688 39.222656 "/>
<path style=" stroke:none;fill-rule:nonzero;fill:rgb(0%,0%,0%);fill-opacity:1;" d="M 96.253906 35.515625 C 97.058594 35.804688 97.289062 36.738281 97.4375 37.484375 C 97.585938 38.25 97.625 39.042969 97.625 39.816406 C 97.625 40.949219 97.644531 42.164062 97.289062 43.226562 C 97.089844 43.820312 96.710938 44.082031 96.253906 44.199219 L 96.253906 44.4375 C 98.03125 44.207031 98.140625 41.558594 98.140625 39.859375 C 98.140625 38.199219 97.933594 35.597656 96.253906 35.25 L 96.253906 35.515625 "/>
<path style=" stroke:none;fill-rule:nonzero;fill:rgb(0%,0%,0%);fill-opacity:1;" d="M 119.078125 37.105469 C 119.015625 36.589844 118.988281 35.625 118.976562 35.167969 L 119.078125 35.089844 C 119.265625 35.140625 119.464844 35.167969 119.664062 35.167969 C 121.203125 35.167969 122.246094 33.558594 122.246094 32.097656 C 122.246094 31.355469 121.898438 30.441406 120.882812 30.441406 C 120.199219 30.441406 119.59375 30.75 119.054688 31.175781 L 118.976562 31.136719 C 118.9375 30.699219 118.777344 30.390625 118.332031 30.390625 C 117.894531 30.390625 117.378906 30.75 116.980469 31.066406 L 117.121094 31.253906 C 117.359375 31.117188 117.636719 30.96875 117.84375 30.96875 C 118.144531 30.96875 118.234375 31.484375 118.234375 31.929688 L 118.234375 34.125 C 118.234375 34.691406 118.222656 36.730469 118.171875 37.304688 L 118.273438 37.414062 Z M 118.996094 34.402344 C 118.996094 34.394531 118.976562 33.371094 118.976562 32.558594 C 118.976562 32.449219 119.007812 31.691406 119.007812 31.632812 C 119.472656 31.265625 119.882812 31.058594 120.386719 31.058594 C 121.023438 31.058594 121.410156 31.820312 121.410156 32.6875 C 121.410156 33.628906 121.074219 34.773438 119.871094 34.773438 C 119.542969 34.773438 119.234375 34.621094 118.996094 34.402344 "/>
<path style=" stroke:none;fill-rule:nonzero;fill:rgb(0%,0%,0%);fill-opacity:1;" d="M 132.609375 28.265625 L 132.570312 28.226562 L 132.183594 28.226562 L 128.824219 34.472656 L 125.578125 28.265625 L 125.160156 28.335938 L 128.746094 35.179688 L 128.894531 35.179688 L 132.609375 28.265625 "/>
<path style=" stroke:none;fill-rule:nonzero;fill:rgb(0%,0%,0%);fill-opacity:1;" d="M 139.261719 37.472656 L 140.066406 37.1875 C 139.988281 36.300781 139.945312 35.148438 139.945312 33.9375 C 139.945312 32.625 139.988281 31.246094 140.089844 30.09375 L 139.878906 30.054688 L 139.441406 30.640625 L 139.351562 30.660156 C 139.074219 30.519531 138.675781 30.382812 138.367188 30.382812 C 136.6875 30.382812 135.984375 31.832031 135.984375 33.210938 C 135.984375 34.046875 136.359375 35.128906 137.40625 35.128906 C 138.03125 35.128906 138.605469 34.851562 139.113281 34.472656 L 139.183594 34.523438 C 139.152344 35.476562 139.132812 36.910156 139.101562 37.316406 Z M 139.183594 34.015625 C 138.855469 34.304688 138.417969 34.511719 138.03125 34.511719 C 137.214844 34.511719 136.898438 33.769531 136.898438 32.945312 C 136.898438 31.832031 137.234375 30.75 138.359375 30.75 C 138.617188 30.75 138.84375 30.886719 139.023438 31.066406 C 139.183594 31.226562 139.183594 31.523438 139.183594 31.773438 L 139.183594 34.015625 "/>
<path style=" stroke:none;fill-rule:nonzero;fill:rgb(0%,0%,0%);fill-opacity:1;" d="M 149.066406 31.8125 C 149.234375 31.8125 149.414062 31.8125 149.414062 31.613281 C 149.414062 31.414062 149.234375 31.414062 149.066406 31.414062 L 144.84375 31.414062 L 144.84375 28.523438 C 144.84375 28.34375 144.84375 28.167969 144.644531 28.167969 C 144.445312 28.167969 144.445312 28.375 144.445312 28.523438 L 144.445312 34.703125 C 144.445312 34.851562 144.445312 35.058594 144.644531 35.058594 C 144.84375 35.058594 144.84375 34.882812 144.84375 34.703125 L 144.84375 31.8125 L 149.066406 31.8125 "/>
<path style=" stroke:none;fill-rule:nonzero;fill:rgb(0%,0%,0%);fill-opacity:1;" d="M 154.675781 37.105469 C 154.617188 36.589844 154.589844 35.625 154.578125 35.167969 L 154.675781 35.089844 C 154.867188 35.140625 155.0625 35.167969 155.261719 35.167969 C 156.804688 35.167969 157.84375 33.558594 157.84375 32.097656 C 157.84375 31.355469 157.496094 30.441406 156.484375 30.441406 C 155.800781 30.441406 155.195312 30.75 154.65625 31.175781 L 154.578125 31.136719 C 154.539062 30.699219 154.378906 30.390625 153.929688 30.390625 C 153.496094 30.390625 152.976562 30.75 152.582031 31.066406 L 152.71875 31.253906 C 152.957031 31.117188 153.234375 30.96875 153.445312 30.96875 C 153.742188 30.96875 153.832031 31.484375 153.832031 31.929688 L 153.832031 34.125 C 153.832031 34.691406 153.820312 36.730469 153.773438 37.304688 L 153.871094 37.414062 Z M 154.597656 34.402344 C 154.597656 34.394531 154.578125 33.371094 154.578125 32.558594 C 154.578125 32.449219 154.609375 31.691406 154.609375 31.632812 C 155.074219 31.265625 155.480469 31.058594 155.988281 31.058594 C 156.621094 31.058594 157.011719 31.820312 157.011719 32.6875 C 157.011719 33.628906 156.671875 34.773438 155.472656 34.773438 C 155.144531 34.773438 154.835938 34.621094 154.597656 34.402344 "/>
<path style=" stroke:none;fill-rule:nonzero;fill:rgb(0%,0%,0%);fill-opacity:1;" d="M 168.308594 28.265625 L 168.269531 28.226562 L 167.882812 28.226562 L 164.523438 34.472656 L 161.277344 28.265625 L 160.859375 28.335938 L 164.445312 35.179688 L 164.59375 35.179688 L 168.308594 28.265625 "/>
<path style=" stroke:none;fill-rule:nonzero;fill:rgb(0%,0%,0%);fill-opacity:1;" d="M 174.964844 37.472656 L 175.765625 37.1875 C 175.6875 36.300781 175.648438 35.148438 175.648438 33.9375 C 175.648438 32.625 175.6875 31.246094 175.789062 30.09375 L 175.578125 30.054688 L 175.140625 30.640625 L 175.050781 30.660156 C 174.773438 30.519531 174.378906 30.382812 174.070312 30.382812 C 172.390625 30.382812 171.683594 31.832031 171.683594 33.210938 C 171.683594 34.046875 172.0625 35.128906 173.105469 35.128906 C 173.730469 35.128906 174.304688 34.851562 174.8125 34.472656 L 174.882812 34.523438 C 174.851562 35.476562 174.832031 36.910156 174.804688 37.316406 Z M 174.882812 34.015625 C 174.554688 34.304688 174.117188 34.511719 173.730469 34.511719 C 172.914062 34.511719 172.597656 33.769531 172.597656 32.945312 C 172.597656 31.832031 172.9375 30.75 174.058594 30.75 C 174.316406 30.75 174.546875 30.886719 174.722656 31.066406 C 174.882812 31.226562 174.882812 31.523438 174.882812 31.773438 L 174.882812 34.015625 "/>
<path style=" stroke:none;fill-rule:nonzero;fill:rgb(0%,0%,0%);fill-opacity:1;" d="M 198.675781 37.105469 C 198.617188 36.589844 198.589844 35.625 198.578125 35.167969 L 198.675781 35.089844 C 198.867188 35.140625 199.0625 35.167969 199.261719 35.167969 C 200.804688 35.167969 201.84375 33.558594 201.84375 32.097656 C 201.84375 31.355469 201.496094 30.441406 200.484375 30.441406 C 199.800781 30.441406 199.195312 30.75 198.65625 31.175781 L 198.578125 31.136719 C 198.539062 30.699219 198.378906 30.390625 197.929688 30.390625 C 197.496094 30.390625 196.976562 30.75 196.582031 31.066406 L 196.71875 31.253906 C 196.957031 31.117188 197.234375 30.96875 197.445312 30.96875 C 197.742188 30.96875 197.832031 31.484375 197.832031 31.929688 L 197.832031 34.125 C 197.832031 34.691406 197.820312 36.730469 197.773438 37.304688 L 197.871094 37.414062 Z M 198.597656 34.402344 C 198.597656 34.394531 198.578125 33.371094 198.578125 32.558594 C 198.578125 32.449219 198.609375 31.691406 198.609375 31.632812 C 199.074219 31.265625 199.480469 31.058594 199.988281 31.058594 C 200.621094 31.058594 201.011719 31.820312 201.011719 32.6875 C 201.011719 33.628906 200.671875 34.773438 199.472656 34.773438 C 199.144531 34.773438 198.835938 34.621094 198.597656 34.402344 "/>
<path style=" stroke:none;fill-rule:nonzero;fill:rgb(0%,0%,0%);fill-opacity:1;" d="M 210.566406 31.8125 C 210.734375 31.8125 210.914062 31.8125 210.914062 31.613281 C 210.914062 31.414062 210.734375 31.414062 210.566406 31.414062 L 206.34375 31.414062 L 206.34375 28.523438 C 206.34375 28.34375 206.34375 28.167969 206.144531 28.167969 C 205.945312 28.167969 205.945312 28.375 205.945312 28.523438 L 205.945312 34.703125 C 205.945312 34.851562 205.945312 35.058594 206.144531 35.058594 C 206.34375 35.058594 206.34375 34.882812 206.34375 34.703125 L 206.34375 31.8125 L 210.566406 31.8125 "/>
<path style=" stroke:none;fill-rule:nonzero;fill:rgb(0%,0%,0%);fill-opacity:1;" d="M 216.175781 37.105469 C 216.117188 36.589844 216.089844 35.625 216.078125 35.167969 L 216.175781 35.089844 C 216.367188 35.140625 216.5625 35.167969 216.761719 35.167969 C 218.304688 35.167969 219.34375 33.558594 219.34375 32.097656 C 219.34375 31.355469 218.996094 30.441406 217.984375 30.441406 C 217.300781 30.441406 216.695312 30.75 216.15625 31.175781 L 216.078125 31.136719 C 216.039062 30.699219 215.878906 30.390625 215.429688 30.390625 C 214.996094 30.390625 214.476562 30.75 214.082031 31.066406 L 214.21875 31.253906 C 214.457031 31.117188 214.734375 30.96875 214.945312 30.96875 C 215.242188 30.96875 215.332031 31.484375 215.332031 31.929688 L 215.332031 34.125 C 215.332031 34.691406 215.320312 36.730469 215.273438 37.304688 L 215.371094 37.414062 Z M 216.097656 34.402344 C 216.097656 34.394531 216.078125 33.371094 216.078125 32.558594 C 216.078125 32.449219 216.109375 31.691406 216.109375 31.632812 C 216.574219 31.265625 216.980469 31.058594 217.488281 31.058594 C 218.121094 31.058594 218.511719 31.820312 218.511719 32.6875 C 218.511719 33.628906 218.171875 34.773438 216.972656 34.773438 C 216.644531 34.773438 216.335938 34.621094 216.097656 34.402344 "/>
<path style=" stroke:none;fill-rule:nonzero;fill:rgb(0%,0%,0%);fill-opacity:1;" d="M 239.691406 30.777344 C 238.410156 30.53125 238.339844 28.117188 238.339844 26.4375 C 238.339844 24.9375 238.429688 22.414062 239.691406 22.097656 L 239.691406 21.828125 C 238.65625 22.007812 238.210938 23.140625 238.023438 24.09375 C 237.871094 24.839844 237.820312 25.613281 237.820312 26.378906 C 237.820312 27.183594 237.863281 27.988281 238.003906 28.78125 C 238.171875 29.726562 238.648438 30.929688 239.691406 31.019531 L 239.691406 30.777344 "/>
<path style=" stroke:none;fill-rule:nonzero;fill:rgb(0%,0%,0%);fill-opacity:1;" d="M 249.28125 26.875 C 248.914062 27.332031 248.386719 28.117188 248.140625 29.160156 L 248.539062 29.160156 C 248.84375 27.859375 249.679688 26.957031 249.976562 26.675781 C 249.660156 26.378906 248.84375 25.484375 248.539062 24.191406 L 248.140625 24.191406 C 248.386719 25.226562 248.90625 26.011719 249.28125 26.476562 L 241.503906 26.476562 C 241.324219 26.476562 241.15625 26.476562 241.15625 26.675781 C 241.15625 26.875 241.335938 26.875 241.503906 26.875 L 249.28125 26.875 "/>
<path style=" stroke:none;fill-rule:nonzero;fill:rgb(0%,0%,0%);fill-opacity:1;" d="M 257.828125 25.824219 L 257.890625 25.347656 L 257.828125 25.277344 C 257.304688 25.316406 256.570312 25.347656 256.042969 25.347656 C 255.671875 25.347656 255.386719 25.375 255.386719 25.207031 L 255.386719 23.558594 C 255.386719 23.210938 255.425781 22.84375 255.625 22.800781 L 256.023438 22.800781 C 256.089844 22.800781 257.414062 22.863281 258.097656 22.902344 L 258.136719 22.832031 L 258.15625 22.335938 C 258.027344 22.324219 257.878906 22.324219 257.699219 22.324219 C 256.996094 22.335938 255.992188 22.386719 255.296875 22.386719 L 253.828125 22.394531 L 253.757812 22.464844 L 253.765625 22.664062 C 254.234375 22.734375 254.464844 22.851562 254.523438 22.980469 C 254.609375 23.179688 254.609375 23.476562 254.609375 23.617188 L 254.609375 28.503906 C 254.609375 28.773438 254.671875 29.050781 254.867188 29.160156 L 258.722656 29.160156 L 258.851562 28.632812 L 258.804688 28.582031 C 257.171875 28.722656 256.945312 28.722656 256.476562 28.722656 C 255.871094 28.722656 255.664062 28.664062 255.523438 28.40625 C 255.386719 28.15625 255.378906 27.667969 255.378906 27.292969 L 255.378906 25.910156 C 255.378906 25.734375 256.082031 25.761719 256.65625 25.761719 C 257.046875 25.761719 257.441406 25.792969 257.828125 25.824219 "/>
<path style=" stroke:none;fill-rule:nonzero;fill:rgb(0%,0%,0%);fill-opacity:1;" d="M 260.15625 22.117188 C 260.960938 22.40625 261.1875 23.339844 261.335938 24.082031 C 261.484375 24.847656 261.523438 25.644531 261.523438 26.417969 C 261.523438 27.550781 261.546875 28.761719 261.1875 29.824219 C 260.988281 30.421875 260.609375 30.679688 260.15625 30.800781 L 260.15625 31.039062 C 261.933594 30.808594 262.042969 28.15625 262.042969 26.457031 C 262.042969 24.800781 261.832031 22.195312 260.15625 21.847656 L 260.15625 22.117188 "/>
<path style=" stroke:none;fill-rule:nonzero;fill:rgb(0%,0%,0%);fill-opacity:1;" d="M 280.691406 17.480469 C 279.410156 17.230469 279.339844 14.816406 279.339844 13.136719 C 279.339844 11.636719 279.429688 9.113281 280.691406 8.796875 L 280.691406 8.527344 C 279.65625 8.707031 279.210938 9.839844 279.023438 10.792969 C 278.871094 11.539062 278.820312 12.3125 278.820312 13.078125 C 278.820312 13.882812 278.863281 14.6875 279.003906 15.480469 C 279.171875 16.425781 279.648438 17.628906 280.691406 17.71875 L 280.691406 17.480469 "/>
<path style=" stroke:none;fill-rule:nonzero;fill:rgb(0%,0%,0%);fill-opacity:1;" d="M 290.183594 13.574219 C 289.8125 14.03125 289.289062 14.816406 289.039062 15.859375 L 289.4375 15.859375 C 289.746094 14.558594 290.578125 13.65625 290.878906 13.378906 C 290.558594 13.078125 289.746094 12.183594 289.4375 10.894531 L 289.039062 10.894531 C 289.289062 11.925781 289.804688 12.710938 290.183594 13.175781 L 282.40625 13.175781 C 282.226562 13.175781 282.054688 13.175781 282.054688 13.378906 C 282.054688 13.574219 282.234375 13.574219 282.40625 13.574219 L 290.183594 13.574219 "/>
<path style=" stroke:none;fill-rule:nonzero;fill:rgb(0%,0%,0%);fill-opacity:1;" d="M 298.828125 12.523438 L 298.890625 12.046875 L 298.828125 11.976562 C 298.304688 12.015625 297.570312 12.046875 297.042969 12.046875 C 296.671875 12.046875 296.386719 12.074219 296.386719 11.90625 L 296.386719 10.257812 C 296.386719 9.910156 296.425781 9.542969 296.625 9.503906 L 297.023438 9.503906 C 297.089844 9.503906 298.414062 9.5625 299.097656 9.601562 L 299.136719 9.53125 L 299.15625 9.035156 C 299.027344 9.027344 298.878906 9.027344 298.699219 9.027344 C 297.996094 9.035156 296.992188 9.085938 296.296875 9.085938 L 294.828125 9.09375 L 294.757812 9.164062 L 294.765625 9.363281 C 295.234375 9.433594 295.464844 9.550781 295.523438 9.683594 C 295.609375 9.878906 295.609375 10.175781 295.609375 10.316406 L 295.609375 15.203125 C 295.609375 15.472656 295.671875 15.75 295.867188 15.859375 L 299.722656 15.859375 L 299.851562 15.332031 L 299.804688 15.285156 C 298.171875 15.421875 297.945312 15.421875 297.476562 15.421875 C 296.871094 15.421875 296.664062 15.363281 296.523438 15.105469 C 296.386719 14.855469 296.378906 14.371094 296.378906 13.992188 L 296.378906 12.613281 C 296.378906 12.433594 297.082031 12.464844 297.65625 12.464844 C 298.046875 12.464844 298.441406 12.492188 298.828125 12.523438 "/>
<path style=" stroke:none;fill-rule:nonzero;fill:rgb(0%,0%,0%);fill-opacity:1;" d="M 301.15625 8.816406 C 301.960938 9.105469 302.1875 10.039062 302.335938 10.785156 C 302.484375 11.550781 302.523438 12.34375 302.523438 13.117188 C 302.523438 14.25 302.546875 15.464844 302.1875 16.527344 C 301.988281 17.121094 301.609375 17.378906 301.15625 17.5 L 301.15625 17.738281 C 302.933594 17.507812 303.042969 14.855469 303.042969 13.160156 C 303.042969 11.5 302.832031 8.894531 301.15625 8.550781 L 301.15625 8.816406 "/>
<path style=" stroke:none;fill-rule:nonzero;fill:rgb(0%,0%,0%);fill-opacity:1;" d="M 321.164062 10.773438 L 321.96875 10.488281 C 321.886719 9.601562 321.847656 8.449219 321.847656 7.238281 C 321.847656 5.925781 321.886719 4.546875 321.988281 3.394531 L 321.777344 3.355469 L 321.339844 3.941406 L 321.253906 3.960938 C 320.972656 3.820312 320.578125 3.683594 320.269531 3.683594 C 318.589844 3.683594 317.882812 5.132812 317.882812 6.511719 C 317.882812 7.347656 318.261719 8.429688 319.304688 8.429688 C 319.929688 8.429688 320.507812 8.152344 321.011719 7.773438 L 321.082031 7.824219 C 321.054688 8.777344 321.03125 10.207031 321.003906 10.613281 Z M 321.082031 7.316406 C 320.753906 7.605469 320.316406 7.8125 319.929688 7.8125 C 319.117188 7.8125 318.796875 7.070312 318.796875 6.246094 C 318.796875 5.132812 319.136719 4.050781 320.257812 4.050781 C 320.515625 4.050781 320.746094 4.1875 320.921875 4.367188 C 321.082031 4.527344 321.082031 4.824219 321.082031 5.074219 L 321.082031 7.316406 "/>
<path style=" stroke:none;fill-rule:nonzero;fill:rgb(0%,0%,0%);fill-opacity:1;" d="M 330.964844 5.113281 C 331.132812 5.113281 331.3125 5.113281 331.3125 4.914062 C 331.3125 4.714844 331.132812 4.714844 330.964844 4.714844 L 326.742188 4.714844 L 326.742188 1.824219 C 326.742188 1.644531 326.742188 1.464844 326.546875 1.464844 C 326.347656 1.464844 326.347656 1.675781 326.347656 1.824219 L 326.347656 8.003906 C 326.347656 8.152344 326.347656 8.359375 326.546875 8.359375 C 326.742188 8.359375 326.742188 8.183594 326.742188 8.003906 L 326.742188 5.113281 L 330.964844 5.113281 "/>
<path style=" stroke:none;fill-rule:nonzero;fill:rgb(0%,0%,0%);fill-opacity:1;" d="M 338.761719 10.773438 L 339.566406 10.488281 C 339.488281 9.601562 339.445312 8.449219 339.445312 7.238281 C 339.445312 5.925781 339.488281 4.546875 339.589844 3.394531 L 339.378906 3.355469 L 338.941406 3.941406 L 338.851562 3.960938 C 338.574219 3.820312 338.175781 3.683594 337.867188 3.683594 C 336.1875 3.683594 335.484375 5.132812 335.484375 6.511719 C 335.484375 7.347656 335.859375 8.429688 336.90625 8.429688 C 337.53125 8.429688 338.105469 8.152344 338.613281 7.773438 L 338.683594 7.824219 C 338.652344 8.777344 338.632812 10.207031 338.601562 10.613281 Z M 338.683594 7.316406 C 338.355469 7.605469 337.917969 7.8125 337.53125 7.8125 C 336.714844 7.8125 336.398438 7.070312 336.398438 6.246094 C 336.398438 5.132812 336.734375 4.050781 337.859375 4.050781 C 338.117188 4.050781 338.34375 4.1875 338.523438 4.367188 C 338.683594 4.527344 338.683594 4.824219 338.683594 5.074219 L 338.683594 7.316406 "/>
<path style=" stroke:none;fill-rule:nonzero;fill:rgb(0%,0%,0%);fill-opacity:1;" d="M 356.839844 4.296875 L 350.847656 4.296875 L 350.847656 4.695312 L 356.441406 4.695312 L 356.441406 6.3125 L 356.839844 6.3125 L 356.839844 4.296875 "/>
<path style=" stroke:none;fill-rule:nonzero;fill:rgb(0%,0%,0%);fill-opacity:1;" d="M 361.664062 10.773438 L 362.46875 10.488281 C 362.386719 9.601562 362.347656 8.449219 362.347656 7.238281 C 362.347656 5.925781 362.386719 4.546875 362.488281 3.394531 L 362.277344 3.355469 L 361.839844 3.941406 L 361.753906 3.960938 C 361.472656 3.820312 361.078125 3.683594 360.769531 3.683594 C 359.089844 3.683594 358.382812 5.132812 358.382812 6.511719 C 358.382812 7.347656 358.761719 8.429688 359.804688 8.429688 C 360.429688 8.429688 361.007812 8.152344 361.511719 7.773438 L 361.582031 7.824219 C 361.554688 8.777344 361.53125 10.207031 361.503906 10.613281 Z M 361.582031 7.316406 C 361.253906 7.605469 360.816406 7.8125 360.429688 7.8125 C 359.617188 7.8125 359.296875 7.070312 359.296875 6.246094 C 359.296875 5.132812 359.636719 4.050781 360.757812 4.050781 C 361.015625 4.050781 361.246094 4.1875 361.421875 4.367188 C 361.582031 4.527344 361.582031 4.824219 361.582031 5.074219 L 361.582031 7.316406 "/>
<path style=" stroke:none;fill-rule:nonzero;fill:rgb(0%,0%,0%);fill-opacity:1;" d="M 371.464844 5.113281 C 371.632812 5.113281 371.8125 5.113281 371.8125 4.914062 C 371.8125 4.714844 371.632812 4.714844 371.464844 4.714844 L 367.242188 4.714844 L 367.242188 1.824219 C 367.242188 1.644531 367.242188 1.464844 367.046875 1.464844 C 366.847656 1.464844 366.847656 1.675781 366.847656 1.824219 L 366.847656 8.003906 C 366.847656 8.152344 366.847656 8.359375 367.046875 8.359375 C 367.242188 8.359375 367.242188 8.183594 367.242188 8.003906 L 367.242188 5.113281 L 371.464844 5.113281 "/>
<path style=" stroke:none;fill-rule:nonzero;fill:rgb(0%,0%,0%);fill-opacity:1;" d="M 381.339844 4.296875 L 375.347656 4.296875 L 375.347656 4.695312 L 380.941406 4.695312 L 380.941406 6.3125 L 381.339844 6.3125 L 381.339844 4.296875 "/>
<path style=" stroke:none;fill-rule:nonzero;fill:rgb(0%,0%,0%);fill-opacity:1;" d="M 386.0625 10.773438 L 386.867188 10.488281 C 386.789062 9.601562 386.746094 8.449219 386.746094 7.238281 C 386.746094 5.925781 386.789062 4.546875 386.886719 3.394531 L 386.679688 3.355469 L 386.242188 3.941406 L 386.152344 3.960938 C 385.871094 3.820312 385.476562 3.683594 385.167969 3.683594 C 383.488281 3.683594 382.785156 5.132812 382.785156 6.511719 C 382.785156 7.347656 383.160156 8.429688 384.203125 8.429688 C 384.828125 8.429688 385.40625 8.152344 385.914062 7.773438 L 385.984375 7.824219 C 385.953125 8.777344 385.933594 10.207031 385.902344 10.613281 Z M 385.984375 7.316406 C 385.65625 7.605469 385.21875 7.8125 384.828125 7.8125 C 384.015625 7.8125 383.699219 7.070312 383.699219 6.246094 C 383.699219 5.132812 384.035156 4.050781 385.15625 4.050781 C 385.417969 4.050781 385.644531 4.1875 385.824219 4.367188 C 385.984375 4.527344 385.984375 4.824219 385.984375 5.074219 L 385.984375 7.316406 "/>
<path style="fill:none;stroke-width:3.98;stroke-linecap:butt;stroke-linejoin:miter;stroke:rgb(0%,0%,0%);stroke-opacity:1;stroke-miterlimit:10;" d="M 3169.921875 631.123438 L 3879.6875 631.123438 " transform="matrix(0.1,0,0,-0.1,0,76.46)"/>
<path style=" stroke:none;fill-rule:nonzero;fill:rgb(0%,0%,0%);fill-opacity:1;" d="M 335.261719 25.074219 L 336.066406 24.785156 C 335.988281 23.902344 335.945312 22.75 335.945312 21.539062 C 335.945312 20.226562 335.988281 18.847656 336.089844 17.691406 L 335.878906 17.652344 L 335.441406 18.238281 L 335.351562 18.261719 C 335.074219 18.121094 334.675781 17.980469 334.367188 17.980469 C 332.6875 17.980469 331.984375 19.433594 331.984375 20.8125 C 331.984375 21.648438 332.359375 22.730469 333.40625 22.730469 C 334.03125 22.730469 334.605469 22.449219 335.113281 22.074219 L 335.183594 22.125 C 335.152344 23.078125 335.132812 24.507812 335.101562 24.914062 Z M 335.183594 21.617188 C 334.855469 21.90625 334.417969 22.113281 334.03125 22.113281 C 333.214844 22.113281 332.898438 21.371094 332.898438 20.542969 C 332.898438 19.433594 333.234375 18.347656 334.359375 18.347656 C 334.617188 18.347656 334.84375 18.488281 335.023438 18.667969 C 335.183594 18.824219 335.183594 19.125 335.183594 19.371094 L 335.183594 21.617188 "/>
<path style=" stroke:none;fill-rule:nonzero;fill:rgb(0%,0%,0%);fill-opacity:1;" d="M 338.292969 24.746094 C 338.996094 23.933594 339.328125 23.425781 339.328125 22.929688 C 339.328125 22.582031 338.976562 21.289062 338.453125 21.289062 C 338.203125 21.289062 337.867188 21.507812 337.867188 21.765625 C 337.867188 21.863281 337.894531 21.972656 337.933594 22.023438 L 338.628906 22.847656 C 338.71875 22.957031 338.757812 23.128906 338.757812 23.265625 C 338.757812 23.664062 338.453125 24.152344 338.105469 24.605469 L 338.292969 24.746094 "/>
<path style=" stroke:none;fill-rule:nonzero;fill:rgb(0%,0%,0%);fill-opacity:1;" d="M 347.839844 18.597656 L 341.847656 18.597656 L 341.847656 18.996094 L 347.441406 18.996094 L 347.441406 20.613281 L 347.839844 20.613281 L 347.839844 18.597656 "/>
<path style=" stroke:none;fill-rule:nonzero;fill:rgb(0%,0%,0%);fill-opacity:1;" d="M 352.5625 25.074219 L 353.367188 24.785156 C 353.289062 23.902344 353.246094 22.75 353.246094 21.539062 C 353.246094 20.226562 353.289062 18.847656 353.386719 17.691406 L 353.179688 17.652344 L 352.742188 18.238281 L 352.652344 18.261719 C 352.371094 18.121094 351.976562 17.980469 351.667969 17.980469 C 349.988281 17.980469 349.285156 19.433594 349.285156 20.8125 C 349.285156 21.648438 349.660156 22.730469 350.703125 22.730469 C 351.328125 22.730469 351.90625 22.449219 352.414062 22.074219 L 352.484375 22.125 C 352.453125 23.078125 352.433594 24.507812 352.402344 24.914062 Z M 352.484375 21.617188 C 352.15625 21.90625 351.71875 22.113281 351.328125 22.113281 C 350.515625 22.113281 350.199219 21.371094 350.199219 20.542969 C 350.199219 19.433594 350.535156 18.347656 351.65625 18.347656 C 351.917969 18.347656 352.144531 18.488281 352.324219 18.667969 C 352.484375 18.824219 352.484375 19.125 352.484375 19.371094 L 352.484375 21.617188 "/>
<path style=" stroke:none;fill-rule:nonzero;fill:rgb(0%,0%,0%);fill-opacity:1;" d="M 362.367188 19.410156 C 362.535156 19.410156 362.714844 19.410156 362.714844 19.214844 C 362.714844 19.015625 362.535156 19.015625 362.367188 19.015625 L 358.144531 19.015625 L 358.144531 16.125 C 358.144531 15.945312 358.144531 15.765625 357.945312 15.765625 C 357.746094 15.765625 357.746094 15.972656 357.746094 16.125 L 357.746094 22.300781 C 357.746094 22.449219 357.746094 22.660156 357.945312 22.660156 C 358.144531 22.660156 358.144531 22.480469 358.144531 22.300781 L 358.144531 19.410156 L 362.367188 19.410156 "/>
<path style=" stroke:none;fill-rule:nonzero;fill:rgb(0%,0%,0%);fill-opacity:1;" d="M 370.164062 16.382812 C 370.164062 16.203125 370.164062 16.023438 369.964844 16.023438 C 369.765625 16.023438 369.765625 16.234375 369.765625 16.382812 L 369.765625 22.261719 L 367.003906 22.261719 C 366.855469 22.261719 366.648438 22.261719 366.648438 22.460938 C 366.648438 22.660156 366.855469 22.660156 367.003906 22.660156 L 372.933594 22.660156 C 373.101562 22.660156 373.28125 22.660156 373.28125 22.460938 C 373.28125 22.261719 373.101562 22.261719 372.933594 22.261719 L 370.164062 22.261719 L 370.164062 16.382812 "/>
<path style=" stroke:none;fill-rule:nonzero;fill:rgb(0%,0%,0%);fill-opacity:1;" d="M 406.964844 15.480469 C 406.964844 15.304688 406.964844 15.125 406.765625 15.125 C 406.566406 15.125 406.566406 15.332031 406.566406 15.480469 L 406.566406 21.363281 L 403.804688 21.363281 C 403.65625 21.363281 403.445312 21.363281 403.445312 21.5625 C 403.445312 21.761719 403.65625 21.761719 403.804688 21.761719 L 409.734375 21.761719 C 409.902344 21.761719 410.082031 21.761719 410.082031 21.5625 C 410.082031 21.363281 409.902344 21.363281 409.734375 21.363281 L 406.964844 21.363281 L 406.964844 15.480469 "/>
<path style=" stroke:none;fill-rule:nonzero;fill:rgb(0%,0%,0%);fill-opacity:1;" d="M 422.082031 19.476562 C 421.714844 19.933594 421.1875 20.714844 420.9375 21.761719 L 421.339844 21.761719 C 421.644531 20.457031 422.480469 19.554688 422.777344 19.277344 C 422.460938 18.980469 421.644531 18.085938 421.339844 16.792969 L 420.9375 16.792969 C 421.1875 17.824219 421.703125 18.613281 422.082031 19.078125 L 414.304688 19.078125 C 414.125 19.078125 413.957031 19.078125 413.957031 19.277344 C 413.957031 19.476562 414.132812 19.476562 414.304688 19.476562 L 422.082031 19.476562 "/>
<path style=" stroke:none;fill-rule:nonzero;fill:rgb(0%,0%,0%);fill-opacity:1;" d="M 428.175781 23.808594 C 428.117188 23.289062 428.089844 22.324219 428.078125 21.871094 L 428.175781 21.789062 C 428.367188 21.839844 428.5625 21.871094 428.761719 21.871094 C 430.304688 21.871094 431.34375 20.261719 431.34375 18.800781 C 431.34375 18.054688 430.996094 17.140625 429.984375 17.140625 C 429.300781 17.140625 428.695312 17.449219 428.15625 17.875 L 428.078125 17.835938 C 428.039062 17.398438 427.878906 17.089844 427.429688 17.089844 C 426.996094 17.089844 426.476562 17.449219 426.082031 17.765625 L 426.21875 17.957031 C 426.457031 17.816406 426.734375 17.667969 426.945312 17.667969 C 427.242188 17.667969 427.332031 18.183594 427.332031 18.628906 L 427.332031 20.824219 C 427.332031 21.394531 427.320312 23.429688 427.273438 24.003906 L 427.371094 24.113281 Z M 428.097656 21.105469 C 428.097656 21.09375 428.078125 20.070312 428.078125 19.257812 C 428.078125 19.148438 428.109375 18.394531 428.109375 18.332031 C 428.574219 17.964844 428.980469 17.757812 429.488281 17.757812 C 430.121094 17.757812 430.511719 18.519531 430.511719 19.386719 C 430.511719 20.332031 430.171875 21.472656 428.972656 21.472656 C 428.644531 21.472656 428.335938 21.324219 428.097656 21.105469 "/>
<path style=" stroke:none;fill-rule:nonzero;fill:rgb(0%,0%,0%);fill-opacity:1;" d="M 439.964844 18.511719 C 440.132812 18.511719 440.3125 18.511719 440.3125 18.3125 C 440.3125 18.113281 440.132812 18.113281 439.964844 18.113281 L 435.742188 18.113281 L 435.742188 15.222656 C 435.742188 15.042969 435.742188 14.867188 435.546875 14.867188 C 435.347656 14.867188 435.347656 15.074219 435.347656 15.222656 L 435.347656 21.402344 C 435.347656 21.550781 435.347656 21.761719 435.546875 21.761719 C 435.742188 21.761719 435.742188 21.582031 435.742188 21.402344 L 435.742188 18.511719 L 439.964844 18.511719 "/>
<path style=" stroke:none;fill-rule:nonzero;fill:rgb(0%,0%,0%);fill-opacity:1;" d="M 447.664062 15.480469 C 447.664062 15.304688 447.664062 15.125 447.464844 15.125 C 447.265625 15.125 447.265625 15.332031 447.265625 15.480469 L 447.265625 21.363281 L 444.503906 21.363281 C 444.355469 21.363281 444.148438 21.363281 444.148438 21.5625 C 444.148438 21.761719 444.355469 21.761719 444.503906 21.761719 L 450.433594 21.761719 C 450.601562 21.761719 450.78125 21.761719 450.78125 21.5625 C 450.78125 21.363281 450.601562 21.363281 450.433594 21.363281 L 447.664062 21.363281 L 447.664062 15.480469 "/>
<path style=" stroke:none;fill-rule:nonzero;fill:rgb(0%,0%,0%);fill-opacity:1;" d="M 462.882812 19.476562 C 462.515625 19.933594 461.988281 20.714844 461.738281 21.761719 L 462.136719 21.761719 C 462.445312 20.457031 463.28125 19.554688 463.578125 19.277344 C 463.257812 18.980469 462.445312 18.085938 462.136719 16.792969 L 461.738281 16.792969 C 461.988281 17.824219 462.503906 18.613281 462.882812 19.078125 L 455.105469 19.078125 C 454.925781 19.078125 454.757812 19.078125 454.757812 19.277344 C 454.757812 19.476562 454.933594 19.476562 455.105469 19.476562 L 462.882812 19.476562 "/>
<path style=" stroke:none;fill-rule:nonzero;fill:rgb(0%,0%,0%);fill-opacity:1;" d="M 468.878906 23.808594 C 468.816406 23.289062 468.789062 22.324219 468.777344 21.871094 L 468.878906 21.789062 C 469.066406 21.839844 469.265625 21.871094 469.464844 21.871094 C 471.003906 21.871094 472.046875 20.261719 472.046875 18.800781 C 472.046875 18.054688 471.699219 17.140625 470.683594 17.140625 C 470 17.140625 469.394531 17.449219 468.855469 17.875 L 468.777344 17.835938 C 468.738281 17.398438 468.578125 17.089844 468.132812 17.089844 C 467.695312 17.089844 467.179688 17.449219 466.78125 17.765625 L 466.921875 17.957031 C 467.15625 17.816406 467.4375 17.667969 467.644531 17.667969 C 467.945312 17.667969 468.03125 18.183594 468.03125 18.628906 L 468.03125 20.824219 C 468.03125 21.394531 468.023438 23.429688 467.972656 24.003906 L 468.070312 24.113281 Z M 468.796875 21.105469 C 468.796875 21.09375 468.777344 20.070312 468.777344 19.257812 C 468.777344 19.148438 468.808594 18.394531 468.808594 18.332031 C 469.273438 17.964844 469.679688 17.757812 470.1875 17.757812 C 470.824219 17.757812 471.210938 18.519531 471.210938 19.386719 C 471.210938 20.332031 470.871094 21.472656 469.671875 21.472656 C 469.34375 21.472656 469.035156 21.324219 468.796875 21.105469 "/>
<g clip-path="url(#clip1)" clip-rule="nonzero">
<path style="fill:none;stroke-width:3.98;stroke-linecap:butt;stroke-linejoin:miter;stroke:rgb(0%,0%,0%);stroke-opacity:1;stroke-miterlimit:10;" d="M 2760.117188 497.646875 L 4777.539062 497.646875 " transform="matrix(0.1,0,0,-0.1,0,76.46)"/>
</g>
<path style=" stroke:none;fill-rule:nonzero;fill:rgb(0%,0%,0%);fill-opacity:1;" d="M 343.863281 38.472656 L 344.667969 38.1875 C 344.589844 37.300781 344.546875 36.148438 344.546875 34.9375 C 344.546875 33.625 344.589844 32.246094 344.6875 31.09375 L 344.476562 31.054688 L 344.039062 31.640625 L 343.953125 31.660156 C 343.671875 31.519531 343.277344 31.382812 342.96875 31.382812 C 341.289062 31.382812 340.585938 32.832031 340.585938 34.210938 C 340.585938 35.046875 340.960938 36.128906 342.003906 36.128906 C 342.628906 36.128906 343.207031 35.851562 343.714844 35.472656 L 343.78125 35.523438 C 343.753906 36.476562 343.734375 37.910156 343.703125 38.316406 Z M 343.78125 35.015625 C 343.453125 35.304688 343.015625 35.511719 342.628906 35.511719 C 341.816406 35.511719 341.496094 34.769531 341.496094 33.945312 C 341.496094 32.832031 341.835938 31.75 342.957031 31.75 C 343.21875 31.75 343.445312 31.886719 343.621094 32.066406 C 343.78125 32.226562 343.78125 32.523438 343.78125 32.773438 L 343.78125 35.015625 "/>
<path style=" stroke:none;fill-rule:nonzero;fill:rgb(0%,0%,0%);fill-opacity:1;" d="M 346.792969 38.144531 C 347.496094 37.332031 347.828125 36.824219 347.828125 36.328125 C 347.828125 35.980469 347.476562 34.691406 346.953125 34.691406 C 346.703125 34.691406 346.367188 34.910156 346.367188 35.167969 C 346.367188 35.265625 346.394531 35.375 346.433594 35.425781 L 347.128906 36.25 C 347.21875 36.359375 347.257812 36.527344 347.257812 36.667969 C 347.257812 37.0625 346.953125 37.550781 346.605469 38.007812 L 346.792969 38.144531 "/>
<path style=" stroke:none;fill-rule:nonzero;fill:rgb(0%,0%,0%);fill-opacity:1;" d="M 356.4375 31.996094 L 350.449219 31.996094 L 350.449219 32.394531 L 356.039062 32.394531 L 356.039062 34.011719 L 356.4375 34.011719 L 356.4375 31.996094 "/>
<path style=" stroke:none;fill-rule:nonzero;fill:rgb(0%,0%,0%);fill-opacity:1;" d="M 361.164062 38.472656 L 361.96875 38.1875 C 361.886719 37.300781 361.847656 36.148438 361.847656 34.9375 C 361.847656 33.625 361.886719 32.246094 361.988281 31.09375 L 361.777344 31.054688 L 361.339844 31.640625 L 361.253906 31.660156 C 360.972656 31.519531 360.578125 31.382812 360.269531 31.382812 C 358.589844 31.382812 357.882812 32.832031 357.882812 34.210938 C 357.882812 35.046875 358.261719 36.128906 359.304688 36.128906 C 359.929688 36.128906 360.507812 35.851562 361.011719 35.472656 L 361.082031 35.523438 C 361.054688 36.476562 361.03125 37.910156 361.003906 38.316406 Z M 361.082031 35.015625 C 360.753906 35.304688 360.316406 35.511719 359.929688 35.511719 C 359.117188 35.511719 358.796875 34.769531 358.796875 33.945312 C 358.796875 32.832031 359.136719 31.75 360.257812 31.75 C 360.515625 31.75 360.746094 31.886719 360.921875 32.066406 C 361.082031 32.226562 361.082031 32.523438 361.082031 32.773438 L 361.082031 35.015625 "/>
<path style=" stroke:none;fill-rule:nonzero;fill:rgb(0%,0%,0%);fill-opacity:1;" d="M 364.09375 38.144531 C 364.796875 37.332031 365.128906 36.824219 365.128906 36.328125 C 365.128906 35.980469 364.777344 34.691406 364.253906 34.691406 C 364.003906 34.691406 363.664062 34.910156 363.664062 35.167969 C 363.664062 35.265625 363.695312 35.375 363.734375 35.425781 L 364.429688 36.25 C 364.519531 36.359375 364.558594 36.527344 364.558594 36.667969 C 364.558594 37.0625 364.253906 37.550781 363.90625 38.007812 L 364.09375 38.144531 "/>
<path style=" stroke:none;fill-rule:nonzero;fill:rgb(0%,0%,0%);fill-opacity:1;" d="M 371.464844 29.78125 C 371.464844 29.605469 371.464844 29.425781 371.265625 29.425781 C 371.066406 29.425781 371.066406 29.632812 371.066406 29.78125 L 371.066406 35.664062 L 368.304688 35.664062 C 368.15625 35.664062 367.945312 35.664062 367.945312 35.863281 C 367.945312 36.058594 368.15625 36.058594 368.304688 36.058594 L 374.234375 36.058594 C 374.402344 36.058594 374.582031 36.058594 374.582031 35.863281 C 374.582031 35.664062 374.402344 35.664062 374.234375 35.664062 L 371.464844 35.664062 L 371.464844 29.78125 "/>
<path style=" stroke:none;fill-rule:nonzero;fill:rgb(0%,0%,0%);fill-opacity:1;" d="M 386.683594 33.777344 C 386.3125 34.230469 385.789062 35.015625 385.539062 36.058594 L 385.9375 36.058594 C 386.246094 34.757812 387.078125 33.855469 387.378906 33.578125 C 387.058594 33.277344 386.246094 32.386719 385.9375 31.09375 L 385.539062 31.09375 C 385.789062 32.125 386.304688 32.910156 386.683594 33.378906 L 378.90625 33.378906 C 378.726562 33.378906 378.554688 33.378906 378.554688 33.578125 C 378.554688 33.777344 378.734375 33.777344 378.90625 33.777344 L 386.683594 33.777344 "/>
<path style=" stroke:none;fill-rule:nonzero;fill:rgb(0%,0%,0%);fill-opacity:1;" d="M 392.675781 38.105469 C 392.617188 37.589844 392.589844 36.625 392.578125 36.167969 L 392.675781 36.089844 C 392.867188 36.140625 393.0625 36.167969 393.261719 36.167969 C 394.804688 36.167969 395.84375 34.558594 395.84375 33.097656 C 395.84375 32.355469 395.496094 31.441406 394.484375 31.441406 C 393.800781 31.441406 393.195312 31.75 392.65625 32.175781 L 392.578125 32.136719 C 392.539062 31.699219 392.378906 31.390625 391.929688 31.390625 C 391.496094 31.390625 390.976562 31.75 390.582031 32.066406 L 390.71875 32.253906 C 390.957031 32.117188 391.234375 31.96875 391.445312 31.96875 C 391.742188 31.96875 391.832031 32.484375 391.832031 32.929688 L 391.832031 35.125 C 391.832031 35.691406 391.820312 37.730469 391.773438 38.304688 L 391.871094 38.414062 Z M 392.597656 35.402344 C 392.597656 35.394531 392.578125 34.371094 392.578125 33.558594 C 392.578125 33.449219 392.609375 32.691406 392.609375 32.632812 C 393.074219 32.265625 393.480469 32.058594 393.988281 32.058594 C 394.621094 32.058594 395.011719 32.820312 395.011719 33.6875 C 395.011719 34.628906 394.671875 35.773438 393.472656 35.773438 C 393.144531 35.773438 392.835938 35.621094 392.597656 35.402344 "/>
<path style=" stroke:none;fill-rule:nonzero;fill:rgb(0%,0%,0%);fill-opacity:1;" d="M 404.464844 32.8125 C 404.632812 32.8125 404.8125 32.8125 404.8125 32.613281 C 404.8125 32.414062 404.632812 32.414062 404.464844 32.414062 L 400.242188 32.414062 L 400.242188 29.523438 C 400.242188 29.34375 400.242188 29.167969 400.046875 29.167969 C 399.847656 29.167969 399.847656 29.375 399.847656 29.523438 L 399.847656 35.703125 C 399.847656 35.851562 399.847656 36.058594 400.046875 36.058594 C 400.242188 36.058594 400.242188 35.882812 400.242188 35.703125 L 400.242188 32.8125 L 404.464844 32.8125 "/>
<path style=" stroke:none;fill-rule:nonzero;fill:rgb(0%,0%,0%);fill-opacity:1;" d="M 410.175781 38.105469 C 410.117188 37.589844 410.089844 36.625 410.078125 36.167969 L 410.175781 36.089844 C 410.367188 36.140625 410.5625 36.167969 410.761719 36.167969 C 412.304688 36.167969 413.34375 34.558594 413.34375 33.097656 C 413.34375 32.355469 412.996094 31.441406 411.984375 31.441406 C 411.300781 31.441406 410.695312 31.75 410.15625 32.175781 L 410.078125 32.136719 C 410.039062 31.699219 409.878906 31.390625 409.429688 31.390625 C 408.996094 31.390625 408.476562 31.75 408.082031 32.066406 L 408.21875 32.253906 C 408.457031 32.117188 408.734375 31.96875 408.945312 31.96875 C 409.242188 31.96875 409.332031 32.484375 409.332031 32.929688 L 409.332031 35.125 C 409.332031 35.691406 409.320312 37.730469 409.273438 38.304688 L 409.371094 38.414062 Z M 410.097656 35.402344 C 410.097656 35.394531 410.078125 34.371094 410.078125 33.558594 C 410.078125 33.449219 410.109375 32.691406 410.109375 32.632812 C 410.574219 32.265625 410.980469 32.058594 411.488281 32.058594 C 412.121094 32.058594 412.511719 32.820312 412.511719 33.6875 C 412.511719 34.628906 412.171875 35.773438 410.972656 35.773438 C 410.644531 35.773438 410.335938 35.621094 410.097656 35.402344 "/>
<g clip-path="url(#clip2)" clip-rule="nonzero">
<path style="fill:none;stroke-width:3.98;stroke-linecap:butt;stroke-linejoin:miter;stroke:rgb(0%,0%,0%);stroke-opacity:1;stroke-miterlimit:10;" d="M 1120.742188 364.13125 L 4777.578125 364.13125 " transform="matrix(0.1,0,0,-0.1,0,76.46)"/>
</g>
<path style=" stroke:none;fill-rule:nonzero;fill:rgb(0%,0%,0%);fill-opacity:1;" d="M 238.675781 51.40625 C 238.617188 50.890625 238.589844 49.925781 238.578125 49.46875 L 238.675781 49.390625 C 238.867188 49.441406 239.0625 49.46875 239.261719 49.46875 C 240.804688 49.46875 241.84375 47.859375 241.84375 46.398438 C 241.84375 45.65625 241.496094 44.742188 240.484375 44.742188 C 239.800781 44.742188 239.195312 45.050781 238.65625 45.476562 L 238.578125 45.4375 C 238.539062 45 238.378906 44.691406 237.929688 44.691406 C 237.496094 44.691406 236.976562 45.050781 236.582031 45.367188 L 236.71875 45.554688 C 236.957031 45.417969 237.234375 45.269531 237.445312 45.269531 C 237.742188 45.269531 237.832031 45.785156 237.832031 46.230469 L 237.832031 48.425781 C 237.832031 48.992188 237.820312 51.027344 237.773438 51.605469 L 237.871094 51.714844 Z M 238.597656 48.703125 C 238.597656 48.695312 238.578125 47.671875 238.578125 46.855469 C 238.578125 46.746094 238.609375 45.992188 238.609375 45.933594 C 239.074219 45.566406 239.480469 45.355469 239.988281 45.355469 C 240.621094 45.355469 241.011719 46.121094 241.011719 46.988281 C 241.011719 47.929688 240.671875 49.074219 239.472656 49.074219 C 239.144531 49.074219 238.835938 48.921875 238.597656 48.703125 "/>
<path style=" stroke:none;fill-rule:nonzero;fill:rgb(0%,0%,0%);fill-opacity:1;" d="M 252.308594 42.566406 L 252.269531 42.527344 L 251.882812 42.527344 L 248.523438 48.773438 L 245.277344 42.566406 L 244.859375 42.636719 L 248.445312 49.480469 L 248.59375 49.480469 L 252.308594 42.566406 "/>
<path style=" stroke:none;fill-rule:nonzero;fill:rgb(0%,0%,0%);fill-opacity:1;" d="M 258.863281 51.773438 L 259.667969 51.488281 C 259.589844 50.601562 259.546875 49.449219 259.546875 48.238281 C 259.546875 46.925781 259.589844 45.546875 259.6875 44.394531 L 259.476562 44.355469 L 259.039062 44.941406 L 258.953125 44.960938 C 258.671875 44.820312 258.277344 44.683594 257.96875 44.683594 C 256.289062 44.683594 255.585938 46.132812 255.585938 47.511719 C 255.585938 48.347656 255.960938 49.429688 257.003906 49.429688 C 257.628906 49.429688 258.207031 49.152344 258.714844 48.773438 L 258.78125 48.824219 C 258.753906 49.777344 258.734375 51.207031 258.703125 51.613281 Z M 258.78125 48.316406 C 258.453125 48.605469 258.015625 48.8125 257.628906 48.8125 C 256.816406 48.8125 256.496094 48.070312 256.496094 47.246094 C 256.496094 46.132812 256.835938 45.050781 257.957031 45.050781 C 258.21875 45.050781 258.445312 45.1875 258.621094 45.367188 C 258.78125 45.527344 258.78125 45.824219 258.78125 46.074219 L 258.78125 48.316406 "/>
<path style=" stroke:none;fill-rule:nonzero;fill:rgb(0%,0%,0%);fill-opacity:1;" d="M 261.890625 51.445312 C 262.597656 50.632812 262.925781 50.125 262.925781 49.628906 C 262.925781 49.28125 262.578125 47.988281 262.050781 47.988281 C 261.804688 47.988281 261.464844 48.207031 261.464844 48.464844 C 261.464844 48.566406 261.496094 48.675781 261.535156 48.722656 L 262.230469 49.550781 C 262.320312 49.660156 262.359375 49.828125 262.359375 49.964844 C 262.359375 50.363281 262.050781 50.851562 261.703125 51.308594 L 261.890625 51.445312 "/>
<path style=" stroke:none;fill-rule:nonzero;fill:rgb(0%,0%,0%);fill-opacity:1;" d="M 267.175781 51.40625 C 267.117188 50.890625 267.089844 49.925781 267.078125 49.46875 L 267.175781 49.390625 C 267.367188 49.441406 267.5625 49.46875 267.761719 49.46875 C 269.304688 49.46875 270.34375 47.859375 270.34375 46.398438 C 270.34375 45.65625 269.996094 44.742188 268.984375 44.742188 C 268.300781 44.742188 267.695312 45.050781 267.15625 45.476562 L 267.078125 45.4375 C 267.039062 45 266.878906 44.691406 266.429688 44.691406 C 265.996094 44.691406 265.476562 45.050781 265.082031 45.367188 L 265.21875 45.554688 C 265.457031 45.417969 265.734375 45.269531 265.945312 45.269531 C 266.242188 45.269531 266.332031 45.785156 266.332031 46.230469 L 266.332031 48.425781 C 266.332031 48.992188 266.320312 51.027344 266.273438 51.605469 L 266.371094 51.714844 Z M 267.097656 48.703125 C 267.097656 48.695312 267.078125 47.671875 267.078125 46.855469 C 267.078125 46.746094 267.109375 45.992188 267.109375 45.933594 C 267.574219 45.566406 267.980469 45.355469 268.488281 45.355469 C 269.121094 45.355469 269.511719 46.121094 269.511719 46.988281 C 269.511719 47.929688 269.171875 49.074219 267.972656 49.074219 C 267.644531 49.074219 267.335938 48.921875 267.097656 48.703125 "/>
<path style=" stroke:none;fill-rule:nonzero;fill:rgb(0%,0%,0%);fill-opacity:1;" d="M 280.808594 42.566406 L 280.769531 42.527344 L 280.382812 42.527344 L 277.023438 48.773438 L 273.777344 42.566406 L 273.359375 42.636719 L 276.945312 49.480469 L 277.09375 49.480469 L 280.808594 42.566406 "/>
<path style=" stroke:none;fill-rule:nonzero;fill:rgb(0%,0%,0%);fill-opacity:1;" d="M 287.363281 51.773438 L 288.167969 51.488281 C 288.089844 50.601562 288.046875 49.449219 288.046875 48.238281 C 288.046875 46.925781 288.089844 45.546875 288.1875 44.394531 L 287.976562 44.355469 L 287.539062 44.941406 L 287.453125 44.960938 C 287.171875 44.820312 286.777344 44.683594 286.46875 44.683594 C 284.789062 44.683594 284.085938 46.132812 284.085938 47.511719 C 284.085938 48.347656 284.460938 49.429688 285.503906 49.429688 C 286.128906 49.429688 286.707031 49.152344 287.214844 48.773438 L 287.28125 48.824219 C 287.253906 49.777344 287.234375 51.207031 287.203125 51.613281 Z M 287.28125 48.316406 C 286.953125 48.605469 286.515625 48.8125 286.128906 48.8125 C 285.316406 48.8125 284.996094 48.070312 284.996094 47.246094 C 284.996094 46.132812 285.335938 45.050781 286.457031 45.050781 C 286.71875 45.050781 286.945312 45.1875 287.121094 45.367188 C 287.28125 45.527344 287.28125 45.824219 287.28125 46.074219 L 287.28125 48.316406 "/>
<path style=" stroke:none;fill-rule:nonzero;fill:rgb(0%,0%,0%);fill-opacity:1;" d="M 295.4375 45.296875 L 289.449219 45.296875 L 289.449219 45.695312 L 295.039062 45.695312 L 295.039062 47.3125 L 295.4375 47.3125 L 295.4375 45.296875 "/>
<path style=" stroke:none;fill-rule:nonzero;fill:rgb(0%,0%,0%);fill-opacity:1;" d="M 300.261719 51.773438 L 301.066406 51.488281 C 300.988281 50.601562 300.945312 49.449219 300.945312 48.238281 C 300.945312 46.925781 300.988281 45.546875 301.089844 44.394531 L 300.878906 44.355469 L 300.441406 44.941406 L 300.351562 44.960938 C 300.074219 44.820312 299.675781 44.683594 299.367188 44.683594 C 297.6875 44.683594 296.984375 46.132812 296.984375 47.511719 C 296.984375 48.347656 297.359375 49.429688 298.40625 49.429688 C 299.03125 49.429688 299.605469 49.152344 300.113281 48.773438 L 300.183594 48.824219 C 300.152344 49.777344 300.132812 51.207031 300.101562 51.613281 Z M 300.183594 48.316406 C 299.855469 48.605469 299.417969 48.8125 299.03125 48.8125 C 298.214844 48.8125 297.898438 48.070312 297.898438 47.246094 C 297.898438 46.132812 298.234375 45.050781 299.359375 45.050781 C 299.617188 45.050781 299.84375 45.1875 300.023438 45.367188 C 300.183594 45.527344 300.183594 45.824219 300.183594 46.074219 L 300.183594 48.316406 "/>
<path style=" stroke:none;fill-rule:nonzero;fill:rgb(0%,0%,0%);fill-opacity:1;" d="M 303.191406 51.445312 C 303.898438 50.632812 304.226562 50.125 304.226562 49.628906 C 304.226562 49.28125 303.878906 47.988281 303.351562 47.988281 C 303.101562 47.988281 302.765625 48.207031 302.765625 48.464844 C 302.765625 48.566406 302.796875 48.675781 302.835938 48.722656 L 303.53125 49.550781 C 303.621094 49.660156 303.660156 49.828125 303.660156 49.964844 C 303.660156 50.363281 303.351562 50.851562 303.003906 51.308594 L 303.191406 51.445312 "/>
<path style=" stroke:none;fill-rule:nonzero;fill:rgb(0%,0%,0%);fill-opacity:1;" d="M 310.5625 43.082031 C 310.5625 42.902344 310.5625 42.722656 310.363281 42.722656 C 310.164062 42.722656 310.164062 42.933594 310.164062 43.082031 L 310.164062 48.964844 L 307.40625 48.964844 C 307.253906 48.964844 307.046875 48.964844 307.046875 49.160156 C 307.046875 49.359375 307.253906 49.359375 307.40625 49.359375 L 313.335938 49.359375 C 313.503906 49.359375 313.683594 49.359375 313.683594 49.160156 C 313.683594 48.964844 313.503906 48.964844 313.335938 48.964844 L 310.5625 48.964844 L 310.5625 43.082031 "/>
<path style=" stroke:none;fill-rule:nonzero;fill:rgb(0%,0%,0%);fill-opacity:1;" d="M 325.683594 47.074219 C 325.3125 47.53125 324.789062 48.316406 324.539062 49.359375 L 324.9375 49.359375 C 325.246094 48.058594 326.078125 47.15625 326.378906 46.878906 C 326.058594 46.578125 325.246094 45.683594 324.9375 44.394531 L 324.539062 44.394531 C 324.789062 45.425781 325.304688 46.210938 325.683594 46.675781 L 317.90625 46.675781 C 317.726562 46.675781 317.554688 46.675781 317.554688 46.878906 C 317.554688 47.074219 317.734375 47.074219 317.90625 47.074219 L 325.683594 47.074219 "/>
<path style=" stroke:none;fill-rule:nonzero;fill:rgb(0%,0%,0%);fill-opacity:1;" d="M 331.777344 51.40625 C 331.71875 50.890625 331.6875 49.925781 331.679688 49.46875 L 331.777344 49.390625 C 331.964844 49.441406 332.164062 49.46875 332.363281 49.46875 C 333.902344 49.46875 334.945312 47.859375 334.945312 46.398438 C 334.945312 45.65625 334.597656 44.742188 333.585938 44.742188 C 332.898438 44.742188 332.292969 45.050781 331.757812 45.476562 L 331.679688 45.4375 C 331.636719 45 331.476562 44.691406 331.03125 44.691406 C 330.59375 44.691406 330.078125 45.050781 329.679688 45.367188 L 329.820312 45.554688 C 330.058594 45.417969 330.335938 45.269531 330.546875 45.269531 C 330.84375 45.269531 330.933594 45.785156 330.933594 46.230469 L 330.933594 48.425781 C 330.933594 48.992188 330.921875 51.027344 330.871094 51.605469 L 330.972656 51.714844 Z M 331.695312 48.703125 C 331.695312 48.695312 331.679688 47.671875 331.679688 46.855469 C 331.679688 46.746094 331.707031 45.992188 331.707031 45.933594 C 332.171875 45.566406 332.582031 45.355469 333.089844 45.355469 C 333.722656 45.355469 334.109375 46.121094 334.109375 46.988281 C 334.109375 47.929688 333.773438 49.074219 332.570312 49.074219 C 332.242188 49.074219 331.9375 48.921875 331.695312 48.703125 "/>
<path style=" stroke:none;fill-rule:nonzero;fill:rgb(0%,0%,0%);fill-opacity:1;" d="M 343.566406 46.113281 C 343.734375 46.113281 343.914062 46.113281 343.914062 45.914062 C 343.914062 45.714844 343.734375 45.714844 343.566406 45.714844 L 339.34375 45.714844 L 339.34375 42.824219 C 339.34375 42.644531 339.34375 42.464844 339.144531 42.464844 C 338.945312 42.464844 338.945312 42.675781 338.945312 42.824219 L 338.945312 49.003906 C 338.945312 49.152344 338.945312 49.359375 339.144531 49.359375 C 339.34375 49.359375 339.34375 49.183594 339.34375 49.003906 L 339.34375 46.113281 L 343.566406 46.113281 "/>
<path style=" stroke:none;fill-rule:nonzero;fill:rgb(0%,0%,0%);fill-opacity:1;" d="M 349.277344 51.40625 C 349.21875 50.890625 349.1875 49.925781 349.179688 49.46875 L 349.277344 49.390625 C 349.464844 49.441406 349.664062 49.46875 349.863281 49.46875 C 351.402344 49.46875 352.445312 47.859375 352.445312 46.398438 C 352.445312 45.65625 352.097656 44.742188 351.085938 44.742188 C 350.398438 44.742188 349.792969 45.050781 349.257812 45.476562 L 349.179688 45.4375 C 349.136719 45 348.976562 44.691406 348.53125 44.691406 C 348.09375 44.691406 347.578125 45.050781 347.179688 45.367188 L 347.320312 45.554688 C 347.558594 45.417969 347.835938 45.269531 348.046875 45.269531 C 348.34375 45.269531 348.433594 45.785156 348.433594 46.230469 L 348.433594 48.425781 C 348.433594 48.992188 348.421875 51.027344 348.371094 51.605469 L 348.472656 51.714844 Z M 349.195312 48.703125 C 349.195312 48.695312 349.179688 47.671875 349.179688 46.855469 C 349.179688 46.746094 349.207031 45.992188 349.207031 45.933594 C 349.671875 45.566406 350.082031 45.355469 350.589844 45.355469 C 351.222656 45.355469 351.609375 46.121094 351.609375 46.988281 C 351.609375 47.929688 351.273438 49.074219 350.070312 49.074219 C 349.742188 49.074219 349.4375 48.921875 349.195312 48.703125 "/>
<g clip-path="url(#clip3)" clip-rule="nonzero">
<path style="fill:none;stroke-width:3.98;stroke-linecap:butt;stroke-linejoin:miter;stroke:rgb(0%,0%,0%);stroke-opacity:1;stroke-miterlimit:10;" d="M 761.015625 238.115625 L 4777.539062 238.115625 " transform="matrix(0.1,0,0,-0.1,0,76.46)"/>
</g>
<path style=" stroke:none;fill-rule:nonzero;fill:rgb(0%,0%,0%);fill-opacity:1;" d="M 231.4375 57.898438 L 225.449219 57.898438 L 225.449219 58.292969 L 231.039062 58.292969 L 231.039062 59.914062 L 231.4375 59.914062 L 231.4375 57.898438 "/>
<path style=" stroke:none;fill-rule:nonzero;fill:rgb(0%,0%,0%);fill-opacity:1;" d="M 236.164062 64.375 L 236.96875 64.085938 C 236.886719 63.203125 236.847656 62.050781 236.847656 60.839844 C 236.847656 59.527344 236.886719 58.144531 236.988281 56.992188 L 236.777344 56.953125 L 236.339844 57.539062 L 236.253906 57.558594 C 235.972656 57.421875 235.578125 57.28125 235.269531 57.28125 C 233.589844 57.28125 232.882812 58.730469 232.882812 60.113281 C 232.882812 60.949219 233.261719 62.03125 234.304688 62.03125 C 234.929688 62.03125 235.507812 61.75 236.011719 61.375 L 236.082031 61.425781 C 236.054688 62.378906 236.03125 63.808594 236.003906 64.214844 Z M 236.082031 60.917969 C 235.753906 61.207031 235.316406 61.414062 234.929688 61.414062 C 234.117188 61.414062 233.796875 60.667969 233.796875 59.84375 C 233.796875 58.730469 234.136719 57.648438 235.257812 57.648438 C 235.515625 57.648438 235.746094 57.789062 235.921875 57.964844 C 236.082031 58.125 236.082031 58.425781 236.082031 58.671875 L 236.082031 60.917969 "/>
<path style=" stroke:none;fill-rule:nonzero;fill:rgb(0%,0%,0%);fill-opacity:1;" d="M 239.191406 64.046875 C 239.898438 63.230469 240.226562 62.726562 240.226562 62.230469 C 240.226562 61.878906 239.878906 60.589844 239.351562 60.589844 C 239.101562 60.589844 238.765625 60.808594 238.765625 61.066406 C 238.765625 61.164062 238.796875 61.273438 238.835938 61.324219 L 239.53125 62.148438 C 239.621094 62.257812 239.660156 62.425781 239.660156 62.566406 C 239.660156 62.964844 239.351562 63.449219 239.003906 63.90625 L 239.191406 64.046875 "/>
<path style=" stroke:none;fill-rule:nonzero;fill:rgb(0%,0%,0%);fill-opacity:1;" d="M 246.5625 55.683594 C 246.5625 55.503906 246.5625 55.324219 246.363281 55.324219 C 246.164062 55.324219 246.164062 55.535156 246.164062 55.683594 L 246.164062 61.5625 L 243.40625 61.5625 C 243.253906 61.5625 243.046875 61.5625 243.046875 61.761719 C 243.046875 61.960938 243.253906 61.960938 243.40625 61.960938 L 249.335938 61.960938 C 249.503906 61.960938 249.683594 61.960938 249.683594 61.761719 C 249.683594 61.5625 249.503906 61.5625 249.335938 61.5625 L 246.5625 61.5625 L 246.5625 55.683594 "/>
<path style=" stroke:none;fill-rule:nonzero;fill:rgb(0%,0%,0%);fill-opacity:1;" d="M 261.683594 59.675781 C 261.3125 60.132812 260.789062 60.917969 260.539062 61.960938 L 260.9375 61.960938 C 261.246094 60.660156 262.078125 59.753906 262.378906 59.476562 C 262.058594 59.179688 261.246094 58.285156 260.9375 56.992188 L 260.539062 56.992188 C 260.789062 58.027344 261.304688 58.8125 261.683594 59.277344 L 253.90625 59.277344 C 253.726562 59.277344 253.554688 59.277344 253.554688 59.476562 C 253.554688 59.675781 253.734375 59.675781 253.90625 59.675781 L 261.683594 59.675781 "/>
<path style=" stroke:none;fill-rule:nonzero;fill:rgb(0%,0%,0%);fill-opacity:1;" d="M 267.675781 64.007812 C 267.617188 63.488281 267.589844 62.527344 267.578125 62.070312 L 267.675781 61.988281 C 267.867188 62.039062 268.0625 62.070312 268.261719 62.070312 C 269.804688 62.070312 270.84375 60.460938 270.84375 59 C 270.84375 58.253906 270.496094 57.339844 269.484375 57.339844 C 268.800781 57.339844 268.195312 57.648438 267.65625 58.074219 L 267.578125 58.035156 C 267.539062 57.597656 267.378906 57.292969 266.929688 57.292969 C 266.496094 57.292969 265.976562 57.648438 265.582031 57.964844 L 265.71875 58.15625 C 265.957031 58.015625 266.234375 57.867188 266.445312 57.867188 C 266.742188 57.867188 266.832031 58.382812 266.832031 58.832031 L 266.832031 61.027344 C 266.832031 61.59375 266.820312 63.628906 266.773438 64.207031 L 266.871094 64.316406 Z M 267.597656 61.304688 C 267.597656 61.292969 267.578125 60.269531 267.578125 59.457031 C 267.578125 59.347656 267.609375 58.59375 267.609375 58.535156 C 268.074219 58.164062 268.480469 57.957031 268.988281 57.957031 C 269.621094 57.957031 270.011719 58.722656 270.011719 59.585938 C 270.011719 60.53125 269.671875 61.671875 268.472656 61.671875 C 268.144531 61.671875 267.835938 61.523438 267.597656 61.304688 "/>
<path style=" stroke:none;fill-rule:nonzero;fill:rgb(0%,0%,0%);fill-opacity:1;" d="M 279.566406 58.710938 C 279.734375 58.710938 279.914062 58.710938 279.914062 58.511719 C 279.914062 58.316406 279.734375 58.316406 279.566406 58.316406 L 275.34375 58.316406 L 275.34375 55.425781 C 275.34375 55.246094 275.34375 55.066406 275.144531 55.066406 C 274.945312 55.066406 274.945312 55.273438 274.945312 55.425781 L 274.945312 61.601562 C 274.945312 61.75 274.945312 61.960938 275.144531 61.960938 C 275.34375 61.960938 275.34375 61.78125 275.34375 61.601562 L 275.34375 58.710938 L 279.566406 58.710938 "/>
<path style=" stroke:none;fill-rule:nonzero;fill:rgb(0%,0%,0%);fill-opacity:1;" d="M 285.175781 64.007812 C 285.117188 63.488281 285.089844 62.527344 285.078125 62.070312 L 285.175781 61.988281 C 285.367188 62.039062 285.5625 62.070312 285.761719 62.070312 C 287.304688 62.070312 288.34375 60.460938 288.34375 59 C 288.34375 58.253906 287.996094 57.339844 286.984375 57.339844 C 286.300781 57.339844 285.695312 57.648438 285.15625 58.074219 L 285.078125 58.035156 C 285.039062 57.597656 284.878906 57.292969 284.429688 57.292969 C 283.996094 57.292969 283.476562 57.648438 283.082031 57.964844 L 283.21875 58.15625 C 283.457031 58.015625 283.734375 57.867188 283.945312 57.867188 C 284.242188 57.867188 284.332031 58.382812 284.332031 58.832031 L 284.332031 61.027344 C 284.332031 61.59375 284.320312 63.628906 284.273438 64.207031 L 284.371094 64.316406 Z M 285.097656 61.304688 C 285.097656 61.292969 285.078125 60.269531 285.078125 59.457031 C 285.078125 59.347656 285.109375 58.59375 285.109375 58.535156 C 285.574219 58.164062 285.980469 57.957031 286.488281 57.957031 C 287.121094 57.957031 287.511719 58.722656 287.511719 59.585938 C 287.511719 60.53125 287.171875 61.671875 285.972656 61.671875 C 285.644531 61.671875 285.335938 61.523438 285.097656 61.304688 "/>
<path style=" stroke:none;fill-rule:nonzero;fill:rgb(0%,0%,0%);fill-opacity:1;" d="M 298.808594 55.164062 L 298.769531 55.125 L 298.382812 55.125 L 295.023438 61.375 L 291.777344 55.164062 L 291.359375 55.234375 L 294.945312 62.078125 L 295.09375 62.078125 L 298.808594 55.164062 "/>
<path style=" stroke:none;fill-rule:nonzero;fill:rgb(0%,0%,0%);fill-opacity:1;" d="M 305.363281 64.375 L 306.167969 64.085938 C 306.089844 63.203125 306.046875 62.050781 306.046875 60.839844 C 306.046875 59.527344 306.089844 58.144531 306.1875 56.992188 L 305.976562 56.953125 L 305.539062 57.539062 L 305.453125 57.558594 C 305.171875 57.421875 304.777344 57.28125 304.46875 57.28125 C 302.789062 57.28125 302.085938 58.730469 302.085938 60.113281 C 302.085938 60.949219 302.460938 62.03125 303.503906 62.03125 C 304.128906 62.03125 304.707031 61.75 305.214844 61.375 L 305.28125 61.425781 C 305.253906 62.378906 305.234375 63.808594 305.203125 64.214844 Z M 305.28125 60.917969 C 304.953125 61.207031 304.515625 61.414062 304.128906 61.414062 C 303.316406 61.414062 302.996094 60.667969 302.996094 59.84375 C 302.996094 58.730469 303.335938 57.648438 304.457031 57.648438 C 304.71875 57.648438 304.945312 57.789062 305.121094 57.964844 C 305.28125 58.125 305.28125 58.425781 305.28125 58.671875 L 305.28125 60.917969 "/>
<path style=" stroke:none;fill-rule:nonzero;fill:rgb(0%,0%,0%);fill-opacity:1;" d="M 318.683594 59.675781 C 318.3125 60.132812 317.789062 60.917969 317.539062 61.960938 L 317.9375 61.960938 C 318.246094 60.660156 319.078125 59.753906 319.378906 59.476562 C 319.058594 59.179688 318.246094 58.285156 317.9375 56.992188 L 317.539062 56.992188 C 317.789062 58.027344 318.304688 58.8125 318.683594 59.277344 L 310.90625 59.277344 C 310.726562 59.277344 310.554688 59.277344 310.554688 59.476562 C 310.554688 59.675781 310.734375 59.675781 310.90625 59.675781 L 318.683594 59.675781 "/>
<path style=" stroke:none;fill-rule:nonzero;fill:rgb(0%,0%,0%);fill-opacity:1;" d="M 324.777344 64.007812 C 324.71875 63.488281 324.6875 62.527344 324.679688 62.070312 L 324.777344 61.988281 C 324.964844 62.039062 325.164062 62.070312 325.363281 62.070312 C 326.902344 62.070312 327.945312 60.460938 327.945312 59 C 327.945312 58.253906 327.597656 57.339844 326.585938 57.339844 C 325.898438 57.339844 325.292969 57.648438 324.757812 58.074219 L 324.679688 58.035156 C 324.636719 57.597656 324.476562 57.292969 324.03125 57.292969 C 323.59375 57.292969 323.078125 57.648438 322.679688 57.964844 L 322.820312 58.15625 C 323.058594 58.015625 323.335938 57.867188 323.546875 57.867188 C 323.84375 57.867188 323.933594 58.382812 323.933594 58.832031 L 323.933594 61.027344 C 323.933594 61.59375 323.921875 63.628906 323.871094 64.207031 L 323.972656 64.316406 Z M 324.695312 61.304688 C 324.695312 61.292969 324.679688 60.269531 324.679688 59.457031 C 324.679688 59.347656 324.707031 58.59375 324.707031 58.535156 C 325.171875 58.164062 325.582031 57.957031 326.089844 57.957031 C 326.722656 57.957031 327.109375 58.722656 327.109375 59.585938 C 327.109375 60.53125 326.773438 61.671875 325.570312 61.671875 C 325.242188 61.671875 324.9375 61.523438 324.695312 61.304688 "/>
<g clip-path="url(#clip4)" clip-rule="nonzero">
<path style="fill:none;stroke-width:3.98;stroke-linecap:butt;stroke-linejoin:miter;stroke:rgb(0%,0%,0%);stroke-opacity:1;stroke-miterlimit:10;" d="M 372.226562 112.060938 L 4777.539062 112.060938 " transform="matrix(0.1,0,0,-0.1,0,76.46)"/>
</g>
<path style=" stroke:none;fill-rule:nonzero;fill:rgb(0%,0%,0%);fill-opacity:1;" d="M 204.261719 68.28125 C 204.261719 68.105469 204.261719 67.925781 204.0625 67.925781 C 203.867188 67.925781 203.867188 68.132812 203.867188 68.28125 L 203.867188 74.164062 L 201.105469 74.164062 C 200.953125 74.164062 200.746094 74.164062 200.746094 74.363281 C 200.746094 74.558594 200.953125 74.558594 201.105469 74.558594 L 207.035156 74.558594 C 207.203125 74.558594 207.382812 74.558594 207.382812 74.363281 C 207.382812 74.164062 207.203125 74.164062 207.035156 74.164062 L 204.261719 74.164062 L 204.261719 68.28125 "/>
<path style=" stroke:none;fill-rule:nonzero;fill:rgb(0%,0%,0%);fill-opacity:1;" d="M 219.382812 72.277344 C 219.015625 72.730469 218.488281 73.515625 218.238281 74.558594 L 218.636719 74.558594 C 218.945312 73.257812 219.78125 72.355469 220.078125 72.078125 C 219.757812 71.777344 218.945312 70.886719 218.636719 69.59375 L 218.238281 69.59375 C 218.488281 70.625 219.003906 71.410156 219.382812 71.878906 L 211.605469 71.878906 C 211.425781 71.878906 211.257812 71.878906 211.257812 72.078125 C 211.257812 72.277344 211.433594 72.277344 211.605469 72.277344 L 219.382812 72.277344 "/>
<g clip-path="url(#clip5)" clip-rule="nonzero">
<path style=" stroke:none;fill-rule:nonzero;fill:rgb(0%,0%,0%);fill-opacity:1;" d="M 225.476562 76.605469 C 225.417969 76.089844 225.386719 75.125 225.378906 74.667969 L 225.476562 74.589844 C 225.664062 74.640625 225.863281 74.667969 226.0625 74.667969 C 227.601562 74.667969 228.644531 73.058594 228.644531 71.597656 C 228.644531 70.855469 228.296875 69.941406 227.285156 69.941406 C 226.601562 69.941406 225.992188 70.25 225.457031 70.675781 L 225.378906 70.636719 C 225.339844 70.199219 225.179688 69.890625 224.730469 69.890625 C 224.296875 69.890625 223.777344 70.25 223.382812 70.566406 L 223.519531 70.753906 C 223.757812 70.617188 224.035156 70.46875 224.246094 70.46875 C 224.542969 70.46875 224.632812 70.984375 224.632812 71.429688 L 224.632812 73.625 C 224.632812 74.191406 224.621094 76.230469 224.574219 76.804688 L 224.671875 76.914062 Z M 225.398438 73.902344 C 225.398438 73.894531 225.378906 72.871094 225.378906 72.058594 C 225.378906 71.949219 225.40625 71.191406 225.40625 71.132812 C 225.871094 70.765625 226.28125 70.558594 226.789062 70.558594 C 227.421875 70.558594 227.8125 71.320312 227.8125 72.1875 C 227.8125 73.128906 227.472656 74.273438 226.273438 74.273438 C 225.945312 74.273438 225.636719 74.121094 225.398438 73.902344 "/>
</g>
<path style=" stroke:none;fill-rule:nonzero;fill:rgb(0%,0%,0%);fill-opacity:1;" d="M 237.265625 71.3125 C 237.433594 71.3125 237.613281 71.3125 237.613281 71.113281 C 237.613281 70.914062 237.433594 70.914062 237.265625 70.914062 L 233.042969 70.914062 L 233.042969 68.023438 C 233.042969 67.84375 233.042969 67.667969 232.84375 67.667969 C 232.648438 67.667969 232.648438 67.875 232.648438 68.023438 L 232.648438 74.203125 C 232.648438 74.351562 232.648438 74.558594 232.84375 74.558594 C 233.042969 74.558594 233.042969 74.382812 233.042969 74.203125 L 233.042969 71.3125 L 237.265625 71.3125 "/>
<path style=" stroke:none;fill-rule:nonzero;fill:rgb(0%,0%,0%);fill-opacity:1;" d="M 247.238281 70.496094 L 241.246094 70.496094 L 241.246094 70.894531 L 246.839844 70.894531 L 246.839844 72.511719 L 247.238281 72.511719 L 247.238281 70.496094 "/>
<g clip-path="url(#clip6)" clip-rule="nonzero">
<path style=" stroke:none;fill-rule:nonzero;fill:rgb(0%,0%,0%);fill-opacity:1;" d="M 249.777344 76.605469 C 249.71875 76.089844 249.6875 75.125 249.679688 74.667969 L 249.777344 74.589844 C 249.964844 74.640625 250.164062 74.667969 250.363281 74.667969 C 251.902344 74.667969 252.945312 73.058594 252.945312 71.597656 C 252.945312 70.855469 252.597656 69.941406 251.585938 69.941406 C 250.898438 69.941406 250.292969 70.25 249.757812 70.675781 L 249.679688 70.636719 C 249.636719 70.199219 249.476562 69.890625 249.03125 69.890625 C 248.59375 69.890625 248.078125 70.25 247.679688 70.566406 L 247.820312 70.753906 C 248.058594 70.617188 248.335938 70.46875 248.546875 70.46875 C 248.84375 70.46875 248.933594 70.984375 248.933594 71.429688 L 248.933594 73.625 C 248.933594 74.191406 248.921875 76.230469 248.871094 76.804688 L 248.972656 76.914062 Z M 249.695312 73.902344 C 249.695312 73.894531 249.679688 72.871094 249.679688 72.058594 C 249.679688 71.949219 249.707031 71.191406 249.707031 71.132812 C 250.171875 70.765625 250.582031 70.558594 251.089844 70.558594 C 251.722656 70.558594 252.109375 71.320312 252.109375 72.1875 C 252.109375 73.128906 251.773438 74.273438 250.570312 74.273438 C 250.242188 74.273438 249.9375 74.121094 249.695312 73.902344 "/>
</g>
<path style=" stroke:none;fill-rule:nonzero;fill:rgb(0%,0%,0%);fill-opacity:1;" d="M 265.082031 72.277344 C 264.714844 72.730469 264.1875 73.515625 263.9375 74.558594 L 264.339844 74.558594 C 264.644531 73.257812 265.480469 72.355469 265.777344 72.078125 C 265.460938 71.777344 264.644531 70.886719 264.339844 69.59375 L 263.9375 69.59375 C 264.1875 70.625 264.703125 71.410156 265.082031 71.878906 L 257.304688 71.878906 C 257.125 71.878906 256.957031 71.878906 256.957031 72.078125 C 256.957031 72.277344 257.132812 72.277344 257.304688 72.277344 L 265.082031 72.277344 "/>
<g clip-path="url(#clip7)" clip-rule="nonzero">
<path style=" stroke:none;fill-rule:nonzero;fill:rgb(0%,0%,0%);fill-opacity:1;" d="M 271.175781 76.605469 C 271.117188 76.089844 271.089844 75.125 271.078125 74.667969 L 271.175781 74.589844 C 271.367188 74.640625 271.5625 74.667969 271.761719 74.667969 C 273.304688 74.667969 274.34375 73.058594 274.34375 71.597656 C 274.34375 70.855469 273.996094 69.941406 272.984375 69.941406 C 272.300781 69.941406 271.695312 70.25 271.15625 70.675781 L 271.078125 70.636719 C 271.039062 70.199219 270.878906 69.890625 270.429688 69.890625 C 269.996094 69.890625 269.476562 70.25 269.082031 70.566406 L 269.21875 70.753906 C 269.457031 70.617188 269.734375 70.46875 269.945312 70.46875 C 270.242188 70.46875 270.332031 70.984375 270.332031 71.429688 L 270.332031 73.625 C 270.332031 74.191406 270.320312 76.230469 270.273438 76.804688 L 270.371094 76.914062 Z M 271.097656 73.902344 C 271.097656 73.894531 271.078125 72.871094 271.078125 72.058594 C 271.078125 71.949219 271.109375 71.191406 271.109375 71.132812 C 271.574219 70.765625 271.980469 70.558594 272.488281 70.558594 C 273.121094 70.558594 273.511719 71.320312 273.511719 72.1875 C 273.511719 73.128906 273.171875 74.273438 271.972656 74.273438 C 271.644531 74.273438 271.335938 74.121094 271.097656 73.902344 "/>
</g>
<path style=" stroke:none;fill-rule:nonzero;fill:rgb(0%,0%,0%);fill-opacity:1;" d="M 284.710938 67.765625 L 284.671875 67.726562 L 284.28125 67.726562 L 280.925781 73.972656 L 277.675781 67.765625 L 277.257812 67.835938 L 280.84375 74.679688 L 280.996094 74.679688 L 284.710938 67.765625 "/>
<g clip-path="url(#clip8)" clip-rule="nonzero">
<path style=" stroke:none;fill-rule:nonzero;fill:rgb(0%,0%,0%);fill-opacity:1;" d="M 291.363281 76.972656 L 292.167969 76.6875 C 292.089844 75.800781 292.046875 74.648438 292.046875 73.4375 C 292.046875 72.125 292.089844 70.746094 292.1875 69.59375 L 291.976562 69.554688 L 291.539062 70.140625 L 291.453125 70.160156 C 291.171875 70.019531 290.777344 69.882812 290.46875 69.882812 C 288.789062 69.882812 288.085938 71.332031 288.085938 72.710938 C 288.085938 73.546875 288.460938 74.628906 289.503906 74.628906 C 290.128906 74.628906 290.707031 74.351562 291.214844 73.972656 L 291.28125 74.023438 C 291.253906 74.976562 291.234375 76.410156 291.203125 76.816406 Z M 291.28125 73.515625 C 290.953125 73.804688 290.515625 74.011719 290.128906 74.011719 C 289.316406 74.011719 288.996094 73.269531 288.996094 72.445312 C 288.996094 71.332031 289.335938 70.25 290.457031 70.25 C 290.71875 70.25 290.945312 70.386719 291.121094 70.566406 C 291.28125 70.726562 291.28125 71.023438 291.28125 71.273438 L 291.28125 73.515625 "/>
</g>
<path style=" stroke:none;fill-rule:nonzero;fill:rgb(0%,0%,0%);fill-opacity:1;" d="M 304.683594 72.277344 C 304.3125 72.730469 303.789062 73.515625 303.539062 74.558594 L 303.9375 74.558594 C 304.246094 73.257812 305.078125 72.355469 305.378906 72.078125 C 305.058594 71.777344 304.246094 70.886719 303.9375 69.59375 L 303.539062 69.59375 C 303.789062 70.625 304.304688 71.410156 304.683594 71.878906 L 296.90625 71.878906 C 296.726562 71.878906 296.554688 71.878906 296.554688 72.078125 C 296.554688 72.277344 296.734375 72.277344 296.90625 72.277344 L 304.683594 72.277344 "/>
<g clip-path="url(#clip9)" clip-rule="nonzero">
<path style=" stroke:none;fill-rule:nonzero;fill:rgb(0%,0%,0%);fill-opacity:1;" d="M 312.863281 76.972656 L 313.667969 76.6875 C 313.589844 75.800781 313.546875 74.648438 313.546875 73.4375 C 313.546875 72.125 313.589844 70.746094 313.6875 69.59375 L 313.476562 69.554688 L 313.039062 70.140625 L 312.953125 70.160156 C 312.671875 70.019531 312.277344 69.882812 311.96875 69.882812 C 310.289062 69.882812 309.585938 71.332031 309.585938 72.710938 C 309.585938 73.546875 309.960938 74.628906 311.003906 74.628906 C 311.628906 74.628906 312.207031 74.351562 312.714844 73.972656 L 312.78125 74.023438 C 312.753906 74.976562 312.734375 76.410156 312.703125 76.816406 Z M 312.78125 73.515625 C 312.453125 73.804688 312.015625 74.011719 311.628906 74.011719 C 310.816406 74.011719 310.496094 73.269531 310.496094 72.445312 C 310.496094 71.332031 310.835938 70.25 311.957031 70.25 C 312.21875 70.25 312.445312 70.386719 312.621094 70.566406 C 312.78125 70.726562 312.78125 71.023438 312.78125 71.273438 L 312.78125 73.515625 "/>
</g>
</g>
</svg>
