<?xml version="1.0" encoding="UTF-8"?>
<svg xmlns="http://www.w3.org/2000/svg" xmlns:xlink="http://www.w3.org/1999/xlink" width="466.69pt" height="76.46pt" viewBox="0 0 466.69 76.46" version="1.1">
<defs>
<clipPath id="clip1">
  <path d="M 267 26 L 466.691406 26 L 466.691406 27 L 267 27 Z M 267 26 "/>
</clipPath>
<clipPath id="clip2">
  <path d="M 106 39 L 466.691406 39 L 466.691406 41 L 106 41 Z M 106 39 "/>
</clipPath>
<clipPath id="clip3">
  <path d="M 70 52 L 466.691406 52 L 466.691406 53 L 70 53 Z M 70 52 "/>
</clipPath>
<clipPath id="clip4">
  <path d="M 34 65 L 466.691406 65 L 466.691406 66 L 34 66 Z M 34 65 "/>
</clipPath>
<clipPath id="clip5">
  <path d="M 216 69 L 222 69 L 222 76.460938 L 216 76.460938 Z M 216 69 "/>
</clipPath>
<clipPath id="clip6">
  <path d="M 240 69 L 247 69 L 247 76.460938 L 240 76.460938 Z M 240 69 "/>
</clipPath>
<clipPath id="clip7">
  <path d="M 262 69 L 268 69 L 268 76.460938 L 262 76.460938 Z M 262 69 "/>
</clipPath>
<clipPath id="clip8">
  <path d="M 281 69 L 286 69 L 286 76.460938 L 281 76.460938 Z M 281 69 "/>
</clipPath>
<clipPath id="clip9">
  <path d="M 302 69 L 307 69 L 307 76.460938 L 302 76.460938 Z M 302 69 "/>
</clipPath>
</defs>
<g id="surface1">
<path style=" stroke:none;fill-rule:nonzero;fill:rgb(0%,0%,0%);fill-opacity:1;" d="M 2.992188 69.378906 C 1.710938 69.128906 1.640625 66.714844 1.640625 65.039062 C 1.640625 63.539062 1.726562 61.015625 2.992188 60.699219 L 2.992188 60.429688 C 1.957031 60.609375 1.507812 61.738281 1.320312 62.695312 C 1.171875 63.4375 1.121094 64.214844 1.121094 64.980469 C 1.121094 65.785156 1.164062 66.589844 1.300781 67.382812 C 1.46875 68.324219 1.945312 69.527344 2.992188 69.617188 L 2.992188 69.378906 "/>
<path style=" stroke:none;fill-rule:nonzero;fill:rgb(0%,0%,0%);fill-opacity:1;" d="M 12.582031 65.476562 C 12.214844 65.933594 11.6875 66.714844 11.4375 67.761719 L 11.835938 67.761719 C 12.144531 66.457031 12.980469 65.554688 13.277344 65.277344 C 12.960938 64.980469 12.144531 64.085938 11.835938 62.792969 L 11.4375 62.792969 C 11.6875 63.824219 12.203125 64.613281 12.582031 65.078125 L 4.804688 65.078125 C 4.625 65.078125 4.457031 65.078125 4.457031 65.277344 C 4.457031 65.476562 4.632812 65.476562 4.804688 65.476562 L 12.582031 65.476562 "/>
<path style=" stroke:none;fill-rule:nonzero;fill:rgb(0%,0%,0%);fill-opacity:1;" d="M 17.238281 67.769531 L 17.257812 67.53125 C 17.246094 67.53125 16.820312 67.421875 16.609375 67.363281 C 16.195312 67.253906 16.304688 66.507812 16.292969 66.082031 C 16.28125 65.476562 16.273438 64.859375 16.273438 64.195312 C 16.273438 63.417969 16.214844 62.238281 16.304688 61.652344 C 16.3125 61.53125 16.390625 61.421875 16.523438 61.394531 L 17.1875 61.242188 L 17.1875 61.035156 L 17.128906 60.976562 L 14.644531 60.976562 L 14.574219 61.035156 L 14.574219 61.253906 C 15.367188 61.433594 15.4375 61.382812 15.460938 61.679688 C 15.488281 62.058594 15.488281 62.433594 15.488281 62.824219 L 15.488281 66.429688 C 15.449219 67.253906 15.578125 67.324219 14.605469 67.511719 L 14.605469 67.769531 L 17.238281 67.769531 "/>
<path style=" stroke:none;fill-rule:nonzero;fill:rgb(0%,0%,0%);fill-opacity:1;" d="M 18.65625 60.714844 C 19.460938 61.003906 19.6875 61.9375 19.835938 62.683594 C 19.984375 63.449219 20.023438 64.242188 20.023438 65.019531 C 20.023438 66.152344 20.046875 67.363281 19.6875 68.425781 C 19.488281 69.019531 19.109375 69.28125 18.65625 69.398438 L 18.65625 69.636719 C 20.433594 69.410156 20.542969 66.757812 20.542969 65.058594 C 20.542969 63.398438 20.332031 60.796875 18.65625 60.449219 L 18.65625 60.714844 "/>
<path style=" stroke:none;fill-rule:nonzero;fill:rgb(0%,0%,0%);fill-opacity:1;" d="M 39.089844 56.777344 C 37.808594 56.53125 37.738281 54.117188 37.738281 52.4375 C 37.738281 50.9375 37.828125 48.414062 39.089844 48.097656 L 39.089844 47.828125 C 38.054688 48.007812 37.609375 49.140625 37.421875 50.09375 C 37.273438 50.839844 37.222656 51.613281 37.222656 52.378906 C 37.222656 53.183594 37.261719 53.988281 37.402344 54.78125 C 37.570312 55.726562 38.046875 56.929688 39.089844 57.019531 L 39.089844 56.777344 "/>
<path style=" stroke:none;fill-rule:nonzero;fill:rgb(0%,0%,0%);fill-opacity:1;" d="M 48.683594 52.875 C 48.3125 53.332031 47.789062 54.117188 47.539062 55.160156 L 47.9375 55.160156 C 48.246094 53.859375 49.078125 52.957031 49.378906 52.675781 C 49.058594 52.378906 48.246094 51.484375 47.9375 50.191406 L 47.539062 50.191406 C 47.789062 51.226562 48.304688 52.011719 48.683594 52.476562 L 40.90625 52.476562 C 40.726562 52.476562 40.554688 52.476562 40.554688 52.675781 C 40.554688 52.875 40.734375 52.875 40.90625 52.875 L 48.683594 52.875 "/>
<path style=" stroke:none;fill-rule:nonzero;fill:rgb(0%,0%,0%);fill-opacity:1;" d="M 53.335938 55.167969 L 53.355469 54.933594 C 53.347656 54.933594 52.921875 54.824219 52.710938 54.761719 C 52.292969 54.652344 52.402344 53.910156 52.394531 53.480469 C 52.382812 52.875 52.375 52.261719 52.375 51.59375 C 52.375 50.820312 52.3125 49.636719 52.402344 49.050781 C 52.414062 48.933594 52.492188 48.824219 52.621094 48.792969 L 53.289062 48.644531 L 53.289062 48.433594 L 53.226562 48.375 L 50.742188 48.375 L 50.675781 48.433594 L 50.675781 48.652344 C 51.46875 48.832031 51.539062 48.78125 51.558594 49.082031 C 51.589844 49.457031 51.589844 49.835938 51.589844 50.222656 L 51.589844 53.828125 C 51.546875 54.652344 51.679688 54.722656 50.703125 54.910156 L 50.703125 55.167969 L 53.335938 55.167969 "/>
<path style=" stroke:none;fill-rule:nonzero;fill:rgb(0%,0%,0%);fill-opacity:1;" d="M 54.753906 48.117188 C 55.558594 48.40625 55.789062 49.339844 55.9375 50.082031 C 56.085938 50.847656 56.125 51.644531 56.125 52.417969 C 56.125 53.550781 56.144531 54.761719 55.789062 55.824219 C 55.589844 56.421875 55.210938 56.679688 54.753906 56.800781 L 54.753906 57.039062 C 56.53125 56.808594 56.640625 54.15625 56.640625 52.457031 C 56.640625 50.800781 56.433594 48.195312 54.753906 47.847656 L 54.753906 48.117188 "/>
<path style=" stroke:none;fill-rule:nonzero;fill:rgb(0%,0%,0%);fill-opacity:1;" d="M 75.191406 44.179688 C 73.910156 43.929688 73.839844 41.515625 73.839844 39.839844 C 73.839844 38.339844 73.929688 35.816406 75.191406 35.496094 L 75.191406 35.230469 C 74.15625 35.410156 73.710938 36.539062 73.523438 37.496094 C 73.371094 38.238281 73.320312 39.011719 73.320312 39.777344 C 73.320312 40.582031 73.363281 41.386719 73.5 42.183594 C 73.671875 43.125 74.148438 44.328125 75.191406 44.417969 L 75.191406 44.179688 "/>
<path style=" stroke:none;fill-rule:nonzero;fill:rgb(0%,0%,0%);fill-opacity:1;" d="M 83.609375 35.765625 L 83.570312 35.726562 L 83.183594 35.726562 L 79.824219 41.972656 L 76.578125 35.765625 L 76.160156 35.835938 L 79.746094 42.679688 L 79.894531 42.679688 L 83.609375 35.765625 "/>
<path style=" stroke:none;fill-rule:nonzero;fill:rgb(0%,0%,0%);fill-opacity:1;" d="M 88.328125 39.222656 L 88.390625 38.746094 L 88.328125 38.675781 C 87.804688 38.714844 87.070312 38.746094 86.542969 38.746094 C 86.171875 38.746094 85.886719 38.777344 85.886719 38.605469 L 85.886719 36.957031 C 85.886719 36.609375 85.925781 36.242188 86.125 36.203125 L 86.523438 36.203125 C 86.589844 36.203125 87.914062 36.261719 88.597656 36.300781 L 88.636719 36.230469 L 88.65625 35.734375 C 88.527344 35.726562 88.378906 35.726562 88.199219 35.726562 C 87.496094 35.734375 86.492188 35.785156 85.796875 35.785156 L 84.328125 35.792969 L 84.257812 35.863281 L 84.265625 36.0625 C 84.734375 36.132812 84.960938 36.253906 85.023438 36.382812 C 85.109375 36.582031 85.109375 36.878906 85.109375 37.015625 L 85.109375 41.902344 C 85.109375 42.171875 85.171875 42.449219 85.367188 42.558594 L 89.222656 42.558594 L 89.351562 42.035156 L 89.304688 41.984375 C 87.671875 42.121094 87.445312 42.121094 86.976562 42.121094 C 86.375 42.121094 86.164062 42.0625 86.023438 41.804688 C 85.886719 41.558594 85.875 41.070312 85.875 40.691406 L 85.875 39.3125 C 85.875 39.132812 86.582031 39.164062 87.15625 39.164062 C 87.546875 39.164062 87.941406 39.191406 88.328125 39.222656 "/>
<path style=" stroke:none;fill-rule:nonzero;fill:rgb(0%,0%,0%);fill-opacity:1;" d="M 90.65625 35.515625 C 91.460938 35.804688 91.6875 36.738281 91.835938 37.484375 C 91.984375 38.25 92.023438 39.042969 92.023438 39.816406 C 92.023438 40.949219 92.046875 42.164062 91.6875 43.226562 C 91.488281 43.820312 91.109375 44.082031 90.65625 44.199219 L 90.65625 44.4375 C 92.433594 44.207031 92.542969 41.558594 92.542969 39.859375 C 92.542969 38.199219 92.332031 35.597656 90.65625 35.25 L 90.65625 35.515625 "/>
<path style=" stroke:none;fill-rule:nonzero;fill:rgb(0%,0%,0%);fill-opacity:1;" d="M 113.476562 37.105469 C 113.417969 36.589844 113.386719 35.625 113.378906 35.167969 L 113.476562 35.089844 C 113.664062 35.140625 113.863281 35.167969 114.0625 35.167969 C 115.601562 35.167969 116.644531 33.558594 116.644531 32.097656 C 116.644531 31.355469 116.296875 30.441406 115.285156 30.441406 C 114.601562 30.441406 113.992188 30.75 113.457031 31.175781 L 113.378906 31.136719 C 113.339844 30.699219 113.179688 30.390625 112.730469 30.390625 C 112.296875 30.390625 111.777344 30.75 111.382812 31.066406 L 111.519531 31.253906 C 111.757812 31.117188 112.035156 30.96875 112.246094 30.96875 C 112.542969 30.96875 112.632812 31.484375 112.632812 31.929688 L 112.632812 34.125 C 112.632812 34.691406 112.621094 36.730469 112.574219 37.304688 L 112.671875 37.414062 Z M 113.398438 34.402344 C 113.398438 34.394531 113.378906 33.371094 113.378906 32.558594 C 113.378906 32.449219 113.40625 31.691406 113.40625 31.632812 C 113.871094 31.265625 114.28125 31.058594 114.789062 31.058594 C 115.421875 31.058594 115.8125 31.820312 115.8125 32.6875 C 115.8125 33.628906 115.472656 34.773438 114.273438 34.773438 C 113.945312 34.773438 113.636719 34.621094 113.398438 34.402344 "/>
<path style=" stroke:none;fill-rule:nonzero;fill:rgb(0%,0%,0%);fill-opacity:1;" d="M 127.109375 28.265625 L 127.070312 28.226562 L 126.683594 28.226562 L 123.324219 34.472656 L 120.078125 28.265625 L 119.660156 28.335938 L 123.246094 35.179688 L 123.394531 35.179688 L 127.109375 28.265625 "/>
<path style=" stroke:none;fill-rule:nonzero;fill:rgb(0%,0%,0%);fill-opacity:1;" d="M 133.664062 37.472656 L 134.46875 37.1875 C 134.386719 36.300781 134.347656 35.148438 134.347656 33.9375 C 134.347656 32.625 134.386719 31.246094 134.488281 30.09375 L 134.277344 30.054688 L 133.839844 30.640625 L 133.753906 30.660156 C 133.472656 30.519531 133.078125 30.382812 132.769531 30.382812 C 131.089844 30.382812 130.382812 31.832031 130.382812 33.210938 C 130.382812 34.046875 130.761719 35.128906 131.804688 35.128906 C 132.429688 35.128906 133.007812 34.851562 133.511719 34.472656 L 133.582031 34.523438 C 133.554688 35.476562 133.53125 36.910156 133.503906 37.316406 Z M 133.582031 34.015625 C 133.253906 34.304688 132.816406 34.511719 132.429688 34.511719 C 131.617188 34.511719 131.296875 33.769531 131.296875 32.945312 C 131.296875 31.832031 131.636719 30.75 132.757812 30.75 C 133.015625 30.75 133.246094 30.886719 133.421875 31.066406 C 133.582031 31.226562 133.582031 31.523438 133.582031 31.773438 L 133.582031 34.015625 "/>
<path style=" stroke:none;fill-rule:nonzero;fill:rgb(0%,0%,0%);fill-opacity:1;" d="M 143.464844 31.8125 C 143.632812 31.8125 143.8125 31.8125 143.8125 31.613281 C 143.8125 31.414062 143.632812 31.414062 143.464844 31.414062 L 139.242188 31.414062 L 139.242188 28.523438 C 139.242188 28.34375 139.242188 28.167969 139.046875 28.167969 C 138.847656 28.167969 138.847656 28.375 138.847656 28.523438 L 138.847656 34.703125 C 138.847656 34.851562 138.847656 35.058594 139.046875 35.058594 C 139.242188 35.058594 139.242188 34.882812 139.242188 34.703125 L 139.242188 31.8125 L 143.464844 31.8125 "/>
<path style=" stroke:none;fill-rule:nonzero;fill:rgb(0%,0%,0%);fill-opacity:1;" d="M 149.175781 37.105469 C 149.117188 36.589844 149.089844 35.625 149.078125 35.167969 L 149.175781 35.089844 C 149.367188 35.140625 149.5625 35.167969 149.761719 35.167969 C 151.304688 35.167969 152.34375 33.558594 152.34375 32.097656 C 152.34375 31.355469 151.996094 30.441406 150.984375 30.441406 C 150.300781 30.441406 149.695312 30.75 149.15625 31.175781 L 149.078125 31.136719 C 149.039062 30.699219 148.878906 30.390625 148.429688 30.390625 C 147.996094 30.390625 147.476562 30.75 147.082031 31.066406 L 147.21875 31.253906 C 147.457031 31.117188 147.734375 30.96875 147.945312 30.96875 C 148.242188 30.96875 148.332031 31.484375 148.332031 31.929688 L 148.332031 34.125 C 148.332031 34.691406 148.320312 36.730469 148.273438 37.304688 L 148.371094 37.414062 Z M 149.097656 34.402344 C 149.097656 34.394531 149.078125 33.371094 149.078125 32.558594 C 149.078125 32.449219 149.109375 31.691406 149.109375 31.632812 C 149.574219 31.265625 149.980469 31.058594 150.488281 31.058594 C 151.121094 31.058594 151.511719 31.820312 151.511719 32.6875 C 151.511719 33.628906 151.171875 34.773438 149.972656 34.773438 C 149.644531 34.773438 149.335938 34.621094 149.097656 34.402344 "/>
<path style=" stroke:none;fill-rule:nonzero;fill:rgb(0%,0%,0%);fill-opacity:1;" d="M 162.808594 28.265625 L 162.769531 28.226562 L 162.382812 28.226562 L 159.023438 34.472656 L 155.777344 28.265625 L 155.359375 28.335938 L 158.945312 35.179688 L 159.09375 35.179688 L 162.808594 28.265625 "/>
<path style=" stroke:none;fill-rule:nonzero;fill:rgb(0%,0%,0%);fill-opacity:1;" d="M 169.363281 37.472656 L 170.167969 37.1875 C 170.089844 36.300781 170.046875 35.148438 170.046875 33.9375 C 170.046875 32.625 170.089844 31.246094 170.1875 30.09375 L 169.976562 30.054688 L 169.539062 30.640625 L 169.453125 30.660156 C 169.171875 30.519531 168.777344 30.382812 168.46875 30.382812 C 166.789062 30.382812 166.085938 31.832031 166.085938 33.210938 C 166.085938 34.046875 166.460938 35.128906 167.503906 35.128906 C 168.128906 35.128906 168.707031 34.851562 169.214844 34.472656 L 169.28125 34.523438 C 169.253906 35.476562 169.234375 36.910156 169.203125 37.316406 Z M 169.28125 34.015625 C 168.953125 34.304688 168.515625 34.511719 168.128906 34.511719 C 167.316406 34.511719 166.996094 33.769531 166.996094 32.945312 C 166.996094 31.832031 167.335938 30.75 168.457031 30.75 C 168.71875 30.75 168.945312 30.886719 169.121094 31.066406 C 169.28125 31.226562 169.28125 31.523438 169.28125 31.773438 L 169.28125 34.015625 "/>
<path style=" stroke:none;fill-rule:nonzero;fill:rgb(0%,0%,0%);fill-opacity:1;" d="M 193.175781 37.105469 C 193.117188 36.589844 193.089844 35.625 193.078125 35.167969 L 193.175781 35.089844 C 193.367188 35.140625 193.5625 35.167969 193.761719 35.167969 C 195.304688 35.167969 196.34375 33.558594 196.34375 32.097656 C 196.34375 31.355469 195.996094 30.441406 194.984375 30.441406 C 194.300781 30.441406 193.695312 30.75 193.15625 31.175781 L 193.078125 31.136719 C 193.039062 30.699219 192.878906 30.390625 192.429688 30.390625 C 191.996094 30.390625 191.476562 30.75 191.082031 31.066406 L 191.21875 31.253906 C 191.457031 31.117188 191.734375 30.96875 191.945312 30.96875 C 192.242188 30.96875 192.332031 31.484375 192.332031 31.929688 L 192.332031 34.125 C 192.332031 34.691406 192.320312 36.730469 192.273438 37.304688 L 192.371094 37.414062 Z M 193.097656 34.402344 C 193.097656 34.394531 193.078125 33.371094 193.078125 32.558594 C 193.078125 32.449219 193.109375 31.691406 193.109375 31.632812 C 193.574219 31.265625 193.980469 31.058594 194.488281 31.058594 C 195.121094 31.058594 195.511719 31.820312 195.511719 32.6875 C 195.511719 33.628906 195.171875 34.773438 193.972656 34.773438 C 193.644531 34.773438 193.335938 34.621094 193.097656 34.402344 "/>
<path style=" stroke:none;fill-rule:nonzero;fill:rgb(0%,0%,0%);fill-opacity:1;" d="M 204.964844 31.8125 C 205.132812 31.8125 205.3125 31.8125 205.3125 31.613281 C 205.3125 31.414062 205.132812 31.414062 204.964844 31.414062 L 200.742188 31.414062 L 200.742188 28.523438 C 200.742188 28.34375 200.742188 28.167969 200.546875 28.167969 C 200.347656 28.167969 200.347656 28.375 200.347656 28.523438 L 200.347656 34.703125 C 200.347656 34.851562 200.347656 35.058594 200.546875 35.058594 C 200.742188 35.058594 200.742188 34.882812 200.742188 34.703125 L 200.742188 31.8125 L 204.964844 31.8125 "/>
<path style=" stroke:none;fill-rule:nonzero;fill:rgb(0%,0%,0%);fill-opacity:1;" d="M 210.675781 37.105469 C 210.617188 36.589844 210.589844 35.625 210.578125 35.167969 L 210.675781 35.089844 C 210.867188 35.140625 211.0625 35.167969 211.261719 35.167969 C 212.804688 35.167969 213.84375 33.558594 213.84375 32.097656 C 213.84375 31.355469 213.496094 30.441406 212.484375 30.441406 C 211.800781 30.441406 211.195312 30.75 210.65625 31.175781 L 210.578125 31.136719 C 210.539062 30.699219 210.378906 30.390625 209.929688 30.390625 C 209.496094 30.390625 208.976562 30.75 208.582031 31.066406 L 208.71875 31.253906 C 208.957031 31.117188 209.234375 30.96875 209.445312 30.96875 C 209.742188 30.96875 209.832031 31.484375 209.832031 31.929688 L 209.832031 34.125 C 209.832031 34.691406 209.820312 36.730469 209.773438 37.304688 L 209.871094 37.414062 Z M 210.597656 34.402344 C 210.597656 34.394531 210.578125 33.371094 210.578125 32.558594 C 210.578125 32.449219 210.609375 31.691406 210.609375 31.632812 C 211.074219 31.265625 211.480469 31.058594 211.988281 31.058594 C 212.621094 31.058594 213.011719 31.820312 213.011719 32.6875 C 213.011719 33.628906 212.671875 34.773438 211.472656 34.773438 C 211.144531 34.773438 210.835938 34.621094 210.597656 34.402344 "/>
<path style=" stroke:none;fill-rule:nonzero;fill:rgb(0%,0%,0%);fill-opacity:1;" d="M 234.191406 30.777344 C 232.910156 30.53125 232.839844 28.117188 232.839844 26.4375 C 232.839844 24.9375 232.929688 22.414062 234.191406 22.097656 L 234.191406 21.828125 C 233.15625 22.007812 232.710938 23.140625 232.523438 24.09375 C 232.371094 24.839844 232.320312 25.613281 232.320312 26.378906 C 232.320312 27.183594 232.363281 27.988281 232.503906 28.78125 C 232.671875 29.726562 233.148438 30.929688 234.191406 31.019531 L 234.191406 30.777344 "/>
<path style=" stroke:none;fill-rule:nonzero;fill:rgb(0%,0%,0%);fill-opacity:1;" d="M 243.683594 26.875 C 243.3125 27.332031 242.789062 28.117188 242.539062 29.160156 L 242.9375 29.160156 C 243.246094 27.859375 244.078125 26.957031 244.378906 26.675781 C 244.058594 26.378906 243.246094 25.484375 242.9375 24.191406 L 242.539062 24.191406 C 242.789062 25.226562 243.304688 26.011719 243.683594 26.476562 L 235.90625 26.476562 C 235.726562 26.476562 235.554688 26.476562 235.554688 26.675781 C 235.554688 26.875 235.734375 26.875 235.90625 26.875 L 243.683594 26.875 "/>
<path style=" stroke:none;fill-rule:nonzero;fill:rgb(0%,0%,0%);fill-opacity:1;" d="M 249.53125 25.824219 L 249.589844 25.347656 L 249.53125 25.277344 C 249.003906 25.316406 248.269531 25.347656 247.742188 25.347656 C 247.371094 25.347656 247.085938 25.375 247.085938 25.207031 L 247.085938 23.558594 C 247.085938 23.210938 247.128906 22.84375 247.324219 22.800781 L 247.722656 22.800781 C 247.789062 22.800781 249.113281 22.863281 249.796875 22.902344 L 249.839844 22.832031 L 249.859375 22.335938 C 249.726562 22.324219 249.578125 22.324219 249.398438 22.324219 C 248.695312 22.335938 247.691406 22.386719 246.996094 22.386719 L 245.527344 22.394531 L 245.457031 22.464844 L 245.46875 22.664062 C 245.933594 22.734375 246.164062 22.851562 246.222656 22.980469 C 246.3125 23.179688 246.3125 23.476562 246.3125 23.617188 L 246.3125 28.503906 C 246.3125 28.773438 246.371094 29.050781 246.570312 29.160156 L 250.421875 29.160156 L 250.554688 28.632812 L 250.503906 28.582031 C 248.871094 28.722656 248.644531 28.722656 248.179688 28.722656 C 247.574219 28.722656 247.363281 28.664062 247.226562 28.40625 C 247.085938 28.15625 247.078125 27.667969 247.078125 27.292969 L 247.078125 25.910156 C 247.078125 25.734375 247.78125 25.761719 248.359375 25.761719 C 248.746094 25.761719 249.140625 25.792969 249.53125 25.824219 "/>
<path style=" stroke:none;fill-rule:nonzero;fill:rgb(0%,0%,0%);fill-opacity:1;" d="M 251.855469 22.117188 C 252.660156 22.40625 252.886719 23.339844 253.035156 24.082031 C 253.1875 24.847656 253.226562 25.644531 253.226562 26.417969 C 253.226562 27.550781 253.246094 28.761719 252.886719 29.824219 C 252.6875 30.421875 252.3125 30.679688 251.855469 30.800781 L 251.855469 31.039062 C 253.632812 30.808594 253.742188 28.15625 253.742188 26.457031 C 253.742188 24.800781 253.53125 22.195312 251.855469 21.847656 L 251.855469 22.117188 "/>
<path style=" stroke:none;fill-rule:nonzero;fill:rgb(0%,0%,0%);fill-opacity:1;" d="M 272.390625 17.480469 C 271.109375 17.230469 271.039062 14.816406 271.039062 13.136719 C 271.039062 11.636719 271.128906 9.113281 272.390625 8.796875 L 272.390625 8.527344 C 271.355469 8.707031 270.910156 9.839844 270.722656 10.792969 C 270.570312 11.539062 270.523438 12.3125 270.523438 13.078125 C 270.523438 13.882812 270.5625 14.6875 270.703125 15.480469 C 270.871094 16.425781 271.347656 17.628906 272.390625 17.71875 L 272.390625 17.480469 "/>
<path style=" stroke:none;fill-rule:nonzero;fill:rgb(0%,0%,0%);fill-opacity:1;" d="M 281.882812 13.574219 C 281.515625 14.03125 280.988281 14.816406 280.738281 15.859375 L 281.136719 15.859375 C 281.445312 14.558594 282.28125 13.65625 282.578125 13.378906 C 282.257812 13.078125 281.445312 12.183594 281.136719 10.894531 L 280.738281 10.894531 C 280.988281 11.925781 281.503906 12.710938 281.882812 13.175781 L 274.105469 13.175781 C 273.925781 13.175781 273.757812 13.175781 273.757812 13.378906 C 273.757812 13.574219 273.933594 13.574219 274.105469 13.574219 L 281.882812 13.574219 "/>
<path style=" stroke:none;fill-rule:nonzero;fill:rgb(0%,0%,0%);fill-opacity:1;" d="M 287.730469 12.523438 L 287.789062 12.046875 L 287.730469 11.976562 C 287.203125 12.015625 286.46875 12.046875 285.941406 12.046875 C 285.574219 12.046875 285.285156 12.074219 285.285156 11.90625 L 285.285156 10.257812 C 285.285156 9.910156 285.328125 9.542969 285.523438 9.503906 L 285.921875 9.503906 C 285.992188 9.503906 287.3125 9.5625 287.996094 9.601562 L 288.039062 9.53125 L 288.058594 9.035156 C 287.929688 9.027344 287.78125 9.027344 287.601562 9.027344 C 286.894531 9.035156 285.890625 9.085938 285.195312 9.085938 L 283.726562 9.09375 L 283.65625 9.164062 L 283.667969 9.363281 C 284.132812 9.433594 284.363281 9.550781 284.421875 9.683594 C 284.511719 9.878906 284.511719 10.175781 284.511719 10.316406 L 284.511719 15.203125 C 284.511719 15.472656 284.570312 15.75 284.769531 15.859375 L 288.621094 15.859375 L 288.753906 15.332031 L 288.703125 15.285156 C 287.074219 15.421875 286.84375 15.421875 286.378906 15.421875 C 285.773438 15.421875 285.5625 15.363281 285.425781 15.105469 C 285.285156 14.855469 285.277344 14.371094 285.277344 13.992188 L 285.277344 12.613281 C 285.277344 12.433594 285.980469 12.464844 286.558594 12.464844 C 286.945312 12.464844 287.34375 12.492188 287.730469 12.523438 "/>
<path style=" stroke:none;fill-rule:nonzero;fill:rgb(0%,0%,0%);fill-opacity:1;" d="M 290.054688 8.816406 C 290.859375 9.105469 291.089844 10.039062 291.234375 10.785156 C 291.386719 11.550781 291.425781 12.34375 291.425781 13.117188 C 291.425781 14.25 291.445312 15.464844 291.089844 16.527344 C 290.890625 17.121094 290.511719 17.378906 290.054688 17.5 L 290.054688 17.738281 C 291.832031 17.507812 291.941406 14.855469 291.941406 13.160156 C 291.941406 11.5 291.734375 8.894531 290.054688 8.550781 L 290.054688 8.816406 "/>
<path style=" stroke:none;fill-rule:nonzero;fill:rgb(0%,0%,0%);fill-opacity:1;" d="M 310.0625 10.773438 L 310.867188 10.488281 C 310.789062 9.601562 310.746094 8.449219 310.746094 7.238281 C 310.746094 5.925781 310.789062 4.546875 310.886719 3.394531 L 310.679688 3.355469 L 310.242188 3.941406 L 310.152344 3.960938 C 309.871094 3.820312 309.476562 3.683594 309.167969 3.683594 C 307.488281 3.683594 306.785156 5.132812 306.785156 6.511719 C 306.785156 7.347656 307.160156 8.429688 308.203125 8.429688 C 308.828125 8.429688 309.40625 8.152344 309.914062 7.773438 L 309.984375 7.824219 C 309.953125 8.777344 309.933594 10.207031 309.902344 10.613281 Z M 309.984375 7.316406 C 309.65625 7.605469 309.21875 7.8125 308.828125 7.8125 C 308.015625 7.8125 307.699219 7.070312 307.699219 6.246094 C 307.699219 5.132812 308.035156 4.050781 309.15625 4.050781 C 309.417969 4.050781 309.644531 4.1875 309.824219 4.367188 C 309.984375 4.527344 309.984375 4.824219 309.984375 5.074219 L 309.984375 7.316406 "/>
<path style=" stroke:none;fill-rule:nonzero;fill:rgb(0%,0%,0%);fill-opacity:1;" d="M 319.867188 5.113281 C 320.035156 5.113281 320.214844 5.113281 320.214844 4.914062 C 320.214844 4.714844 320.035156 4.714844 319.867188 4.714844 L 315.644531 4.714844 L 315.644531 1.824219 C 315.644531 1.644531 315.644531 1.464844 315.445312 1.464844 C 315.246094 1.464844 315.246094 1.675781 315.246094 1.824219 L 315.246094 8.003906 C 315.246094 8.152344 315.246094 8.359375 315.445312 8.359375 C 315.644531 8.359375 315.644531 8.183594 315.644531 8.003906 L 315.644531 5.113281 L 319.867188 5.113281 "/>
<path style=" stroke:none;fill-rule:nonzero;fill:rgb(0%,0%,0%);fill-opacity:1;" d="M 327.761719 10.773438 L 328.566406 10.488281 C 328.488281 9.601562 328.445312 8.449219 328.445312 7.238281 C 328.445312 5.925781 328.488281 4.546875 328.589844 3.394531 L 328.378906 3.355469 L 327.941406 3.941406 L 327.851562 3.960938 C 327.574219 3.820312 327.175781 3.683594 326.867188 3.683594 C 325.1875 3.683594 324.484375 5.132812 324.484375 6.511719 C 324.484375 7.347656 324.859375 8.429688 325.90625 8.429688 C 326.53125 8.429688 327.105469 8.152344 327.613281 7.773438 L 327.683594 7.824219 C 327.652344 8.777344 327.632812 10.207031 327.601562 10.613281 Z M 327.683594 7.316406 C 327.355469 7.605469 326.917969 7.8125 326.53125 7.8125 C 325.714844 7.8125 325.398438 7.070312 325.398438 6.246094 C 325.398438 5.132812 325.734375 4.050781 326.859375 4.050781 C 327.117188 4.050781 327.34375 4.1875 327.523438 4.367188 C 327.683594 4.527344 327.683594 4.824219 327.683594 5.074219 L 327.683594 7.316406 "/>
<path style=" stroke:none;fill-rule:nonzero;fill:rgb(0%,0%,0%);fill-opacity:1;" d="M 345.839844 4.296875 L 339.847656 4.296875 L 339.847656 4.695312 L 345.441406 4.695312 L 345.441406 6.3125 L 345.839844 6.3125 L 345.839844 4.296875 "/>
<path style=" stroke:none;fill-rule:nonzero;fill:rgb(0%,0%,0%);fill-opacity:1;" d="M 350.5625 10.773438 L 351.367188 10.488281 C 351.289062 9.601562 351.246094 8.449219 351.246094 7.238281 C 351.246094 5.925781 351.289062 4.546875 351.386719 3.394531 L 351.179688 3.355469 L 350.742188 3.941406 L 350.652344 3.960938 C 350.371094 3.820312 349.976562 3.683594 349.667969 3.683594 C 347.988281 3.683594 347.285156 5.132812 347.285156 6.511719 C 347.285156 7.347656 347.660156 8.429688 348.703125 8.429688 C 349.328125 8.429688 349.90625 8.152344 350.414062 7.773438 L 350.484375 7.824219 C 350.453125 8.777344 350.433594 10.207031 350.402344 10.613281 Z M 350.484375 7.316406 C 350.15625 7.605469 349.71875 7.8125 349.328125 7.8125 C 348.515625 7.8125 348.199219 7.070312 348.199219 6.246094 C 348.199219 5.132812 348.535156 4.050781 349.65625 4.050781 C 349.917969 4.050781 350.144531 4.1875 350.324219 4.367188 C 350.484375 4.527344 350.484375 4.824219 350.484375 5.074219 L 350.484375 7.316406 "/>
<path style=" stroke:none;fill-rule:nonzero;fill:rgb(0%,0%,0%);fill-opacity:1;" d="M 360.367188 5.113281 C 360.535156 5.113281 360.714844 5.113281 360.714844 4.914062 C 360.714844 4.714844 360.535156 4.714844 360.367188 4.714844 L 356.144531 4.714844 L 356.144531 1.824219 C 356.144531 1.644531 356.144531 1.464844 355.945312 1.464844 C 355.746094 1.464844 355.746094 1.675781 355.746094 1.824219 L 355.746094 8.003906 C 355.746094 8.152344 355.746094 8.359375 355.945312 8.359375 C 356.144531 8.359375 356.144531 8.183594 356.144531 8.003906 L 356.144531 5.113281 L 360.367188 5.113281 "/>
<path style=" stroke:none;fill-rule:nonzero;fill:rgb(0%,0%,0%);fill-opacity:1;" d="M 370.238281 4.296875 L 364.246094 4.296875 L 364.246094 4.695312 L 369.839844 4.695312 L 369.839844 6.3125 L 370.238281 6.3125 L 370.238281 4.296875 "/>
<path style=" stroke:none;fill-rule:nonzero;fill:rgb(0%,0%,0%);fill-opacity:1;" d="M 375.0625 10.773438 L 375.867188 10.488281 C 375.789062 9.601562 375.746094 8.449219 375.746094 7.238281 C 375.746094 5.925781 375.789062 4.546875 375.886719 3.394531 L 375.679688 3.355469 L 375.242188 3.941406 L 375.152344 3.960938 C 374.871094 3.820312 374.476562 3.683594 374.167969 3.683594 C 372.488281 3.683594 371.785156 5.132812 371.785156 6.511719 C 371.785156 7.347656 372.160156 8.429688 373.203125 8.429688 C 373.828125 8.429688 374.40625 8.152344 374.914062 7.773438 L 374.984375 7.824219 C 374.953125 8.777344 374.933594 10.207031 374.902344 10.613281 Z M 374.984375 7.316406 C 374.65625 7.605469 374.21875 7.8125 373.828125 7.8125 C 373.015625 7.8125 372.699219 7.070312 372.699219 6.246094 C 372.699219 5.132812 373.035156 4.050781 374.15625 4.050781 C 374.417969 4.050781 374.644531 4.1875 374.824219 4.367188 C 374.984375 4.527344 374.984375 4.824219 374.984375 5.074219 L 374.984375 7.316406 "/>
<path style="fill:none;stroke-width:3.98;stroke-linecap:butt;stroke-linejoin:miter;stroke:rgb(0%,0%,0%);stroke-opacity:1;stroke-miterlimit:10;" d="M 3059.21875 631.123438 L 3768.984375 631.123438 " transform="matrix(0.1,0,0,-0.1,0,76.46)"/>
<path style=" stroke:none;fill-rule:nonzero;fill:rgb(0%,0%,0%);fill-opacity:1;" d="M 324.261719 25.074219 L 325.066406 24.785156 C 324.988281 23.902344 324.945312 22.75 324.945312 21.539062 C 324.945312 20.226562 324.988281 18.847656 325.089844 17.691406 L 324.878906 17.652344 L 324.441406 18.238281 L 324.351562 18.261719 C 324.074219 18.121094 323.675781 17.980469 323.367188 17.980469 C 321.6875 17.980469 320.984375 19.433594 320.984375 20.8125 C 320.984375 21.648438 321.359375 22.730469 322.40625 22.730469 C 323.03125 22.730469 323.605469 22.449219 324.113281 22.074219 L 324.183594 22.125 C 324.152344 23.078125 324.132812 24.507812 324.101562 24.914062 Z M 324.183594 21.617188 C 323.855469 21.90625 323.417969 22.113281 323.03125 22.113281 C 322.214844 22.113281 321.898438 21.371094 321.898438 20.542969 C 321.898438 19.433594 322.234375 18.347656 323.359375 18.347656 C 323.617188 18.347656 323.84375 18.488281 324.023438 18.667969 C 324.183594 18.824219 324.183594 19.125 324.183594 19.371094 L 324.183594 21.617188 "/>
<path style=" stroke:none;fill-rule:nonzero;fill:rgb(0%,0%,0%);fill-opacity:1;" d="M 327.191406 24.746094 C 327.898438 23.933594 328.226562 23.425781 328.226562 22.929688 C 328.226562 22.582031 327.878906 21.289062 327.351562 21.289062 C 327.101562 21.289062 326.765625 21.507812 326.765625 21.765625 C 326.765625 21.863281 326.796875 21.972656 326.835938 22.023438 L 327.53125 22.847656 C 327.621094 22.957031 327.660156 23.128906 327.660156 23.265625 C 327.660156 23.664062 327.351562 24.152344 327.003906 24.605469 L 327.191406 24.746094 "/>
<path style=" stroke:none;fill-rule:nonzero;fill:rgb(0%,0%,0%);fill-opacity:1;" d="M 336.738281 18.597656 L 330.746094 18.597656 L 330.746094 18.996094 L 336.339844 18.996094 L 336.339844 20.613281 L 336.738281 20.613281 L 336.738281 18.597656 "/>
<path style=" stroke:none;fill-rule:nonzero;fill:rgb(0%,0%,0%);fill-opacity:1;" d="M 341.464844 25.074219 L 342.265625 24.785156 C 342.1875 23.902344 342.148438 22.75 342.148438 21.539062 C 342.148438 20.226562 342.1875 18.847656 342.289062 17.691406 L 342.078125 17.652344 L 341.640625 18.238281 L 341.550781 18.261719 C 341.273438 18.121094 340.878906 17.980469 340.570312 17.980469 C 338.890625 17.980469 338.183594 19.433594 338.183594 20.8125 C 338.183594 21.648438 338.5625 22.730469 339.605469 22.730469 C 340.230469 22.730469 340.804688 22.449219 341.3125 22.074219 L 341.382812 22.125 C 341.351562 23.078125 341.332031 24.507812 341.304688 24.914062 Z M 341.382812 21.617188 C 341.054688 21.90625 340.617188 22.113281 340.230469 22.113281 C 339.414062 22.113281 339.097656 21.371094 339.097656 20.542969 C 339.097656 19.433594 339.4375 18.347656 340.558594 18.347656 C 340.816406 18.347656 341.046875 18.488281 341.222656 18.667969 C 341.382812 18.824219 341.382812 19.125 341.382812 19.371094 L 341.382812 21.617188 "/>
<path style=" stroke:none;fill-rule:nonzero;fill:rgb(0%,0%,0%);fill-opacity:1;" d="M 351.265625 19.410156 C 351.433594 19.410156 351.613281 19.410156 351.613281 19.214844 C 351.613281 19.015625 351.433594 19.015625 351.265625 19.015625 L 347.042969 19.015625 L 347.042969 16.125 C 347.042969 15.945312 347.042969 15.765625 346.84375 15.765625 C 346.648438 15.765625 346.648438 15.972656 346.648438 16.125 L 346.648438 22.300781 C 346.648438 22.449219 346.648438 22.660156 346.84375 22.660156 C 347.042969 22.660156 347.042969 22.480469 347.042969 22.300781 L 347.042969 19.410156 L 351.265625 19.410156 "/>
<path style=" stroke:none;fill-rule:nonzero;fill:rgb(0%,0%,0%);fill-opacity:1;" d="M 359.0625 16.382812 C 359.0625 16.203125 359.0625 16.023438 358.863281 16.023438 C 358.664062 16.023438 358.664062 16.234375 358.664062 16.382812 L 358.664062 22.261719 L 355.90625 22.261719 C 355.753906 22.261719 355.546875 22.261719 355.546875 22.460938 C 355.546875 22.660156 355.753906 22.660156 355.90625 22.660156 L 361.835938 22.660156 C 362.003906 22.660156 362.183594 22.660156 362.183594 22.460938 C 362.183594 22.261719 362.003906 22.261719 361.835938 22.261719 L 359.0625 22.261719 L 359.0625 16.382812 "/>
<path style=" stroke:none;fill-rule:nonzero;fill:rgb(0%,0%,0%);fill-opacity:1;" d="M 395.863281 15.480469 C 395.863281 15.304688 395.863281 15.125 395.664062 15.125 C 395.464844 15.125 395.464844 15.332031 395.464844 15.480469 L 395.464844 21.363281 L 392.703125 21.363281 C 392.554688 21.363281 392.347656 21.363281 392.347656 21.5625 C 392.347656 21.761719 392.554688 21.761719 392.703125 21.761719 L 398.632812 21.761719 C 398.804688 21.761719 398.984375 21.761719 398.984375 21.5625 C 398.984375 21.363281 398.804688 21.363281 398.632812 21.363281 L 395.863281 21.363281 L 395.863281 15.480469 "/>
<path style=" stroke:none;fill-rule:nonzero;fill:rgb(0%,0%,0%);fill-opacity:1;" d="M 411.082031 19.476562 C 410.714844 19.933594 410.1875 20.714844 409.9375 21.761719 L 410.339844 21.761719 C 410.644531 20.457031 411.480469 19.554688 411.777344 19.277344 C 411.460938 18.980469 410.644531 18.085938 410.339844 16.792969 L 409.9375 16.792969 C 410.1875 17.824219 410.703125 18.613281 411.082031 19.078125 L 403.304688 19.078125 C 403.125 19.078125 402.957031 19.078125 402.957031 19.277344 C 402.957031 19.476562 403.132812 19.476562 403.304688 19.476562 L 411.082031 19.476562 "/>
<path style=" stroke:none;fill-rule:nonzero;fill:rgb(0%,0%,0%);fill-opacity:1;" d="M 417.078125 23.808594 C 417.015625 23.289062 416.988281 22.324219 416.976562 21.871094 L 417.078125 21.789062 C 417.265625 21.839844 417.464844 21.871094 417.664062 21.871094 C 419.203125 21.871094 420.246094 20.261719 420.246094 18.800781 C 420.246094 18.054688 419.898438 17.140625 418.882812 17.140625 C 418.199219 17.140625 417.59375 17.449219 417.054688 17.875 L 416.976562 17.835938 C 416.9375 17.398438 416.777344 17.089844 416.332031 17.089844 C 415.894531 17.089844 415.378906 17.449219 414.980469 17.765625 L 415.121094 17.957031 C 415.359375 17.816406 415.636719 17.667969 415.84375 17.667969 C 416.144531 17.667969 416.234375 18.183594 416.234375 18.628906 L 416.234375 20.824219 C 416.234375 21.394531 416.222656 23.429688 416.171875 24.003906 L 416.273438 24.113281 Z M 416.996094 21.105469 C 416.996094 21.09375 416.976562 20.070312 416.976562 19.257812 C 416.976562 19.148438 417.007812 18.394531 417.007812 18.332031 C 417.472656 17.964844 417.882812 17.757812 418.386719 17.757812 C 419.023438 17.757812 419.410156 18.519531 419.410156 19.386719 C 419.410156 20.332031 419.074219 21.472656 417.871094 21.472656 C 417.542969 21.472656 417.234375 21.324219 416.996094 21.105469 "/>
<path style=" stroke:none;fill-rule:nonzero;fill:rgb(0%,0%,0%);fill-opacity:1;" d="M 428.867188 18.511719 C 429.035156 18.511719 429.214844 18.511719 429.214844 18.3125 C 429.214844 18.113281 429.035156 18.113281 428.867188 18.113281 L 424.644531 18.113281 L 424.644531 15.222656 C 424.644531 15.042969 424.644531 14.867188 424.445312 14.867188 C 424.246094 14.867188 424.246094 15.074219 424.246094 15.222656 L 424.246094 21.402344 C 424.246094 21.550781 424.246094 21.761719 424.445312 21.761719 C 424.644531 21.761719 424.644531 21.582031 424.644531 21.402344 L 424.644531 18.511719 L 428.867188 18.511719 "/>
<path style=" stroke:none;fill-rule:nonzero;fill:rgb(0%,0%,0%);fill-opacity:1;" d="M 436.664062 15.480469 C 436.664062 15.304688 436.664062 15.125 436.464844 15.125 C 436.265625 15.125 436.265625 15.332031 436.265625 15.480469 L 436.265625 21.363281 L 433.503906 21.363281 C 433.355469 21.363281 433.148438 21.363281 433.148438 21.5625 C 433.148438 21.761719 433.355469 21.761719 433.503906 21.761719 L 439.433594 21.761719 C 439.601562 21.761719 439.78125 21.761719 439.78125 21.5625 C 439.78125 21.363281 439.601562 21.363281 439.433594 21.363281 L 436.664062 21.363281 L 436.664062 15.480469 "/>
<path style=" stroke:none;fill-rule:nonzero;fill:rgb(0%,0%,0%);fill-opacity:1;" d="M 451.78125 19.476562 C 451.414062 19.933594 450.886719 20.714844 450.640625 21.761719 L 451.039062 21.761719 C 451.34375 20.457031 452.179688 19.554688 452.476562 19.277344 C 452.160156 18.980469 451.34375 18.085938 451.039062 16.792969 L 450.640625 16.792969 C 450.886719 17.824219 451.40625 18.613281 451.78125 19.078125 L 444.003906 19.078125 C 443.824219 19.078125 443.65625 19.078125 443.65625 19.277344 C 443.65625 19.476562 443.835938 19.476562 444.003906 19.476562 L 451.78125 19.476562 "/>
<path style=" stroke:none;fill-rule:nonzero;fill:rgb(0%,0%,0%);fill-opacity:1;" d="M 457.777344 23.808594 C 457.71875 23.289062 457.6875 22.324219 457.679688 21.871094 L 457.777344 21.789062 C 457.964844 21.839844 458.164062 21.871094 458.363281 21.871094 C 459.902344 21.871094 460.945312 20.261719 460.945312 18.800781 C 460.945312 18.054688 460.597656 17.140625 459.585938 17.140625 C 458.898438 17.140625 458.292969 17.449219 457.757812 17.875 L 457.679688 17.835938 C 457.636719 17.398438 457.476562 17.089844 457.03125 17.089844 C 456.59375 17.089844 456.078125 17.449219 455.679688 17.765625 L 455.820312 17.957031 C 456.058594 17.816406 456.335938 17.667969 456.546875 17.667969 C 456.84375 17.667969 456.933594 18.183594 456.933594 18.628906 L 456.933594 20.824219 C 456.933594 21.394531 456.921875 23.429688 456.871094 24.003906 L 456.972656 24.113281 Z M 457.695312 21.105469 C 457.695312 21.09375 457.679688 20.070312 457.679688 19.257812 C 457.679688 19.148438 457.707031 18.394531 457.707031 18.332031 C 458.171875 17.964844 458.582031 17.757812 459.089844 17.757812 C 459.722656 17.757812 460.109375 18.519531 460.109375 19.386719 C 460.109375 20.332031 459.773438 21.472656 458.570312 21.472656 C 458.242188 21.472656 457.9375 21.324219 457.695312 21.105469 "/>
<g clip-path="url(#clip1)" clip-rule="nonzero">
<path style="fill:none;stroke-width:3.98;stroke-linecap:butt;stroke-linejoin:miter;stroke:rgb(0%,0%,0%);stroke-opacity:1;stroke-miterlimit:10;" d="M 2677.109375 497.646875 L 4666.875 497.646875 " transform="matrix(0.1,0,0,-0.1,0,76.46)"/>
</g>
<path style=" stroke:none;fill-rule:nonzero;fill:rgb(0%,0%,0%);fill-opacity:1;" d="M 334.164062 38.472656 L 334.96875 38.1875 C 334.886719 37.300781 334.847656 36.148438 334.847656 34.9375 C 334.847656 33.625 334.886719 32.246094 334.988281 31.09375 L 334.777344 31.054688 L 334.339844 31.640625 L 334.253906 31.660156 C 333.972656 31.519531 333.578125 31.382812 333.269531 31.382812 C 331.589844 31.382812 330.882812 32.832031 330.882812 34.210938 C 330.882812 35.046875 331.261719 36.128906 332.304688 36.128906 C 332.929688 36.128906 333.507812 35.851562 334.011719 35.472656 L 334.082031 35.523438 C 334.054688 36.476562 334.03125 37.910156 334.003906 38.316406 Z M 334.082031 35.015625 C 333.753906 35.304688 333.316406 35.511719 332.929688 35.511719 C 332.117188 35.511719 331.796875 34.769531 331.796875 33.945312 C 331.796875 32.832031 332.136719 31.75 333.257812 31.75 C 333.515625 31.75 333.746094 31.886719 333.921875 32.066406 C 334.082031 32.226562 334.082031 32.523438 334.082031 32.773438 L 334.082031 35.015625 "/>
<path style=" stroke:none;fill-rule:nonzero;fill:rgb(0%,0%,0%);fill-opacity:1;" d="M 337.191406 38.144531 C 337.898438 37.332031 338.226562 36.824219 338.226562 36.328125 C 338.226562 35.980469 337.878906 34.691406 337.351562 34.691406 C 337.101562 34.691406 336.765625 34.910156 336.765625 35.167969 C 336.765625 35.265625 336.796875 35.375 336.835938 35.425781 L 337.53125 36.25 C 337.621094 36.359375 337.660156 36.527344 337.660156 36.667969 C 337.660156 37.0625 337.351562 37.550781 337.003906 38.007812 L 337.191406 38.144531 "/>
<path style=" stroke:none;fill-rule:nonzero;fill:rgb(0%,0%,0%);fill-opacity:1;" d="M 346.738281 31.996094 L 340.746094 31.996094 L 340.746094 32.394531 L 346.339844 32.394531 L 346.339844 34.011719 L 346.738281 34.011719 L 346.738281 31.996094 "/>
<path style=" stroke:none;fill-rule:nonzero;fill:rgb(0%,0%,0%);fill-opacity:1;" d="M 351.464844 38.472656 L 352.265625 38.1875 C 352.1875 37.300781 352.148438 36.148438 352.148438 34.9375 C 352.148438 33.625 352.1875 32.246094 352.289062 31.09375 L 352.078125 31.054688 L 351.640625 31.640625 L 351.550781 31.660156 C 351.273438 31.519531 350.878906 31.382812 350.570312 31.382812 C 348.890625 31.382812 348.183594 32.832031 348.183594 34.210938 C 348.183594 35.046875 348.5625 36.128906 349.605469 36.128906 C 350.230469 36.128906 350.804688 35.851562 351.3125 35.472656 L 351.382812 35.523438 C 351.351562 36.476562 351.332031 37.910156 351.304688 38.316406 Z M 351.382812 35.015625 C 351.054688 35.304688 350.617188 35.511719 350.230469 35.511719 C 349.414062 35.511719 349.097656 34.769531 349.097656 33.945312 C 349.097656 32.832031 349.4375 31.75 350.558594 31.75 C 350.816406 31.75 351.046875 31.886719 351.222656 32.066406 C 351.382812 32.226562 351.382812 32.523438 351.382812 32.773438 L 351.382812 35.015625 "/>
<path style=" stroke:none;fill-rule:nonzero;fill:rgb(0%,0%,0%);fill-opacity:1;" d="M 354.390625 38.144531 C 355.097656 37.332031 355.425781 36.824219 355.425781 36.328125 C 355.425781 35.980469 355.078125 34.691406 354.550781 34.691406 C 354.304688 34.691406 353.964844 34.910156 353.964844 35.167969 C 353.964844 35.265625 353.996094 35.375 354.035156 35.425781 L 354.730469 36.25 C 354.820312 36.359375 354.859375 36.527344 354.859375 36.667969 C 354.859375 37.0625 354.550781 37.550781 354.203125 38.007812 L 354.390625 38.144531 "/>
<path style=" stroke:none;fill-rule:nonzero;fill:rgb(0%,0%,0%);fill-opacity:1;" d="M 361.863281 29.78125 C 361.863281 29.605469 361.863281 29.425781 361.664062 29.425781 C 361.464844 29.425781 361.464844 29.632812 361.464844 29.78125 L 361.464844 35.664062 L 358.703125 35.664062 C 358.554688 35.664062 358.347656 35.664062 358.347656 35.863281 C 358.347656 36.058594 358.554688 36.058594 358.703125 36.058594 L 364.632812 36.058594 C 364.804688 36.058594 364.984375 36.058594 364.984375 35.863281 C 364.984375 35.664062 364.804688 35.664062 364.632812 35.664062 L 361.863281 35.664062 L 361.863281 29.78125 "/>
<path style=" stroke:none;fill-rule:nonzero;fill:rgb(0%,0%,0%);fill-opacity:1;" d="M 376.984375 33.777344 C 376.613281 34.230469 376.089844 35.015625 375.839844 36.058594 L 376.238281 36.058594 C 376.546875 34.757812 377.378906 33.855469 377.679688 33.578125 C 377.359375 33.277344 376.546875 32.386719 376.238281 31.09375 L 375.839844 31.09375 C 376.089844 32.125 376.605469 32.910156 376.984375 33.378906 L 369.203125 33.378906 C 369.023438 33.378906 368.855469 33.378906 368.855469 33.578125 C 368.855469 33.777344 369.035156 33.777344 369.203125 33.777344 L 376.984375 33.777344 "/>
<path style=" stroke:none;fill-rule:nonzero;fill:rgb(0%,0%,0%);fill-opacity:1;" d="M 382.976562 38.105469 C 382.917969 37.589844 382.886719 36.625 382.878906 36.167969 L 382.976562 36.089844 C 383.164062 36.140625 383.363281 36.167969 383.5625 36.167969 C 385.101562 36.167969 386.144531 34.558594 386.144531 33.097656 C 386.144531 32.355469 385.796875 31.441406 384.785156 31.441406 C 384.101562 31.441406 383.492188 31.75 382.957031 32.175781 L 382.878906 32.136719 C 382.839844 31.699219 382.679688 31.390625 382.230469 31.390625 C 381.796875 31.390625 381.277344 31.75 380.882812 32.066406 L 381.019531 32.253906 C 381.257812 32.117188 381.535156 31.96875 381.746094 31.96875 C 382.042969 31.96875 382.132812 32.484375 382.132812 32.929688 L 382.132812 35.125 C 382.132812 35.691406 382.121094 37.730469 382.074219 38.304688 L 382.171875 38.414062 Z M 382.898438 35.402344 C 382.898438 35.394531 382.878906 34.371094 382.878906 33.558594 C 382.878906 33.449219 382.90625 32.691406 382.90625 32.632812 C 383.371094 32.265625 383.78125 32.058594 384.289062 32.058594 C 384.921875 32.058594 385.3125 32.820312 385.3125 33.6875 C 385.3125 34.628906 384.972656 35.773438 383.773438 35.773438 C 383.445312 35.773438 383.136719 35.621094 382.898438 35.402344 "/>
<path style=" stroke:none;fill-rule:nonzero;fill:rgb(0%,0%,0%);fill-opacity:1;" d="M 394.765625 32.8125 C 394.933594 32.8125 395.113281 32.8125 395.113281 32.613281 C 395.113281 32.414062 394.933594 32.414062 394.765625 32.414062 L 390.542969 32.414062 L 390.542969 29.523438 C 390.542969 29.34375 390.542969 29.167969 390.34375 29.167969 C 390.148438 29.167969 390.148438 29.375 390.148438 29.523438 L 390.148438 35.703125 C 390.148438 35.851562 390.148438 36.058594 390.34375 36.058594 C 390.542969 36.058594 390.542969 35.882812 390.542969 35.703125 L 390.542969 32.8125 L 394.765625 32.8125 "/>
<path style=" stroke:none;fill-rule:nonzero;fill:rgb(0%,0%,0%);fill-opacity:1;" d="M 400.476562 38.105469 C 400.417969 37.589844 400.386719 36.625 400.378906 36.167969 L 400.476562 36.089844 C 400.664062 36.140625 400.863281 36.167969 401.0625 36.167969 C 402.601562 36.167969 403.644531 34.558594 403.644531 33.097656 C 403.644531 32.355469 403.296875 31.441406 402.285156 31.441406 C 401.601562 31.441406 400.992188 31.75 400.457031 32.175781 L 400.378906 32.136719 C 400.339844 31.699219 400.179688 31.390625 399.730469 31.390625 C 399.296875 31.390625 398.777344 31.75 398.382812 32.066406 L 398.519531 32.253906 C 398.757812 32.117188 399.035156 31.96875 399.246094 31.96875 C 399.542969 31.96875 399.632812 32.484375 399.632812 32.929688 L 399.632812 35.125 C 399.632812 35.691406 399.621094 37.730469 399.574219 38.304688 L 399.671875 38.414062 Z M 400.398438 35.402344 C 400.398438 35.394531 400.378906 34.371094 400.378906 33.558594 C 400.378906 33.449219 400.40625 32.691406 400.40625 32.632812 C 400.871094 32.265625 401.28125 32.058594 401.789062 32.058594 C 402.421875 32.058594 402.8125 32.820312 402.8125 33.6875 C 402.8125 34.628906 402.472656 35.773438 401.273438 35.773438 C 400.945312 35.773438 400.636719 35.621094 400.398438 35.402344 "/>
<g clip-path="url(#clip2)" clip-rule="nonzero">
<path style="fill:none;stroke-width:3.98;stroke-linecap:butt;stroke-linejoin:miter;stroke:rgb(0%,0%,0%);stroke-opacity:1;stroke-miterlimit:10;" d="M 1065.390625 364.13125 L 4666.875 364.13125 " transform="matrix(0.1,0,0,-0.1,0,76.46)"/>
</g>
<path style=" stroke:none;fill-rule:nonzero;fill:rgb(0%,0%,0%);fill-opacity:1;" d="M 242.378906 51.40625 C 242.316406 50.890625 242.289062 49.925781 242.277344 49.46875 L 242.378906 49.390625 C 242.566406 49.441406 242.765625 49.46875 242.964844 49.46875 C 244.503906 49.46875 245.546875 47.859375 245.546875 46.398438 C 245.546875 45.65625 245.199219 44.742188 244.183594 44.742188 C 243.5 44.742188 242.894531 45.050781 242.355469 45.476562 L 242.277344 45.4375 C 242.238281 45 242.078125 44.691406 241.632812 44.691406 C 241.195312 44.691406 240.679688 45.050781 240.28125 45.367188 L 240.421875 45.554688 C 240.65625 45.417969 240.9375 45.269531 241.144531 45.269531 C 241.445312 45.269531 241.53125 45.785156 241.53125 46.230469 L 241.53125 48.425781 C 241.53125 48.992188 241.523438 51.027344 241.472656 51.605469 L 241.570312 51.714844 Z M 242.296875 48.703125 C 242.296875 48.695312 242.277344 47.671875 242.277344 46.855469 C 242.277344 46.746094 242.308594 45.992188 242.308594 45.933594 C 242.773438 45.566406 243.179688 45.355469 243.6875 45.355469 C 244.324219 45.355469 244.710938 46.121094 244.710938 46.988281 C 244.710938 47.929688 244.371094 49.074219 243.171875 49.074219 C 242.84375 49.074219 242.535156 48.921875 242.296875 48.703125 "/>
<path style=" stroke:none;fill-rule:nonzero;fill:rgb(0%,0%,0%);fill-opacity:1;" d="M 256.007812 42.566406 L 255.96875 42.527344 L 255.582031 42.527344 L 252.226562 48.773438 L 248.976562 42.566406 L 248.558594 42.636719 L 252.144531 49.480469 L 252.296875 49.480469 L 256.007812 42.566406 "/>
<path style=" stroke:none;fill-rule:nonzero;fill:rgb(0%,0%,0%);fill-opacity:1;" d="M 262.5625 51.773438 L 263.367188 51.488281 C 263.289062 50.601562 263.246094 49.449219 263.246094 48.238281 C 263.246094 46.925781 263.289062 45.546875 263.386719 44.394531 L 263.179688 44.355469 L 262.742188 44.941406 L 262.652344 44.960938 C 262.371094 44.820312 261.976562 44.683594 261.667969 44.683594 C 259.988281 44.683594 259.285156 46.132812 259.285156 47.511719 C 259.285156 48.347656 259.660156 49.429688 260.703125 49.429688 C 261.328125 49.429688 261.90625 49.152344 262.414062 48.773438 L 262.484375 48.824219 C 262.453125 49.777344 262.433594 51.207031 262.402344 51.613281 Z M 262.484375 48.316406 C 262.15625 48.605469 261.71875 48.8125 261.328125 48.8125 C 260.515625 48.8125 260.199219 48.070312 260.199219 47.246094 C 260.199219 46.132812 260.535156 45.050781 261.65625 45.050781 C 261.917969 45.050781 262.144531 45.1875 262.324219 45.367188 C 262.484375 45.527344 262.484375 45.824219 262.484375 46.074219 L 262.484375 48.316406 "/>
<path style=" stroke:none;fill-rule:nonzero;fill:rgb(0%,0%,0%);fill-opacity:1;" d="M 265.59375 51.445312 C 266.296875 50.632812 266.628906 50.125 266.628906 49.628906 C 266.628906 49.28125 266.277344 47.988281 265.753906 47.988281 C 265.503906 47.988281 265.164062 48.207031 265.164062 48.464844 C 265.164062 48.566406 265.195312 48.675781 265.234375 48.722656 L 265.929688 49.550781 C 266.019531 49.660156 266.058594 49.828125 266.058594 49.964844 C 266.058594 50.363281 265.753906 50.851562 265.40625 51.308594 L 265.59375 51.445312 "/>
<path style=" stroke:none;fill-rule:nonzero;fill:rgb(0%,0%,0%);fill-opacity:1;" d="M 275.140625 45.296875 L 269.148438 45.296875 L 269.148438 45.695312 L 274.742188 45.695312 L 274.742188 47.3125 L 275.140625 47.3125 L 275.140625 45.296875 "/>
<path style=" stroke:none;fill-rule:nonzero;fill:rgb(0%,0%,0%);fill-opacity:1;" d="M 279.863281 51.773438 L 280.667969 51.488281 C 280.589844 50.601562 280.546875 49.449219 280.546875 48.238281 C 280.546875 46.925781 280.589844 45.546875 280.6875 44.394531 L 280.476562 44.355469 L 280.039062 44.941406 L 279.953125 44.960938 C 279.671875 44.820312 279.277344 44.683594 278.96875 44.683594 C 277.289062 44.683594 276.585938 46.132812 276.585938 47.511719 C 276.585938 48.347656 276.960938 49.429688 278.003906 49.429688 C 278.628906 49.429688 279.207031 49.152344 279.714844 48.773438 L 279.78125 48.824219 C 279.753906 49.777344 279.734375 51.207031 279.703125 51.613281 Z M 279.78125 48.316406 C 279.453125 48.605469 279.015625 48.8125 278.628906 48.8125 C 277.816406 48.8125 277.496094 48.070312 277.496094 47.246094 C 277.496094 46.132812 277.835938 45.050781 278.957031 45.050781 C 279.21875 45.050781 279.445312 45.1875 279.621094 45.367188 C 279.78125 45.527344 279.78125 45.824219 279.78125 46.074219 L 279.78125 48.316406 "/>
<path style=" stroke:none;fill-rule:nonzero;fill:rgb(0%,0%,0%);fill-opacity:1;" d="M 282.890625 51.445312 C 283.597656 50.632812 283.925781 50.125 283.925781 49.628906 C 283.925781 49.28125 283.578125 47.988281 283.050781 47.988281 C 282.804688 47.988281 282.464844 48.207031 282.464844 48.464844 C 282.464844 48.566406 282.496094 48.675781 282.535156 48.722656 L 283.230469 49.550781 C 283.320312 49.660156 283.359375 49.828125 283.359375 49.964844 C 283.359375 50.363281 283.050781 50.851562 282.703125 51.308594 L 282.890625 51.445312 "/>
<path style=" stroke:none;fill-rule:nonzero;fill:rgb(0%,0%,0%);fill-opacity:1;" d="M 290.261719 43.082031 C 290.261719 42.902344 290.261719 42.722656 290.0625 42.722656 C 289.867188 42.722656 289.867188 42.933594 289.867188 43.082031 L 289.867188 48.964844 L 287.105469 48.964844 C 286.953125 48.964844 286.746094 48.964844 286.746094 49.160156 C 286.746094 49.359375 286.953125 49.359375 287.105469 49.359375 L 293.035156 49.359375 C 293.203125 49.359375 293.382812 49.359375 293.382812 49.160156 C 293.382812 48.964844 293.203125 48.964844 293.035156 48.964844 L 290.261719 48.964844 L 290.261719 43.082031 "/>
<path style=" stroke:none;fill-rule:nonzero;fill:rgb(0%,0%,0%);fill-opacity:1;" d="M 305.382812 47.074219 C 305.015625 47.53125 304.488281 48.316406 304.238281 49.359375 L 304.636719 49.359375 C 304.945312 48.058594 305.78125 47.15625 306.078125 46.878906 C 305.757812 46.578125 304.945312 45.683594 304.636719 44.394531 L 304.238281 44.394531 C 304.488281 45.425781 305.003906 46.210938 305.382812 46.675781 L 297.605469 46.675781 C 297.425781 46.675781 297.257812 46.675781 297.257812 46.878906 C 297.257812 47.074219 297.433594 47.074219 297.605469 47.074219 L 305.382812 47.074219 "/>
<path style=" stroke:none;fill-rule:nonzero;fill:rgb(0%,0%,0%);fill-opacity:1;" d="M 311.378906 51.40625 C 311.316406 50.890625 311.289062 49.925781 311.277344 49.46875 L 311.378906 49.390625 C 311.566406 49.441406 311.765625 49.46875 311.964844 49.46875 C 313.503906 49.46875 314.546875 47.859375 314.546875 46.398438 C 314.546875 45.65625 314.199219 44.742188 313.183594 44.742188 C 312.5 44.742188 311.894531 45.050781 311.355469 45.476562 L 311.277344 45.4375 C 311.238281 45 311.078125 44.691406 310.632812 44.691406 C 310.195312 44.691406 309.679688 45.050781 309.28125 45.367188 L 309.421875 45.554688 C 309.65625 45.417969 309.9375 45.269531 310.144531 45.269531 C 310.445312 45.269531 310.53125 45.785156 310.53125 46.230469 L 310.53125 48.425781 C 310.53125 48.992188 310.523438 51.027344 310.472656 51.605469 L 310.570312 51.714844 Z M 311.296875 48.703125 C 311.296875 48.695312 311.277344 47.671875 311.277344 46.855469 C 311.277344 46.746094 311.308594 45.992188 311.308594 45.933594 C 311.773438 45.566406 312.179688 45.355469 312.6875 45.355469 C 313.324219 45.355469 313.710938 46.121094 313.710938 46.988281 C 313.710938 47.929688 313.371094 49.074219 312.171875 49.074219 C 311.84375 49.074219 311.535156 48.921875 311.296875 48.703125 "/>
<path style=" stroke:none;fill-rule:nonzero;fill:rgb(0%,0%,0%);fill-opacity:1;" d="M 323.265625 46.113281 C 323.433594 46.113281 323.613281 46.113281 323.613281 45.914062 C 323.613281 45.714844 323.433594 45.714844 323.265625 45.714844 L 319.042969 45.714844 L 319.042969 42.824219 C 319.042969 42.644531 319.042969 42.464844 318.84375 42.464844 C 318.648438 42.464844 318.648438 42.675781 318.648438 42.824219 L 318.648438 49.003906 C 318.648438 49.152344 318.648438 49.359375 318.84375 49.359375 C 319.042969 49.359375 319.042969 49.183594 319.042969 49.003906 L 319.042969 46.113281 L 323.265625 46.113281 "/>
<path style=" stroke:none;fill-rule:nonzero;fill:rgb(0%,0%,0%);fill-opacity:1;" d="M 328.878906 51.40625 C 328.816406 50.890625 328.789062 49.925781 328.777344 49.46875 L 328.878906 49.390625 C 329.066406 49.441406 329.265625 49.46875 329.464844 49.46875 C 331.003906 49.46875 332.046875 47.859375 332.046875 46.398438 C 332.046875 45.65625 331.699219 44.742188 330.683594 44.742188 C 330 44.742188 329.394531 45.050781 328.855469 45.476562 L 328.777344 45.4375 C 328.738281 45 328.578125 44.691406 328.132812 44.691406 C 327.695312 44.691406 327.179688 45.050781 326.78125 45.367188 L 326.921875 45.554688 C 327.15625 45.417969 327.4375 45.269531 327.644531 45.269531 C 327.945312 45.269531 328.03125 45.785156 328.03125 46.230469 L 328.03125 48.425781 C 328.03125 48.992188 328.023438 51.027344 327.972656 51.605469 L 328.070312 51.714844 Z M 328.796875 48.703125 C 328.796875 48.695312 328.777344 47.671875 328.777344 46.855469 C 328.777344 46.746094 328.808594 45.992188 328.808594 45.933594 C 329.273438 45.566406 329.679688 45.355469 330.1875 45.355469 C 330.824219 45.355469 331.210938 46.121094 331.210938 46.988281 C 331.210938 47.929688 330.871094 49.074219 329.671875 49.074219 C 329.34375 49.074219 329.035156 48.921875 328.796875 48.703125 "/>
<g clip-path="url(#clip3)" clip-rule="nonzero">
<path style="fill:none;stroke-width:3.98;stroke-linecap:butt;stroke-linejoin:miter;stroke:rgb(0%,0%,0%);stroke-opacity:1;stroke-miterlimit:10;" d="M 705.664062 238.115625 L 4666.835938 238.115625 " transform="matrix(0.1,0,0,-0.1,0,76.46)"/>
</g>
<path style=" stroke:none;fill-rule:nonzero;fill:rgb(0%,0%,0%);fill-opacity:1;" d="M 223.140625 57.898438 L 217.148438 57.898438 L 217.148438 58.292969 L 222.742188 58.292969 L 222.742188 59.914062 L 223.140625 59.914062 L 223.140625 57.898438 "/>
<path style=" stroke:none;fill-rule:nonzero;fill:rgb(0%,0%,0%);fill-opacity:1;" d="M 227.863281 64.375 L 228.667969 64.085938 C 228.589844 63.203125 228.546875 62.050781 228.546875 60.839844 C 228.546875 59.527344 228.589844 58.144531 228.6875 56.992188 L 228.476562 56.953125 L 228.039062 57.539062 L 227.953125 57.558594 C 227.671875 57.421875 227.277344 57.28125 226.96875 57.28125 C 225.289062 57.28125 224.585938 58.730469 224.585938 60.113281 C 224.585938 60.949219 224.960938 62.03125 226.003906 62.03125 C 226.628906 62.03125 227.207031 61.75 227.714844 61.375 L 227.78125 61.425781 C 227.753906 62.378906 227.734375 63.808594 227.703125 64.214844 Z M 227.78125 60.917969 C 227.453125 61.207031 227.015625 61.414062 226.628906 61.414062 C 225.816406 61.414062 225.496094 60.667969 225.496094 59.84375 C 225.496094 58.730469 225.835938 57.648438 226.957031 57.648438 C 227.21875 57.648438 227.445312 57.789062 227.621094 57.964844 C 227.78125 58.125 227.78125 58.425781 227.78125 58.671875 L 227.78125 60.917969 "/>
<path style=" stroke:none;fill-rule:nonzero;fill:rgb(0%,0%,0%);fill-opacity:1;" d="M 230.890625 64.046875 C 231.597656 63.230469 231.925781 62.726562 231.925781 62.230469 C 231.925781 61.878906 231.578125 60.589844 231.050781 60.589844 C 230.804688 60.589844 230.464844 60.808594 230.464844 61.066406 C 230.464844 61.164062 230.496094 61.273438 230.535156 61.324219 L 231.230469 62.148438 C 231.320312 62.257812 231.359375 62.425781 231.359375 62.566406 C 231.359375 62.964844 231.050781 63.449219 230.703125 63.90625 L 230.890625 64.046875 "/>
<path style=" stroke:none;fill-rule:nonzero;fill:rgb(0%,0%,0%);fill-opacity:1;" d="M 238.261719 55.683594 C 238.261719 55.503906 238.261719 55.324219 238.0625 55.324219 C 237.867188 55.324219 237.867188 55.535156 237.867188 55.683594 L 237.867188 61.5625 L 235.105469 61.5625 C 234.953125 61.5625 234.746094 61.5625 234.746094 61.761719 C 234.746094 61.960938 234.953125 61.960938 235.105469 61.960938 L 241.035156 61.960938 C 241.203125 61.960938 241.382812 61.960938 241.382812 61.761719 C 241.382812 61.5625 241.203125 61.5625 241.035156 61.5625 L 238.261719 61.5625 L 238.261719 55.683594 "/>
<path style=" stroke:none;fill-rule:nonzero;fill:rgb(0%,0%,0%);fill-opacity:1;" d="M 253.382812 59.675781 C 253.015625 60.132812 252.488281 60.917969 252.238281 61.960938 L 252.636719 61.960938 C 252.945312 60.660156 253.78125 59.753906 254.078125 59.476562 C 253.757812 59.179688 252.945312 58.285156 252.636719 56.992188 L 252.238281 56.992188 C 252.488281 58.027344 253.003906 58.8125 253.382812 59.277344 L 245.605469 59.277344 C 245.425781 59.277344 245.257812 59.277344 245.257812 59.476562 C 245.257812 59.675781 245.433594 59.675781 245.605469 59.675781 L 253.382812 59.675781 "/>
<path style=" stroke:none;fill-rule:nonzero;fill:rgb(0%,0%,0%);fill-opacity:1;" d="M 259.378906 64.007812 C 259.316406 63.488281 259.289062 62.527344 259.277344 62.070312 L 259.378906 61.988281 C 259.566406 62.039062 259.765625 62.070312 259.964844 62.070312 C 261.503906 62.070312 262.546875 60.460938 262.546875 59 C 262.546875 58.253906 262.199219 57.339844 261.183594 57.339844 C 260.5 57.339844 259.894531 57.648438 259.355469 58.074219 L 259.277344 58.035156 C 259.238281 57.597656 259.078125 57.292969 258.632812 57.292969 C 258.195312 57.292969 257.679688 57.648438 257.28125 57.964844 L 257.421875 58.15625 C 257.65625 58.015625 257.9375 57.867188 258.144531 57.867188 C 258.445312 57.867188 258.53125 58.382812 258.53125 58.832031 L 258.53125 61.027344 C 258.53125 61.59375 258.523438 63.628906 258.472656 64.207031 L 258.570312 64.316406 Z M 259.296875 61.304688 C 259.296875 61.292969 259.277344 60.269531 259.277344 59.457031 C 259.277344 59.347656 259.308594 58.59375 259.308594 58.535156 C 259.773438 58.164062 260.179688 57.957031 260.6875 57.957031 C 261.324219 57.957031 261.710938 58.722656 261.710938 59.585938 C 261.710938 60.53125 261.371094 61.671875 260.171875 61.671875 C 259.84375 61.671875 259.535156 61.523438 259.296875 61.304688 "/>
<path style=" stroke:none;fill-rule:nonzero;fill:rgb(0%,0%,0%);fill-opacity:1;" d="M 271.265625 58.710938 C 271.433594 58.710938 271.613281 58.710938 271.613281 58.511719 C 271.613281 58.316406 271.433594 58.316406 271.265625 58.316406 L 267.042969 58.316406 L 267.042969 55.425781 C 267.042969 55.246094 267.042969 55.066406 266.84375 55.066406 C 266.648438 55.066406 266.648438 55.273438 266.648438 55.425781 L 266.648438 61.601562 C 266.648438 61.75 266.648438 61.960938 266.84375 61.960938 C 267.042969 61.960938 267.042969 61.78125 267.042969 61.601562 L 267.042969 58.710938 L 271.265625 58.710938 "/>
<path style=" stroke:none;fill-rule:nonzero;fill:rgb(0%,0%,0%);fill-opacity:1;" d="M 276.878906 64.007812 C 276.816406 63.488281 276.789062 62.527344 276.777344 62.070312 L 276.878906 61.988281 C 277.066406 62.039062 277.265625 62.070312 277.464844 62.070312 C 279.003906 62.070312 280.046875 60.460938 280.046875 59 C 280.046875 58.253906 279.699219 57.339844 278.683594 57.339844 C 278 57.339844 277.394531 57.648438 276.855469 58.074219 L 276.777344 58.035156 C 276.738281 57.597656 276.578125 57.292969 276.132812 57.292969 C 275.695312 57.292969 275.179688 57.648438 274.78125 57.964844 L 274.921875 58.15625 C 275.15625 58.015625 275.4375 57.867188 275.644531 57.867188 C 275.945312 57.867188 276.03125 58.382812 276.03125 58.832031 L 276.03125 61.027344 C 276.03125 61.59375 276.023438 63.628906 275.972656 64.207031 L 276.070312 64.316406 Z M 276.796875 61.304688 C 276.796875 61.292969 276.777344 60.269531 276.777344 59.457031 C 276.777344 59.347656 276.808594 58.59375 276.808594 58.535156 C 277.273438 58.164062 277.679688 57.957031 278.1875 57.957031 C 278.824219 57.957031 279.210938 58.722656 279.210938 59.585938 C 279.210938 60.53125 278.871094 61.671875 277.671875 61.671875 C 277.34375 61.671875 277.035156 61.523438 276.796875 61.304688 "/>
<path style=" stroke:none;fill-rule:nonzero;fill:rgb(0%,0%,0%);fill-opacity:1;" d="M 290.507812 55.164062 L 290.46875 55.125 L 290.082031 55.125 L 286.726562 61.375 L 283.476562 55.164062 L 283.058594 55.234375 L 286.644531 62.078125 L 286.796875 62.078125 L 290.507812 55.164062 "/>
<path style=" stroke:none;fill-rule:nonzero;fill:rgb(0%,0%,0%);fill-opacity:1;" d="M 297.0625 64.375 L 297.867188 64.085938 C 297.789062 63.203125 297.746094 62.050781 297.746094 60.839844 C 297.746094 59.527344 297.789062 58.144531 297.886719 56.992188 L 297.679688 56.953125 L 297.242188 57.539062 L 297.152344 57.558594 C 296.871094 57.421875 296.476562 57.28125 296.167969 57.28125 C 294.488281 57.28125 293.785156 58.730469 293.785156 60.113281 C 293.785156 60.949219 294.160156 62.03125 295.203125 62.03125 C 295.828125 62.03125 296.40625 61.75 296.914062 61.375 L 296.984375 61.425781 C 296.953125 62.378906 296.933594 63.808594 296.902344 64.214844 Z M 296.984375 60.917969 C 296.65625 61.207031 296.21875 61.414062 295.828125 61.414062 C 295.015625 61.414062 294.699219 60.667969 294.699219 59.84375 C 294.699219 58.730469 295.035156 57.648438 296.15625 57.648438 C 296.417969 57.648438 296.644531 57.789062 296.824219 57.964844 C 296.984375 58.125 296.984375 58.425781 296.984375 58.671875 L 296.984375 60.917969 "/>
<path style=" stroke:none;fill-rule:nonzero;fill:rgb(0%,0%,0%);fill-opacity:1;" d="M 310.382812 59.675781 C 310.015625 60.132812 309.488281 60.917969 309.238281 61.960938 L 309.636719 61.960938 C 309.945312 60.660156 310.78125 59.753906 311.078125 59.476562 C 310.757812 59.179688 309.945312 58.285156 309.636719 56.992188 L 309.238281 56.992188 C 309.488281 58.027344 310.003906 58.8125 310.382812 59.277344 L 302.605469 59.277344 C 302.425781 59.277344 302.257812 59.277344 302.257812 59.476562 C 302.257812 59.675781 302.433594 59.675781 302.605469 59.675781 L 310.382812 59.675781 "/>
<path style=" stroke:none;fill-rule:nonzero;fill:rgb(0%,0%,0%);fill-opacity:1;" d="M 316.476562 64.007812 C 316.417969 63.488281 316.386719 62.527344 316.378906 62.070312 L 316.476562 61.988281 C 316.664062 62.039062 316.863281 62.070312 317.0625 62.070312 C 318.601562 62.070312 319.644531 60.460938 319.644531 59 C 319.644531 58.253906 319.296875 57.339844 318.285156 57.339844 C 317.601562 57.339844 316.992188 57.648438 316.457031 58.074219 L 316.378906 58.035156 C 316.339844 57.597656 316.179688 57.292969 315.730469 57.292969 C 315.296875 57.292969 314.777344 57.648438 314.382812 57.964844 L 314.519531 58.15625 C 314.757812 58.015625 315.035156 57.867188 315.246094 57.867188 C 315.542969 57.867188 315.632812 58.382812 315.632812 58.832031 L 315.632812 61.027344 C 315.632812 61.59375 315.621094 63.628906 315.574219 64.207031 L 315.671875 64.316406 Z M 316.398438 61.304688 C 316.398438 61.292969 316.378906 60.269531 316.378906 59.457031 C 316.378906 59.347656 316.40625 58.59375 316.40625 58.535156 C 316.871094 58.164062 317.28125 57.957031 317.789062 57.957031 C 318.421875 57.957031 318.8125 58.722656 318.8125 59.585938 C 318.8125 60.53125 318.472656 61.671875 317.273438 61.671875 C 316.945312 61.671875 316.636719 61.523438 316.398438 61.304688 "/>
<g clip-path="url(#clip4)" clip-rule="nonzero">
<path style="fill:none;stroke-width:3.98;stroke-linecap:butt;stroke-linejoin:miter;stroke:rgb(0%,0%,0%);stroke-opacity:1;stroke-miterlimit:10;" d="M 344.53125 112.060938 L 4666.875 112.060938 " transform="matrix(0.1,0,0,-0.1,0,76.46)"/>
</g>
<path style=" stroke:none;fill-rule:nonzero;fill:rgb(0%,0%,0%);fill-opacity:1;" d="M 197.363281 68.28125 C 197.363281 68.105469 197.363281 67.925781 197.164062 67.925781 C 196.964844 67.925781 196.964844 68.132812 196.964844 68.28125 L 196.964844 74.164062 L 194.203125 74.164062 C 194.054688 74.164062 193.847656 74.164062 193.847656 74.363281 C 193.847656 74.558594 194.054688 74.558594 194.203125 74.558594 L 200.132812 74.558594 C 200.304688 74.558594 200.484375 74.558594 200.484375 74.363281 C 200.484375 74.164062 200.304688 74.164062 200.132812 74.164062 L 197.363281 74.164062 L 197.363281 68.28125 "/>
<path style=" stroke:none;fill-rule:nonzero;fill:rgb(0%,0%,0%);fill-opacity:1;" d="M 212.484375 72.277344 C 212.113281 72.730469 211.589844 73.515625 211.339844 74.558594 L 211.738281 74.558594 C 212.046875 73.257812 212.878906 72.355469 213.179688 72.078125 C 212.859375 71.777344 212.046875 70.886719 211.738281 69.59375 L 211.339844 69.59375 C 211.589844 70.625 212.105469 71.410156 212.484375 71.878906 L 204.703125 71.878906 C 204.523438 71.878906 204.355469 71.878906 204.355469 72.078125 C 204.355469 72.277344 204.535156 72.277344 204.703125 72.277344 L 212.484375 72.277344 "/>
<g clip-path="url(#clip5)" clip-rule="nonzero">
<path style=" stroke:none;fill-rule:nonzero;fill:rgb(0%,0%,0%);fill-opacity:1;" d="M 218.578125 76.605469 C 218.515625 76.089844 218.488281 75.125 218.476562 74.667969 L 218.578125 74.589844 C 218.765625 74.640625 218.964844 74.667969 219.164062 74.667969 C 220.703125 74.667969 221.746094 73.058594 221.746094 71.597656 C 221.746094 70.855469 221.398438 69.941406 220.382812 69.941406 C 219.699219 69.941406 219.09375 70.25 218.554688 70.675781 L 218.476562 70.636719 C 218.4375 70.199219 218.277344 69.890625 217.832031 69.890625 C 217.394531 69.890625 216.878906 70.25 216.480469 70.566406 L 216.621094 70.753906 C 216.859375 70.617188 217.136719 70.46875 217.34375 70.46875 C 217.644531 70.46875 217.734375 70.984375 217.734375 71.429688 L 217.734375 73.625 C 217.734375 74.191406 217.722656 76.230469 217.671875 76.804688 L 217.773438 76.914062 Z M 218.496094 73.902344 C 218.496094 73.894531 218.476562 72.871094 218.476562 72.058594 C 218.476562 71.949219 218.507812 71.191406 218.507812 71.132812 C 218.972656 70.765625 219.382812 70.558594 219.886719 70.558594 C 220.523438 70.558594 220.910156 71.320312 220.910156 72.1875 C 220.910156 73.128906 220.574219 74.273438 219.371094 74.273438 C 219.042969 74.273438 218.734375 74.121094 218.496094 73.902344 "/>
</g>
<path style=" stroke:none;fill-rule:nonzero;fill:rgb(0%,0%,0%);fill-opacity:1;" d="M 230.367188 71.3125 C 230.535156 71.3125 230.714844 71.3125 230.714844 71.113281 C 230.714844 70.914062 230.535156 70.914062 230.367188 70.914062 L 226.144531 70.914062 L 226.144531 68.023438 C 226.144531 67.84375 226.144531 67.667969 225.945312 67.667969 C 225.746094 67.667969 225.746094 67.875 225.746094 68.023438 L 225.746094 74.203125 C 225.746094 74.351562 225.746094 74.558594 225.945312 74.558594 C 226.144531 74.558594 226.144531 74.382812 226.144531 74.203125 L 226.144531 71.3125 L 230.367188 71.3125 "/>
<path style=" stroke:none;fill-rule:nonzero;fill:rgb(0%,0%,0%);fill-opacity:1;" d="M 240.339844 70.496094 L 234.347656 70.496094 L 234.347656 70.894531 L 239.941406 70.894531 L 239.941406 72.511719 L 240.339844 72.511719 L 240.339844 70.496094 "/>
<g clip-path="url(#clip6)" clip-rule="nonzero">
<path style=" stroke:none;fill-rule:nonzero;fill:rgb(0%,0%,0%);fill-opacity:1;" d="M 242.878906 76.605469 C 242.816406 76.089844 242.789062 75.125 242.777344 74.667969 L 242.878906 74.589844 C 243.066406 74.640625 243.265625 74.667969 243.464844 74.667969 C 245.003906 74.667969 246.046875 73.058594 246.046875 71.597656 C 246.046875 70.855469 245.699219 69.941406 244.683594 69.941406 C 244 69.941406 243.394531 70.25 242.855469 70.675781 L 242.777344 70.636719 C 242.738281 70.199219 242.578125 69.890625 242.132812 69.890625 C 241.695312 69.890625 241.179688 70.25 240.78125 70.566406 L 240.921875 70.753906 C 241.15625 70.617188 241.4375 70.46875 241.644531 70.46875 C 241.945312 70.46875 242.03125 70.984375 242.03125 71.429688 L 242.03125 73.625 C 242.03125 74.191406 242.023438 76.230469 241.972656 76.804688 L 242.070312 76.914062 Z M 242.796875 73.902344 C 242.796875 73.894531 242.777344 72.871094 242.777344 72.058594 C 242.777344 71.949219 242.808594 71.191406 242.808594 71.132812 C 243.273438 70.765625 243.679688 70.558594 244.1875 70.558594 C 244.824219 70.558594 245.210938 71.320312 245.210938 72.1875 C 245.210938 73.128906 244.871094 74.273438 243.671875 74.273438 C 243.34375 74.273438 243.035156 74.121094 242.796875 73.902344 "/>
</g>
<path style=" stroke:none;fill-rule:nonzero;fill:rgb(0%,0%,0%);fill-opacity:1;" d="M 258.183594 72.277344 C 257.8125 72.730469 257.289062 73.515625 257.039062 74.558594 L 257.4375 74.558594 C 257.746094 73.257812 258.578125 72.355469 258.878906 72.078125 C 258.558594 71.777344 257.746094 70.886719 257.4375 69.59375 L 257.039062 69.59375 C 257.289062 70.625 257.804688 71.410156 258.183594 71.878906 L 250.40625 71.878906 C 250.226562 71.878906 250.054688 71.878906 250.054688 72.078125 C 250.054688 72.277344 250.234375 72.277344 250.40625 72.277344 L 258.183594 72.277344 "/>
<g clip-path="url(#clip7)" clip-rule="nonzero">
<path style=" stroke:none;fill-rule:nonzero;fill:rgb(0%,0%,0%);fill-opacity:1;" d="M 264.175781 76.605469 C 264.117188 76.089844 264.089844 75.125 264.078125 74.667969 L 264.175781 74.589844 C 264.367188 74.640625 264.5625 74.667969 264.761719 74.667969 C 266.304688 74.667969 267.34375 73.058594 267.34375 71.597656 C 267.34375 70.855469 266.996094 69.941406 265.984375 69.941406 C 265.300781 69.941406 264.695312 70.25 264.15625 70.675781 L 264.078125 70.636719 C 264.039062 70.199219 263.878906 69.890625 263.429688 69.890625 C 262.996094 69.890625 262.476562 70.25 262.082031 70.566406 L 262.21875 70.753906 C 262.457031 70.617188 262.734375 70.46875 262.945312 70.46875 C 263.242188 70.46875 263.332031 70.984375 263.332031 71.429688 L 263.332031 73.625 C 263.332031 74.191406 263.320312 76.230469 263.273438 76.804688 L 263.371094 76.914062 Z M 264.097656 73.902344 C 264.097656 73.894531 264.078125 72.871094 264.078125 72.058594 C 264.078125 71.949219 264.109375 71.191406 264.109375 71.132812 C 264.574219 70.765625 264.980469 70.558594 265.488281 70.558594 C 266.121094 70.558594 266.511719 71.320312 266.511719 72.1875 C 266.511719 73.128906 266.171875 74.273438 264.972656 74.273438 C 264.644531 74.273438 264.335938 74.121094 264.097656 73.902344 "/>
</g>
<path style=" stroke:none;fill-rule:nonzero;fill:rgb(0%,0%,0%);fill-opacity:1;" d="M 277.808594 67.765625 L 277.769531 67.726562 L 277.382812 67.726562 L 274.023438 73.972656 L 270.777344 67.765625 L 270.359375 67.835938 L 273.945312 74.679688 L 274.09375 74.679688 L 277.808594 67.765625 "/>
<g clip-path="url(#clip8)" clip-rule="nonzero">
<path style=" stroke:none;fill-rule:nonzero;fill:rgb(0%,0%,0%);fill-opacity:1;" d="M 284.464844 76.972656 L 285.265625 76.6875 C 285.1875 75.800781 285.148438 74.648438 285.148438 73.4375 C 285.148438 72.125 285.1875 70.746094 285.289062 69.59375 L 285.078125 69.554688 L 284.640625 70.140625 L 284.550781 70.160156 C 284.273438 70.019531 283.878906 69.882812 283.570312 69.882812 C 281.890625 69.882812 281.183594 71.332031 281.183594 72.710938 C 281.183594 73.546875 281.5625 74.628906 282.605469 74.628906 C 283.230469 74.628906 283.804688 74.351562 284.3125 73.972656 L 284.382812 74.023438 C 284.351562 74.976562 284.332031 76.410156 284.304688 76.816406 Z M 284.382812 73.515625 C 284.054688 73.804688 283.617188 74.011719 283.230469 74.011719 C 282.414062 74.011719 282.097656 73.269531 282.097656 72.445312 C 282.097656 71.332031 282.4375 70.25 283.558594 70.25 C 283.816406 70.25 284.046875 70.386719 284.222656 70.566406 C 284.382812 70.726562 284.382812 71.023438 284.382812 71.273438 L 284.382812 73.515625 "/>
</g>
<path style=" stroke:none;fill-rule:nonzero;fill:rgb(0%,0%,0%);fill-opacity:1;" d="M 297.78125 72.277344 C 297.414062 72.730469 296.886719 73.515625 296.640625 74.558594 L 297.039062 74.558594 C 297.34375 73.257812 298.179688 72.355469 298.476562 72.078125 C 298.160156 71.777344 297.34375 70.886719 297.039062 69.59375 L 296.640625 69.59375 C 296.886719 70.625 297.40625 71.410156 297.78125 71.878906 L 290.003906 71.878906 C 289.824219 71.878906 289.65625 71.878906 289.65625 72.078125 C 289.65625 72.277344 289.835938 72.277344 290.003906 72.277344 L 297.78125 72.277344 "/>
<g clip-path="url(#clip9)" clip-rule="nonzero">
<path style=" stroke:none;fill-rule:nonzero;fill:rgb(0%,0%,0%);fill-opacity:1;" d="M 305.964844 76.972656 L 306.765625 76.6875 C 306.6875 75.800781 306.648438 74.648438 306.648438 73.4375 C 306.648438 72.125 306.6875 70.746094 306.789062 69.59375 L 306.578125 69.554688 L 306.140625 70.140625 L 306.050781 70.160156 C 305.773438 70.019531 305.378906 69.882812 305.070312 69.882812 C 303.390625 69.882812 302.683594 71.332031 302.683594 72.710938 C 302.683594 73.546875 303.0625 74.628906 304.105469 74.628906 C 304.730469 74.628906 305.304688 74.351562 305.8125 73.972656 L 305.882812 74.023438 C 305.851562 74.976562 305.832031 76.410156 305.804688 76.816406 Z M 305.882812 73.515625 C 305.554688 73.804688 305.117188 74.011719 304.730469 74.011719 C 303.914062 74.011719 303.597656 73.269531 303.597656 72.445312 C 303.597656 71.332031 303.9375 70.25 305.058594 70.25 C 305.316406 70.25 305.546875 70.386719 305.722656 70.566406 C 305.882812 70.726562 305.882812 71.023438 305.882812 71.273438 L 305.882812 73.515625 "/>
</g>
</g>
</svg>
