<svg width="256" height="256" xmlns="http://www.w3.org/2000/svg">
  <path d="
M 8 8
L 8 8
L 24 8
L 24 24
L 8 24
L 8 40
L 8 56
L 24 56
L 24 40
L 40 40
L 40 56
L 56 56
L 56 40
L 56 24
L 40 24
L 40 8
L 56 8
L 72 8
L 72 24
L 88 24
L 88 8
L 104 8
L 120 8
L 120 24
L 104 24
L 104 40
L 120 40
L 120 56
L 104 56
L 88 56
L 88 40
L 72 40
L 72 56
L 72 72
L 72 88
L 88 88
L 88 72
L 104 72
L 120 72
L 120 88
L 104 88
L 104 104
L 120 104
L 120 120
L 104 120
L 88 120
L 88 104
L 72 104
L 72 120
L 56 120
L 40 120
L 40 104
L 56 104
L 56 88
L 56 72
L 40 72
L 40 88
L 24 88
L 24 72
L 8 72
L 8 88
L 8 104
L 24 104
L 24 120
L 8 120
L 8 136
L 8 152
L 24 152
L 24 136
L 40 136
L 56 136
L 56 152
L 40 152
L 40 168
L 56 168
L 56 184
L 40 184
L 24 184
L 24 168
L 8 168
L 8 184
L 8 200
L 24 200
L 24 216
L 8 216
L 8 232
L 8 248
L 24 248
L 24 232
L 40 232
L 40 248
L 56 248
L 56 232
L 56 216
L 40 216
L 40 200
L 56 200
L 72 200
L 88 200
L 88 216
L 72 216
L 72 232
L 72 248
L 88 248
L 88 232
L 104 232
L 104 248
L 120 248
L 120 232
L 120 216
L 104 216
L 104 200
L 120 200
L 120 184
L 120 168
L 104 168
L 104 184
L 88 184
L 72 184
L 72 168
L 88 168
L 88 152
L 72 152
L 72 136
L 88 136
L 104 136
L 104 152
L 120 152
L 120 136
L 136 136
L 136 152
L 152 152
L 152 136
L 168 136
L 184 136
L 184 152
L 168 152
L 168 168
L 184 168
L 184 184
L 168 184
L 152 184
L 152 168
L 136 168
L 136 184
L 136 200
L 152 200
L 152 216
L 136 216
L 136 232
L 136 248
L 152 248
L 152 232
L 168 232
L 168 248
L 184 248
L 184 232
L 184 216
L 168 216
L 168 200
L 184 200
L 200 200
L 216 200
L 216 216
L 200 216
L 200 232
L 200 248
L 216 248
L 216 232
L 232 232
L 232 248
L 248 248
L 248 232
L 248 216
L 232 216
L 232 200
L 248 200
L 248 184
L 248 168
L 232 168
L 232 184
L 216 184
L 200 184
L 200 168
L 216 168
L 216 152
L 200 152
L 200 136
L 216 136
L 232 136
L 232 152
L 248 152
L 248 136
L 248 120
L 232 120
L 232 104
L 248 104
L 248 88
L 248 72
L 232 72
L 232 88
L 216 88
L 216 72
L 200 72
L 200 88
L 200 104
L 216 104
L 216 120
L 200 120
L 184 120
L 184 104
L 168 104
L 168 120
L 152 120
L 136 120
L 136 104
L 152 104
L 152 88
L 136 88
L 136 72
L 152 72
L 168 72
L 168 88
L 184 88
L 184 72
L 184 56
L 184 40
L 168 40
L 168 56
L 152 56
L 136 56
L 136 40
L 152 40
L 152 24
L 136 24
L 136 8
L 152 8
L 168 8
L 168 24
L 184 24
L 184 8
L 200 8
L 216 8
L 216 24
L 200 24
L 200 40
L 200 56
L 216 56
L 216 40
L 232 40
L 232 56
L 248 56
L 248 40
L 248 24
L 232 24
L 232 8
L 248 8
M 8 8 Z
" fill="transparent" stroke="black" stroke-width="2" />
</svg>
