<?xml version="1.0" encoding="UTF-8"?>
<svg xmlns="http://www.w3.org/2000/svg" xmlns:xlink="http://www.w3.org/1999/xlink" width="91.1pt" height="9.96pt" viewBox="0 0 91.1 9.96" version="1.1">
<defs>
<clipPath id="clip1">
  <path d="M 1 0 L 3 0 L 3 9.960938 L 1 9.960938 Z M 1 0 "/>
</clipPath>
<clipPath id="clip2">
  <path d="M 5 0 L 7 0 L 7 9.960938 L 5 9.960938 Z M 5 0 "/>
</clipPath>
<clipPath id="clip3">
  <path d="M 30 2 L 37 2 L 37 9.960938 L 30 9.960938 Z M 30 2 "/>
</clipPath>
<clipPath id="clip4">
  <path d="M 37 0 L 40 0 L 40 9.960938 L 37 9.960938 Z M 37 0 "/>
</clipPath>
<clipPath id="clip5">
  <path d="M 64 0 L 67 0 L 67 9.960938 L 64 9.960938 Z M 64 0 "/>
</clipPath>
</defs>
<g id="surface1">
<g clip-path="url(#clip1)" clip-rule="nonzero">
<path style=" stroke:none;fill-rule:nonzero;fill:rgb(0%,0%,0%);fill-opacity:1;" d="M 2.992188 9.078125 C 1.710938 8.832031 1.640625 6.417969 1.640625 4.738281 C 1.640625 3.238281 1.726562 0.714844 2.992188 0.398438 L 2.992188 0.128906 C 1.957031 0.308594 1.507812 1.441406 1.320312 2.394531 C 1.171875 3.136719 1.121094 3.914062 1.121094 4.679688 C 1.121094 5.484375 1.164062 6.289062 1.300781 7.082031 C 1.46875 8.027344 1.945312 9.230469 2.992188 9.316406 L 2.992188 9.078125 "/>
</g>
<g clip-path="url(#clip2)" clip-rule="nonzero">
<path style=" stroke:none;fill-rule:nonzero;fill:rgb(0%,0%,0%);fill-opacity:1;" d="M 6.890625 9.078125 C 5.609375 8.832031 5.539062 6.417969 5.539062 4.738281 C 5.539062 3.238281 5.628906 0.714844 6.890625 0.398438 L 6.890625 0.128906 C 5.855469 0.308594 5.410156 1.441406 5.222656 2.394531 C 5.070312 3.136719 5.023438 3.914062 5.023438 4.679688 C 5.023438 5.484375 5.0625 6.289062 5.203125 7.082031 C 5.371094 8.027344 5.847656 9.230469 6.890625 9.316406 L 6.890625 9.078125 "/>
</g>
<path style=" stroke:none;fill-rule:nonzero;fill:rgb(0%,0%,0%);fill-opacity:1;" d="M 11.761719 1.183594 C 11.761719 1.003906 11.761719 0.824219 11.5625 0.824219 C 11.367188 0.824219 11.367188 1.035156 11.367188 1.183594 L 11.367188 7.0625 L 8.605469 7.0625 C 8.453125 7.0625 8.246094 7.0625 8.246094 7.261719 C 8.246094 7.460938 8.453125 7.460938 8.605469 7.460938 L 14.535156 7.460938 C 14.703125 7.460938 14.882812 7.460938 14.882812 7.261719 C 14.882812 7.0625 14.703125 7.0625 14.535156 7.0625 L 11.761719 7.0625 L 11.761719 1.183594 "/>
<path style=" stroke:none;fill-rule:nonzero;fill:rgb(0%,0%,0%);fill-opacity:1;" d="M 26.984375 5.175781 C 26.613281 5.632812 26.085938 6.417969 25.839844 7.460938 L 26.238281 7.460938 C 26.546875 6.160156 27.378906 5.253906 27.679688 4.976562 C 27.359375 4.679688 26.546875 3.785156 26.238281 2.492188 L 25.839844 2.492188 C 26.085938 3.527344 26.605469 4.3125 26.984375 4.777344 L 19.203125 4.777344 C 19.023438 4.777344 18.855469 4.777344 18.855469 4.976562 C 18.855469 5.175781 19.035156 5.175781 19.203125 5.175781 L 26.984375 5.175781 "/>
<g clip-path="url(#clip3)" clip-rule="nonzero">
<path style=" stroke:none;fill-rule:nonzero;fill:rgb(0%,0%,0%);fill-opacity:1;" d="M 32.976562 9.507812 C 32.917969 8.988281 32.886719 8.027344 32.878906 7.570312 L 32.976562 7.488281 C 33.164062 7.539062 33.363281 7.570312 33.5625 7.570312 C 35.101562 7.570312 36.144531 5.960938 36.144531 4.5 C 36.144531 3.753906 35.796875 2.839844 34.785156 2.839844 C 34.101562 2.839844 33.492188 3.148438 32.957031 3.574219 L 32.878906 3.535156 C 32.835938 3.097656 32.679688 2.792969 32.230469 2.792969 C 31.796875 2.792969 31.277344 3.148438 30.882812 3.464844 L 31.019531 3.65625 C 31.257812 3.515625 31.535156 3.367188 31.746094 3.367188 C 32.042969 3.367188 32.132812 3.882812 32.132812 4.332031 L 32.132812 6.527344 C 32.132812 7.09375 32.121094 9.128906 32.074219 9.707031 L 32.171875 9.816406 Z M 32.898438 6.804688 C 32.898438 6.792969 32.878906 5.769531 32.878906 4.957031 C 32.878906 4.847656 32.90625 4.09375 32.90625 4.035156 C 33.375 3.664062 33.78125 3.457031 34.289062 3.457031 C 34.921875 3.457031 35.3125 4.222656 35.3125 5.085938 C 35.3125 6.03125 34.972656 7.171875 33.773438 7.171875 C 33.445312 7.171875 33.136719 7.023438 32.898438 6.804688 "/>
</g>
<g clip-path="url(#clip4)" clip-rule="nonzero">
<path style=" stroke:none;fill-rule:nonzero;fill:rgb(0%,0%,0%);fill-opacity:1;" d="M 37.753906 0.417969 C 38.558594 0.707031 38.789062 1.636719 38.9375 2.382812 C 39.085938 3.148438 39.125 3.941406 39.125 4.71875 C 39.125 5.851562 39.144531 7.0625 38.789062 8.125 C 38.589844 8.722656 38.210938 8.980469 37.753906 9.097656 L 37.753906 9.339844 C 39.53125 9.109375 39.640625 6.457031 39.640625 4.757812 C 39.640625 3.097656 39.433594 0.496094 37.753906 0.148438 L 37.753906 0.417969 "/>
</g>
<path style=" stroke:none;fill-rule:nonzero;fill:rgb(0%,0%,0%);fill-opacity:1;" d="M 52.183594 5.175781 C 51.8125 5.632812 51.289062 6.417969 51.039062 7.460938 L 51.4375 7.460938 C 51.746094 6.160156 52.578125 5.253906 52.878906 4.976562 C 52.558594 4.679688 51.746094 3.785156 51.4375 2.492188 L 51.039062 2.492188 C 51.289062 3.527344 51.804688 4.3125 52.183594 4.777344 L 44.40625 4.777344 C 44.226562 4.777344 44.054688 4.777344 44.054688 4.976562 C 44.054688 5.175781 44.234375 5.175781 44.40625 5.175781 L 52.183594 5.175781 "/>
<path style=" stroke:none;fill-rule:nonzero;fill:rgb(0%,0%,0%);fill-opacity:1;" d="M 60.261719 1.183594 C 60.261719 1.003906 60.261719 0.824219 60.0625 0.824219 C 59.867188 0.824219 59.867188 1.035156 59.867188 1.183594 L 59.867188 7.0625 L 57.105469 7.0625 C 56.953125 7.0625 56.746094 7.0625 56.746094 7.261719 C 56.746094 7.460938 56.953125 7.460938 57.105469 7.460938 L 63.035156 7.460938 C 63.203125 7.460938 63.382812 7.460938 63.382812 7.261719 C 63.382812 7.0625 63.203125 7.0625 63.035156 7.0625 L 60.261719 7.0625 L 60.261719 1.183594 "/>
<g clip-path="url(#clip5)" clip-rule="nonzero">
<path style=" stroke:none;fill-rule:nonzero;fill:rgb(0%,0%,0%);fill-opacity:1;" d="M 64.855469 0.417969 C 65.660156 0.707031 65.886719 1.636719 66.035156 2.382812 C 66.1875 3.148438 66.226562 3.941406 66.226562 4.71875 C 66.226562 5.851562 66.246094 7.0625 65.886719 8.125 C 65.6875 8.722656 65.3125 8.980469 64.855469 9.097656 L 64.855469 9.339844 C 66.632812 9.109375 66.742188 6.457031 66.742188 4.757812 C 66.742188 3.097656 66.53125 0.496094 64.855469 0.148438 L 64.855469 0.417969 "/>
</g>
<path style=" stroke:none;fill-rule:nonzero;fill:rgb(0%,0%,0%);fill-opacity:1;" d="M 79.28125 5.175781 C 78.914062 5.632812 78.386719 6.417969 78.140625 7.460938 L 78.539062 7.460938 C 78.84375 6.160156 79.679688 5.253906 79.976562 4.976562 C 79.660156 4.679688 78.84375 3.785156 78.539062 2.492188 L 78.140625 2.492188 C 78.386719 3.527344 78.90625 4.3125 79.28125 4.777344 L 71.503906 4.777344 C 71.324219 4.777344 71.15625 4.777344 71.15625 4.976562 C 71.15625 5.175781 71.335938 5.175781 71.503906 5.175781 L 79.28125 5.175781 "/>
<path style=" stroke:none;fill-rule:nonzero;fill:rgb(0%,0%,0%);fill-opacity:1;" d="M 87.460938 1.183594 C 87.460938 1.003906 87.460938 0.824219 87.265625 0.824219 C 87.066406 0.824219 87.066406 1.035156 87.066406 1.183594 L 87.066406 7.0625 L 84.304688 7.0625 C 84.15625 7.0625 83.945312 7.0625 83.945312 7.261719 C 83.945312 7.460938 84.15625 7.460938 84.304688 7.460938 L 90.234375 7.460938 C 90.402344 7.460938 90.582031 7.460938 90.582031 7.261719 C 90.582031 7.0625 90.402344 7.0625 90.234375 7.0625 L 87.460938 7.0625 L 87.460938 1.183594 "/>
</g>
</svg>
