<?xml version="1.0" encoding="UTF-8"?>
<svg xmlns="http://www.w3.org/2000/svg" xmlns:xlink="http://www.w3.org/1999/xlink" width="61.02pt" height="9.96pt" viewBox="0 0 61.02 9.96" version="1.1">
<defs>
<clipPath id="clip1">
  <path d="M 25 0 L 28 0 L 28 9.960938 L 25 9.960938 Z M 25 0 "/>
</clipPath>
<clipPath id="clip2">
  <path d="M 51 2 L 57 2 L 57 9.960938 L 51 9.960938 Z M 51 2 "/>
</clipPath>
<clipPath id="clip3">
  <path d="M 57 0 L 60 0 L 60 9.960938 L 57 9.960938 Z M 57 0 "/>
</clipPath>
</defs>
<g id="surface1">
<path style=" stroke:none;fill-rule:nonzero;fill:rgb(0%,0%,0%);fill-opacity:1;" d="M 5.164062 4.210938 C 5.335938 4.210938 5.511719 4.210938 5.511719 4.011719 C 5.511719 3.816406 5.335938 3.816406 5.164062 3.816406 L 0.945312 3.816406 L 0.945312 0.925781 C 0.945312 0.746094 0.945312 0.566406 0.746094 0.566406 C 0.546875 0.566406 0.546875 0.773438 0.546875 0.925781 L 0.546875 7.101562 C 0.546875 7.25 0.546875 7.460938 0.746094 7.460938 C 0.945312 7.460938 0.945312 7.28125 0.945312 7.101562 L 0.945312 4.210938 L 5.164062 4.210938 "/>
<path style=" stroke:none;fill-rule:nonzero;fill:rgb(0%,0%,0%);fill-opacity:1;" d="M 15.140625 3.398438 L 9.148438 3.398438 L 9.148438 3.792969 L 14.742188 3.792969 L 14.742188 5.414062 L 15.140625 5.414062 L 15.140625 3.398438 "/>
<path style=" stroke:none;fill-rule:nonzero;fill:rgb(0%,0%,0%);fill-opacity:1;" d="M 21.9375 3.398438 L 15.949219 3.398438 L 15.949219 3.792969 L 21.539062 3.792969 L 21.539062 5.414062 L 21.9375 5.414062 L 21.9375 3.398438 "/>
<g clip-path="url(#clip1)" clip-rule="nonzero">
<path style=" stroke:none;fill-rule:nonzero;fill:rgb(0%,0%,0%);fill-opacity:1;" d="M 27.191406 9.078125 C 25.910156 8.832031 25.839844 6.417969 25.839844 4.738281 C 25.839844 3.238281 25.929688 0.714844 27.191406 0.398438 L 27.191406 0.128906 C 26.15625 0.308594 25.710938 1.441406 25.523438 2.394531 C 25.371094 3.136719 25.320312 3.914062 25.320312 4.679688 C 25.320312 5.484375 25.363281 6.289062 25.5 7.082031 C 25.671875 8.027344 26.148438 9.230469 27.191406 9.316406 L 27.191406 9.078125 "/>
</g>
<path style=" stroke:none;fill-rule:nonzero;fill:rgb(0%,0%,0%);fill-opacity:1;" d="M 32.0625 1.183594 C 32.0625 1.003906 32.0625 0.824219 31.863281 0.824219 C 31.664062 0.824219 31.664062 1.035156 31.664062 1.183594 L 31.664062 7.0625 L 28.90625 7.0625 C 28.753906 7.0625 28.546875 7.0625 28.546875 7.261719 C 28.546875 7.460938 28.753906 7.460938 28.90625 7.460938 L 34.835938 7.460938 C 35.003906 7.460938 35.183594 7.460938 35.183594 7.261719 C 35.183594 7.0625 35.003906 7.0625 34.835938 7.0625 L 32.0625 7.0625 L 32.0625 1.183594 "/>
<path style=" stroke:none;fill-rule:nonzero;fill:rgb(0%,0%,0%);fill-opacity:1;" d="M 47.183594 5.175781 C 46.8125 5.632812 46.289062 6.417969 46.039062 7.460938 L 46.4375 7.460938 C 46.746094 6.160156 47.578125 5.253906 47.878906 4.976562 C 47.558594 4.679688 46.746094 3.785156 46.4375 2.492188 L 46.039062 2.492188 C 46.289062 3.527344 46.804688 4.3125 47.183594 4.777344 L 39.40625 4.777344 C 39.226562 4.777344 39.054688 4.777344 39.054688 4.976562 C 39.054688 5.175781 39.234375 5.175781 39.40625 5.175781 L 47.183594 5.175781 "/>
<g clip-path="url(#clip2)" clip-rule="nonzero">
<path style=" stroke:none;fill-rule:nonzero;fill:rgb(0%,0%,0%);fill-opacity:1;" d="M 53.277344 9.507812 C 53.21875 8.988281 53.1875 8.027344 53.179688 7.570312 L 53.277344 7.488281 C 53.464844 7.539062 53.664062 7.570312 53.863281 7.570312 C 55.402344 7.570312 56.445312 5.960938 56.445312 4.5 C 56.445312 3.753906 56.097656 2.839844 55.085938 2.839844 C 54.398438 2.839844 53.792969 3.148438 53.257812 3.574219 L 53.179688 3.535156 C 53.136719 3.097656 52.976562 2.792969 52.53125 2.792969 C 52.09375 2.792969 51.578125 3.148438 51.179688 3.464844 L 51.320312 3.65625 C 51.558594 3.515625 51.835938 3.367188 52.046875 3.367188 C 52.34375 3.367188 52.433594 3.882812 52.433594 4.332031 L 52.433594 6.527344 C 52.433594 7.09375 52.421875 9.128906 52.375 9.707031 L 52.472656 9.816406 Z M 53.195312 6.804688 C 53.195312 6.792969 53.179688 5.769531 53.179688 4.957031 C 53.179688 4.847656 53.207031 4.09375 53.207031 4.035156 C 53.671875 3.664062 54.082031 3.457031 54.585938 3.457031 C 55.222656 3.457031 55.609375 4.222656 55.609375 5.085938 C 55.609375 6.03125 55.273438 7.171875 54.070312 7.171875 C 53.742188 7.171875 53.4375 7.023438 53.195312 6.804688 "/>
</g>
<g clip-path="url(#clip3)" clip-rule="nonzero">
<path style=" stroke:none;fill-rule:nonzero;fill:rgb(0%,0%,0%);fill-opacity:1;" d="M 57.953125 0.417969 C 58.757812 0.707031 58.988281 1.636719 59.136719 2.382812 C 59.285156 3.148438 59.324219 3.941406 59.324219 4.71875 C 59.324219 5.851562 59.34375 7.0625 58.988281 8.125 C 58.789062 8.722656 58.410156 8.980469 57.953125 9.097656 L 57.953125 9.339844 C 59.734375 9.109375 59.84375 6.457031 59.84375 4.757812 C 59.84375 3.097656 59.632812 0.496094 57.953125 0.148438 L 57.953125 0.417969 "/>
</g>
</g>
</svg>
