<?xml version="1.0" encoding="UTF-8"?>
<svg xmlns="http://www.w3.org/2000/svg" xmlns:xlink="http://www.w3.org/1999/xlink" width="85.63pt" height="9.96pt" viewBox="0 0 85.63 9.96" version="1.1">
<defs>
<clipPath id="clip1">
  <path d="M 1 0 L 3 0 L 3 9.960938 L 1 9.960938 Z M 1 0 "/>
</clipPath>
<clipPath id="clip2">
  <path d="M 5 0 L 7 0 L 7 9.960938 L 5 9.960938 Z M 5 0 "/>
</clipPath>
<clipPath id="clip3">
  <path d="M 7 2 L 13 2 L 13 9.960938 L 7 9.960938 Z M 7 2 "/>
</clipPath>
<clipPath id="clip4">
  <path d="M 29 2 L 35 2 L 35 9.960938 L 29 9.960938 Z M 29 2 "/>
</clipPath>
<clipPath id="clip5">
  <path d="M 35 0 L 38 0 L 38 9.960938 L 35 9.960938 Z M 35 0 "/>
</clipPath>
<clipPath id="clip6">
  <path d="M 54 2 L 60 2 L 60 9.960938 L 54 9.960938 Z M 54 2 "/>
</clipPath>
<clipPath id="clip7">
  <path d="M 61 0 L 64 0 L 64 9.960938 L 61 9.960938 Z M 61 0 "/>
</clipPath>
<clipPath id="clip8">
  <path d="M 79 2 L 85 2 L 85 9.960938 L 79 9.960938 Z M 79 2 "/>
</clipPath>
</defs>
<g id="surface1">
<g clip-path="url(#clip1)" clip-rule="nonzero">
<path style=" stroke:none;fill-rule:nonzero;fill:rgb(0%,0%,0%);fill-opacity:1;" d="M 2.992188 9.078125 C 1.710938 8.832031 1.640625 6.417969 1.640625 4.738281 C 1.640625 3.238281 1.726562 0.714844 2.992188 0.398438 L 2.992188 0.128906 C 1.957031 0.308594 1.507812 1.441406 1.320312 2.394531 C 1.171875 3.136719 1.121094 3.914062 1.121094 4.679688 C 1.121094 5.484375 1.164062 6.289062 1.300781 7.082031 C 1.46875 8.027344 1.945312 9.230469 2.992188 9.316406 L 2.992188 9.078125 "/>
</g>
<g clip-path="url(#clip2)" clip-rule="nonzero">
<path style=" stroke:none;fill-rule:nonzero;fill:rgb(0%,0%,0%);fill-opacity:1;" d="M 6.890625 9.078125 C 5.609375 8.832031 5.539062 6.417969 5.539062 4.738281 C 5.539062 3.238281 5.628906 0.714844 6.890625 0.398438 L 6.890625 0.128906 C 5.855469 0.308594 5.410156 1.441406 5.222656 2.394531 C 5.070312 3.136719 5.023438 3.914062 5.023438 4.679688 C 5.023438 5.484375 5.0625 6.289062 5.203125 7.082031 C 5.371094 8.027344 5.847656 9.230469 6.890625 9.316406 L 6.890625 9.078125 "/>
</g>
<g clip-path="url(#clip3)" clip-rule="nonzero">
<path style=" stroke:none;fill-rule:nonzero;fill:rgb(0%,0%,0%);fill-opacity:1;" d="M 9.675781 9.507812 C 9.617188 8.988281 9.585938 8.027344 9.578125 7.570312 L 9.675781 7.488281 C 9.867188 7.539062 10.0625 7.570312 10.261719 7.570312 C 11.804688 7.570312 12.84375 5.960938 12.84375 4.5 C 12.84375 3.753906 12.5 2.839844 11.484375 2.839844 C 10.800781 2.839844 10.195312 3.148438 9.65625 3.574219 L 9.578125 3.535156 C 9.539062 3.097656 9.378906 2.792969 8.929688 2.792969 C 8.496094 2.792969 7.976562 3.148438 7.582031 3.464844 L 7.71875 3.65625 C 7.957031 3.515625 8.234375 3.367188 8.445312 3.367188 C 8.742188 3.367188 8.832031 3.882812 8.832031 4.332031 L 8.832031 6.527344 C 8.832031 7.09375 8.820312 9.128906 8.773438 9.707031 L 8.871094 9.816406 Z M 9.597656 6.804688 C 9.597656 6.792969 9.578125 5.769531 9.578125 4.957031 C 9.578125 4.847656 9.609375 4.09375 9.609375 4.035156 C 10.074219 3.664062 10.480469 3.457031 10.988281 3.457031 C 11.625 3.457031 12.011719 4.222656 12.011719 5.085938 C 12.011719 6.03125 11.671875 7.171875 10.472656 7.171875 C 10.144531 7.171875 9.835938 7.023438 9.597656 6.804688 "/>
</g>
<path style=" stroke:none;fill-rule:nonzero;fill:rgb(0%,0%,0%);fill-opacity:1;" d="M 25.082031 5.175781 C 24.714844 5.632812 24.1875 6.417969 23.9375 7.460938 L 24.335938 7.460938 C 24.644531 6.160156 25.480469 5.253906 25.777344 4.976562 C 25.460938 4.679688 24.644531 3.785156 24.335938 2.492188 L 23.9375 2.492188 C 24.1875 3.527344 24.703125 4.3125 25.082031 4.777344 L 17.304688 4.777344 C 17.125 4.777344 16.957031 4.777344 16.957031 4.976562 C 16.957031 5.175781 17.132812 5.175781 17.304688 5.175781 L 25.082031 5.175781 "/>
<g clip-path="url(#clip4)" clip-rule="nonzero">
<path style=" stroke:none;fill-rule:nonzero;fill:rgb(0%,0%,0%);fill-opacity:1;" d="M 33.261719 9.875 L 34.066406 9.585938 C 33.988281 8.703125 33.945312 7.550781 33.945312 6.339844 C 33.945312 5.027344 33.988281 3.644531 34.085938 2.492188 L 33.878906 2.453125 L 33.441406 3.039062 L 33.351562 3.058594 C 33.074219 2.921875 32.675781 2.78125 32.367188 2.78125 C 30.6875 2.78125 29.984375 4.230469 29.984375 5.613281 C 29.984375 6.449219 30.359375 7.53125 31.40625 7.53125 C 32.03125 7.53125 32.605469 7.25 33.113281 6.875 L 33.183594 6.925781 C 33.152344 7.878906 33.132812 9.308594 33.101562 9.714844 Z M 33.183594 6.417969 C 32.855469 6.707031 32.417969 6.914062 32.03125 6.914062 C 31.214844 6.914062 30.898438 6.167969 30.898438 5.34375 C 30.898438 4.230469 31.234375 3.148438 32.359375 3.148438 C 32.617188 3.148438 32.84375 3.289062 33.023438 3.464844 C 33.183594 3.625 33.183594 3.925781 33.183594 4.171875 L 33.183594 6.417969 "/>
</g>
<g clip-path="url(#clip5)" clip-rule="nonzero">
<path style=" stroke:none;fill-rule:nonzero;fill:rgb(0%,0%,0%);fill-opacity:1;" d="M 35.953125 0.417969 C 36.757812 0.707031 36.988281 1.636719 37.136719 2.382812 C 37.285156 3.148438 37.324219 3.941406 37.324219 4.71875 C 37.324219 5.851562 37.34375 7.0625 36.988281 8.125 C 36.789062 8.722656 36.410156 8.980469 35.953125 9.097656 L 35.953125 9.339844 C 37.734375 9.109375 37.84375 6.457031 37.84375 4.757812 C 37.84375 3.097656 37.632812 0.496094 35.953125 0.148438 L 35.953125 0.417969 "/>
</g>
<path style=" stroke:none;fill-rule:nonzero;fill:rgb(0%,0%,0%);fill-opacity:1;" d="M 50.484375 5.175781 C 50.113281 5.632812 49.585938 6.417969 49.339844 7.460938 L 49.738281 7.460938 C 50.046875 6.160156 50.878906 5.253906 51.179688 4.976562 C 50.859375 4.679688 50.046875 3.785156 49.738281 2.492188 L 49.339844 2.492188 C 49.585938 3.527344 50.105469 4.3125 50.484375 4.777344 L 42.703125 4.777344 C 42.523438 4.777344 42.355469 4.777344 42.355469 4.976562 C 42.355469 5.175781 42.535156 5.175781 42.703125 5.175781 L 50.484375 5.175781 "/>
<g clip-path="url(#clip6)" clip-rule="nonzero">
<path style=" stroke:none;fill-rule:nonzero;fill:rgb(0%,0%,0%);fill-opacity:1;" d="M 56.476562 9.507812 C 56.417969 8.988281 56.386719 8.027344 56.378906 7.570312 L 56.476562 7.488281 C 56.664062 7.539062 56.863281 7.570312 57.0625 7.570312 C 58.601562 7.570312 59.644531 5.960938 59.644531 4.5 C 59.644531 3.753906 59.296875 2.839844 58.285156 2.839844 C 57.601562 2.839844 56.992188 3.148438 56.457031 3.574219 L 56.378906 3.535156 C 56.335938 3.097656 56.179688 2.792969 55.730469 2.792969 C 55.296875 2.792969 54.777344 3.148438 54.382812 3.464844 L 54.519531 3.65625 C 54.757812 3.515625 55.035156 3.367188 55.246094 3.367188 C 55.542969 3.367188 55.632812 3.882812 55.632812 4.332031 L 55.632812 6.527344 C 55.632812 7.09375 55.621094 9.128906 55.574219 9.707031 L 55.671875 9.816406 Z M 56.398438 6.804688 C 56.398438 6.792969 56.378906 5.769531 56.378906 4.957031 C 56.378906 4.847656 56.40625 4.09375 56.40625 4.035156 C 56.875 3.664062 57.28125 3.457031 57.789062 3.457031 C 58.421875 3.457031 58.8125 4.222656 58.8125 5.085938 C 58.8125 6.03125 58.472656 7.171875 57.273438 7.171875 C 56.945312 7.171875 56.636719 7.023438 56.398438 6.804688 "/>
</g>
<g clip-path="url(#clip7)" clip-rule="nonzero">
<path style=" stroke:none;fill-rule:nonzero;fill:rgb(0%,0%,0%);fill-opacity:1;" d="M 61.253906 0.417969 C 62.058594 0.707031 62.289062 1.636719 62.4375 2.382812 C 62.585938 3.148438 62.625 3.941406 62.625 4.71875 C 62.625 5.851562 62.644531 7.0625 62.289062 8.125 C 62.089844 8.722656 61.710938 8.980469 61.253906 9.097656 L 61.253906 9.339844 C 63.03125 9.109375 63.140625 6.457031 63.140625 4.757812 C 63.140625 3.097656 62.933594 0.496094 61.253906 0.148438 L 61.253906 0.417969 "/>
</g>
<path style=" stroke:none;fill-rule:nonzero;fill:rgb(0%,0%,0%);fill-opacity:1;" d="M 75.683594 5.175781 C 75.3125 5.632812 74.789062 6.417969 74.539062 7.460938 L 74.9375 7.460938 C 75.246094 6.160156 76.078125 5.253906 76.378906 4.976562 C 76.058594 4.679688 75.246094 3.785156 74.9375 2.492188 L 74.539062 2.492188 C 74.789062 3.527344 75.304688 4.3125 75.683594 4.777344 L 67.90625 4.777344 C 67.726562 4.777344 67.554688 4.777344 67.554688 4.976562 C 67.554688 5.175781 67.734375 5.175781 67.90625 5.175781 L 75.683594 5.175781 "/>
<g clip-path="url(#clip8)" clip-rule="nonzero">
<path style=" stroke:none;fill-rule:nonzero;fill:rgb(0%,0%,0%);fill-opacity:1;" d="M 81.777344 9.507812 C 81.71875 8.988281 81.6875 8.027344 81.679688 7.570312 L 81.777344 7.488281 C 81.964844 7.539062 82.164062 7.570312 82.363281 7.570312 C 83.902344 7.570312 84.945312 5.960938 84.945312 4.5 C 84.945312 3.753906 84.597656 2.839844 83.585938 2.839844 C 82.898438 2.839844 82.292969 3.148438 81.757812 3.574219 L 81.679688 3.535156 C 81.636719 3.097656 81.476562 2.792969 81.03125 2.792969 C 80.59375 2.792969 80.078125 3.148438 79.679688 3.464844 L 79.820312 3.65625 C 80.058594 3.515625 80.335938 3.367188 80.546875 3.367188 C 80.84375 3.367188 80.933594 3.882812 80.933594 4.332031 L 80.933594 6.527344 C 80.933594 7.09375 80.921875 9.128906 80.875 9.707031 L 80.972656 9.816406 Z M 81.695312 6.804688 C 81.695312 6.792969 81.679688 5.769531 81.679688 4.957031 C 81.679688 4.847656 81.707031 4.09375 81.707031 4.035156 C 82.171875 3.664062 82.582031 3.457031 83.085938 3.457031 C 83.722656 3.457031 84.109375 4.222656 84.109375 5.085938 C 84.109375 6.03125 83.773438 7.171875 82.570312 7.171875 C 82.242188 7.171875 81.9375 7.023438 81.695312 6.804688 "/>
</g>
</g>
</svg>
