{
    "asset": {
        "generator": "COLLADA2GLTF",
        "version": "2.0"
    },
    "scenes": [
        {
            "nodes": [
                0
            ]
        }
    ],
    "scene": 0,
    "nodes": [
        {
            "children": [
                2,
                1
            ],
            "matrix": [
                1.0,
                0.0,
                0.0,
                0.0,
                0.0,
                0.0,
                -1.0,
                0.0,
                0.0,
                1.0,
                0.0,
                0.0,
                0.0,
                0.0,
                0.0,
                1.0
            ],
            "name": "Z_UP"
        },
        {
            "mesh": 0,
            "matrix": [
                1.0,
                0.0,
                0.0,
                0.0,
                0.0,
                1.0,
                0.0,
                0.0,
                0.0,
                0.0,
                1.0,
                0.0,
                0.0013199150562286378,
                -4.043399997044617e-7,
                1.7094080448150638,
                1.0
            ],
            "name": "Plane"
        },
        {
            "matrix": [
                0.6859207153320313,
                0.727676272392273,
                0.0,
                0.0,
                -0.32401350140571597,
                0.3054207861423493,
                0.8953955769538879,
                0.0,
                0.6515582203865051,
                -0.6141703724861145,
                0.44527140259742739,
                0.0,
                7.4811320304870609,
                -6.507639884948731,
                5.34366512298584,
                1.0
            ],
            "camera": 0,
            "name": "Camera"
        }
    ],
    "cameras": [
        {
            "perspective": {
                "yfov": 0.4823747575283051,
                "zfar": 100.0,
                "znear": 0.10000000149011612
            },
            "type": "perspective",
            "name": "Camera"
        }
    ],
    "meshes": [
        {
            "primitives": [
                {
                    "attributes": {
                        "POSITION": 1
                    },
                    "indices": 0,
                    "mode": 1
                },
                {
                    "attributes": {
                        "NORMAL": 3,
                        "POSITION": 4,
                        "TEXCOORD_0": 5
                    },
                    "indices": 2,
                    "mode": 4,
                    "material": 0
                }
            ],
            "name": "Plane"
        }
    ],
    "accessors": [
        {
            "bufferView": 0,
            "byteOffset": 0,
            "componentType": 5123,
            "count": 4,
            "max": [
                2
            ],
            "min": [
                0
            ],
            "type": "SCALAR"
        },
        {
            "bufferView": 1,
            "byteOffset": 0,
            "componentType": 5126,
            "count": 3,
            "max": [
                0.0,
                -0.2999993860721588,
                -1.149999976158142
            ],
            "min": [
                0.0,
                -0.3199999928474426,
                -2.75
            ],
            "type": "VEC3"
        },
        {
            "bufferView": 0,
            "byteOffset": 8,
            "componentType": 5123,
            "count": 4224,
            "max": [
                4103
            ],
            "min": [
                0
            ],
            "type": "SCALAR"
        },
        {
            "bufferView": 1,
            "byteOffset": 36,
            "componentType": 5126,
            "count": 4104,
            "max": [
                0.9999988079071044,
                1.0,
                1.0
            ],
            "min": [
                -0.9999610781669616,
                -0.9995737075805664,
                -0.9975417256355286
            ],
            "type": "VEC3"
        },
        {
            "bufferView": 1,
            "byteOffset": 49284,
            "componentType": 5126,
            "count": 4104,
            "max": [
                2.32712197303772,
                0.9779115915298462,
                0.8177942037582398
            ],
            "min": [
                -2.296308994293213,
                -2.2234139442443849,
                -3.467226982116699
            ],
            "type": "VEC3"
        },
        {
            "bufferView": 2,
            "byteOffset": 0,
            "componentType": 5126,
            "count": 4104,
            "max": [
                0.981048583984375,
                0.9995505809783936
            ],
            "min": [
                0.00044939201325178146,
                0.0004494190216064453
            ],
            "type": "VEC2"
        }
    ],
    "materials": [
        {
            "pbrMetallicRoughness": {
                "baseColorTexture": {
                    "index": 0
                },
                "metallicFactor": 0.0
            },
            "emissiveFactor": [
                0.0,
                0.0,
                0.0
            ],
            "name": "Material-effect"
        }
    ],
    "textures": [
        {
            "sampler": 0,
            "source": 0
        }
    ],
    "images": [
        {
            "uri": "data:image/png;base64,"
        }
    ],
    "samplers": [
        {
            "magFilter": 9729,
            "minFilter": 9986,
            "wrapS": 10497,
            "wrapT": 10497
        }
    ],
    "bufferViews": [
        {
            "buffer": 0,
            "byteOffset": 131364,
            "byteLength": 8456,
            "target": 34963
        },
        {
            "buffer": 0,
            "byteOffset": 0,
            "byteLength": 98532,
            "byteStride": 12,
            "target": 34962
        },
        {
            "buffer": 0,
            "byteOffset": 98532,
            "byteLength": 32832,
            "byteStride": 8,
            "target": 34962
        }
    ],
    "buffers": [
        {
            "byteLength": 139820,
            "uri": "data:application/octet-stream;base64,"
        }
    ]
}
