<?xml version="1.0" encoding="UTF-8"?>
<svg xmlns="http://www.w3.org/2000/svg" xmlns:xlink="http://www.w3.org/1999/xlink" width="100pt" height="100pt" viewBox="0 0 100 100" version="1.1">
<defs>
<clipPath id="clip1">
  <path d="M 0 0 L 99.265625 0 L 99.265625 100 L 0 100 Z M 0 0 "/>
</clipPath>
</defs>
<g id="surface1">
<g clip-path="url(#clip1)" clip-rule="nonzero">
<path style=" stroke:none;fill-rule:nonzero;fill:rgb(0%,0%,0%);fill-opacity:1;" d="M 92.621094 25.539062 C 78.921875 1.8125 48.582031 -6.320312 24.855469 7.378906 C 1.128906 21.078125 -7 51.417969 6.699219 75.144531 C 20.398438 98.871094 50.734375 107 74.460938 93.300781 C 89.808594 84.441406 99.265625 68.0625 99.265625 50.339844 L 49.65625 50.339844 L 49.65625 62.742188 L 84.734375 62.742188 C 77.621094 82.019531 56.226562 91.878906 36.949219 84.765625 C 17.675781 77.648438 7.816406 56.257812 14.929688 36.980469 C 22.042969 17.703125 43.4375 7.84375 62.714844 14.957031 C 70.863281 17.964844 77.707031 23.734375 82.050781 31.257812 Z M 92.621094 25.539062 "/>
</g>
</g>
</svg>
