<?xml version="1.0" encoding="UTF-8"?>
<svg xmlns="http://www.w3.org/2000/svg" xmlns:xlink="http://www.w3.org/1999/xlink" width="99.213pt" height="99.213pt" viewBox="0 0 99.213 99.213" version="1.1">
<defs>
<clipPath id="clip1">
  <path d="M 0 0 L 13 0 L 13 99.214844 L 0 99.214844 Z M 0 0 "/>
</clipPath>
</defs>
<g id="surface1">
<path style=" stroke:none;fill-rule:nonzero;fill:rgb(0%,0%,0%);fill-opacity:1;" d="M 0 99.214844 L 49.605469 99.214844 C 77.003906 99.214844 99.214844 77.003906 99.214844 49.605469 C 99.214844 22.210938 77.003906 0 49.605469 0 L 0 0 L 12.402344 12.402344 L 49.605469 12.402344 C 70.152344 12.402344 86.8125 29.058594 86.8125 49.605469 C 86.8125 70.15625 70.152344 86.8125 49.605469 86.8125 L 12.402344 86.8125 Z M 0 99.214844 "/>
<g clip-path="url(#clip1)" clip-rule="nonzero">
<path style=" stroke:none;fill-rule:nonzero;fill:rgb(0%,0%,0%);fill-opacity:1;" d="M 0 99.214844 L 0 0 L 12.402344 12.402344 L 12.402344 86.8125 Z M 0 99.214844 "/>
</g>
</g>
</svg>
