<?xml version="1.0" encoding="UTF-8"?>
<svg xmlns="http://www.w3.org/2000/svg" xmlns:xlink="http://www.w3.org/1999/xlink" width="100pt" height="100pt" viewBox="0 0 100 100" version="1.1">
<defs>
<clipPath id="clip1">
  <path d="M 0 0.785156 L 13 0.785156 L 13 100 L 0 100 Z M 0 0.785156 "/>
</clipPath>
<clipPath id="clip2">
  <path d="M 12 0.785156 L 100 0.785156 L 100 100 L 12 100 Z M 12 0.785156 "/>
</clipPath>
</defs>
<g id="surface1">
<g clip-path="url(#clip1)" clip-rule="nonzero">
<path style=" stroke:none;fill-rule:nonzero;fill:rgb(0%,0%,0%);fill-opacity:1;" d="M 0 0.785156 L 12.402344 0.785156 L 12.402344 100 L 0 100 Z M 0 0.785156 "/>
</g>
<g clip-path="url(#clip2)" clip-rule="nonzero">
<path style=" stroke:none;fill-rule:nonzero;fill:rgb(0%,0%,0%);fill-opacity:1;" d="M 12.402344 0.785156 L 71.308594 0.785156 C 86.71875 0.785156 99.214844 13.28125 99.214844 28.691406 C 99.214844 37.117188 95.402344 45.097656 88.847656 50.394531 C 100.832031 60.078125 102.699219 77.648438 93.011719 89.632812 C 87.714844 96.1875 79.734375 100 71.308594 100 L 12.402344 100 L 12.402344 87.597656 L 71.308594 87.597656 C 79.871094 87.597656 86.8125 80.660156 86.8125 72.097656 C 86.8125 63.535156 79.871094 56.59375 71.308594 56.59375 L 12.402344 56.59375 L 12.402344 44.191406 L 71.308594 44.191406 C 79.871094 44.191406 86.8125 37.253906 86.8125 28.691406 C 86.8125 20.128906 79.871094 13.1875 71.308594 13.1875 L 12.402344 13.1875 Z M 12.402344 0.785156 "/>
</g>
</g>
</svg>
