<?xml version="1.0" encoding="UTF-8"?>
<svg xmlns="http://www.w3.org/2000/svg" xmlns:xlink="http://www.w3.org/1999/xlink" width="99.213pt" height="99.213pt" viewBox="0 0 99.213 99.213" version="1.1">
<defs>
<clipPath id="clip1">
  <path d="M 0 0 L 13 0 L 13 99.214844 L 0 99.214844 Z M 0 0 "/>
</clipPath>
<clipPath id="clip2">
  <path d="M 12 0 L 99.214844 0 L 99.214844 56 L 12 56 Z M 12 0 "/>
</clipPath>
</defs>
<g id="surface1">
<g clip-path="url(#clip1)" clip-rule="nonzero">
<path style=" stroke:none;fill-rule:nonzero;fill:rgb(0%,0%,0%);fill-opacity:1;" d="M 0 0 L 12.402344 0 L 12.402344 99.214844 L 0 99.214844 Z M 0 0 "/>
</g>
<g clip-path="url(#clip2)" clip-rule="nonzero">
<path style=" stroke:none;fill-rule:nonzero;fill:rgb(0%,0%,0%);fill-opacity:1;" d="M 12.402344 0 L 71.308594 0 C 86.71875 0 99.214844 12.492188 99.214844 27.902344 C 99.214844 43.316406 86.71875 55.808594 71.308594 55.808594 L 12.402344 55.808594 L 12.402344 43.40625 L 71.308594 43.40625 C 79.871094 43.40625 86.8125 36.464844 86.8125 27.902344 C 86.8125 19.34375 79.871094 12.402344 71.308594 12.402344 L 12.402344 12.402344 Z M 12.402344 0 "/>
</g>
</g>
</svg>
