<?xml version="1.0" encoding="UTF-8"?>
<svg xmlns="http://www.w3.org/2000/svg" xmlns:xlink="http://www.w3.org/1999/xlink" width="99.213pt" height="99.213pt" viewBox="0 0 99.213 99.213" version="1.1">
<defs>
<clipPath id="clip1">
  <path d="M 0 0 L 50 0 L 50 99.214844 L 0 99.214844 Z M 0 0 "/>
</clipPath>
<clipPath id="clip2">
  <path d="M 49 0 L 99.214844 0 L 99.214844 99.214844 L 49 99.214844 Z M 49 0 "/>
</clipPath>
</defs>
<g id="surface1">
<g clip-path="url(#clip1)" clip-rule="nonzero">
<path style=" stroke:none;fill-rule:nonzero;fill:rgb(0%,0%,0%);fill-opacity:1;" d="M 49.605469 0 C 22.207031 0 0 22.210938 0 49.605469 C 0 77.003906 22.207031 99.214844 49.605469 99.214844 L 49.605469 86.8125 C 29.058594 86.8125 12.402344 70.15625 12.402344 49.605469 C 12.402344 29.058594 29.058594 12.402344 49.605469 12.402344 Z M 49.605469 0 "/>
</g>
<g clip-path="url(#clip2)" clip-rule="nonzero">
<path style=" stroke:none;fill-rule:nonzero;fill:rgb(0%,0%,0%);fill-opacity:1;" d="M 49.605469 99.214844 C 77.003906 99.214844 99.214844 77.003906 99.214844 49.605469 C 99.214844 22.210938 77.003906 0 49.605469 0 L 49.605469 12.402344 C 70.152344 12.402344 86.8125 29.058594 86.8125 49.605469 C 86.8125 70.15625 70.152344 86.8125 49.605469 86.8125 Z M 49.605469 99.214844 "/>
</g>
</g>
</svg>
