<?xml version="1.0" encoding="UTF-8"?>
<svg xmlns="http://www.w3.org/2000/svg" xmlns:xlink="http://www.w3.org/1999/xlink" width="100pt" height="100pt" viewBox="0 0 100 100" version="1.1">
<defs>
<clipPath id="clip1">
  <path d="M 0 0 L 99.265625 0 L 99.265625 100 L 0 100 Z M 0 0 "/>
</clipPath>
</defs>
<g id="surface1">
<g clip-path="url(#clip1)" clip-rule="nonzero">
<path style=" stroke:none;fill-rule:nonzero;fill:rgb(0%,0%,0%);fill-opacity:1;" d="M 92.621094 25.539062 C 78.921875 1.8125 48.582031 -6.320312 24.855469 7.378906 C 1.128906 21.078125 -7 51.417969 6.699219 75.144531 C 20.398438 98.871094 50.734375 107 74.460938 93.300781 C 89.808594 84.441406 99.265625 68.0625 99.265625 50.339844 L 99.265625 44.140625 L 49.65625 44.140625 L 49.65625 56.542969 L 86.339844 56.542969 C 82.886719 76.796875 63.664062 90.414062 43.410156 86.957031 C 23.15625 83.5 9.539062 64.28125 12.996094 44.023438 C 16.453125 23.769531 35.671875 10.152344 55.925781 13.609375 C 66.835938 15.472656 76.355469 22.097656 81.890625 31.679688 Z M 92.621094 25.539062 "/>
</g>
</g>
</svg>
