<?xml version="1.0" encoding="UTF-8"?>
<svg xmlns="http://www.w3.org/2000/svg" xmlns:xlink="http://www.w3.org/1999/xlink" width="100pt" height="100pt" viewBox="0 0 100 100" version="1.1">
<defs>
<clipPath id="clip1">
  <path d="M 0 0.785156 L 50 0.785156 L 50 100 L 0 100 Z M 0 0.785156 "/>
</clipPath>
<clipPath id="clip2">
  <path d="M 49 0.785156 L 100 0.785156 L 100 100 L 49 100 Z M 49 0.785156 "/>
</clipPath>
</defs>
<g id="surface1">
<g clip-path="url(#clip1)" clip-rule="nonzero">
<path style=" stroke:none;fill-rule:nonzero;fill:rgb(0%,0%,0%);fill-opacity:1;" d="M 49.605469 0.785156 C 22.207031 0.785156 0 22.996094 0 50.394531 C 0 77.792969 22.207031 100 49.605469 100 L 49.605469 87.597656 C 29.058594 87.597656 12.402344 70.941406 12.402344 50.394531 C 12.402344 29.847656 29.058594 13.1875 49.605469 13.1875 Z M 49.605469 0.785156 "/>
</g>
<g clip-path="url(#clip2)" clip-rule="nonzero">
<path style=" stroke:none;fill-rule:nonzero;fill:rgb(0%,0%,0%);fill-opacity:1;" d="M 49.605469 100 C 60.617188 100 71.324219 96.332031 80.023438 89.578125 L 90.441406 100 L 99.214844 100 L 99.214844 91.230469 L 88.792969 80.8125 C 105.589844 59.171875 101.664062 28.011719 80.023438 11.210938 C 71.324219 4.460938 60.621094 0.789062 49.605469 0.789062 L 49.605469 13.1875 C 70.152344 13.1875 86.8125 29.847656 86.8125 50.394531 C 86.8125 70.941406 70.152344 87.597656 49.605469 87.597656 Z M 49.605469 100 "/>
</g>
</g>
</svg>
