<?xml version="1.0" encoding="UTF-8"?>
<svg xmlns="http://www.w3.org/2000/svg" xmlns:xlink="http://www.w3.org/1999/xlink" width="99.213pt" height="99.213pt" viewBox="0 0 99.213 99.213" version="1.1">
<g id="surface1">
<path style=" stroke:none;fill-rule:nonzero;fill:rgb(0%,0%,0%);fill-opacity:1;" d="M 99.214844 27.902344 C 99.214844 12.492188 86.71875 0 71.308594 0 L 27.902344 0 C 12.492188 0 0 12.492188 0 27.902344 C 0 43.316406 12.492188 55.808594 27.902344 55.808594 L 71.308594 55.808594 C 79.871094 55.808594 86.8125 62.75 86.8125 71.308594 C 86.8125 79.871094 79.871094 86.8125 71.308594 86.8125 L 27.902344 86.8125 C 19.339844 86.8125 12.402344 79.871094 12.402344 71.308594 L 0 71.308594 C 0 86.722656 12.492188 99.214844 27.902344 99.214844 L 71.308594 99.214844 C 86.71875 99.214844 99.214844 86.722656 99.214844 71.308594 C 99.214844 55.898438 86.71875 43.40625 71.308594 43.40625 L 27.902344 43.40625 C 19.339844 43.40625 12.402344 36.464844 12.402344 27.902344 C 12.402344 19.34375 19.339844 12.402344 27.902344 12.402344 L 71.308594 12.402344 C 79.871094 12.402344 86.8125 19.34375 86.8125 27.902344 Z M 99.214844 27.902344 "/>
</g>
</svg>
