<?xml version="1.0" encoding="UTF-8"?>
<svg xmlns="http://www.w3.org/2000/svg" xmlns:xlink="http://www.w3.org/1999/xlink" width="93pt" height="100pt" viewBox="0 0 93 100" version="1.1">
<defs>
<clipPath id="clip1">
  <path d="M 0 0 L 92.617188 0 L 92.617188 100 L 0 100 Z M 0 0 "/>
</clipPath>
</defs>
<g id="surface1">
<g clip-path="url(#clip1)" clip-rule="nonzero">
<path style=" stroke:none;fill-rule:nonzero;fill:rgb(0%,0%,0%);fill-opacity:1;" d="M 92.621094 25.539062 C 78.921875 1.8125 48.582031 -6.320312 24.855469 7.378906 C 1.128906 21.078125 -7 51.417969 6.699219 75.144531 C 20.398438 98.871094 50.734375 107 74.460938 93.300781 C 82.003906 88.949219 88.265625 82.683594 92.621094 75.144531 L 81.878906 68.945312 C 71.605469 86.738281 48.851562 92.835938 31.054688 82.5625 C 13.261719 72.289062 7.164062 49.535156 17.4375 31.738281 C 27.710938 13.941406 50.464844 7.847656 68.261719 18.121094 C 73.917969 21.386719 78.617188 26.082031 81.878906 31.738281 Z M 92.621094 25.539062 "/>
</g>
</g>
</svg>
