<?xml version="1.0" encoding="UTF-8"?>
<svg xmlns="http://www.w3.org/2000/svg" xmlns:xlink="http://www.w3.org/1999/xlink" width="507.06pt" height="76.46pt" viewBox="0 0 507.06 76.46" version="1.1">
<defs>
<clipPath id="clip1">
  <path d="M 278 26 L 507.058594 26 L 507.058594 27 L 278 27 Z M 278 26 "/>
</clipPath>
<clipPath id="clip2">
  <path d="M 101 39 L 507.058594 39 L 507.058594 41 L 101 41 Z M 101 39 "/>
</clipPath>
<clipPath id="clip3">
  <path d="M 65 52 L 507.058594 52 L 507.058594 53 L 65 53 Z M 65 52 "/>
</clipPath>
<clipPath id="clip4">
  <path d="M 37 65 L 507.058594 65 L 507.058594 66 L 37 66 Z M 37 65 "/>
</clipPath>
<clipPath id="clip5">
  <path d="M 213 69 L 219 69 L 219 76.460938 L 213 76.460938 Z M 213 69 "/>
</clipPath>
<clipPath id="clip6">
  <path d="M 238 69 L 244 69 L 244 76.460938 L 238 76.460938 Z M 238 69 "/>
</clipPath>
<clipPath id="clip7">
  <path d="M 245 73 L 247 73 L 247 76.460938 L 245 76.460938 Z M 245 73 "/>
</clipPath>
<clipPath id="clip8">
  <path d="M 271 69 L 278 69 L 278 76.460938 L 271 76.460938 Z M 271 69 "/>
</clipPath>
<clipPath id="clip9">
  <path d="M 303 69 L 309 69 L 309 76.460938 L 303 76.460938 Z M 303 69 "/>
</clipPath>
<clipPath id="clip10">
  <path d="M 324 69 L 330 69 L 330 76.460938 L 324 76.460938 Z M 324 69 "/>
</clipPath>
</defs>
<g id="surface1">
<path style=" stroke:none;fill-rule:nonzero;fill:rgb(0%,0%,0%);fill-opacity:1;" d="M 2.992188 69.378906 C 1.710938 69.128906 1.640625 66.714844 1.640625 65.039062 C 1.640625 63.539062 1.726562 61.015625 2.992188 60.699219 L 2.992188 60.429688 C 1.957031 60.609375 1.507812 61.738281 1.320312 62.695312 C 1.171875 63.4375 1.121094 64.214844 1.121094 64.980469 C 1.121094 65.785156 1.164062 66.589844 1.300781 67.382812 C 1.46875 68.324219 1.945312 69.527344 2.992188 69.617188 L 2.992188 69.378906 "/>
<path style=" stroke:none;fill-rule:nonzero;fill:rgb(0%,0%,0%);fill-opacity:1;" d="M 12.582031 65.476562 C 12.214844 65.933594 11.6875 66.714844 11.4375 67.761719 L 11.835938 67.761719 C 12.144531 66.457031 12.980469 65.554688 13.277344 65.277344 C 12.960938 64.980469 12.144531 64.085938 11.835938 62.792969 L 11.4375 62.792969 C 11.6875 63.824219 12.203125 64.613281 12.582031 65.078125 L 4.804688 65.078125 C 4.625 65.078125 4.457031 65.078125 4.457031 65.277344 C 4.457031 65.476562 4.632812 65.476562 4.804688 65.476562 L 12.582031 65.476562 "/>
<path style=" stroke:none;fill-rule:nonzero;fill:rgb(0%,0%,0%);fill-opacity:1;" d="M 20.039062 67.769531 L 20.054688 67.53125 C 20.046875 67.53125 19.621094 67.421875 19.410156 67.363281 C 18.992188 67.253906 19.101562 66.507812 19.09375 66.082031 C 19.082031 65.476562 19.074219 64.859375 19.074219 64.195312 C 19.074219 63.417969 19.015625 62.238281 19.101562 61.652344 C 19.113281 61.53125 19.191406 61.421875 19.320312 61.394531 L 19.988281 61.242188 L 19.988281 61.035156 L 19.929688 60.976562 L 17.445312 60.976562 L 17.375 61.035156 L 17.375 61.253906 C 18.167969 61.433594 18.238281 61.382812 18.257812 61.679688 C 18.289062 62.058594 18.289062 62.433594 18.289062 62.824219 L 18.289062 66.429688 C 18.25 67.253906 18.378906 67.324219 17.40625 67.511719 L 17.40625 67.769531 L 20.039062 67.769531 "/>
<path style=" stroke:none;fill-rule:nonzero;fill:rgb(0%,0%,0%);fill-opacity:1;" d="M 21.355469 60.714844 C 22.160156 61.003906 22.386719 61.9375 22.535156 62.683594 C 22.6875 63.449219 22.726562 64.242188 22.726562 65.019531 C 22.726562 66.152344 22.746094 67.363281 22.386719 68.425781 C 22.1875 69.019531 21.8125 69.28125 21.355469 69.398438 L 21.355469 69.636719 C 23.132812 69.410156 23.242188 66.757812 23.242188 65.058594 C 23.242188 63.398438 23.03125 60.796875 21.355469 60.449219 L 21.355469 60.714844 "/>
<path style=" stroke:none;fill-rule:nonzero;fill:rgb(0%,0%,0%);fill-opacity:1;" d="M 41.890625 56.777344 C 40.609375 56.53125 40.539062 54.117188 40.539062 52.4375 C 40.539062 50.9375 40.628906 48.414062 41.890625 48.097656 L 41.890625 47.828125 C 40.855469 48.007812 40.410156 49.140625 40.222656 50.09375 C 40.070312 50.839844 40.023438 51.613281 40.023438 52.378906 C 40.023438 53.183594 40.0625 53.988281 40.203125 54.78125 C 40.371094 55.726562 40.847656 56.929688 41.890625 57.019531 L 41.890625 56.777344 "/>
<path style=" stroke:none;fill-rule:nonzero;fill:rgb(0%,0%,0%);fill-opacity:1;" d="M 45.589844 48.800781 C 46.503906 48.800781 47.308594 49.101562 47.308594 50.132812 C 47.308594 51.238281 46.375 51.890625 44.996094 51.890625 C 44.957031 51.890625 44.886719 51.863281 44.886719 51.773438 C 44.886719 50.910156 44.90625 49.785156 44.945312 48.910156 C 44.945312 48.863281 44.964844 48.800781 45.035156 48.800781 Z M 44.957031 54.941406 C 44.945312 53.9375 44.886719 52.6875 44.886719 52.4375 C 44.886719 52.25 45.53125 52.269531 45.820312 52.25 C 46.464844 52.199219 47.191406 52.050781 47.628906 51.605469 C 48.046875 51.1875 48.265625 50.640625 48.265625 50.054688 C 48.265625 49 47.597656 48.414062 45.96875 48.414062 L 43.414062 48.414062 L 43.347656 48.484375 L 43.347656 48.664062 C 43.722656 48.714844 44.050781 48.800781 44.082031 49.199219 C 44.109375 49.785156 44.132812 50.371094 44.132812 50.957031 C 44.132812 52.359375 44.082031 53.761719 44.0625 55.152344 L 44.132812 55.21875 L 44.957031 54.941406 "/>
<path style=" stroke:none;fill-rule:nonzero;fill:rgb(0%,0%,0%);fill-opacity:1;" d="M 49.65625 48.117188 C 50.460938 48.40625 50.6875 49.339844 50.835938 50.082031 C 50.984375 50.847656 51.023438 51.644531 51.023438 52.417969 C 51.023438 53.550781 51.046875 54.761719 50.6875 55.824219 C 50.488281 56.421875 50.109375 56.679688 49.65625 56.800781 L 49.65625 57.039062 C 51.433594 56.808594 51.542969 54.15625 51.542969 52.457031 C 51.542969 50.800781 51.332031 48.195312 49.65625 47.847656 L 49.65625 48.117188 "/>
<path style=" stroke:none;fill-rule:nonzero;fill:rgb(0%,0%,0%);fill-opacity:1;" d="M 70.089844 44.179688 C 68.808594 43.929688 68.738281 41.515625 68.738281 39.839844 C 68.738281 38.339844 68.828125 35.816406 70.089844 35.496094 L 70.089844 35.230469 C 69.054688 35.410156 68.609375 36.539062 68.421875 37.496094 C 68.273438 38.238281 68.222656 39.011719 68.222656 39.777344 C 68.222656 40.582031 68.261719 41.386719 68.402344 42.183594 C 68.570312 43.125 69.046875 44.328125 70.089844 44.417969 L 70.089844 44.179688 "/>
<path style=" stroke:none;fill-rule:nonzero;fill:rgb(0%,0%,0%);fill-opacity:1;" d="M 78.507812 35.765625 L 78.46875 35.726562 L 78.082031 35.726562 L 74.726562 41.972656 L 71.476562 35.765625 L 71.058594 35.835938 L 74.644531 42.679688 L 74.796875 42.679688 L 78.507812 35.765625 "/>
<path style=" stroke:none;fill-rule:nonzero;fill:rgb(0%,0%,0%);fill-opacity:1;" d="M 83.230469 39.222656 L 83.289062 38.746094 L 83.230469 38.675781 C 82.703125 38.714844 81.96875 38.746094 81.441406 38.746094 C 81.074219 38.746094 80.785156 38.777344 80.785156 38.605469 L 80.785156 36.957031 C 80.785156 36.609375 80.828125 36.242188 81.023438 36.203125 L 81.421875 36.203125 C 81.492188 36.203125 82.8125 36.261719 83.5 36.300781 L 83.539062 36.230469 L 83.558594 35.734375 C 83.429688 35.726562 83.28125 35.726562 83.101562 35.726562 C 82.394531 35.734375 81.390625 35.785156 80.695312 35.785156 L 79.226562 35.792969 L 79.15625 35.863281 L 79.167969 36.0625 C 79.632812 36.132812 79.863281 36.253906 79.921875 36.382812 C 80.011719 36.582031 80.011719 36.878906 80.011719 37.015625 L 80.011719 41.902344 C 80.011719 42.171875 80.070312 42.449219 80.269531 42.558594 L 84.125 42.558594 L 84.253906 42.035156 L 84.203125 41.984375 C 82.574219 42.121094 82.34375 42.121094 81.878906 42.121094 C 81.273438 42.121094 81.0625 42.0625 80.925781 41.804688 C 80.785156 41.558594 80.777344 41.070312 80.777344 40.691406 L 80.777344 39.3125 C 80.777344 39.132812 81.480469 39.164062 82.058594 39.164062 C 82.445312 39.164062 82.84375 39.191406 83.230469 39.222656 "/>
<path style=" stroke:none;fill-rule:nonzero;fill:rgb(0%,0%,0%);fill-opacity:1;" d="M 85.554688 35.515625 C 86.359375 35.804688 86.585938 36.738281 86.734375 37.484375 C 86.886719 38.25 86.925781 39.042969 86.925781 39.816406 C 86.925781 40.949219 86.945312 42.164062 86.585938 43.226562 C 86.390625 43.820312 86.011719 44.082031 85.554688 44.199219 L 85.554688 44.4375 C 87.332031 44.207031 87.441406 41.558594 87.441406 39.859375 C 87.441406 38.199219 87.234375 35.597656 85.554688 35.25 L 85.554688 35.515625 "/>
<path style=" stroke:none;fill-rule:nonzero;fill:rgb(0%,0%,0%);fill-opacity:1;" d="M 108.378906 37.105469 C 108.316406 36.589844 108.289062 35.625 108.277344 35.167969 L 108.378906 35.089844 C 108.566406 35.140625 108.765625 35.167969 108.964844 35.167969 C 110.503906 35.167969 111.546875 33.558594 111.546875 32.097656 C 111.546875 31.355469 111.199219 30.441406 110.183594 30.441406 C 109.5 30.441406 108.894531 30.75 108.355469 31.175781 L 108.277344 31.136719 C 108.238281 30.699219 108.078125 30.390625 107.632812 30.390625 C 107.195312 30.390625 106.679688 30.75 106.28125 31.066406 L 106.421875 31.253906 C 106.65625 31.117188 106.9375 30.96875 107.144531 30.96875 C 107.445312 30.96875 107.53125 31.484375 107.53125 31.929688 L 107.53125 34.125 C 107.53125 34.691406 107.523438 36.730469 107.472656 37.304688 L 107.570312 37.414062 Z M 108.296875 34.402344 C 108.296875 34.394531 108.277344 33.371094 108.277344 32.558594 C 108.277344 32.449219 108.308594 31.691406 108.308594 31.632812 C 108.773438 31.265625 109.179688 31.058594 109.6875 31.058594 C 110.324219 31.058594 110.710938 31.820312 110.710938 32.6875 C 110.710938 33.628906 110.371094 34.773438 109.171875 34.773438 C 108.84375 34.773438 108.535156 34.621094 108.296875 34.402344 "/>
<path style=" stroke:none;fill-rule:nonzero;fill:rgb(0%,0%,0%);fill-opacity:1;" d="M 122.007812 28.265625 L 121.96875 28.226562 L 121.582031 28.226562 L 118.226562 34.472656 L 114.976562 28.265625 L 114.558594 28.335938 L 118.144531 35.179688 L 118.296875 35.179688 L 122.007812 28.265625 "/>
<path style=" stroke:none;fill-rule:nonzero;fill:rgb(0%,0%,0%);fill-opacity:1;" d="M 130.640625 30.996094 L 124.648438 30.996094 L 124.648438 31.394531 L 130.242188 31.394531 L 130.242188 33.011719 L 130.640625 33.011719 L 130.640625 30.996094 "/>
<path style=" stroke:none;fill-rule:nonzero;fill:rgb(0%,0%,0%);fill-opacity:1;" d="M 133.175781 37.105469 C 133.117188 36.589844 133.089844 35.625 133.078125 35.167969 L 133.175781 35.089844 C 133.367188 35.140625 133.5625 35.167969 133.761719 35.167969 C 135.304688 35.167969 136.34375 33.558594 136.34375 32.097656 C 136.34375 31.355469 135.996094 30.441406 134.984375 30.441406 C 134.300781 30.441406 133.695312 30.75 133.15625 31.175781 L 133.078125 31.136719 C 133.039062 30.699219 132.878906 30.390625 132.429688 30.390625 C 131.996094 30.390625 131.476562 30.75 131.082031 31.066406 L 131.21875 31.253906 C 131.457031 31.117188 131.734375 30.96875 131.945312 30.96875 C 132.242188 30.96875 132.332031 31.484375 132.332031 31.929688 L 132.332031 34.125 C 132.332031 34.691406 132.320312 36.730469 132.273438 37.304688 L 132.371094 37.414062 Z M 133.097656 34.402344 C 133.097656 34.394531 133.078125 33.371094 133.078125 32.558594 C 133.078125 32.449219 133.109375 31.691406 133.109375 31.632812 C 133.574219 31.265625 133.980469 31.058594 134.488281 31.058594 C 135.121094 31.058594 135.511719 31.820312 135.511719 32.6875 C 135.511719 33.628906 135.171875 34.773438 133.972656 34.773438 C 133.644531 34.773438 133.335938 34.621094 133.097656 34.402344 "/>
<path style=" stroke:none;fill-rule:nonzero;fill:rgb(0%,0%,0%);fill-opacity:1;" d="M 145.066406 31.8125 C 145.234375 31.8125 145.414062 31.8125 145.414062 31.613281 C 145.414062 31.414062 145.234375 31.414062 145.066406 31.414062 L 140.84375 31.414062 L 140.84375 28.523438 C 140.84375 28.34375 140.84375 28.167969 140.644531 28.167969 C 140.445312 28.167969 140.445312 28.375 140.445312 28.523438 L 140.445312 34.703125 C 140.445312 34.851562 140.445312 35.058594 140.644531 35.058594 C 140.84375 35.058594 140.84375 34.882812 140.84375 34.703125 L 140.84375 31.8125 L 145.066406 31.8125 "/>
<path style=" stroke:none;fill-rule:nonzero;fill:rgb(0%,0%,0%);fill-opacity:1;" d="M 150.675781 37.105469 C 150.617188 36.589844 150.589844 35.625 150.578125 35.167969 L 150.675781 35.089844 C 150.867188 35.140625 151.0625 35.167969 151.261719 35.167969 C 152.804688 35.167969 153.84375 33.558594 153.84375 32.097656 C 153.84375 31.355469 153.496094 30.441406 152.484375 30.441406 C 151.800781 30.441406 151.195312 30.75 150.65625 31.175781 L 150.578125 31.136719 C 150.539062 30.699219 150.378906 30.390625 149.929688 30.390625 C 149.496094 30.390625 148.976562 30.75 148.582031 31.066406 L 148.71875 31.253906 C 148.957031 31.117188 149.234375 30.96875 149.445312 30.96875 C 149.742188 30.96875 149.832031 31.484375 149.832031 31.929688 L 149.832031 34.125 C 149.832031 34.691406 149.820312 36.730469 149.773438 37.304688 L 149.871094 37.414062 Z M 150.597656 34.402344 C 150.597656 34.394531 150.578125 33.371094 150.578125 32.558594 C 150.578125 32.449219 150.609375 31.691406 150.609375 31.632812 C 151.074219 31.265625 151.480469 31.058594 151.988281 31.058594 C 152.621094 31.058594 153.011719 31.820312 153.011719 32.6875 C 153.011719 33.628906 152.671875 34.773438 151.472656 34.773438 C 151.144531 34.773438 150.835938 34.621094 150.597656 34.402344 "/>
<path style=" stroke:none;fill-rule:nonzero;fill:rgb(0%,0%,0%);fill-opacity:1;" d="M 164.308594 28.265625 L 164.269531 28.226562 L 163.882812 28.226562 L 160.523438 34.472656 L 157.277344 28.265625 L 156.859375 28.335938 L 160.445312 35.179688 L 160.59375 35.179688 L 164.308594 28.265625 "/>
<path style=" stroke:none;fill-rule:nonzero;fill:rgb(0%,0%,0%);fill-opacity:1;" d="M 173.039062 30.996094 L 167.046875 30.996094 L 167.046875 31.394531 L 172.640625 31.394531 L 172.640625 33.011719 L 173.039062 33.011719 L 173.039062 30.996094 "/>
<path style=" stroke:none;fill-rule:nonzero;fill:rgb(0%,0%,0%);fill-opacity:1;" d="M 175.578125 37.105469 C 175.515625 36.589844 175.488281 35.625 175.476562 35.167969 L 175.578125 35.089844 C 175.765625 35.140625 175.964844 35.167969 176.164062 35.167969 C 177.703125 35.167969 178.746094 33.558594 178.746094 32.097656 C 178.746094 31.355469 178.398438 30.441406 177.382812 30.441406 C 176.699219 30.441406 176.09375 30.75 175.554688 31.175781 L 175.476562 31.136719 C 175.4375 30.699219 175.277344 30.390625 174.832031 30.390625 C 174.394531 30.390625 173.878906 30.75 173.480469 31.066406 L 173.621094 31.253906 C 173.859375 31.117188 174.136719 30.96875 174.34375 30.96875 C 174.644531 30.96875 174.734375 31.484375 174.734375 31.929688 L 174.734375 34.125 C 174.734375 34.691406 174.722656 36.730469 174.671875 37.304688 L 174.773438 37.414062 Z M 175.496094 34.402344 C 175.496094 34.394531 175.476562 33.371094 175.476562 32.558594 C 175.476562 32.449219 175.507812 31.691406 175.507812 31.632812 C 175.972656 31.265625 176.382812 31.058594 176.886719 31.058594 C 177.523438 31.058594 177.910156 31.820312 177.910156 32.6875 C 177.910156 33.628906 177.574219 34.773438 176.371094 34.773438 C 176.042969 34.773438 175.734375 34.621094 175.496094 34.402344 "/>
<path style=" stroke:none;fill-rule:nonzero;fill:rgb(0%,0%,0%);fill-opacity:1;" d="M 201.378906 37.105469 C 201.316406 36.589844 201.289062 35.625 201.277344 35.167969 L 201.378906 35.089844 C 201.566406 35.140625 201.765625 35.167969 201.964844 35.167969 C 203.503906 35.167969 204.546875 33.558594 204.546875 32.097656 C 204.546875 31.355469 204.199219 30.441406 203.183594 30.441406 C 202.5 30.441406 201.894531 30.75 201.355469 31.175781 L 201.277344 31.136719 C 201.238281 30.699219 201.078125 30.390625 200.632812 30.390625 C 200.195312 30.390625 199.679688 30.75 199.28125 31.066406 L 199.421875 31.253906 C 199.65625 31.117188 199.9375 30.96875 200.144531 30.96875 C 200.445312 30.96875 200.53125 31.484375 200.53125 31.929688 L 200.53125 34.125 C 200.53125 34.691406 200.523438 36.730469 200.472656 37.304688 L 200.570312 37.414062 Z M 201.296875 34.402344 C 201.296875 34.394531 201.277344 33.371094 201.277344 32.558594 C 201.277344 32.449219 201.308594 31.691406 201.308594 31.632812 C 201.773438 31.265625 202.179688 31.058594 202.6875 31.058594 C 203.324219 31.058594 203.710938 31.820312 203.710938 32.6875 C 203.710938 33.628906 203.371094 34.773438 202.171875 34.773438 C 201.84375 34.773438 201.535156 34.621094 201.296875 34.402344 "/>
<path style=" stroke:none;fill-rule:nonzero;fill:rgb(0%,0%,0%);fill-opacity:1;" d="M 213.164062 31.8125 C 213.335938 31.8125 213.511719 31.8125 213.511719 31.613281 C 213.511719 31.414062 213.335938 31.414062 213.164062 31.414062 L 208.945312 31.414062 L 208.945312 28.523438 C 208.945312 28.34375 208.945312 28.167969 208.746094 28.167969 C 208.546875 28.167969 208.546875 28.375 208.546875 28.523438 L 208.546875 34.703125 C 208.546875 34.851562 208.546875 35.058594 208.746094 35.058594 C 208.945312 35.058594 208.945312 34.882812 208.945312 34.703125 L 208.945312 31.8125 L 213.164062 31.8125 "/>
<path style=" stroke:none;fill-rule:nonzero;fill:rgb(0%,0%,0%);fill-opacity:1;" d="M 218.878906 37.105469 C 218.816406 36.589844 218.789062 35.625 218.777344 35.167969 L 218.878906 35.089844 C 219.066406 35.140625 219.265625 35.167969 219.464844 35.167969 C 221.003906 35.167969 222.046875 33.558594 222.046875 32.097656 C 222.046875 31.355469 221.699219 30.441406 220.683594 30.441406 C 220 30.441406 219.394531 30.75 218.855469 31.175781 L 218.777344 31.136719 C 218.738281 30.699219 218.578125 30.390625 218.132812 30.390625 C 217.695312 30.390625 217.179688 30.75 216.78125 31.066406 L 216.921875 31.253906 C 217.15625 31.117188 217.4375 30.96875 217.644531 30.96875 C 217.945312 30.96875 218.03125 31.484375 218.03125 31.929688 L 218.03125 34.125 C 218.03125 34.691406 218.023438 36.730469 217.972656 37.304688 L 218.070312 37.414062 Z M 218.796875 34.402344 C 218.796875 34.394531 218.777344 33.371094 218.777344 32.558594 C 218.777344 32.449219 218.808594 31.691406 218.808594 31.632812 C 219.273438 31.265625 219.679688 31.058594 220.1875 31.058594 C 220.824219 31.058594 221.210938 31.820312 221.210938 32.6875 C 221.210938 33.628906 220.871094 34.773438 219.671875 34.773438 C 219.34375 34.773438 219.035156 34.621094 218.796875 34.402344 "/>
<path style=" stroke:none;fill-rule:nonzero;fill:rgb(0%,0%,0%);fill-opacity:1;" d="M 242.390625 30.777344 C 241.109375 30.53125 241.039062 28.117188 241.039062 26.4375 C 241.039062 24.9375 241.128906 22.414062 242.390625 22.097656 L 242.390625 21.828125 C 241.355469 22.007812 240.910156 23.140625 240.722656 24.09375 C 240.570312 24.839844 240.523438 25.613281 240.523438 26.378906 C 240.523438 27.183594 240.5625 27.988281 240.703125 28.78125 C 240.871094 29.726562 241.347656 30.929688 242.390625 31.019531 L 242.390625 30.777344 "/>
<path style=" stroke:none;fill-rule:nonzero;fill:rgb(0%,0%,0%);fill-opacity:1;" d="M 251.882812 26.875 C 251.515625 27.332031 250.988281 28.117188 250.738281 29.160156 L 251.136719 29.160156 C 251.445312 27.859375 252.28125 26.957031 252.578125 26.675781 C 252.257812 26.378906 251.445312 25.484375 251.136719 24.191406 L 250.738281 24.191406 C 250.988281 25.226562 251.503906 26.011719 251.882812 26.476562 L 244.105469 26.476562 C 243.925781 26.476562 243.757812 26.476562 243.757812 26.675781 C 243.757812 26.875 243.933594 26.875 244.105469 26.875 L 251.882812 26.875 "/>
<path style=" stroke:none;fill-rule:nonzero;fill:rgb(0%,0%,0%);fill-opacity:1;" d="M 260.53125 25.824219 L 260.589844 25.347656 L 260.53125 25.277344 C 260.003906 25.316406 259.269531 25.347656 258.742188 25.347656 C 258.371094 25.347656 258.085938 25.375 258.085938 25.207031 L 258.085938 23.558594 C 258.085938 23.210938 258.128906 22.84375 258.324219 22.800781 L 258.722656 22.800781 C 258.789062 22.800781 260.113281 22.863281 260.796875 22.902344 L 260.839844 22.832031 L 260.859375 22.335938 C 260.726562 22.324219 260.578125 22.324219 260.398438 22.324219 C 259.695312 22.335938 258.691406 22.386719 257.996094 22.386719 L 256.527344 22.394531 L 256.457031 22.464844 L 256.46875 22.664062 C 256.933594 22.734375 257.164062 22.851562 257.222656 22.980469 C 257.3125 23.179688 257.3125 23.476562 257.3125 23.617188 L 257.3125 28.503906 C 257.3125 28.773438 257.371094 29.050781 257.570312 29.160156 L 261.421875 29.160156 L 261.554688 28.632812 L 261.503906 28.582031 C 259.871094 28.722656 259.644531 28.722656 259.179688 28.722656 C 258.574219 28.722656 258.363281 28.664062 258.226562 28.40625 C 258.085938 28.15625 258.078125 27.667969 258.078125 27.292969 L 258.078125 25.910156 C 258.078125 25.734375 258.78125 25.761719 259.359375 25.761719 C 259.746094 25.761719 260.140625 25.792969 260.53125 25.824219 "/>
<path style=" stroke:none;fill-rule:nonzero;fill:rgb(0%,0%,0%);fill-opacity:1;" d="M 262.855469 22.117188 C 263.660156 22.40625 263.886719 23.339844 264.035156 24.082031 C 264.1875 24.847656 264.226562 25.644531 264.226562 26.417969 C 264.226562 27.550781 264.246094 28.761719 263.886719 29.824219 C 263.6875 30.421875 263.3125 30.679688 262.855469 30.800781 L 262.855469 31.039062 C 264.632812 30.808594 264.742188 28.15625 264.742188 26.457031 C 264.742188 24.800781 264.53125 22.195312 262.855469 21.847656 L 262.855469 22.117188 "/>
<path style=" stroke:none;fill-rule:nonzero;fill:rgb(0%,0%,0%);fill-opacity:1;" d="M 283.289062 17.480469 C 282.007812 17.230469 281.9375 14.816406 281.9375 13.136719 C 281.9375 11.636719 282.027344 9.113281 283.289062 8.796875 L 283.289062 8.527344 C 282.257812 8.707031 281.808594 9.839844 281.621094 10.792969 C 281.472656 11.539062 281.421875 12.3125 281.421875 13.078125 C 281.421875 13.882812 281.464844 14.6875 281.601562 15.480469 C 281.769531 16.425781 282.246094 17.628906 283.289062 17.71875 L 283.289062 17.480469 "/>
<path style=" stroke:none;fill-rule:nonzero;fill:rgb(0%,0%,0%);fill-opacity:1;" d="M 292.882812 13.574219 C 292.515625 14.03125 291.988281 14.816406 291.738281 15.859375 L 292.136719 15.859375 C 292.445312 14.558594 293.28125 13.65625 293.578125 13.378906 C 293.257812 13.078125 292.445312 12.183594 292.136719 10.894531 L 291.738281 10.894531 C 291.988281 11.925781 292.503906 12.710938 292.882812 13.175781 L 285.105469 13.175781 C 284.925781 13.175781 284.757812 13.175781 284.757812 13.378906 C 284.757812 13.574219 284.933594 13.574219 285.105469 13.574219 L 292.882812 13.574219 "/>
<path style=" stroke:none;fill-rule:nonzero;fill:rgb(0%,0%,0%);fill-opacity:1;" d="M 301.429688 12.523438 L 301.488281 12.046875 L 301.429688 11.976562 C 300.902344 12.015625 300.167969 12.046875 299.640625 12.046875 C 299.273438 12.046875 298.984375 12.074219 298.984375 11.90625 L 298.984375 10.257812 C 298.984375 9.910156 299.027344 9.542969 299.226562 9.503906 L 299.621094 9.503906 C 299.691406 9.503906 301.011719 9.5625 301.699219 9.601562 L 301.738281 9.53125 L 301.757812 9.035156 C 301.628906 9.027344 301.480469 9.027344 301.300781 9.027344 C 300.59375 9.035156 299.59375 9.085938 298.898438 9.085938 L 297.425781 9.09375 L 297.355469 9.164062 L 297.367188 9.363281 C 297.835938 9.433594 298.0625 9.550781 298.121094 9.683594 C 298.210938 9.878906 298.210938 10.175781 298.210938 10.316406 L 298.210938 15.203125 C 298.210938 15.472656 298.269531 15.75 298.46875 15.859375 L 302.324219 15.859375 L 302.453125 15.332031 L 302.402344 15.285156 C 300.773438 15.421875 300.546875 15.421875 300.078125 15.421875 C 299.472656 15.421875 299.265625 15.363281 299.125 15.105469 C 298.984375 14.855469 298.976562 14.371094 298.976562 13.992188 L 298.976562 12.613281 C 298.976562 12.433594 299.679688 12.464844 300.257812 12.464844 C 300.644531 12.464844 301.042969 12.492188 301.429688 12.523438 "/>
<path style=" stroke:none;fill-rule:nonzero;fill:rgb(0%,0%,0%);fill-opacity:1;" d="M 303.855469 8.816406 C 304.660156 9.105469 304.886719 10.039062 305.035156 10.785156 C 305.1875 11.550781 305.226562 12.34375 305.226562 13.117188 C 305.226562 14.25 305.246094 15.464844 304.886719 16.527344 C 304.6875 17.121094 304.3125 17.378906 303.855469 17.5 L 303.855469 17.738281 C 305.632812 17.507812 305.742188 14.855469 305.742188 13.160156 C 305.742188 11.5 305.53125 8.894531 303.855469 8.550781 L 303.855469 8.816406 "/>
<path style=" stroke:none;fill-rule:nonzero;fill:rgb(0%,0%,0%);fill-opacity:1;" d="M 325.9375 4.296875 L 319.949219 4.296875 L 319.949219 4.695312 L 325.539062 4.695312 L 325.539062 6.3125 L 325.9375 6.3125 L 325.9375 4.296875 "/>
<path style=" stroke:none;fill-rule:nonzero;fill:rgb(0%,0%,0%);fill-opacity:1;" d="M 328.476562 10.40625 C 328.417969 9.890625 328.386719 8.925781 328.378906 8.46875 L 328.476562 8.390625 C 328.664062 8.441406 328.863281 8.46875 329.0625 8.46875 C 330.601562 8.46875 331.644531 6.859375 331.644531 5.398438 C 331.644531 4.65625 331.296875 3.742188 330.285156 3.742188 C 329.601562 3.742188 328.992188 4.050781 328.457031 4.476562 L 328.378906 4.4375 C 328.339844 4 328.179688 3.691406 327.730469 3.691406 C 327.296875 3.691406 326.777344 4.050781 326.382812 4.367188 L 326.519531 4.554688 C 326.757812 4.417969 327.035156 4.269531 327.246094 4.269531 C 327.542969 4.269531 327.632812 4.785156 327.632812 5.230469 L 327.632812 7.425781 C 327.632812 7.992188 327.621094 10.027344 327.574219 10.605469 L 327.671875 10.714844 Z M 328.398438 7.703125 C 328.398438 7.695312 328.378906 6.671875 328.378906 5.855469 C 328.378906 5.746094 328.40625 4.992188 328.40625 4.933594 C 328.871094 4.566406 329.28125 4.355469 329.789062 4.355469 C 330.421875 4.355469 330.8125 5.121094 330.8125 5.988281 C 330.8125 6.929688 330.472656 8.074219 329.273438 8.074219 C 328.945312 8.074219 328.636719 7.921875 328.398438 7.703125 "/>
<path style=" stroke:none;fill-rule:nonzero;fill:rgb(0%,0%,0%);fill-opacity:1;" d="M 340.265625 5.113281 C 340.433594 5.113281 340.613281 5.113281 340.613281 4.914062 C 340.613281 4.714844 340.433594 4.714844 340.265625 4.714844 L 336.042969 4.714844 L 336.042969 1.824219 C 336.042969 1.644531 336.042969 1.464844 335.84375 1.464844 C 335.648438 1.464844 335.648438 1.675781 335.648438 1.824219 L 335.648438 8.003906 C 335.648438 8.152344 335.648438 8.359375 335.84375 8.359375 C 336.042969 8.359375 336.042969 8.183594 336.042969 8.003906 L 336.042969 5.113281 L 340.265625 5.113281 "/>
<path style=" stroke:none;fill-rule:nonzero;fill:rgb(0%,0%,0%);fill-opacity:1;" d="M 350.238281 4.296875 L 344.246094 4.296875 L 344.246094 4.695312 L 349.839844 4.695312 L 349.839844 6.3125 L 350.238281 6.3125 L 350.238281 4.296875 "/>
<path style=" stroke:none;fill-rule:nonzero;fill:rgb(0%,0%,0%);fill-opacity:1;" d="M 352.777344 10.40625 C 352.71875 9.890625 352.6875 8.925781 352.679688 8.46875 L 352.777344 8.390625 C 352.964844 8.441406 353.164062 8.46875 353.363281 8.46875 C 354.902344 8.46875 355.945312 6.859375 355.945312 5.398438 C 355.945312 4.65625 355.597656 3.742188 354.585938 3.742188 C 353.898438 3.742188 353.292969 4.050781 352.757812 4.476562 L 352.679688 4.4375 C 352.636719 4 352.476562 3.691406 352.03125 3.691406 C 351.59375 3.691406 351.078125 4.050781 350.679688 4.367188 L 350.820312 4.554688 C 351.058594 4.417969 351.335938 4.269531 351.546875 4.269531 C 351.84375 4.269531 351.933594 4.785156 351.933594 5.230469 L 351.933594 7.425781 C 351.933594 7.992188 351.921875 10.027344 351.871094 10.605469 L 351.972656 10.714844 Z M 352.695312 7.703125 C 352.695312 7.695312 352.679688 6.671875 352.679688 5.855469 C 352.679688 5.746094 352.707031 4.992188 352.707031 4.933594 C 353.171875 4.566406 353.582031 4.355469 354.089844 4.355469 C 354.722656 4.355469 355.109375 5.121094 355.109375 5.988281 C 355.109375 6.929688 354.773438 8.074219 353.570312 8.074219 C 353.242188 8.074219 352.9375 7.921875 352.695312 7.703125 "/>
<path style=" stroke:none;fill-rule:nonzero;fill:rgb(0%,0%,0%);fill-opacity:1;" d="M 372.839844 4.296875 L 366.847656 4.296875 L 366.847656 4.695312 L 372.441406 4.695312 L 372.441406 6.3125 L 372.839844 6.3125 L 372.839844 4.296875 "/>
<path style=" stroke:none;fill-rule:nonzero;fill:rgb(0%,0%,0%);fill-opacity:1;" d="M 379.640625 4.296875 L 373.648438 4.296875 L 373.648438 4.695312 L 379.242188 4.695312 L 379.242188 6.3125 L 379.640625 6.3125 L 379.640625 4.296875 "/>
<path style=" stroke:none;fill-rule:nonzero;fill:rgb(0%,0%,0%);fill-opacity:1;" d="M 382.277344 10.40625 C 382.21875 9.890625 382.1875 8.925781 382.179688 8.46875 L 382.277344 8.390625 C 382.464844 8.441406 382.664062 8.46875 382.863281 8.46875 C 384.402344 8.46875 385.445312 6.859375 385.445312 5.398438 C 385.445312 4.65625 385.097656 3.742188 384.085938 3.742188 C 383.398438 3.742188 382.792969 4.050781 382.257812 4.476562 L 382.179688 4.4375 C 382.136719 4 381.976562 3.691406 381.53125 3.691406 C 381.09375 3.691406 380.578125 4.050781 380.179688 4.367188 L 380.320312 4.554688 C 380.558594 4.417969 380.835938 4.269531 381.046875 4.269531 C 381.34375 4.269531 381.433594 4.785156 381.433594 5.230469 L 381.433594 7.425781 C 381.433594 7.992188 381.421875 10.027344 381.371094 10.605469 L 381.472656 10.714844 Z M 382.195312 7.703125 C 382.195312 7.695312 382.179688 6.671875 382.179688 5.855469 C 382.179688 5.746094 382.207031 4.992188 382.207031 4.933594 C 382.671875 4.566406 383.082031 4.355469 383.589844 4.355469 C 384.222656 4.355469 384.609375 5.121094 384.609375 5.988281 C 384.609375 6.929688 384.273438 8.074219 383.070312 8.074219 C 382.742188 8.074219 382.4375 7.921875 382.195312 7.703125 "/>
<path style=" stroke:none;fill-rule:nonzero;fill:rgb(0%,0%,0%);fill-opacity:1;" d="M 394.066406 5.113281 C 394.234375 5.113281 394.414062 5.113281 394.414062 4.914062 C 394.414062 4.714844 394.234375 4.714844 394.066406 4.714844 L 389.84375 4.714844 L 389.84375 1.824219 C 389.84375 1.644531 389.84375 1.464844 389.644531 1.464844 C 389.445312 1.464844 389.445312 1.675781 389.445312 1.824219 L 389.445312 8.003906 C 389.445312 8.152344 389.445312 8.359375 389.644531 8.359375 C 389.84375 8.359375 389.84375 8.183594 389.84375 8.003906 L 389.84375 5.113281 L 394.066406 5.113281 "/>
<path style=" stroke:none;fill-rule:nonzero;fill:rgb(0%,0%,0%);fill-opacity:1;" d="M 404.039062 4.296875 L 398.046875 4.296875 L 398.046875 4.695312 L 403.640625 4.695312 L 403.640625 6.3125 L 404.039062 6.3125 L 404.039062 4.296875 "/>
<path style=" stroke:none;fill-rule:nonzero;fill:rgb(0%,0%,0%);fill-opacity:1;" d="M 410.839844 4.296875 L 404.847656 4.296875 L 404.847656 4.695312 L 410.441406 4.695312 L 410.441406 6.3125 L 410.839844 6.3125 L 410.839844 4.296875 "/>
<path style=" stroke:none;fill-rule:nonzero;fill:rgb(0%,0%,0%);fill-opacity:1;" d="M 413.378906 10.40625 C 413.316406 9.890625 413.289062 8.925781 413.277344 8.46875 L 413.378906 8.390625 C 413.566406 8.441406 413.765625 8.46875 413.964844 8.46875 C 415.503906 8.46875 416.546875 6.859375 416.546875 5.398438 C 416.546875 4.65625 416.199219 3.742188 415.183594 3.742188 C 414.5 3.742188 413.894531 4.050781 413.355469 4.476562 L 413.277344 4.4375 C 413.238281 4 413.078125 3.691406 412.632812 3.691406 C 412.195312 3.691406 411.679688 4.050781 411.28125 4.367188 L 411.421875 4.554688 C 411.65625 4.417969 411.9375 4.269531 412.144531 4.269531 C 412.445312 4.269531 412.53125 4.785156 412.53125 5.230469 L 412.53125 7.425781 C 412.53125 7.992188 412.523438 10.027344 412.472656 10.605469 L 412.570312 10.714844 Z M 413.296875 7.703125 C 413.296875 7.695312 413.277344 6.671875 413.277344 5.855469 C 413.277344 5.746094 413.308594 4.992188 413.308594 4.933594 C 413.773438 4.566406 414.179688 4.355469 414.6875 4.355469 C 415.324219 4.355469 415.710938 5.121094 415.710938 5.988281 C 415.710938 6.929688 415.371094 8.074219 414.171875 8.074219 C 413.84375 8.074219 413.535156 7.921875 413.296875 7.703125 "/>
<path style="fill:none;stroke-width:3.98;stroke-linecap:butt;stroke-linejoin:miter;stroke:rgb(0%,0%,0%);stroke-opacity:1;stroke-miterlimit:10;" d="M 3196.601562 631.123438 L 4172.734375 631.123438 " transform="matrix(0.1,0,0,-0.1,0,76.46)"/>
<path style=" stroke:none;fill-rule:nonzero;fill:rgb(0%,0%,0%);fill-opacity:1;" d="M 346.738281 18.597656 L 340.746094 18.597656 L 340.746094 18.996094 L 346.339844 18.996094 L 346.339844 20.613281 L 346.738281 20.613281 L 346.738281 18.597656 "/>
<path style=" stroke:none;fill-rule:nonzero;fill:rgb(0%,0%,0%);fill-opacity:1;" d="M 349.277344 24.707031 C 349.21875 24.191406 349.1875 23.226562 349.179688 22.769531 L 349.277344 22.691406 C 349.464844 22.738281 349.664062 22.769531 349.863281 22.769531 C 351.402344 22.769531 352.445312 21.160156 352.445312 19.699219 C 352.445312 18.957031 352.097656 18.042969 351.085938 18.042969 C 350.398438 18.042969 349.792969 18.347656 349.257812 18.777344 L 349.179688 18.738281 C 349.136719 18.300781 348.976562 17.992188 348.53125 17.992188 C 348.09375 17.992188 347.578125 18.347656 347.179688 18.667969 L 347.320312 18.855469 C 347.558594 18.714844 347.835938 18.566406 348.046875 18.566406 C 348.34375 18.566406 348.433594 19.082031 348.433594 19.53125 L 348.433594 21.726562 C 348.433594 22.292969 348.421875 24.328125 348.371094 24.90625 L 348.472656 25.015625 Z M 349.195312 22.003906 C 349.195312 21.996094 349.179688 20.972656 349.179688 20.15625 C 349.179688 20.046875 349.207031 19.292969 349.207031 19.234375 C 349.671875 18.863281 350.082031 18.65625 350.589844 18.65625 C 351.222656 18.65625 351.609375 19.421875 351.609375 20.285156 C 351.609375 21.230469 351.273438 22.371094 350.070312 22.371094 C 349.742188 22.371094 349.4375 22.222656 349.195312 22.003906 "/>
<path style=" stroke:none;fill-rule:nonzero;fill:rgb(0%,0%,0%);fill-opacity:1;" d="M 354.292969 24.746094 C 354.996094 23.933594 355.328125 23.425781 355.328125 22.929688 C 355.328125 22.582031 354.976562 21.289062 354.453125 21.289062 C 354.203125 21.289062 353.867188 21.507812 353.867188 21.765625 C 353.867188 21.863281 353.894531 21.972656 353.933594 22.023438 L 354.628906 22.847656 C 354.71875 22.957031 354.757812 23.128906 354.757812 23.265625 C 354.757812 23.664062 354.453125 24.152344 354.105469 24.605469 L 354.292969 24.746094 "/>
<path style=" stroke:none;fill-rule:nonzero;fill:rgb(0%,0%,0%);fill-opacity:1;" d="M 363.839844 18.597656 L 357.847656 18.597656 L 357.847656 18.996094 L 363.441406 18.996094 L 363.441406 20.613281 L 363.839844 20.613281 L 363.839844 18.597656 "/>
<path style=" stroke:none;fill-rule:nonzero;fill:rgb(0%,0%,0%);fill-opacity:1;" d="M 370.640625 18.597656 L 364.648438 18.597656 L 364.648438 18.996094 L 370.242188 18.996094 L 370.242188 20.613281 L 370.640625 20.613281 L 370.640625 18.597656 "/>
<path style=" stroke:none;fill-rule:nonzero;fill:rgb(0%,0%,0%);fill-opacity:1;" d="M 373.175781 24.707031 C 373.117188 24.191406 373.089844 23.226562 373.078125 22.769531 L 373.175781 22.691406 C 373.367188 22.738281 373.5625 22.769531 373.761719 22.769531 C 375.304688 22.769531 376.34375 21.160156 376.34375 19.699219 C 376.34375 18.957031 375.996094 18.042969 374.984375 18.042969 C 374.300781 18.042969 373.695312 18.347656 373.15625 18.777344 L 373.078125 18.738281 C 373.039062 18.300781 372.878906 17.992188 372.429688 17.992188 C 371.996094 17.992188 371.476562 18.347656 371.082031 18.667969 L 371.21875 18.855469 C 371.457031 18.714844 371.734375 18.566406 371.945312 18.566406 C 372.242188 18.566406 372.332031 19.082031 372.332031 19.53125 L 372.332031 21.726562 C 372.332031 22.292969 372.320312 24.328125 372.273438 24.90625 L 372.371094 25.015625 Z M 373.097656 22.003906 C 373.097656 21.996094 373.078125 20.972656 373.078125 20.15625 C 373.078125 20.046875 373.109375 19.292969 373.109375 19.234375 C 373.574219 18.863281 373.980469 18.65625 374.488281 18.65625 C 375.121094 18.65625 375.511719 19.421875 375.511719 20.285156 C 375.511719 21.230469 375.171875 22.371094 373.972656 22.371094 C 373.644531 22.371094 373.335938 22.222656 373.097656 22.003906 "/>
<path style=" stroke:none;fill-rule:nonzero;fill:rgb(0%,0%,0%);fill-opacity:1;" d="M 385.066406 19.410156 C 385.234375 19.410156 385.414062 19.410156 385.414062 19.214844 C 385.414062 19.015625 385.234375 19.015625 385.066406 19.015625 L 380.84375 19.015625 L 380.84375 16.125 C 380.84375 15.945312 380.84375 15.765625 380.644531 15.765625 C 380.445312 15.765625 380.445312 15.972656 380.445312 16.125 L 380.445312 22.300781 C 380.445312 22.449219 380.445312 22.660156 380.644531 22.660156 C 380.84375 22.660156 380.84375 22.480469 380.84375 22.300781 L 380.84375 19.410156 L 385.066406 19.410156 "/>
<path style=" stroke:none;fill-rule:nonzero;fill:rgb(0%,0%,0%);fill-opacity:1;" d="M 392.761719 16.382812 C 392.761719 16.203125 392.761719 16.023438 392.5625 16.023438 C 392.367188 16.023438 392.367188 16.234375 392.367188 16.382812 L 392.367188 22.261719 L 389.605469 22.261719 C 389.453125 22.261719 389.246094 22.261719 389.246094 22.460938 C 389.246094 22.660156 389.453125 22.660156 389.605469 22.660156 L 395.535156 22.660156 C 395.703125 22.660156 395.882812 22.660156 395.882812 22.460938 C 395.882812 22.261719 395.703125 22.261719 395.535156 22.261719 L 392.761719 22.261719 L 392.761719 16.382812 "/>
<path style=" stroke:none;fill-rule:nonzero;fill:rgb(0%,0%,0%);fill-opacity:1;" d="M 436.261719 15.480469 C 436.261719 15.304688 436.261719 15.125 436.0625 15.125 C 435.867188 15.125 435.867188 15.332031 435.867188 15.480469 L 435.867188 21.363281 L 433.105469 21.363281 C 432.953125 21.363281 432.746094 21.363281 432.746094 21.5625 C 432.746094 21.761719 432.953125 21.761719 433.105469 21.761719 L 439.035156 21.761719 C 439.203125 21.761719 439.382812 21.761719 439.382812 21.5625 C 439.382812 21.363281 439.203125 21.363281 439.035156 21.363281 L 436.261719 21.363281 L 436.261719 15.480469 "/>
<path style=" stroke:none;fill-rule:nonzero;fill:rgb(0%,0%,0%);fill-opacity:1;" d="M 451.382812 19.476562 C 451.015625 19.933594 450.488281 20.714844 450.238281 21.761719 L 450.636719 21.761719 C 450.945312 20.457031 451.78125 19.554688 452.078125 19.277344 C 451.757812 18.980469 450.945312 18.085938 450.636719 16.792969 L 450.238281 16.792969 C 450.488281 17.824219 451.003906 18.613281 451.382812 19.078125 L 443.605469 19.078125 C 443.425781 19.078125 443.257812 19.078125 443.257812 19.277344 C 443.257812 19.476562 443.433594 19.476562 443.605469 19.476562 L 451.382812 19.476562 "/>
<path style=" stroke:none;fill-rule:nonzero;fill:rgb(0%,0%,0%);fill-opacity:1;" d="M 457.476562 23.808594 C 457.417969 23.289062 457.386719 22.324219 457.378906 21.871094 L 457.476562 21.789062 C 457.664062 21.839844 457.863281 21.871094 458.0625 21.871094 C 459.601562 21.871094 460.644531 20.261719 460.644531 18.800781 C 460.644531 18.054688 460.296875 17.140625 459.285156 17.140625 C 458.601562 17.140625 457.992188 17.449219 457.457031 17.875 L 457.378906 17.835938 C 457.339844 17.398438 457.179688 17.089844 456.730469 17.089844 C 456.296875 17.089844 455.777344 17.449219 455.382812 17.765625 L 455.519531 17.957031 C 455.757812 17.816406 456.035156 17.667969 456.246094 17.667969 C 456.542969 17.667969 456.632812 18.183594 456.632812 18.628906 L 456.632812 20.824219 C 456.632812 21.394531 456.621094 23.429688 456.574219 24.003906 L 456.671875 24.113281 Z M 457.398438 21.105469 C 457.398438 21.09375 457.378906 20.070312 457.378906 19.257812 C 457.378906 19.148438 457.40625 18.394531 457.40625 18.332031 C 457.871094 17.964844 458.28125 17.757812 458.789062 17.757812 C 459.421875 17.757812 459.8125 18.519531 459.8125 19.386719 C 459.8125 20.332031 459.472656 21.472656 458.273438 21.472656 C 457.945312 21.472656 457.636719 21.324219 457.398438 21.105469 "/>
<path style=" stroke:none;fill-rule:nonzero;fill:rgb(0%,0%,0%);fill-opacity:1;" d="M 469.265625 18.511719 C 469.433594 18.511719 469.613281 18.511719 469.613281 18.3125 C 469.613281 18.113281 469.433594 18.113281 469.265625 18.113281 L 465.042969 18.113281 L 465.042969 15.222656 C 465.042969 15.042969 465.042969 14.867188 464.84375 14.867188 C 464.648438 14.867188 464.648438 15.074219 464.648438 15.222656 L 464.648438 21.402344 C 464.648438 21.550781 464.648438 21.761719 464.84375 21.761719 C 465.042969 21.761719 465.042969 21.582031 465.042969 21.402344 L 465.042969 18.511719 L 469.265625 18.511719 "/>
<path style=" stroke:none;fill-rule:nonzero;fill:rgb(0%,0%,0%);fill-opacity:1;" d="M 477.0625 15.480469 C 477.0625 15.304688 477.0625 15.125 476.863281 15.125 C 476.664062 15.125 476.664062 15.332031 476.664062 15.480469 L 476.664062 21.363281 L 473.90625 21.363281 C 473.753906 21.363281 473.546875 21.363281 473.546875 21.5625 C 473.546875 21.761719 473.753906 21.761719 473.90625 21.761719 L 479.835938 21.761719 C 480.003906 21.761719 480.183594 21.761719 480.183594 21.5625 C 480.183594 21.363281 480.003906 21.363281 479.835938 21.363281 L 477.0625 21.363281 L 477.0625 15.480469 "/>
<path style=" stroke:none;fill-rule:nonzero;fill:rgb(0%,0%,0%);fill-opacity:1;" d="M 492.183594 19.476562 C 491.8125 19.933594 491.289062 20.714844 491.039062 21.761719 L 491.4375 21.761719 C 491.746094 20.457031 492.578125 19.554688 492.878906 19.277344 C 492.558594 18.980469 491.746094 18.085938 491.4375 16.792969 L 491.039062 16.792969 C 491.289062 17.824219 491.804688 18.613281 492.183594 19.078125 L 484.40625 19.078125 C 484.226562 19.078125 484.054688 19.078125 484.054688 19.277344 C 484.054688 19.476562 484.234375 19.476562 484.40625 19.476562 L 492.183594 19.476562 "/>
<path style=" stroke:none;fill-rule:nonzero;fill:rgb(0%,0%,0%);fill-opacity:1;" d="M 498.175781 23.808594 C 498.117188 23.289062 498.089844 22.324219 498.078125 21.871094 L 498.175781 21.789062 C 498.367188 21.839844 498.5625 21.871094 498.761719 21.871094 C 500.304688 21.871094 501.34375 20.261719 501.34375 18.800781 C 501.34375 18.054688 500.996094 17.140625 499.984375 17.140625 C 499.300781 17.140625 498.695312 17.449219 498.15625 17.875 L 498.078125 17.835938 C 498.039062 17.398438 497.878906 17.089844 497.429688 17.089844 C 496.996094 17.089844 496.476562 17.449219 496.082031 17.765625 L 496.21875 17.957031 C 496.457031 17.816406 496.734375 17.667969 496.945312 17.667969 C 497.242188 17.667969 497.332031 18.183594 497.332031 18.628906 L 497.332031 20.824219 C 497.332031 21.394531 497.320312 23.429688 497.273438 24.003906 L 497.371094 24.113281 Z M 498.097656 21.105469 C 498.097656 21.09375 498.078125 20.070312 498.078125 19.257812 C 498.078125 19.148438 498.109375 18.394531 498.109375 18.332031 C 498.574219 17.964844 498.980469 17.757812 499.488281 17.757812 C 500.121094 17.757812 500.511719 18.519531 500.511719 19.386719 C 500.511719 20.332031 500.171875 21.472656 498.972656 21.472656 C 498.644531 21.472656 498.335938 21.324219 498.097656 21.105469 "/>
<g clip-path="url(#clip1)" clip-rule="nonzero">
<path style="fill:none;stroke-width:3.98;stroke-linecap:butt;stroke-linejoin:miter;stroke:rgb(0%,0%,0%);stroke-opacity:1;stroke-miterlimit:10;" d="M 2786.796875 497.646875 L 5070.625 497.646875 " transform="matrix(0.1,0,0,-0.1,0,76.46)"/>
</g>
<path style=" stroke:none;fill-rule:nonzero;fill:rgb(0%,0%,0%);fill-opacity:1;" d="M 355.238281 31.996094 L 349.246094 31.996094 L 349.246094 32.394531 L 354.839844 32.394531 L 354.839844 34.011719 L 355.238281 34.011719 L 355.238281 31.996094 "/>
<path style=" stroke:none;fill-rule:nonzero;fill:rgb(0%,0%,0%);fill-opacity:1;" d="M 357.878906 38.105469 C 357.816406 37.589844 357.789062 36.625 357.777344 36.167969 L 357.878906 36.089844 C 358.066406 36.140625 358.265625 36.167969 358.464844 36.167969 C 360.003906 36.167969 361.046875 34.558594 361.046875 33.097656 C 361.046875 32.355469 360.699219 31.441406 359.683594 31.441406 C 359 31.441406 358.394531 31.75 357.855469 32.175781 L 357.777344 32.136719 C 357.738281 31.699219 357.578125 31.390625 357.132812 31.390625 C 356.695312 31.390625 356.179688 31.75 355.78125 32.066406 L 355.921875 32.253906 C 356.15625 32.117188 356.4375 31.96875 356.644531 31.96875 C 356.945312 31.96875 357.03125 32.484375 357.03125 32.929688 L 357.03125 35.125 C 357.03125 35.691406 357.023438 37.730469 356.972656 38.304688 L 357.070312 38.414062 Z M 357.796875 35.402344 C 357.796875 35.394531 357.777344 34.371094 357.777344 33.558594 C 357.777344 33.449219 357.808594 32.691406 357.808594 32.632812 C 358.273438 32.265625 358.679688 32.058594 359.1875 32.058594 C 359.824219 32.058594 360.210938 32.820312 360.210938 33.6875 C 360.210938 34.628906 359.871094 35.773438 358.671875 35.773438 C 358.34375 35.773438 358.035156 35.621094 357.796875 35.402344 "/>
<path style=" stroke:none;fill-rule:nonzero;fill:rgb(0%,0%,0%);fill-opacity:1;" d="M 362.792969 38.144531 C 363.496094 37.332031 363.828125 36.824219 363.828125 36.328125 C 363.828125 35.980469 363.476562 34.691406 362.953125 34.691406 C 362.703125 34.691406 362.367188 34.910156 362.367188 35.167969 C 362.367188 35.265625 362.394531 35.375 362.433594 35.425781 L 363.128906 36.25 C 363.21875 36.359375 363.257812 36.527344 363.257812 36.667969 C 363.257812 37.0625 362.953125 37.550781 362.605469 38.007812 L 362.792969 38.144531 "/>
<path style=" stroke:none;fill-rule:nonzero;fill:rgb(0%,0%,0%);fill-opacity:1;" d="M 372.4375 31.996094 L 366.449219 31.996094 L 366.449219 32.394531 L 372.039062 32.394531 L 372.039062 34.011719 L 372.4375 34.011719 L 372.4375 31.996094 "/>
<path style=" stroke:none;fill-rule:nonzero;fill:rgb(0%,0%,0%);fill-opacity:1;" d="M 379.238281 31.996094 L 373.246094 31.996094 L 373.246094 32.394531 L 378.839844 32.394531 L 378.839844 34.011719 L 379.238281 34.011719 L 379.238281 31.996094 "/>
<path style=" stroke:none;fill-rule:nonzero;fill:rgb(0%,0%,0%);fill-opacity:1;" d="M 381.777344 38.105469 C 381.71875 37.589844 381.6875 36.625 381.679688 36.167969 L 381.777344 36.089844 C 381.964844 36.140625 382.164062 36.167969 382.363281 36.167969 C 383.902344 36.167969 384.945312 34.558594 384.945312 33.097656 C 384.945312 32.355469 384.597656 31.441406 383.585938 31.441406 C 382.898438 31.441406 382.292969 31.75 381.757812 32.175781 L 381.679688 32.136719 C 381.636719 31.699219 381.476562 31.390625 381.03125 31.390625 C 380.59375 31.390625 380.078125 31.75 379.679688 32.066406 L 379.820312 32.253906 C 380.058594 32.117188 380.335938 31.96875 380.546875 31.96875 C 380.84375 31.96875 380.933594 32.484375 380.933594 32.929688 L 380.933594 35.125 C 380.933594 35.691406 380.921875 37.730469 380.871094 38.304688 L 380.972656 38.414062 Z M 381.695312 35.402344 C 381.695312 35.394531 381.679688 34.371094 381.679688 33.558594 C 381.679688 33.449219 381.707031 32.691406 381.707031 32.632812 C 382.171875 32.265625 382.582031 32.058594 383.089844 32.058594 C 383.722656 32.058594 384.109375 32.820312 384.109375 33.6875 C 384.109375 34.628906 383.773438 35.773438 382.570312 35.773438 C 382.242188 35.773438 381.9375 35.621094 381.695312 35.402344 "/>
<path style=" stroke:none;fill-rule:nonzero;fill:rgb(0%,0%,0%);fill-opacity:1;" d="M 386.792969 38.144531 C 387.496094 37.332031 387.828125 36.824219 387.828125 36.328125 C 387.828125 35.980469 387.476562 34.691406 386.953125 34.691406 C 386.703125 34.691406 386.367188 34.910156 386.367188 35.167969 C 386.367188 35.265625 386.394531 35.375 386.433594 35.425781 L 387.128906 36.25 C 387.21875 36.359375 387.257812 36.527344 387.257812 36.667969 C 387.257812 37.0625 386.953125 37.550781 386.605469 38.007812 L 386.792969 38.144531 "/>
<path style=" stroke:none;fill-rule:nonzero;fill:rgb(0%,0%,0%);fill-opacity:1;" d="M 394.164062 29.78125 C 394.164062 29.605469 394.164062 29.425781 393.964844 29.425781 C 393.765625 29.425781 393.765625 29.632812 393.765625 29.78125 L 393.765625 35.664062 L 391.003906 35.664062 C 390.855469 35.664062 390.648438 35.664062 390.648438 35.863281 C 390.648438 36.058594 390.855469 36.058594 391.003906 36.058594 L 396.933594 36.058594 C 397.101562 36.058594 397.28125 36.058594 397.28125 35.863281 C 397.28125 35.664062 397.101562 35.664062 396.933594 35.664062 L 394.164062 35.664062 L 394.164062 29.78125 "/>
<path style=" stroke:none;fill-rule:nonzero;fill:rgb(0%,0%,0%);fill-opacity:1;" d="M 409.28125 33.777344 C 408.914062 34.230469 408.386719 35.015625 408.140625 36.058594 L 408.539062 36.058594 C 408.84375 34.757812 409.679688 33.855469 409.976562 33.578125 C 409.660156 33.277344 408.84375 32.386719 408.539062 31.09375 L 408.140625 31.09375 C 408.386719 32.125 408.90625 32.910156 409.28125 33.378906 L 401.503906 33.378906 C 401.324219 33.378906 401.15625 33.378906 401.15625 33.578125 C 401.15625 33.777344 401.335938 33.777344 401.503906 33.777344 L 409.28125 33.777344 "/>
<path style=" stroke:none;fill-rule:nonzero;fill:rgb(0%,0%,0%);fill-opacity:1;" d="M 415.277344 38.105469 C 415.21875 37.589844 415.1875 36.625 415.179688 36.167969 L 415.277344 36.089844 C 415.464844 36.140625 415.664062 36.167969 415.863281 36.167969 C 417.402344 36.167969 418.445312 34.558594 418.445312 33.097656 C 418.445312 32.355469 418.097656 31.441406 417.085938 31.441406 C 416.398438 31.441406 415.792969 31.75 415.257812 32.175781 L 415.179688 32.136719 C 415.136719 31.699219 414.976562 31.390625 414.53125 31.390625 C 414.09375 31.390625 413.578125 31.75 413.179688 32.066406 L 413.320312 32.253906 C 413.558594 32.117188 413.835938 31.96875 414.046875 31.96875 C 414.34375 31.96875 414.433594 32.484375 414.433594 32.929688 L 414.433594 35.125 C 414.433594 35.691406 414.421875 37.730469 414.371094 38.304688 L 414.472656 38.414062 Z M 415.195312 35.402344 C 415.195312 35.394531 415.179688 34.371094 415.179688 33.558594 C 415.179688 33.449219 415.207031 32.691406 415.207031 32.632812 C 415.671875 32.265625 416.082031 32.058594 416.589844 32.058594 C 417.222656 32.058594 417.609375 32.820312 417.609375 33.6875 C 417.609375 34.628906 417.273438 35.773438 416.070312 35.773438 C 415.742188 35.773438 415.4375 35.621094 415.195312 35.402344 "/>
<path style=" stroke:none;fill-rule:nonzero;fill:rgb(0%,0%,0%);fill-opacity:1;" d="M 427.164062 32.8125 C 427.335938 32.8125 427.511719 32.8125 427.511719 32.613281 C 427.511719 32.414062 427.335938 32.414062 427.164062 32.414062 L 422.945312 32.414062 L 422.945312 29.523438 C 422.945312 29.34375 422.945312 29.167969 422.746094 29.167969 C 422.546875 29.167969 422.546875 29.375 422.546875 29.523438 L 422.546875 35.703125 C 422.546875 35.851562 422.546875 36.058594 422.746094 36.058594 C 422.945312 36.058594 422.945312 35.882812 422.945312 35.703125 L 422.945312 32.8125 L 427.164062 32.8125 "/>
<path style=" stroke:none;fill-rule:nonzero;fill:rgb(0%,0%,0%);fill-opacity:1;" d="M 432.777344 38.105469 C 432.71875 37.589844 432.6875 36.625 432.679688 36.167969 L 432.777344 36.089844 C 432.964844 36.140625 433.164062 36.167969 433.363281 36.167969 C 434.902344 36.167969 435.945312 34.558594 435.945312 33.097656 C 435.945312 32.355469 435.597656 31.441406 434.585938 31.441406 C 433.898438 31.441406 433.292969 31.75 432.757812 32.175781 L 432.679688 32.136719 C 432.636719 31.699219 432.476562 31.390625 432.03125 31.390625 C 431.59375 31.390625 431.078125 31.75 430.679688 32.066406 L 430.820312 32.253906 C 431.058594 32.117188 431.335938 31.96875 431.546875 31.96875 C 431.84375 31.96875 431.933594 32.484375 431.933594 32.929688 L 431.933594 35.125 C 431.933594 35.691406 431.921875 37.730469 431.871094 38.304688 L 431.972656 38.414062 Z M 432.695312 35.402344 C 432.695312 35.394531 432.679688 34.371094 432.679688 33.558594 C 432.679688 33.449219 432.707031 32.691406 432.707031 32.632812 C 433.171875 32.265625 433.582031 32.058594 434.089844 32.058594 C 434.722656 32.058594 435.109375 32.820312 435.109375 33.6875 C 435.109375 34.628906 434.773438 35.773438 433.570312 35.773438 C 433.242188 35.773438 432.9375 35.621094 432.695312 35.402344 "/>
<g clip-path="url(#clip2)" clip-rule="nonzero">
<path style="fill:none;stroke-width:3.98;stroke-linecap:butt;stroke-linejoin:miter;stroke:rgb(0%,0%,0%);stroke-opacity:1;stroke-miterlimit:10;" d="M 1014.257812 364.13125 L 5070.625 364.13125 " transform="matrix(0.1,0,0,-0.1,0,76.46)"/>
</g>
<path style=" stroke:none;fill-rule:nonzero;fill:rgb(0%,0%,0%);fill-opacity:1;" d="M 253.378906 51.40625 C 253.316406 50.890625 253.289062 49.925781 253.277344 49.46875 L 253.378906 49.390625 C 253.566406 49.441406 253.765625 49.46875 253.964844 49.46875 C 255.503906 49.46875 256.546875 47.859375 256.546875 46.398438 C 256.546875 45.65625 256.199219 44.742188 255.183594 44.742188 C 254.5 44.742188 253.894531 45.050781 253.355469 45.476562 L 253.277344 45.4375 C 253.238281 45 253.078125 44.691406 252.632812 44.691406 C 252.195312 44.691406 251.679688 45.050781 251.28125 45.367188 L 251.421875 45.554688 C 251.65625 45.417969 251.9375 45.269531 252.144531 45.269531 C 252.445312 45.269531 252.53125 45.785156 252.53125 46.230469 L 252.53125 48.425781 C 252.53125 48.992188 252.523438 51.027344 252.472656 51.605469 L 252.570312 51.714844 Z M 253.296875 48.703125 C 253.296875 48.695312 253.277344 47.671875 253.277344 46.855469 C 253.277344 46.746094 253.308594 45.992188 253.308594 45.933594 C 253.773438 45.566406 254.179688 45.355469 254.6875 45.355469 C 255.324219 45.355469 255.710938 46.121094 255.710938 46.988281 C 255.710938 47.929688 255.371094 49.074219 254.171875 49.074219 C 253.84375 49.074219 253.535156 48.921875 253.296875 48.703125 "/>
<path style=" stroke:none;fill-rule:nonzero;fill:rgb(0%,0%,0%);fill-opacity:1;" d="M 267.007812 42.566406 L 266.96875 42.527344 L 266.582031 42.527344 L 263.226562 48.773438 L 259.976562 42.566406 L 259.558594 42.636719 L 263.144531 49.480469 L 263.296875 49.480469 L 267.007812 42.566406 "/>
<path style=" stroke:none;fill-rule:nonzero;fill:rgb(0%,0%,0%);fill-opacity:1;" d="M 275.640625 45.296875 L 269.648438 45.296875 L 269.648438 45.695312 L 275.242188 45.695312 L 275.242188 47.3125 L 275.640625 47.3125 L 275.640625 45.296875 "/>
<path style=" stroke:none;fill-rule:nonzero;fill:rgb(0%,0%,0%);fill-opacity:1;" d="M 278.175781 51.40625 C 278.117188 50.890625 278.089844 49.925781 278.078125 49.46875 L 278.175781 49.390625 C 278.367188 49.441406 278.5625 49.46875 278.761719 49.46875 C 280.304688 49.46875 281.34375 47.859375 281.34375 46.398438 C 281.34375 45.65625 280.996094 44.742188 279.984375 44.742188 C 279.300781 44.742188 278.695312 45.050781 278.15625 45.476562 L 278.078125 45.4375 C 278.039062 45 277.878906 44.691406 277.429688 44.691406 C 276.996094 44.691406 276.476562 45.050781 276.082031 45.367188 L 276.21875 45.554688 C 276.457031 45.417969 276.734375 45.269531 276.945312 45.269531 C 277.242188 45.269531 277.332031 45.785156 277.332031 46.230469 L 277.332031 48.425781 C 277.332031 48.992188 277.320312 51.027344 277.273438 51.605469 L 277.371094 51.714844 Z M 278.097656 48.703125 C 278.097656 48.695312 278.078125 47.671875 278.078125 46.855469 C 278.078125 46.746094 278.109375 45.992188 278.109375 45.933594 C 278.574219 45.566406 278.980469 45.355469 279.488281 45.355469 C 280.121094 45.355469 280.511719 46.121094 280.511719 46.988281 C 280.511719 47.929688 280.171875 49.074219 278.972656 49.074219 C 278.644531 49.074219 278.335938 48.921875 278.097656 48.703125 "/>
<path style=" stroke:none;fill-rule:nonzero;fill:rgb(0%,0%,0%);fill-opacity:1;" d="M 283.191406 51.445312 C 283.898438 50.632812 284.226562 50.125 284.226562 49.628906 C 284.226562 49.28125 283.878906 47.988281 283.351562 47.988281 C 283.101562 47.988281 282.765625 48.207031 282.765625 48.464844 C 282.765625 48.566406 282.796875 48.675781 282.835938 48.722656 L 283.53125 49.550781 C 283.621094 49.660156 283.660156 49.828125 283.660156 49.964844 C 283.660156 50.363281 283.351562 50.851562 283.003906 51.308594 L 283.191406 51.445312 "/>
<path style=" stroke:none;fill-rule:nonzero;fill:rgb(0%,0%,0%);fill-opacity:1;" d="M 292.738281 45.296875 L 286.746094 45.296875 L 286.746094 45.695312 L 292.339844 45.695312 L 292.339844 47.3125 L 292.738281 47.3125 L 292.738281 45.296875 "/>
<path style=" stroke:none;fill-rule:nonzero;fill:rgb(0%,0%,0%);fill-opacity:1;" d="M 299.640625 45.296875 L 293.648438 45.296875 L 293.648438 45.695312 L 299.242188 45.695312 L 299.242188 47.3125 L 299.640625 47.3125 L 299.640625 45.296875 "/>
<path style=" stroke:none;fill-rule:nonzero;fill:rgb(0%,0%,0%);fill-opacity:1;" d="M 302.175781 51.40625 C 302.117188 50.890625 302.089844 49.925781 302.078125 49.46875 L 302.175781 49.390625 C 302.367188 49.441406 302.5625 49.46875 302.761719 49.46875 C 304.304688 49.46875 305.34375 47.859375 305.34375 46.398438 C 305.34375 45.65625 304.996094 44.742188 303.984375 44.742188 C 303.300781 44.742188 302.695312 45.050781 302.15625 45.476562 L 302.078125 45.4375 C 302.039062 45 301.878906 44.691406 301.429688 44.691406 C 300.996094 44.691406 300.476562 45.050781 300.082031 45.367188 L 300.21875 45.554688 C 300.457031 45.417969 300.734375 45.269531 300.945312 45.269531 C 301.242188 45.269531 301.332031 45.785156 301.332031 46.230469 L 301.332031 48.425781 C 301.332031 48.992188 301.320312 51.027344 301.273438 51.605469 L 301.371094 51.714844 Z M 302.097656 48.703125 C 302.097656 48.695312 302.078125 47.671875 302.078125 46.855469 C 302.078125 46.746094 302.109375 45.992188 302.109375 45.933594 C 302.574219 45.566406 302.980469 45.355469 303.488281 45.355469 C 304.121094 45.355469 304.511719 46.121094 304.511719 46.988281 C 304.511719 47.929688 304.171875 49.074219 302.972656 49.074219 C 302.644531 49.074219 302.335938 48.921875 302.097656 48.703125 "/>
<path style=" stroke:none;fill-rule:nonzero;fill:rgb(0%,0%,0%);fill-opacity:1;" d="M 307.09375 51.445312 C 307.796875 50.632812 308.128906 50.125 308.128906 49.628906 C 308.128906 49.28125 307.777344 47.988281 307.253906 47.988281 C 307.003906 47.988281 306.664062 48.207031 306.664062 48.464844 C 306.664062 48.566406 306.695312 48.675781 306.734375 48.722656 L 307.429688 49.550781 C 307.519531 49.660156 307.558594 49.828125 307.558594 49.964844 C 307.558594 50.363281 307.253906 50.851562 306.90625 51.308594 L 307.09375 51.445312 "/>
<path style=" stroke:none;fill-rule:nonzero;fill:rgb(0%,0%,0%);fill-opacity:1;" d="M 314.5625 43.082031 C 314.5625 42.902344 314.5625 42.722656 314.363281 42.722656 C 314.164062 42.722656 314.164062 42.933594 314.164062 43.082031 L 314.164062 48.964844 L 311.40625 48.964844 C 311.253906 48.964844 311.046875 48.964844 311.046875 49.160156 C 311.046875 49.359375 311.253906 49.359375 311.40625 49.359375 L 317.335938 49.359375 C 317.503906 49.359375 317.683594 49.359375 317.683594 49.160156 C 317.683594 48.964844 317.503906 48.964844 317.335938 48.964844 L 314.5625 48.964844 L 314.5625 43.082031 "/>
<path style=" stroke:none;fill-rule:nonzero;fill:rgb(0%,0%,0%);fill-opacity:1;" d="M 329.683594 47.074219 C 329.3125 47.53125 328.789062 48.316406 328.539062 49.359375 L 328.9375 49.359375 C 329.246094 48.058594 330.078125 47.15625 330.378906 46.878906 C 330.058594 46.578125 329.246094 45.683594 328.9375 44.394531 L 328.539062 44.394531 C 328.789062 45.425781 329.304688 46.210938 329.683594 46.675781 L 321.90625 46.675781 C 321.726562 46.675781 321.554688 46.675781 321.554688 46.878906 C 321.554688 47.074219 321.734375 47.074219 321.90625 47.074219 L 329.683594 47.074219 "/>
<path style=" stroke:none;fill-rule:nonzero;fill:rgb(0%,0%,0%);fill-opacity:1;" d="M 335.675781 51.40625 C 335.617188 50.890625 335.589844 49.925781 335.578125 49.46875 L 335.675781 49.390625 C 335.867188 49.441406 336.0625 49.46875 336.261719 49.46875 C 337.804688 49.46875 338.84375 47.859375 338.84375 46.398438 C 338.84375 45.65625 338.496094 44.742188 337.484375 44.742188 C 336.800781 44.742188 336.195312 45.050781 335.65625 45.476562 L 335.578125 45.4375 C 335.539062 45 335.378906 44.691406 334.929688 44.691406 C 334.496094 44.691406 333.976562 45.050781 333.582031 45.367188 L 333.71875 45.554688 C 333.957031 45.417969 334.234375 45.269531 334.445312 45.269531 C 334.742188 45.269531 334.832031 45.785156 334.832031 46.230469 L 334.832031 48.425781 C 334.832031 48.992188 334.820312 51.027344 334.773438 51.605469 L 334.871094 51.714844 Z M 335.597656 48.703125 C 335.597656 48.695312 335.578125 47.671875 335.578125 46.855469 C 335.578125 46.746094 335.609375 45.992188 335.609375 45.933594 C 336.074219 45.566406 336.480469 45.355469 336.988281 45.355469 C 337.621094 45.355469 338.011719 46.121094 338.011719 46.988281 C 338.011719 47.929688 337.671875 49.074219 336.472656 49.074219 C 336.144531 49.074219 335.835938 48.921875 335.597656 48.703125 "/>
<path style=" stroke:none;fill-rule:nonzero;fill:rgb(0%,0%,0%);fill-opacity:1;" d="M 347.566406 46.113281 C 347.734375 46.113281 347.914062 46.113281 347.914062 45.914062 C 347.914062 45.714844 347.734375 45.714844 347.566406 45.714844 L 343.34375 45.714844 L 343.34375 42.824219 C 343.34375 42.644531 343.34375 42.464844 343.144531 42.464844 C 342.945312 42.464844 342.945312 42.675781 342.945312 42.824219 L 342.945312 49.003906 C 342.945312 49.152344 342.945312 49.359375 343.144531 49.359375 C 343.34375 49.359375 343.34375 49.183594 343.34375 49.003906 L 343.34375 46.113281 L 347.566406 46.113281 "/>
<path style=" stroke:none;fill-rule:nonzero;fill:rgb(0%,0%,0%);fill-opacity:1;" d="M 353.175781 51.40625 C 353.117188 50.890625 353.089844 49.925781 353.078125 49.46875 L 353.175781 49.390625 C 353.367188 49.441406 353.5625 49.46875 353.761719 49.46875 C 355.304688 49.46875 356.34375 47.859375 356.34375 46.398438 C 356.34375 45.65625 355.996094 44.742188 354.984375 44.742188 C 354.300781 44.742188 353.695312 45.050781 353.15625 45.476562 L 353.078125 45.4375 C 353.039062 45 352.878906 44.691406 352.429688 44.691406 C 351.996094 44.691406 351.476562 45.050781 351.082031 45.367188 L 351.21875 45.554688 C 351.457031 45.417969 351.734375 45.269531 351.945312 45.269531 C 352.242188 45.269531 352.332031 45.785156 352.332031 46.230469 L 352.332031 48.425781 C 352.332031 48.992188 352.320312 51.027344 352.273438 51.605469 L 352.371094 51.714844 Z M 353.097656 48.703125 C 353.097656 48.695312 353.078125 47.671875 353.078125 46.855469 C 353.078125 46.746094 353.109375 45.992188 353.109375 45.933594 C 353.574219 45.566406 353.980469 45.355469 354.488281 45.355469 C 355.121094 45.355469 355.511719 46.121094 355.511719 46.988281 C 355.511719 47.929688 355.171875 49.074219 353.972656 49.074219 C 353.644531 49.074219 353.335938 48.921875 353.097656 48.703125 "/>
<g clip-path="url(#clip3)" clip-rule="nonzero">
<path style="fill:none;stroke-width:3.98;stroke-linecap:butt;stroke-linejoin:miter;stroke:rgb(0%,0%,0%);stroke-opacity:1;stroke-miterlimit:10;" d="M 654.53125 238.115625 L 5070.625 238.115625 " transform="matrix(0.1,0,0,-0.1,0,76.46)"/>
</g>
<path style=" stroke:none;fill-rule:nonzero;fill:rgb(0%,0%,0%);fill-opacity:1;" d="M 239.640625 57.898438 L 233.648438 57.898438 L 233.648438 58.292969 L 239.242188 58.292969 L 239.242188 59.914062 L 239.640625 59.914062 L 239.640625 57.898438 "/>
<path style=" stroke:none;fill-rule:nonzero;fill:rgb(0%,0%,0%);fill-opacity:1;" d="M 246.4375 57.898438 L 240.449219 57.898438 L 240.449219 58.292969 L 246.039062 58.292969 L 246.039062 59.914062 L 246.4375 59.914062 L 246.4375 57.898438 "/>
<path style=" stroke:none;fill-rule:nonzero;fill:rgb(0%,0%,0%);fill-opacity:1;" d="M 248.976562 64.007812 C 248.917969 63.488281 248.886719 62.527344 248.878906 62.070312 L 248.976562 61.988281 C 249.164062 62.039062 249.363281 62.070312 249.5625 62.070312 C 251.101562 62.070312 252.144531 60.460938 252.144531 59 C 252.144531 58.253906 251.796875 57.339844 250.785156 57.339844 C 250.101562 57.339844 249.492188 57.648438 248.957031 58.074219 L 248.878906 58.035156 C 248.839844 57.597656 248.679688 57.292969 248.230469 57.292969 C 247.796875 57.292969 247.277344 57.648438 246.882812 57.964844 L 247.019531 58.15625 C 247.257812 58.015625 247.535156 57.867188 247.746094 57.867188 C 248.042969 57.867188 248.132812 58.382812 248.132812 58.832031 L 248.132812 61.027344 C 248.132812 61.59375 248.121094 63.628906 248.074219 64.207031 L 248.171875 64.316406 Z M 248.898438 61.304688 C 248.898438 61.292969 248.878906 60.269531 248.878906 59.457031 C 248.878906 59.347656 248.90625 58.59375 248.90625 58.535156 C 249.371094 58.164062 249.78125 57.957031 250.289062 57.957031 C 250.921875 57.957031 251.3125 58.722656 251.3125 59.585938 C 251.3125 60.53125 250.972656 61.671875 249.773438 61.671875 C 249.445312 61.671875 249.136719 61.523438 248.898438 61.304688 "/>
<path style=" stroke:none;fill-rule:nonzero;fill:rgb(0%,0%,0%);fill-opacity:1;" d="M 253.992188 64.046875 C 254.699219 63.230469 255.027344 62.726562 255.027344 62.230469 C 255.027344 61.878906 254.679688 60.589844 254.152344 60.589844 C 253.902344 60.589844 253.566406 60.808594 253.566406 61.066406 C 253.566406 61.164062 253.59375 61.273438 253.632812 61.324219 L 254.328125 62.148438 C 254.421875 62.257812 254.460938 62.425781 254.460938 62.566406 C 254.460938 62.964844 254.152344 63.449219 253.804688 63.90625 L 253.992188 64.046875 "/>
<path style=" stroke:none;fill-rule:nonzero;fill:rgb(0%,0%,0%);fill-opacity:1;" d="M 259.277344 64.007812 C 259.21875 63.488281 259.1875 62.527344 259.179688 62.070312 L 259.277344 61.988281 C 259.464844 62.039062 259.664062 62.070312 259.863281 62.070312 C 261.402344 62.070312 262.445312 60.460938 262.445312 59 C 262.445312 58.253906 262.097656 57.339844 261.085938 57.339844 C 260.398438 57.339844 259.792969 57.648438 259.257812 58.074219 L 259.179688 58.035156 C 259.136719 57.597656 258.976562 57.292969 258.53125 57.292969 C 258.09375 57.292969 257.578125 57.648438 257.179688 57.964844 L 257.320312 58.15625 C 257.558594 58.015625 257.835938 57.867188 258.046875 57.867188 C 258.34375 57.867188 258.433594 58.382812 258.433594 58.832031 L 258.433594 61.027344 C 258.433594 61.59375 258.421875 63.628906 258.371094 64.207031 L 258.472656 64.316406 Z M 259.195312 61.304688 C 259.195312 61.292969 259.179688 60.269531 259.179688 59.457031 C 259.179688 59.347656 259.207031 58.59375 259.207031 58.535156 C 259.671875 58.164062 260.082031 57.957031 260.589844 57.957031 C 261.222656 57.957031 261.609375 58.722656 261.609375 59.585938 C 261.609375 60.53125 261.273438 61.671875 260.070312 61.671875 C 259.742188 61.671875 259.4375 61.523438 259.195312 61.304688 "/>
<path style=" stroke:none;fill-rule:nonzero;fill:rgb(0%,0%,0%);fill-opacity:1;" d="M 272.910156 55.164062 L 272.871094 55.125 L 272.484375 55.125 L 269.125 61.375 L 265.878906 55.164062 L 265.460938 55.234375 L 269.046875 62.078125 L 269.195312 62.078125 L 272.910156 55.164062 "/>
<path style=" stroke:none;fill-rule:nonzero;fill:rgb(0%,0%,0%);fill-opacity:1;" d="M 281.640625 57.898438 L 275.648438 57.898438 L 275.648438 58.292969 L 281.242188 58.292969 L 281.242188 59.914062 L 281.640625 59.914062 L 281.640625 57.898438 "/>
<path style=" stroke:none;fill-rule:nonzero;fill:rgb(0%,0%,0%);fill-opacity:1;" d="M 284.175781 64.007812 C 284.117188 63.488281 284.089844 62.527344 284.078125 62.070312 L 284.175781 61.988281 C 284.367188 62.039062 284.5625 62.070312 284.761719 62.070312 C 286.304688 62.070312 287.34375 60.460938 287.34375 59 C 287.34375 58.253906 286.996094 57.339844 285.984375 57.339844 C 285.300781 57.339844 284.695312 57.648438 284.15625 58.074219 L 284.078125 58.035156 C 284.039062 57.597656 283.878906 57.292969 283.429688 57.292969 C 282.996094 57.292969 282.476562 57.648438 282.082031 57.964844 L 282.21875 58.15625 C 282.457031 58.015625 282.734375 57.867188 282.945312 57.867188 C 283.242188 57.867188 283.332031 58.382812 283.332031 58.832031 L 283.332031 61.027344 C 283.332031 61.59375 283.320312 63.628906 283.273438 64.207031 L 283.371094 64.316406 Z M 284.097656 61.304688 C 284.097656 61.292969 284.078125 60.269531 284.078125 59.457031 C 284.078125 59.347656 284.109375 58.59375 284.109375 58.535156 C 284.574219 58.164062 284.980469 57.957031 285.488281 57.957031 C 286.121094 57.957031 286.511719 58.722656 286.511719 59.585938 C 286.511719 60.53125 286.171875 61.671875 284.972656 61.671875 C 284.644531 61.671875 284.335938 61.523438 284.097656 61.304688 "/>
<path style=" stroke:none;fill-rule:nonzero;fill:rgb(0%,0%,0%);fill-opacity:1;" d="M 289.191406 64.046875 C 289.898438 63.230469 290.226562 62.726562 290.226562 62.230469 C 290.226562 61.878906 289.878906 60.589844 289.351562 60.589844 C 289.101562 60.589844 288.765625 60.808594 288.765625 61.066406 C 288.765625 61.164062 288.796875 61.273438 288.835938 61.324219 L 289.53125 62.148438 C 289.621094 62.257812 289.660156 62.425781 289.660156 62.566406 C 289.660156 62.964844 289.351562 63.449219 289.003906 63.90625 L 289.191406 64.046875 "/>
<path style=" stroke:none;fill-rule:nonzero;fill:rgb(0%,0%,0%);fill-opacity:1;" d="M 296.5625 55.683594 C 296.5625 55.503906 296.5625 55.324219 296.363281 55.324219 C 296.164062 55.324219 296.164062 55.535156 296.164062 55.683594 L 296.164062 61.5625 L 293.40625 61.5625 C 293.253906 61.5625 293.046875 61.5625 293.046875 61.761719 C 293.046875 61.960938 293.253906 61.960938 293.40625 61.960938 L 299.335938 61.960938 C 299.503906 61.960938 299.683594 61.960938 299.683594 61.761719 C 299.683594 61.5625 299.503906 61.5625 299.335938 61.5625 L 296.5625 61.5625 L 296.5625 55.683594 "/>
<path style=" stroke:none;fill-rule:nonzero;fill:rgb(0%,0%,0%);fill-opacity:1;" d="M 311.683594 59.675781 C 311.3125 60.132812 310.789062 60.917969 310.539062 61.960938 L 310.9375 61.960938 C 311.246094 60.660156 312.078125 59.753906 312.378906 59.476562 C 312.058594 59.179688 311.246094 58.285156 310.9375 56.992188 L 310.539062 56.992188 C 310.789062 58.027344 311.304688 58.8125 311.683594 59.277344 L 303.90625 59.277344 C 303.726562 59.277344 303.554688 59.277344 303.554688 59.476562 C 303.554688 59.675781 303.734375 59.675781 303.90625 59.675781 L 311.683594 59.675781 "/>
<path style=" stroke:none;fill-rule:nonzero;fill:rgb(0%,0%,0%);fill-opacity:1;" d="M 317.675781 64.007812 C 317.617188 63.488281 317.589844 62.527344 317.578125 62.070312 L 317.675781 61.988281 C 317.867188 62.039062 318.0625 62.070312 318.261719 62.070312 C 319.804688 62.070312 320.84375 60.460938 320.84375 59 C 320.84375 58.253906 320.496094 57.339844 319.484375 57.339844 C 318.800781 57.339844 318.195312 57.648438 317.65625 58.074219 L 317.578125 58.035156 C 317.539062 57.597656 317.378906 57.292969 316.929688 57.292969 C 316.496094 57.292969 315.976562 57.648438 315.582031 57.964844 L 315.71875 58.15625 C 315.957031 58.015625 316.234375 57.867188 316.445312 57.867188 C 316.742188 57.867188 316.832031 58.382812 316.832031 58.832031 L 316.832031 61.027344 C 316.832031 61.59375 316.820312 63.628906 316.773438 64.207031 L 316.871094 64.316406 Z M 317.597656 61.304688 C 317.597656 61.292969 317.578125 60.269531 317.578125 59.457031 C 317.578125 59.347656 317.609375 58.59375 317.609375 58.535156 C 318.074219 58.164062 318.480469 57.957031 318.988281 57.957031 C 319.621094 57.957031 320.011719 58.722656 320.011719 59.585938 C 320.011719 60.53125 319.671875 61.671875 318.472656 61.671875 C 318.144531 61.671875 317.835938 61.523438 317.597656 61.304688 "/>
<path style=" stroke:none;fill-rule:nonzero;fill:rgb(0%,0%,0%);fill-opacity:1;" d="M 329.566406 58.710938 C 329.734375 58.710938 329.914062 58.710938 329.914062 58.511719 C 329.914062 58.316406 329.734375 58.316406 329.566406 58.316406 L 325.34375 58.316406 L 325.34375 55.425781 C 325.34375 55.246094 325.34375 55.066406 325.144531 55.066406 C 324.945312 55.066406 324.945312 55.273438 324.945312 55.425781 L 324.945312 61.601562 C 324.945312 61.75 324.945312 61.960938 325.144531 61.960938 C 325.34375 61.960938 325.34375 61.78125 325.34375 61.601562 L 325.34375 58.710938 L 329.566406 58.710938 "/>
<path style=" stroke:none;fill-rule:nonzero;fill:rgb(0%,0%,0%);fill-opacity:1;" d="M 335.175781 64.007812 C 335.117188 63.488281 335.089844 62.527344 335.078125 62.070312 L 335.175781 61.988281 C 335.367188 62.039062 335.5625 62.070312 335.761719 62.070312 C 337.304688 62.070312 338.34375 60.460938 338.34375 59 C 338.34375 58.253906 337.996094 57.339844 336.984375 57.339844 C 336.300781 57.339844 335.695312 57.648438 335.15625 58.074219 L 335.078125 58.035156 C 335.039062 57.597656 334.878906 57.292969 334.429688 57.292969 C 333.996094 57.292969 333.476562 57.648438 333.082031 57.964844 L 333.21875 58.15625 C 333.457031 58.015625 333.734375 57.867188 333.945312 57.867188 C 334.242188 57.867188 334.332031 58.382812 334.332031 58.832031 L 334.332031 61.027344 C 334.332031 61.59375 334.320312 63.628906 334.273438 64.207031 L 334.371094 64.316406 Z M 335.097656 61.304688 C 335.097656 61.292969 335.078125 60.269531 335.078125 59.457031 C 335.078125 59.347656 335.109375 58.59375 335.109375 58.535156 C 335.574219 58.164062 335.980469 57.957031 336.488281 57.957031 C 337.121094 57.957031 337.511719 58.722656 337.511719 59.585938 C 337.511719 60.53125 337.171875 61.671875 335.972656 61.671875 C 335.644531 61.671875 335.335938 61.523438 335.097656 61.304688 "/>
<g clip-path="url(#clip4)" clip-rule="nonzero">
<path style="fill:none;stroke-width:3.98;stroke-linecap:butt;stroke-linejoin:miter;stroke:rgb(0%,0%,0%);stroke-opacity:1;stroke-miterlimit:10;" d="M 372.226562 112.060938 L 5070.625 112.060938 " transform="matrix(0.1,0,0,-0.1,0,76.46)"/>
</g>
<g clip-path="url(#clip5)" clip-rule="nonzero">
<path style=" stroke:none;fill-rule:nonzero;fill:rgb(0%,0%,0%);fill-opacity:1;" d="M 215.777344 76.605469 C 215.71875 76.089844 215.6875 75.125 215.679688 74.667969 L 215.777344 74.589844 C 215.964844 74.640625 216.164062 74.667969 216.363281 74.667969 C 217.902344 74.667969 218.945312 73.058594 218.945312 71.597656 C 218.945312 70.855469 218.597656 69.941406 217.585938 69.941406 C 216.898438 69.941406 216.292969 70.25 215.757812 70.675781 L 215.679688 70.636719 C 215.636719 70.199219 215.476562 69.890625 215.03125 69.890625 C 214.59375 69.890625 214.078125 70.25 213.679688 70.566406 L 213.820312 70.753906 C 214.058594 70.617188 214.335938 70.46875 214.546875 70.46875 C 214.84375 70.46875 214.933594 70.984375 214.933594 71.429688 L 214.933594 73.625 C 214.933594 74.191406 214.921875 76.230469 214.871094 76.804688 L 214.972656 76.914062 Z M 215.695312 73.902344 C 215.695312 73.894531 215.679688 72.871094 215.679688 72.058594 C 215.679688 71.949219 215.707031 71.191406 215.707031 71.132812 C 216.171875 70.765625 216.582031 70.558594 217.089844 70.558594 C 217.722656 70.558594 218.109375 71.320312 218.109375 72.1875 C 218.109375 73.128906 217.773438 74.273438 216.570312 74.273438 C 216.242188 74.273438 215.9375 74.121094 215.695312 73.902344 "/>
</g>
<path style=" stroke:none;fill-rule:nonzero;fill:rgb(0%,0%,0%);fill-opacity:1;" d="M 229.308594 67.765625 L 229.269531 67.726562 L 228.882812 67.726562 L 225.523438 73.972656 L 222.277344 67.765625 L 221.859375 67.835938 L 225.445312 74.679688 L 225.59375 74.679688 L 229.308594 67.765625 "/>
<path style=" stroke:none;fill-rule:nonzero;fill:rgb(0%,0%,0%);fill-opacity:1;" d="M 238.039062 70.496094 L 232.046875 70.496094 L 232.046875 70.894531 L 237.640625 70.894531 L 237.640625 72.511719 L 238.039062 72.511719 L 238.039062 70.496094 "/>
<g clip-path="url(#clip6)" clip-rule="nonzero">
<path style=" stroke:none;fill-rule:nonzero;fill:rgb(0%,0%,0%);fill-opacity:1;" d="M 240.578125 76.605469 C 240.515625 76.089844 240.488281 75.125 240.476562 74.667969 L 240.578125 74.589844 C 240.765625 74.640625 240.964844 74.667969 241.164062 74.667969 C 242.703125 74.667969 243.746094 73.058594 243.746094 71.597656 C 243.746094 70.855469 243.398438 69.941406 242.382812 69.941406 C 241.699219 69.941406 241.09375 70.25 240.554688 70.675781 L 240.476562 70.636719 C 240.4375 70.199219 240.277344 69.890625 239.832031 69.890625 C 239.394531 69.890625 238.878906 70.25 238.480469 70.566406 L 238.621094 70.753906 C 238.859375 70.617188 239.136719 70.46875 239.34375 70.46875 C 239.644531 70.46875 239.734375 70.984375 239.734375 71.429688 L 239.734375 73.625 C 239.734375 74.191406 239.722656 76.230469 239.671875 76.804688 L 239.773438 76.914062 Z M 240.496094 73.902344 C 240.496094 73.894531 240.476562 72.871094 240.476562 72.058594 C 240.476562 71.949219 240.507812 71.191406 240.507812 71.132812 C 240.972656 70.765625 241.382812 70.558594 241.886719 70.558594 C 242.523438 70.558594 242.910156 71.320312 242.910156 72.1875 C 242.910156 73.128906 242.574219 74.273438 241.371094 74.273438 C 241.042969 74.273438 240.734375 74.121094 240.496094 73.902344 "/>
</g>
<g clip-path="url(#clip7)" clip-rule="nonzero">
<path style=" stroke:none;fill-rule:nonzero;fill:rgb(0%,0%,0%);fill-opacity:1;" d="M 245.59375 76.644531 C 246.296875 75.832031 246.628906 75.324219 246.628906 74.828125 C 246.628906 74.480469 246.277344 73.191406 245.753906 73.191406 C 245.503906 73.191406 245.164062 73.410156 245.164062 73.667969 C 245.164062 73.765625 245.195312 73.875 245.234375 73.925781 L 245.929688 74.75 C 246.019531 74.859375 246.058594 75.027344 246.058594 75.167969 C 246.058594 75.5625 245.753906 76.050781 245.40625 76.507812 L 245.59375 76.644531 "/>
</g>
<path style=" stroke:none;fill-rule:nonzero;fill:rgb(0%,0%,0%);fill-opacity:1;" d="M 252.964844 68.28125 C 252.964844 68.105469 252.964844 67.925781 252.765625 67.925781 C 252.566406 67.925781 252.566406 68.132812 252.566406 68.28125 L 252.566406 74.164062 L 249.804688 74.164062 C 249.65625 74.164062 249.445312 74.164062 249.445312 74.363281 C 249.445312 74.558594 249.65625 74.558594 249.804688 74.558594 L 255.734375 74.558594 C 255.902344 74.558594 256.082031 74.558594 256.082031 74.363281 C 256.082031 74.164062 255.902344 74.164062 255.734375 74.164062 L 252.964844 74.164062 L 252.964844 68.28125 "/>
<path style=" stroke:none;fill-rule:nonzero;fill:rgb(0%,0%,0%);fill-opacity:1;" d="M 268.082031 72.277344 C 267.714844 72.730469 267.1875 73.515625 266.9375 74.558594 L 267.339844 74.558594 C 267.644531 73.257812 268.480469 72.355469 268.777344 72.078125 C 268.460938 71.777344 267.644531 70.886719 267.339844 69.59375 L 266.9375 69.59375 C 267.1875 70.625 267.703125 71.410156 268.082031 71.878906 L 260.304688 71.878906 C 260.125 71.878906 259.957031 71.878906 259.957031 72.078125 C 259.957031 72.277344 260.132812 72.277344 260.304688 72.277344 L 268.082031 72.277344 "/>
<g clip-path="url(#clip8)" clip-rule="nonzero">
<path style=" stroke:none;fill-rule:nonzero;fill:rgb(0%,0%,0%);fill-opacity:1;" d="M 274.078125 76.605469 C 274.015625 76.089844 273.988281 75.125 273.976562 74.667969 L 274.078125 74.589844 C 274.265625 74.640625 274.464844 74.667969 274.664062 74.667969 C 276.203125 74.667969 277.246094 73.058594 277.246094 71.597656 C 277.246094 70.855469 276.898438 69.941406 275.882812 69.941406 C 275.199219 69.941406 274.59375 70.25 274.054688 70.675781 L 273.976562 70.636719 C 273.9375 70.199219 273.777344 69.890625 273.332031 69.890625 C 272.894531 69.890625 272.378906 70.25 271.980469 70.566406 L 272.121094 70.753906 C 272.359375 70.617188 272.636719 70.46875 272.84375 70.46875 C 273.144531 70.46875 273.234375 70.984375 273.234375 71.429688 L 273.234375 73.625 C 273.234375 74.191406 273.222656 76.230469 273.171875 76.804688 L 273.273438 76.914062 Z M 273.996094 73.902344 C 273.996094 73.894531 273.976562 72.871094 273.976562 72.058594 C 273.976562 71.949219 274.007812 71.191406 274.007812 71.132812 C 274.472656 70.765625 274.882812 70.558594 275.386719 70.558594 C 276.023438 70.558594 276.410156 71.320312 276.410156 72.1875 C 276.410156 73.128906 276.074219 74.273438 274.871094 74.273438 C 274.542969 74.273438 274.234375 74.121094 273.996094 73.902344 "/>
</g>
<path style=" stroke:none;fill-rule:nonzero;fill:rgb(0%,0%,0%);fill-opacity:1;" d="M 285.964844 71.3125 C 286.132812 71.3125 286.3125 71.3125 286.3125 71.113281 C 286.3125 70.914062 286.132812 70.914062 285.964844 70.914062 L 281.742188 70.914062 L 281.742188 68.023438 C 281.742188 67.84375 281.742188 67.667969 281.546875 67.667969 C 281.347656 67.667969 281.347656 67.875 281.347656 68.023438 L 281.347656 74.203125 C 281.347656 74.351562 281.347656 74.558594 281.546875 74.558594 C 281.742188 74.558594 281.742188 74.382812 281.742188 74.203125 L 281.742188 71.3125 L 285.964844 71.3125 "/>
<path style=" stroke:none;fill-rule:nonzero;fill:rgb(0%,0%,0%);fill-opacity:1;" d="M 295.839844 70.496094 L 289.847656 70.496094 L 289.847656 70.894531 L 295.441406 70.894531 L 295.441406 72.511719 L 295.839844 72.511719 L 295.839844 70.496094 "/>
<path style=" stroke:none;fill-rule:nonzero;fill:rgb(0%,0%,0%);fill-opacity:1;" d="M 302.738281 70.496094 L 296.746094 70.496094 L 296.746094 70.894531 L 302.339844 70.894531 L 302.339844 72.511719 L 302.738281 72.511719 L 302.738281 70.496094 "/>
<g clip-path="url(#clip9)" clip-rule="nonzero">
<path style=" stroke:none;fill-rule:nonzero;fill:rgb(0%,0%,0%);fill-opacity:1;" d="M 305.277344 76.605469 C 305.21875 76.089844 305.1875 75.125 305.179688 74.667969 L 305.277344 74.589844 C 305.464844 74.640625 305.664062 74.667969 305.863281 74.667969 C 307.402344 74.667969 308.445312 73.058594 308.445312 71.597656 C 308.445312 70.855469 308.097656 69.941406 307.085938 69.941406 C 306.398438 69.941406 305.792969 70.25 305.257812 70.675781 L 305.179688 70.636719 C 305.136719 70.199219 304.976562 69.890625 304.53125 69.890625 C 304.09375 69.890625 303.578125 70.25 303.179688 70.566406 L 303.320312 70.753906 C 303.558594 70.617188 303.835938 70.46875 304.046875 70.46875 C 304.34375 70.46875 304.433594 70.984375 304.433594 71.429688 L 304.433594 73.625 C 304.433594 74.191406 304.421875 76.230469 304.371094 76.804688 L 304.472656 76.914062 Z M 305.195312 73.902344 C 305.195312 73.894531 305.179688 72.871094 305.179688 72.058594 C 305.179688 71.949219 305.207031 71.191406 305.207031 71.132812 C 305.671875 70.765625 306.082031 70.558594 306.589844 70.558594 C 307.222656 70.558594 307.609375 71.320312 307.609375 72.1875 C 307.609375 73.128906 307.273438 74.273438 306.070312 74.273438 C 305.742188 74.273438 305.4375 74.121094 305.195312 73.902344 "/>
</g>
<path style=" stroke:none;fill-rule:nonzero;fill:rgb(0%,0%,0%);fill-opacity:1;" d="M 320.582031 72.277344 C 320.214844 72.730469 319.6875 73.515625 319.4375 74.558594 L 319.839844 74.558594 C 320.144531 73.257812 320.980469 72.355469 321.277344 72.078125 C 320.960938 71.777344 320.144531 70.886719 319.839844 69.59375 L 319.4375 69.59375 C 319.6875 70.625 320.203125 71.410156 320.582031 71.878906 L 312.804688 71.878906 C 312.625 71.878906 312.457031 71.878906 312.457031 72.078125 C 312.457031 72.277344 312.632812 72.277344 312.804688 72.277344 L 320.582031 72.277344 "/>
<g clip-path="url(#clip10)" clip-rule="nonzero">
<path style=" stroke:none;fill-rule:nonzero;fill:rgb(0%,0%,0%);fill-opacity:1;" d="M 326.675781 76.605469 C 326.617188 76.089844 326.589844 75.125 326.578125 74.667969 L 326.675781 74.589844 C 326.867188 74.640625 327.0625 74.667969 327.261719 74.667969 C 328.804688 74.667969 329.84375 73.058594 329.84375 71.597656 C 329.84375 70.855469 329.496094 69.941406 328.484375 69.941406 C 327.800781 69.941406 327.195312 70.25 326.65625 70.675781 L 326.578125 70.636719 C 326.539062 70.199219 326.378906 69.890625 325.929688 69.890625 C 325.496094 69.890625 324.976562 70.25 324.582031 70.566406 L 324.71875 70.753906 C 324.957031 70.617188 325.234375 70.46875 325.445312 70.46875 C 325.742188 70.46875 325.832031 70.984375 325.832031 71.429688 L 325.832031 73.625 C 325.832031 74.191406 325.820312 76.230469 325.773438 76.804688 L 325.871094 76.914062 Z M 326.597656 73.902344 C 326.597656 73.894531 326.578125 72.871094 326.578125 72.058594 C 326.578125 71.949219 326.609375 71.191406 326.609375 71.132812 C 327.074219 70.765625 327.480469 70.558594 327.988281 70.558594 C 328.621094 70.558594 329.011719 71.320312 329.011719 72.1875 C 329.011719 73.128906 328.671875 74.273438 327.472656 74.273438 C 327.144531 74.273438 326.835938 74.121094 326.597656 73.902344 "/>
</g>
</g>
</svg>
