<?xml version="1.0" standalone="yes"?>
<svg
    version="1.1"
    xmlns="http://www.w3.org/2000/svg">
  <defs>
    <!-- 12.402pt -->
    <font
        id="kludge">
      <font-face
          font-family="Kludge"
          font-weight="normal"
          font-style="normal"
          units-per-em="99.213pt" />
      <!-- = 99.213pt -->
      <glyph
          glyph-name="SP"
          unicode="&#x0020;"
          horiz-adv-x="99.213pt"
          d="" />
      <!-- = 114.56pt + 12.402pt -->
      <glyph
          glyph-name="A"
          unicode="A"
          horiz-adv-x="126.962pt"
          d="M 71.359375 48.910156 L 50.121094 86.8125 L 57.28125 99.214844 L 114.5625 0 L 100.242188 0 L 78.28125 38.035156 L 12.402344 0 L 0 0 L 6.203125 10.738281 Z M 71.359375 48.910156" />
      <!-- = 99.213pt + 12.402pt -->
      <glyph
          glyph-name="B"
          unicode="B"
          horiz-adv-x="111.615pt"
          d="M 0 99.214844 L 12.402344 99.214844 L 12.402344 0 L 0 0 Z M 0 99.214844 M 12.402344 99.214844 L 71.308594 99.214844 C 86.722656 99.214844 99.214844 86.71875 99.214844 71.308594 C 99.214844 62.882812 95.402344 54.902344 88.847656 49.605469 C 100.835938 39.921875 102.699219 22.351562 93.011719 10.367188 C 87.714844 3.8125 79.738281 0 71.308594 0 L 12.402344 0 L 12.402344 12.402344 L 71.308594 12.402344 C 79.871094 12.402344 86.8125 19.339844 86.8125 27.902344 C 86.8125 36.464844 79.871094 43.40625 71.308594 43.40625 L 12.402344 43.40625 L 12.402344 55.808594 L 71.308594 55.808594 C 79.871094 55.808594 86.8125 62.746094 86.8125 71.308594 C 86.8125 79.871094 79.871094 86.8125 71.308594 86.8125 L 12.402344 86.8125 Z M 12.402344 99.214844" />
      <!-- = 93pt + 12.402pt -->
      <glyph
          glyph-name="C"
          unicode="C"
          horiz-adv-x="105.402pt"
          d="M 92.621094 74.460938 C 78.921875 98.1875 48.582031 106.320312 24.855469 92.621094 C 1.128906 78.921875 -7 48.582031 6.699219 24.855469 C 20.398438 1.128906 50.734375 -7 74.460938 6.699219 C 82.003906 11.050781 88.265625 17.316406 92.621094 24.855469 L 81.878906 31.054688 C 71.605469 13.261719 48.851562 7.164062 31.054688 17.4375 C 13.261719 27.710938 7.164062 50.464844 17.4375 68.261719 C 27.710938 86.058594 50.464844 92.152344 68.261719 81.878906 C 73.917969 78.613281 78.617188 73.917969 81.878906 68.261719 Z M 92.621094 74.460938" />
      <!-- = 99.213pt + 12.402pt -->
      <glyph
          glyph-name="D"
          unicode="D"
          horiz-adv-x="111.615pt"
          d="M 0 0 L 49.605469 0 C 77.003906 0 99.214844 22.207031 99.214844 49.605469 C 99.214844 77.003906 77.003906 99.214844 49.605469 99.214844 L 0 99.214844 L 12.402344 86.8125 L 49.605469 86.8125 C 70.15625 86.8125 86.8125 70.152344 86.8125 49.605469 C 86.8125 29.058594 70.15625 12.402344 49.605469 12.402344 L 12.402344 12.402344 Z M 0 0 M 0 0 L 0 99.214844 L 12.402344 86.8125 L 12.402344 12.402344 Z M 0 0" />
      <!-- = 86.811pt + 12.402pt -->
      <glyph
          glyph-name="E"
          unicode="E"
          horiz-adv-x="99.213pt"
          d="M 0 99.214844 L 86.8125 99.214844 L 86.8125 86.8125 L 12.402344 86.8125 L 12.402344 55.808594 L 80.609375 55.808594 L 80.609375 43.40625 L 12.402344 43.40625 L 12.402344 12.402344 L 86.8125 12.402344 L 86.8125 0 L 0 0 Z M 0 99.214844" />
      <!-- = 86.811pt + 12.402pt -->
      <glyph
          glyph-name="F"
          unicode="F"
          horiz-adv-x="99.213pt"
          d="M 0 99.214844 L 86.8125 99.214844 L 86.8125 86.8125 L 12.402344 86.8125 L 12.402344 55.808594 L 80.609375 55.808594 L 80.609375 43.40625 L 12.402344 43.40625 L 12.402344 0 L 0 0 Z M 0 99.214844" />
      <!-- = 100pt + 12.402pt -->
      <glyph
          glyph-name="G"
          unicode="G"
          horiz-adv-x="112.402pt"
          d="M 92.621094 74.460938 C 78.921875 98.1875 48.582031 106.320312 24.855469 92.621094 C 1.128906 78.921875 -7 48.582031 6.699219 24.855469 C 20.398438 1.128906 50.738281 -7 74.464844 6.699219 C 91.75 16.679688 101.371094 36.054688 98.875 55.859375 L 49.660156 55.859375 L 49.660156 43.457031 L 86.34375 43.457031 C 82.886719 23.203125 63.664062 9.585938 43.410156 13.042969 C 23.15625 16.5 9.539062 35.71875 12.996094 55.976562 C 16.453125 76.230469 35.671875 89.847656 55.925781 86.390625 C 66.835938 84.527344 76.355469 77.902344 81.890625 68.320312 Z M 92.621094 74.460938" />
      <!-- = 99.213pt + 12.402pt -->
      <glyph
          glyph-name="H"
          unicode="H"
          horiz-adv-x="111.615pt"
          d="M 0 0 L 12.402344 0 L 12.402344 43.40625 L 86.8125 43.40625 L 86.8125 0 L 99.214844 0 L 99.214844 99.214844 L 86.8125 99.214844 L 86.8125 55.808594 L 12.402344 55.808594 L 12.402344 99.214844 L 0 99.214844 Z M 0 0" />
      <!-- = 12.402pt + 12.402pt -->
      <glyph
          glyph-name="I"
          unicode="I"
          horiz-adv-x="24.804pt"
          d="M 0 0 L 12.402344 0 L 12.402344 99.214844 L 0 99.214844 Z M 0 0" />
      <!-- = 27.904pt + 12.402pt -->
      <glyph
          glyph-name="J"
          unicode="J"
          horiz-adv-x="40.306pt"
          d="M 15.503906 99.214844 L 27.902344 99.214844 L 27.902344 27.902344 C 27.902344 12.492188 15.410156 0 0 0 L 0 12.402344 C 8.5625 12.402344 15.503906 19.339844 15.503906 27.902344 Z M 15.503906 99.214844" />
      <!-- = 105.413ptpt + 12.402pt -->
      <glyph
          glyph-name="K"
          unicode="K"
          horiz-adv-x="117.815pt"
          d="M 0 99.214844 L 12.402344 99.214844 L 12.402344 17.539062 L 96.644531 99.214844 L 105.414062 99.214844 L 105.414062 90.441406 L 64.578125 49.605469 L 105.414062 8.769531 L 105.414062 0 L 96.644531 0 L 55.808594 40.835938 L 12.402344 0 L 0 0 Z M 0 99.214844" />
      <!-- = 86.811pt + 12.402pt -->
      <glyph
          glyph-name="L"
          unicode="L"
          horiz-adv-x="99.213pt"
          d="M 0 99.214844 L 12.402344 99.214844 L 12.402344 12.402344 L 86.8125 12.402344 L 86.8125 0 L 0 0 Z M 0 99.214844" />
      <!-- = 114.56pt + 12.402pt -->
      <glyph
          glyph-name="M"
          unicode="M"
          horiz-adv-x="126.962pt"
          d="M 14.320312 99.214844 L 0 99.214844 L 0 0 L 14.320312 0 L 14.320312 74.410156 L 57.28125 0 L 100.242188 74.410156 L 100.242188 0 L 114.5625 0 L 114.5625 99.214844 L 100.242188 99.214844 L 57.28125 24.800781 Z M 14.320312 99.214844" />
      <!-- = 111.614pt + 12.402pt -->
      <glyph
          glyph-name="N"
          unicode="N"
          horiz-adv-x="124.016pt"
          d="M 0 99.214844 L 12.402344 99.214844 L 99.214844 17.539062 L 99.214844 99.214844 L 111.617188 99.214844 L 111.617188 0 L 99.214844 0 L 12.402344 81.675781 L 12.402344 0 L 0 0 Z M 0 99.214844" />
      <!-- = 99.213pt + 12.402pt -->
      <glyph
          glyph-name="O"
          unicode="O"
          horiz-adv-x="111.615pt"
          d="M 49.605469 0 C 22.207031 0 0 22.210938 0 49.605469 C 0 77.003906 22.207031 99.214844 49.605469 99.214844 L 49.605469 86.8125 C 29.058594 86.8125 12.402344 70.15625 12.402344 49.605469 C 12.402344 29.058594 29.058594 12.402344 49.605469 12.402344 Z M 49.605469 0 M 49.605469 99.214844 C 77.003906 99.214844 99.214844 77.003906 99.214844 49.605469 C 99.214844 22.210938 77.003906 0 49.605469 0 L 49.605469 12.402344 C 70.152344 12.402344 86.8125 29.058594 86.8125 49.605469 C 86.8125 70.15625 70.152344 86.8125 49.605469 86.8125 Z M 49.605469 99.214844" />
      <!-- = 99.213pt + 12.402pt -->
      <glyph
          glyph-name="P"
          unicode="P"
          horiz-adv-x="111.615pt"
          d="M 0 99.214844 L 12.402344 99.214844 L 12.402344 0 L 0 0 Z M 0 99.214844 M 12.402344 99.214844 L 71.308594 99.214844 C 86.722656 99.214844 99.214844 86.71875 99.214844 71.308594 C 99.214844 55.898438 86.722656 43.40625 71.308594 43.40625 L 12.402344 43.40625 L 12.402344 55.808594 L 71.308594 55.808594 C 79.871094 55.808594 86.8125 62.746094 86.8125 71.308594 C 86.8125 79.871094 79.871094 86.8125 71.308594 86.8125 L 12.402344 86.8125 Z M 12.402344 99.214844" />
      <!-- = 99.213pt + 12.402pt -->
      <glyph
          glyph-name="Q"
          unicode="Q"
          horiz-adv-x="111.615pt"
          d="M 49.605469 99.214844 C 22.210938 99.214844 0 77.003906 0 49.605469 C 0 22.207031 22.210938 0 49.605469 0 L 49.605469 12.402344 C 29.058594 12.402344 12.402344 29.058594 12.402344 49.605469 C 12.402344 70.152344 29.058594 86.8125 49.605469 86.8125 Z M 49.605469 99.214844 M 49.605469 0 C 60.621094 0 71.324219 3.667969 80.023438 10.421875 L 90.441406 0 L 99.214844 0 L 99.214844 8.769531 L 88.792969 19.1875 C 105.59375 40.828125 101.667969 71.988281 80.023438 88.789062 C 71.324219 95.539062 60.621094 99.210938 49.609375 99.210938 L 49.605469 86.8125 C 70.15625 86.8125 86.8125 70.152344 86.8125 49.605469 C 86.8125 29.058594 70.15625 12.402344 49.605469 12.402344 Z M 49.605469 0" />
      <!-- = 99.213pt + 12.402pt -->
      <glyph
          glyph-name="R"
          unicode="R"
          horiz-adv-x="111.615pt"
          d="M 0 99.214844 L 12.402344 99.214844 L 12.402344 0 L 0 0 Z M 0 99.214844 M 12.402344 99.214844 L 71.308594 99.214844 C 86.722656 99.214844 99.214844 86.71875 99.214844 71.308594 C 99.214844 62.882812 95.402344 54.902344 88.847656 49.605469 C 95.402344 44.308594 99.214844 36.332031 99.214844 27.902344 L 99.214844 0 L 86.8125 0 L 86.8125 27.902344 C 86.8125 36.464844 79.871094 43.40625 71.308594 43.40625 L 12.402344 43.40625 L 12.402344 55.808594 L 71.308594 55.808594 C 79.871094 55.808594 86.8125 62.746094 86.8125 71.308594 C 86.8125 79.871094 79.871094 86.8125 71.308594 86.8125 L 12.402344 86.8125 Z M 12.402344 99.214844" />
      <!-- = 99.213pt + 12.402pt -->
      <glyph
          glyph-name="S"
          unicode="S"
          horiz-adv-x="111.615pt"
          d="M 99.214844 71.308594 C 99.214844 86.71875 86.722656 99.214844 71.308594 99.214844 L 27.902344 99.214844 C 12.492188 99.214844 0 86.71875 0 71.308594 C 0 55.898438 12.492188 43.40625 27.902344 43.40625 L 71.308594 43.40625 C 79.871094 43.40625 86.8125 36.464844 86.8125 27.902344 C 86.8125 19.339844 79.871094 12.402344 71.308594 12.402344 L 27.902344 12.402344 C 19.34375 12.402344 12.402344 19.339844 12.402344 27.902344 L 0 27.902344 C 0 12.492188 12.492188 0 27.902344 0 L 71.308594 0 C 86.722656 0 99.214844 12.492188 99.214844 27.902344 C 99.214844 43.3125 86.722656 55.808594 71.308594 55.808594 L 27.902344 55.808594 C 19.34375 55.808594 12.402344 62.746094 12.402344 71.308594 C 12.402344 79.871094 19.34375 86.8125 27.902344 86.8125 L 71.308594 86.8125 C 79.871094 86.8125 86.8125 79.871094 86.8125 71.308594 Z M 99.214844 71.308594" />
      <!-- = 99.213pt + 12.402pt -->
      <glyph
          glyph-name="T"
          unicode="T"
          horiz-adv-x="111.615pt"
          d="M 0 99.214844 L 99.214844 99.214844 L 99.214844 86.8125 L 55.808594 86.8125 L 55.808594 0 L 43.40625 0 L 43.40625 86.8125 L 0 86.8125 Z M 0 99.214844" />
      <!-- = 99.213pt + 12.402pt -->
      <glyph
          glyph-name="U"
          unicode="U"
          horiz-adv-x="111.615pt"
          d="M 0 99.214844 L 12.402344 99.214844 L 12.402344 49.605469 C 12.402344 29.058594 29.058594 12.402344 49.605469 12.402344 C 70.15625 12.402344 86.8125 29.058594 86.8125 49.605469 L 86.8125 99.214844 L 99.214844 99.214844 L 99.214844 49.605469 C 99.214844 22.207031 77.003906 0 49.605469 0 C 22.210938 0 0 22.207031 0 49.605469 Z M 0 99.214844" />
      <!-- = 114.56pt + 12.402pt -->
      <glyph
          glyph-name="V"
          unicode="V"
          horiz-adv-x="126.962pt"
          d="M 14.320312 99.214844 L 0 99.214844 L 57.28125 0 L 114.5625 99.214844 L 100.242188 99.214844 L 57.28125 24.800781 Z M 14.320312 99.214844" />
      <!-- = 157.519pt + 12.402pt -->
      <glyph
          glyph-name="W"
          unicode="W"
          horiz-adv-x="169.921pt"
          d="M 57.28125 0 L 0 99.214844 L 14.320312 99.214844 L 57.28125 24.800781 L 71.601562 49.605469 L 42.960938 99.214844 L 57.28125 99.214844 L 78.761719 62.007812 L 100.242188 99.214844 L 114.558594 99.214844 L 85.921875 49.605469 L 100.242188 24.800781 L 143.199219 99.214844 L 157.519531 99.214844 L 100.242188 0 L 78.761719 37.203125 Z M 57.28125 0" />
      <!-- = 99.213pt + 12.402pt -->
      <glyph
          glyph-name="X"
          unicode="X"
          horiz-adv-x="111.615pt"
          d="M 99.214844 0 L 99.214844 8.769531 L 58.375 49.605469 L 99.214844 90.441406 L 99.214844 99.214844 L 90.441406 99.214844 L 49.605469 58.375 L 8.769531 99.214844 L 0 99.214844 L 0 90.441406 L 40.835938 49.605469 L 0 8.769531 L 0 0 L 8.769531 0 L 49.605469 40.835938 L 90.441406 0 Z M 99.214844 0" />
      <!-- = 99.213pt + 12.402pt -->
      <glyph
          glyph-name="Y"
          unicode="Y"
          horiz-adv-x="111.615pt"
          d="M 99.214844 99.214844 L 99.214844 90.441406 L 55.808594 47.039062 L 55.808594 0 L 43.40625 0 L 43.40625 47.039062 L 0 90.441406 L 0 99.214844 L 8.769531 99.214844 L 49.605469 58.375 L 90.441406 99.214844 Z M 99.214844 99.214844" />
      <!-- = 86.811pt + 12.402pt -->
      <glyph
          glyph-name="Z"
          unicode="Z"
          horiz-adv-x="99.213pt"
          d="M 0 99.214844 L 0 86.8125 L 69.273438 86.8125 L 0 12.402344 L 0 0 L 86.8125 0 L 86.8125 12.402344 L 17.535156 12.402344 L 86.8125 86.8125 L 86.8125 99.214844 Z M 0 99.214844" />
      </font>
</defs>
</svg>
