<?xml version="1.0" encoding="UTF-8"?>
<svg xmlns="http://www.w3.org/2000/svg" xmlns:xlink="http://www.w3.org/1999/xlink" width="218.64pt" height="36.49pt" viewBox="0 0 218.64 36.49" version="1.1">
<g id="surface1">
<path style=" stroke:none;fill-rule:nonzero;fill:rgb(0%,0%,0%);fill-opacity:1;" d="M 92.863281 2.152344 L 95.632812 2.152344 C 95.804688 2.152344 95.984375 2.152344 95.984375 1.953125 C 95.984375 1.753906 95.804688 1.753906 95.632812 1.753906 L 89.703125 1.753906 C 89.554688 1.753906 89.347656 1.753906 89.347656 1.953125 C 89.347656 2.152344 89.554688 2.152344 89.703125 2.152344 L 92.464844 2.152344 L 92.464844 8.03125 C 92.464844 8.179688 92.464844 8.390625 92.664062 8.390625 C 92.863281 8.390625 92.863281 8.210938 92.863281 8.03125 L 92.863281 2.152344 "/>
<path style=" stroke:none;fill-rule:nonzero;fill:rgb(0%,0%,0%);fill-opacity:1;" d="M 113.414062 4.175781 C 113.582031 4.175781 113.773438 4.175781 113.773438 3.980469 C 113.773438 3.78125 113.59375 3.78125 113.425781 3.78125 L 107.492188 3.78125 C 107.324219 3.78125 107.148438 3.78125 107.148438 3.980469 C 107.148438 4.175781 107.34375 4.175781 107.503906 4.175781 Z M 113.425781 8.03125 C 113.59375 8.03125 113.773438 8.03125 113.773438 7.832031 C 113.773438 7.636719 113.582031 7.636719 113.414062 7.636719 L 107.503906 7.636719 C 107.34375 7.636719 107.148438 7.636719 107.148438 7.832031 C 107.148438 8.03125 107.324219 8.03125 107.492188 8.03125 Z M 113.425781 6.105469 C 113.59375 6.105469 113.773438 6.105469 113.773438 5.90625 C 113.773438 5.707031 113.59375 5.707031 113.425781 5.707031 L 107.492188 5.707031 C 107.324219 5.707031 107.148438 5.707031 107.148438 5.90625 C 107.148438 6.105469 107.324219 6.105469 107.492188 6.105469 L 113.425781 6.105469 "/>
<path style=" stroke:none;fill-rule:nonzero;fill:rgb(0%,0%,0%);fill-opacity:1;" d="M 130.539062 4.328125 L 124.546875 4.328125 L 124.546875 4.722656 L 130.140625 4.722656 L 130.140625 6.34375 L 130.539062 6.34375 L 130.539062 4.328125 "/>
<path style=" stroke:none;fill-rule:nonzero;fill:rgb(0%,0%,0%);fill-opacity:1;" d="M 135.164062 2.113281 C 135.164062 1.933594 135.164062 1.753906 134.964844 1.753906 C 134.765625 1.753906 134.765625 1.964844 134.765625 2.113281 L 134.765625 7.992188 L 132.003906 7.992188 C 131.855469 7.992188 131.648438 7.992188 131.648438 8.191406 C 131.648438 8.390625 131.855469 8.390625 132.003906 8.390625 L 137.933594 8.390625 C 138.101562 8.390625 138.28125 8.390625 138.28125 8.191406 C 138.28125 7.992188 138.101562 7.992188 137.933594 7.992188 L 135.164062 7.992188 L 135.164062 2.113281 "/>
<path style=" stroke:none;fill-rule:nonzero;fill:rgb(0%,0%,0%);fill-opacity:1;" d="M 6.976562 23.035156 C 6.917969 22.519531 6.886719 21.554688 6.878906 21.097656 L 6.976562 21.019531 C 7.164062 21.070312 7.363281 21.097656 7.5625 21.097656 C 9.101562 21.097656 10.144531 19.488281 10.144531 18.027344 C 10.144531 17.285156 9.796875 16.371094 8.785156 16.371094 C 8.101562 16.371094 7.492188 16.679688 6.957031 17.105469 L 6.878906 17.066406 C 6.835938 16.628906 6.679688 16.320312 6.230469 16.320312 C 5.796875 16.320312 5.277344 16.679688 4.882812 16.996094 L 5.019531 17.183594 C 5.257812 17.046875 5.535156 16.898438 5.746094 16.898438 C 6.042969 16.898438 6.132812 17.414062 6.132812 17.859375 L 6.132812 20.054688 C 6.132812 20.621094 6.121094 22.660156 6.074219 23.234375 L 6.171875 23.34375 Z M 6.898438 20.332031 C 6.898438 20.324219 6.878906 19.300781 6.878906 18.488281 C 6.878906 18.378906 6.90625 17.621094 6.90625 17.5625 C 7.375 17.195312 7.78125 16.988281 8.289062 16.988281 C 8.921875 16.988281 9.3125 17.75 9.3125 18.617188 C 9.3125 19.558594 8.972656 20.703125 7.773438 20.703125 C 7.445312 20.703125 7.136719 20.550781 6.898438 20.332031 "/>
<path style=" stroke:none;fill-rule:nonzero;fill:rgb(0%,0%,0%);fill-opacity:1;" d="M 11.992188 23.074219 C 12.699219 22.261719 13.027344 21.753906 13.027344 21.257812 C 13.027344 20.910156 12.679688 19.621094 12.152344 19.621094 C 11.902344 19.621094 11.566406 19.839844 11.566406 20.097656 C 11.566406 20.195312 11.59375 20.304688 11.632812 20.355469 L 12.328125 21.179688 C 12.421875 21.289062 12.460938 21.457031 12.460938 21.597656 C 12.460938 21.992188 12.152344 22.480469 11.804688 22.9375 L 11.992188 23.074219 "/>
<path style=" stroke:none;fill-rule:nonzero;fill:rgb(0%,0%,0%);fill-opacity:1;" d="M 19.460938 23.402344 L 20.265625 23.117188 C 20.1875 22.230469 20.148438 21.078125 20.148438 19.867188 C 20.148438 18.554688 20.1875 17.175781 20.289062 16.023438 L 20.078125 15.984375 L 19.640625 16.570312 L 19.550781 16.589844 C 19.273438 16.449219 18.875 16.3125 18.570312 16.3125 C 16.890625 16.3125 16.183594 17.761719 16.183594 19.140625 C 16.183594 19.976562 16.5625 21.058594 17.605469 21.058594 C 18.230469 21.058594 18.804688 20.78125 19.3125 20.402344 L 19.382812 20.453125 C 19.351562 21.40625 19.332031 22.839844 19.304688 23.246094 Z M 19.382812 19.945312 C 19.054688 20.234375 18.617188 20.441406 18.230469 20.441406 C 17.414062 20.441406 17.097656 19.699219 17.097656 18.875 C 17.097656 17.761719 17.4375 16.679688 18.558594 16.679688 C 18.816406 16.679688 19.046875 16.816406 19.222656 16.996094 C 19.382812 17.15625 19.382812 17.453125 19.382812 17.703125 L 19.382812 19.945312 "/>
<path style=" stroke:none;fill-rule:nonzero;fill:rgb(0%,0%,0%);fill-opacity:1;" d="M 29.542969 18.707031 C 29.710938 18.707031 29.890625 18.707031 29.890625 18.507812 C 29.890625 18.308594 29.710938 18.308594 29.542969 18.308594 L 25.332031 18.308594 C 25.453125 16.976562 26.59375 16.023438 27.992188 16.023438 L 29.542969 16.023438 C 29.710938 16.023438 29.890625 16.023438 29.890625 15.824219 C 29.890625 15.625 29.710938 15.625 29.542969 15.625 L 27.972656 15.625 C 26.273438 15.625 24.925781 16.917969 24.925781 18.507812 C 24.925781 20.097656 26.273438 21.386719 27.972656 21.386719 L 29.542969 21.386719 C 29.710938 21.386719 29.890625 21.386719 29.890625 21.1875 C 29.890625 20.988281 29.710938 20.988281 29.542969 20.988281 L 27.992188 20.988281 C 26.59375 20.988281 25.453125 20.035156 25.332031 18.707031 L 29.542969 18.707031 "/>
<path style=" stroke:none;fill-rule:nonzero;fill:rgb(0%,0%,0%);fill-opacity:1;" d="M 35.585938 15.605469 C 35.585938 15.4375 35.636719 14.433594 35.664062 14.292969 L 35.59375 14.234375 L 33.917969 14.234375 L 33.835938 14.304688 L 33.859375 14.503906 C 33.996094 14.503906 34.730469 14.621094 34.730469 15.019531 C 34.730469 15.21875 34.730469 15.40625 34.730469 15.605469 C 34.730469 16.378906 34.710938 17.164062 34.710938 17.929688 C 34.710938 18.535156 34.722656 19.269531 34.789062 19.730469 C 34.910156 20.316406 35.238281 21.078125 36.617188 21.078125 C 37.445312 21.078125 38.238281 20.742188 38.933594 20.292969 L 39.011719 20.355469 C 39.011719 20.652344 38.953125 21.039062 39.339844 21.039062 C 39.648438 21.039062 40.355469 20.832031 40.859375 20.671875 L 40.910156 20.601562 L 40.871094 20.433594 C 40.671875 20.453125 40.492188 20.511719 40.296875 20.511719 C 39.816406 20.511719 39.816406 19.796875 39.816406 18.984375 C 39.816406 17.375 39.828125 15.296875 39.976562 14.164062 L 39.917969 14.097656 L 39.042969 14.441406 C 39.023438 16.25 39.003906 18.070312 39.003906 19.886719 C 38.46875 20.207031 37.871094 20.472656 37.253906 20.472656 C 36.289062 20.472656 35.507812 19.988281 35.507812 18.316406 L 35.585938 15.605469 "/>
<path style=" stroke:none;fill-rule:nonzero;fill:rgb(0%,0%,0%);fill-opacity:1;" d="M 58.3125 17.722656 L 58.371094 17.324219 L 51.804688 17.324219 L 51.734375 17.722656 Z M 58.3125 19.679688 L 58.371094 19.28125 L 51.804688 19.28125 L 51.734375 19.679688 L 58.3125 19.679688 "/>
<path style=" stroke:none;fill-rule:nonzero;fill:rgb(0%,0%,0%);fill-opacity:1;" d="M 64.660156 17.742188 C 64.808594 17.878906 65.117188 18.179688 65.621094 18.507812 C 65.375 18.664062 65.054688 18.894531 64.660156 19.269531 L 57.914062 19.269531 C 57.746094 19.269531 57.554688 19.269531 57.554688 19.46875 C 57.554688 19.667969 57.734375 19.667969 57.90625 19.667969 L 64.261719 19.667969 C 63.863281 20.097656 63.25 20.917969 62.882812 21.953125 L 63.277344 21.953125 C 63.824219 20.453125 64.925781 19.230469 66.378906 18.507812 C 64.976562 17.8125 63.84375 16.609375 63.277344 15.058594 L 62.882812 15.058594 C 63.257812 16.101562 63.875 16.917969 64.261719 17.34375 L 57.90625 17.34375 C 57.734375 17.34375 57.554688 17.34375 57.554688 17.542969 C 57.554688 17.742188 57.746094 17.742188 57.914062 17.742188 L 64.660156 17.742188 "/>
<path style=" stroke:none;fill-rule:nonzero;fill:rgb(0%,0%,0%);fill-opacity:1;" d="M 78.976562 23.035156 C 78.917969 22.519531 78.886719 21.554688 78.878906 21.097656 L 78.976562 21.019531 C 79.164062 21.070312 79.363281 21.097656 79.5625 21.097656 C 81.101562 21.097656 82.144531 19.488281 82.144531 18.027344 C 82.144531 17.285156 81.796875 16.371094 80.785156 16.371094 C 80.101562 16.371094 79.492188 16.679688 78.957031 17.105469 L 78.878906 17.066406 C 78.835938 16.628906 78.679688 16.320312 78.230469 16.320312 C 77.796875 16.320312 77.277344 16.679688 76.882812 16.996094 L 77.019531 17.183594 C 77.257812 17.046875 77.535156 16.898438 77.746094 16.898438 C 78.042969 16.898438 78.132812 17.414062 78.132812 17.859375 L 78.132812 20.054688 C 78.132812 20.621094 78.121094 22.660156 78.074219 23.234375 L 78.171875 23.34375 Z M 78.898438 20.332031 C 78.898438 20.324219 78.878906 19.300781 78.878906 18.488281 C 78.878906 18.378906 78.90625 17.621094 78.90625 17.5625 C 79.375 17.195312 79.78125 16.988281 80.289062 16.988281 C 80.921875 16.988281 81.3125 17.75 81.3125 18.617188 C 81.3125 19.558594 80.972656 20.703125 79.773438 20.703125 C 79.445312 20.703125 79.136719 20.550781 78.898438 20.332031 "/>
<path style="fill:none;stroke-width:3.98;stroke-linecap:butt;stroke-linejoin:miter;stroke:rgb(0%,0%,0%);stroke-opacity:1;stroke-miterlimit:10;" d="M 828.398438 239.314063 L 905.625 239.314063 " transform="matrix(0.1,0,0,-0.1,0,36.49)"/>
<path style=" stroke:none;fill-rule:nonzero;fill:rgb(0%,0%,0%);fill-opacity:1;" d="M 86.8125 13.90625 L 86.722656 13.898438 L 82.910156 20.890625 L 83.019531 21 L 83.304688 20.980469 L 86.753906 14.660156 L 90.011719 21.027344 L 90.429688 20.96875 L 86.8125 13.90625 "/>
<path style=" stroke:none;fill-rule:nonzero;fill:rgb(0%,0%,0%);fill-opacity:1;" d="M 94.761719 23.402344 L 95.566406 23.117188 C 95.488281 22.230469 95.445312 21.078125 95.445312 19.867188 C 95.445312 18.554688 95.488281 17.175781 95.585938 16.023438 L 95.378906 15.984375 L 94.941406 16.570312 L 94.851562 16.589844 C 94.574219 16.449219 94.175781 16.3125 93.867188 16.3125 C 92.1875 16.3125 91.484375 17.761719 91.484375 19.140625 C 91.484375 19.976562 91.859375 21.058594 92.90625 21.058594 C 93.53125 21.058594 94.105469 20.78125 94.613281 20.402344 L 94.683594 20.453125 C 94.652344 21.40625 94.632812 22.839844 94.601562 23.246094 Z M 94.683594 19.945312 C 94.355469 20.234375 93.917969 20.441406 93.53125 20.441406 C 92.714844 20.441406 92.398438 19.699219 92.398438 18.875 C 92.398438 17.761719 92.734375 16.679688 93.859375 16.679688 C 94.117188 16.679688 94.34375 16.816406 94.523438 16.996094 C 94.683594 17.15625 94.683594 17.453125 94.683594 17.703125 L 94.683594 19.945312 "/>
<path style=" stroke:none;fill-rule:nonzero;fill:rgb(0%,0%,0%);fill-opacity:1;" d="M 113.414062 16.777344 C 113.582031 16.777344 113.773438 16.777344 113.773438 16.578125 C 113.773438 16.378906 113.59375 16.378906 113.425781 16.378906 L 107.492188 16.378906 C 107.324219 16.378906 107.148438 16.378906 107.148438 16.578125 C 107.148438 16.777344 107.34375 16.777344 107.503906 16.777344 Z M 113.425781 20.632812 C 113.59375 20.632812 113.773438 20.632812 113.773438 20.433594 C 113.773438 20.234375 113.582031 20.234375 113.414062 20.234375 L 107.503906 20.234375 C 107.34375 20.234375 107.148438 20.234375 107.148438 20.433594 C 107.148438 20.632812 107.324219 20.632812 107.492188 20.632812 Z M 113.425781 18.707031 C 113.59375 18.707031 113.773438 18.707031 113.773438 18.507812 C 113.773438 18.308594 113.59375 18.308594 113.425781 18.308594 L 107.492188 18.308594 C 107.324219 18.308594 107.148438 18.308594 107.148438 18.507812 C 107.148438 18.707031 107.324219 18.707031 107.492188 18.707031 L 113.425781 18.707031 "/>
<path style=" stroke:none;fill-rule:nonzero;fill:rgb(0%,0%,0%);fill-opacity:1;" d="M 127.289062 22.609375 C 126.007812 22.359375 125.9375 19.945312 125.9375 18.269531 C 125.9375 16.769531 126.027344 14.246094 127.289062 13.925781 L 127.289062 13.660156 C 126.257812 13.839844 125.808594 14.96875 125.621094 15.925781 C 125.472656 16.667969 125.421875 17.441406 125.421875 18.207031 C 125.421875 19.011719 125.464844 19.816406 125.601562 20.613281 C 125.769531 21.554688 126.246094 22.757812 127.289062 22.847656 L 127.289062 22.609375 "/>
<path style=" stroke:none;fill-rule:nonzero;fill:rgb(0%,0%,0%);fill-opacity:1;" d="M 130.078125 23.035156 C 130.015625 22.519531 129.988281 21.554688 129.976562 21.097656 L 130.078125 21.019531 C 130.265625 21.070312 130.464844 21.097656 130.664062 21.097656 C 132.203125 21.097656 133.246094 19.488281 133.246094 18.027344 C 133.246094 17.285156 132.898438 16.371094 131.882812 16.371094 C 131.199219 16.371094 130.59375 16.679688 130.054688 17.105469 L 129.976562 17.066406 C 129.9375 16.628906 129.777344 16.320312 129.332031 16.320312 C 128.894531 16.320312 128.378906 16.679688 127.980469 16.996094 L 128.121094 17.183594 C 128.359375 17.046875 128.636719 16.898438 128.84375 16.898438 C 129.144531 16.898438 129.234375 17.414062 129.234375 17.859375 L 129.234375 20.054688 C 129.234375 20.621094 129.222656 22.660156 129.171875 23.234375 L 129.273438 23.34375 Z M 129.996094 20.332031 C 129.996094 20.324219 129.976562 19.300781 129.976562 18.488281 C 129.976562 18.378906 130.007812 17.621094 130.007812 17.5625 C 130.472656 17.195312 130.882812 16.988281 131.386719 16.988281 C 132.023438 16.988281 132.410156 17.75 132.410156 18.617188 C 132.410156 19.558594 132.074219 20.703125 130.871094 20.703125 C 130.542969 20.703125 130.234375 20.550781 129.996094 20.332031 "/>
<path style=" stroke:none;fill-rule:nonzero;fill:rgb(0%,0%,0%);fill-opacity:1;" d="M 143.710938 14.195312 L 143.671875 14.15625 L 143.28125 14.15625 L 139.925781 20.402344 L 136.675781 14.195312 L 136.257812 14.265625 L 139.84375 21.109375 L 139.996094 21.109375 L 143.710938 14.195312 "/>
<path style=" stroke:none;fill-rule:nonzero;fill:rgb(0%,0%,0%);fill-opacity:1;" d="M 152.4375 16.925781 L 146.449219 16.925781 L 146.449219 17.324219 L 152.039062 17.324219 L 152.039062 18.941406 L 152.4375 18.941406 L 152.4375 16.925781 "/>
<path style=" stroke:none;fill-rule:nonzero;fill:rgb(0%,0%,0%);fill-opacity:1;" d="M 157.164062 23.402344 L 157.96875 23.117188 C 157.886719 22.230469 157.847656 21.078125 157.847656 19.867188 C 157.847656 18.554688 157.886719 17.175781 157.988281 16.023438 L 157.777344 15.984375 L 157.339844 16.570312 L 157.253906 16.589844 C 156.972656 16.449219 156.578125 16.3125 156.269531 16.3125 C 154.589844 16.3125 153.882812 17.761719 153.882812 19.140625 C 153.882812 19.976562 154.261719 21.058594 155.304688 21.058594 C 155.929688 21.058594 156.507812 20.78125 157.011719 20.402344 L 157.082031 20.453125 C 157.054688 21.40625 157.03125 22.839844 157.003906 23.246094 Z M 157.082031 19.945312 C 156.753906 20.234375 156.316406 20.441406 155.929688 20.441406 C 155.117188 20.441406 154.796875 19.699219 154.796875 18.875 C 154.796875 17.761719 155.136719 16.679688 156.257812 16.679688 C 156.515625 16.679688 156.746094 16.816406 156.921875 16.996094 C 157.082031 17.15625 157.082031 17.453125 157.082031 17.703125 L 157.082031 19.945312 "/>
<path style=" stroke:none;fill-rule:nonzero;fill:rgb(0%,0%,0%);fill-opacity:1;" d="M 159.855469 13.945312 C 160.660156 14.234375 160.886719 15.167969 161.035156 15.914062 C 161.1875 16.679688 161.226562 17.472656 161.226562 18.246094 C 161.226562 19.378906 161.246094 20.59375 160.886719 21.65625 C 160.6875 22.25 160.3125 22.511719 159.855469 22.628906 L 159.855469 22.867188 C 161.632812 22.636719 161.742188 19.988281 161.742188 18.289062 C 161.742188 16.628906 161.53125 14.027344 159.855469 13.679688 L 159.855469 13.945312 "/>
<path style=" stroke:none;fill-rule:nonzero;fill:rgb(0%,0%,0%);fill-opacity:1;" d="M 169.113281 13.90625 L 169.023438 13.898438 L 165.210938 20.890625 L 165.320312 21 L 165.605469 20.980469 L 169.054688 14.660156 L 172.3125 21.027344 L 172.730469 20.96875 L 169.113281 13.90625 "/>
<path style=" stroke:none;fill-rule:nonzero;fill:rgb(0%,0%,0%);fill-opacity:1;" d="M 177.992188 22.609375 C 176.710938 22.359375 176.640625 19.945312 176.640625 18.269531 C 176.640625 16.769531 176.726562 14.246094 177.992188 13.925781 L 177.992188 13.660156 C 176.957031 13.839844 176.507812 14.96875 176.320312 15.925781 C 176.171875 16.667969 176.121094 17.441406 176.121094 18.207031 C 176.121094 19.011719 176.164062 19.816406 176.300781 20.613281 C 176.46875 21.554688 176.945312 22.757812 177.992188 22.847656 L 177.992188 22.609375 "/>
<path style=" stroke:none;fill-rule:nonzero;fill:rgb(0%,0%,0%);fill-opacity:1;" d="M 185.140625 16.925781 L 179.148438 16.925781 L 179.148438 17.324219 L 184.742188 17.324219 L 184.742188 18.941406 L 185.140625 18.941406 L 185.140625 16.925781 "/>
<path style=" stroke:none;fill-rule:nonzero;fill:rgb(0%,0%,0%);fill-opacity:1;" d="M 187.675781 23.035156 C 187.617188 22.519531 187.589844 21.554688 187.578125 21.097656 L 187.675781 21.019531 C 187.867188 21.070312 188.0625 21.097656 188.261719 21.097656 C 189.804688 21.097656 190.84375 19.488281 190.84375 18.027344 C 190.84375 17.285156 190.496094 16.371094 189.484375 16.371094 C 188.800781 16.371094 188.195312 16.679688 187.65625 17.105469 L 187.578125 17.066406 C 187.539062 16.628906 187.378906 16.320312 186.929688 16.320312 C 186.496094 16.320312 185.976562 16.679688 185.582031 16.996094 L 185.71875 17.183594 C 185.957031 17.046875 186.234375 16.898438 186.445312 16.898438 C 186.742188 16.898438 186.832031 17.414062 186.832031 17.859375 L 186.832031 20.054688 C 186.832031 20.621094 186.820312 22.660156 186.773438 23.234375 L 186.871094 23.34375 Z M 187.597656 20.332031 C 187.597656 20.324219 187.578125 19.300781 187.578125 18.488281 C 187.578125 18.378906 187.609375 17.621094 187.609375 17.5625 C 188.074219 17.195312 188.480469 16.988281 188.988281 16.988281 C 189.621094 16.988281 190.011719 17.75 190.011719 18.617188 C 190.011719 19.558594 189.671875 20.703125 188.472656 20.703125 C 188.144531 20.703125 187.835938 20.550781 187.597656 20.332031 "/>
<path style=" stroke:none;fill-rule:nonzero;fill:rgb(0%,0%,0%);fill-opacity:1;" d="M 201.308594 14.195312 L 201.269531 14.15625 L 200.882812 14.15625 L 197.523438 20.402344 L 194.277344 14.195312 L 193.859375 14.265625 L 197.445312 21.109375 L 197.59375 21.109375 L 201.308594 14.195312 "/>
<path style=" stroke:none;fill-rule:nonzero;fill:rgb(0%,0%,0%);fill-opacity:1;" d="M 207.964844 23.402344 L 208.765625 23.117188 C 208.6875 22.230469 208.648438 21.078125 208.648438 19.867188 C 208.648438 18.554688 208.6875 17.175781 208.789062 16.023438 L 208.578125 15.984375 L 208.140625 16.570312 L 208.050781 16.589844 C 207.773438 16.449219 207.378906 16.3125 207.070312 16.3125 C 205.390625 16.3125 204.683594 17.761719 204.683594 19.140625 C 204.683594 19.976562 205.0625 21.058594 206.105469 21.058594 C 206.730469 21.058594 207.304688 20.78125 207.8125 20.402344 L 207.882812 20.453125 C 207.851562 21.40625 207.832031 22.839844 207.804688 23.246094 Z M 207.882812 19.945312 C 207.554688 20.234375 207.117188 20.441406 206.730469 20.441406 C 205.914062 20.441406 205.597656 19.699219 205.597656 18.875 C 205.597656 17.761719 205.9375 16.679688 207.058594 16.679688 C 207.316406 16.679688 207.546875 16.816406 207.722656 16.996094 C 207.882812 17.15625 207.882812 17.453125 207.882812 17.703125 L 207.882812 19.945312 "/>
<path style=" stroke:none;fill-rule:nonzero;fill:rgb(0%,0%,0%);fill-opacity:1;" d="M 210.65625 13.945312 C 211.460938 14.234375 211.6875 15.167969 211.835938 15.914062 C 211.984375 16.679688 212.023438 17.472656 212.023438 18.246094 C 212.023438 19.378906 212.046875 20.59375 211.6875 21.65625 C 211.488281 22.25 211.109375 22.511719 210.65625 22.628906 L 210.65625 22.867188 C 212.433594 22.636719 212.542969 19.988281 212.542969 18.289062 C 212.542969 16.628906 212.332031 14.027344 210.65625 13.679688 L 210.65625 13.945312 "/>
<path style=" stroke:none;fill-rule:nonzero;fill:rgb(0%,0%,0%);fill-opacity:1;" d="M 6.976562 34.9375 C 6.917969 34.417969 6.886719 33.457031 6.878906 33 L 6.976562 32.917969 C 7.164062 32.96875 7.363281 33 7.5625 33 C 9.101562 33 10.144531 31.390625 10.144531 29.929688 C 10.144531 29.183594 9.796875 28.269531 8.785156 28.269531 C 8.101562 28.269531 7.492188 28.578125 6.957031 29.003906 L 6.878906 28.964844 C 6.835938 28.527344 6.679688 28.222656 6.230469 28.222656 C 5.796875 28.222656 5.277344 28.578125 4.882812 28.894531 L 5.019531 29.085938 C 5.257812 28.945312 5.535156 28.796875 5.746094 28.796875 C 6.042969 28.796875 6.132812 29.3125 6.132812 29.761719 L 6.132812 31.957031 C 6.132812 32.523438 6.121094 34.558594 6.074219 35.136719 L 6.171875 35.246094 Z M 6.898438 32.234375 C 6.898438 32.222656 6.878906 31.199219 6.878906 30.386719 C 6.878906 30.277344 6.90625 29.523438 6.90625 29.464844 C 7.375 29.09375 7.78125 28.886719 8.289062 28.886719 C 8.921875 28.886719 9.3125 29.652344 9.3125 30.515625 C 9.3125 31.460938 8.972656 32.601562 7.773438 32.601562 C 7.445312 32.601562 7.136719 32.453125 6.898438 32.234375 "/>
<path style=" stroke:none;fill-rule:nonzero;fill:rgb(0%,0%,0%);fill-opacity:1;" d="M 11.992188 34.976562 C 12.699219 34.160156 13.027344 33.65625 13.027344 33.160156 C 13.027344 32.808594 12.679688 31.519531 12.152344 31.519531 C 11.902344 31.519531 11.566406 31.738281 11.566406 31.996094 C 11.566406 32.09375 11.59375 32.203125 11.632812 32.253906 L 12.328125 33.078125 C 12.421875 33.1875 12.460938 33.355469 12.460938 33.496094 C 12.460938 33.894531 12.152344 34.378906 11.804688 34.835938 L 11.992188 34.976562 "/>
<path style=" stroke:none;fill-rule:nonzero;fill:rgb(0%,0%,0%);fill-opacity:1;" d="M 19.460938 35.304688 L 20.265625 35.015625 C 20.1875 34.132812 20.148438 32.980469 20.148438 31.769531 C 20.148438 30.457031 20.1875 29.074219 20.289062 27.921875 L 20.078125 27.882812 L 19.640625 28.46875 L 19.550781 28.488281 C 19.273438 28.351562 18.875 28.210938 18.570312 28.210938 C 16.890625 28.210938 16.183594 29.660156 16.183594 31.042969 C 16.183594 31.878906 16.5625 32.960938 17.605469 32.960938 C 18.230469 32.960938 18.804688 32.679688 19.3125 32.304688 L 19.382812 32.355469 C 19.351562 33.308594 19.332031 34.738281 19.304688 35.144531 Z M 19.382812 31.847656 C 19.054688 32.136719 18.617188 32.34375 18.230469 32.34375 C 17.414062 32.34375 17.097656 31.597656 17.097656 30.773438 C 17.097656 29.660156 17.4375 28.578125 18.558594 28.578125 C 18.816406 28.578125 19.046875 28.71875 19.222656 28.894531 C 19.382812 29.054688 19.382812 29.355469 19.382812 29.601562 L 19.382812 31.847656 "/>
<path style=" stroke:none;fill-rule:nonzero;fill:rgb(0%,0%,0%);fill-opacity:1;" d="M 29.542969 30.605469 C 29.710938 30.605469 29.890625 30.605469 29.890625 30.40625 C 29.890625 30.207031 29.710938 30.207031 29.542969 30.207031 L 25.332031 30.207031 C 25.453125 28.878906 26.59375 27.921875 27.992188 27.921875 L 29.542969 27.921875 C 29.710938 27.921875 29.890625 27.921875 29.890625 27.722656 C 29.890625 27.527344 29.710938 27.527344 29.542969 27.527344 L 27.972656 27.527344 C 26.273438 27.527344 24.925781 28.816406 24.925781 30.40625 C 24.925781 31.996094 26.273438 33.285156 27.972656 33.285156 L 29.542969 33.285156 C 29.710938 33.285156 29.890625 33.285156 29.890625 33.089844 C 29.890625 32.890625 29.710938 32.890625 29.542969 32.890625 L 27.992188 32.890625 C 26.59375 32.890625 25.453125 31.9375 25.332031 30.605469 L 29.542969 30.605469 "/>
<path style=" stroke:none;fill-rule:nonzero;fill:rgb(0%,0%,0%);fill-opacity:1;" d="M 35.585938 27.503906 C 35.585938 27.335938 35.636719 26.332031 35.664062 26.195312 L 35.59375 26.136719 L 33.917969 26.136719 L 33.835938 26.203125 L 33.859375 26.402344 C 33.996094 26.402344 34.730469 26.523438 34.730469 26.917969 C 34.730469 27.117188 34.730469 27.308594 34.730469 27.503906 C 34.730469 28.28125 34.710938 29.066406 34.710938 29.832031 C 34.710938 30.4375 34.722656 31.171875 34.789062 31.628906 C 34.910156 32.214844 35.238281 32.980469 36.617188 32.980469 C 37.445312 32.980469 38.238281 32.640625 38.933594 32.195312 L 39.011719 32.253906 C 39.011719 32.550781 38.953125 32.941406 39.339844 32.941406 C 39.648438 32.941406 40.355469 32.730469 40.859375 32.574219 L 40.910156 32.503906 L 40.871094 32.332031 C 40.671875 32.355469 40.492188 32.414062 40.296875 32.414062 C 39.816406 32.414062 39.816406 31.699219 39.816406 30.882812 C 39.816406 29.273438 39.828125 27.199219 39.976562 26.066406 L 39.917969 25.996094 L 39.042969 26.34375 C 39.023438 28.152344 39.003906 29.96875 39.003906 31.785156 C 38.46875 32.105469 37.871094 32.371094 37.253906 32.371094 C 36.289062 32.371094 35.507812 31.886719 35.507812 30.21875 L 35.585938 27.503906 "/>
<path style=" stroke:none;fill-rule:nonzero;fill:rgb(0%,0%,0%);fill-opacity:1;" d="M 58.3125 29.621094 L 58.371094 29.222656 L 51.804688 29.222656 L 51.734375 29.621094 Z M 58.3125 31.578125 L 58.371094 31.179688 L 51.804688 31.179688 L 51.734375 31.578125 L 58.3125 31.578125 "/>
<path style=" stroke:none;fill-rule:nonzero;fill:rgb(0%,0%,0%);fill-opacity:1;" d="M 64.660156 29.640625 C 64.808594 29.78125 65.117188 30.078125 65.621094 30.40625 C 65.375 30.566406 65.054688 30.792969 64.660156 31.171875 L 57.914062 31.171875 C 57.746094 31.171875 57.554688 31.171875 57.554688 31.371094 C 57.554688 31.566406 57.734375 31.566406 57.90625 31.566406 L 64.261719 31.566406 C 63.863281 31.996094 63.25 32.820312 62.882812 33.855469 L 63.277344 33.855469 C 63.824219 32.355469 64.925781 31.132812 66.378906 30.40625 C 64.976562 29.710938 63.84375 28.507812 63.277344 26.960938 L 62.882812 26.960938 C 63.257812 28.003906 63.875 28.816406 64.261719 29.246094 L 57.90625 29.246094 C 57.734375 29.246094 57.554688 29.246094 57.554688 29.441406 C 57.554688 29.640625 57.746094 29.640625 57.914062 29.640625 L 64.660156 29.640625 "/>
<path style=" stroke:none;fill-rule:nonzero;fill:rgb(0%,0%,0%);fill-opacity:1;" d="M 78.976562 34.9375 C 78.917969 34.417969 78.886719 33.457031 78.878906 33 L 78.976562 32.917969 C 79.164062 32.96875 79.363281 33 79.5625 33 C 81.101562 33 82.144531 31.390625 82.144531 29.929688 C 82.144531 29.183594 81.796875 28.269531 80.785156 28.269531 C 80.101562 28.269531 79.492188 28.578125 78.957031 29.003906 L 78.878906 28.964844 C 78.835938 28.527344 78.679688 28.222656 78.230469 28.222656 C 77.796875 28.222656 77.277344 28.578125 76.882812 28.894531 L 77.019531 29.085938 C 77.257812 28.945312 77.535156 28.796875 77.746094 28.796875 C 78.042969 28.796875 78.132812 29.3125 78.132812 29.761719 L 78.132812 31.957031 C 78.132812 32.523438 78.121094 34.558594 78.074219 35.136719 L 78.171875 35.246094 Z M 78.898438 32.234375 C 78.898438 32.222656 78.878906 31.199219 78.878906 30.386719 C 78.878906 30.277344 78.90625 29.523438 78.90625 29.464844 C 79.375 29.09375 79.78125 28.886719 80.289062 28.886719 C 80.921875 28.886719 81.3125 29.652344 81.3125 30.515625 C 81.3125 31.460938 80.972656 32.601562 79.773438 32.601562 C 79.445312 32.601562 79.136719 32.453125 78.898438 32.234375 "/>
<path style=" stroke:none;fill-rule:nonzero;fill:rgb(0%,0%,0%);fill-opacity:1;" d="M 90.308594 26.09375 L 90.269531 26.054688 L 89.882812 26.054688 L 86.523438 32.304688 L 83.277344 26.09375 L 82.859375 26.164062 L 86.445312 33.007812 L 86.59375 33.007812 L 90.308594 26.09375 "/>
<path style="fill:none;stroke-width:3.98;stroke-linecap:butt;stroke-linejoin:miter;stroke:rgb(0%,0%,0%);stroke-opacity:1;stroke-miterlimit:10;" d="M 828.398438 21.93125 L 905.625 21.93125 " transform="matrix(0.1,0,0,-0.1,0,36.49)"/>
<path style=" stroke:none;fill-rule:nonzero;fill:rgb(0%,0%,0%);fill-opacity:1;" d="M 94.761719 35.304688 L 95.566406 35.015625 C 95.488281 34.132812 95.445312 32.980469 95.445312 31.769531 C 95.445312 30.457031 95.488281 29.074219 95.585938 27.921875 L 95.378906 27.882812 L 94.941406 28.46875 L 94.851562 28.488281 C 94.574219 28.351562 94.175781 28.210938 93.867188 28.210938 C 92.1875 28.210938 91.484375 29.660156 91.484375 31.042969 C 91.484375 31.878906 91.859375 32.960938 92.90625 32.960938 C 93.53125 32.960938 94.105469 32.679688 94.613281 32.304688 L 94.683594 32.355469 C 94.652344 33.308594 94.632812 34.738281 94.601562 35.144531 Z M 94.683594 31.847656 C 94.355469 32.136719 93.917969 32.34375 93.53125 32.34375 C 92.714844 32.34375 92.398438 31.597656 92.398438 30.773438 C 92.398438 29.660156 92.734375 28.578125 93.859375 28.578125 C 94.117188 28.578125 94.34375 28.71875 94.523438 28.894531 C 94.683594 29.054688 94.683594 29.355469 94.683594 29.601562 L 94.683594 31.847656 "/>
<path style=" stroke:none;fill-rule:nonzero;fill:rgb(0%,0%,0%);fill-opacity:1;" d="M 113.414062 28.675781 C 113.582031 28.675781 113.773438 28.675781 113.773438 28.480469 C 113.773438 28.28125 113.59375 28.28125 113.425781 28.28125 L 107.492188 28.28125 C 107.324219 28.28125 107.148438 28.28125 107.148438 28.480469 C 107.148438 28.675781 107.34375 28.675781 107.503906 28.675781 Z M 113.425781 32.53125 C 113.59375 32.53125 113.773438 32.53125 113.773438 32.332031 C 113.773438 32.136719 113.582031 32.136719 113.414062 32.136719 L 107.503906 32.136719 C 107.34375 32.136719 107.148438 32.136719 107.148438 32.332031 C 107.148438 32.53125 107.324219 32.53125 107.492188 32.53125 Z M 113.425781 30.605469 C 113.59375 30.605469 113.773438 30.605469 113.773438 30.40625 C 113.773438 30.207031 113.59375 30.207031 113.425781 30.207031 L 107.492188 30.207031 C 107.324219 30.207031 107.148438 30.207031 107.148438 30.40625 C 107.148438 30.605469 107.324219 30.605469 107.492188 30.605469 L 113.425781 30.605469 "/>
<path style=" stroke:none;fill-rule:nonzero;fill:rgb(0%,0%,0%);fill-opacity:1;" d="M 127.289062 34.507812 C 126.007812 34.261719 125.9375 31.847656 125.9375 30.167969 C 125.9375 28.667969 126.027344 26.144531 127.289062 25.828125 L 127.289062 25.558594 C 126.257812 25.738281 125.808594 26.871094 125.621094 27.824219 C 125.472656 28.566406 125.421875 29.34375 125.421875 30.109375 C 125.421875 30.914062 125.464844 31.71875 125.601562 32.511719 C 125.769531 33.457031 126.246094 34.660156 127.289062 34.746094 L 127.289062 34.507812 "/>
<path style=" stroke:none;fill-rule:nonzero;fill:rgb(0%,0%,0%);fill-opacity:1;" d="M 130.078125 34.9375 C 130.015625 34.417969 129.988281 33.457031 129.976562 33 L 130.078125 32.917969 C 130.265625 32.96875 130.464844 33 130.664062 33 C 132.203125 33 133.246094 31.390625 133.246094 29.929688 C 133.246094 29.183594 132.898438 28.269531 131.882812 28.269531 C 131.199219 28.269531 130.59375 28.578125 130.054688 29.003906 L 129.976562 28.964844 C 129.9375 28.527344 129.777344 28.222656 129.332031 28.222656 C 128.894531 28.222656 128.378906 28.578125 127.980469 28.894531 L 128.121094 29.085938 C 128.359375 28.945312 128.636719 28.796875 128.84375 28.796875 C 129.144531 28.796875 129.234375 29.3125 129.234375 29.761719 L 129.234375 31.957031 C 129.234375 32.523438 129.222656 34.558594 129.171875 35.136719 L 129.273438 35.246094 Z M 129.996094 32.234375 C 129.996094 32.222656 129.976562 31.199219 129.976562 30.386719 C 129.976562 30.277344 130.007812 29.523438 130.007812 29.464844 C 130.472656 29.09375 130.882812 28.886719 131.386719 28.886719 C 132.023438 28.886719 132.410156 29.652344 132.410156 30.515625 C 132.410156 31.460938 132.074219 32.601562 130.871094 32.601562 C 130.542969 32.601562 130.234375 32.453125 129.996094 32.234375 "/>
<path style=" stroke:none;fill-rule:nonzero;fill:rgb(0%,0%,0%);fill-opacity:1;" d="M 140.214844 25.808594 L 140.121094 25.796875 L 136.308594 32.789062 L 136.417969 32.898438 L 136.707031 32.878906 L 140.152344 26.5625 L 143.414062 32.929688 L 143.828125 32.871094 L 140.214844 25.808594 "/>
<path style=" stroke:none;fill-rule:nonzero;fill:rgb(0%,0%,0%);fill-opacity:1;" d="M 152.4375 28.828125 L 146.449219 28.828125 L 146.449219 29.222656 L 152.039062 29.222656 L 152.039062 30.84375 L 152.4375 30.84375 L 152.4375 28.828125 "/>
<path style=" stroke:none;fill-rule:nonzero;fill:rgb(0%,0%,0%);fill-opacity:1;" d="M 157.164062 35.304688 L 157.96875 35.015625 C 157.886719 34.132812 157.847656 32.980469 157.847656 31.769531 C 157.847656 30.457031 157.886719 29.074219 157.988281 27.921875 L 157.777344 27.882812 L 157.339844 28.46875 L 157.253906 28.488281 C 156.972656 28.351562 156.578125 28.210938 156.269531 28.210938 C 154.589844 28.210938 153.882812 29.660156 153.882812 31.042969 C 153.882812 31.878906 154.261719 32.960938 155.304688 32.960938 C 155.929688 32.960938 156.507812 32.679688 157.011719 32.304688 L 157.082031 32.355469 C 157.054688 33.308594 157.03125 34.738281 157.003906 35.144531 Z M 157.082031 31.847656 C 156.753906 32.136719 156.316406 32.34375 155.929688 32.34375 C 155.117188 32.34375 154.796875 31.597656 154.796875 30.773438 C 154.796875 29.660156 155.136719 28.578125 156.257812 28.578125 C 156.515625 28.578125 156.746094 28.71875 156.921875 28.894531 C 157.082031 29.054688 157.082031 29.355469 157.082031 29.601562 L 157.082031 31.847656 "/>
<path style=" stroke:none;fill-rule:nonzero;fill:rgb(0%,0%,0%);fill-opacity:1;" d="M 159.855469 25.847656 C 160.660156 26.136719 160.886719 27.066406 161.035156 27.8125 C 161.1875 28.578125 161.226562 29.371094 161.226562 30.148438 C 161.226562 31.28125 161.246094 32.492188 160.886719 33.554688 C 160.6875 34.152344 160.3125 34.410156 159.855469 34.527344 L 159.855469 34.769531 C 161.632812 34.539062 161.742188 31.886719 161.742188 30.1875 C 161.742188 28.527344 161.53125 25.925781 159.855469 25.578125 L 159.855469 25.847656 "/>
<path style=" stroke:none;fill-rule:nonzero;fill:rgb(0%,0%,0%);fill-opacity:1;" d="M 172.609375 26.09375 L 172.570312 26.054688 L 172.183594 26.054688 L 168.824219 32.304688 L 165.578125 26.09375 L 165.160156 26.164062 L 168.746094 33.007812 L 168.894531 33.007812 L 172.609375 26.09375 "/>
<path style=" stroke:none;fill-rule:nonzero;fill:rgb(0%,0%,0%);fill-opacity:1;" d="M 177.992188 34.507812 C 176.710938 34.261719 176.640625 31.847656 176.640625 30.167969 C 176.640625 28.667969 176.726562 26.144531 177.992188 25.828125 L 177.992188 25.558594 C 176.957031 25.738281 176.507812 26.871094 176.320312 27.824219 C 176.171875 28.566406 176.121094 29.34375 176.121094 30.109375 C 176.121094 30.914062 176.164062 31.71875 176.300781 32.511719 C 176.46875 33.457031 176.945312 34.660156 177.992188 34.746094 L 177.992188 34.507812 "/>
<path style=" stroke:none;fill-rule:nonzero;fill:rgb(0%,0%,0%);fill-opacity:1;" d="M 185.140625 28.828125 L 179.148438 28.828125 L 179.148438 29.222656 L 184.742188 29.222656 L 184.742188 30.84375 L 185.140625 30.84375 L 185.140625 28.828125 "/>
<path style=" stroke:none;fill-rule:nonzero;fill:rgb(0%,0%,0%);fill-opacity:1;" d="M 187.675781 34.9375 C 187.617188 34.417969 187.589844 33.457031 187.578125 33 L 187.675781 32.917969 C 187.867188 32.96875 188.0625 33 188.261719 33 C 189.804688 33 190.84375 31.390625 190.84375 29.929688 C 190.84375 29.183594 190.496094 28.269531 189.484375 28.269531 C 188.800781 28.269531 188.195312 28.578125 187.65625 29.003906 L 187.578125 28.964844 C 187.539062 28.527344 187.378906 28.222656 186.929688 28.222656 C 186.496094 28.222656 185.976562 28.578125 185.582031 28.894531 L 185.71875 29.085938 C 185.957031 28.945312 186.234375 28.796875 186.445312 28.796875 C 186.742188 28.796875 186.832031 29.3125 186.832031 29.761719 L 186.832031 31.957031 C 186.832031 32.523438 186.820312 34.558594 186.773438 35.136719 L 186.871094 35.246094 Z M 187.597656 32.234375 C 187.597656 32.222656 187.578125 31.199219 187.578125 30.386719 C 187.578125 30.277344 187.609375 29.523438 187.609375 29.464844 C 188.074219 29.09375 188.480469 28.886719 188.988281 28.886719 C 189.621094 28.886719 190.011719 29.652344 190.011719 30.515625 C 190.011719 31.460938 189.671875 32.601562 188.472656 32.601562 C 188.144531 32.601562 187.835938 32.453125 187.597656 32.234375 "/>
<path style=" stroke:none;fill-rule:nonzero;fill:rgb(0%,0%,0%);fill-opacity:1;" d="M 197.8125 25.808594 L 197.722656 25.796875 L 193.910156 32.789062 L 194.019531 32.898438 L 194.304688 32.878906 L 197.753906 26.5625 L 201.011719 32.929688 L 201.429688 32.871094 L 197.8125 25.808594 "/>
<path style=" stroke:none;fill-rule:nonzero;fill:rgb(0%,0%,0%);fill-opacity:1;" d="M 207.964844 35.304688 L 208.765625 35.015625 C 208.6875 34.132812 208.648438 32.980469 208.648438 31.769531 C 208.648438 30.457031 208.6875 29.074219 208.789062 27.921875 L 208.578125 27.882812 L 208.140625 28.46875 L 208.050781 28.488281 C 207.773438 28.351562 207.378906 28.210938 207.070312 28.210938 C 205.390625 28.210938 204.683594 29.660156 204.683594 31.042969 C 204.683594 31.878906 205.0625 32.960938 206.105469 32.960938 C 206.730469 32.960938 207.304688 32.679688 207.8125 32.304688 L 207.882812 32.355469 C 207.851562 33.308594 207.832031 34.738281 207.804688 35.144531 Z M 207.882812 31.847656 C 207.554688 32.136719 207.117188 32.34375 206.730469 32.34375 C 205.914062 32.34375 205.597656 31.597656 205.597656 30.773438 C 205.597656 29.660156 205.9375 28.578125 207.058594 28.578125 C 207.316406 28.578125 207.546875 28.71875 207.722656 28.894531 C 207.882812 29.054688 207.882812 29.355469 207.882812 29.601562 L 207.882812 31.847656 "/>
<path style=" stroke:none;fill-rule:nonzero;fill:rgb(0%,0%,0%);fill-opacity:1;" d="M 210.65625 25.847656 C 211.460938 26.136719 211.6875 27.066406 211.835938 27.8125 C 211.984375 28.578125 212.023438 29.371094 212.023438 30.148438 C 212.023438 31.28125 212.046875 32.492188 211.6875 33.554688 C 211.488281 34.152344 211.109375 34.410156 210.65625 34.527344 L 210.65625 34.769531 C 212.433594 34.539062 212.542969 31.886719 212.542969 30.1875 C 212.542969 28.527344 212.332031 25.925781 210.65625 25.578125 L 210.65625 25.847656 "/>
</g>
</svg>
