<?xml version="1.0" encoding="UTF-8"?>
<svg xmlns="http://www.w3.org/2000/svg" xmlns:xlink="http://www.w3.org/1999/xlink" width="230.64pt" height="61.64pt" viewBox="0 0 230.64 61.64" version="1.1">
<g id="surface1">
<path style=" stroke:none;fill-rule:nonzero;fill:rgb(0%,0%,0%);fill-opacity:1;" d="M 20.691406 3.75 C 20.671875 3.730469 20.652344 3.730469 20.632812 3.730469 C 20.601562 3.730469 20.582031 3.730469 20.574219 3.75 C 20.136719 4.257812 19.550781 4.953125 19.191406 5.429688 L 19.132812 5.417969 C 18.84375 4.863281 18.4375 4.148438 18.226562 3.917969 C 18.089844 3.769531 17.859375 3.730469 17.691406 3.730469 C 17.363281 3.730469 16.867188 4.097656 16.519531 4.367188 L 16.660156 4.542969 C 16.835938 4.425781 17.085938 4.296875 17.296875 4.296875 C 17.78125 4.296875 18.257812 5.359375 18.636719 6.125 C 18.148438 6.761719 17.652344 7.445312 17.226562 8.128906 L 17.226562 8.210938 L 17.503906 8.457031 L 17.664062 8.417969 C 17.960938 7.652344 18.359375 7.039062 18.746094 6.441406 L 18.8125 6.441406 C 19.46875 7.722656 19.808594 8.457031 20.3125 8.457031 C 20.730469 8.457031 21.238281 7.902344 21.585938 7.527344 L 21.507812 7.335938 L 21.425781 7.335938 C 21.226562 7.503906 20.960938 7.714844 20.722656 7.714844 C 20.285156 7.714844 19.699219 6.660156 19.289062 5.765625 C 19.808594 5.160156 20.445312 4.515625 21 4.128906 C 21.019531 4.117188 21.03125 4.109375 21.03125 4.078125 C 21.03125 4.066406 21.007812 4.050781 21 4.039062 L 20.691406 3.75 "/>
<path style=" stroke:none;fill-rule:nonzero;fill:rgb(0%,0%,0%);fill-opacity:1;" d="M 29.945312 6.054688 C 30.113281 6.054688 30.289062 6.054688 30.289062 5.855469 C 30.289062 5.65625 30.113281 5.65625 29.945312 5.65625 L 25.730469 5.65625 C 25.851562 4.328125 26.992188 3.371094 28.394531 3.371094 L 29.945312 3.371094 C 30.113281 3.371094 30.289062 3.371094 30.289062 3.175781 C 30.289062 2.976562 30.113281 2.976562 29.945312 2.976562 L 28.375 2.976562 C 26.675781 2.976562 25.324219 4.265625 25.324219 5.855469 C 25.324219 7.445312 26.675781 8.738281 28.375 8.738281 L 29.945312 8.738281 C 30.113281 8.738281 30.289062 8.738281 30.289062 8.539062 C 30.289062 8.339844 30.113281 8.339844 29.945312 8.339844 L 28.394531 8.339844 C 26.992188 8.339844 25.851562 7.386719 25.730469 6.054688 L 29.945312 6.054688 "/>
<path style=" stroke:none;fill-rule:nonzero;fill:rgb(0%,0%,0%);fill-opacity:1;" d="M 40.226562 1.585938 C 39.980469 2.011719 39.730469 2.449219 39.542969 2.894531 L 38.359375 5.617188 C 37.953125 6.503906 37.726562 7.019531 37.65625 7.039062 C 37.632812 7.027344 37.59375 7.007812 37.574219 6.96875 C 36.871094 5.160156 36.324219 3.304688 35.9375 1.40625 L 34.199219 1.503906 L 34.128906 1.566406 L 34.140625 1.832031 C 34.695312 1.914062 34.921875 1.960938 35.082031 2.289062 C 35.28125 2.726562 35.410156 3.183594 35.558594 3.640625 L 36.980469 8.429688 L 37.078125 8.5 L 37.753906 8.238281 C 38.320312 6.601562 39.046875 5.011719 39.761719 3.691406 C 39.878906 3.480469 40.496094 2.390625 41.140625 1.605469 L 41.082031 1.417969 L 40.226562 1.585938 "/>
<path style=" stroke:none;fill-rule:nonzero;fill:rgb(0%,0%,0%);fill-opacity:1;" d="M 58.3125 5.070312 L 58.371094 4.675781 L 51.804688 4.675781 L 51.734375 5.070312 Z M 58.3125 7.027344 L 58.371094 6.628906 L 51.804688 6.628906 L 51.734375 7.027344 L 58.3125 7.027344 "/>
<path style=" stroke:none;fill-rule:nonzero;fill:rgb(0%,0%,0%);fill-opacity:1;" d="M 64.660156 5.089844 C 64.808594 5.230469 65.117188 5.527344 65.621094 5.855469 C 65.375 6.015625 65.054688 6.246094 64.660156 6.621094 L 57.914062 6.621094 C 57.746094 6.621094 57.554688 6.621094 57.554688 6.820312 C 57.554688 7.019531 57.734375 7.019531 57.90625 7.019531 L 64.261719 7.019531 C 63.863281 7.445312 63.25 8.269531 62.882812 9.304688 L 63.277344 9.304688 C 63.824219 7.804688 64.925781 6.582031 66.378906 5.855469 C 64.976562 5.160156 63.84375 3.957031 63.277344 2.410156 L 62.882812 2.410156 C 63.257812 3.453125 63.875 4.265625 64.261719 4.695312 L 57.90625 4.695312 C 57.734375 4.695312 57.554688 4.695312 57.554688 4.894531 C 57.554688 5.089844 57.746094 5.089844 57.914062 5.089844 L 64.660156 5.089844 "/>
<path style=" stroke:none;fill-rule:nonzero;fill:rgb(0%,0%,0%);fill-opacity:1;" d="M 100.351562 9.917969 L 100.351562 1.007812 L 99.953125 1.089844 L 99.953125 10 L 100.351562 9.917969 "/>
<path style=" stroke:none;fill-rule:nonzero;fill:rgb(0%,0%,0%);fill-opacity:1;" d="M 105.492188 3.75 C 105.472656 3.730469 105.453125 3.730469 105.433594 3.730469 C 105.402344 3.730469 105.382812 3.730469 105.371094 3.75 C 104.9375 4.257812 104.351562 4.953125 103.992188 5.429688 L 103.933594 5.417969 C 103.644531 4.863281 103.238281 4.148438 103.027344 3.917969 C 102.890625 3.769531 102.660156 3.730469 102.492188 3.730469 C 102.164062 3.730469 101.667969 4.097656 101.320312 4.367188 L 101.460938 4.542969 C 101.636719 4.425781 101.886719 4.296875 102.09375 4.296875 C 102.582031 4.296875 103.058594 5.359375 103.4375 6.125 C 102.949219 6.761719 102.453125 7.445312 102.023438 8.128906 L 102.023438 8.210938 L 102.304688 8.457031 L 102.464844 8.417969 C 102.761719 7.652344 103.15625 7.039062 103.546875 6.441406 L 103.613281 6.441406 C 104.269531 7.722656 104.609375 8.457031 105.113281 8.457031 C 105.53125 8.457031 106.039062 7.902344 106.386719 7.527344 L 106.304688 7.335938 L 106.226562 7.335938 C 106.027344 7.503906 105.761719 7.714844 105.523438 7.714844 C 105.085938 7.714844 104.496094 6.660156 104.089844 5.765625 C 104.609375 5.160156 105.242188 4.515625 105.800781 4.128906 C 105.820312 4.117188 105.828125 4.109375 105.828125 4.078125 C 105.828125 4.066406 105.808594 4.050781 105.800781 4.039062 L 105.492188 3.75 "/>
<path style=" stroke:none;fill-rule:nonzero;fill:rgb(0%,0%,0%);fill-opacity:1;" d="M 107.753906 9.917969 L 107.753906 1.007812 L 107.355469 1.089844 L 107.355469 10 L 107.753906 9.917969 "/>
<path style=" stroke:none;fill-rule:nonzero;fill:rgb(0%,0%,0%);fill-opacity:1;" d="M 119.097656 7.894531 C 119.097656 8.199219 119.355469 8.457031 119.671875 8.457031 C 119.980469 8.457031 120.230469 8.199219 120.230469 7.894531 C 120.230469 7.585938 119.980469 7.328125 119.671875 7.328125 C 119.355469 7.328125 119.097656 7.585938 119.097656 7.894531 Z M 119.097656 4.386719 C 119.097656 4.695312 119.355469 4.953125 119.671875 4.953125 C 119.980469 4.953125 120.230469 4.695312 120.230469 4.386719 C 120.230469 4.078125 119.980469 3.820312 119.671875 3.820312 C 119.355469 3.820312 119.097656 4.078125 119.097656 4.386719 "/>
<path style=" stroke:none;fill-rule:nonzero;fill:rgb(0%,0%,0%);fill-opacity:1;" d="M 127.8125 5.070312 L 127.871094 4.675781 L 121.304688 4.675781 L 121.234375 5.070312 Z M 127.8125 7.027344 L 127.871094 6.628906 L 121.304688 6.628906 L 121.234375 7.027344 L 127.8125 7.027344 "/>
<path style=" stroke:none;fill-rule:nonzero;fill:rgb(0%,0%,0%);fill-opacity:1;" d="M 143.773438 3.929688 L 143.742188 3.847656 L 143.175781 3.691406 L 142.949219 3.789062 C 142.621094 5.070312 142.261719 6.164062 141.707031 7.335938 L 141.65625 7.335938 C 141.398438 6.152344 141.03125 4.527344 140.484375 3.980469 C 140.277344 3.769531 139.949219 3.660156 139.648438 3.660156 C 139.121094 3.660156 138.695312 3.878906 138.347656 4.265625 L 138.546875 4.527344 C 138.695312 4.425781 138.90625 4.347656 139.214844 4.347656 C 139.9375 4.347656 140.367188 5.320312 140.59375 5.976562 C 140.863281 6.738281 141.023438 7.542969 141.140625 8.347656 L 141.210938 8.417969 L 141.765625 8.101562 C 141.964844 7.605469 142.183594 7.128906 142.421875 6.652344 L 143.773438 3.929688 "/>
<path style=" stroke:none;fill-rule:nonzero;fill:rgb(0%,0%,0%);fill-opacity:1;" d="M 148.890625 9.957031 C 147.609375 9.710938 147.539062 7.296875 147.539062 5.617188 C 147.539062 4.117188 147.628906 1.59375 148.890625 1.277344 L 148.890625 1.007812 C 147.855469 1.1875 147.410156 2.320312 147.222656 3.273438 C 147.070312 4.019531 147.023438 4.792969 147.023438 5.558594 C 147.023438 6.363281 147.0625 7.167969 147.203125 7.960938 C 147.371094 8.90625 147.847656 10.109375 148.890625 10.199219 L 148.890625 9.957031 "/>
<path style=" stroke:none;fill-rule:nonzero;fill:rgb(0%,0%,0%);fill-opacity:1;" d="M 153.890625 3.75 C 153.871094 3.730469 153.851562 3.730469 153.832031 3.730469 C 153.804688 3.730469 153.78125 3.730469 153.773438 3.75 C 153.335938 4.257812 152.75 4.953125 152.390625 5.429688 L 152.332031 5.417969 C 152.042969 4.863281 151.636719 4.148438 151.429688 3.917969 C 151.289062 3.769531 151.0625 3.730469 150.890625 3.730469 C 150.5625 3.730469 150.066406 4.097656 149.71875 4.367188 L 149.859375 4.542969 C 150.039062 4.425781 150.285156 4.296875 150.496094 4.296875 C 150.980469 4.296875 151.457031 5.359375 151.835938 6.125 C 151.347656 6.761719 150.851562 7.445312 150.425781 8.128906 L 150.425781 8.210938 L 150.703125 8.457031 L 150.863281 8.417969 C 151.160156 7.652344 151.558594 7.039062 151.945312 6.441406 L 152.015625 6.441406 C 152.671875 7.722656 153.007812 8.457031 153.515625 8.457031 C 153.929688 8.457031 154.4375 7.902344 154.785156 7.527344 L 154.707031 7.335938 L 154.628906 7.335938 C 154.429688 7.503906 154.160156 7.714844 153.921875 7.714844 C 153.484375 7.714844 152.898438 6.660156 152.492188 5.765625 C 153.007812 5.160156 153.644531 4.515625 154.199219 4.128906 C 154.21875 4.117188 154.230469 4.109375 154.230469 4.078125 C 154.230469 4.066406 154.210938 4.050781 154.199219 4.039062 L 153.890625 3.75 "/>
<path style=" stroke:none;fill-rule:nonzero;fill:rgb(0%,0%,0%);fill-opacity:1;" d="M 155.855469 1.296875 C 156.660156 1.585938 156.886719 2.519531 157.035156 3.261719 C 157.1875 4.027344 157.226562 4.824219 157.226562 5.597656 C 157.226562 6.730469 157.246094 7.941406 156.886719 9.003906 C 156.6875 9.601562 156.3125 9.859375 155.855469 9.980469 L 155.855469 10.21875 C 157.632812 9.988281 157.742188 7.335938 157.742188 5.636719 C 157.742188 3.980469 157.53125 1.375 155.855469 1.027344 L 155.855469 1.296875 "/>
<path style=" stroke:none;fill-rule:nonzero;fill:rgb(0%,0%,0%);fill-opacity:1;" d="M 6.976562 24.1875 C 6.917969 23.667969 6.886719 22.707031 6.878906 22.25 L 6.976562 22.167969 C 7.164062 22.21875 7.363281 22.25 7.5625 22.25 C 9.101562 22.25 10.144531 20.640625 10.144531 19.179688 C 10.144531 18.433594 9.796875 17.519531 8.785156 17.519531 C 8.101562 17.519531 7.492188 17.828125 6.957031 18.253906 L 6.878906 18.214844 C 6.835938 17.777344 6.679688 17.472656 6.230469 17.472656 C 5.796875 17.472656 5.277344 17.828125 4.882812 18.144531 L 5.019531 18.335938 C 5.257812 18.195312 5.535156 18.046875 5.746094 18.046875 C 6.042969 18.046875 6.132812 18.5625 6.132812 19.011719 L 6.132812 21.207031 C 6.132812 21.773438 6.121094 23.808594 6.074219 24.386719 L 6.171875 24.496094 Z M 6.898438 21.484375 C 6.898438 21.472656 6.878906 20.449219 6.878906 19.636719 C 6.878906 19.527344 6.90625 18.773438 6.90625 18.714844 C 7.375 18.34375 7.78125 18.136719 8.289062 18.136719 C 8.921875 18.136719 9.3125 18.902344 9.3125 19.765625 C 9.3125 20.710938 8.972656 21.851562 7.773438 21.851562 C 7.445312 21.851562 7.136719 21.703125 6.898438 21.484375 "/>
<path style=" stroke:none;fill-rule:nonzero;fill:rgb(0%,0%,0%);fill-opacity:1;" d="M 11.992188 24.226562 C 12.699219 23.410156 13.027344 22.90625 13.027344 22.410156 C 13.027344 22.058594 12.679688 20.769531 12.152344 20.769531 C 11.902344 20.769531 11.566406 20.988281 11.566406 21.246094 C 11.566406 21.34375 11.59375 21.453125 11.632812 21.503906 L 12.328125 22.328125 C 12.421875 22.4375 12.460938 22.605469 12.460938 22.746094 C 12.460938 23.144531 12.152344 23.628906 11.804688 24.085938 L 11.992188 24.226562 "/>
<path style=" stroke:none;fill-rule:nonzero;fill:rgb(0%,0%,0%);fill-opacity:1;" d="M 19.460938 24.554688 L 20.265625 24.265625 C 20.1875 23.382812 20.148438 22.230469 20.148438 21.019531 C 20.148438 19.707031 20.1875 18.324219 20.289062 17.171875 L 20.078125 17.132812 L 19.640625 17.71875 L 19.550781 17.738281 C 19.273438 17.601562 18.875 17.460938 18.570312 17.460938 C 16.890625 17.460938 16.183594 18.910156 16.183594 20.292969 C 16.183594 21.128906 16.5625 22.210938 17.605469 22.210938 C 18.230469 22.210938 18.804688 21.929688 19.3125 21.554688 L 19.382812 21.605469 C 19.351562 22.558594 19.332031 23.988281 19.304688 24.394531 Z M 19.382812 21.097656 C 19.054688 21.386719 18.617188 21.59375 18.230469 21.59375 C 17.414062 21.59375 17.097656 20.847656 17.097656 20.023438 C 17.097656 18.910156 17.4375 17.828125 18.558594 17.828125 C 18.816406 17.828125 19.046875 17.96875 19.222656 18.144531 C 19.382812 18.304688 19.382812 18.605469 19.382812 18.851562 L 19.382812 21.097656 "/>
<path style=" stroke:none;fill-rule:nonzero;fill:rgb(0%,0%,0%);fill-opacity:1;" d="M 29.542969 19.855469 C 29.710938 19.855469 29.890625 19.855469 29.890625 19.65625 C 29.890625 19.457031 29.710938 19.457031 29.542969 19.457031 L 25.332031 19.457031 C 25.453125 18.128906 26.59375 17.171875 27.992188 17.171875 L 29.542969 17.171875 C 29.710938 17.171875 29.890625 17.171875 29.890625 16.972656 C 29.890625 16.777344 29.710938 16.777344 29.542969 16.777344 L 27.972656 16.777344 C 26.273438 16.777344 24.925781 18.066406 24.925781 19.65625 C 24.925781 21.246094 26.273438 22.535156 27.972656 22.535156 L 29.542969 22.535156 C 29.710938 22.535156 29.890625 22.535156 29.890625 22.339844 C 29.890625 22.140625 29.710938 22.140625 29.542969 22.140625 L 27.992188 22.140625 C 26.59375 22.140625 25.453125 21.1875 25.332031 19.855469 L 29.542969 19.855469 "/>
<path style=" stroke:none;fill-rule:nonzero;fill:rgb(0%,0%,0%);fill-opacity:1;" d="M 35.585938 16.753906 C 35.585938 16.585938 35.636719 15.582031 35.664062 15.445312 L 35.59375 15.386719 L 33.917969 15.386719 L 33.835938 15.453125 L 33.859375 15.652344 C 33.996094 15.652344 34.730469 15.773438 34.730469 16.167969 C 34.730469 16.367188 34.730469 16.558594 34.730469 16.753906 C 34.730469 17.53125 34.710938 18.316406 34.710938 19.082031 C 34.710938 19.6875 34.722656 20.421875 34.789062 20.878906 C 34.910156 21.464844 35.238281 22.230469 36.617188 22.230469 C 37.445312 22.230469 38.238281 21.890625 38.933594 21.445312 L 39.011719 21.503906 C 39.011719 21.800781 38.953125 22.191406 39.339844 22.191406 C 39.648438 22.191406 40.355469 21.980469 40.859375 21.824219 L 40.910156 21.753906 L 40.871094 21.582031 C 40.671875 21.605469 40.492188 21.664062 40.296875 21.664062 C 39.816406 21.664062 39.816406 20.949219 39.816406 20.132812 C 39.816406 18.523438 39.828125 16.449219 39.976562 15.316406 L 39.917969 15.246094 L 39.042969 15.59375 C 39.023438 17.402344 39.003906 19.21875 39.003906 21.035156 C 38.46875 21.355469 37.871094 21.621094 37.253906 21.621094 C 36.289062 21.621094 35.507812 21.136719 35.507812 19.46875 L 35.585938 16.753906 "/>
<path style=" stroke:none;fill-rule:nonzero;fill:rgb(0%,0%,0%);fill-opacity:1;" d="M 58.3125 18.871094 L 58.371094 18.472656 L 51.804688 18.472656 L 51.734375 18.871094 Z M 58.3125 20.828125 L 58.371094 20.429688 L 51.804688 20.429688 L 51.734375 20.828125 L 58.3125 20.828125 "/>
<path style=" stroke:none;fill-rule:nonzero;fill:rgb(0%,0%,0%);fill-opacity:1;" d="M 64.660156 18.890625 C 64.808594 19.03125 65.117188 19.328125 65.621094 19.65625 C 65.375 19.816406 65.054688 20.042969 64.660156 20.421875 L 57.914062 20.421875 C 57.746094 20.421875 57.554688 20.421875 57.554688 20.621094 C 57.554688 20.816406 57.734375 20.816406 57.90625 20.816406 L 64.261719 20.816406 C 63.863281 21.246094 63.25 22.070312 62.882812 23.105469 L 63.277344 23.105469 C 63.824219 21.605469 64.925781 20.382812 66.378906 19.65625 C 64.976562 18.960938 63.84375 17.757812 63.277344 16.210938 L 62.882812 16.210938 C 63.257812 17.253906 63.875 18.066406 64.261719 18.496094 L 57.90625 18.496094 C 57.734375 18.496094 57.554688 18.496094 57.554688 18.691406 C 57.554688 18.890625 57.746094 18.890625 57.914062 18.890625 L 64.660156 18.890625 "/>
<path style=" stroke:none;fill-rule:nonzero;fill:rgb(0%,0%,0%);fill-opacity:1;" d="M 78.25 23.71875 L 78.25 14.808594 L 77.855469 14.886719 L 77.855469 23.800781 L 78.25 23.71875 "/>
<path style=" stroke:none;fill-rule:nonzero;fill:rgb(0%,0%,0%);fill-opacity:1;" d="M 81.078125 24.1875 C 81.015625 23.667969 80.988281 22.707031 80.976562 22.25 L 81.078125 22.167969 C 81.265625 22.21875 81.464844 22.25 81.664062 22.25 C 83.203125 22.25 84.246094 20.640625 84.246094 19.179688 C 84.246094 18.433594 83.898438 17.519531 82.882812 17.519531 C 82.199219 17.519531 81.59375 17.828125 81.054688 18.253906 L 80.976562 18.214844 C 80.9375 17.777344 80.777344 17.472656 80.332031 17.472656 C 79.894531 17.472656 79.378906 17.828125 78.980469 18.144531 L 79.121094 18.335938 C 79.359375 18.195312 79.636719 18.046875 79.84375 18.046875 C 80.144531 18.046875 80.234375 18.5625 80.234375 19.011719 L 80.234375 21.207031 C 80.234375 21.773438 80.222656 23.808594 80.171875 24.386719 L 80.273438 24.496094 Z M 80.996094 21.484375 C 80.996094 21.472656 80.976562 20.449219 80.976562 19.636719 C 80.976562 19.527344 81.007812 18.773438 81.007812 18.714844 C 81.472656 18.34375 81.882812 18.136719 82.386719 18.136719 C 83.023438 18.136719 83.410156 18.902344 83.410156 19.765625 C 83.410156 20.710938 83.074219 21.851562 81.871094 21.851562 C 81.542969 21.851562 81.234375 21.703125 80.996094 21.484375 "/>
<path style=" stroke:none;fill-rule:nonzero;fill:rgb(0%,0%,0%);fill-opacity:1;" d="M 96.382812 19.855469 C 96.015625 20.3125 95.488281 21.097656 95.238281 22.140625 L 95.636719 22.140625 C 95.945312 20.839844 96.78125 19.933594 97.078125 19.65625 C 96.757812 19.359375 95.945312 18.464844 95.636719 17.171875 L 95.238281 17.171875 C 95.488281 18.207031 96.003906 18.992188 96.382812 19.457031 L 88.605469 19.457031 C 88.425781 19.457031 88.257812 19.457031 88.257812 19.65625 C 88.257812 19.855469 88.433594 19.855469 88.605469 19.855469 L 96.382812 19.855469 "/>
<path style=" stroke:none;fill-rule:nonzero;fill:rgb(0%,0%,0%);fill-opacity:1;" d="M 104.664062 24.554688 L 105.46875 24.265625 C 105.386719 23.382812 105.347656 22.230469 105.347656 21.019531 C 105.347656 19.707031 105.386719 18.324219 105.488281 17.171875 L 105.277344 17.132812 L 104.839844 17.71875 L 104.753906 17.738281 C 104.472656 17.601562 104.078125 17.460938 103.769531 17.460938 C 102.089844 17.460938 101.382812 18.910156 101.382812 20.292969 C 101.382812 21.128906 101.761719 22.210938 102.804688 22.210938 C 103.429688 22.210938 104.007812 21.929688 104.511719 21.554688 L 104.582031 21.605469 C 104.554688 22.558594 104.53125 23.988281 104.503906 24.394531 Z M 104.582031 21.097656 C 104.253906 21.386719 103.816406 21.59375 103.429688 21.59375 C 102.617188 21.59375 102.296875 20.847656 102.296875 20.023438 C 102.296875 18.910156 102.636719 17.828125 103.757812 17.828125 C 104.015625 17.828125 104.246094 17.96875 104.421875 18.144531 C 104.582031 18.304688 104.582031 18.605469 104.582031 18.851562 L 104.582031 21.097656 "/>
<path style=" stroke:none;fill-rule:nonzero;fill:rgb(0%,0%,0%);fill-opacity:1;" d="M 107.753906 23.71875 L 107.753906 14.808594 L 107.355469 14.886719 L 107.355469 23.800781 L 107.753906 23.71875 "/>
<path style=" stroke:none;fill-rule:nonzero;fill:rgb(0%,0%,0%);fill-opacity:1;" d="M 119.097656 21.691406 C 119.097656 22 119.355469 22.257812 119.671875 22.257812 C 119.980469 22.257812 120.230469 22 120.230469 21.691406 C 120.230469 21.386719 119.980469 21.128906 119.671875 21.128906 C 119.355469 21.128906 119.097656 21.386719 119.097656 21.691406 Z M 119.097656 18.1875 C 119.097656 18.496094 119.355469 18.753906 119.671875 18.753906 C 119.980469 18.753906 120.230469 18.496094 120.230469 18.1875 C 120.230469 17.878906 119.980469 17.621094 119.671875 17.621094 C 119.355469 17.621094 119.097656 17.878906 119.097656 18.1875 "/>
<path style=" stroke:none;fill-rule:nonzero;fill:rgb(0%,0%,0%);fill-opacity:1;" d="M 127.8125 18.871094 L 127.871094 18.472656 L 121.304688 18.472656 L 121.234375 18.871094 Z M 127.8125 20.828125 L 127.871094 20.429688 L 121.304688 20.429688 L 121.234375 20.828125 L 127.8125 20.828125 "/>
<path style=" stroke:none;fill-rule:nonzero;fill:rgb(0%,0%,0%);fill-opacity:1;" d="M 139.453125 23.71875 L 139.453125 14.808594 L 139.054688 14.886719 L 139.054688 23.800781 L 139.453125 23.71875 "/>
<path style=" stroke:none;fill-rule:nonzero;fill:rgb(0%,0%,0%);fill-opacity:1;" d="M 144.5625 24.554688 L 145.367188 24.265625 C 145.289062 23.382812 145.246094 22.230469 145.246094 21.019531 C 145.246094 19.707031 145.289062 18.324219 145.386719 17.171875 L 145.179688 17.132812 L 144.742188 17.71875 L 144.652344 17.738281 C 144.371094 17.601562 143.976562 17.460938 143.667969 17.460938 C 141.988281 17.460938 141.285156 18.910156 141.285156 20.292969 C 141.285156 21.128906 141.660156 22.210938 142.703125 22.210938 C 143.328125 22.210938 143.90625 21.929688 144.414062 21.554688 L 144.484375 21.605469 C 144.453125 22.558594 144.433594 23.988281 144.402344 24.394531 Z M 144.484375 21.097656 C 144.15625 21.386719 143.71875 21.59375 143.328125 21.59375 C 142.515625 21.59375 142.199219 20.847656 142.199219 20.023438 C 142.199219 18.910156 142.535156 17.828125 143.65625 17.828125 C 143.917969 17.828125 144.144531 17.96875 144.324219 18.144531 C 144.484375 18.304688 144.484375 18.605469 144.484375 18.851562 L 144.484375 21.097656 "/>
<path style=" stroke:none;fill-rule:nonzero;fill:rgb(0%,0%,0%);fill-opacity:1;" d="M 147.652344 23.71875 L 147.652344 14.808594 L 147.253906 14.886719 L 147.253906 23.800781 L 147.652344 23.71875 "/>
<path style=" stroke:none;fill-rule:nonzero;fill:rgb(0%,0%,0%);fill-opacity:1;" d="M 149.714844 18.257812 L 149.714844 11.953125 L 149.398438 12.007812 L 149.398438 18.3125 L 149.714844 18.257812 "/>
<path style=" stroke:none;fill-rule:nonzero;fill:rgb(0%,0%,0%);fill-opacity:1;" d="M 152.398438 18.589844 C 152.351562 18.222656 152.320312 17.539062 152.320312 17.214844 L 152.398438 17.160156 C 152.546875 17.195312 152.703125 17.214844 152.871094 17.214844 C 153.617188 17.214844 154.429688 16.660156 154.734375 15.996094 C 154.859375 15.71875 154.929688 15.355469 154.929688 15.042969 C 154.929688 14.523438 154.65625 13.871094 153.847656 13.871094 C 153.300781 13.871094 152.820312 14.089844 152.378906 14.390625 L 152.320312 14.363281 C 152.28125 14.039062 152.152344 13.835938 151.800781 13.835938 C 151.449219 13.835938 151.050781 14.089844 150.71875 14.3125 L 150.832031 14.449219 C 151.023438 14.347656 151.246094 14.242188 151.414062 14.242188 C 151.648438 14.242188 151.726562 14.609375 151.726562 14.925781 L 151.726562 16.480469 C 151.726562 16.878906 151.71875 18.320312 151.675781 18.730469 L 151.753906 18.804688 Z M 152.335938 16.675781 C 152.335938 16.667969 152.320312 15.945312 152.320312 15.367188 C 152.320312 15.292969 152.34375 14.757812 152.34375 14.714844 C 152.714844 14.453125 153.039062 14.308594 153.445312 14.308594 C 153.945312 14.308594 154.261719 14.832031 154.261719 15.460938 C 154.261719 16.136719 153.988281 16.9375 153.03125 16.9375 C 152.773438 16.9375 152.527344 16.832031 152.335938 16.675781 "/>
<path style=" stroke:none;fill-rule:nonzero;fill:rgb(0%,0%,0%);fill-opacity:1;" d="M 156.914062 18.257812 L 156.914062 11.953125 L 156.601562 12.007812 L 156.601562 18.3125 L 156.914062 18.257812 "/>
<path style=" stroke:none;fill-rule:nonzero;fill:rgb(0%,0%,0%);fill-opacity:1;" d="M 6.976562 36.1875 C 6.917969 35.667969 6.886719 34.707031 6.878906 34.25 L 6.976562 34.167969 C 7.164062 34.21875 7.363281 34.25 7.5625 34.25 C 9.101562 34.25 10.144531 32.640625 10.144531 31.179688 C 10.144531 30.433594 9.796875 29.519531 8.785156 29.519531 C 8.101562 29.519531 7.492188 29.828125 6.957031 30.253906 L 6.878906 30.214844 C 6.835938 29.777344 6.679688 29.472656 6.230469 29.472656 C 5.796875 29.472656 5.277344 29.828125 4.882812 30.144531 L 5.019531 30.335938 C 5.257812 30.195312 5.535156 30.046875 5.746094 30.046875 C 6.042969 30.046875 6.132812 30.5625 6.132812 31.011719 L 6.132812 33.207031 C 6.132812 33.773438 6.121094 35.808594 6.074219 36.386719 L 6.171875 36.496094 Z M 6.898438 33.484375 C 6.898438 33.472656 6.878906 32.449219 6.878906 31.636719 C 6.878906 31.527344 6.90625 30.773438 6.90625 30.714844 C 7.375 30.34375 7.78125 30.136719 8.289062 30.136719 C 8.921875 30.136719 9.3125 30.902344 9.3125 31.765625 C 9.3125 32.710938 8.972656 33.851562 7.773438 33.851562 C 7.445312 33.851562 7.136719 33.703125 6.898438 33.484375 "/>
<path style=" stroke:none;fill-rule:nonzero;fill:rgb(0%,0%,0%);fill-opacity:1;" d="M 11.992188 36.226562 C 12.699219 35.410156 13.027344 34.90625 13.027344 34.410156 C 13.027344 34.058594 12.679688 32.769531 12.152344 32.769531 C 11.902344 32.769531 11.566406 32.988281 11.566406 33.246094 C 11.566406 33.34375 11.59375 33.453125 11.632812 33.503906 L 12.328125 34.328125 C 12.421875 34.4375 12.460938 34.605469 12.460938 34.746094 C 12.460938 35.144531 12.152344 35.628906 11.804688 36.085938 L 11.992188 36.226562 "/>
<path style=" stroke:none;fill-rule:nonzero;fill:rgb(0%,0%,0%);fill-opacity:1;" d="M 19.460938 36.554688 L 20.265625 36.265625 C 20.1875 35.382812 20.148438 34.230469 20.148438 33.019531 C 20.148438 31.707031 20.1875 30.324219 20.289062 29.171875 L 20.078125 29.132812 L 19.640625 29.71875 L 19.550781 29.738281 C 19.273438 29.601562 18.875 29.460938 18.570312 29.460938 C 16.890625 29.460938 16.183594 30.910156 16.183594 32.292969 C 16.183594 33.128906 16.5625 34.210938 17.605469 34.210938 C 18.230469 34.210938 18.804688 33.929688 19.3125 33.554688 L 19.382812 33.605469 C 19.351562 34.558594 19.332031 35.988281 19.304688 36.394531 Z M 19.382812 33.097656 C 19.054688 33.386719 18.617188 33.59375 18.230469 33.59375 C 17.414062 33.59375 17.097656 32.847656 17.097656 32.023438 C 17.097656 30.910156 17.4375 29.828125 18.558594 29.828125 C 18.816406 29.828125 19.046875 29.96875 19.222656 30.144531 C 19.382812 30.304688 19.382812 30.605469 19.382812 30.851562 L 19.382812 33.097656 "/>
<path style=" stroke:none;fill-rule:nonzero;fill:rgb(0%,0%,0%);fill-opacity:1;" d="M 29.542969 31.855469 C 29.710938 31.855469 29.890625 31.855469 29.890625 31.65625 C 29.890625 31.457031 29.710938 31.457031 29.542969 31.457031 L 25.332031 31.457031 C 25.453125 30.128906 26.59375 29.171875 27.992188 29.171875 L 29.542969 29.171875 C 29.710938 29.171875 29.890625 29.171875 29.890625 28.972656 C 29.890625 28.777344 29.710938 28.777344 29.542969 28.777344 L 27.972656 28.777344 C 26.273438 28.777344 24.925781 30.066406 24.925781 31.65625 C 24.925781 33.246094 26.273438 34.535156 27.972656 34.535156 L 29.542969 34.535156 C 29.710938 34.535156 29.890625 34.535156 29.890625 34.339844 C 29.890625 34.140625 29.710938 34.140625 29.542969 34.140625 L 27.992188 34.140625 C 26.59375 34.140625 25.453125 33.1875 25.332031 31.855469 L 29.542969 31.855469 "/>
<path style=" stroke:none;fill-rule:nonzero;fill:rgb(0%,0%,0%);fill-opacity:1;" d="M 35.585938 28.753906 C 35.585938 28.585938 35.636719 27.582031 35.664062 27.445312 L 35.59375 27.386719 L 33.917969 27.386719 L 33.835938 27.453125 L 33.859375 27.652344 C 33.996094 27.652344 34.730469 27.773438 34.730469 28.167969 C 34.730469 28.367188 34.730469 28.558594 34.730469 28.753906 C 34.730469 29.53125 34.710938 30.316406 34.710938 31.082031 C 34.710938 31.6875 34.722656 32.421875 34.789062 32.878906 C 34.910156 33.464844 35.238281 34.230469 36.617188 34.230469 C 37.445312 34.230469 38.238281 33.890625 38.933594 33.445312 L 39.011719 33.503906 C 39.011719 33.800781 38.953125 34.191406 39.339844 34.191406 C 39.648438 34.191406 40.355469 33.980469 40.859375 33.824219 L 40.910156 33.753906 L 40.871094 33.582031 C 40.671875 33.605469 40.492188 33.664062 40.296875 33.664062 C 39.816406 33.664062 39.816406 32.949219 39.816406 32.132812 C 39.816406 30.523438 39.828125 28.449219 39.976562 27.316406 L 39.917969 27.246094 L 39.042969 27.59375 C 39.023438 29.402344 39.003906 31.21875 39.003906 33.035156 C 38.46875 33.355469 37.871094 33.621094 37.253906 33.621094 C 36.289062 33.621094 35.507812 33.136719 35.507812 31.46875 L 35.585938 28.753906 "/>
<path style=" stroke:none;fill-rule:nonzero;fill:rgb(0%,0%,0%);fill-opacity:1;" d="M 58.3125 30.871094 L 58.371094 30.472656 L 51.804688 30.472656 L 51.734375 30.871094 Z M 58.3125 32.828125 L 58.371094 32.429688 L 51.804688 32.429688 L 51.734375 32.828125 L 58.3125 32.828125 "/>
<path style=" stroke:none;fill-rule:nonzero;fill:rgb(0%,0%,0%);fill-opacity:1;" d="M 64.660156 30.890625 C 64.808594 31.03125 65.117188 31.328125 65.621094 31.65625 C 65.375 31.816406 65.054688 32.042969 64.660156 32.421875 L 57.914062 32.421875 C 57.746094 32.421875 57.554688 32.421875 57.554688 32.621094 C 57.554688 32.816406 57.734375 32.816406 57.90625 32.816406 L 64.261719 32.816406 C 63.863281 33.246094 63.25 34.070312 62.882812 35.105469 L 63.277344 35.105469 C 63.824219 33.605469 64.925781 32.382812 66.378906 31.65625 C 64.976562 30.960938 63.84375 29.757812 63.277344 28.210938 L 62.882812 28.210938 C 63.257812 29.253906 63.875 30.066406 64.261719 30.496094 L 57.90625 30.496094 C 57.734375 30.496094 57.554688 30.496094 57.554688 30.691406 C 57.554688 30.890625 57.746094 30.890625 57.914062 30.890625 L 64.660156 30.890625 "/>
<path style=" stroke:none;fill-rule:nonzero;fill:rgb(0%,0%,0%);fill-opacity:1;" d="M 81.550781 35.71875 L 81.550781 26.808594 L 81.15625 26.886719 L 81.15625 35.800781 L 81.550781 35.71875 "/>
<path style=" stroke:none;fill-rule:nonzero;fill:rgb(0%,0%,0%);fill-opacity:1;" d="M 84.375 36.1875 C 84.316406 35.667969 84.289062 34.707031 84.277344 34.25 L 84.375 34.167969 C 84.566406 34.21875 84.765625 34.25 84.960938 34.25 C 86.503906 34.25 87.546875 32.640625 87.546875 31.179688 C 87.546875 30.433594 87.199219 29.519531 86.183594 29.519531 C 85.5 29.519531 84.894531 29.828125 84.355469 30.253906 L 84.277344 30.214844 C 84.238281 29.777344 84.078125 29.472656 83.632812 29.472656 C 83.195312 29.472656 82.679688 29.828125 82.28125 30.144531 L 82.421875 30.335938 C 82.65625 30.195312 82.9375 30.046875 83.144531 30.046875 C 83.445312 30.046875 83.53125 30.5625 83.53125 31.011719 L 83.53125 33.207031 C 83.53125 33.773438 83.523438 35.808594 83.472656 36.386719 L 83.570312 36.496094 Z M 84.296875 33.484375 C 84.296875 33.472656 84.277344 32.449219 84.277344 31.636719 C 84.277344 31.527344 84.308594 30.773438 84.308594 30.714844 C 84.773438 30.34375 85.179688 30.136719 85.6875 30.136719 C 86.324219 30.136719 86.710938 30.902344 86.710938 31.765625 C 86.710938 32.710938 86.375 33.851562 85.171875 33.851562 C 84.84375 33.851562 84.535156 33.703125 84.296875 33.484375 "/>
<path style=" stroke:none;fill-rule:nonzero;fill:rgb(0%,0%,0%);fill-opacity:1;" d="M 94.511719 27.058594 L 94.421875 27.046875 L 90.609375 34.039062 L 90.71875 34.148438 L 91.007812 34.128906 L 94.453125 27.8125 L 97.710938 34.179688 L 98.128906 34.121094 L 94.511719 27.058594 "/>
<path style=" stroke:none;fill-rule:nonzero;fill:rgb(0%,0%,0%);fill-opacity:1;" d="M 104.664062 36.554688 L 105.46875 36.265625 C 105.386719 35.382812 105.347656 34.230469 105.347656 33.019531 C 105.347656 31.707031 105.386719 30.324219 105.488281 29.171875 L 105.277344 29.132812 L 104.839844 29.71875 L 104.753906 29.738281 C 104.472656 29.601562 104.078125 29.460938 103.769531 29.460938 C 102.089844 29.460938 101.382812 30.910156 101.382812 32.292969 C 101.382812 33.128906 101.761719 34.210938 102.804688 34.210938 C 103.429688 34.210938 104.007812 33.929688 104.511719 33.554688 L 104.582031 33.605469 C 104.554688 34.558594 104.53125 35.988281 104.503906 36.394531 Z M 104.582031 33.097656 C 104.253906 33.386719 103.816406 33.59375 103.429688 33.59375 C 102.617188 33.59375 102.296875 32.847656 102.296875 32.023438 C 102.296875 30.910156 102.636719 29.828125 103.757812 29.828125 C 104.015625 29.828125 104.246094 29.96875 104.421875 30.144531 C 104.582031 30.304688 104.582031 30.605469 104.582031 30.851562 L 104.582031 33.097656 "/>
<path style=" stroke:none;fill-rule:nonzero;fill:rgb(0%,0%,0%);fill-opacity:1;" d="M 107.753906 35.71875 L 107.753906 26.808594 L 107.355469 26.886719 L 107.355469 35.800781 L 107.753906 35.71875 "/>
<path style=" stroke:none;fill-rule:nonzero;fill:rgb(0%,0%,0%);fill-opacity:1;" d="M 119.097656 33.691406 C 119.097656 34 119.355469 34.257812 119.671875 34.257812 C 119.980469 34.257812 120.230469 34 120.230469 33.691406 C 120.230469 33.386719 119.980469 33.128906 119.671875 33.128906 C 119.355469 33.128906 119.097656 33.386719 119.097656 33.691406 Z M 119.097656 30.1875 C 119.097656 30.496094 119.355469 30.753906 119.671875 30.753906 C 119.980469 30.753906 120.230469 30.496094 120.230469 30.1875 C 120.230469 29.878906 119.980469 29.621094 119.671875 29.621094 C 119.355469 29.621094 119.097656 29.878906 119.097656 30.1875 "/>
<path style=" stroke:none;fill-rule:nonzero;fill:rgb(0%,0%,0%);fill-opacity:1;" d="M 127.8125 30.871094 L 127.871094 30.472656 L 121.304688 30.472656 L 121.234375 30.871094 Z M 127.8125 32.828125 L 127.871094 32.429688 L 121.304688 32.429688 L 121.234375 32.828125 L 127.8125 32.828125 "/>
<path style=" stroke:none;fill-rule:nonzero;fill:rgb(0%,0%,0%);fill-opacity:1;" d="M 139.453125 35.71875 L 139.453125 26.808594 L 139.054688 26.886719 L 139.054688 35.800781 L 139.453125 35.71875 "/>
<path style=" stroke:none;fill-rule:nonzero;fill:rgb(0%,0%,0%);fill-opacity:1;" d="M 142.378906 36.1875 C 142.316406 35.667969 142.289062 34.707031 142.277344 34.25 L 142.378906 34.167969 C 142.566406 34.21875 142.765625 34.25 142.964844 34.25 C 144.503906 34.25 145.546875 32.640625 145.546875 31.179688 C 145.546875 30.433594 145.199219 29.519531 144.183594 29.519531 C 143.5 29.519531 142.894531 29.828125 142.355469 30.253906 L 142.277344 30.214844 C 142.238281 29.777344 142.078125 29.472656 141.632812 29.472656 C 141.195312 29.472656 140.679688 29.828125 140.28125 30.144531 L 140.421875 30.335938 C 140.65625 30.195312 140.9375 30.046875 141.144531 30.046875 C 141.445312 30.046875 141.53125 30.5625 141.53125 31.011719 L 141.53125 33.207031 C 141.53125 33.773438 141.523438 35.808594 141.472656 36.386719 L 141.570312 36.496094 Z M 142.296875 33.484375 C 142.296875 33.472656 142.277344 32.449219 142.277344 31.636719 C 142.277344 31.527344 142.308594 30.773438 142.308594 30.714844 C 142.773438 30.34375 143.179688 30.136719 143.6875 30.136719 C 144.324219 30.136719 144.710938 30.902344 144.710938 31.765625 C 144.710938 32.710938 144.371094 33.851562 143.171875 33.851562 C 142.84375 33.851562 142.535156 33.703125 142.296875 33.484375 "/>
<path style=" stroke:none;fill-rule:nonzero;fill:rgb(0%,0%,0%);fill-opacity:1;" d="M 147.453125 35.71875 L 147.453125 26.808594 L 147.054688 26.886719 L 147.054688 35.800781 L 147.453125 35.71875 "/>
<path style=" stroke:none;fill-rule:nonzero;fill:rgb(0%,0%,0%);fill-opacity:1;" d="M 152.507812 31.65625 C 152.507812 31.367188 152.269531 31.128906 151.980469 31.128906 C 151.691406 31.128906 151.453125 31.367188 151.453125 31.65625 C 151.453125 31.945312 151.691406 32.183594 151.980469 32.183594 C 152.269531 32.183594 152.507812 31.945312 152.507812 31.65625 "/>
<path style=" stroke:none;fill-rule:nonzero;fill:rgb(0%,0%,0%);fill-opacity:1;" d="M 156.851562 35.71875 L 156.851562 26.808594 L 156.453125 26.886719 L 156.453125 35.800781 L 156.851562 35.71875 "/>
<path style=" stroke:none;fill-rule:nonzero;fill:rgb(0%,0%,0%);fill-opacity:1;" d="M 161.863281 36.554688 L 162.667969 36.265625 C 162.589844 35.382812 162.546875 34.230469 162.546875 33.019531 C 162.546875 31.707031 162.589844 30.324219 162.6875 29.171875 L 162.476562 29.132812 L 162.039062 29.71875 L 161.953125 29.738281 C 161.671875 29.601562 161.277344 29.460938 160.96875 29.460938 C 159.289062 29.460938 158.585938 30.910156 158.585938 32.292969 C 158.585938 33.128906 158.960938 34.210938 160.003906 34.210938 C 160.628906 34.210938 161.207031 33.929688 161.714844 33.554688 L 161.78125 33.605469 C 161.753906 34.558594 161.734375 35.988281 161.703125 36.394531 Z M 161.78125 33.097656 C 161.453125 33.386719 161.015625 33.59375 160.628906 33.59375 C 159.816406 33.59375 159.496094 32.847656 159.496094 32.023438 C 159.496094 30.910156 159.835938 29.828125 160.957031 29.828125 C 161.21875 29.828125 161.445312 29.96875 161.621094 30.144531 C 161.78125 30.304688 161.78125 30.605469 161.78125 30.851562 L 161.78125 33.097656 "/>
<path style=" stroke:none;fill-rule:nonzero;fill:rgb(0%,0%,0%);fill-opacity:1;" d="M 164.953125 35.71875 L 164.953125 26.808594 L 164.554688 26.886719 L 164.554688 35.800781 L 164.953125 35.71875 "/>
<path style=" stroke:none;fill-rule:nonzero;fill:rgb(0%,0%,0%);fill-opacity:1;" d="M 6.976562 48.1875 C 6.917969 47.667969 6.886719 46.707031 6.878906 46.25 L 6.976562 46.167969 C 7.164062 46.21875 7.363281 46.25 7.5625 46.25 C 9.101562 46.25 10.144531 44.640625 10.144531 43.179688 C 10.144531 42.433594 9.796875 41.519531 8.785156 41.519531 C 8.101562 41.519531 7.492188 41.828125 6.957031 42.253906 L 6.878906 42.214844 C 6.835938 41.777344 6.679688 41.472656 6.230469 41.472656 C 5.796875 41.472656 5.277344 41.828125 4.882812 42.144531 L 5.019531 42.335938 C 5.257812 42.195312 5.535156 42.046875 5.746094 42.046875 C 6.042969 42.046875 6.132812 42.5625 6.132812 43.011719 L 6.132812 45.207031 C 6.132812 45.773438 6.121094 47.808594 6.074219 48.386719 L 6.171875 48.496094 Z M 6.898438 45.484375 C 6.898438 45.472656 6.878906 44.449219 6.878906 43.636719 C 6.878906 43.527344 6.90625 42.773438 6.90625 42.714844 C 7.375 42.34375 7.78125 42.136719 8.289062 42.136719 C 8.921875 42.136719 9.3125 42.902344 9.3125 43.765625 C 9.3125 44.710938 8.972656 45.851562 7.773438 45.851562 C 7.445312 45.851562 7.136719 45.703125 6.898438 45.484375 "/>
<path style=" stroke:none;fill-rule:nonzero;fill:rgb(0%,0%,0%);fill-opacity:1;" d="M 11.992188 48.226562 C 12.699219 47.410156 13.027344 46.90625 13.027344 46.410156 C 13.027344 46.058594 12.679688 44.769531 12.152344 44.769531 C 11.902344 44.769531 11.566406 44.988281 11.566406 45.246094 C 11.566406 45.34375 11.59375 45.453125 11.632812 45.503906 L 12.328125 46.328125 C 12.421875 46.4375 12.460938 46.605469 12.460938 46.746094 C 12.460938 47.144531 12.152344 47.628906 11.804688 48.085938 L 11.992188 48.226562 "/>
<path style=" stroke:none;fill-rule:nonzero;fill:rgb(0%,0%,0%);fill-opacity:1;" d="M 19.460938 48.554688 L 20.265625 48.265625 C 20.1875 47.382812 20.148438 46.230469 20.148438 45.019531 C 20.148438 43.707031 20.1875 42.324219 20.289062 41.171875 L 20.078125 41.132812 L 19.640625 41.71875 L 19.550781 41.738281 C 19.273438 41.601562 18.875 41.460938 18.570312 41.460938 C 16.890625 41.460938 16.183594 42.910156 16.183594 44.292969 C 16.183594 45.128906 16.5625 46.210938 17.605469 46.210938 C 18.230469 46.210938 18.804688 45.929688 19.3125 45.554688 L 19.382812 45.605469 C 19.351562 46.558594 19.332031 47.988281 19.304688 48.394531 Z M 19.382812 45.097656 C 19.054688 45.386719 18.617188 45.59375 18.230469 45.59375 C 17.414062 45.59375 17.097656 44.847656 17.097656 44.023438 C 17.097656 42.910156 17.4375 41.828125 18.558594 41.828125 C 18.816406 41.828125 19.046875 41.96875 19.222656 42.144531 C 19.382812 42.304688 19.382812 42.605469 19.382812 42.851562 L 19.382812 45.097656 "/>
<path style=" stroke:none;fill-rule:nonzero;fill:rgb(0%,0%,0%);fill-opacity:1;" d="M 29.542969 43.855469 C 29.710938 43.855469 29.890625 43.855469 29.890625 43.65625 C 29.890625 43.457031 29.710938 43.457031 29.542969 43.457031 L 25.332031 43.457031 C 25.453125 42.128906 26.59375 41.171875 27.992188 41.171875 L 29.542969 41.171875 C 29.710938 41.171875 29.890625 41.171875 29.890625 40.972656 C 29.890625 40.777344 29.710938 40.777344 29.542969 40.777344 L 27.972656 40.777344 C 26.273438 40.777344 24.925781 42.066406 24.925781 43.65625 C 24.925781 45.246094 26.273438 46.535156 27.972656 46.535156 L 29.542969 46.535156 C 29.710938 46.535156 29.890625 46.535156 29.890625 46.339844 C 29.890625 46.140625 29.710938 46.140625 29.542969 46.140625 L 27.992188 46.140625 C 26.59375 46.140625 25.453125 45.1875 25.332031 43.855469 L 29.542969 43.855469 "/>
<path style=" stroke:none;fill-rule:nonzero;fill:rgb(0%,0%,0%);fill-opacity:1;" d="M 35.585938 40.753906 C 35.585938 40.585938 35.636719 39.582031 35.664062 39.445312 L 35.59375 39.386719 L 33.917969 39.386719 L 33.835938 39.453125 L 33.859375 39.652344 C 33.996094 39.652344 34.730469 39.773438 34.730469 40.167969 C 34.730469 40.367188 34.730469 40.558594 34.730469 40.753906 C 34.730469 41.53125 34.710938 42.316406 34.710938 43.082031 C 34.710938 43.6875 34.722656 44.421875 34.789062 44.878906 C 34.910156 45.464844 35.238281 46.230469 36.617188 46.230469 C 37.445312 46.230469 38.238281 45.890625 38.933594 45.445312 L 39.011719 45.503906 C 39.011719 45.800781 38.953125 46.191406 39.339844 46.191406 C 39.648438 46.191406 40.355469 45.980469 40.859375 45.824219 L 40.910156 45.753906 L 40.871094 45.582031 C 40.671875 45.605469 40.492188 45.664062 40.296875 45.664062 C 39.816406 45.664062 39.816406 44.949219 39.816406 44.132812 C 39.816406 42.523438 39.828125 40.449219 39.976562 39.316406 L 39.917969 39.246094 L 39.042969 39.59375 C 39.023438 41.402344 39.003906 43.21875 39.003906 45.035156 C 38.46875 45.355469 37.871094 45.621094 37.253906 45.621094 C 36.289062 45.621094 35.507812 45.136719 35.507812 43.46875 L 35.585938 40.753906 "/>
<path style=" stroke:none;fill-rule:nonzero;fill:rgb(0%,0%,0%);fill-opacity:1;" d="M 58.3125 42.871094 L 58.371094 42.472656 L 51.804688 42.472656 L 51.734375 42.871094 Z M 58.3125 44.828125 L 58.371094 44.429688 L 51.804688 44.429688 L 51.734375 44.828125 L 58.3125 44.828125 "/>
<path style=" stroke:none;fill-rule:nonzero;fill:rgb(0%,0%,0%);fill-opacity:1;" d="M 64.660156 42.890625 C 64.808594 43.03125 65.117188 43.328125 65.621094 43.65625 C 65.375 43.816406 65.054688 44.042969 64.660156 44.421875 L 57.914062 44.421875 C 57.746094 44.421875 57.554688 44.421875 57.554688 44.621094 C 57.554688 44.816406 57.734375 44.816406 57.90625 44.816406 L 64.261719 44.816406 C 63.863281 45.246094 63.25 46.070312 62.882812 47.105469 L 63.277344 47.105469 C 63.824219 45.605469 64.925781 44.382812 66.378906 43.65625 C 64.976562 42.960938 63.84375 41.757812 63.277344 40.210938 L 62.882812 40.210938 C 63.257812 41.253906 63.875 42.066406 64.261719 42.496094 L 57.90625 42.496094 C 57.734375 42.496094 57.554688 42.496094 57.554688 42.691406 C 57.554688 42.890625 57.746094 42.890625 57.914062 42.890625 L 64.660156 42.890625 "/>
<path style=" stroke:none;fill-rule:nonzero;fill:rgb(0%,0%,0%);fill-opacity:1;" d="M 81.550781 47.71875 L 81.550781 38.808594 L 81.15625 38.886719 L 81.15625 47.800781 L 81.550781 47.71875 "/>
<path style=" stroke:none;fill-rule:nonzero;fill:rgb(0%,0%,0%);fill-opacity:1;" d="M 84.375 48.1875 C 84.316406 47.667969 84.289062 46.707031 84.277344 46.25 L 84.375 46.167969 C 84.566406 46.21875 84.765625 46.25 84.960938 46.25 C 86.503906 46.25 87.546875 44.640625 87.546875 43.179688 C 87.546875 42.433594 87.199219 41.519531 86.183594 41.519531 C 85.5 41.519531 84.894531 41.828125 84.355469 42.253906 L 84.277344 42.214844 C 84.238281 41.777344 84.078125 41.472656 83.632812 41.472656 C 83.195312 41.472656 82.679688 41.828125 82.28125 42.144531 L 82.421875 42.335938 C 82.65625 42.195312 82.9375 42.046875 83.144531 42.046875 C 83.445312 42.046875 83.53125 42.5625 83.53125 43.011719 L 83.53125 45.207031 C 83.53125 45.773438 83.523438 47.808594 83.472656 48.386719 L 83.570312 48.496094 Z M 84.296875 45.484375 C 84.296875 45.472656 84.277344 44.449219 84.277344 43.636719 C 84.277344 43.527344 84.308594 42.773438 84.308594 42.714844 C 84.773438 42.34375 85.179688 42.136719 85.6875 42.136719 C 86.324219 42.136719 86.710938 42.902344 86.710938 43.765625 C 86.710938 44.710938 86.375 45.851562 85.171875 45.851562 C 84.84375 45.851562 84.535156 45.703125 84.296875 45.484375 "/>
<path style=" stroke:none;fill-rule:nonzero;fill:rgb(0%,0%,0%);fill-opacity:1;" d="M 98.007812 39.34375 L 97.96875 39.304688 L 97.582031 39.304688 L 94.226562 45.554688 L 90.976562 39.34375 L 90.558594 39.414062 L 94.144531 46.257812 L 94.296875 46.257812 L 98.007812 39.34375 "/>
<path style=" stroke:none;fill-rule:nonzero;fill:rgb(0%,0%,0%);fill-opacity:1;" d="M 104.664062 48.554688 L 105.46875 48.265625 C 105.386719 47.382812 105.347656 46.230469 105.347656 45.019531 C 105.347656 43.707031 105.386719 42.324219 105.488281 41.171875 L 105.277344 41.132812 L 104.839844 41.71875 L 104.753906 41.738281 C 104.472656 41.601562 104.078125 41.460938 103.769531 41.460938 C 102.089844 41.460938 101.382812 42.910156 101.382812 44.292969 C 101.382812 45.128906 101.761719 46.210938 102.804688 46.210938 C 103.429688 46.210938 104.007812 45.929688 104.511719 45.554688 L 104.582031 45.605469 C 104.554688 46.558594 104.53125 47.988281 104.503906 48.394531 Z M 104.582031 45.097656 C 104.253906 45.386719 103.816406 45.59375 103.429688 45.59375 C 102.617188 45.59375 102.296875 44.847656 102.296875 44.023438 C 102.296875 42.910156 102.636719 41.828125 103.757812 41.828125 C 104.015625 41.828125 104.246094 41.96875 104.421875 42.144531 C 104.582031 42.304688 104.582031 42.605469 104.582031 42.851562 L 104.582031 45.097656 "/>
<path style=" stroke:none;fill-rule:nonzero;fill:rgb(0%,0%,0%);fill-opacity:1;" d="M 107.753906 47.71875 L 107.753906 38.808594 L 107.355469 38.886719 L 107.355469 47.800781 L 107.753906 47.71875 "/>
<path style=" stroke:none;fill-rule:nonzero;fill:rgb(0%,0%,0%);fill-opacity:1;" d="M 119.097656 45.691406 C 119.097656 46 119.355469 46.257812 119.671875 46.257812 C 119.980469 46.257812 120.230469 46 120.230469 45.691406 C 120.230469 45.386719 119.980469 45.128906 119.671875 45.128906 C 119.355469 45.128906 119.097656 45.386719 119.097656 45.691406 Z M 119.097656 42.1875 C 119.097656 42.496094 119.355469 42.753906 119.671875 42.753906 C 119.980469 42.753906 120.230469 42.496094 120.230469 42.1875 C 120.230469 41.878906 119.980469 41.621094 119.671875 41.621094 C 119.355469 41.621094 119.097656 41.878906 119.097656 42.1875 "/>
<path style=" stroke:none;fill-rule:nonzero;fill:rgb(0%,0%,0%);fill-opacity:1;" d="M 127.8125 42.871094 L 127.871094 42.472656 L 121.304688 42.472656 L 121.234375 42.871094 Z M 127.8125 44.828125 L 127.871094 44.429688 L 121.304688 44.429688 L 121.234375 44.828125 L 127.8125 44.828125 "/>
<path style=" stroke:none;fill-rule:nonzero;fill:rgb(0%,0%,0%);fill-opacity:1;" d="M 141.191406 47.757812 C 139.910156 47.511719 139.839844 45.097656 139.839844 43.417969 C 139.839844 41.917969 139.929688 39.394531 141.191406 39.078125 L 141.191406 38.808594 C 140.15625 38.988281 139.710938 40.121094 139.523438 41.074219 C 139.371094 41.816406 139.320312 42.59375 139.320312 43.359375 C 139.320312 44.164062 139.363281 44.96875 139.503906 45.761719 C 139.671875 46.707031 140.148438 47.910156 141.191406 47.996094 L 141.191406 47.757812 "/>
<path style=" stroke:none;fill-rule:nonzero;fill:rgb(0%,0%,0%);fill-opacity:1;" d="M 143.351562 47.71875 L 143.351562 38.808594 L 142.953125 38.886719 L 142.953125 47.800781 L 143.351562 47.71875 "/>
<path style=" stroke:none;fill-rule:nonzero;fill:rgb(0%,0%,0%);fill-opacity:1;" d="M 146.175781 48.1875 C 146.117188 47.667969 146.089844 46.707031 146.078125 46.25 L 146.175781 46.167969 C 146.367188 46.21875 146.5625 46.25 146.761719 46.25 C 148.304688 46.25 149.34375 44.640625 149.34375 43.179688 C 149.34375 42.433594 148.996094 41.519531 147.984375 41.519531 C 147.300781 41.519531 146.695312 41.828125 146.15625 42.253906 L 146.078125 42.214844 C 146.039062 41.777344 145.878906 41.472656 145.429688 41.472656 C 144.996094 41.472656 144.476562 41.828125 144.082031 42.144531 L 144.21875 42.335938 C 144.457031 42.195312 144.734375 42.046875 144.945312 42.046875 C 145.242188 42.046875 145.332031 42.5625 145.332031 43.011719 L 145.332031 45.207031 C 145.332031 45.773438 145.320312 47.808594 145.273438 48.386719 L 145.371094 48.496094 Z M 146.097656 45.484375 C 146.097656 45.472656 146.078125 44.449219 146.078125 43.636719 C 146.078125 43.527344 146.109375 42.773438 146.109375 42.714844 C 146.574219 42.34375 146.980469 42.136719 147.488281 42.136719 C 148.121094 42.136719 148.511719 42.902344 148.511719 43.765625 C 148.511719 44.710938 148.171875 45.851562 146.972656 45.851562 C 146.644531 45.851562 146.335938 45.703125 146.097656 45.484375 "/>
<path style=" stroke:none;fill-rule:nonzero;fill:rgb(0%,0%,0%);fill-opacity:1;" d="M 151.351562 47.71875 L 151.351562 38.808594 L 150.953125 38.886719 L 150.953125 47.800781 L 151.351562 47.71875 "/>
<path style=" stroke:none;fill-rule:nonzero;fill:rgb(0%,0%,0%);fill-opacity:1;" d="M 158.335938 43.398438 L 158.335938 40.316406 L 157.9375 40.378906 L 157.9375 43.398438 L 154.925781 43.398438 L 154.855469 43.796875 L 157.9375 43.796875 L 157.9375 46.875 L 158.335938 46.804688 L 158.335938 43.796875 L 161.394531 43.796875 L 161.445312 43.398438 L 158.335938 43.398438 "/>
<path style=" stroke:none;fill-rule:nonzero;fill:rgb(0%,0%,0%);fill-opacity:1;" d="M 165.453125 47.71875 L 165.453125 38.808594 L 165.054688 38.886719 L 165.054688 47.800781 L 165.453125 47.71875 "/>
<path style=" stroke:none;fill-rule:nonzero;fill:rgb(0%,0%,0%);fill-opacity:1;" d="M 170.464844 48.554688 L 171.265625 48.265625 C 171.1875 47.382812 171.148438 46.230469 171.148438 45.019531 C 171.148438 43.707031 171.1875 42.324219 171.289062 41.171875 L 171.078125 41.132812 L 170.640625 41.71875 L 170.550781 41.738281 C 170.273438 41.601562 169.878906 41.460938 169.570312 41.460938 C 167.890625 41.460938 167.183594 42.910156 167.183594 44.292969 C 167.183594 45.128906 167.5625 46.210938 168.605469 46.210938 C 169.230469 46.210938 169.804688 45.929688 170.3125 45.554688 L 170.382812 45.605469 C 170.351562 46.558594 170.332031 47.988281 170.304688 48.394531 Z M 170.382812 45.097656 C 170.054688 45.386719 169.617188 45.59375 169.230469 45.59375 C 168.414062 45.59375 168.097656 44.847656 168.097656 44.023438 C 168.097656 42.910156 168.4375 41.828125 169.558594 41.828125 C 169.816406 41.828125 170.046875 41.96875 170.222656 42.144531 C 170.382812 42.304688 170.382812 42.605469 170.382812 42.851562 L 170.382812 45.097656 "/>
<path style=" stroke:none;fill-rule:nonzero;fill:rgb(0%,0%,0%);fill-opacity:1;" d="M 173.652344 47.71875 L 173.652344 38.808594 L 173.253906 38.886719 L 173.253906 47.800781 L 173.652344 47.71875 "/>
<path style=" stroke:none;fill-rule:nonzero;fill:rgb(0%,0%,0%);fill-opacity:1;" d="M 175.355469 39.097656 C 176.160156 39.386719 176.386719 40.316406 176.535156 41.0625 C 176.6875 41.828125 176.726562 42.621094 176.726562 43.398438 C 176.726562 44.53125 176.746094 45.742188 176.386719 46.804688 C 176.1875 47.402344 175.8125 47.660156 175.355469 47.777344 L 175.355469 48.019531 C 177.132812 47.789062 177.242188 45.136719 177.242188 43.4375 C 177.242188 41.777344 177.03125 39.175781 175.355469 38.828125 L 175.355469 39.097656 "/>
<path style=" stroke:none;fill-rule:nonzero;fill:rgb(0%,0%,0%);fill-opacity:1;" d="M 187.59375 43.796875 L 187.652344 43.398438 L 181.128906 43.398438 L 181.054688 43.796875 L 187.59375 43.796875 "/>
<path style=" stroke:none;fill-rule:nonzero;fill:rgb(0%,0%,0%);fill-opacity:1;" d="M 193.289062 47.757812 C 192.007812 47.511719 191.9375 45.097656 191.9375 43.417969 C 191.9375 41.917969 192.027344 39.394531 193.289062 39.078125 L 193.289062 38.808594 C 192.257812 38.988281 191.808594 40.121094 191.621094 41.074219 C 191.472656 41.816406 191.421875 42.59375 191.421875 43.359375 C 191.421875 44.164062 191.464844 44.96875 191.601562 45.761719 C 191.769531 46.707031 192.246094 47.910156 193.289062 47.996094 L 193.289062 47.757812 "/>
<path style=" stroke:none;fill-rule:nonzero;fill:rgb(0%,0%,0%);fill-opacity:1;" d="M 195.453125 47.71875 L 195.453125 38.808594 L 195.054688 38.886719 L 195.054688 47.800781 L 195.453125 47.71875 "/>
<path style=" stroke:none;fill-rule:nonzero;fill:rgb(0%,0%,0%);fill-opacity:1;" d="M 198.277344 48.1875 C 198.21875 47.667969 198.1875 46.707031 198.179688 46.25 L 198.277344 46.167969 C 198.464844 46.21875 198.664062 46.25 198.863281 46.25 C 200.402344 46.25 201.445312 44.640625 201.445312 43.179688 C 201.445312 42.433594 201.097656 41.519531 200.085938 41.519531 C 199.398438 41.519531 198.792969 41.828125 198.257812 42.253906 L 198.179688 42.214844 C 198.136719 41.777344 197.976562 41.472656 197.53125 41.472656 C 197.09375 41.472656 196.578125 41.828125 196.179688 42.144531 L 196.320312 42.335938 C 196.558594 42.195312 196.835938 42.046875 197.046875 42.046875 C 197.34375 42.046875 197.433594 42.5625 197.433594 43.011719 L 197.433594 45.207031 C 197.433594 45.773438 197.421875 47.808594 197.371094 48.386719 L 197.472656 48.496094 Z M 198.195312 45.484375 C 198.195312 45.472656 198.179688 44.449219 198.179688 43.636719 C 198.179688 43.527344 198.207031 42.773438 198.207031 42.714844 C 198.671875 42.34375 199.082031 42.136719 199.589844 42.136719 C 200.222656 42.136719 200.609375 42.902344 200.609375 43.765625 C 200.609375 44.710938 200.273438 45.851562 199.070312 45.851562 C 198.742188 45.851562 198.4375 45.703125 198.195312 45.484375 "/>
<path style=" stroke:none;fill-rule:nonzero;fill:rgb(0%,0%,0%);fill-opacity:1;" d="M 203.453125 47.71875 L 203.453125 38.808594 L 203.054688 38.886719 L 203.054688 47.800781 L 203.453125 47.71875 "/>
<path style=" stroke:none;fill-rule:nonzero;fill:rgb(0%,0%,0%);fill-opacity:1;" d="M 208.40625 43.65625 C 208.40625 43.367188 208.167969 43.128906 207.882812 43.128906 C 207.59375 43.128906 207.355469 43.367188 207.355469 43.65625 C 207.355469 43.945312 207.59375 44.183594 207.882812 44.183594 C 208.167969 44.183594 208.40625 43.945312 208.40625 43.65625 "/>
<path style=" stroke:none;fill-rule:nonzero;fill:rgb(0%,0%,0%);fill-opacity:1;" d="M 212.753906 47.71875 L 212.753906 38.808594 L 212.355469 38.886719 L 212.355469 47.800781 L 212.753906 47.71875 "/>
<path style=" stroke:none;fill-rule:nonzero;fill:rgb(0%,0%,0%);fill-opacity:1;" d="M 217.761719 48.554688 L 218.566406 48.265625 C 218.488281 47.382812 218.445312 46.230469 218.445312 45.019531 C 218.445312 43.707031 218.488281 42.324219 218.589844 41.171875 L 218.378906 41.132812 L 217.941406 41.71875 L 217.851562 41.738281 C 217.574219 41.601562 217.175781 41.460938 216.867188 41.460938 C 215.1875 41.460938 214.484375 42.910156 214.484375 44.292969 C 214.484375 45.128906 214.859375 46.210938 215.90625 46.210938 C 216.53125 46.210938 217.105469 45.929688 217.613281 45.554688 L 217.683594 45.605469 C 217.652344 46.558594 217.632812 47.988281 217.601562 48.394531 Z M 217.683594 45.097656 C 217.355469 45.386719 216.917969 45.59375 216.53125 45.59375 C 215.714844 45.59375 215.398438 44.847656 215.398438 44.023438 C 215.398438 42.910156 215.734375 41.828125 216.859375 41.828125 C 217.117188 41.828125 217.34375 41.96875 217.523438 42.144531 C 217.683594 42.304688 217.683594 42.605469 217.683594 42.851562 L 217.683594 45.097656 "/>
<path style=" stroke:none;fill-rule:nonzero;fill:rgb(0%,0%,0%);fill-opacity:1;" d="M 220.953125 47.71875 L 220.953125 38.808594 L 220.554688 38.886719 L 220.554688 47.800781 L 220.953125 47.71875 "/>
<path style=" stroke:none;fill-rule:nonzero;fill:rgb(0%,0%,0%);fill-opacity:1;" d="M 222.65625 39.097656 C 223.460938 39.386719 223.6875 40.316406 223.835938 41.0625 C 223.984375 41.828125 224.023438 42.621094 224.023438 43.398438 C 224.023438 44.53125 224.046875 45.742188 223.6875 46.804688 C 223.488281 47.402344 223.109375 47.660156 222.65625 47.777344 L 222.65625 48.019531 C 224.433594 47.789062 224.542969 45.136719 224.542969 43.4375 C 224.542969 41.777344 224.332031 39.175781 222.65625 38.828125 L 222.65625 39.097656 "/>
<path style=" stroke:none;fill-rule:nonzero;fill:rgb(0%,0%,0%);fill-opacity:1;" d="M 97.851562 59.621094 L 97.851562 50.707031 L 97.453125 50.789062 L 97.453125 59.699219 L 97.851562 59.621094 "/>
<path style=" stroke:none;fill-rule:nonzero;fill:rgb(0%,0%,0%);fill-opacity:1;" d="M 102.761719 51.761719 C 102.761719 51.582031 102.761719 51.402344 102.5625 51.402344 C 102.367188 51.402344 102.367188 51.613281 102.367188 51.761719 L 102.367188 57.644531 L 99.605469 57.644531 C 99.453125 57.644531 99.246094 57.644531 99.246094 57.839844 C 99.246094 58.039062 99.453125 58.039062 99.605469 58.039062 L 105.535156 58.039062 C 105.703125 58.039062 105.882812 58.039062 105.882812 57.839844 C 105.882812 57.644531 105.703125 57.644531 105.535156 57.644531 L 102.761719 57.644531 L 102.761719 51.761719 "/>
<path style=" stroke:none;fill-rule:nonzero;fill:rgb(0%,0%,0%);fill-opacity:1;" d="M 107.753906 59.621094 L 107.753906 50.707031 L 107.355469 50.789062 L 107.355469 59.699219 L 107.753906 59.621094 "/>
<path style=" stroke:none;fill-rule:nonzero;fill:rgb(0%,0%,0%);fill-opacity:1;" d="M 119.097656 57.59375 C 119.097656 57.902344 119.355469 58.160156 119.671875 58.160156 C 119.980469 58.160156 120.230469 57.902344 120.230469 57.59375 C 120.230469 57.285156 119.980469 57.027344 119.671875 57.027344 C 119.355469 57.027344 119.097656 57.285156 119.097656 57.59375 Z M 119.097656 54.085938 C 119.097656 54.394531 119.355469 54.652344 119.671875 54.652344 C 119.980469 54.652344 120.230469 54.394531 120.230469 54.085938 C 120.230469 53.777344 119.980469 53.519531 119.671875 53.519531 C 119.355469 53.519531 119.097656 53.777344 119.097656 54.085938 "/>
<path style=" stroke:none;fill-rule:nonzero;fill:rgb(0%,0%,0%);fill-opacity:1;" d="M 127.8125 54.769531 L 127.871094 54.375 L 121.304688 54.375 L 121.234375 54.769531 Z M 127.8125 56.730469 L 127.871094 56.332031 L 121.304688 56.332031 L 121.234375 56.730469 L 127.8125 56.730469 "/>
<path style=" stroke:none;fill-rule:nonzero;fill:rgb(0%,0%,0%);fill-opacity:1;" d="M 141.082031 51.046875 C 140.644531 51.226562 140.15625 51.464844 139.828125 51.792969 C 138.984375 52.636719 138.539062 53.839844 138.539062 55.03125 C 138.539062 56.171875 138.816406 58.179688 140.257812 58.179688 C 142.085938 58.179688 142.769531 56.082031 142.769531 54.503906 C 142.769531 53.183594 142.28125 51.8125 141.082031 51.046875 Z M 140.523438 51.683594 C 140.972656 51.871094 141.40625 52.566406 141.476562 52.683594 C 141.914062 53.472656 142.152344 54.316406 142.152344 55.207031 C 142.152344 56.171875 141.914062 57.523438 140.703125 57.523438 C 140.066406 57.523438 139.609375 56.738281 139.414062 56.0625 C 139.253906 55.515625 139.203125 54.929688 139.203125 54.355469 C 139.203125 53.351562 139.648438 52.230469 140.523438 51.683594 "/>
</g>
</svg>
