<?xml version="1.0" encoding="UTF-8"?>
<svg xmlns="http://www.w3.org/2000/svg" xmlns:xlink="http://www.w3.org/1999/xlink" width="93.28pt" height="37.33pt" viewBox="0 0 93.28 37.33" version="1.1">
<g id="surface1">
<path style=" stroke:none;fill-rule:nonzero;fill:rgb(0%,0%,0%);fill-opacity:1;" d="M 6.25 9.910156 L 6.25 1 L 5.855469 1.078125 L 5.855469 9.988281 L 6.25 9.910156 "/>
<path style=" stroke:none;fill-rule:nonzero;fill:rgb(0%,0%,0%);fill-opacity:1;" d="M 13.429688 1.574219 C 13.179688 2 12.929688 2.4375 12.742188 2.886719 L 11.5625 5.609375 C 11.152344 6.492188 10.925781 7.007812 10.855469 7.027344 C 10.835938 7.019531 10.796875 7 10.773438 6.960938 C 10.070312 5.152344 9.523438 3.292969 9.136719 1.394531 L 7.398438 1.496094 L 7.328125 1.554688 L 7.339844 1.824219 C 7.894531 1.902344 8.125 1.953125 8.28125 2.28125 C 8.480469 2.71875 8.609375 3.171875 8.757812 3.632812 L 10.179688 8.417969 L 10.277344 8.488281 L 10.953125 8.230469 C 11.519531 6.589844 12.246094 5 12.960938 3.679688 C 13.078125 3.472656 13.695312 2.378906 14.34375 1.59375 L 14.28125 1.40625 L 13.429688 1.574219 "/>
<path style=" stroke:none;fill-rule:nonzero;fill:rgb(0%,0%,0%);fill-opacity:1;" d="M 15.652344 9.910156 L 15.652344 1 L 15.253906 1.078125 L 15.253906 9.988281 L 15.652344 9.910156 "/>
<path style=" stroke:none;fill-rule:nonzero;fill:rgb(0%,0%,0%);fill-opacity:1;" d="M 33.613281 5.0625 L 33.671875 4.664062 L 27.105469 4.664062 L 27.035156 5.0625 Z M 33.613281 7.019531 L 33.671875 6.621094 L 27.105469 6.621094 L 27.035156 7.019531 L 33.613281 7.019531 "/>
<path style=" stroke:none;fill-rule:nonzero;fill:rgb(0%,0%,0%);fill-opacity:1;" d="M 47.226562 7.425781 L 46.382812 7.425781 C 46.105469 7.425781 45.726562 6.742188 45.726562 6.242188 C 45.726562 5.65625 46.125 5.042969 46.542969 4.664062 L 48.359375 6.132812 C 49.085938 6.71875 50.019531 7.59375 50.46875 8.320312 L 50.636719 8.320312 L 50.84375 6.910156 C 50.089844 6.375 49.027344 5.757812 49.027344 4.792969 C 49.027344 4.335938 49.046875 4.085938 49.1875 3.679688 C 49.246094 3.511719 49.554688 2.914062 49.78125 2.757812 L 50.257812 2.757812 C 50.4375 2.757812 50.585938 2.886719 50.695312 3.023438 L 50.84375 2.976562 L 50.84375 2.261719 C 50.84375 2.03125 50.636719 1.875 50.40625 1.875 L 49.214844 1.875 C 48.878906 1.875 48.71875 1.8125 48.628906 1.484375 L 48.390625 1.484375 L 48.390625 2.367188 C 48.390625 2.738281 48.816406 2.765625 49.363281 2.765625 C 48.886719 3.292969 48.570312 3.988281 48.570312 4.65625 L 48.570312 5.089844 C 48.558594 5.089844 46.851562 3.71875 46.054688 3.074219 C 45.550781 2.667969 45.140625 2.140625 45.082031 1.484375 L 44.773438 1.484375 L 44.773438 3.035156 C 44.972656 3.402344 45.835938 4.097656 46.3125 4.476562 C 45.191406 5.597656 45.230469 6.265625 45.191406 7.425781 L 44.945312 8.320312 L 47.089844 8.320312 L 47.226562 7.425781 "/>
<path style=" stroke:none;fill-rule:nonzero;fill:rgb(0%,0%,0%);fill-opacity:1;" d="M 54.21875 6.179688 C 53.878906 6.308594 53.484375 6.476562 53.21875 6.707031 C 52.542969 7.304688 52.183594 8.15625 52.183594 9 C 52.183594 9.828125 52.421875 11.226562 53.5625 11.226562 C 54.996094 11.226562 55.574219 9.78125 55.574219 8.625 C 55.574219 7.691406 55.1875 6.714844 54.21875 6.179688 Z M 53.773438 6.632812 C 54.132812 6.765625 54.484375 7.257812 54.539062 7.339844 C 54.882812 7.894531 55.082031 8.492188 55.082031 9.125 C 55.082031 9.820312 54.878906 10.765625 53.921875 10.765625 C 53.402344 10.765625 53.050781 10.210938 52.886719 9.730469 C 52.753906 9.351562 52.71875 8.929688 52.71875 8.523438 C 52.71875 7.8125 53.085938 7.023438 53.773438 6.632812 "/>
<path style=" stroke:none;fill-rule:nonzero;fill:rgb(0%,0%,0%);fill-opacity:1;" d="M 16.074219 17.417969 L 16.042969 17.339844 L 15.476562 17.179688 L 15.25 17.28125 C 14.921875 18.5625 14.5625 19.65625 14.007812 20.828125 L 13.957031 20.828125 C 13.699219 19.644531 13.332031 18.015625 12.785156 17.46875 C 12.578125 17.261719 12.25 17.152344 11.949219 17.152344 C 11.421875 17.152344 10.996094 17.367188 10.648438 17.757812 L 10.847656 18.015625 C 10.996094 17.914062 11.203125 17.835938 11.511719 17.835938 C 12.238281 17.835938 12.664062 18.808594 12.894531 19.464844 C 13.164062 20.230469 13.320312 21.035156 13.441406 21.839844 L 13.507812 21.910156 L 14.066406 21.589844 C 14.265625 21.09375 14.484375 20.617188 14.722656 20.140625 L 16.074219 17.417969 "/>
<path style=" stroke:none;fill-rule:nonzero;fill:rgb(0%,0%,0%);fill-opacity:1;" d="M 32.34375 19.546875 C 32.511719 19.546875 32.691406 19.546875 32.691406 19.347656 C 32.691406 19.148438 32.511719 19.148438 32.34375 19.148438 L 28.132812 19.148438 C 28.25 17.816406 29.394531 16.863281 30.792969 16.863281 L 32.34375 16.863281 C 32.511719 16.863281 32.691406 16.863281 32.691406 16.664062 C 32.691406 16.464844 32.511719 16.464844 32.34375 16.464844 L 30.773438 16.464844 C 29.074219 16.464844 27.726562 17.757812 27.726562 19.347656 C 27.726562 20.9375 29.074219 22.226562 30.773438 22.226562 L 32.34375 22.226562 C 32.511719 22.226562 32.691406 22.226562 32.691406 22.027344 C 32.691406 21.828125 32.511719 21.828125 32.34375 21.828125 L 30.792969 21.828125 C 29.394531 21.828125 28.25 20.875 28.132812 19.546875 L 32.34375 19.546875 "/>
<path style=" stroke:none;fill-rule:nonzero;fill:rgb(0%,0%,0%);fill-opacity:1;" d="M 46.773438 14.757812 L 46.773438 14.519531 C 46.234375 14.519531 45.578125 14.519531 45.191406 14.46875 L 45.191406 23.070312 C 45.710938 23.023438 46.234375 23.023438 46.773438 23.023438 L 46.773438 22.78125 L 45.589844 22.65625 L 45.589844 14.886719 L 46.773438 14.757812 "/>
<path style=" stroke:none;fill-rule:nonzero;fill:rgb(0%,0%,0%);fill-opacity:1;" d="M 49.582031 14.835938 C 49.144531 15.015625 48.65625 15.253906 48.328125 15.582031 C 47.484375 16.425781 47.039062 17.628906 47.039062 18.820312 C 47.039062 19.960938 47.316406 21.96875 48.757812 21.96875 C 50.585938 21.96875 51.269531 19.875 51.269531 18.292969 C 51.269531 16.972656 50.78125 15.601562 49.582031 14.835938 Z M 49.023438 15.472656 C 49.472656 15.660156 49.90625 16.355469 49.976562 16.476562 C 50.414062 17.261719 50.652344 18.105469 50.652344 19 C 50.652344 19.960938 50.414062 21.3125 49.203125 21.3125 C 48.566406 21.3125 48.109375 20.527344 47.914062 19.851562 C 47.753906 19.304688 47.703125 18.71875 47.703125 18.144531 C 47.703125 17.140625 48.148438 16.019531 49.023438 15.472656 "/>
<path style=" stroke:none;fill-rule:nonzero;fill:rgb(0%,0%,0%);fill-opacity:1;" d="M 52.792969 23.914062 C 53.5 23.101562 53.828125 22.59375 53.828125 22.097656 C 53.828125 21.75 53.476562 20.460938 52.953125 20.460938 C 52.703125 20.460938 52.367188 20.679688 52.367188 20.9375 C 52.367188 21.035156 52.394531 21.144531 52.433594 21.195312 L 53.128906 22.019531 C 53.21875 22.128906 53.257812 22.296875 53.257812 22.4375 C 53.257812 22.832031 52.953125 23.320312 52.605469 23.777344 L 52.792969 23.914062 "/>
<path style=" stroke:none;fill-rule:nonzero;fill:rgb(0%,0%,0%);fill-opacity:1;" d="M 59.160156 14.757812 L 57.015625 15.484375 L 57.015625 15.75 L 57.839844 15.75 C 58.453125 15.75 58.304688 16.5625 58.304688 17.667969 C 58.304688 19.058594 58.273438 20.449219 58.226562 21.828125 L 58.34375 21.878906 L 59.179688 21.609375 C 59.148438 20.855469 59.148438 18.890625 59.148438 17.539062 C 59.148438 16.65625 59.167969 15.761719 59.21875 14.875 L 59.160156 14.757812 "/>
<path style=" stroke:none;fill-rule:nonzero;fill:rgb(0%,0%,0%);fill-opacity:1;" d="M 62.273438 14.886719 L 62.273438 22.65625 L 61.089844 22.78125 L 61.089844 23.023438 C 61.625 23.023438 62.152344 23.023438 62.667969 23.070312 L 62.667969 14.46875 C 62.28125 14.519531 61.625 14.519531 61.089844 14.519531 L 61.089844 14.757812 L 62.273438 14.886719 "/>
<path style=" stroke:none;fill-rule:nonzero;fill:rgb(0%,0%,0%);fill-opacity:1;" d="M 69.179688 12.050781 C 68.976562 12.351562 68.785156 12.660156 68.632812 12.976562 L 67.683594 14.902344 C 67.367188 15.550781 67.167969 15.894531 67.121094 15.910156 C 67.105469 15.902344 67.070312 15.886719 67.054688 15.859375 C 66.492188 14.578125 66.058594 13.265625 65.75 11.921875 L 64.355469 11.992188 L 64.300781 12.035156 L 64.308594 12.226562 C 64.773438 12.28125 64.945312 12.324219 65.058594 12.546875 C 65.207031 12.859375 65.335938 13.179688 65.445312 13.503906 L 66.578125 16.890625 L 66.664062 16.941406 L 67.195312 16.757812 C 67.65625 15.601562 68.230469 14.46875 68.800781 13.539062 C 68.898438 13.382812 69.398438 12.617188 69.910156 12.0625 L 69.859375 11.929688 L 69.179688 12.050781 "/>
<path style=" stroke:none;fill-rule:nonzero;fill:rgb(0%,0%,0%);fill-opacity:1;" d="M 16.074219 29.320312 L 16.042969 29.238281 L 15.476562 29.082031 L 15.25 29.179688 C 14.921875 30.460938 14.5625 31.554688 14.007812 32.726562 L 13.957031 32.726562 C 13.699219 31.542969 13.332031 29.914062 12.785156 29.367188 C 12.578125 29.160156 12.25 29.050781 11.949219 29.050781 C 11.421875 29.050781 10.996094 29.269531 10.648438 29.65625 L 10.847656 29.914062 C 10.996094 29.816406 11.203125 29.734375 11.511719 29.734375 C 12.238281 29.734375 12.664062 30.710938 12.894531 31.367188 C 13.164062 32.128906 13.320312 32.933594 13.441406 33.738281 L 13.507812 33.808594 L 14.066406 33.492188 C 14.265625 32.996094 14.484375 32.515625 14.722656 32.039062 L 16.074219 29.320312 "/>
<path style=" stroke:none;fill-rule:nonzero;fill:rgb(0%,0%,0%);fill-opacity:1;" d="M 29.695312 33.28125 C 29.695312 33.589844 29.953125 33.847656 30.273438 33.847656 C 30.582031 33.847656 30.828125 33.589844 30.828125 33.28125 C 30.828125 32.976562 30.582031 32.71875 30.273438 32.71875 C 29.953125 32.71875 29.695312 32.976562 29.695312 33.28125 Z M 29.695312 29.777344 C 29.695312 30.085938 29.953125 30.34375 30.273438 30.34375 C 30.582031 30.34375 30.828125 30.085938 30.828125 29.777344 C 30.828125 29.46875 30.582031 29.210938 30.273438 29.210938 C 29.953125 29.210938 29.695312 29.46875 29.695312 29.777344 "/>
<path style=" stroke:none;fill-rule:nonzero;fill:rgb(0%,0%,0%);fill-opacity:1;" d="M 50.328125 26.976562 C 50.078125 27.402344 49.832031 27.839844 49.640625 28.285156 L 48.460938 31.007812 C 48.054688 31.890625 47.824219 32.40625 47.753906 32.429688 C 47.734375 32.417969 47.695312 32.398438 47.675781 32.359375 C 46.96875 30.550781 46.421875 28.695312 46.035156 26.796875 L 44.296875 26.894531 L 44.226562 26.953125 L 44.238281 27.222656 C 44.796875 27.304688 45.023438 27.351562 45.183594 27.679688 C 45.382812 28.117188 45.507812 28.574219 45.660156 29.03125 L 47.078125 33.820312 L 47.179688 33.890625 L 47.855469 33.628906 C 48.421875 31.992188 49.144531 30.402344 49.859375 29.082031 C 49.980469 28.871094 50.59375 27.78125 51.242188 26.996094 L 51.183594 26.804688 L 50.328125 26.976562 "/>
<path style=" stroke:none;fill-rule:nonzero;fill:rgb(0%,0%,0%);fill-opacity:1;" d="M 62.683594 31.445312 C 62.3125 31.902344 61.789062 32.6875 61.539062 33.730469 L 61.9375 33.730469 C 62.246094 32.429688 63.078125 31.523438 63.378906 31.246094 C 63.058594 30.949219 62.246094 30.054688 61.9375 28.761719 L 61.539062 28.761719 C 61.789062 29.796875 62.304688 30.582031 62.683594 31.046875 L 54.90625 31.046875 C 54.726562 31.046875 54.554688 31.046875 54.554688 31.246094 C 54.554688 31.445312 54.734375 31.445312 54.90625 31.445312 L 62.683594 31.445312 "/>
<path style=" stroke:none;fill-rule:nonzero;fill:rgb(0%,0%,0%);fill-opacity:1;" d="M 71.171875 26.65625 L 71.171875 26.417969 C 70.632812 26.417969 69.980469 26.417969 69.59375 26.367188 L 69.59375 34.972656 C 70.109375 34.921875 70.632812 34.921875 71.171875 34.921875 L 71.171875 34.683594 L 69.988281 34.554688 L 69.988281 26.785156 L 71.171875 26.65625 "/>
<path style=" stroke:none;fill-rule:nonzero;fill:rgb(0%,0%,0%);fill-opacity:1;" d="M 74.082031 26.734375 C 73.644531 26.914062 73.15625 27.152344 72.828125 27.480469 C 71.984375 28.324219 71.539062 29.527344 71.539062 30.71875 C 71.539062 31.863281 71.816406 33.867188 73.257812 33.867188 C 75.085938 33.867188 75.769531 31.773438 75.769531 30.195312 C 75.769531 28.871094 75.28125 27.5 74.082031 26.734375 Z M 73.523438 27.371094 C 73.972656 27.5625 74.40625 28.257812 74.476562 28.375 C 74.914062 29.160156 75.152344 30.003906 75.152344 30.898438 C 75.152344 31.863281 74.914062 33.210938 73.703125 33.210938 C 73.066406 33.210938 72.609375 32.429688 72.414062 31.753906 C 72.253906 31.207031 72.203125 30.621094 72.203125 30.042969 C 72.203125 29.039062 72.648438 27.917969 73.523438 27.371094 "/>
<path style=" stroke:none;fill-rule:nonzero;fill:rgb(0%,0%,0%);fill-opacity:1;" d="M 77.191406 35.816406 C 77.898438 35 78.226562 34.496094 78.226562 34 C 78.226562 33.648438 77.878906 32.359375 77.351562 32.359375 C 77.101562 32.359375 76.765625 32.578125 76.765625 32.835938 C 76.765625 32.933594 76.796875 33.042969 76.835938 33.09375 L 77.53125 33.917969 C 77.621094 34.027344 77.660156 34.195312 77.660156 34.335938 C 77.660156 34.734375 77.351562 35.21875 77.003906 35.675781 L 77.191406 35.816406 "/>
<path style=" stroke:none;fill-rule:nonzero;fill:rgb(0%,0%,0%);fill-opacity:1;" d="M 83.558594 26.65625 L 81.414062 27.382812 L 81.414062 27.648438 L 82.238281 27.648438 C 82.855469 27.648438 82.703125 28.464844 82.703125 29.566406 C 82.703125 30.957031 82.675781 32.347656 82.625 33.730469 L 82.746094 33.78125 L 83.578125 33.511719 C 83.550781 32.757812 83.550781 30.789062 83.550781 29.4375 C 83.550781 28.554688 83.570312 27.660156 83.617188 26.777344 L 83.558594 26.65625 "/>
<path style=" stroke:none;fill-rule:nonzero;fill:rgb(0%,0%,0%);fill-opacity:1;" d="M 86.671875 26.785156 L 86.671875 34.554688 L 85.492188 34.683594 L 85.492188 34.921875 C 86.027344 34.921875 86.554688 34.921875 87.070312 34.972656 L 87.070312 26.367188 C 86.683594 26.417969 86.027344 26.417969 85.492188 26.417969 L 85.492188 26.65625 L 86.671875 26.785156 "/>
</g>
</svg>
