<?xml version="1.0" encoding="UTF-8"?>
<svg xmlns="http://www.w3.org/2000/svg" xmlns:xlink="http://www.w3.org/1999/xlink" width="176.77pt" height="49.76pt" viewBox="0 0 176.77 49.76" version="1.1">
<defs>
<clipPath id="clip1">
  <path d="M 170 3 L 176.769531 3 L 176.769531 11 L 170 11 Z M 170 3 "/>
</clipPath>
<clipPath id="clip2">
  <path d="M 106 13 L 176.769531 13 L 176.769531 14 L 106 14 Z M 106 13 "/>
</clipPath>
<clipPath id="clip3">
  <path d="M 65 25 L 176.769531 25 L 176.769531 27 L 65 27 Z M 65 25 "/>
</clipPath>
<clipPath id="clip4">
  <path d="M 37 38 L 176.769531 38 L 176.769531 39 L 37 39 Z M 37 38 "/>
</clipPath>
<clipPath id="clip5">
  <path d="M 88 43 L 94 43 L 94 49.761719 L 88 49.761719 Z M 88 43 "/>
</clipPath>
<clipPath id="clip6">
  <path d="M 119 43 L 125 43 L 125 49.761719 L 119 49.761719 Z M 119 43 "/>
</clipPath>
</defs>
<g id="surface1">
<path style=" stroke:none;fill-rule:nonzero;fill:rgb(0%,0%,0%);fill-opacity:1;" d="M 2.992188 42.679688 C 1.710938 42.429688 1.640625 40.015625 1.640625 38.339844 C 1.640625 36.839844 1.726562 34.316406 2.992188 33.996094 L 2.992188 33.730469 C 1.957031 33.910156 1.507812 35.039062 1.320312 35.996094 C 1.171875 36.738281 1.121094 37.511719 1.121094 38.277344 C 1.121094 39.082031 1.164062 39.886719 1.300781 40.683594 C 1.46875 41.625 1.945312 42.828125 2.992188 42.917969 L 2.992188 42.679688 "/>
<path style=" stroke:none;fill-rule:nonzero;fill:rgb(0%,0%,0%);fill-opacity:1;" d="M 12.582031 38.777344 C 12.214844 39.230469 11.6875 40.015625 11.4375 41.058594 L 11.835938 41.058594 C 12.144531 39.757812 12.980469 38.855469 13.277344 38.578125 C 12.960938 38.277344 12.144531 37.386719 11.835938 36.09375 L 11.4375 36.09375 C 11.6875 37.125 12.203125 37.910156 12.582031 38.378906 L 4.804688 38.378906 C 4.625 38.378906 4.457031 38.378906 4.457031 38.578125 C 4.457031 38.777344 4.632812 38.777344 4.804688 38.777344 L 12.582031 38.777344 "/>
<path style=" stroke:none;fill-rule:nonzero;fill:rgb(0%,0%,0%);fill-opacity:1;" d="M 20.039062 41.070312 L 20.054688 40.832031 C 20.046875 40.832031 19.621094 40.722656 19.410156 40.664062 C 18.992188 40.554688 19.101562 39.808594 19.09375 39.382812 C 19.082031 38.777344 19.074219 38.160156 19.074219 37.496094 C 19.074219 36.71875 19.015625 35.535156 19.101562 34.949219 C 19.113281 34.832031 19.191406 34.722656 19.320312 34.691406 L 19.988281 34.542969 L 19.988281 34.335938 L 19.929688 34.277344 L 17.445312 34.277344 L 17.375 34.335938 L 17.375 34.554688 C 18.167969 34.730469 18.238281 34.683594 18.257812 34.980469 C 18.289062 35.359375 18.289062 35.734375 18.289062 36.121094 L 18.289062 39.730469 C 18.25 40.554688 18.378906 40.621094 17.40625 40.8125 L 17.40625 41.070312 L 20.039062 41.070312 "/>
<path style=" stroke:none;fill-rule:nonzero;fill:rgb(0%,0%,0%);fill-opacity:1;" d="M 21.355469 34.015625 C 22.160156 34.304688 22.386719 35.238281 22.535156 35.984375 C 22.6875 36.75 22.726562 37.542969 22.726562 38.316406 C 22.726562 39.449219 22.746094 40.664062 22.386719 41.726562 C 22.1875 42.320312 21.8125 42.582031 21.355469 42.699219 L 21.355469 42.9375 C 23.132812 42.707031 23.242188 40.058594 23.242188 38.359375 C 23.242188 36.699219 23.03125 34.097656 21.355469 33.75 L 21.355469 34.015625 "/>
<path style=" stroke:none;fill-rule:nonzero;fill:rgb(0%,0%,0%);fill-opacity:1;" d="M 41.890625 30.078125 C 40.609375 29.832031 40.539062 27.417969 40.539062 25.738281 C 40.539062 24.238281 40.628906 21.714844 41.890625 21.398438 L 41.890625 21.128906 C 40.855469 21.308594 40.410156 22.441406 40.222656 23.394531 C 40.070312 24.136719 40.023438 24.914062 40.023438 25.679688 C 40.023438 26.484375 40.0625 27.289062 40.203125 28.082031 C 40.371094 29.027344 40.847656 30.230469 41.890625 30.316406 L 41.890625 30.078125 "/>
<path style=" stroke:none;fill-rule:nonzero;fill:rgb(0%,0%,0%);fill-opacity:1;" d="M 45.589844 22.101562 C 46.503906 22.101562 47.308594 22.402344 47.308594 23.433594 C 47.308594 24.535156 46.375 25.191406 44.996094 25.191406 C 44.957031 25.191406 44.886719 25.160156 44.886719 25.074219 C 44.886719 24.207031 44.90625 23.085938 44.945312 22.210938 C 44.945312 22.160156 44.964844 22.101562 45.035156 22.101562 Z M 44.957031 28.242188 C 44.945312 27.238281 44.886719 25.988281 44.886719 25.738281 C 44.886719 25.550781 45.53125 25.570312 45.820312 25.550781 C 46.464844 25.5 47.191406 25.351562 47.628906 24.902344 C 48.046875 24.488281 48.265625 23.941406 48.265625 23.355469 C 48.265625 22.300781 47.597656 21.714844 45.96875 21.714844 L 43.414062 21.714844 L 43.347656 21.785156 L 43.347656 21.964844 C 43.722656 22.011719 44.050781 22.101562 44.082031 22.5 C 44.109375 23.085938 44.132812 23.671875 44.132812 24.257812 C 44.132812 25.660156 44.082031 27.058594 44.0625 28.449219 L 44.132812 28.519531 L 44.957031 28.242188 "/>
<path style=" stroke:none;fill-rule:nonzero;fill:rgb(0%,0%,0%);fill-opacity:1;" d="M 49.65625 21.417969 C 50.460938 21.707031 50.6875 22.636719 50.835938 23.382812 C 50.984375 24.148438 51.023438 24.941406 51.023438 25.71875 C 51.023438 26.851562 51.046875 28.0625 50.6875 29.125 C 50.488281 29.722656 50.109375 29.980469 49.65625 30.097656 L 49.65625 30.339844 C 51.433594 30.109375 51.542969 27.457031 51.542969 25.757812 C 51.542969 24.097656 51.332031 21.496094 49.65625 21.148438 L 49.65625 21.417969 "/>
<path style=" stroke:none;fill-rule:nonzero;fill:rgb(0%,0%,0%);fill-opacity:1;" d="M 70.089844 17.480469 C 68.808594 17.230469 68.738281 14.816406 68.738281 13.136719 C 68.738281 11.636719 68.828125 9.113281 70.089844 8.796875 L 70.089844 8.527344 C 69.054688 8.707031 68.609375 9.839844 68.421875 10.792969 C 68.273438 11.539062 68.222656 12.3125 68.222656 13.078125 C 68.222656 13.882812 68.261719 14.6875 68.402344 15.480469 C 68.570312 16.425781 69.046875 17.628906 70.089844 17.71875 L 70.089844 17.480469 "/>
<path style=" stroke:none;fill-rule:nonzero;fill:rgb(0%,0%,0%);fill-opacity:1;" d="M 79.683594 13.574219 C 79.3125 14.03125 78.789062 14.816406 78.539062 15.859375 L 78.9375 15.859375 C 79.246094 14.558594 80.078125 13.65625 80.378906 13.378906 C 80.058594 13.078125 79.246094 12.183594 78.9375 10.894531 L 78.539062 10.894531 C 78.789062 11.925781 79.304688 12.710938 79.683594 13.175781 L 71.90625 13.175781 C 71.726562 13.175781 71.554688 13.175781 71.554688 13.378906 C 71.554688 13.574219 71.734375 13.574219 71.90625 13.574219 L 79.683594 13.574219 "/>
<path style=" stroke:none;fill-rule:nonzero;fill:rgb(0%,0%,0%);fill-opacity:1;" d="M 88.230469 12.523438 L 88.289062 12.046875 L 88.230469 11.976562 C 87.703125 12.015625 86.96875 12.046875 86.441406 12.046875 C 86.074219 12.046875 85.785156 12.074219 85.785156 11.90625 L 85.785156 10.257812 C 85.785156 9.910156 85.828125 9.542969 86.023438 9.503906 L 86.421875 9.503906 C 86.492188 9.503906 87.8125 9.5625 88.5 9.601562 L 88.539062 9.53125 L 88.558594 9.035156 C 88.429688 9.027344 88.28125 9.027344 88.101562 9.027344 C 87.394531 9.035156 86.390625 9.085938 85.695312 9.085938 L 84.226562 9.09375 L 84.15625 9.164062 L 84.167969 9.363281 C 84.632812 9.433594 84.863281 9.550781 84.921875 9.683594 C 85.011719 9.878906 85.011719 10.175781 85.011719 10.316406 L 85.011719 15.203125 C 85.011719 15.472656 85.070312 15.75 85.269531 15.859375 L 89.125 15.859375 L 89.253906 15.332031 L 89.203125 15.285156 C 87.574219 15.421875 87.34375 15.421875 86.878906 15.421875 C 86.273438 15.421875 86.0625 15.363281 85.925781 15.105469 C 85.785156 14.855469 85.777344 14.371094 85.777344 13.992188 L 85.777344 12.613281 C 85.777344 12.433594 86.480469 12.464844 87.058594 12.464844 C 87.445312 12.464844 87.84375 12.492188 88.230469 12.523438 "/>
<path style=" stroke:none;fill-rule:nonzero;fill:rgb(0%,0%,0%);fill-opacity:1;" d="M 90.554688 8.816406 C 91.359375 9.105469 91.585938 10.039062 91.734375 10.785156 C 91.886719 11.550781 91.925781 12.34375 91.925781 13.117188 C 91.925781 14.25 91.945312 15.464844 91.585938 16.527344 C 91.390625 17.121094 91.011719 17.378906 90.554688 17.5 L 90.554688 17.738281 C 92.332031 17.507812 92.441406 14.855469 92.441406 13.160156 C 92.441406 11.5 92.234375 8.894531 90.554688 8.550781 L 90.554688 8.816406 "/>
<path style=" stroke:none;fill-rule:nonzero;fill:rgb(0%,0%,0%);fill-opacity:1;" d="M 108.378906 10.40625 C 108.316406 9.890625 108.289062 8.925781 108.277344 8.46875 L 108.378906 8.390625 C 108.566406 8.441406 108.765625 8.46875 108.964844 8.46875 C 110.503906 8.46875 111.546875 6.859375 111.546875 5.398438 C 111.546875 4.65625 111.199219 3.742188 110.183594 3.742188 C 109.5 3.742188 108.894531 4.050781 108.355469 4.476562 L 108.277344 4.4375 C 108.238281 4 108.078125 3.691406 107.632812 3.691406 C 107.195312 3.691406 106.679688 4.050781 106.28125 4.367188 L 106.421875 4.554688 C 106.65625 4.417969 106.9375 4.269531 107.144531 4.269531 C 107.445312 4.269531 107.53125 4.785156 107.53125 5.230469 L 107.53125 7.425781 C 107.53125 7.992188 107.523438 10.027344 107.472656 10.605469 L 107.570312 10.714844 Z M 108.296875 7.703125 C 108.296875 7.695312 108.277344 6.671875 108.277344 5.855469 C 108.277344 5.746094 108.308594 4.992188 108.308594 4.933594 C 108.773438 4.566406 109.179688 4.355469 109.6875 4.355469 C 110.324219 4.355469 110.710938 5.121094 110.710938 5.988281 C 110.710938 6.929688 110.371094 8.074219 109.171875 8.074219 C 108.84375 8.074219 108.535156 7.921875 108.296875 7.703125 "/>
<path style=" stroke:none;fill-rule:nonzero;fill:rgb(0%,0%,0%);fill-opacity:1;" d="M 120.265625 5.113281 C 120.433594 5.113281 120.613281 5.113281 120.613281 4.914062 C 120.613281 4.714844 120.433594 4.714844 120.265625 4.714844 L 116.042969 4.714844 L 116.042969 1.824219 C 116.042969 1.644531 116.042969 1.464844 115.84375 1.464844 C 115.648438 1.464844 115.648438 1.675781 115.648438 1.824219 L 115.648438 8.003906 C 115.648438 8.152344 115.648438 8.359375 115.84375 8.359375 C 116.042969 8.359375 116.042969 8.183594 116.042969 8.003906 L 116.042969 5.113281 L 120.265625 5.113281 "/>
<path style=" stroke:none;fill-rule:nonzero;fill:rgb(0%,0%,0%);fill-opacity:1;" d="M 125.878906 10.40625 C 125.816406 9.890625 125.789062 8.925781 125.777344 8.46875 L 125.878906 8.390625 C 126.066406 8.441406 126.265625 8.46875 126.464844 8.46875 C 128.003906 8.46875 129.046875 6.859375 129.046875 5.398438 C 129.046875 4.65625 128.699219 3.742188 127.683594 3.742188 C 127 3.742188 126.394531 4.050781 125.855469 4.476562 L 125.777344 4.4375 C 125.738281 4 125.578125 3.691406 125.132812 3.691406 C 124.695312 3.691406 124.179688 4.050781 123.78125 4.367188 L 123.921875 4.554688 C 124.15625 4.417969 124.4375 4.269531 124.644531 4.269531 C 124.945312 4.269531 125.03125 4.785156 125.03125 5.230469 L 125.03125 7.425781 C 125.03125 7.992188 125.023438 10.027344 124.972656 10.605469 L 125.070312 10.714844 Z M 125.796875 7.703125 C 125.796875 7.695312 125.777344 6.671875 125.777344 5.855469 C 125.777344 5.746094 125.808594 4.992188 125.808594 4.933594 C 126.273438 4.566406 126.679688 4.355469 127.1875 4.355469 C 127.824219 4.355469 128.210938 5.121094 128.210938 5.988281 C 128.210938 6.929688 127.871094 8.074219 126.671875 8.074219 C 126.34375 8.074219 126.035156 7.921875 125.796875 7.703125 "/>
<path style=" stroke:none;fill-rule:nonzero;fill:rgb(0%,0%,0%);fill-opacity:1;" d="M 146.039062 4.296875 L 140.046875 4.296875 L 140.046875 4.695312 L 145.640625 4.695312 L 145.640625 6.3125 L 146.039062 6.3125 L 146.039062 4.296875 "/>
<path style=" stroke:none;fill-rule:nonzero;fill:rgb(0%,0%,0%);fill-opacity:1;" d="M 148.578125 10.40625 C 148.515625 9.890625 148.488281 8.925781 148.476562 8.46875 L 148.578125 8.390625 C 148.765625 8.441406 148.964844 8.46875 149.164062 8.46875 C 150.703125 8.46875 151.746094 6.859375 151.746094 5.398438 C 151.746094 4.65625 151.398438 3.742188 150.382812 3.742188 C 149.699219 3.742188 149.09375 4.050781 148.554688 4.476562 L 148.476562 4.4375 C 148.4375 4 148.277344 3.691406 147.832031 3.691406 C 147.394531 3.691406 146.878906 4.050781 146.480469 4.367188 L 146.621094 4.554688 C 146.859375 4.417969 147.136719 4.269531 147.34375 4.269531 C 147.644531 4.269531 147.734375 4.785156 147.734375 5.230469 L 147.734375 7.425781 C 147.734375 7.992188 147.722656 10.027344 147.671875 10.605469 L 147.773438 10.714844 Z M 148.496094 7.703125 C 148.496094 7.695312 148.476562 6.671875 148.476562 5.855469 C 148.476562 5.746094 148.507812 4.992188 148.507812 4.933594 C 148.972656 4.566406 149.382812 4.355469 149.886719 4.355469 C 150.523438 4.355469 150.910156 5.121094 150.910156 5.988281 C 150.910156 6.929688 150.574219 8.074219 149.371094 8.074219 C 149.042969 8.074219 148.734375 7.921875 148.496094 7.703125 "/>
<path style=" stroke:none;fill-rule:nonzero;fill:rgb(0%,0%,0%);fill-opacity:1;" d="M 160.367188 5.113281 C 160.535156 5.113281 160.714844 5.113281 160.714844 4.914062 C 160.714844 4.714844 160.535156 4.714844 160.367188 4.714844 L 156.144531 4.714844 L 156.144531 1.824219 C 156.144531 1.644531 156.144531 1.464844 155.945312 1.464844 C 155.746094 1.464844 155.746094 1.675781 155.746094 1.824219 L 155.746094 8.003906 C 155.746094 8.152344 155.746094 8.359375 155.945312 8.359375 C 156.144531 8.359375 156.144531 8.183594 156.144531 8.003906 L 156.144531 5.113281 L 160.367188 5.113281 "/>
<path style=" stroke:none;fill-rule:nonzero;fill:rgb(0%,0%,0%);fill-opacity:1;" d="M 170.339844 4.296875 L 164.347656 4.296875 L 164.347656 4.695312 L 169.941406 4.695312 L 169.941406 6.3125 L 170.339844 6.3125 L 170.339844 4.296875 "/>
<g clip-path="url(#clip1)" clip-rule="nonzero">
<path style=" stroke:none;fill-rule:nonzero;fill:rgb(0%,0%,0%);fill-opacity:1;" d="M 172.878906 10.40625 C 172.816406 9.890625 172.789062 8.925781 172.777344 8.46875 L 172.878906 8.390625 C 173.066406 8.441406 173.265625 8.46875 173.464844 8.46875 C 175.003906 8.46875 176.046875 6.859375 176.046875 5.398438 C 176.046875 4.65625 175.699219 3.742188 174.683594 3.742188 C 174 3.742188 173.394531 4.050781 172.855469 4.476562 L 172.777344 4.4375 C 172.738281 4 172.578125 3.691406 172.132812 3.691406 C 171.695312 3.691406 171.179688 4.050781 170.78125 4.367188 L 170.921875 4.554688 C 171.15625 4.417969 171.4375 4.269531 171.644531 4.269531 C 171.945312 4.269531 172.03125 4.785156 172.03125 5.230469 L 172.03125 7.425781 C 172.03125 7.992188 172.023438 10.027344 171.972656 10.605469 L 172.070312 10.714844 Z M 172.796875 7.703125 C 172.796875 7.695312 172.777344 6.671875 172.777344 5.855469 C 172.777344 5.746094 172.808594 4.992188 172.808594 4.933594 C 173.273438 4.566406 173.679688 4.355469 174.1875 4.355469 C 174.824219 4.355469 175.210938 5.121094 175.210938 5.988281 C 175.210938 6.929688 174.871094 8.074219 173.671875 8.074219 C 173.34375 8.074219 173.035156 7.921875 172.796875 7.703125 "/>
</g>
<g clip-path="url(#clip2)" clip-rule="nonzero">
<path style="fill:none;stroke-width:3.98;stroke-linecap:butt;stroke-linejoin:miter;stroke:rgb(0%,0%,0%);stroke-opacity:1;stroke-miterlimit:10;" d="M 1064.335938 364.123438 L 1767.734375 364.123438 " transform="matrix(0.1,0,0,-0.1,0,49.76)"/>
</g>
<path style=" stroke:none;fill-rule:nonzero;fill:rgb(0%,0%,0%);fill-opacity:1;" d="M 122.378906 24.707031 C 122.316406 24.191406 122.289062 23.226562 122.277344 22.769531 L 122.378906 22.691406 C 122.566406 22.738281 122.765625 22.769531 122.964844 22.769531 C 124.503906 22.769531 125.546875 21.160156 125.546875 19.699219 C 125.546875 18.957031 125.199219 18.042969 124.183594 18.042969 C 123.5 18.042969 122.894531 18.347656 122.355469 18.777344 L 122.277344 18.738281 C 122.238281 18.300781 122.078125 17.992188 121.632812 17.992188 C 121.195312 17.992188 120.679688 18.347656 120.28125 18.667969 L 120.421875 18.855469 C 120.65625 18.714844 120.9375 18.566406 121.144531 18.566406 C 121.445312 18.566406 121.53125 19.082031 121.53125 19.53125 L 121.53125 21.726562 C 121.53125 22.292969 121.523438 24.328125 121.472656 24.90625 L 121.570312 25.015625 Z M 122.296875 22.003906 C 122.296875 21.996094 122.277344 20.972656 122.277344 20.15625 C 122.277344 20.046875 122.308594 19.292969 122.308594 19.234375 C 122.773438 18.863281 123.179688 18.65625 123.6875 18.65625 C 124.324219 18.65625 124.710938 19.421875 124.710938 20.285156 C 124.710938 21.230469 124.371094 22.371094 123.171875 22.371094 C 122.84375 22.371094 122.535156 22.222656 122.296875 22.003906 "/>
<path style=" stroke:none;fill-rule:nonzero;fill:rgb(0%,0%,0%);fill-opacity:1;" d="M 127.390625 24.746094 C 128.097656 23.933594 128.425781 23.425781 128.425781 22.929688 C 128.425781 22.582031 128.078125 21.289062 127.550781 21.289062 C 127.304688 21.289062 126.964844 21.507812 126.964844 21.765625 C 126.964844 21.863281 126.996094 21.972656 127.035156 22.023438 L 127.730469 22.847656 C 127.820312 22.957031 127.859375 23.128906 127.859375 23.265625 C 127.859375 23.664062 127.550781 24.152344 127.203125 24.605469 L 127.390625 24.746094 "/>
<path style=" stroke:none;fill-rule:nonzero;fill:rgb(0%,0%,0%);fill-opacity:1;" d="M 136.9375 18.597656 L 130.949219 18.597656 L 130.949219 18.996094 L 136.539062 18.996094 L 136.539062 20.613281 L 136.9375 20.613281 L 136.9375 18.597656 "/>
<path style=" stroke:none;fill-rule:nonzero;fill:rgb(0%,0%,0%);fill-opacity:1;" d="M 139.476562 24.707031 C 139.417969 24.191406 139.386719 23.226562 139.378906 22.769531 L 139.476562 22.691406 C 139.664062 22.738281 139.863281 22.769531 140.0625 22.769531 C 141.601562 22.769531 142.644531 21.160156 142.644531 19.699219 C 142.644531 18.957031 142.296875 18.042969 141.285156 18.042969 C 140.601562 18.042969 139.992188 18.347656 139.457031 18.777344 L 139.378906 18.738281 C 139.339844 18.300781 139.179688 17.992188 138.730469 17.992188 C 138.296875 17.992188 137.777344 18.347656 137.382812 18.667969 L 137.519531 18.855469 C 137.757812 18.714844 138.035156 18.566406 138.246094 18.566406 C 138.542969 18.566406 138.632812 19.082031 138.632812 19.53125 L 138.632812 21.726562 C 138.632812 22.292969 138.621094 24.328125 138.574219 24.90625 L 138.671875 25.015625 Z M 139.398438 22.003906 C 139.398438 21.996094 139.378906 20.972656 139.378906 20.15625 C 139.378906 20.046875 139.40625 19.292969 139.40625 19.234375 C 139.871094 18.863281 140.28125 18.65625 140.789062 18.65625 C 141.421875 18.65625 141.8125 19.421875 141.8125 20.285156 C 141.8125 21.230469 141.472656 22.371094 140.273438 22.371094 C 139.945312 22.371094 139.636719 22.222656 139.398438 22.003906 "/>
<path style=" stroke:none;fill-rule:nonzero;fill:rgb(0%,0%,0%);fill-opacity:1;" d="M 151.367188 19.410156 C 151.535156 19.410156 151.714844 19.410156 151.714844 19.214844 C 151.714844 19.015625 151.535156 19.015625 151.367188 19.015625 L 147.144531 19.015625 L 147.144531 16.125 C 147.144531 15.945312 147.144531 15.765625 146.945312 15.765625 C 146.746094 15.765625 146.746094 15.972656 146.746094 16.125 L 146.746094 22.300781 C 146.746094 22.449219 146.746094 22.660156 146.945312 22.660156 C 147.144531 22.660156 147.144531 22.480469 147.144531 22.300781 L 147.144531 19.410156 L 151.367188 19.410156 "/>
<path style=" stroke:none;fill-rule:nonzero;fill:rgb(0%,0%,0%);fill-opacity:1;" d="M 159.0625 16.382812 C 159.0625 16.203125 159.0625 16.023438 158.863281 16.023438 C 158.664062 16.023438 158.664062 16.234375 158.664062 16.382812 L 158.664062 22.261719 L 155.90625 22.261719 C 155.753906 22.261719 155.546875 22.261719 155.546875 22.460938 C 155.546875 22.660156 155.753906 22.660156 155.90625 22.660156 L 161.835938 22.660156 C 162.003906 22.660156 162.183594 22.660156 162.183594 22.460938 C 162.183594 22.261719 162.003906 22.261719 161.835938 22.261719 L 159.0625 22.261719 L 159.0625 16.382812 "/>
<g clip-path="url(#clip3)" clip-rule="nonzero">
<path style="fill:none;stroke-width:3.98;stroke-linecap:butt;stroke-linejoin:miter;stroke:rgb(0%,0%,0%);stroke-opacity:1;stroke-miterlimit:10;" d="M 654.53125 238.107813 L 1767.734375 238.107813 " transform="matrix(0.1,0,0,-0.1,0,49.76)"/>
</g>
<path style=" stroke:none;fill-rule:nonzero;fill:rgb(0%,0%,0%);fill-opacity:1;" d="M 106.140625 31.199219 L 100.148438 31.199219 L 100.148438 31.59375 L 105.742188 31.59375 L 105.742188 33.214844 L 106.140625 33.214844 L 106.140625 31.199219 "/>
<path style=" stroke:none;fill-rule:nonzero;fill:rgb(0%,0%,0%);fill-opacity:1;" d="M 108.675781 37.308594 C 108.617188 36.789062 108.589844 35.824219 108.578125 35.371094 L 108.675781 35.289062 C 108.867188 35.339844 109.0625 35.371094 109.261719 35.371094 C 110.804688 35.371094 111.84375 33.761719 111.84375 32.300781 C 111.84375 31.554688 111.496094 30.640625 110.484375 30.640625 C 109.800781 30.640625 109.195312 30.949219 108.65625 31.375 L 108.578125 31.335938 C 108.539062 30.898438 108.378906 30.589844 107.929688 30.589844 C 107.496094 30.589844 106.976562 30.949219 106.582031 31.265625 L 106.71875 31.457031 C 106.957031 31.316406 107.234375 31.167969 107.445312 31.167969 C 107.742188 31.167969 107.832031 31.683594 107.832031 32.128906 L 107.832031 34.324219 C 107.832031 34.894531 107.820312 36.929688 107.773438 37.503906 L 107.871094 37.613281 Z M 108.597656 34.605469 C 108.597656 34.59375 108.578125 33.570312 108.578125 32.757812 C 108.578125 32.648438 108.609375 31.894531 108.609375 31.832031 C 109.074219 31.464844 109.480469 31.257812 109.988281 31.257812 C 110.621094 31.257812 111.011719 32.019531 111.011719 32.886719 C 111.011719 33.832031 110.671875 34.972656 109.472656 34.972656 C 109.144531 34.972656 108.835938 34.824219 108.597656 34.605469 "/>
<path style=" stroke:none;fill-rule:nonzero;fill:rgb(0%,0%,0%);fill-opacity:1;" d="M 113.691406 37.347656 C 114.398438 36.53125 114.726562 36.027344 114.726562 35.527344 C 114.726562 35.179688 114.378906 33.890625 113.851562 33.890625 C 113.601562 33.890625 113.265625 34.109375 113.265625 34.367188 C 113.265625 34.464844 113.296875 34.574219 113.335938 34.625 L 114.03125 35.449219 C 114.121094 35.558594 114.160156 35.726562 114.160156 35.867188 C 114.160156 36.261719 113.851562 36.75 113.503906 37.207031 L 113.691406 37.347656 "/>
<path style=" stroke:none;fill-rule:nonzero;fill:rgb(0%,0%,0%);fill-opacity:1;" d="M 118.976562 37.308594 C 118.917969 36.789062 118.886719 35.824219 118.878906 35.371094 L 118.976562 35.289062 C 119.164062 35.339844 119.363281 35.371094 119.5625 35.371094 C 121.101562 35.371094 122.144531 33.761719 122.144531 32.300781 C 122.144531 31.554688 121.796875 30.640625 120.785156 30.640625 C 120.101562 30.640625 119.492188 30.949219 118.957031 31.375 L 118.878906 31.335938 C 118.839844 30.898438 118.679688 30.589844 118.230469 30.589844 C 117.796875 30.589844 117.277344 30.949219 116.882812 31.265625 L 117.019531 31.457031 C 117.257812 31.316406 117.535156 31.167969 117.746094 31.167969 C 118.042969 31.167969 118.132812 31.683594 118.132812 32.128906 L 118.132812 34.324219 C 118.132812 34.894531 118.121094 36.929688 118.074219 37.503906 L 118.171875 37.613281 Z M 118.898438 34.605469 C 118.898438 34.59375 118.878906 33.570312 118.878906 32.757812 C 118.878906 32.648438 118.90625 31.894531 118.90625 31.832031 C 119.371094 31.464844 119.78125 31.257812 120.289062 31.257812 C 120.921875 31.257812 121.3125 32.019531 121.3125 32.886719 C 121.3125 33.832031 120.972656 34.972656 119.773438 34.972656 C 119.445312 34.972656 119.136719 34.824219 118.898438 34.605469 "/>
<path style=" stroke:none;fill-rule:nonzero;fill:rgb(0%,0%,0%);fill-opacity:1;" d="M 130.867188 32.011719 C 131.035156 32.011719 131.214844 32.011719 131.214844 31.8125 C 131.214844 31.613281 131.035156 31.613281 130.867188 31.613281 L 126.644531 31.613281 L 126.644531 28.722656 C 126.644531 28.542969 126.644531 28.367188 126.445312 28.367188 C 126.246094 28.367188 126.246094 28.574219 126.246094 28.722656 L 126.246094 34.902344 C 126.246094 35.050781 126.246094 35.261719 126.445312 35.261719 C 126.644531 35.261719 126.644531 35.082031 126.644531 34.902344 L 126.644531 32.011719 L 130.867188 32.011719 "/>
<path style=" stroke:none;fill-rule:nonzero;fill:rgb(0%,0%,0%);fill-opacity:1;" d="M 138.5625 28.980469 C 138.5625 28.804688 138.5625 28.625 138.363281 28.625 C 138.164062 28.625 138.164062 28.832031 138.164062 28.980469 L 138.164062 34.863281 L 135.40625 34.863281 C 135.253906 34.863281 135.046875 34.863281 135.046875 35.0625 C 135.046875 35.261719 135.253906 35.261719 135.40625 35.261719 L 141.335938 35.261719 C 141.503906 35.261719 141.683594 35.261719 141.683594 35.0625 C 141.683594 34.863281 141.503906 34.863281 141.335938 34.863281 L 138.5625 34.863281 L 138.5625 28.980469 "/>
<g clip-path="url(#clip4)" clip-rule="nonzero">
<path style="fill:none;stroke-width:3.98;stroke-linecap:butt;stroke-linejoin:miter;stroke:rgb(0%,0%,0%);stroke-opacity:1;stroke-miterlimit:10;" d="M 372.226562 112.092188 L 1767.734375 112.092188 " transform="matrix(0.1,0,0,-0.1,0,49.76)"/>
</g>
<g clip-path="url(#clip5)" clip-rule="nonzero">
<path style=" stroke:none;fill-rule:nonzero;fill:rgb(0%,0%,0%);fill-opacity:1;" d="M 90.476562 49.90625 C 90.417969 49.390625 90.386719 48.425781 90.378906 47.96875 L 90.476562 47.890625 C 90.664062 47.941406 90.863281 47.96875 91.0625 47.96875 C 92.601562 47.96875 93.644531 46.359375 93.644531 44.898438 C 93.644531 44.15625 93.296875 43.242188 92.285156 43.242188 C 91.601562 43.242188 90.992188 43.550781 90.457031 43.976562 L 90.378906 43.9375 C 90.335938 43.5 90.179688 43.191406 89.730469 43.191406 C 89.296875 43.191406 88.777344 43.550781 88.382812 43.867188 L 88.519531 44.054688 C 88.757812 43.917969 89.035156 43.769531 89.246094 43.769531 C 89.542969 43.769531 89.632812 44.285156 89.632812 44.730469 L 89.632812 46.925781 C 89.632812 47.492188 89.621094 49.527344 89.574219 50.105469 L 89.671875 50.214844 Z M 90.398438 47.203125 C 90.398438 47.195312 90.378906 46.171875 90.378906 45.355469 C 90.378906 45.246094 90.40625 44.492188 90.40625 44.433594 C 90.875 44.066406 91.28125 43.855469 91.789062 43.855469 C 92.421875 43.855469 92.8125 44.621094 92.8125 45.488281 C 92.8125 46.429688 92.472656 47.574219 91.273438 47.574219 C 90.945312 47.574219 90.636719 47.421875 90.398438 47.203125 "/>
</g>
<path style=" stroke:none;fill-rule:nonzero;fill:rgb(0%,0%,0%);fill-opacity:1;" d="M 102.265625 44.613281 C 102.433594 44.613281 102.613281 44.613281 102.613281 44.414062 C 102.613281 44.214844 102.433594 44.214844 102.265625 44.214844 L 98.042969 44.214844 L 98.042969 41.324219 C 98.042969 41.144531 98.042969 40.964844 97.84375 40.964844 C 97.648438 40.964844 97.648438 41.175781 97.648438 41.324219 L 97.648438 47.503906 C 97.648438 47.652344 97.648438 47.859375 97.84375 47.859375 C 98.042969 47.859375 98.042969 47.683594 98.042969 47.503906 L 98.042969 44.613281 L 102.265625 44.613281 "/>
<path style=" stroke:none;fill-rule:nonzero;fill:rgb(0%,0%,0%);fill-opacity:1;" d="M 112.238281 43.796875 L 106.246094 43.796875 L 106.246094 44.195312 L 111.839844 44.195312 L 111.839844 45.8125 L 112.238281 45.8125 L 112.238281 43.796875 "/>
<path style=" stroke:none;fill-rule:nonzero;fill:rgb(0%,0%,0%);fill-opacity:1;" d="M 119.039062 43.796875 L 113.046875 43.796875 L 113.046875 44.195312 L 118.640625 44.195312 L 118.640625 45.8125 L 119.039062 45.8125 L 119.039062 43.796875 "/>
<g clip-path="url(#clip6)" clip-rule="nonzero">
<path style=" stroke:none;fill-rule:nonzero;fill:rgb(0%,0%,0%);fill-opacity:1;" d="M 121.578125 49.90625 C 121.515625 49.390625 121.488281 48.425781 121.476562 47.96875 L 121.578125 47.890625 C 121.765625 47.941406 121.964844 47.96875 122.164062 47.96875 C 123.703125 47.96875 124.746094 46.359375 124.746094 44.898438 C 124.746094 44.15625 124.398438 43.242188 123.382812 43.242188 C 122.699219 43.242188 122.09375 43.550781 121.554688 43.976562 L 121.476562 43.9375 C 121.4375 43.5 121.277344 43.191406 120.832031 43.191406 C 120.394531 43.191406 119.878906 43.550781 119.480469 43.867188 L 119.621094 44.054688 C 119.859375 43.917969 120.136719 43.769531 120.34375 43.769531 C 120.644531 43.769531 120.734375 44.285156 120.734375 44.730469 L 120.734375 46.925781 C 120.734375 47.492188 120.722656 49.527344 120.671875 50.105469 L 120.773438 50.214844 Z M 121.496094 47.203125 C 121.496094 47.195312 121.476562 46.171875 121.476562 45.355469 C 121.476562 45.246094 121.507812 44.492188 121.507812 44.433594 C 121.972656 44.066406 122.382812 43.855469 122.886719 43.855469 C 123.523438 43.855469 123.910156 44.621094 123.910156 45.488281 C 123.910156 46.429688 123.574219 47.574219 122.371094 47.574219 C 122.042969 47.574219 121.734375 47.421875 121.496094 47.203125 "/>
</g>
</g>
</svg>
