<?xml version="1.0" encoding="UTF-8"?>
<svg xmlns="http://www.w3.org/2000/svg" xmlns:xlink="http://www.w3.org/1999/xlink" width="498.76pt" height="76.46pt" viewBox="0 0 498.76 76.46" version="1.1">
<defs>
<clipPath id="clip1">
  <path d="M 272 26 L 498.761719 26 L 498.761719 27 L 272 27 Z M 272 26 "/>
</clipPath>
<clipPath id="clip2">
  <path d="M 98 39 L 498.761719 39 L 498.761719 41 L 98 41 Z M 98 39 "/>
</clipPath>
<clipPath id="clip3">
  <path d="M 62 52 L 498.761719 52 L 498.761719 53 L 62 53 Z M 62 52 "/>
</clipPath>
<clipPath id="clip4">
  <path d="M 34 65 L 498.761719 65 L 498.761719 66 L 34 66 Z M 34 65 "/>
</clipPath>
<clipPath id="clip5">
  <path d="M 208 69 L 214 69 L 214 76.460938 L 208 76.460938 Z M 208 69 "/>
</clipPath>
<clipPath id="clip6">
  <path d="M 232 69 L 239 69 L 239 76.460938 L 232 76.460938 Z M 232 69 "/>
</clipPath>
<clipPath id="clip7">
  <path d="M 239 73 L 242 73 L 242 76.460938 L 239 76.460938 Z M 239 73 "/>
</clipPath>
<clipPath id="clip8">
  <path d="M 266 69 L 272 69 L 272 76.460938 L 266 76.460938 Z M 266 69 "/>
</clipPath>
<clipPath id="clip9">
  <path d="M 297 69 L 303 69 L 303 76.460938 L 297 76.460938 Z M 297 69 "/>
</clipPath>
<clipPath id="clip10">
  <path d="M 318 69 L 325 69 L 325 76.460938 L 318 76.460938 Z M 318 69 "/>
</clipPath>
</defs>
<g id="surface1">
<path style=" stroke:none;fill-rule:nonzero;fill:rgb(0%,0%,0%);fill-opacity:1;" d="M 2.992188 69.378906 C 1.710938 69.128906 1.640625 66.714844 1.640625 65.039062 C 1.640625 63.539062 1.726562 61.015625 2.992188 60.699219 L 2.992188 60.429688 C 1.957031 60.609375 1.507812 61.738281 1.320312 62.695312 C 1.171875 63.4375 1.121094 64.214844 1.121094 64.980469 C 1.121094 65.785156 1.164062 66.589844 1.300781 67.382812 C 1.46875 68.324219 1.945312 69.527344 2.992188 69.617188 L 2.992188 69.378906 "/>
<path style=" stroke:none;fill-rule:nonzero;fill:rgb(0%,0%,0%);fill-opacity:1;" d="M 12.582031 65.476562 C 12.214844 65.933594 11.6875 66.714844 11.4375 67.761719 L 11.835938 67.761719 C 12.144531 66.457031 12.980469 65.554688 13.277344 65.277344 C 12.960938 64.980469 12.144531 64.085938 11.835938 62.792969 L 11.4375 62.792969 C 11.6875 63.824219 12.203125 64.613281 12.582031 65.078125 L 4.804688 65.078125 C 4.625 65.078125 4.457031 65.078125 4.457031 65.277344 C 4.457031 65.476562 4.632812 65.476562 4.804688 65.476562 L 12.582031 65.476562 "/>
<path style=" stroke:none;fill-rule:nonzero;fill:rgb(0%,0%,0%);fill-opacity:1;" d="M 17.238281 67.769531 L 17.257812 67.53125 C 17.246094 67.53125 16.820312 67.421875 16.609375 67.363281 C 16.195312 67.253906 16.304688 66.507812 16.292969 66.082031 C 16.28125 65.476562 16.273438 64.859375 16.273438 64.195312 C 16.273438 63.417969 16.214844 62.238281 16.304688 61.652344 C 16.3125 61.53125 16.390625 61.421875 16.523438 61.394531 L 17.1875 61.242188 L 17.1875 61.035156 L 17.128906 60.976562 L 14.644531 60.976562 L 14.574219 61.035156 L 14.574219 61.253906 C 15.367188 61.433594 15.4375 61.382812 15.460938 61.679688 C 15.488281 62.058594 15.488281 62.433594 15.488281 62.824219 L 15.488281 66.429688 C 15.449219 67.253906 15.578125 67.324219 14.605469 67.511719 L 14.605469 67.769531 L 17.238281 67.769531 "/>
<path style=" stroke:none;fill-rule:nonzero;fill:rgb(0%,0%,0%);fill-opacity:1;" d="M 18.65625 60.714844 C 19.460938 61.003906 19.6875 61.9375 19.835938 62.683594 C 19.984375 63.449219 20.023438 64.242188 20.023438 65.019531 C 20.023438 66.152344 20.046875 67.363281 19.6875 68.425781 C 19.488281 69.019531 19.109375 69.28125 18.65625 69.398438 L 18.65625 69.636719 C 20.433594 69.410156 20.542969 66.757812 20.542969 65.058594 C 20.542969 63.398438 20.332031 60.796875 18.65625 60.449219 L 18.65625 60.714844 "/>
<path style=" stroke:none;fill-rule:nonzero;fill:rgb(0%,0%,0%);fill-opacity:1;" d="M 39.089844 56.777344 C 37.808594 56.53125 37.738281 54.117188 37.738281 52.4375 C 37.738281 50.9375 37.828125 48.414062 39.089844 48.097656 L 39.089844 47.828125 C 38.054688 48.007812 37.609375 49.140625 37.421875 50.09375 C 37.273438 50.839844 37.222656 51.613281 37.222656 52.378906 C 37.222656 53.183594 37.261719 53.988281 37.402344 54.78125 C 37.570312 55.726562 38.046875 56.929688 39.089844 57.019531 L 39.089844 56.777344 "/>
<path style=" stroke:none;fill-rule:nonzero;fill:rgb(0%,0%,0%);fill-opacity:1;" d="M 42.789062 48.800781 C 43.703125 48.800781 44.507812 49.101562 44.507812 50.132812 C 44.507812 51.238281 43.578125 51.890625 42.195312 51.890625 C 42.15625 51.890625 42.085938 51.863281 42.085938 51.773438 C 42.085938 50.910156 42.105469 49.785156 42.144531 48.910156 C 42.144531 48.863281 42.164062 48.800781 42.234375 48.800781 Z M 42.15625 54.941406 C 42.144531 53.9375 42.085938 52.6875 42.085938 52.4375 C 42.085938 52.25 42.730469 52.269531 43.019531 52.25 C 43.664062 52.199219 44.390625 52.050781 44.828125 51.605469 C 45.246094 51.1875 45.464844 50.640625 45.464844 50.054688 C 45.464844 49 44.796875 48.414062 43.167969 48.414062 L 40.617188 48.414062 L 40.546875 48.484375 L 40.546875 48.664062 C 40.921875 48.714844 41.25 48.800781 41.28125 49.199219 C 41.3125 49.785156 41.332031 50.371094 41.332031 50.957031 C 41.332031 52.359375 41.28125 53.761719 41.261719 55.152344 L 41.332031 55.21875 L 42.15625 54.941406 "/>
<path style=" stroke:none;fill-rule:nonzero;fill:rgb(0%,0%,0%);fill-opacity:1;" d="M 46.855469 48.117188 C 47.660156 48.40625 47.886719 49.339844 48.035156 50.082031 C 48.1875 50.847656 48.226562 51.644531 48.226562 52.417969 C 48.226562 53.550781 48.246094 54.761719 47.886719 55.824219 C 47.6875 56.421875 47.3125 56.679688 46.855469 56.800781 L 46.855469 57.039062 C 48.632812 56.808594 48.742188 54.15625 48.742188 52.457031 C 48.742188 50.800781 48.53125 48.195312 46.855469 47.847656 L 46.855469 48.117188 "/>
<path style=" stroke:none;fill-rule:nonzero;fill:rgb(0%,0%,0%);fill-opacity:1;" d="M 67.289062 44.179688 C 66.007812 43.929688 65.9375 41.515625 65.9375 39.839844 C 65.9375 38.339844 66.027344 35.816406 67.289062 35.496094 L 67.289062 35.230469 C 66.257812 35.410156 65.808594 36.539062 65.621094 37.496094 C 65.472656 38.238281 65.421875 39.011719 65.421875 39.777344 C 65.421875 40.582031 65.460938 41.386719 65.601562 42.183594 C 65.769531 43.125 66.246094 44.328125 67.289062 44.417969 L 67.289062 44.179688 "/>
<path style=" stroke:none;fill-rule:nonzero;fill:rgb(0%,0%,0%);fill-opacity:1;" d="M 75.710938 35.765625 L 75.671875 35.726562 L 75.28125 35.726562 L 71.925781 41.972656 L 68.675781 35.765625 L 68.257812 35.835938 L 71.84375 42.679688 L 71.996094 42.679688 L 75.710938 35.765625 "/>
<path style=" stroke:none;fill-rule:nonzero;fill:rgb(0%,0%,0%);fill-opacity:1;" d="M 80.429688 39.222656 L 80.488281 38.746094 L 80.429688 38.675781 C 79.902344 38.714844 79.167969 38.746094 78.640625 38.746094 C 78.273438 38.746094 77.984375 38.777344 77.984375 38.605469 L 77.984375 36.957031 C 77.984375 36.609375 78.027344 36.242188 78.226562 36.203125 L 78.621094 36.203125 C 78.691406 36.203125 80.011719 36.261719 80.699219 36.300781 L 80.738281 36.230469 L 80.757812 35.734375 C 80.628906 35.726562 80.480469 35.726562 80.300781 35.726562 C 79.59375 35.734375 78.59375 35.785156 77.898438 35.785156 L 76.425781 35.792969 L 76.355469 35.863281 L 76.367188 36.0625 C 76.835938 36.132812 77.0625 36.253906 77.121094 36.382812 C 77.210938 36.582031 77.210938 36.878906 77.210938 37.015625 L 77.210938 41.902344 C 77.210938 42.171875 77.269531 42.449219 77.46875 42.558594 L 81.324219 42.558594 L 81.453125 42.035156 L 81.402344 41.984375 C 79.773438 42.121094 79.546875 42.121094 79.078125 42.121094 C 78.472656 42.121094 78.265625 42.0625 78.125 41.804688 C 77.984375 41.558594 77.976562 41.070312 77.976562 40.691406 L 77.976562 39.3125 C 77.976562 39.132812 78.679688 39.164062 79.257812 39.164062 C 79.644531 39.164062 80.042969 39.191406 80.429688 39.222656 "/>
<path style=" stroke:none;fill-rule:nonzero;fill:rgb(0%,0%,0%);fill-opacity:1;" d="M 82.855469 35.515625 C 83.660156 35.804688 83.886719 36.738281 84.035156 37.484375 C 84.1875 38.25 84.226562 39.042969 84.226562 39.816406 C 84.226562 40.949219 84.246094 42.164062 83.886719 43.226562 C 83.6875 43.820312 83.3125 44.082031 82.855469 44.199219 L 82.855469 44.4375 C 84.632812 44.207031 84.742188 41.558594 84.742188 39.859375 C 84.742188 38.199219 84.53125 35.597656 82.855469 35.25 L 82.855469 35.515625 "/>
<path style=" stroke:none;fill-rule:nonzero;fill:rgb(0%,0%,0%);fill-opacity:1;" d="M 105.578125 37.105469 C 105.515625 36.589844 105.488281 35.625 105.476562 35.167969 L 105.578125 35.089844 C 105.765625 35.140625 105.964844 35.167969 106.164062 35.167969 C 107.703125 35.167969 108.746094 33.558594 108.746094 32.097656 C 108.746094 31.355469 108.398438 30.441406 107.382812 30.441406 C 106.699219 30.441406 106.09375 30.75 105.554688 31.175781 L 105.476562 31.136719 C 105.4375 30.699219 105.277344 30.390625 104.832031 30.390625 C 104.394531 30.390625 103.878906 30.75 103.480469 31.066406 L 103.621094 31.253906 C 103.859375 31.117188 104.136719 30.96875 104.34375 30.96875 C 104.644531 30.96875 104.734375 31.484375 104.734375 31.929688 L 104.734375 34.125 C 104.734375 34.691406 104.722656 36.730469 104.671875 37.304688 L 104.773438 37.414062 Z M 105.496094 34.402344 C 105.496094 34.394531 105.476562 33.371094 105.476562 32.558594 C 105.476562 32.449219 105.507812 31.691406 105.507812 31.632812 C 105.972656 31.265625 106.382812 31.058594 106.886719 31.058594 C 107.523438 31.058594 107.910156 31.820312 107.910156 32.6875 C 107.910156 33.628906 107.574219 34.773438 106.371094 34.773438 C 106.042969 34.773438 105.734375 34.621094 105.496094 34.402344 "/>
<path style=" stroke:none;fill-rule:nonzero;fill:rgb(0%,0%,0%);fill-opacity:1;" d="M 119.210938 28.265625 L 119.171875 28.226562 L 118.78125 28.226562 L 115.425781 34.472656 L 112.175781 28.265625 L 111.757812 28.335938 L 115.34375 35.179688 L 115.496094 35.179688 L 119.210938 28.265625 "/>
<path style=" stroke:none;fill-rule:nonzero;fill:rgb(0%,0%,0%);fill-opacity:1;" d="M 127.9375 30.996094 L 121.949219 30.996094 L 121.949219 31.394531 L 127.539062 31.394531 L 127.539062 33.011719 L 127.9375 33.011719 L 127.9375 30.996094 "/>
<path style=" stroke:none;fill-rule:nonzero;fill:rgb(0%,0%,0%);fill-opacity:1;" d="M 130.476562 37.105469 C 130.417969 36.589844 130.386719 35.625 130.378906 35.167969 L 130.476562 35.089844 C 130.664062 35.140625 130.863281 35.167969 131.0625 35.167969 C 132.601562 35.167969 133.644531 33.558594 133.644531 32.097656 C 133.644531 31.355469 133.296875 30.441406 132.285156 30.441406 C 131.601562 30.441406 130.992188 30.75 130.457031 31.175781 L 130.378906 31.136719 C 130.339844 30.699219 130.179688 30.390625 129.730469 30.390625 C 129.296875 30.390625 128.777344 30.75 128.382812 31.066406 L 128.519531 31.253906 C 128.757812 31.117188 129.035156 30.96875 129.246094 30.96875 C 129.542969 30.96875 129.632812 31.484375 129.632812 31.929688 L 129.632812 34.125 C 129.632812 34.691406 129.621094 36.730469 129.574219 37.304688 L 129.671875 37.414062 Z M 130.398438 34.402344 C 130.398438 34.394531 130.378906 33.371094 130.378906 32.558594 C 130.378906 32.449219 130.40625 31.691406 130.40625 31.632812 C 130.871094 31.265625 131.28125 31.058594 131.789062 31.058594 C 132.421875 31.058594 132.8125 31.820312 132.8125 32.6875 C 132.8125 33.628906 132.472656 34.773438 131.273438 34.773438 C 130.945312 34.773438 130.636719 34.621094 130.398438 34.402344 "/>
<path style=" stroke:none;fill-rule:nonzero;fill:rgb(0%,0%,0%);fill-opacity:1;" d="M 142.265625 31.8125 C 142.433594 31.8125 142.613281 31.8125 142.613281 31.613281 C 142.613281 31.414062 142.433594 31.414062 142.265625 31.414062 L 138.042969 31.414062 L 138.042969 28.523438 C 138.042969 28.34375 138.042969 28.167969 137.84375 28.167969 C 137.648438 28.167969 137.648438 28.375 137.648438 28.523438 L 137.648438 34.703125 C 137.648438 34.851562 137.648438 35.058594 137.84375 35.058594 C 138.042969 35.058594 138.042969 34.882812 138.042969 34.703125 L 138.042969 31.8125 L 142.265625 31.8125 "/>
<path style=" stroke:none;fill-rule:nonzero;fill:rgb(0%,0%,0%);fill-opacity:1;" d="M 147.976562 37.105469 C 147.917969 36.589844 147.886719 35.625 147.878906 35.167969 L 147.976562 35.089844 C 148.164062 35.140625 148.363281 35.167969 148.5625 35.167969 C 150.101562 35.167969 151.144531 33.558594 151.144531 32.097656 C 151.144531 31.355469 150.796875 30.441406 149.785156 30.441406 C 149.101562 30.441406 148.492188 30.75 147.957031 31.175781 L 147.878906 31.136719 C 147.839844 30.699219 147.679688 30.390625 147.230469 30.390625 C 146.796875 30.390625 146.277344 30.75 145.882812 31.066406 L 146.019531 31.253906 C 146.257812 31.117188 146.535156 30.96875 146.746094 30.96875 C 147.042969 30.96875 147.132812 31.484375 147.132812 31.929688 L 147.132812 34.125 C 147.132812 34.691406 147.121094 36.730469 147.074219 37.304688 L 147.171875 37.414062 Z M 147.898438 34.402344 C 147.898438 34.394531 147.878906 33.371094 147.878906 32.558594 C 147.878906 32.449219 147.90625 31.691406 147.90625 31.632812 C 148.371094 31.265625 148.78125 31.058594 149.289062 31.058594 C 149.921875 31.058594 150.3125 31.820312 150.3125 32.6875 C 150.3125 33.628906 149.972656 34.773438 148.773438 34.773438 C 148.445312 34.773438 148.136719 34.621094 147.898438 34.402344 "/>
<path style=" stroke:none;fill-rule:nonzero;fill:rgb(0%,0%,0%);fill-opacity:1;" d="M 161.609375 28.265625 L 161.570312 28.226562 L 161.183594 28.226562 L 157.824219 34.472656 L 154.578125 28.265625 L 154.160156 28.335938 L 157.746094 35.179688 L 157.894531 35.179688 L 161.609375 28.265625 "/>
<path style=" stroke:none;fill-rule:nonzero;fill:rgb(0%,0%,0%);fill-opacity:1;" d="M 170.238281 30.996094 L 164.246094 30.996094 L 164.246094 31.394531 L 169.839844 31.394531 L 169.839844 33.011719 L 170.238281 33.011719 L 170.238281 30.996094 "/>
<path style=" stroke:none;fill-rule:nonzero;fill:rgb(0%,0%,0%);fill-opacity:1;" d="M 172.777344 37.105469 C 172.71875 36.589844 172.6875 35.625 172.679688 35.167969 L 172.777344 35.089844 C 172.964844 35.140625 173.164062 35.167969 173.363281 35.167969 C 174.902344 35.167969 175.945312 33.558594 175.945312 32.097656 C 175.945312 31.355469 175.597656 30.441406 174.585938 30.441406 C 173.898438 30.441406 173.292969 30.75 172.757812 31.175781 L 172.679688 31.136719 C 172.636719 30.699219 172.476562 30.390625 172.03125 30.390625 C 171.59375 30.390625 171.078125 30.75 170.679688 31.066406 L 170.820312 31.253906 C 171.058594 31.117188 171.335938 30.96875 171.546875 30.96875 C 171.84375 30.96875 171.933594 31.484375 171.933594 31.929688 L 171.933594 34.125 C 171.933594 34.691406 171.921875 36.730469 171.871094 37.304688 L 171.972656 37.414062 Z M 172.695312 34.402344 C 172.695312 34.394531 172.679688 33.371094 172.679688 32.558594 C 172.679688 32.449219 172.707031 31.691406 172.707031 31.632812 C 173.171875 31.265625 173.582031 31.058594 174.089844 31.058594 C 174.722656 31.058594 175.109375 31.820312 175.109375 32.6875 C 175.109375 33.628906 174.773438 34.773438 173.570312 34.773438 C 173.242188 34.773438 172.9375 34.621094 172.695312 34.402344 "/>
<path style=" stroke:none;fill-rule:nonzero;fill:rgb(0%,0%,0%);fill-opacity:1;" d="M 198.578125 37.105469 C 198.515625 36.589844 198.488281 35.625 198.476562 35.167969 L 198.578125 35.089844 C 198.765625 35.140625 198.964844 35.167969 199.164062 35.167969 C 200.703125 35.167969 201.746094 33.558594 201.746094 32.097656 C 201.746094 31.355469 201.398438 30.441406 200.382812 30.441406 C 199.699219 30.441406 199.09375 30.75 198.554688 31.175781 L 198.476562 31.136719 C 198.4375 30.699219 198.277344 30.390625 197.832031 30.390625 C 197.394531 30.390625 196.878906 30.75 196.480469 31.066406 L 196.621094 31.253906 C 196.859375 31.117188 197.136719 30.96875 197.34375 30.96875 C 197.644531 30.96875 197.734375 31.484375 197.734375 31.929688 L 197.734375 34.125 C 197.734375 34.691406 197.722656 36.730469 197.671875 37.304688 L 197.773438 37.414062 Z M 198.496094 34.402344 C 198.496094 34.394531 198.476562 33.371094 198.476562 32.558594 C 198.476562 32.449219 198.507812 31.691406 198.507812 31.632812 C 198.972656 31.265625 199.382812 31.058594 199.886719 31.058594 C 200.523438 31.058594 200.910156 31.820312 200.910156 32.6875 C 200.910156 33.628906 200.574219 34.773438 199.371094 34.773438 C 199.042969 34.773438 198.734375 34.621094 198.496094 34.402344 "/>
<path style=" stroke:none;fill-rule:nonzero;fill:rgb(0%,0%,0%);fill-opacity:1;" d="M 210.464844 31.8125 C 210.632812 31.8125 210.8125 31.8125 210.8125 31.613281 C 210.8125 31.414062 210.632812 31.414062 210.464844 31.414062 L 206.242188 31.414062 L 206.242188 28.523438 C 206.242188 28.34375 206.242188 28.167969 206.046875 28.167969 C 205.847656 28.167969 205.847656 28.375 205.847656 28.523438 L 205.847656 34.703125 C 205.847656 34.851562 205.847656 35.058594 206.046875 35.058594 C 206.242188 35.058594 206.242188 34.882812 206.242188 34.703125 L 206.242188 31.8125 L 210.464844 31.8125 "/>
<path style=" stroke:none;fill-rule:nonzero;fill:rgb(0%,0%,0%);fill-opacity:1;" d="M 216.078125 37.105469 C 216.015625 36.589844 215.988281 35.625 215.976562 35.167969 L 216.078125 35.089844 C 216.265625 35.140625 216.464844 35.167969 216.664062 35.167969 C 218.203125 35.167969 219.246094 33.558594 219.246094 32.097656 C 219.246094 31.355469 218.898438 30.441406 217.882812 30.441406 C 217.199219 30.441406 216.59375 30.75 216.054688 31.175781 L 215.976562 31.136719 C 215.9375 30.699219 215.777344 30.390625 215.332031 30.390625 C 214.894531 30.390625 214.378906 30.75 213.980469 31.066406 L 214.121094 31.253906 C 214.359375 31.117188 214.636719 30.96875 214.84375 30.96875 C 215.144531 30.96875 215.234375 31.484375 215.234375 31.929688 L 215.234375 34.125 C 215.234375 34.691406 215.222656 36.730469 215.171875 37.304688 L 215.273438 37.414062 Z M 215.996094 34.402344 C 215.996094 34.394531 215.976562 33.371094 215.976562 32.558594 C 215.976562 32.449219 216.007812 31.691406 216.007812 31.632812 C 216.472656 31.265625 216.882812 31.058594 217.386719 31.058594 C 218.023438 31.058594 218.410156 31.820312 218.410156 32.6875 C 218.410156 33.628906 218.074219 34.773438 216.871094 34.773438 C 216.542969 34.773438 216.234375 34.621094 215.996094 34.402344 "/>
<path style=" stroke:none;fill-rule:nonzero;fill:rgb(0%,0%,0%);fill-opacity:1;" d="M 239.589844 30.777344 C 238.308594 30.53125 238.238281 28.117188 238.238281 26.4375 C 238.238281 24.9375 238.328125 22.414062 239.589844 22.097656 L 239.589844 21.828125 C 238.554688 22.007812 238.109375 23.140625 237.921875 24.09375 C 237.773438 24.839844 237.722656 25.613281 237.722656 26.378906 C 237.722656 27.183594 237.761719 27.988281 237.902344 28.78125 C 238.070312 29.726562 238.546875 30.929688 239.589844 31.019531 L 239.589844 30.777344 "/>
<path style=" stroke:none;fill-rule:nonzero;fill:rgb(0%,0%,0%);fill-opacity:1;" d="M 249.183594 26.875 C 248.8125 27.332031 248.289062 28.117188 248.039062 29.160156 L 248.4375 29.160156 C 248.746094 27.859375 249.578125 26.957031 249.878906 26.675781 C 249.558594 26.378906 248.746094 25.484375 248.4375 24.191406 L 248.039062 24.191406 C 248.289062 25.226562 248.804688 26.011719 249.183594 26.476562 L 241.40625 26.476562 C 241.226562 26.476562 241.054688 26.476562 241.054688 26.675781 C 241.054688 26.875 241.234375 26.875 241.40625 26.875 L 249.183594 26.875 "/>
<path style=" stroke:none;fill-rule:nonzero;fill:rgb(0%,0%,0%);fill-opacity:1;" d="M 254.929688 25.824219 L 254.988281 25.347656 L 254.929688 25.277344 C 254.402344 25.316406 253.667969 25.347656 253.140625 25.347656 C 252.773438 25.347656 252.484375 25.375 252.484375 25.207031 L 252.484375 23.558594 C 252.484375 23.210938 252.527344 22.84375 252.726562 22.800781 L 253.121094 22.800781 C 253.191406 22.800781 254.511719 22.863281 255.199219 22.902344 L 255.238281 22.832031 L 255.257812 22.335938 C 255.128906 22.324219 254.980469 22.324219 254.800781 22.324219 C 254.09375 22.335938 253.09375 22.386719 252.398438 22.386719 L 250.925781 22.394531 L 250.855469 22.464844 L 250.867188 22.664062 C 251.335938 22.734375 251.5625 22.851562 251.621094 22.980469 C 251.710938 23.179688 251.710938 23.476562 251.710938 23.617188 L 251.710938 28.503906 C 251.710938 28.773438 251.769531 29.050781 251.96875 29.160156 L 255.824219 29.160156 L 255.953125 28.632812 L 255.902344 28.582031 C 254.273438 28.722656 254.046875 28.722656 253.578125 28.722656 C 252.972656 28.722656 252.765625 28.664062 252.625 28.40625 C 252.484375 28.15625 252.476562 27.667969 252.476562 27.292969 L 252.476562 25.910156 C 252.476562 25.734375 253.179688 25.761719 253.757812 25.761719 C 254.144531 25.761719 254.542969 25.792969 254.929688 25.824219 "/>
<path style=" stroke:none;fill-rule:nonzero;fill:rgb(0%,0%,0%);fill-opacity:1;" d="M 257.355469 22.117188 C 258.160156 22.40625 258.386719 23.339844 258.535156 24.082031 C 258.6875 24.847656 258.726562 25.644531 258.726562 26.417969 C 258.726562 27.550781 258.746094 28.761719 258.386719 29.824219 C 258.1875 30.421875 257.8125 30.679688 257.355469 30.800781 L 257.355469 31.039062 C 259.132812 30.808594 259.242188 28.15625 259.242188 26.457031 C 259.242188 24.800781 259.03125 22.195312 257.355469 21.847656 L 257.355469 22.117188 "/>
<path style=" stroke:none;fill-rule:nonzero;fill:rgb(0%,0%,0%);fill-opacity:1;" d="M 277.789062 17.480469 C 276.507812 17.230469 276.4375 14.816406 276.4375 13.136719 C 276.4375 11.636719 276.527344 9.113281 277.789062 8.796875 L 277.789062 8.527344 C 276.757812 8.707031 276.308594 9.839844 276.121094 10.792969 C 275.972656 11.539062 275.921875 12.3125 275.921875 13.078125 C 275.921875 13.882812 275.964844 14.6875 276.101562 15.480469 C 276.269531 16.425781 276.746094 17.628906 277.789062 17.71875 L 277.789062 17.480469 "/>
<path style=" stroke:none;fill-rule:nonzero;fill:rgb(0%,0%,0%);fill-opacity:1;" d="M 287.382812 13.574219 C 287.015625 14.03125 286.488281 14.816406 286.238281 15.859375 L 286.636719 15.859375 C 286.945312 14.558594 287.78125 13.65625 288.078125 13.378906 C 287.757812 13.078125 286.945312 12.183594 286.636719 10.894531 L 286.238281 10.894531 C 286.488281 11.925781 287.003906 12.710938 287.382812 13.175781 L 279.605469 13.175781 C 279.425781 13.175781 279.257812 13.175781 279.257812 13.378906 C 279.257812 13.574219 279.433594 13.574219 279.605469 13.574219 L 287.382812 13.574219 "/>
<path style=" stroke:none;fill-rule:nonzero;fill:rgb(0%,0%,0%);fill-opacity:1;" d="M 293.128906 12.523438 L 293.1875 12.046875 L 293.128906 11.976562 C 292.601562 12.015625 291.867188 12.046875 291.34375 12.046875 C 290.972656 12.046875 290.6875 12.074219 290.6875 11.90625 L 290.6875 10.257812 C 290.6875 9.910156 290.726562 9.542969 290.925781 9.503906 L 291.320312 9.503906 C 291.390625 9.503906 292.714844 9.5625 293.398438 9.601562 L 293.4375 9.53125 L 293.457031 9.035156 C 293.328125 9.027344 293.179688 9.027344 293 9.027344 C 292.296875 9.035156 291.292969 9.085938 290.597656 9.085938 L 289.128906 9.09375 L 289.054688 9.164062 L 289.066406 9.363281 C 289.535156 9.433594 289.761719 9.550781 289.820312 9.683594 C 289.910156 9.878906 289.910156 10.175781 289.910156 10.316406 L 289.910156 15.203125 C 289.910156 15.472656 289.96875 15.75 290.167969 15.859375 L 294.023438 15.859375 L 294.152344 15.332031 L 294.101562 15.285156 C 292.472656 15.421875 292.246094 15.421875 291.777344 15.421875 C 291.171875 15.421875 290.964844 15.363281 290.824219 15.105469 C 290.6875 14.855469 290.675781 14.371094 290.675781 13.992188 L 290.675781 12.613281 C 290.675781 12.433594 291.382812 12.464844 291.957031 12.464844 C 292.34375 12.464844 292.742188 12.492188 293.128906 12.523438 "/>
<path style=" stroke:none;fill-rule:nonzero;fill:rgb(0%,0%,0%);fill-opacity:1;" d="M 295.554688 8.816406 C 296.359375 9.105469 296.589844 10.039062 296.734375 10.785156 C 296.886719 11.550781 296.925781 12.34375 296.925781 13.117188 C 296.925781 14.25 296.945312 15.464844 296.589844 16.527344 C 296.390625 17.121094 296.011719 17.378906 295.554688 17.5 L 295.554688 17.738281 C 297.332031 17.507812 297.441406 14.855469 297.441406 13.160156 C 297.441406 11.5 297.234375 8.894531 295.554688 8.550781 L 295.554688 8.816406 "/>
<path style=" stroke:none;fill-rule:nonzero;fill:rgb(0%,0%,0%);fill-opacity:1;" d="M 317.640625 4.296875 L 311.648438 4.296875 L 311.648438 4.695312 L 317.242188 4.695312 L 317.242188 6.3125 L 317.640625 6.3125 L 317.640625 4.296875 "/>
<path style=" stroke:none;fill-rule:nonzero;fill:rgb(0%,0%,0%);fill-opacity:1;" d="M 320.175781 10.40625 C 320.117188 9.890625 320.089844 8.925781 320.078125 8.46875 L 320.175781 8.390625 C 320.367188 8.441406 320.5625 8.46875 320.761719 8.46875 C 322.304688 8.46875 323.34375 6.859375 323.34375 5.398438 C 323.34375 4.65625 322.996094 3.742188 321.984375 3.742188 C 321.300781 3.742188 320.695312 4.050781 320.15625 4.476562 L 320.078125 4.4375 C 320.039062 4 319.878906 3.691406 319.429688 3.691406 C 318.996094 3.691406 318.476562 4.050781 318.082031 4.367188 L 318.21875 4.554688 C 318.457031 4.417969 318.734375 4.269531 318.945312 4.269531 C 319.242188 4.269531 319.332031 4.785156 319.332031 5.230469 L 319.332031 7.425781 C 319.332031 7.992188 319.320312 10.027344 319.273438 10.605469 L 319.371094 10.714844 Z M 320.097656 7.703125 C 320.097656 7.695312 320.078125 6.671875 320.078125 5.855469 C 320.078125 5.746094 320.109375 4.992188 320.109375 4.933594 C 320.574219 4.566406 320.980469 4.355469 321.488281 4.355469 C 322.121094 4.355469 322.511719 5.121094 322.511719 5.988281 C 322.511719 6.929688 322.171875 8.074219 320.972656 8.074219 C 320.644531 8.074219 320.335938 7.921875 320.097656 7.703125 "/>
<path style=" stroke:none;fill-rule:nonzero;fill:rgb(0%,0%,0%);fill-opacity:1;" d="M 331.964844 5.113281 C 332.132812 5.113281 332.3125 5.113281 332.3125 4.914062 C 332.3125 4.714844 332.132812 4.714844 331.964844 4.714844 L 327.742188 4.714844 L 327.742188 1.824219 C 327.742188 1.644531 327.742188 1.464844 327.546875 1.464844 C 327.347656 1.464844 327.347656 1.675781 327.347656 1.824219 L 327.347656 8.003906 C 327.347656 8.152344 327.347656 8.359375 327.546875 8.359375 C 327.742188 8.359375 327.742188 8.183594 327.742188 8.003906 L 327.742188 5.113281 L 331.964844 5.113281 "/>
<path style=" stroke:none;fill-rule:nonzero;fill:rgb(0%,0%,0%);fill-opacity:1;" d="M 341.9375 4.296875 L 335.949219 4.296875 L 335.949219 4.695312 L 341.539062 4.695312 L 341.539062 6.3125 L 341.9375 6.3125 L 341.9375 4.296875 "/>
<path style=" stroke:none;fill-rule:nonzero;fill:rgb(0%,0%,0%);fill-opacity:1;" d="M 344.476562 10.40625 C 344.417969 9.890625 344.386719 8.925781 344.378906 8.46875 L 344.476562 8.390625 C 344.664062 8.441406 344.863281 8.46875 345.0625 8.46875 C 346.601562 8.46875 347.644531 6.859375 347.644531 5.398438 C 347.644531 4.65625 347.296875 3.742188 346.285156 3.742188 C 345.601562 3.742188 344.992188 4.050781 344.457031 4.476562 L 344.378906 4.4375 C 344.339844 4 344.179688 3.691406 343.730469 3.691406 C 343.296875 3.691406 342.777344 4.050781 342.382812 4.367188 L 342.519531 4.554688 C 342.757812 4.417969 343.035156 4.269531 343.246094 4.269531 C 343.542969 4.269531 343.632812 4.785156 343.632812 5.230469 L 343.632812 7.425781 C 343.632812 7.992188 343.621094 10.027344 343.574219 10.605469 L 343.671875 10.714844 Z M 344.398438 7.703125 C 344.398438 7.695312 344.378906 6.671875 344.378906 5.855469 C 344.378906 5.746094 344.40625 4.992188 344.40625 4.933594 C 344.871094 4.566406 345.28125 4.355469 345.789062 4.355469 C 346.421875 4.355469 346.8125 5.121094 346.8125 5.988281 C 346.8125 6.929688 346.472656 8.074219 345.273438 8.074219 C 344.945312 8.074219 344.636719 7.921875 344.398438 7.703125 "/>
<path style=" stroke:none;fill-rule:nonzero;fill:rgb(0%,0%,0%);fill-opacity:1;" d="M 364.539062 4.296875 L 358.546875 4.296875 L 358.546875 4.695312 L 364.140625 4.695312 L 364.140625 6.3125 L 364.539062 6.3125 L 364.539062 4.296875 "/>
<path style=" stroke:none;fill-rule:nonzero;fill:rgb(0%,0%,0%);fill-opacity:1;" d="M 371.339844 4.296875 L 365.347656 4.296875 L 365.347656 4.695312 L 370.941406 4.695312 L 370.941406 6.3125 L 371.339844 6.3125 L 371.339844 4.296875 "/>
<path style=" stroke:none;fill-rule:nonzero;fill:rgb(0%,0%,0%);fill-opacity:1;" d="M 373.976562 10.40625 C 373.917969 9.890625 373.886719 8.925781 373.878906 8.46875 L 373.976562 8.390625 C 374.164062 8.441406 374.363281 8.46875 374.5625 8.46875 C 376.101562 8.46875 377.144531 6.859375 377.144531 5.398438 C 377.144531 4.65625 376.796875 3.742188 375.785156 3.742188 C 375.101562 3.742188 374.492188 4.050781 373.957031 4.476562 L 373.878906 4.4375 C 373.839844 4 373.679688 3.691406 373.230469 3.691406 C 372.796875 3.691406 372.277344 4.050781 371.882812 4.367188 L 372.019531 4.554688 C 372.257812 4.417969 372.535156 4.269531 372.746094 4.269531 C 373.042969 4.269531 373.132812 4.785156 373.132812 5.230469 L 373.132812 7.425781 C 373.132812 7.992188 373.121094 10.027344 373.074219 10.605469 L 373.171875 10.714844 Z M 373.898438 7.703125 C 373.898438 7.695312 373.878906 6.671875 373.878906 5.855469 C 373.878906 5.746094 373.90625 4.992188 373.90625 4.933594 C 374.371094 4.566406 374.78125 4.355469 375.289062 4.355469 C 375.921875 4.355469 376.3125 5.121094 376.3125 5.988281 C 376.3125 6.929688 375.972656 8.074219 374.773438 8.074219 C 374.445312 8.074219 374.136719 7.921875 373.898438 7.703125 "/>
<path style=" stroke:none;fill-rule:nonzero;fill:rgb(0%,0%,0%);fill-opacity:1;" d="M 385.765625 5.113281 C 385.933594 5.113281 386.113281 5.113281 386.113281 4.914062 C 386.113281 4.714844 385.933594 4.714844 385.765625 4.714844 L 381.542969 4.714844 L 381.542969 1.824219 C 381.542969 1.644531 381.542969 1.464844 381.34375 1.464844 C 381.148438 1.464844 381.148438 1.675781 381.148438 1.824219 L 381.148438 8.003906 C 381.148438 8.152344 381.148438 8.359375 381.34375 8.359375 C 381.542969 8.359375 381.542969 8.183594 381.542969 8.003906 L 381.542969 5.113281 L 385.765625 5.113281 "/>
<path style=" stroke:none;fill-rule:nonzero;fill:rgb(0%,0%,0%);fill-opacity:1;" d="M 395.738281 4.296875 L 389.746094 4.296875 L 389.746094 4.695312 L 395.339844 4.695312 L 395.339844 6.3125 L 395.738281 6.3125 L 395.738281 4.296875 "/>
<path style=" stroke:none;fill-rule:nonzero;fill:rgb(0%,0%,0%);fill-opacity:1;" d="M 402.539062 4.296875 L 396.546875 4.296875 L 396.546875 4.695312 L 402.140625 4.695312 L 402.140625 6.3125 L 402.539062 6.3125 L 402.539062 4.296875 "/>
<path style=" stroke:none;fill-rule:nonzero;fill:rgb(0%,0%,0%);fill-opacity:1;" d="M 405.078125 10.40625 C 405.015625 9.890625 404.988281 8.925781 404.976562 8.46875 L 405.078125 8.390625 C 405.265625 8.441406 405.464844 8.46875 405.664062 8.46875 C 407.203125 8.46875 408.246094 6.859375 408.246094 5.398438 C 408.246094 4.65625 407.898438 3.742188 406.882812 3.742188 C 406.199219 3.742188 405.59375 4.050781 405.054688 4.476562 L 404.976562 4.4375 C 404.9375 4 404.777344 3.691406 404.332031 3.691406 C 403.894531 3.691406 403.378906 4.050781 402.980469 4.367188 L 403.121094 4.554688 C 403.359375 4.417969 403.636719 4.269531 403.84375 4.269531 C 404.144531 4.269531 404.234375 4.785156 404.234375 5.230469 L 404.234375 7.425781 C 404.234375 7.992188 404.222656 10.027344 404.171875 10.605469 L 404.273438 10.714844 Z M 404.996094 7.703125 C 404.996094 7.695312 404.976562 6.671875 404.976562 5.855469 C 404.976562 5.746094 405.007812 4.992188 405.007812 4.933594 C 405.472656 4.566406 405.882812 4.355469 406.386719 4.355469 C 407.023438 4.355469 407.410156 5.121094 407.410156 5.988281 C 407.410156 6.929688 407.074219 8.074219 405.871094 8.074219 C 405.542969 8.074219 405.234375 7.921875 404.996094 7.703125 "/>
<path style="fill:none;stroke-width:3.98;stroke-linecap:butt;stroke-linejoin:miter;stroke:rgb(0%,0%,0%);stroke-opacity:1;stroke-miterlimit:10;" d="M 3113.59375 631.123438 L 4089.726562 631.123438 " transform="matrix(0.1,0,0,-0.1,0,76.46)"/>
<path style=" stroke:none;fill-rule:nonzero;fill:rgb(0%,0%,0%);fill-opacity:1;" d="M 338.4375 18.597656 L 332.449219 18.597656 L 332.449219 18.996094 L 338.039062 18.996094 L 338.039062 20.613281 L 338.4375 20.613281 L 338.4375 18.597656 "/>
<path style=" stroke:none;fill-rule:nonzero;fill:rgb(0%,0%,0%);fill-opacity:1;" d="M 340.976562 24.707031 C 340.917969 24.191406 340.886719 23.226562 340.878906 22.769531 L 340.976562 22.691406 C 341.164062 22.738281 341.363281 22.769531 341.5625 22.769531 C 343.101562 22.769531 344.144531 21.160156 344.144531 19.699219 C 344.144531 18.957031 343.796875 18.042969 342.785156 18.042969 C 342.101562 18.042969 341.492188 18.347656 340.957031 18.777344 L 340.878906 18.738281 C 340.839844 18.300781 340.679688 17.992188 340.230469 17.992188 C 339.796875 17.992188 339.277344 18.347656 338.882812 18.667969 L 339.019531 18.855469 C 339.257812 18.714844 339.535156 18.566406 339.746094 18.566406 C 340.042969 18.566406 340.132812 19.082031 340.132812 19.53125 L 340.132812 21.726562 C 340.132812 22.292969 340.121094 24.328125 340.074219 24.90625 L 340.171875 25.015625 Z M 340.898438 22.003906 C 340.898438 21.996094 340.878906 20.972656 340.878906 20.15625 C 340.878906 20.046875 340.90625 19.292969 340.90625 19.234375 C 341.371094 18.863281 341.78125 18.65625 342.289062 18.65625 C 342.921875 18.65625 343.3125 19.421875 343.3125 20.285156 C 343.3125 21.230469 342.972656 22.371094 341.773438 22.371094 C 341.445312 22.371094 341.136719 22.222656 340.898438 22.003906 "/>
<path style=" stroke:none;fill-rule:nonzero;fill:rgb(0%,0%,0%);fill-opacity:1;" d="M 345.992188 24.746094 C 346.699219 23.933594 347.027344 23.425781 347.027344 22.929688 C 347.027344 22.582031 346.679688 21.289062 346.152344 21.289062 C 345.902344 21.289062 345.566406 21.507812 345.566406 21.765625 C 345.566406 21.863281 345.59375 21.972656 345.632812 22.023438 L 346.328125 22.847656 C 346.421875 22.957031 346.460938 23.128906 346.460938 23.265625 C 346.460938 23.664062 346.152344 24.152344 345.804688 24.605469 L 345.992188 24.746094 "/>
<path style=" stroke:none;fill-rule:nonzero;fill:rgb(0%,0%,0%);fill-opacity:1;" d="M 355.539062 18.597656 L 349.546875 18.597656 L 349.546875 18.996094 L 355.140625 18.996094 L 355.140625 20.613281 L 355.539062 20.613281 L 355.539062 18.597656 "/>
<path style=" stroke:none;fill-rule:nonzero;fill:rgb(0%,0%,0%);fill-opacity:1;" d="M 362.339844 18.597656 L 356.347656 18.597656 L 356.347656 18.996094 L 361.941406 18.996094 L 361.941406 20.613281 L 362.339844 20.613281 L 362.339844 18.597656 "/>
<path style=" stroke:none;fill-rule:nonzero;fill:rgb(0%,0%,0%);fill-opacity:1;" d="M 364.878906 24.707031 C 364.816406 24.191406 364.789062 23.226562 364.777344 22.769531 L 364.878906 22.691406 C 365.066406 22.738281 365.265625 22.769531 365.464844 22.769531 C 367.003906 22.769531 368.046875 21.160156 368.046875 19.699219 C 368.046875 18.957031 367.699219 18.042969 366.683594 18.042969 C 366 18.042969 365.394531 18.347656 364.855469 18.777344 L 364.777344 18.738281 C 364.738281 18.300781 364.578125 17.992188 364.132812 17.992188 C 363.695312 17.992188 363.179688 18.347656 362.78125 18.667969 L 362.921875 18.855469 C 363.15625 18.714844 363.4375 18.566406 363.644531 18.566406 C 363.945312 18.566406 364.03125 19.082031 364.03125 19.53125 L 364.03125 21.726562 C 364.03125 22.292969 364.023438 24.328125 363.972656 24.90625 L 364.070312 25.015625 Z M 364.796875 22.003906 C 364.796875 21.996094 364.777344 20.972656 364.777344 20.15625 C 364.777344 20.046875 364.808594 19.292969 364.808594 19.234375 C 365.273438 18.863281 365.679688 18.65625 366.1875 18.65625 C 366.824219 18.65625 367.210938 19.421875 367.210938 20.285156 C 367.210938 21.230469 366.871094 22.371094 365.671875 22.371094 C 365.34375 22.371094 365.035156 22.222656 364.796875 22.003906 "/>
<path style=" stroke:none;fill-rule:nonzero;fill:rgb(0%,0%,0%);fill-opacity:1;" d="M 376.765625 19.410156 C 376.933594 19.410156 377.113281 19.410156 377.113281 19.214844 C 377.113281 19.015625 376.933594 19.015625 376.765625 19.015625 L 372.542969 19.015625 L 372.542969 16.125 C 372.542969 15.945312 372.542969 15.765625 372.34375 15.765625 C 372.148438 15.765625 372.148438 15.972656 372.148438 16.125 L 372.148438 22.300781 C 372.148438 22.449219 372.148438 22.660156 372.34375 22.660156 C 372.542969 22.660156 372.542969 22.480469 372.542969 22.300781 L 372.542969 19.410156 L 376.765625 19.410156 "/>
<path style=" stroke:none;fill-rule:nonzero;fill:rgb(0%,0%,0%);fill-opacity:1;" d="M 384.464844 16.382812 C 384.464844 16.203125 384.464844 16.023438 384.265625 16.023438 C 384.066406 16.023438 384.066406 16.234375 384.066406 16.382812 L 384.066406 22.261719 L 381.304688 22.261719 C 381.15625 22.261719 380.945312 22.261719 380.945312 22.460938 C 380.945312 22.660156 381.15625 22.660156 381.304688 22.660156 L 387.234375 22.660156 C 387.402344 22.660156 387.582031 22.660156 387.582031 22.460938 C 387.582031 22.261719 387.402344 22.261719 387.234375 22.261719 L 384.464844 22.261719 L 384.464844 16.382812 "/>
<path style=" stroke:none;fill-rule:nonzero;fill:rgb(0%,0%,0%);fill-opacity:1;" d="M 427.964844 15.480469 C 427.964844 15.304688 427.964844 15.125 427.765625 15.125 C 427.566406 15.125 427.566406 15.332031 427.566406 15.480469 L 427.566406 21.363281 L 424.804688 21.363281 C 424.65625 21.363281 424.445312 21.363281 424.445312 21.5625 C 424.445312 21.761719 424.65625 21.761719 424.804688 21.761719 L 430.734375 21.761719 C 430.902344 21.761719 431.082031 21.761719 431.082031 21.5625 C 431.082031 21.363281 430.902344 21.363281 430.734375 21.363281 L 427.964844 21.363281 L 427.964844 15.480469 "/>
<path style=" stroke:none;fill-rule:nonzero;fill:rgb(0%,0%,0%);fill-opacity:1;" d="M 443.082031 19.476562 C 442.714844 19.933594 442.1875 20.714844 441.9375 21.761719 L 442.339844 21.761719 C 442.644531 20.457031 443.480469 19.554688 443.777344 19.277344 C 443.460938 18.980469 442.644531 18.085938 442.339844 16.792969 L 441.9375 16.792969 C 442.1875 17.824219 442.703125 18.613281 443.082031 19.078125 L 435.304688 19.078125 C 435.125 19.078125 434.957031 19.078125 434.957031 19.277344 C 434.957031 19.476562 435.132812 19.476562 435.304688 19.476562 L 443.082031 19.476562 "/>
<path style=" stroke:none;fill-rule:nonzero;fill:rgb(0%,0%,0%);fill-opacity:1;" d="M 449.175781 23.808594 C 449.117188 23.289062 449.089844 22.324219 449.078125 21.871094 L 449.175781 21.789062 C 449.367188 21.839844 449.5625 21.871094 449.761719 21.871094 C 451.304688 21.871094 452.34375 20.261719 452.34375 18.800781 C 452.34375 18.054688 451.996094 17.140625 450.984375 17.140625 C 450.300781 17.140625 449.695312 17.449219 449.15625 17.875 L 449.078125 17.835938 C 449.039062 17.398438 448.878906 17.089844 448.429688 17.089844 C 447.996094 17.089844 447.476562 17.449219 447.082031 17.765625 L 447.21875 17.957031 C 447.457031 17.816406 447.734375 17.667969 447.945312 17.667969 C 448.242188 17.667969 448.332031 18.183594 448.332031 18.628906 L 448.332031 20.824219 C 448.332031 21.394531 448.320312 23.429688 448.273438 24.003906 L 448.371094 24.113281 Z M 449.097656 21.105469 C 449.097656 21.09375 449.078125 20.070312 449.078125 19.257812 C 449.078125 19.148438 449.109375 18.394531 449.109375 18.332031 C 449.574219 17.964844 449.980469 17.757812 450.488281 17.757812 C 451.121094 17.757812 451.511719 18.519531 451.511719 19.386719 C 451.511719 20.332031 451.171875 21.472656 449.972656 21.472656 C 449.644531 21.472656 449.335938 21.324219 449.097656 21.105469 "/>
<path style=" stroke:none;fill-rule:nonzero;fill:rgb(0%,0%,0%);fill-opacity:1;" d="M 460.964844 18.511719 C 461.132812 18.511719 461.3125 18.511719 461.3125 18.3125 C 461.3125 18.113281 461.132812 18.113281 460.964844 18.113281 L 456.742188 18.113281 L 456.742188 15.222656 C 456.742188 15.042969 456.742188 14.867188 456.546875 14.867188 C 456.347656 14.867188 456.347656 15.074219 456.347656 15.222656 L 456.347656 21.402344 C 456.347656 21.550781 456.347656 21.761719 456.546875 21.761719 C 456.742188 21.761719 456.742188 21.582031 456.742188 21.402344 L 456.742188 18.511719 L 460.964844 18.511719 "/>
<path style=" stroke:none;fill-rule:nonzero;fill:rgb(0%,0%,0%);fill-opacity:1;" d="M 468.761719 15.480469 C 468.761719 15.304688 468.761719 15.125 468.5625 15.125 C 468.367188 15.125 468.367188 15.332031 468.367188 15.480469 L 468.367188 21.363281 L 465.605469 21.363281 C 465.453125 21.363281 465.246094 21.363281 465.246094 21.5625 C 465.246094 21.761719 465.453125 21.761719 465.605469 21.761719 L 471.535156 21.761719 C 471.703125 21.761719 471.882812 21.761719 471.882812 21.5625 C 471.882812 21.363281 471.703125 21.363281 471.535156 21.363281 L 468.761719 21.363281 L 468.761719 15.480469 "/>
<path style=" stroke:none;fill-rule:nonzero;fill:rgb(0%,0%,0%);fill-opacity:1;" d="M 483.882812 19.476562 C 483.515625 19.933594 482.988281 20.714844 482.738281 21.761719 L 483.136719 21.761719 C 483.445312 20.457031 484.28125 19.554688 484.578125 19.277344 C 484.257812 18.980469 483.445312 18.085938 483.136719 16.792969 L 482.738281 16.792969 C 482.988281 17.824219 483.503906 18.613281 483.882812 19.078125 L 476.105469 19.078125 C 475.925781 19.078125 475.757812 19.078125 475.757812 19.277344 C 475.757812 19.476562 475.933594 19.476562 476.105469 19.476562 L 483.882812 19.476562 "/>
<path style=" stroke:none;fill-rule:nonzero;fill:rgb(0%,0%,0%);fill-opacity:1;" d="M 489.878906 23.808594 C 489.816406 23.289062 489.789062 22.324219 489.777344 21.871094 L 489.878906 21.789062 C 490.066406 21.839844 490.265625 21.871094 490.464844 21.871094 C 492.003906 21.871094 493.046875 20.261719 493.046875 18.800781 C 493.046875 18.054688 492.699219 17.140625 491.683594 17.140625 C 491 17.140625 490.394531 17.449219 489.855469 17.875 L 489.777344 17.835938 C 489.738281 17.398438 489.578125 17.089844 489.132812 17.089844 C 488.695312 17.089844 488.179688 17.449219 487.78125 17.765625 L 487.921875 17.957031 C 488.15625 17.816406 488.4375 17.667969 488.644531 17.667969 C 488.945312 17.667969 489.03125 18.183594 489.03125 18.628906 L 489.03125 20.824219 C 489.03125 21.394531 489.023438 23.429688 488.972656 24.003906 L 489.070312 24.113281 Z M 489.796875 21.105469 C 489.796875 21.09375 489.777344 20.070312 489.777344 19.257812 C 489.777344 19.148438 489.808594 18.394531 489.808594 18.332031 C 490.273438 17.964844 490.679688 17.757812 491.1875 17.757812 C 491.824219 17.757812 492.210938 18.519531 492.210938 19.386719 C 492.210938 20.332031 491.871094 21.472656 490.671875 21.472656 C 490.34375 21.472656 490.035156 21.324219 489.796875 21.105469 "/>
<g clip-path="url(#clip1)" clip-rule="nonzero">
<path style="fill:none;stroke-width:3.98;stroke-linecap:butt;stroke-linejoin:miter;stroke:rgb(0%,0%,0%);stroke-opacity:1;stroke-miterlimit:10;" d="M 2731.445312 497.646875 L 4987.617188 497.646875 " transform="matrix(0.1,0,0,-0.1,0,76.46)"/>
</g>
<path style=" stroke:none;fill-rule:nonzero;fill:rgb(0%,0%,0%);fill-opacity:1;" d="M 348.339844 31.996094 L 342.347656 31.996094 L 342.347656 32.394531 L 347.941406 32.394531 L 347.941406 34.011719 L 348.339844 34.011719 L 348.339844 31.996094 "/>
<path style=" stroke:none;fill-rule:nonzero;fill:rgb(0%,0%,0%);fill-opacity:1;" d="M 350.878906 38.105469 C 350.816406 37.589844 350.789062 36.625 350.777344 36.167969 L 350.878906 36.089844 C 351.066406 36.140625 351.265625 36.167969 351.464844 36.167969 C 353.003906 36.167969 354.046875 34.558594 354.046875 33.097656 C 354.046875 32.355469 353.699219 31.441406 352.683594 31.441406 C 352 31.441406 351.394531 31.75 350.855469 32.175781 L 350.777344 32.136719 C 350.738281 31.699219 350.578125 31.390625 350.132812 31.390625 C 349.695312 31.390625 349.179688 31.75 348.78125 32.066406 L 348.921875 32.253906 C 349.15625 32.117188 349.4375 31.96875 349.644531 31.96875 C 349.945312 31.96875 350.03125 32.484375 350.03125 32.929688 L 350.03125 35.125 C 350.03125 35.691406 350.023438 37.730469 349.972656 38.304688 L 350.070312 38.414062 Z M 350.796875 35.402344 C 350.796875 35.394531 350.777344 34.371094 350.777344 33.558594 C 350.777344 33.449219 350.808594 32.691406 350.808594 32.632812 C 351.273438 32.265625 351.679688 32.058594 352.1875 32.058594 C 352.824219 32.058594 353.210938 32.820312 353.210938 33.6875 C 353.210938 34.628906 352.871094 35.773438 351.671875 35.773438 C 351.34375 35.773438 351.035156 35.621094 350.796875 35.402344 "/>
<path style=" stroke:none;fill-rule:nonzero;fill:rgb(0%,0%,0%);fill-opacity:1;" d="M 355.890625 38.144531 C 356.597656 37.332031 356.925781 36.824219 356.925781 36.328125 C 356.925781 35.980469 356.578125 34.691406 356.050781 34.691406 C 355.804688 34.691406 355.464844 34.910156 355.464844 35.167969 C 355.464844 35.265625 355.496094 35.375 355.535156 35.425781 L 356.230469 36.25 C 356.320312 36.359375 356.359375 36.527344 356.359375 36.667969 C 356.359375 37.0625 356.050781 37.550781 355.703125 38.007812 L 355.890625 38.144531 "/>
<path style=" stroke:none;fill-rule:nonzero;fill:rgb(0%,0%,0%);fill-opacity:1;" d="M 365.4375 31.996094 L 359.449219 31.996094 L 359.449219 32.394531 L 365.039062 32.394531 L 365.039062 34.011719 L 365.4375 34.011719 L 365.4375 31.996094 "/>
<path style=" stroke:none;fill-rule:nonzero;fill:rgb(0%,0%,0%);fill-opacity:1;" d="M 372.339844 31.996094 L 366.347656 31.996094 L 366.347656 32.394531 L 371.941406 32.394531 L 371.941406 34.011719 L 372.339844 34.011719 L 372.339844 31.996094 "/>
<path style=" stroke:none;fill-rule:nonzero;fill:rgb(0%,0%,0%);fill-opacity:1;" d="M 374.878906 38.105469 C 374.816406 37.589844 374.789062 36.625 374.777344 36.167969 L 374.878906 36.089844 C 375.066406 36.140625 375.265625 36.167969 375.464844 36.167969 C 377.003906 36.167969 378.046875 34.558594 378.046875 33.097656 C 378.046875 32.355469 377.699219 31.441406 376.683594 31.441406 C 376 31.441406 375.394531 31.75 374.855469 32.175781 L 374.777344 32.136719 C 374.738281 31.699219 374.578125 31.390625 374.132812 31.390625 C 373.695312 31.390625 373.179688 31.75 372.78125 32.066406 L 372.921875 32.253906 C 373.15625 32.117188 373.4375 31.96875 373.644531 31.96875 C 373.945312 31.96875 374.03125 32.484375 374.03125 32.929688 L 374.03125 35.125 C 374.03125 35.691406 374.023438 37.730469 373.972656 38.304688 L 374.070312 38.414062 Z M 374.796875 35.402344 C 374.796875 35.394531 374.777344 34.371094 374.777344 33.558594 C 374.777344 33.449219 374.808594 32.691406 374.808594 32.632812 C 375.273438 32.265625 375.679688 32.058594 376.1875 32.058594 C 376.824219 32.058594 377.210938 32.820312 377.210938 33.6875 C 377.210938 34.628906 376.871094 35.773438 375.671875 35.773438 C 375.34375 35.773438 375.035156 35.621094 374.796875 35.402344 "/>
<path style=" stroke:none;fill-rule:nonzero;fill:rgb(0%,0%,0%);fill-opacity:1;" d="M 379.792969 38.144531 C 380.496094 37.332031 380.828125 36.824219 380.828125 36.328125 C 380.828125 35.980469 380.476562 34.691406 379.953125 34.691406 C 379.703125 34.691406 379.367188 34.910156 379.367188 35.167969 C 379.367188 35.265625 379.394531 35.375 379.433594 35.425781 L 380.128906 36.25 C 380.21875 36.359375 380.257812 36.527344 380.257812 36.667969 C 380.257812 37.0625 379.953125 37.550781 379.605469 38.007812 L 379.792969 38.144531 "/>
<path style=" stroke:none;fill-rule:nonzero;fill:rgb(0%,0%,0%);fill-opacity:1;" d="M 387.261719 29.78125 C 387.261719 29.605469 387.261719 29.425781 387.0625 29.425781 C 386.867188 29.425781 386.867188 29.632812 386.867188 29.78125 L 386.867188 35.664062 L 384.105469 35.664062 C 383.953125 35.664062 383.746094 35.664062 383.746094 35.863281 C 383.746094 36.058594 383.953125 36.058594 384.105469 36.058594 L 390.035156 36.058594 C 390.203125 36.058594 390.382812 36.058594 390.382812 35.863281 C 390.382812 35.664062 390.203125 35.664062 390.035156 35.664062 L 387.261719 35.664062 L 387.261719 29.78125 "/>
<path style=" stroke:none;fill-rule:nonzero;fill:rgb(0%,0%,0%);fill-opacity:1;" d="M 402.382812 33.777344 C 402.015625 34.230469 401.488281 35.015625 401.238281 36.058594 L 401.636719 36.058594 C 401.945312 34.757812 402.78125 33.855469 403.078125 33.578125 C 402.757812 33.277344 401.945312 32.386719 401.636719 31.09375 L 401.238281 31.09375 C 401.488281 32.125 402.003906 32.910156 402.382812 33.378906 L 394.605469 33.378906 C 394.425781 33.378906 394.257812 33.378906 394.257812 33.578125 C 394.257812 33.777344 394.433594 33.777344 394.605469 33.777344 L 402.382812 33.777344 "/>
<path style=" stroke:none;fill-rule:nonzero;fill:rgb(0%,0%,0%);fill-opacity:1;" d="M 408.378906 38.105469 C 408.316406 37.589844 408.289062 36.625 408.277344 36.167969 L 408.378906 36.089844 C 408.566406 36.140625 408.765625 36.167969 408.964844 36.167969 C 410.503906 36.167969 411.546875 34.558594 411.546875 33.097656 C 411.546875 32.355469 411.199219 31.441406 410.183594 31.441406 C 409.5 31.441406 408.894531 31.75 408.355469 32.175781 L 408.277344 32.136719 C 408.238281 31.699219 408.078125 31.390625 407.632812 31.390625 C 407.195312 31.390625 406.679688 31.75 406.28125 32.066406 L 406.421875 32.253906 C 406.65625 32.117188 406.9375 31.96875 407.144531 31.96875 C 407.445312 31.96875 407.53125 32.484375 407.53125 32.929688 L 407.53125 35.125 C 407.53125 35.691406 407.523438 37.730469 407.472656 38.304688 L 407.570312 38.414062 Z M 408.296875 35.402344 C 408.296875 35.394531 408.277344 34.371094 408.277344 33.558594 C 408.277344 33.449219 408.308594 32.691406 408.308594 32.632812 C 408.773438 32.265625 409.179688 32.058594 409.6875 32.058594 C 410.324219 32.058594 410.710938 32.820312 410.710938 33.6875 C 410.710938 34.628906 410.371094 35.773438 409.171875 35.773438 C 408.84375 35.773438 408.535156 35.621094 408.296875 35.402344 "/>
<path style=" stroke:none;fill-rule:nonzero;fill:rgb(0%,0%,0%);fill-opacity:1;" d="M 420.265625 32.8125 C 420.433594 32.8125 420.613281 32.8125 420.613281 32.613281 C 420.613281 32.414062 420.433594 32.414062 420.265625 32.414062 L 416.042969 32.414062 L 416.042969 29.523438 C 416.042969 29.34375 416.042969 29.167969 415.84375 29.167969 C 415.648438 29.167969 415.648438 29.375 415.648438 29.523438 L 415.648438 35.703125 C 415.648438 35.851562 415.648438 36.058594 415.84375 36.058594 C 416.042969 36.058594 416.042969 35.882812 416.042969 35.703125 L 416.042969 32.8125 L 420.265625 32.8125 "/>
<path style=" stroke:none;fill-rule:nonzero;fill:rgb(0%,0%,0%);fill-opacity:1;" d="M 425.878906 38.105469 C 425.816406 37.589844 425.789062 36.625 425.777344 36.167969 L 425.878906 36.089844 C 426.066406 36.140625 426.265625 36.167969 426.464844 36.167969 C 428.003906 36.167969 429.046875 34.558594 429.046875 33.097656 C 429.046875 32.355469 428.699219 31.441406 427.683594 31.441406 C 427 31.441406 426.394531 31.75 425.855469 32.175781 L 425.777344 32.136719 C 425.738281 31.699219 425.578125 31.390625 425.132812 31.390625 C 424.695312 31.390625 424.179688 31.75 423.78125 32.066406 L 423.921875 32.253906 C 424.15625 32.117188 424.4375 31.96875 424.644531 31.96875 C 424.945312 31.96875 425.03125 32.484375 425.03125 32.929688 L 425.03125 35.125 C 425.03125 35.691406 425.023438 37.730469 424.972656 38.304688 L 425.070312 38.414062 Z M 425.796875 35.402344 C 425.796875 35.394531 425.777344 34.371094 425.777344 33.558594 C 425.777344 33.449219 425.808594 32.691406 425.808594 32.632812 C 426.273438 32.265625 426.679688 32.058594 427.1875 32.058594 C 427.824219 32.058594 428.210938 32.820312 428.210938 33.6875 C 428.210938 34.628906 427.871094 35.773438 426.671875 35.773438 C 426.34375 35.773438 426.035156 35.621094 425.796875 35.402344 "/>
<g clip-path="url(#clip2)" clip-rule="nonzero">
<path style="fill:none;stroke-width:3.98;stroke-linecap:butt;stroke-linejoin:miter;stroke:rgb(0%,0%,0%);stroke-opacity:1;stroke-miterlimit:10;" d="M 986.5625 364.13125 L 4987.617188 364.13125 " transform="matrix(0.1,0,0,-0.1,0,76.46)"/>
</g>
<path style=" stroke:none;fill-rule:nonzero;fill:rgb(0%,0%,0%);fill-opacity:1;" d="M 247.878906 51.40625 C 247.816406 50.890625 247.789062 49.925781 247.777344 49.46875 L 247.878906 49.390625 C 248.066406 49.441406 248.265625 49.46875 248.464844 49.46875 C 250.003906 49.46875 251.046875 47.859375 251.046875 46.398438 C 251.046875 45.65625 250.699219 44.742188 249.683594 44.742188 C 249 44.742188 248.394531 45.050781 247.855469 45.476562 L 247.777344 45.4375 C 247.738281 45 247.578125 44.691406 247.132812 44.691406 C 246.695312 44.691406 246.179688 45.050781 245.78125 45.367188 L 245.921875 45.554688 C 246.15625 45.417969 246.4375 45.269531 246.644531 45.269531 C 246.945312 45.269531 247.03125 45.785156 247.03125 46.230469 L 247.03125 48.425781 C 247.03125 48.992188 247.023438 51.027344 246.972656 51.605469 L 247.070312 51.714844 Z M 247.796875 48.703125 C 247.796875 48.695312 247.777344 47.671875 247.777344 46.855469 C 247.777344 46.746094 247.808594 45.992188 247.808594 45.933594 C 248.273438 45.566406 248.679688 45.355469 249.1875 45.355469 C 249.824219 45.355469 250.210938 46.121094 250.210938 46.988281 C 250.210938 47.929688 249.871094 49.074219 248.671875 49.074219 C 248.34375 49.074219 248.035156 48.921875 247.796875 48.703125 "/>
<path style=" stroke:none;fill-rule:nonzero;fill:rgb(0%,0%,0%);fill-opacity:1;" d="M 261.410156 42.566406 L 261.371094 42.527344 L 260.984375 42.527344 L 257.625 48.773438 L 254.378906 42.566406 L 253.960938 42.636719 L 257.546875 49.480469 L 257.695312 49.480469 L 261.410156 42.566406 "/>
<path style=" stroke:none;fill-rule:nonzero;fill:rgb(0%,0%,0%);fill-opacity:1;" d="M 270.140625 45.296875 L 264.148438 45.296875 L 264.148438 45.695312 L 269.742188 45.695312 L 269.742188 47.3125 L 270.140625 47.3125 L 270.140625 45.296875 "/>
<path style=" stroke:none;fill-rule:nonzero;fill:rgb(0%,0%,0%);fill-opacity:1;" d="M 272.675781 51.40625 C 272.617188 50.890625 272.589844 49.925781 272.578125 49.46875 L 272.675781 49.390625 C 272.867188 49.441406 273.0625 49.46875 273.261719 49.46875 C 274.804688 49.46875 275.84375 47.859375 275.84375 46.398438 C 275.84375 45.65625 275.496094 44.742188 274.484375 44.742188 C 273.800781 44.742188 273.195312 45.050781 272.65625 45.476562 L 272.578125 45.4375 C 272.539062 45 272.378906 44.691406 271.929688 44.691406 C 271.496094 44.691406 270.976562 45.050781 270.582031 45.367188 L 270.71875 45.554688 C 270.957031 45.417969 271.234375 45.269531 271.445312 45.269531 C 271.742188 45.269531 271.832031 45.785156 271.832031 46.230469 L 271.832031 48.425781 C 271.832031 48.992188 271.820312 51.027344 271.773438 51.605469 L 271.871094 51.714844 Z M 272.597656 48.703125 C 272.597656 48.695312 272.578125 47.671875 272.578125 46.855469 C 272.578125 46.746094 272.609375 45.992188 272.609375 45.933594 C 273.074219 45.566406 273.480469 45.355469 273.988281 45.355469 C 274.621094 45.355469 275.011719 46.121094 275.011719 46.988281 C 275.011719 47.929688 274.671875 49.074219 273.472656 49.074219 C 273.144531 49.074219 272.835938 48.921875 272.597656 48.703125 "/>
<path style=" stroke:none;fill-rule:nonzero;fill:rgb(0%,0%,0%);fill-opacity:1;" d="M 277.691406 51.445312 C 278.398438 50.632812 278.726562 50.125 278.726562 49.628906 C 278.726562 49.28125 278.378906 47.988281 277.851562 47.988281 C 277.601562 47.988281 277.265625 48.207031 277.265625 48.464844 C 277.265625 48.566406 277.296875 48.675781 277.335938 48.722656 L 278.03125 49.550781 C 278.121094 49.660156 278.160156 49.828125 278.160156 49.964844 C 278.160156 50.363281 277.851562 50.851562 277.503906 51.308594 L 277.691406 51.445312 "/>
<path style=" stroke:none;fill-rule:nonzero;fill:rgb(0%,0%,0%);fill-opacity:1;" d="M 287.238281 45.296875 L 281.246094 45.296875 L 281.246094 45.695312 L 286.839844 45.695312 L 286.839844 47.3125 L 287.238281 47.3125 L 287.238281 45.296875 "/>
<path style=" stroke:none;fill-rule:nonzero;fill:rgb(0%,0%,0%);fill-opacity:1;" d="M 294.039062 45.296875 L 288.046875 45.296875 L 288.046875 45.695312 L 293.640625 45.695312 L 293.640625 47.3125 L 294.039062 47.3125 L 294.039062 45.296875 "/>
<path style=" stroke:none;fill-rule:nonzero;fill:rgb(0%,0%,0%);fill-opacity:1;" d="M 296.578125 51.40625 C 296.515625 50.890625 296.488281 49.925781 296.476562 49.46875 L 296.578125 49.390625 C 296.765625 49.441406 296.964844 49.46875 297.164062 49.46875 C 298.703125 49.46875 299.746094 47.859375 299.746094 46.398438 C 299.746094 45.65625 299.398438 44.742188 298.382812 44.742188 C 297.699219 44.742188 297.09375 45.050781 296.554688 45.476562 L 296.476562 45.4375 C 296.4375 45 296.277344 44.691406 295.832031 44.691406 C 295.394531 44.691406 294.878906 45.050781 294.480469 45.367188 L 294.621094 45.554688 C 294.859375 45.417969 295.136719 45.269531 295.34375 45.269531 C 295.644531 45.269531 295.734375 45.785156 295.734375 46.230469 L 295.734375 48.425781 C 295.734375 48.992188 295.722656 51.027344 295.671875 51.605469 L 295.773438 51.714844 Z M 296.496094 48.703125 C 296.496094 48.695312 296.476562 47.671875 296.476562 46.855469 C 296.476562 46.746094 296.507812 45.992188 296.507812 45.933594 C 296.972656 45.566406 297.382812 45.355469 297.886719 45.355469 C 298.523438 45.355469 298.910156 46.121094 298.910156 46.988281 C 298.910156 47.929688 298.574219 49.074219 297.371094 49.074219 C 297.042969 49.074219 296.734375 48.921875 296.496094 48.703125 "/>
<path style=" stroke:none;fill-rule:nonzero;fill:rgb(0%,0%,0%);fill-opacity:1;" d="M 301.59375 51.445312 C 302.296875 50.632812 302.628906 50.125 302.628906 49.628906 C 302.628906 49.28125 302.277344 47.988281 301.753906 47.988281 C 301.503906 47.988281 301.164062 48.207031 301.164062 48.464844 C 301.164062 48.566406 301.195312 48.675781 301.234375 48.722656 L 301.929688 49.550781 C 302.019531 49.660156 302.058594 49.828125 302.058594 49.964844 C 302.058594 50.363281 301.753906 50.851562 301.40625 51.308594 L 301.59375 51.445312 "/>
<path style=" stroke:none;fill-rule:nonzero;fill:rgb(0%,0%,0%);fill-opacity:1;" d="M 308.964844 43.082031 C 308.964844 42.902344 308.964844 42.722656 308.765625 42.722656 C 308.566406 42.722656 308.566406 42.933594 308.566406 43.082031 L 308.566406 48.964844 L 305.804688 48.964844 C 305.65625 48.964844 305.445312 48.964844 305.445312 49.160156 C 305.445312 49.359375 305.65625 49.359375 305.804688 49.359375 L 311.734375 49.359375 C 311.902344 49.359375 312.082031 49.359375 312.082031 49.160156 C 312.082031 48.964844 311.902344 48.964844 311.734375 48.964844 L 308.964844 48.964844 L 308.964844 43.082031 "/>
<path style=" stroke:none;fill-rule:nonzero;fill:rgb(0%,0%,0%);fill-opacity:1;" d="M 324.183594 47.074219 C 323.8125 47.53125 323.289062 48.316406 323.039062 49.359375 L 323.4375 49.359375 C 323.746094 48.058594 324.578125 47.15625 324.878906 46.878906 C 324.558594 46.578125 323.746094 45.683594 323.4375 44.394531 L 323.039062 44.394531 C 323.289062 45.425781 323.804688 46.210938 324.183594 46.675781 L 316.40625 46.675781 C 316.226562 46.675781 316.054688 46.675781 316.054688 46.878906 C 316.054688 47.074219 316.234375 47.074219 316.40625 47.074219 L 324.183594 47.074219 "/>
<path style=" stroke:none;fill-rule:nonzero;fill:rgb(0%,0%,0%);fill-opacity:1;" d="M 330.175781 51.40625 C 330.117188 50.890625 330.089844 49.925781 330.078125 49.46875 L 330.175781 49.390625 C 330.367188 49.441406 330.5625 49.46875 330.761719 49.46875 C 332.304688 49.46875 333.34375 47.859375 333.34375 46.398438 C 333.34375 45.65625 332.996094 44.742188 331.984375 44.742188 C 331.300781 44.742188 330.695312 45.050781 330.15625 45.476562 L 330.078125 45.4375 C 330.039062 45 329.878906 44.691406 329.429688 44.691406 C 328.996094 44.691406 328.476562 45.050781 328.082031 45.367188 L 328.21875 45.554688 C 328.457031 45.417969 328.734375 45.269531 328.945312 45.269531 C 329.242188 45.269531 329.332031 45.785156 329.332031 46.230469 L 329.332031 48.425781 C 329.332031 48.992188 329.320312 51.027344 329.273438 51.605469 L 329.371094 51.714844 Z M 330.097656 48.703125 C 330.097656 48.695312 330.078125 47.671875 330.078125 46.855469 C 330.078125 46.746094 330.109375 45.992188 330.109375 45.933594 C 330.574219 45.566406 330.980469 45.355469 331.488281 45.355469 C 332.121094 45.355469 332.511719 46.121094 332.511719 46.988281 C 332.511719 47.929688 332.171875 49.074219 330.972656 49.074219 C 330.644531 49.074219 330.335938 48.921875 330.097656 48.703125 "/>
<path style=" stroke:none;fill-rule:nonzero;fill:rgb(0%,0%,0%);fill-opacity:1;" d="M 341.964844 46.113281 C 342.132812 46.113281 342.3125 46.113281 342.3125 45.914062 C 342.3125 45.714844 342.132812 45.714844 341.964844 45.714844 L 337.742188 45.714844 L 337.742188 42.824219 C 337.742188 42.644531 337.742188 42.464844 337.546875 42.464844 C 337.347656 42.464844 337.347656 42.675781 337.347656 42.824219 L 337.347656 49.003906 C 337.347656 49.152344 337.347656 49.359375 337.546875 49.359375 C 337.742188 49.359375 337.742188 49.183594 337.742188 49.003906 L 337.742188 46.113281 L 341.964844 46.113281 "/>
<path style=" stroke:none;fill-rule:nonzero;fill:rgb(0%,0%,0%);fill-opacity:1;" d="M 347.675781 51.40625 C 347.617188 50.890625 347.589844 49.925781 347.578125 49.46875 L 347.675781 49.390625 C 347.867188 49.441406 348.0625 49.46875 348.261719 49.46875 C 349.804688 49.46875 350.84375 47.859375 350.84375 46.398438 C 350.84375 45.65625 350.496094 44.742188 349.484375 44.742188 C 348.800781 44.742188 348.195312 45.050781 347.65625 45.476562 L 347.578125 45.4375 C 347.539062 45 347.378906 44.691406 346.929688 44.691406 C 346.496094 44.691406 345.976562 45.050781 345.582031 45.367188 L 345.71875 45.554688 C 345.957031 45.417969 346.234375 45.269531 346.445312 45.269531 C 346.742188 45.269531 346.832031 45.785156 346.832031 46.230469 L 346.832031 48.425781 C 346.832031 48.992188 346.820312 51.027344 346.773438 51.605469 L 346.871094 51.714844 Z M 347.597656 48.703125 C 347.597656 48.695312 347.578125 47.671875 347.578125 46.855469 C 347.578125 46.746094 347.609375 45.992188 347.609375 45.933594 C 348.074219 45.566406 348.480469 45.355469 348.988281 45.355469 C 349.621094 45.355469 350.011719 46.121094 350.011719 46.988281 C 350.011719 47.929688 349.671875 49.074219 348.472656 49.074219 C 348.144531 49.074219 347.835938 48.921875 347.597656 48.703125 "/>
<g clip-path="url(#clip3)" clip-rule="nonzero">
<path style="fill:none;stroke-width:3.98;stroke-linecap:butt;stroke-linejoin:miter;stroke:rgb(0%,0%,0%);stroke-opacity:1;stroke-miterlimit:10;" d="M 626.835938 238.115625 L 4987.617188 238.115625 " transform="matrix(0.1,0,0,-0.1,0,76.46)"/>
</g>
<path style=" stroke:none;fill-rule:nonzero;fill:rgb(0%,0%,0%);fill-opacity:1;" d="M 234.140625 57.898438 L 228.148438 57.898438 L 228.148438 58.292969 L 233.742188 58.292969 L 233.742188 59.914062 L 234.140625 59.914062 L 234.140625 57.898438 "/>
<path style=" stroke:none;fill-rule:nonzero;fill:rgb(0%,0%,0%);fill-opacity:1;" d="M 240.9375 57.898438 L 234.949219 57.898438 L 234.949219 58.292969 L 240.539062 58.292969 L 240.539062 59.914062 L 240.9375 59.914062 L 240.9375 57.898438 "/>
<path style=" stroke:none;fill-rule:nonzero;fill:rgb(0%,0%,0%);fill-opacity:1;" d="M 243.476562 64.007812 C 243.417969 63.488281 243.386719 62.527344 243.378906 62.070312 L 243.476562 61.988281 C 243.664062 62.039062 243.863281 62.070312 244.0625 62.070312 C 245.601562 62.070312 246.644531 60.460938 246.644531 59 C 246.644531 58.253906 246.296875 57.339844 245.285156 57.339844 C 244.601562 57.339844 243.992188 57.648438 243.457031 58.074219 L 243.378906 58.035156 C 243.339844 57.597656 243.179688 57.292969 242.730469 57.292969 C 242.296875 57.292969 241.777344 57.648438 241.382812 57.964844 L 241.519531 58.15625 C 241.757812 58.015625 242.035156 57.867188 242.246094 57.867188 C 242.542969 57.867188 242.632812 58.382812 242.632812 58.832031 L 242.632812 61.027344 C 242.632812 61.59375 242.621094 63.628906 242.574219 64.207031 L 242.671875 64.316406 Z M 243.398438 61.304688 C 243.398438 61.292969 243.378906 60.269531 243.378906 59.457031 C 243.378906 59.347656 243.40625 58.59375 243.40625 58.535156 C 243.871094 58.164062 244.28125 57.957031 244.789062 57.957031 C 245.421875 57.957031 245.8125 58.722656 245.8125 59.585938 C 245.8125 60.53125 245.472656 61.671875 244.273438 61.671875 C 243.945312 61.671875 243.636719 61.523438 243.398438 61.304688 "/>
<path style=" stroke:none;fill-rule:nonzero;fill:rgb(0%,0%,0%);fill-opacity:1;" d="M 248.492188 64.046875 C 249.199219 63.230469 249.527344 62.726562 249.527344 62.230469 C 249.527344 61.878906 249.179688 60.589844 248.652344 60.589844 C 248.402344 60.589844 248.066406 60.808594 248.066406 61.066406 C 248.066406 61.164062 248.09375 61.273438 248.132812 61.324219 L 248.828125 62.148438 C 248.921875 62.257812 248.960938 62.425781 248.960938 62.566406 C 248.960938 62.964844 248.652344 63.449219 248.304688 63.90625 L 248.492188 64.046875 "/>
<path style=" stroke:none;fill-rule:nonzero;fill:rgb(0%,0%,0%);fill-opacity:1;" d="M 253.777344 64.007812 C 253.71875 63.488281 253.6875 62.527344 253.679688 62.070312 L 253.777344 61.988281 C 253.964844 62.039062 254.164062 62.070312 254.363281 62.070312 C 255.902344 62.070312 256.945312 60.460938 256.945312 59 C 256.945312 58.253906 256.597656 57.339844 255.585938 57.339844 C 254.898438 57.339844 254.292969 57.648438 253.757812 58.074219 L 253.679688 58.035156 C 253.636719 57.597656 253.476562 57.292969 253.03125 57.292969 C 252.59375 57.292969 252.078125 57.648438 251.679688 57.964844 L 251.820312 58.15625 C 252.058594 58.015625 252.335938 57.867188 252.546875 57.867188 C 252.84375 57.867188 252.933594 58.382812 252.933594 58.832031 L 252.933594 61.027344 C 252.933594 61.59375 252.921875 63.628906 252.871094 64.207031 L 252.972656 64.316406 Z M 253.695312 61.304688 C 253.695312 61.292969 253.679688 60.269531 253.679688 59.457031 C 253.679688 59.347656 253.707031 58.59375 253.707031 58.535156 C 254.171875 58.164062 254.582031 57.957031 255.089844 57.957031 C 255.722656 57.957031 256.109375 58.722656 256.109375 59.585938 C 256.109375 60.53125 255.773438 61.671875 254.570312 61.671875 C 254.242188 61.671875 253.9375 61.523438 253.695312 61.304688 "/>
<path style=" stroke:none;fill-rule:nonzero;fill:rgb(0%,0%,0%);fill-opacity:1;" d="M 267.410156 55.164062 L 267.371094 55.125 L 266.984375 55.125 L 263.625 61.375 L 260.378906 55.164062 L 259.960938 55.234375 L 263.546875 62.078125 L 263.695312 62.078125 L 267.410156 55.164062 "/>
<path style=" stroke:none;fill-rule:nonzero;fill:rgb(0%,0%,0%);fill-opacity:1;" d="M 276.039062 57.898438 L 270.046875 57.898438 L 270.046875 58.292969 L 275.640625 58.292969 L 275.640625 59.914062 L 276.039062 59.914062 L 276.039062 57.898438 "/>
<path style=" stroke:none;fill-rule:nonzero;fill:rgb(0%,0%,0%);fill-opacity:1;" d="M 278.675781 64.007812 C 278.617188 63.488281 278.589844 62.527344 278.578125 62.070312 L 278.675781 61.988281 C 278.867188 62.039062 279.0625 62.070312 279.261719 62.070312 C 280.804688 62.070312 281.84375 60.460938 281.84375 59 C 281.84375 58.253906 281.496094 57.339844 280.484375 57.339844 C 279.800781 57.339844 279.195312 57.648438 278.65625 58.074219 L 278.578125 58.035156 C 278.539062 57.597656 278.378906 57.292969 277.929688 57.292969 C 277.496094 57.292969 276.976562 57.648438 276.582031 57.964844 L 276.71875 58.15625 C 276.957031 58.015625 277.234375 57.867188 277.445312 57.867188 C 277.742188 57.867188 277.832031 58.382812 277.832031 58.832031 L 277.832031 61.027344 C 277.832031 61.59375 277.820312 63.628906 277.773438 64.207031 L 277.871094 64.316406 Z M 278.597656 61.304688 C 278.597656 61.292969 278.578125 60.269531 278.578125 59.457031 C 278.578125 59.347656 278.609375 58.59375 278.609375 58.535156 C 279.074219 58.164062 279.480469 57.957031 279.988281 57.957031 C 280.621094 57.957031 281.011719 58.722656 281.011719 59.585938 C 281.011719 60.53125 280.671875 61.671875 279.472656 61.671875 C 279.144531 61.671875 278.835938 61.523438 278.597656 61.304688 "/>
<path style=" stroke:none;fill-rule:nonzero;fill:rgb(0%,0%,0%);fill-opacity:1;" d="M 283.59375 64.046875 C 284.296875 63.230469 284.628906 62.726562 284.628906 62.230469 C 284.628906 61.878906 284.277344 60.589844 283.753906 60.589844 C 283.503906 60.589844 283.164062 60.808594 283.164062 61.066406 C 283.164062 61.164062 283.195312 61.273438 283.234375 61.324219 L 283.929688 62.148438 C 284.019531 62.257812 284.058594 62.425781 284.058594 62.566406 C 284.058594 62.964844 283.753906 63.449219 283.40625 63.90625 L 283.59375 64.046875 "/>
<path style=" stroke:none;fill-rule:nonzero;fill:rgb(0%,0%,0%);fill-opacity:1;" d="M 291.0625 55.683594 C 291.0625 55.503906 291.0625 55.324219 290.863281 55.324219 C 290.664062 55.324219 290.664062 55.535156 290.664062 55.683594 L 290.664062 61.5625 L 287.90625 61.5625 C 287.753906 61.5625 287.546875 61.5625 287.546875 61.761719 C 287.546875 61.960938 287.753906 61.960938 287.90625 61.960938 L 293.835938 61.960938 C 294.003906 61.960938 294.183594 61.960938 294.183594 61.761719 C 294.183594 61.5625 294.003906 61.5625 293.835938 61.5625 L 291.0625 61.5625 L 291.0625 55.683594 "/>
<path style=" stroke:none;fill-rule:nonzero;fill:rgb(0%,0%,0%);fill-opacity:1;" d="M 306.183594 59.675781 C 305.8125 60.132812 305.289062 60.917969 305.039062 61.960938 L 305.4375 61.960938 C 305.746094 60.660156 306.578125 59.753906 306.878906 59.476562 C 306.558594 59.179688 305.746094 58.285156 305.4375 56.992188 L 305.039062 56.992188 C 305.289062 58.027344 305.804688 58.8125 306.183594 59.277344 L 298.40625 59.277344 C 298.226562 59.277344 298.054688 59.277344 298.054688 59.476562 C 298.054688 59.675781 298.234375 59.675781 298.40625 59.675781 L 306.183594 59.675781 "/>
<path style=" stroke:none;fill-rule:nonzero;fill:rgb(0%,0%,0%);fill-opacity:1;" d="M 312.175781 64.007812 C 312.117188 63.488281 312.089844 62.527344 312.078125 62.070312 L 312.175781 61.988281 C 312.367188 62.039062 312.5625 62.070312 312.761719 62.070312 C 314.304688 62.070312 315.34375 60.460938 315.34375 59 C 315.34375 58.253906 314.996094 57.339844 313.984375 57.339844 C 313.300781 57.339844 312.695312 57.648438 312.15625 58.074219 L 312.078125 58.035156 C 312.039062 57.597656 311.878906 57.292969 311.429688 57.292969 C 310.996094 57.292969 310.476562 57.648438 310.082031 57.964844 L 310.21875 58.15625 C 310.457031 58.015625 310.734375 57.867188 310.945312 57.867188 C 311.242188 57.867188 311.332031 58.382812 311.332031 58.832031 L 311.332031 61.027344 C 311.332031 61.59375 311.320312 63.628906 311.273438 64.207031 L 311.371094 64.316406 Z M 312.097656 61.304688 C 312.097656 61.292969 312.078125 60.269531 312.078125 59.457031 C 312.078125 59.347656 312.109375 58.59375 312.109375 58.535156 C 312.574219 58.164062 312.980469 57.957031 313.488281 57.957031 C 314.121094 57.957031 314.511719 58.722656 314.511719 59.585938 C 314.511719 60.53125 314.171875 61.671875 312.972656 61.671875 C 312.644531 61.671875 312.335938 61.523438 312.097656 61.304688 "/>
<path style=" stroke:none;fill-rule:nonzero;fill:rgb(0%,0%,0%);fill-opacity:1;" d="M 323.964844 58.710938 C 324.132812 58.710938 324.3125 58.710938 324.3125 58.511719 C 324.3125 58.316406 324.132812 58.316406 323.964844 58.316406 L 319.742188 58.316406 L 319.742188 55.425781 C 319.742188 55.246094 319.742188 55.066406 319.546875 55.066406 C 319.347656 55.066406 319.347656 55.273438 319.347656 55.425781 L 319.347656 61.601562 C 319.347656 61.75 319.347656 61.960938 319.546875 61.960938 C 319.742188 61.960938 319.742188 61.78125 319.742188 61.601562 L 319.742188 58.710938 L 323.964844 58.710938 "/>
<path style=" stroke:none;fill-rule:nonzero;fill:rgb(0%,0%,0%);fill-opacity:1;" d="M 329.675781 64.007812 C 329.617188 63.488281 329.589844 62.527344 329.578125 62.070312 L 329.675781 61.988281 C 329.867188 62.039062 330.0625 62.070312 330.261719 62.070312 C 331.804688 62.070312 332.84375 60.460938 332.84375 59 C 332.84375 58.253906 332.496094 57.339844 331.484375 57.339844 C 330.800781 57.339844 330.195312 57.648438 329.65625 58.074219 L 329.578125 58.035156 C 329.539062 57.597656 329.378906 57.292969 328.929688 57.292969 C 328.496094 57.292969 327.976562 57.648438 327.582031 57.964844 L 327.71875 58.15625 C 327.957031 58.015625 328.234375 57.867188 328.445312 57.867188 C 328.742188 57.867188 328.832031 58.382812 328.832031 58.832031 L 328.832031 61.027344 C 328.832031 61.59375 328.820312 63.628906 328.773438 64.207031 L 328.871094 64.316406 Z M 329.597656 61.304688 C 329.597656 61.292969 329.578125 60.269531 329.578125 59.457031 C 329.578125 59.347656 329.609375 58.59375 329.609375 58.535156 C 330.074219 58.164062 330.480469 57.957031 330.988281 57.957031 C 331.621094 57.957031 332.011719 58.722656 332.011719 59.585938 C 332.011719 60.53125 331.671875 61.671875 330.472656 61.671875 C 330.144531 61.671875 329.835938 61.523438 329.597656 61.304688 "/>
<g clip-path="url(#clip4)" clip-rule="nonzero">
<path style="fill:none;stroke-width:3.98;stroke-linecap:butt;stroke-linejoin:miter;stroke:rgb(0%,0%,0%);stroke-opacity:1;stroke-miterlimit:10;" d="M 344.53125 112.060938 L 4987.617188 112.060938 " transform="matrix(0.1,0,0,-0.1,0,76.46)"/>
</g>
<g clip-path="url(#clip5)" clip-rule="nonzero">
<path style=" stroke:none;fill-rule:nonzero;fill:rgb(0%,0%,0%);fill-opacity:1;" d="M 210.175781 76.605469 C 210.117188 76.089844 210.089844 75.125 210.078125 74.667969 L 210.175781 74.589844 C 210.367188 74.640625 210.5625 74.667969 210.761719 74.667969 C 212.304688 74.667969 213.34375 73.058594 213.34375 71.597656 C 213.34375 70.855469 212.996094 69.941406 211.984375 69.941406 C 211.300781 69.941406 210.695312 70.25 210.15625 70.675781 L 210.078125 70.636719 C 210.039062 70.199219 209.878906 69.890625 209.429688 69.890625 C 208.996094 69.890625 208.476562 70.25 208.082031 70.566406 L 208.21875 70.753906 C 208.457031 70.617188 208.734375 70.46875 208.945312 70.46875 C 209.242188 70.46875 209.332031 70.984375 209.332031 71.429688 L 209.332031 73.625 C 209.332031 74.191406 209.320312 76.230469 209.273438 76.804688 L 209.371094 76.914062 Z M 210.097656 73.902344 C 210.097656 73.894531 210.078125 72.871094 210.078125 72.058594 C 210.078125 71.949219 210.109375 71.191406 210.109375 71.132812 C 210.574219 70.765625 210.980469 70.558594 211.488281 70.558594 C 212.121094 70.558594 212.511719 71.320312 212.511719 72.1875 C 212.511719 73.128906 212.171875 74.273438 210.972656 74.273438 C 210.644531 74.273438 210.335938 74.121094 210.097656 73.902344 "/>
</g>
<path style=" stroke:none;fill-rule:nonzero;fill:rgb(0%,0%,0%);fill-opacity:1;" d="M 223.808594 67.765625 L 223.769531 67.726562 L 223.382812 67.726562 L 220.023438 73.972656 L 216.777344 67.765625 L 216.359375 67.835938 L 219.945312 74.679688 L 220.09375 74.679688 L 223.808594 67.765625 "/>
<path style=" stroke:none;fill-rule:nonzero;fill:rgb(0%,0%,0%);fill-opacity:1;" d="M 232.4375 70.496094 L 226.449219 70.496094 L 226.449219 70.894531 L 232.039062 70.894531 L 232.039062 72.511719 L 232.4375 72.511719 L 232.4375 70.496094 "/>
<g clip-path="url(#clip6)" clip-rule="nonzero">
<path style=" stroke:none;fill-rule:nonzero;fill:rgb(0%,0%,0%);fill-opacity:1;" d="M 235.078125 76.605469 C 235.015625 76.089844 234.988281 75.125 234.976562 74.667969 L 235.078125 74.589844 C 235.265625 74.640625 235.464844 74.667969 235.664062 74.667969 C 237.203125 74.667969 238.246094 73.058594 238.246094 71.597656 C 238.246094 70.855469 237.898438 69.941406 236.882812 69.941406 C 236.199219 69.941406 235.59375 70.25 235.054688 70.675781 L 234.976562 70.636719 C 234.9375 70.199219 234.777344 69.890625 234.332031 69.890625 C 233.894531 69.890625 233.378906 70.25 232.980469 70.566406 L 233.121094 70.753906 C 233.359375 70.617188 233.636719 70.46875 233.84375 70.46875 C 234.144531 70.46875 234.234375 70.984375 234.234375 71.429688 L 234.234375 73.625 C 234.234375 74.191406 234.222656 76.230469 234.171875 76.804688 L 234.273438 76.914062 Z M 234.996094 73.902344 C 234.996094 73.894531 234.976562 72.871094 234.976562 72.058594 C 234.976562 71.949219 235.007812 71.191406 235.007812 71.132812 C 235.472656 70.765625 235.882812 70.558594 236.386719 70.558594 C 237.023438 70.558594 237.410156 71.320312 237.410156 72.1875 C 237.410156 73.128906 237.074219 74.273438 235.871094 74.273438 C 235.542969 74.273438 235.234375 74.121094 234.996094 73.902344 "/>
</g>
<g clip-path="url(#clip7)" clip-rule="nonzero">
<path style=" stroke:none;fill-rule:nonzero;fill:rgb(0%,0%,0%);fill-opacity:1;" d="M 239.992188 76.644531 C 240.699219 75.832031 241.027344 75.324219 241.027344 74.828125 C 241.027344 74.480469 240.679688 73.191406 240.152344 73.191406 C 239.902344 73.191406 239.566406 73.410156 239.566406 73.667969 C 239.566406 73.765625 239.59375 73.875 239.632812 73.925781 L 240.328125 74.75 C 240.421875 74.859375 240.460938 75.027344 240.460938 75.167969 C 240.460938 75.5625 240.152344 76.050781 239.804688 76.507812 L 239.992188 76.644531 "/>
</g>
<path style=" stroke:none;fill-rule:nonzero;fill:rgb(0%,0%,0%);fill-opacity:1;" d="M 247.464844 68.28125 C 247.464844 68.105469 247.464844 67.925781 247.265625 67.925781 C 247.066406 67.925781 247.066406 68.132812 247.066406 68.28125 L 247.066406 74.164062 L 244.304688 74.164062 C 244.15625 74.164062 243.945312 74.164062 243.945312 74.363281 C 243.945312 74.558594 244.15625 74.558594 244.304688 74.558594 L 250.234375 74.558594 C 250.402344 74.558594 250.582031 74.558594 250.582031 74.363281 C 250.582031 74.164062 250.402344 74.164062 250.234375 74.164062 L 247.464844 74.164062 L 247.464844 68.28125 "/>
<path style=" stroke:none;fill-rule:nonzero;fill:rgb(0%,0%,0%);fill-opacity:1;" d="M 262.582031 72.277344 C 262.214844 72.730469 261.6875 73.515625 261.4375 74.558594 L 261.839844 74.558594 C 262.144531 73.257812 262.980469 72.355469 263.277344 72.078125 C 262.960938 71.777344 262.144531 70.886719 261.839844 69.59375 L 261.4375 69.59375 C 261.6875 70.625 262.203125 71.410156 262.582031 71.878906 L 254.804688 71.878906 C 254.625 71.878906 254.457031 71.878906 254.457031 72.078125 C 254.457031 72.277344 254.632812 72.277344 254.804688 72.277344 L 262.582031 72.277344 "/>
<g clip-path="url(#clip8)" clip-rule="nonzero">
<path style=" stroke:none;fill-rule:nonzero;fill:rgb(0%,0%,0%);fill-opacity:1;" d="M 268.578125 76.605469 C 268.515625 76.089844 268.488281 75.125 268.476562 74.667969 L 268.578125 74.589844 C 268.765625 74.640625 268.964844 74.667969 269.164062 74.667969 C 270.703125 74.667969 271.746094 73.058594 271.746094 71.597656 C 271.746094 70.855469 271.398438 69.941406 270.382812 69.941406 C 269.699219 69.941406 269.09375 70.25 268.554688 70.675781 L 268.476562 70.636719 C 268.4375 70.199219 268.277344 69.890625 267.832031 69.890625 C 267.394531 69.890625 266.878906 70.25 266.480469 70.566406 L 266.621094 70.753906 C 266.859375 70.617188 267.136719 70.46875 267.34375 70.46875 C 267.644531 70.46875 267.734375 70.984375 267.734375 71.429688 L 267.734375 73.625 C 267.734375 74.191406 267.722656 76.230469 267.671875 76.804688 L 267.773438 76.914062 Z M 268.496094 73.902344 C 268.496094 73.894531 268.476562 72.871094 268.476562 72.058594 C 268.476562 71.949219 268.507812 71.191406 268.507812 71.132812 C 268.972656 70.765625 269.382812 70.558594 269.886719 70.558594 C 270.523438 70.558594 270.910156 71.320312 270.910156 72.1875 C 270.910156 73.128906 270.574219 74.273438 269.371094 74.273438 C 269.042969 74.273438 268.734375 74.121094 268.496094 73.902344 "/>
</g>
<path style=" stroke:none;fill-rule:nonzero;fill:rgb(0%,0%,0%);fill-opacity:1;" d="M 280.464844 71.3125 C 280.632812 71.3125 280.8125 71.3125 280.8125 71.113281 C 280.8125 70.914062 280.632812 70.914062 280.464844 70.914062 L 276.242188 70.914062 L 276.242188 68.023438 C 276.242188 67.84375 276.242188 67.667969 276.046875 67.667969 C 275.847656 67.667969 275.847656 67.875 275.847656 68.023438 L 275.847656 74.203125 C 275.847656 74.351562 275.847656 74.558594 276.046875 74.558594 C 276.242188 74.558594 276.242188 74.382812 276.242188 74.203125 L 276.242188 71.3125 L 280.464844 71.3125 "/>
<path style=" stroke:none;fill-rule:nonzero;fill:rgb(0%,0%,0%);fill-opacity:1;" d="M 290.339844 70.496094 L 284.347656 70.496094 L 284.347656 70.894531 L 289.941406 70.894531 L 289.941406 72.511719 L 290.339844 72.511719 L 290.339844 70.496094 "/>
<path style=" stroke:none;fill-rule:nonzero;fill:rgb(0%,0%,0%);fill-opacity:1;" d="M 297.140625 70.496094 L 291.148438 70.496094 L 291.148438 70.894531 L 296.742188 70.894531 L 296.742188 72.511719 L 297.140625 72.511719 L 297.140625 70.496094 "/>
<g clip-path="url(#clip9)" clip-rule="nonzero">
<path style=" stroke:none;fill-rule:nonzero;fill:rgb(0%,0%,0%);fill-opacity:1;" d="M 299.675781 76.605469 C 299.617188 76.089844 299.589844 75.125 299.578125 74.667969 L 299.675781 74.589844 C 299.867188 74.640625 300.0625 74.667969 300.261719 74.667969 C 301.804688 74.667969 302.84375 73.058594 302.84375 71.597656 C 302.84375 70.855469 302.496094 69.941406 301.484375 69.941406 C 300.800781 69.941406 300.195312 70.25 299.65625 70.675781 L 299.578125 70.636719 C 299.539062 70.199219 299.378906 69.890625 298.929688 69.890625 C 298.496094 69.890625 297.976562 70.25 297.582031 70.566406 L 297.71875 70.753906 C 297.957031 70.617188 298.234375 70.46875 298.445312 70.46875 C 298.742188 70.46875 298.832031 70.984375 298.832031 71.429688 L 298.832031 73.625 C 298.832031 74.191406 298.820312 76.230469 298.773438 76.804688 L 298.871094 76.914062 Z M 299.597656 73.902344 C 299.597656 73.894531 299.578125 72.871094 299.578125 72.058594 C 299.578125 71.949219 299.609375 71.191406 299.609375 71.132812 C 300.074219 70.765625 300.480469 70.558594 300.988281 70.558594 C 301.621094 70.558594 302.011719 71.320312 302.011719 72.1875 C 302.011719 73.128906 301.671875 74.273438 300.472656 74.273438 C 300.144531 74.273438 299.835938 74.121094 299.597656 73.902344 "/>
</g>
<path style=" stroke:none;fill-rule:nonzero;fill:rgb(0%,0%,0%);fill-opacity:1;" d="M 315.082031 72.277344 C 314.714844 72.730469 314.1875 73.515625 313.9375 74.558594 L 314.339844 74.558594 C 314.644531 73.257812 315.480469 72.355469 315.777344 72.078125 C 315.460938 71.777344 314.644531 70.886719 314.339844 69.59375 L 313.9375 69.59375 C 314.1875 70.625 314.703125 71.410156 315.082031 71.878906 L 307.304688 71.878906 C 307.125 71.878906 306.957031 71.878906 306.957031 72.078125 C 306.957031 72.277344 307.132812 72.277344 307.304688 72.277344 L 315.082031 72.277344 "/>
<g clip-path="url(#clip10)" clip-rule="nonzero">
<path style=" stroke:none;fill-rule:nonzero;fill:rgb(0%,0%,0%);fill-opacity:1;" d="M 321.078125 76.605469 C 321.015625 76.089844 320.988281 75.125 320.976562 74.667969 L 321.078125 74.589844 C 321.265625 74.640625 321.464844 74.667969 321.664062 74.667969 C 323.203125 74.667969 324.246094 73.058594 324.246094 71.597656 C 324.246094 70.855469 323.898438 69.941406 322.882812 69.941406 C 322.199219 69.941406 321.59375 70.25 321.054688 70.675781 L 320.976562 70.636719 C 320.9375 70.199219 320.777344 69.890625 320.332031 69.890625 C 319.894531 69.890625 319.378906 70.25 318.980469 70.566406 L 319.121094 70.753906 C 319.359375 70.617188 319.636719 70.46875 319.84375 70.46875 C 320.144531 70.46875 320.234375 70.984375 320.234375 71.429688 L 320.234375 73.625 C 320.234375 74.191406 320.222656 76.230469 320.171875 76.804688 L 320.273438 76.914062 Z M 320.996094 73.902344 C 320.996094 73.894531 320.976562 72.871094 320.976562 72.058594 C 320.976562 71.949219 321.007812 71.191406 321.007812 71.132812 C 321.472656 70.765625 321.882812 70.558594 322.386719 70.558594 C 323.023438 70.558594 323.410156 71.320312 323.410156 72.1875 C 323.410156 73.128906 323.074219 74.273438 321.871094 74.273438 C 321.542969 74.273438 321.234375 74.121094 320.996094 73.902344 "/>
</g>
</g>
</svg>
