<?xml version="1.0" encoding="UTF-8"?>
<svg xmlns="http://www.w3.org/2000/svg" xmlns:xlink="http://www.w3.org/1999/xlink" width="166.15pt" height="71.73pt" viewBox="0 0 166.15 71.73" version="1.1">
<g id="surface1">
<path style=" stroke:none;fill-rule:nonzero;fill:rgb(0%,0%,0%);fill-opacity:1;" d="M 20.691406 3.742188 C 20.671875 3.71875 20.652344 3.71875 20.632812 3.71875 C 20.601562 3.71875 20.582031 3.71875 20.574219 3.742188 C 20.136719 4.246094 19.550781 4.941406 19.191406 5.417969 L 19.132812 5.410156 C 18.84375 4.851562 18.4375 4.136719 18.226562 3.910156 C 18.089844 3.761719 17.859375 3.71875 17.691406 3.71875 C 17.363281 3.71875 16.867188 4.085938 16.519531 4.355469 L 16.660156 4.535156 C 16.835938 4.414062 17.085938 4.285156 17.296875 4.285156 C 17.78125 4.285156 18.257812 5.351562 18.636719 6.113281 C 18.148438 6.75 17.652344 7.4375 17.226562 8.121094 L 17.226562 8.199219 L 17.503906 8.449219 L 17.664062 8.410156 C 17.960938 7.644531 18.359375 7.027344 18.746094 6.433594 L 18.8125 6.433594 C 19.46875 7.714844 19.808594 8.449219 20.3125 8.449219 C 20.730469 8.449219 21.238281 7.890625 21.585938 7.515625 L 21.507812 7.328125 L 21.425781 7.328125 C 21.226562 7.496094 20.960938 7.703125 20.722656 7.703125 C 20.285156 7.703125 19.699219 6.652344 19.289062 5.757812 C 19.808594 5.152344 20.445312 4.503906 21 4.117188 C 21.019531 4.109375 21.03125 4.097656 21.03125 4.070312 C 21.03125 4.058594 21.007812 4.039062 21 4.027344 L 20.691406 3.742188 "/>
<path style=" stroke:none;fill-rule:nonzero;fill:rgb(0%,0%,0%);fill-opacity:1;" d="M 29.945312 6.046875 C 30.113281 6.046875 30.289062 6.046875 30.289062 5.847656 C 30.289062 5.648438 30.113281 5.648438 29.945312 5.648438 L 25.730469 5.648438 C 25.851562 4.316406 26.992188 3.363281 28.394531 3.363281 L 29.945312 3.363281 C 30.113281 3.363281 30.289062 3.363281 30.289062 3.164062 C 30.289062 2.964844 30.113281 2.964844 29.945312 2.964844 L 28.375 2.964844 C 26.675781 2.964844 25.324219 4.257812 25.324219 5.847656 C 25.324219 7.4375 26.675781 8.726562 28.375 8.726562 L 29.945312 8.726562 C 30.113281 8.726562 30.289062 8.726562 30.289062 8.527344 C 30.289062 8.328125 30.113281 8.328125 29.945312 8.328125 L 28.394531 8.328125 C 26.992188 8.328125 25.851562 7.375 25.730469 6.046875 L 29.945312 6.046875 "/>
<path style=" stroke:none;fill-rule:nonzero;fill:rgb(0%,0%,0%);fill-opacity:1;" d="M 40.226562 1.574219 C 39.980469 2 39.730469 2.4375 39.542969 2.886719 L 38.359375 5.609375 C 37.953125 6.492188 37.726562 7.007812 37.65625 7.027344 C 37.632812 7.019531 37.59375 7 37.574219 6.960938 C 36.871094 5.152344 36.324219 3.292969 35.9375 1.394531 L 34.199219 1.496094 L 34.128906 1.554688 L 34.140625 1.824219 C 34.695312 1.902344 34.921875 1.953125 35.082031 2.28125 C 35.28125 2.71875 35.410156 3.171875 35.558594 3.632812 L 36.980469 8.417969 L 37.078125 8.488281 L 37.753906 8.230469 C 38.320312 6.589844 39.046875 5 39.761719 3.679688 C 39.878906 3.472656 40.496094 2.378906 41.140625 1.59375 L 41.082031 1.40625 L 40.226562 1.574219 "/>
<path style=" stroke:none;fill-rule:nonzero;fill:rgb(0%,0%,0%);fill-opacity:1;" d="M 58.3125 5.0625 L 58.371094 4.664062 L 51.804688 4.664062 L 51.734375 5.0625 Z M 58.3125 7.019531 L 58.371094 6.621094 L 51.804688 6.621094 L 51.734375 7.019531 L 58.3125 7.019531 "/>
<path style=" stroke:none;fill-rule:nonzero;fill:rgb(0%,0%,0%);fill-opacity:1;" d="M 64.660156 5.082031 C 64.808594 5.21875 65.117188 5.519531 65.621094 5.847656 C 65.375 6.003906 65.054688 6.234375 64.660156 6.609375 L 57.914062 6.609375 C 57.746094 6.609375 57.554688 6.609375 57.554688 6.808594 C 57.554688 7.007812 57.734375 7.007812 57.90625 7.007812 L 64.261719 7.007812 C 63.863281 7.4375 63.25 8.257812 62.882812 9.292969 L 63.277344 9.292969 C 63.824219 7.792969 64.925781 6.570312 66.378906 5.847656 C 64.976562 5.152344 63.84375 3.949219 63.277344 2.398438 L 62.882812 2.398438 C 63.257812 3.441406 63.875 4.257812 64.261719 4.683594 L 57.90625 4.683594 C 57.734375 4.683594 57.554688 4.683594 57.554688 4.882812 C 57.554688 5.082031 57.746094 5.082031 57.914062 5.082031 L 64.660156 5.082031 "/>
<path style=" stroke:none;fill-rule:nonzero;fill:rgb(0%,0%,0%);fill-opacity:1;" d="M 103.292969 3.742188 C 103.273438 3.71875 103.253906 3.71875 103.234375 3.71875 C 103.203125 3.71875 103.183594 3.71875 103.171875 3.742188 C 102.734375 4.246094 102.148438 4.941406 101.792969 5.417969 L 101.734375 5.410156 C 101.445312 4.851562 101.039062 4.136719 100.828125 3.910156 C 100.6875 3.761719 100.460938 3.71875 100.292969 3.71875 C 99.964844 3.71875 99.46875 4.085938 99.121094 4.355469 L 99.257812 4.535156 C 99.4375 4.414062 99.6875 4.285156 99.894531 4.285156 C 100.382812 4.285156 100.859375 5.351562 101.234375 6.113281 C 100.746094 6.75 100.253906 7.4375 99.824219 8.121094 L 99.824219 8.199219 L 100.101562 8.449219 L 100.261719 8.410156 C 100.5625 7.644531 100.957031 7.027344 101.34375 6.433594 L 101.414062 6.433594 C 102.070312 7.714844 102.40625 8.449219 102.914062 8.449219 C 103.332031 8.449219 103.839844 7.890625 104.1875 7.515625 L 104.105469 7.328125 L 104.027344 7.328125 C 103.828125 7.496094 103.5625 7.703125 103.320312 7.703125 C 102.882812 7.703125 102.296875 6.652344 101.890625 5.757812 C 102.40625 5.152344 103.042969 4.503906 103.601562 4.117188 C 103.621094 4.109375 103.628906 4.097656 103.628906 4.070312 C 103.628906 4.058594 103.609375 4.039062 103.601562 4.027344 L 103.292969 3.742188 "/>
<path style=" stroke:none;fill-rule:nonzero;fill:rgb(0%,0%,0%);fill-opacity:1;" d="M 120.34375 6.046875 C 120.511719 6.046875 120.691406 6.046875 120.691406 5.847656 C 120.691406 5.648438 120.511719 5.648438 120.34375 5.648438 L 116.132812 5.648438 C 116.253906 4.316406 117.394531 3.363281 118.792969 3.363281 L 120.34375 3.363281 C 120.511719 3.363281 120.691406 3.363281 120.691406 3.164062 C 120.691406 2.964844 120.511719 2.964844 120.34375 2.964844 L 118.773438 2.964844 C 117.074219 2.964844 115.726562 4.257812 115.726562 5.847656 C 115.726562 7.4375 117.074219 8.726562 118.773438 8.726562 L 120.34375 8.726562 C 120.511719 8.726562 120.691406 8.726562 120.691406 8.527344 C 120.691406 8.328125 120.511719 8.328125 120.34375 8.328125 L 118.792969 8.328125 C 117.394531 8.328125 116.253906 7.375 116.132812 6.046875 L 120.34375 6.046875 "/>
<path style=" stroke:none;fill-rule:nonzero;fill:rgb(0%,0%,0%);fill-opacity:1;" d="M 134.085938 2.945312 C 134.085938 2.777344 134.136719 1.773438 134.164062 1.632812 L 134.09375 1.574219 L 132.417969 1.574219 L 132.339844 1.644531 L 132.359375 1.84375 C 132.496094 1.84375 133.230469 1.960938 133.230469 2.359375 C 133.230469 2.558594 133.230469 2.746094 133.230469 2.945312 C 133.230469 3.71875 133.214844 4.503906 133.214844 5.269531 C 133.214844 5.875 133.222656 6.609375 133.289062 7.070312 C 133.410156 7.65625 133.738281 8.417969 135.117188 8.417969 C 135.945312 8.417969 136.738281 8.082031 137.433594 7.632812 L 137.511719 7.695312 C 137.511719 7.992188 137.453125 8.378906 137.839844 8.378906 C 138.148438 8.378906 138.855469 8.171875 139.359375 8.011719 L 139.410156 7.941406 L 139.371094 7.773438 C 139.171875 7.792969 138.992188 7.851562 138.796875 7.851562 C 138.316406 7.851562 138.316406 7.136719 138.316406 6.324219 C 138.316406 4.714844 138.328125 2.636719 138.476562 1.503906 L 138.417969 1.4375 L 137.542969 1.78125 C 137.523438 3.589844 137.503906 5.410156 137.503906 7.226562 C 136.96875 7.546875 136.371094 7.8125 135.753906 7.8125 C 134.789062 7.8125 134.007812 7.328125 134.007812 5.65625 L 134.085938 2.945312 "/>
<path style=" stroke:none;fill-rule:nonzero;fill:rgb(0%,0%,0%);fill-opacity:1;" d="M 6.976562 22.375 C 6.917969 21.859375 6.886719 20.894531 6.878906 20.4375 L 6.976562 20.359375 C 7.164062 20.410156 7.363281 20.4375 7.5625 20.4375 C 9.101562 20.4375 10.144531 18.828125 10.144531 17.367188 C 10.144531 16.625 9.796875 15.710938 8.785156 15.710938 C 8.101562 15.710938 7.492188 16.019531 6.957031 16.445312 L 6.878906 16.40625 C 6.835938 15.96875 6.679688 15.660156 6.230469 15.660156 C 5.796875 15.660156 5.277344 16.019531 4.882812 16.335938 L 5.019531 16.523438 C 5.257812 16.386719 5.535156 16.238281 5.746094 16.238281 C 6.042969 16.238281 6.132812 16.753906 6.132812 17.199219 L 6.132812 19.394531 C 6.132812 19.960938 6.121094 22 6.074219 22.574219 L 6.171875 22.683594 Z M 6.898438 19.671875 C 6.898438 19.664062 6.878906 18.640625 6.878906 17.828125 C 6.878906 17.71875 6.90625 16.960938 6.90625 16.902344 C 7.375 16.535156 7.78125 16.328125 8.289062 16.328125 C 8.921875 16.328125 9.3125 17.089844 9.3125 17.957031 C 9.3125 18.898438 8.972656 20.042969 7.773438 20.042969 C 7.445312 20.042969 7.136719 19.890625 6.898438 19.671875 "/>
<path style=" stroke:none;fill-rule:nonzero;fill:rgb(0%,0%,0%);fill-opacity:1;" d="M 11.992188 22.414062 C 12.699219 21.601562 13.027344 21.09375 13.027344 20.597656 C 13.027344 20.25 12.679688 18.960938 12.152344 18.960938 C 11.902344 18.960938 11.566406 19.179688 11.566406 19.4375 C 11.566406 19.535156 11.59375 19.644531 11.632812 19.695312 L 12.328125 20.519531 C 12.421875 20.628906 12.460938 20.796875 12.460938 20.9375 C 12.460938 21.332031 12.152344 21.820312 11.804688 22.277344 L 11.992188 22.414062 "/>
<path style=" stroke:none;fill-rule:nonzero;fill:rgb(0%,0%,0%);fill-opacity:1;" d="M 19.460938 22.742188 L 20.265625 22.457031 C 20.1875 21.570312 20.148438 20.417969 20.148438 19.207031 C 20.148438 17.894531 20.1875 16.515625 20.289062 15.363281 L 20.078125 15.324219 L 19.640625 15.910156 L 19.550781 15.929688 C 19.273438 15.789062 18.875 15.652344 18.570312 15.652344 C 16.890625 15.652344 16.183594 17.101562 16.183594 18.480469 C 16.183594 19.316406 16.5625 20.398438 17.605469 20.398438 C 18.230469 20.398438 18.804688 20.121094 19.3125 19.742188 L 19.382812 19.792969 C 19.351562 20.746094 19.332031 22.179688 19.304688 22.585938 Z M 19.382812 19.285156 C 19.054688 19.574219 18.617188 19.78125 18.230469 19.78125 C 17.414062 19.78125 17.097656 19.039062 17.097656 18.214844 C 17.097656 17.101562 17.4375 16.019531 18.558594 16.019531 C 18.816406 16.019531 19.046875 16.15625 19.222656 16.335938 C 19.382812 16.496094 19.382812 16.792969 19.382812 17.042969 L 19.382812 19.285156 "/>
<path style=" stroke:none;fill-rule:nonzero;fill:rgb(0%,0%,0%);fill-opacity:1;" d="M 29.542969 18.046875 C 29.710938 18.046875 29.890625 18.046875 29.890625 17.847656 C 29.890625 17.648438 29.710938 17.648438 29.542969 17.648438 L 25.332031 17.648438 C 25.453125 16.316406 26.59375 15.363281 27.992188 15.363281 L 29.542969 15.363281 C 29.710938 15.363281 29.890625 15.363281 29.890625 15.164062 C 29.890625 14.964844 29.710938 14.964844 29.542969 14.964844 L 27.972656 14.964844 C 26.273438 14.964844 24.925781 16.257812 24.925781 17.847656 C 24.925781 19.4375 26.273438 20.726562 27.972656 20.726562 L 29.542969 20.726562 C 29.710938 20.726562 29.890625 20.726562 29.890625 20.527344 C 29.890625 20.328125 29.710938 20.328125 29.542969 20.328125 L 27.992188 20.328125 C 26.59375 20.328125 25.453125 19.375 25.332031 18.046875 L 29.542969 18.046875 "/>
<path style=" stroke:none;fill-rule:nonzero;fill:rgb(0%,0%,0%);fill-opacity:1;" d="M 35.585938 14.945312 C 35.585938 14.777344 35.636719 13.773438 35.664062 13.632812 L 35.59375 13.574219 L 33.917969 13.574219 L 33.835938 13.644531 L 33.859375 13.84375 C 33.996094 13.84375 34.730469 13.960938 34.730469 14.359375 C 34.730469 14.558594 34.730469 14.746094 34.730469 14.945312 C 34.730469 15.71875 34.710938 16.503906 34.710938 17.269531 C 34.710938 17.875 34.722656 18.609375 34.789062 19.070312 C 34.910156 19.65625 35.238281 20.417969 36.617188 20.417969 C 37.445312 20.417969 38.238281 20.082031 38.933594 19.632812 L 39.011719 19.695312 C 39.011719 19.992188 38.953125 20.378906 39.339844 20.378906 C 39.648438 20.378906 40.355469 20.171875 40.859375 20.011719 L 40.910156 19.941406 L 40.871094 19.773438 C 40.671875 19.792969 40.492188 19.851562 40.296875 19.851562 C 39.816406 19.851562 39.816406 19.136719 39.816406 18.324219 C 39.816406 16.714844 39.828125 14.636719 39.976562 13.503906 L 39.917969 13.4375 L 39.042969 13.78125 C 39.023438 15.589844 39.003906 17.410156 39.003906 19.226562 C 38.46875 19.546875 37.871094 19.8125 37.253906 19.8125 C 36.289062 19.8125 35.507812 19.328125 35.507812 17.65625 L 35.585938 14.945312 "/>
<path style=" stroke:none;fill-rule:nonzero;fill:rgb(0%,0%,0%);fill-opacity:1;" d="M 58.3125 17.0625 L 58.371094 16.664062 L 51.804688 16.664062 L 51.734375 17.0625 Z M 58.3125 19.019531 L 58.371094 18.621094 L 51.804688 18.621094 L 51.734375 19.019531 L 58.3125 19.019531 "/>
<path style=" stroke:none;fill-rule:nonzero;fill:rgb(0%,0%,0%);fill-opacity:1;" d="M 64.660156 17.082031 C 64.808594 17.21875 65.117188 17.519531 65.621094 17.847656 C 65.375 18.003906 65.054688 18.234375 64.660156 18.609375 L 57.914062 18.609375 C 57.746094 18.609375 57.554688 18.609375 57.554688 18.808594 C 57.554688 19.007812 57.734375 19.007812 57.90625 19.007812 L 64.261719 19.007812 C 63.863281 19.4375 63.25 20.257812 62.882812 21.292969 L 63.277344 21.292969 C 63.824219 19.792969 64.925781 18.570312 66.378906 17.847656 C 64.976562 17.152344 63.84375 15.949219 63.277344 14.398438 L 62.882812 14.398438 C 63.257812 15.441406 63.875 16.257812 64.261719 16.683594 L 57.90625 16.683594 C 57.734375 16.683594 57.554688 16.683594 57.554688 16.882812 C 57.554688 17.082031 57.746094 17.082031 57.914062 17.082031 L 64.660156 17.082031 "/>
<path style=" stroke:none;fill-rule:nonzero;fill:rgb(0%,0%,0%);fill-opacity:1;" d="M 78.976562 22.375 C 78.917969 21.859375 78.886719 20.894531 78.878906 20.4375 L 78.976562 20.359375 C 79.164062 20.410156 79.363281 20.4375 79.5625 20.4375 C 81.101562 20.4375 82.144531 18.828125 82.144531 17.367188 C 82.144531 16.625 81.796875 15.710938 80.785156 15.710938 C 80.101562 15.710938 79.492188 16.019531 78.957031 16.445312 L 78.878906 16.40625 C 78.835938 15.96875 78.679688 15.660156 78.230469 15.660156 C 77.796875 15.660156 77.277344 16.019531 76.882812 16.335938 L 77.019531 16.523438 C 77.257812 16.386719 77.535156 16.238281 77.746094 16.238281 C 78.042969 16.238281 78.132812 16.753906 78.132812 17.199219 L 78.132812 19.394531 C 78.132812 19.960938 78.121094 22 78.074219 22.574219 L 78.171875 22.683594 Z M 78.898438 19.671875 C 78.898438 19.664062 78.878906 18.640625 78.878906 17.828125 C 78.878906 17.71875 78.90625 16.960938 78.90625 16.902344 C 79.375 16.535156 79.78125 16.328125 80.289062 16.328125 C 80.921875 16.328125 81.3125 17.089844 81.3125 17.957031 C 81.3125 18.898438 80.972656 20.042969 79.773438 20.042969 C 79.445312 20.042969 79.136719 19.890625 78.898438 19.671875 "/>
<path style=" stroke:none;fill-rule:nonzero;fill:rgb(0%,0%,0%);fill-opacity:1;" d="M 94.28125 18.046875 C 93.914062 18.5 93.386719 19.285156 93.140625 20.328125 L 93.539062 20.328125 C 93.84375 19.027344 94.679688 18.125 94.976562 17.847656 C 94.660156 17.546875 93.84375 16.65625 93.539062 15.363281 L 93.140625 15.363281 C 93.386719 16.394531 93.90625 17.179688 94.28125 17.648438 L 86.503906 17.648438 C 86.324219 17.648438 86.15625 17.648438 86.15625 17.847656 C 86.15625 18.046875 86.335938 18.046875 86.503906 18.046875 L 94.28125 18.046875 "/>
<path style=" stroke:none;fill-rule:nonzero;fill:rgb(0%,0%,0%);fill-opacity:1;" d="M 102.464844 22.742188 L 103.265625 22.457031 C 103.1875 21.570312 103.148438 20.417969 103.148438 19.207031 C 103.148438 17.894531 103.1875 16.515625 103.289062 15.363281 L 103.078125 15.324219 L 102.640625 15.910156 L 102.550781 15.929688 C 102.273438 15.789062 101.878906 15.652344 101.570312 15.652344 C 99.890625 15.652344 99.183594 17.101562 99.183594 18.480469 C 99.183594 19.316406 99.5625 20.398438 100.605469 20.398438 C 101.230469 20.398438 101.804688 20.121094 102.3125 19.742188 L 102.382812 19.792969 C 102.351562 20.746094 102.332031 22.179688 102.304688 22.585938 Z M 102.382812 19.285156 C 102.054688 19.574219 101.617188 19.78125 101.230469 19.78125 C 100.414062 19.78125 100.097656 19.039062 100.097656 18.214844 C 100.097656 17.101562 100.4375 16.019531 101.558594 16.019531 C 101.816406 16.019531 102.046875 16.15625 102.222656 16.335938 C 102.382812 16.496094 102.382812 16.792969 102.382812 17.042969 L 102.382812 19.285156 "/>
<path style=" stroke:none;fill-rule:nonzero;fill:rgb(0%,0%,0%);fill-opacity:1;" d="M 120.34375 18.046875 C 120.511719 18.046875 120.691406 18.046875 120.691406 17.847656 C 120.691406 17.648438 120.511719 17.648438 120.34375 17.648438 L 116.132812 17.648438 C 116.253906 16.316406 117.394531 15.363281 118.792969 15.363281 L 120.34375 15.363281 C 120.511719 15.363281 120.691406 15.363281 120.691406 15.164062 C 120.691406 14.964844 120.511719 14.964844 120.34375 14.964844 L 118.773438 14.964844 C 117.074219 14.964844 115.726562 16.257812 115.726562 17.847656 C 115.726562 19.4375 117.074219 20.726562 118.773438 20.726562 L 120.34375 20.726562 C 120.511719 20.726562 120.691406 20.726562 120.691406 20.527344 C 120.691406 20.328125 120.511719 20.328125 120.34375 20.328125 L 118.792969 20.328125 C 117.394531 20.328125 116.253906 19.375 116.132812 18.046875 L 120.34375 18.046875 "/>
<path style=" stroke:none;fill-rule:nonzero;fill:rgb(0%,0%,0%);fill-opacity:1;" d="M 134.085938 14.945312 C 134.085938 14.777344 134.136719 13.773438 134.164062 13.632812 L 134.09375 13.574219 L 132.417969 13.574219 L 132.339844 13.644531 L 132.359375 13.84375 C 132.496094 13.84375 133.230469 13.960938 133.230469 14.359375 C 133.230469 14.558594 133.230469 14.746094 133.230469 14.945312 C 133.230469 15.71875 133.214844 16.503906 133.214844 17.269531 C 133.214844 17.875 133.222656 18.609375 133.289062 19.070312 C 133.410156 19.65625 133.738281 20.417969 135.117188 20.417969 C 135.945312 20.417969 136.738281 20.082031 137.433594 19.632812 L 137.511719 19.695312 C 137.511719 19.992188 137.453125 20.378906 137.839844 20.378906 C 138.148438 20.378906 138.855469 20.171875 139.359375 20.011719 L 139.410156 19.941406 L 139.371094 19.773438 C 139.171875 19.792969 138.992188 19.851562 138.796875 19.851562 C 138.316406 19.851562 138.316406 19.136719 138.316406 18.324219 C 138.316406 16.714844 138.328125 14.636719 138.476562 13.503906 L 138.417969 13.4375 L 137.542969 13.78125 C 137.523438 15.589844 137.503906 17.410156 137.503906 19.226562 C 136.96875 19.546875 136.371094 19.8125 135.753906 19.8125 C 134.789062 19.8125 134.007812 19.328125 134.007812 17.65625 L 134.085938 14.945312 "/>
<path style=" stroke:none;fill-rule:nonzero;fill:rgb(0%,0%,0%);fill-opacity:1;" d="M 6.976562 34.277344 C 6.917969 33.757812 6.886719 32.796875 6.878906 32.339844 L 6.976562 32.257812 C 7.164062 32.308594 7.363281 32.339844 7.5625 32.339844 C 9.101562 32.339844 10.144531 30.730469 10.144531 29.269531 C 10.144531 28.523438 9.796875 27.609375 8.785156 27.609375 C 8.101562 27.609375 7.492188 27.917969 6.957031 28.34375 L 6.878906 28.304688 C 6.835938 27.867188 6.679688 27.5625 6.230469 27.5625 C 5.796875 27.5625 5.277344 27.917969 4.882812 28.234375 L 5.019531 28.425781 C 5.257812 28.285156 5.535156 28.136719 5.746094 28.136719 C 6.042969 28.136719 6.132812 28.652344 6.132812 29.101562 L 6.132812 31.296875 C 6.132812 31.863281 6.121094 33.898438 6.074219 34.476562 L 6.171875 34.585938 Z M 6.898438 31.574219 C 6.898438 31.5625 6.878906 30.539062 6.878906 29.726562 C 6.878906 29.617188 6.90625 28.863281 6.90625 28.804688 C 7.375 28.433594 7.78125 28.226562 8.289062 28.226562 C 8.921875 28.226562 9.3125 28.992188 9.3125 29.855469 C 9.3125 30.800781 8.972656 31.941406 7.773438 31.941406 C 7.445312 31.941406 7.136719 31.792969 6.898438 31.574219 "/>
<path style=" stroke:none;fill-rule:nonzero;fill:rgb(0%,0%,0%);fill-opacity:1;" d="M 11.992188 34.316406 C 12.699219 33.5 13.027344 32.996094 13.027344 32.5 C 13.027344 32.148438 12.679688 30.859375 12.152344 30.859375 C 11.902344 30.859375 11.566406 31.078125 11.566406 31.335938 C 11.566406 31.433594 11.59375 31.542969 11.632812 31.59375 L 12.328125 32.417969 C 12.421875 32.527344 12.460938 32.695312 12.460938 32.835938 C 12.460938 33.234375 12.152344 33.71875 11.804688 34.175781 L 11.992188 34.316406 "/>
<path style=" stroke:none;fill-rule:nonzero;fill:rgb(0%,0%,0%);fill-opacity:1;" d="M 19.460938 34.644531 L 20.265625 34.355469 C 20.1875 33.472656 20.148438 32.320312 20.148438 31.109375 C 20.148438 29.796875 20.1875 28.414062 20.289062 27.261719 L 20.078125 27.222656 L 19.640625 27.808594 L 19.550781 27.828125 C 19.273438 27.691406 18.875 27.550781 18.570312 27.550781 C 16.890625 27.550781 16.183594 29 16.183594 30.382812 C 16.183594 31.21875 16.5625 32.300781 17.605469 32.300781 C 18.230469 32.300781 18.804688 32.019531 19.3125 31.644531 L 19.382812 31.695312 C 19.351562 32.648438 19.332031 34.078125 19.304688 34.484375 Z M 19.382812 31.1875 C 19.054688 31.476562 18.617188 31.683594 18.230469 31.683594 C 17.414062 31.683594 17.097656 30.9375 17.097656 30.113281 C 17.097656 29 17.4375 27.917969 18.558594 27.917969 C 18.816406 27.917969 19.046875 28.058594 19.222656 28.234375 C 19.382812 28.394531 19.382812 28.695312 19.382812 28.941406 L 19.382812 31.1875 "/>
<path style=" stroke:none;fill-rule:nonzero;fill:rgb(0%,0%,0%);fill-opacity:1;" d="M 29.542969 29.945312 C 29.710938 29.945312 29.890625 29.945312 29.890625 29.746094 C 29.890625 29.546875 29.710938 29.546875 29.542969 29.546875 L 25.332031 29.546875 C 25.453125 28.21875 26.59375 27.261719 27.992188 27.261719 L 29.542969 27.261719 C 29.710938 27.261719 29.890625 27.261719 29.890625 27.0625 C 29.890625 26.867188 29.710938 26.867188 29.542969 26.867188 L 27.972656 26.867188 C 26.273438 26.867188 24.925781 28.15625 24.925781 29.746094 C 24.925781 31.335938 26.273438 32.625 27.972656 32.625 L 29.542969 32.625 C 29.710938 32.625 29.890625 32.625 29.890625 32.429688 C 29.890625 32.230469 29.710938 32.230469 29.542969 32.230469 L 27.992188 32.230469 C 26.59375 32.230469 25.453125 31.277344 25.332031 29.945312 L 29.542969 29.945312 "/>
<path style=" stroke:none;fill-rule:nonzero;fill:rgb(0%,0%,0%);fill-opacity:1;" d="M 35.585938 26.84375 C 35.585938 26.675781 35.636719 25.671875 35.664062 25.535156 L 35.59375 25.476562 L 33.917969 25.476562 L 33.835938 25.542969 L 33.859375 25.742188 C 33.996094 25.742188 34.730469 25.863281 34.730469 26.257812 C 34.730469 26.457031 34.730469 26.648438 34.730469 26.84375 C 34.730469 27.621094 34.710938 28.40625 34.710938 29.171875 C 34.710938 29.777344 34.722656 30.511719 34.789062 30.96875 C 34.910156 31.554688 35.238281 32.320312 36.617188 32.320312 C 37.445312 32.320312 38.238281 31.980469 38.933594 31.535156 L 39.011719 31.59375 C 39.011719 31.890625 38.953125 32.28125 39.339844 32.28125 C 39.648438 32.28125 40.355469 32.070312 40.859375 31.914062 L 40.910156 31.84375 L 40.871094 31.671875 C 40.671875 31.695312 40.492188 31.753906 40.296875 31.753906 C 39.816406 31.753906 39.816406 31.039062 39.816406 30.222656 C 39.816406 28.613281 39.828125 26.539062 39.976562 25.40625 L 39.917969 25.335938 L 39.042969 25.683594 C 39.023438 27.492188 39.003906 29.308594 39.003906 31.125 C 38.46875 31.445312 37.871094 31.710938 37.253906 31.710938 C 36.289062 31.710938 35.507812 31.226562 35.507812 29.558594 L 35.585938 26.84375 "/>
<path style=" stroke:none;fill-rule:nonzero;fill:rgb(0%,0%,0%);fill-opacity:1;" d="M 58.3125 28.960938 L 58.371094 28.5625 L 51.804688 28.5625 L 51.734375 28.960938 Z M 58.3125 30.917969 L 58.371094 30.519531 L 51.804688 30.519531 L 51.734375 30.917969 L 58.3125 30.917969 "/>
<path style=" stroke:none;fill-rule:nonzero;fill:rgb(0%,0%,0%);fill-opacity:1;" d="M 64.660156 28.980469 C 64.808594 29.121094 65.117188 29.417969 65.621094 29.746094 C 65.375 29.90625 65.054688 30.132812 64.660156 30.511719 L 57.914062 30.511719 C 57.746094 30.511719 57.554688 30.511719 57.554688 30.710938 C 57.554688 30.90625 57.734375 30.90625 57.90625 30.90625 L 64.261719 30.90625 C 63.863281 31.335938 63.25 32.160156 62.882812 33.195312 L 63.277344 33.195312 C 63.824219 31.695312 64.925781 30.472656 66.378906 29.746094 C 64.976562 29.050781 63.84375 27.847656 63.277344 26.300781 L 62.882812 26.300781 C 63.257812 27.34375 63.875 28.15625 64.261719 28.585938 L 57.90625 28.585938 C 57.734375 28.585938 57.554688 28.585938 57.554688 28.78125 C 57.554688 28.980469 57.746094 28.980469 57.914062 28.980469 L 64.660156 28.980469 "/>
<path style=" stroke:none;fill-rule:nonzero;fill:rgb(0%,0%,0%);fill-opacity:1;" d="M 82.277344 34.277344 C 82.21875 33.757812 82.1875 32.796875 82.179688 32.339844 L 82.277344 32.257812 C 82.464844 32.308594 82.664062 32.339844 82.863281 32.339844 C 84.402344 32.339844 85.445312 30.730469 85.445312 29.269531 C 85.445312 28.523438 85.097656 27.609375 84.085938 27.609375 C 83.398438 27.609375 82.792969 27.917969 82.257812 28.34375 L 82.179688 28.304688 C 82.136719 27.867188 81.976562 27.5625 81.53125 27.5625 C 81.09375 27.5625 80.578125 27.917969 80.179688 28.234375 L 80.320312 28.425781 C 80.558594 28.285156 80.835938 28.136719 81.046875 28.136719 C 81.34375 28.136719 81.433594 28.652344 81.433594 29.101562 L 81.433594 31.296875 C 81.433594 31.863281 81.421875 33.898438 81.375 34.476562 L 81.472656 34.585938 Z M 82.195312 31.574219 C 82.195312 31.5625 82.179688 30.539062 82.179688 29.726562 C 82.179688 29.617188 82.207031 28.863281 82.207031 28.804688 C 82.671875 28.433594 83.082031 28.226562 83.585938 28.226562 C 84.222656 28.226562 84.609375 28.992188 84.609375 29.855469 C 84.609375 30.800781 84.273438 31.941406 83.070312 31.941406 C 82.742188 31.941406 82.4375 31.792969 82.195312 31.574219 "/>
<path style=" stroke:none;fill-rule:nonzero;fill:rgb(0%,0%,0%);fill-opacity:1;" d="M 92.414062 25.148438 L 92.324219 25.136719 L 88.507812 32.128906 L 88.617188 32.238281 L 88.90625 32.21875 L 92.351562 25.902344 L 95.613281 32.269531 L 96.03125 32.210938 L 92.414062 25.148438 "/>
<path style=" stroke:none;fill-rule:nonzero;fill:rgb(0%,0%,0%);fill-opacity:1;" d="M 102.464844 34.644531 L 103.265625 34.355469 C 103.1875 33.472656 103.148438 32.320312 103.148438 31.109375 C 103.148438 29.796875 103.1875 28.414062 103.289062 27.261719 L 103.078125 27.222656 L 102.640625 27.808594 L 102.550781 27.828125 C 102.273438 27.691406 101.878906 27.550781 101.570312 27.550781 C 99.890625 27.550781 99.183594 29 99.183594 30.382812 C 99.183594 31.21875 99.5625 32.300781 100.605469 32.300781 C 101.230469 32.300781 101.804688 32.019531 102.3125 31.644531 L 102.382812 31.695312 C 102.351562 32.648438 102.332031 34.078125 102.304688 34.484375 Z M 102.382812 31.1875 C 102.054688 31.476562 101.617188 31.683594 101.230469 31.683594 C 100.414062 31.683594 100.097656 30.9375 100.097656 30.113281 C 100.097656 29 100.4375 27.917969 101.558594 27.917969 C 101.816406 27.917969 102.046875 28.058594 102.222656 28.234375 C 102.382812 28.394531 102.382812 28.695312 102.382812 28.941406 L 102.382812 31.1875 "/>
<path style=" stroke:none;fill-rule:nonzero;fill:rgb(0%,0%,0%);fill-opacity:1;" d="M 120.34375 29.945312 C 120.511719 29.945312 120.691406 29.945312 120.691406 29.746094 C 120.691406 29.546875 120.511719 29.546875 120.34375 29.546875 L 116.132812 29.546875 C 116.253906 28.21875 117.394531 27.261719 118.792969 27.261719 L 120.34375 27.261719 C 120.511719 27.261719 120.691406 27.261719 120.691406 27.0625 C 120.691406 26.867188 120.511719 26.867188 120.34375 26.867188 L 118.773438 26.867188 C 117.074219 26.867188 115.726562 28.15625 115.726562 29.746094 C 115.726562 31.335938 117.074219 32.625 118.773438 32.625 L 120.34375 32.625 C 120.511719 32.625 120.691406 32.625 120.691406 32.429688 C 120.691406 32.230469 120.511719 32.230469 120.34375 32.230469 L 118.792969 32.230469 C 117.394531 32.230469 116.253906 31.277344 116.132812 29.945312 L 120.34375 29.945312 "/>
<path style=" stroke:none;fill-rule:nonzero;fill:rgb(0%,0%,0%);fill-opacity:1;" d="M 134.085938 26.84375 C 134.085938 26.675781 134.136719 25.671875 134.164062 25.535156 L 134.09375 25.476562 L 132.417969 25.476562 L 132.339844 25.542969 L 132.359375 25.742188 C 132.496094 25.742188 133.230469 25.863281 133.230469 26.257812 C 133.230469 26.457031 133.230469 26.648438 133.230469 26.84375 C 133.230469 27.621094 133.214844 28.40625 133.214844 29.171875 C 133.214844 29.777344 133.222656 30.511719 133.289062 30.96875 C 133.410156 31.554688 133.738281 32.320312 135.117188 32.320312 C 135.945312 32.320312 136.738281 31.980469 137.433594 31.535156 L 137.511719 31.59375 C 137.511719 31.890625 137.453125 32.28125 137.839844 32.28125 C 138.148438 32.28125 138.855469 32.070312 139.359375 31.914062 L 139.410156 31.84375 L 139.371094 31.671875 C 139.171875 31.695312 138.992188 31.753906 138.796875 31.753906 C 138.316406 31.753906 138.316406 31.039062 138.316406 30.222656 C 138.316406 28.613281 138.328125 26.539062 138.476562 25.40625 L 138.417969 25.335938 L 137.542969 25.683594 C 137.523438 27.492188 137.503906 29.308594 137.503906 31.125 C 136.96875 31.445312 136.371094 31.710938 135.753906 31.710938 C 134.789062 31.710938 134.007812 31.226562 134.007812 29.558594 L 134.085938 26.84375 "/>
<path style=" stroke:none;fill-rule:nonzero;fill:rgb(0%,0%,0%);fill-opacity:1;" d="M 6.976562 46.277344 C 6.917969 45.757812 6.886719 44.796875 6.878906 44.339844 L 6.976562 44.257812 C 7.164062 44.308594 7.363281 44.339844 7.5625 44.339844 C 9.101562 44.339844 10.144531 42.730469 10.144531 41.269531 C 10.144531 40.523438 9.796875 39.609375 8.785156 39.609375 C 8.101562 39.609375 7.492188 39.917969 6.957031 40.34375 L 6.878906 40.304688 C 6.835938 39.867188 6.679688 39.5625 6.230469 39.5625 C 5.796875 39.5625 5.277344 39.917969 4.882812 40.234375 L 5.019531 40.425781 C 5.257812 40.285156 5.535156 40.136719 5.746094 40.136719 C 6.042969 40.136719 6.132812 40.652344 6.132812 41.101562 L 6.132812 43.296875 C 6.132812 43.863281 6.121094 45.898438 6.074219 46.476562 L 6.171875 46.585938 Z M 6.898438 43.574219 C 6.898438 43.5625 6.878906 42.539062 6.878906 41.726562 C 6.878906 41.617188 6.90625 40.863281 6.90625 40.804688 C 7.375 40.433594 7.78125 40.226562 8.289062 40.226562 C 8.921875 40.226562 9.3125 40.992188 9.3125 41.855469 C 9.3125 42.800781 8.972656 43.941406 7.773438 43.941406 C 7.445312 43.941406 7.136719 43.792969 6.898438 43.574219 "/>
<path style=" stroke:none;fill-rule:nonzero;fill:rgb(0%,0%,0%);fill-opacity:1;" d="M 11.992188 46.316406 C 12.699219 45.5 13.027344 44.996094 13.027344 44.5 C 13.027344 44.148438 12.679688 42.859375 12.152344 42.859375 C 11.902344 42.859375 11.566406 43.078125 11.566406 43.335938 C 11.566406 43.433594 11.59375 43.542969 11.632812 43.59375 L 12.328125 44.417969 C 12.421875 44.527344 12.460938 44.695312 12.460938 44.835938 C 12.460938 45.234375 12.152344 45.71875 11.804688 46.175781 L 11.992188 46.316406 "/>
<path style=" stroke:none;fill-rule:nonzero;fill:rgb(0%,0%,0%);fill-opacity:1;" d="M 19.460938 46.644531 L 20.265625 46.355469 C 20.1875 45.472656 20.148438 44.320312 20.148438 43.109375 C 20.148438 41.796875 20.1875 40.414062 20.289062 39.261719 L 20.078125 39.222656 L 19.640625 39.808594 L 19.550781 39.828125 C 19.273438 39.691406 18.875 39.550781 18.570312 39.550781 C 16.890625 39.550781 16.183594 41 16.183594 42.382812 C 16.183594 43.21875 16.5625 44.300781 17.605469 44.300781 C 18.230469 44.300781 18.804688 44.019531 19.3125 43.644531 L 19.382812 43.695312 C 19.351562 44.648438 19.332031 46.078125 19.304688 46.484375 Z M 19.382812 43.1875 C 19.054688 43.476562 18.617188 43.683594 18.230469 43.683594 C 17.414062 43.683594 17.097656 42.9375 17.097656 42.113281 C 17.097656 41 17.4375 39.917969 18.558594 39.917969 C 18.816406 39.917969 19.046875 40.058594 19.222656 40.234375 C 19.382812 40.394531 19.382812 40.695312 19.382812 40.941406 L 19.382812 43.1875 "/>
<path style=" stroke:none;fill-rule:nonzero;fill:rgb(0%,0%,0%);fill-opacity:1;" d="M 29.542969 41.945312 C 29.710938 41.945312 29.890625 41.945312 29.890625 41.746094 C 29.890625 41.546875 29.710938 41.546875 29.542969 41.546875 L 25.332031 41.546875 C 25.453125 40.21875 26.59375 39.261719 27.992188 39.261719 L 29.542969 39.261719 C 29.710938 39.261719 29.890625 39.261719 29.890625 39.0625 C 29.890625 38.867188 29.710938 38.867188 29.542969 38.867188 L 27.972656 38.867188 C 26.273438 38.867188 24.925781 40.15625 24.925781 41.746094 C 24.925781 43.335938 26.273438 44.625 27.972656 44.625 L 29.542969 44.625 C 29.710938 44.625 29.890625 44.625 29.890625 44.429688 C 29.890625 44.230469 29.710938 44.230469 29.542969 44.230469 L 27.992188 44.230469 C 26.59375 44.230469 25.453125 43.277344 25.332031 41.945312 L 29.542969 41.945312 "/>
<path style=" stroke:none;fill-rule:nonzero;fill:rgb(0%,0%,0%);fill-opacity:1;" d="M 35.585938 38.84375 C 35.585938 38.675781 35.636719 37.671875 35.664062 37.535156 L 35.59375 37.476562 L 33.917969 37.476562 L 33.835938 37.542969 L 33.859375 37.742188 C 33.996094 37.742188 34.730469 37.863281 34.730469 38.257812 C 34.730469 38.457031 34.730469 38.648438 34.730469 38.84375 C 34.730469 39.621094 34.710938 40.40625 34.710938 41.171875 C 34.710938 41.777344 34.722656 42.511719 34.789062 42.96875 C 34.910156 43.554688 35.238281 44.320312 36.617188 44.320312 C 37.445312 44.320312 38.238281 43.980469 38.933594 43.535156 L 39.011719 43.59375 C 39.011719 43.890625 38.953125 44.28125 39.339844 44.28125 C 39.648438 44.28125 40.355469 44.070312 40.859375 43.914062 L 40.910156 43.84375 L 40.871094 43.671875 C 40.671875 43.695312 40.492188 43.753906 40.296875 43.753906 C 39.816406 43.753906 39.816406 43.039062 39.816406 42.222656 C 39.816406 40.613281 39.828125 38.539062 39.976562 37.40625 L 39.917969 37.335938 L 39.042969 37.683594 C 39.023438 39.492188 39.003906 41.308594 39.003906 43.125 C 38.46875 43.445312 37.871094 43.710938 37.253906 43.710938 C 36.289062 43.710938 35.507812 43.226562 35.507812 41.558594 L 35.585938 38.84375 "/>
<path style=" stroke:none;fill-rule:nonzero;fill:rgb(0%,0%,0%);fill-opacity:1;" d="M 58.3125 40.960938 L 58.371094 40.5625 L 51.804688 40.5625 L 51.734375 40.960938 Z M 58.3125 42.917969 L 58.371094 42.519531 L 51.804688 42.519531 L 51.734375 42.917969 L 58.3125 42.917969 "/>
<path style=" stroke:none;fill-rule:nonzero;fill:rgb(0%,0%,0%);fill-opacity:1;" d="M 64.660156 40.980469 C 64.808594 41.121094 65.117188 41.417969 65.621094 41.746094 C 65.375 41.90625 65.054688 42.132812 64.660156 42.511719 L 57.914062 42.511719 C 57.746094 42.511719 57.554688 42.511719 57.554688 42.710938 C 57.554688 42.90625 57.734375 42.90625 57.90625 42.90625 L 64.261719 42.90625 C 63.863281 43.335938 63.25 44.160156 62.882812 45.195312 L 63.277344 45.195312 C 63.824219 43.695312 64.925781 42.472656 66.378906 41.746094 C 64.976562 41.050781 63.84375 39.847656 63.277344 38.300781 L 62.882812 38.300781 C 63.257812 39.34375 63.875 40.15625 64.261719 40.585938 L 57.90625 40.585938 C 57.734375 40.585938 57.554688 40.585938 57.554688 40.78125 C 57.554688 40.980469 57.746094 40.980469 57.914062 40.980469 L 64.660156 40.980469 "/>
<path style=" stroke:none;fill-rule:nonzero;fill:rgb(0%,0%,0%);fill-opacity:1;" d="M 82.277344 46.277344 C 82.21875 45.757812 82.1875 44.796875 82.179688 44.339844 L 82.277344 44.257812 C 82.464844 44.308594 82.664062 44.339844 82.863281 44.339844 C 84.402344 44.339844 85.445312 42.730469 85.445312 41.269531 C 85.445312 40.523438 85.097656 39.609375 84.085938 39.609375 C 83.398438 39.609375 82.792969 39.917969 82.257812 40.34375 L 82.179688 40.304688 C 82.136719 39.867188 81.976562 39.5625 81.53125 39.5625 C 81.09375 39.5625 80.578125 39.917969 80.179688 40.234375 L 80.320312 40.425781 C 80.558594 40.285156 80.835938 40.136719 81.046875 40.136719 C 81.34375 40.136719 81.433594 40.652344 81.433594 41.101562 L 81.433594 43.296875 C 81.433594 43.863281 81.421875 45.898438 81.375 46.476562 L 81.472656 46.585938 Z M 82.195312 43.574219 C 82.195312 43.5625 82.179688 42.539062 82.179688 41.726562 C 82.179688 41.617188 82.207031 40.863281 82.207031 40.804688 C 82.671875 40.433594 83.082031 40.226562 83.585938 40.226562 C 84.222656 40.226562 84.609375 40.992188 84.609375 41.855469 C 84.609375 42.800781 84.273438 43.941406 83.070312 43.941406 C 82.742188 43.941406 82.4375 43.792969 82.195312 43.574219 "/>
<path style=" stroke:none;fill-rule:nonzero;fill:rgb(0%,0%,0%);fill-opacity:1;" d="M 95.910156 37.433594 L 95.871094 37.394531 L 95.484375 37.394531 L 92.125 43.644531 L 88.875 37.433594 L 88.460938 37.503906 L 92.046875 44.347656 L 92.195312 44.347656 L 95.910156 37.433594 "/>
<path style=" stroke:none;fill-rule:nonzero;fill:rgb(0%,0%,0%);fill-opacity:1;" d="M 102.464844 46.644531 L 103.265625 46.355469 C 103.1875 45.472656 103.148438 44.320312 103.148438 43.109375 C 103.148438 41.796875 103.1875 40.414062 103.289062 39.261719 L 103.078125 39.222656 L 102.640625 39.808594 L 102.550781 39.828125 C 102.273438 39.691406 101.878906 39.550781 101.570312 39.550781 C 99.890625 39.550781 99.183594 41 99.183594 42.382812 C 99.183594 43.21875 99.5625 44.300781 100.605469 44.300781 C 101.230469 44.300781 101.804688 44.019531 102.3125 43.644531 L 102.382812 43.695312 C 102.351562 44.648438 102.332031 46.078125 102.304688 46.484375 Z M 102.382812 43.1875 C 102.054688 43.476562 101.617188 43.683594 101.230469 43.683594 C 100.414062 43.683594 100.097656 42.9375 100.097656 42.113281 C 100.097656 41 100.4375 39.917969 101.558594 39.917969 C 101.816406 39.917969 102.046875 40.058594 102.222656 40.234375 C 102.382812 40.394531 102.382812 40.695312 102.382812 40.941406 L 102.382812 43.1875 "/>
<path style=" stroke:none;fill-rule:nonzero;fill:rgb(0%,0%,0%);fill-opacity:1;" d="M 120.34375 41.945312 C 120.511719 41.945312 120.691406 41.945312 120.691406 41.746094 C 120.691406 41.546875 120.511719 41.546875 120.34375 41.546875 L 116.132812 41.546875 C 116.253906 40.21875 117.394531 39.261719 118.792969 39.261719 L 120.34375 39.261719 C 120.511719 39.261719 120.691406 39.261719 120.691406 39.0625 C 120.691406 38.867188 120.511719 38.867188 120.34375 38.867188 L 118.773438 38.867188 C 117.074219 38.867188 115.726562 40.15625 115.726562 41.746094 C 115.726562 43.335938 117.074219 44.625 118.773438 44.625 L 120.34375 44.625 C 120.511719 44.625 120.691406 44.625 120.691406 44.429688 C 120.691406 44.230469 120.511719 44.230469 120.34375 44.230469 L 118.792969 44.230469 C 117.394531 44.230469 116.253906 43.277344 116.132812 41.945312 L 120.34375 41.945312 "/>
<path style=" stroke:none;fill-rule:nonzero;fill:rgb(0%,0%,0%);fill-opacity:1;" d="M 134.085938 38.84375 C 134.085938 38.675781 134.136719 37.671875 134.164062 37.535156 L 134.09375 37.476562 L 132.417969 37.476562 L 132.339844 37.542969 L 132.359375 37.742188 C 132.496094 37.742188 133.230469 37.863281 133.230469 38.257812 C 133.230469 38.457031 133.230469 38.648438 133.230469 38.84375 C 133.230469 39.621094 133.214844 40.40625 133.214844 41.171875 C 133.214844 41.777344 133.222656 42.511719 133.289062 42.96875 C 133.410156 43.554688 133.738281 44.320312 135.117188 44.320312 C 135.945312 44.320312 136.738281 43.980469 137.433594 43.535156 L 137.511719 43.59375 C 137.511719 43.890625 137.453125 44.28125 137.839844 44.28125 C 138.148438 44.28125 138.855469 44.070312 139.359375 43.914062 L 139.410156 43.84375 L 139.371094 43.671875 C 139.171875 43.695312 138.992188 43.753906 138.796875 43.753906 C 138.316406 43.753906 138.316406 43.039062 138.316406 42.222656 C 138.316406 40.613281 138.328125 38.539062 138.476562 37.40625 L 138.417969 37.335938 L 137.542969 37.683594 C 137.523438 39.492188 137.503906 41.308594 137.503906 43.125 C 136.96875 43.445312 136.371094 43.710938 135.753906 43.710938 C 134.789062 43.710938 134.007812 43.226562 134.007812 41.558594 L 134.085938 38.84375 "/>
<path style=" stroke:none;fill-rule:nonzero;fill:rgb(0%,0%,0%);fill-opacity:1;" d="M 100.664062 49.953125 C 100.664062 49.773438 100.664062 49.59375 100.464844 49.59375 C 100.265625 49.59375 100.265625 49.804688 100.265625 49.953125 L 100.265625 55.832031 L 97.503906 55.832031 C 97.355469 55.832031 97.148438 55.832031 97.148438 56.03125 C 97.148438 56.230469 97.355469 56.230469 97.503906 56.230469 L 103.433594 56.230469 C 103.601562 56.230469 103.78125 56.230469 103.78125 56.03125 C 103.78125 55.832031 103.601562 55.832031 103.433594 55.832031 L 100.664062 55.832031 L 100.664062 49.953125 "/>
<path style=" stroke:none;fill-rule:nonzero;fill:rgb(0%,0%,0%);fill-opacity:1;" d="M 120.34375 53.945312 C 120.511719 53.945312 120.691406 53.945312 120.691406 53.746094 C 120.691406 53.546875 120.511719 53.546875 120.34375 53.546875 L 116.132812 53.546875 C 116.253906 52.21875 117.394531 51.261719 118.792969 51.261719 L 120.34375 51.261719 C 120.511719 51.261719 120.691406 51.261719 120.691406 51.0625 C 120.691406 50.867188 120.511719 50.867188 120.34375 50.867188 L 118.773438 50.867188 C 117.074219 50.867188 115.726562 52.15625 115.726562 53.746094 C 115.726562 55.335938 117.074219 56.625 118.773438 56.625 L 120.34375 56.625 C 120.511719 56.625 120.691406 56.625 120.691406 56.429688 C 120.691406 56.230469 120.511719 56.230469 120.34375 56.230469 L 118.792969 56.230469 C 117.394531 56.230469 116.253906 55.277344 116.132812 53.945312 L 120.34375 53.945312 "/>
<path style=" stroke:none;fill-rule:nonzero;fill:rgb(0%,0%,0%);fill-opacity:1;" d="M 134.085938 50.84375 C 134.085938 50.675781 134.136719 49.671875 134.164062 49.535156 L 134.09375 49.476562 L 132.417969 49.476562 L 132.339844 49.542969 L 132.359375 49.742188 C 132.496094 49.742188 133.230469 49.863281 133.230469 50.257812 C 133.230469 50.457031 133.230469 50.648438 133.230469 50.84375 C 133.230469 51.621094 133.214844 52.40625 133.214844 53.171875 C 133.214844 53.777344 133.222656 54.511719 133.289062 54.96875 C 133.410156 55.554688 133.738281 56.320312 135.117188 56.320312 C 135.945312 56.320312 136.738281 55.980469 137.433594 55.535156 L 137.511719 55.59375 C 137.511719 55.890625 137.453125 56.28125 137.839844 56.28125 C 138.148438 56.28125 138.855469 56.070312 139.359375 55.914062 L 139.410156 55.84375 L 139.371094 55.671875 C 139.171875 55.695312 138.992188 55.753906 138.796875 55.753906 C 138.316406 55.753906 138.316406 55.039062 138.316406 54.222656 C 138.316406 52.613281 138.328125 50.539062 138.476562 49.40625 L 138.417969 49.335938 L 137.542969 49.683594 C 137.523438 51.492188 137.503906 53.308594 137.503906 55.125 C 136.96875 55.445312 136.371094 55.710938 135.753906 55.710938 C 134.789062 55.710938 134.007812 55.226562 134.007812 53.558594 L 134.085938 50.84375 "/>
<path style=" stroke:none;fill-rule:nonzero;fill:rgb(0%,0%,0%);fill-opacity:1;" d="M 17.375 70.175781 C 17.316406 69.660156 17.289062 68.695312 17.277344 68.238281 L 17.375 68.160156 C 17.566406 68.210938 17.765625 68.238281 17.960938 68.238281 C 19.503906 68.238281 20.546875 66.628906 20.546875 65.167969 C 20.546875 64.425781 20.199219 63.511719 19.183594 63.511719 C 18.5 63.511719 17.894531 63.820312 17.355469 64.246094 L 17.277344 64.207031 C 17.238281 63.769531 17.078125 63.460938 16.632812 63.460938 C 16.195312 63.460938 15.679688 63.820312 15.28125 64.136719 L 15.421875 64.324219 C 15.65625 64.1875 15.9375 64.039062 16.144531 64.039062 C 16.445312 64.039062 16.53125 64.554688 16.53125 65 L 16.53125 67.195312 C 16.53125 67.761719 16.523438 69.796875 16.472656 70.375 L 16.570312 70.484375 Z M 17.296875 67.472656 C 17.296875 67.464844 17.277344 66.441406 17.277344 65.625 C 17.277344 65.515625 17.308594 64.761719 17.308594 64.703125 C 17.773438 64.335938 18.179688 64.125 18.6875 64.125 C 19.324219 64.125 19.710938 64.890625 19.710938 65.757812 C 19.710938 66.699219 19.375 67.84375 18.171875 67.84375 C 17.84375 67.84375 17.535156 67.691406 17.296875 67.472656 "/>
<path style=" stroke:none;fill-rule:nonzero;fill:rgb(0%,0%,0%);fill-opacity:1;" d="M 29.542969 65.84375 C 29.710938 65.84375 29.890625 65.84375 29.890625 65.648438 C 29.890625 65.445312 29.710938 65.445312 29.542969 65.445312 L 25.332031 65.445312 C 25.453125 64.117188 26.59375 63.164062 27.992188 63.164062 L 29.542969 63.164062 C 29.710938 63.164062 29.890625 63.164062 29.890625 62.964844 C 29.890625 62.765625 29.710938 62.765625 29.542969 62.765625 L 27.972656 62.765625 C 26.273438 62.765625 24.925781 64.054688 24.925781 65.648438 C 24.925781 67.234375 26.273438 68.527344 27.972656 68.527344 L 29.542969 68.527344 C 29.710938 68.527344 29.890625 68.527344 29.890625 68.328125 C 29.890625 68.128906 29.710938 68.128906 29.542969 68.128906 L 27.992188 68.128906 C 26.59375 68.128906 25.453125 67.175781 25.332031 65.84375 L 29.542969 65.84375 "/>
<path style=" stroke:none;fill-rule:nonzero;fill:rgb(0%,0%,0%);fill-opacity:1;" d="M 35.585938 62.746094 C 35.585938 62.578125 35.636719 61.574219 35.664062 61.433594 L 35.59375 61.375 L 33.917969 61.375 L 33.835938 61.445312 L 33.859375 61.644531 C 33.996094 61.644531 34.730469 61.761719 34.730469 62.160156 C 34.730469 62.359375 34.730469 62.546875 34.730469 62.746094 C 34.730469 63.519531 34.710938 64.304688 34.710938 65.070312 C 34.710938 65.675781 34.722656 66.410156 34.789062 66.867188 C 34.910156 67.453125 35.238281 68.21875 36.617188 68.21875 C 37.445312 68.21875 38.238281 67.882812 38.933594 67.433594 L 39.011719 67.492188 C 39.011719 67.792969 38.953125 68.179688 39.339844 68.179688 C 39.648438 68.179688 40.355469 67.96875 40.859375 67.8125 L 40.910156 67.742188 L 40.871094 67.574219 C 40.671875 67.59375 40.492188 67.652344 40.296875 67.652344 C 39.816406 67.652344 39.816406 66.9375 39.816406 66.125 C 39.816406 64.515625 39.828125 62.4375 39.976562 61.304688 L 39.917969 61.234375 L 39.042969 61.582031 C 39.023438 63.390625 39.003906 65.210938 39.003906 67.027344 C 38.46875 67.34375 37.871094 67.613281 37.253906 67.613281 C 36.289062 67.613281 35.507812 67.125 35.507812 65.457031 L 35.585938 62.746094 "/>
<path style=" stroke:none;fill-rule:nonzero;fill:rgb(0%,0%,0%);fill-opacity:1;" d="M 58.3125 64.859375 L 58.371094 64.464844 L 51.804688 64.464844 L 51.734375 64.859375 Z M 58.3125 66.820312 L 58.371094 66.421875 L 51.804688 66.421875 L 51.734375 66.820312 L 58.3125 66.820312 "/>
<path style=" stroke:none;fill-rule:nonzero;fill:rgb(0%,0%,0%);fill-opacity:1;" d="M 64.660156 64.882812 C 64.808594 65.019531 65.117188 65.320312 65.621094 65.648438 C 65.375 65.804688 65.054688 66.035156 64.660156 66.410156 L 57.914062 66.410156 C 57.746094 66.410156 57.554688 66.410156 57.554688 66.609375 C 57.554688 66.808594 57.734375 66.808594 57.90625 66.808594 L 64.261719 66.808594 C 63.863281 67.234375 63.25 68.058594 62.882812 69.09375 L 63.277344 69.09375 C 63.824219 67.59375 64.925781 66.371094 66.378906 65.648438 C 64.976562 64.953125 63.84375 63.75 63.277344 62.199219 L 62.882812 62.199219 C 63.257812 63.242188 63.875 64.054688 64.261719 64.484375 L 57.90625 64.484375 C 57.734375 64.484375 57.554688 64.484375 57.554688 64.683594 C 57.554688 64.882812 57.746094 64.882812 57.914062 64.882812 L 64.660156 64.882812 "/>
<path style=" stroke:none;fill-rule:nonzero;fill:rgb(0%,0%,0%);fill-opacity:1;" d="M 97.9375 64.066406 L 91.949219 64.066406 L 91.949219 64.464844 L 97.539062 64.464844 L 97.539062 66.082031 L 97.9375 66.082031 L 97.9375 64.066406 "/>
<path style=" stroke:none;fill-rule:nonzero;fill:rgb(0%,0%,0%);fill-opacity:1;" d="M 100.476562 70.175781 C 100.417969 69.660156 100.386719 68.695312 100.378906 68.238281 L 100.476562 68.160156 C 100.664062 68.210938 100.863281 68.238281 101.0625 68.238281 C 102.601562 68.238281 103.644531 66.628906 103.644531 65.167969 C 103.644531 64.425781 103.296875 63.511719 102.285156 63.511719 C 101.601562 63.511719 100.992188 63.820312 100.457031 64.246094 L 100.378906 64.207031 C 100.339844 63.769531 100.179688 63.460938 99.730469 63.460938 C 99.296875 63.460938 98.777344 63.820312 98.382812 64.136719 L 98.519531 64.324219 C 98.757812 64.1875 99.035156 64.039062 99.246094 64.039062 C 99.542969 64.039062 99.632812 64.554688 99.632812 65 L 99.632812 67.195312 C 99.632812 67.761719 99.621094 69.796875 99.574219 70.375 L 99.671875 70.484375 Z M 100.398438 67.472656 C 100.398438 67.464844 100.378906 66.441406 100.378906 65.625 C 100.378906 65.515625 100.40625 64.761719 100.40625 64.703125 C 100.871094 64.335938 101.28125 64.125 101.789062 64.125 C 102.421875 64.125 102.8125 64.890625 102.8125 65.757812 C 102.8125 66.699219 102.472656 67.84375 101.273438 67.84375 C 100.945312 67.84375 100.636719 67.691406 100.398438 67.472656 "/>
<path style=" stroke:none;fill-rule:nonzero;fill:rgb(0%,0%,0%);fill-opacity:1;" d="M 121.113281 63.917969 C 121.28125 63.917969 121.472656 63.917969 121.472656 63.71875 C 121.472656 63.519531 121.292969 63.519531 121.125 63.519531 L 115.195312 63.519531 C 115.023438 63.519531 114.847656 63.519531 114.847656 63.71875 C 114.847656 63.917969 115.046875 63.917969 115.203125 63.917969 Z M 121.125 67.773438 C 121.292969 67.773438 121.472656 67.773438 121.472656 67.574219 C 121.472656 67.375 121.28125 67.375 121.113281 67.375 L 115.203125 67.375 C 115.046875 67.375 114.847656 67.375 114.847656 67.574219 C 114.847656 67.773438 115.023438 67.773438 115.195312 67.773438 Z M 121.125 65.84375 C 121.292969 65.84375 121.472656 65.84375 121.472656 65.648438 C 121.472656 65.445312 121.292969 65.445312 121.125 65.445312 L 115.195312 65.445312 C 115.023438 65.445312 114.847656 65.445312 114.847656 65.648438 C 114.847656 65.84375 115.023438 65.84375 115.195312 65.84375 L 121.125 65.84375 "/>
<path style=" stroke:none;fill-rule:nonzero;fill:rgb(0%,0%,0%);fill-opacity:1;" d="M 133.976562 70.175781 C 133.917969 69.660156 133.886719 68.695312 133.878906 68.238281 L 133.976562 68.160156 C 134.164062 68.210938 134.363281 68.238281 134.5625 68.238281 C 136.101562 68.238281 137.144531 66.628906 137.144531 65.167969 C 137.144531 64.425781 136.796875 63.511719 135.785156 63.511719 C 135.101562 63.511719 134.492188 63.820312 133.957031 64.246094 L 133.878906 64.207031 C 133.839844 63.769531 133.679688 63.460938 133.230469 63.460938 C 132.796875 63.460938 132.277344 63.820312 131.882812 64.136719 L 132.019531 64.324219 C 132.257812 64.1875 132.535156 64.039062 132.746094 64.039062 C 133.042969 64.039062 133.132812 64.554688 133.132812 65 L 133.132812 67.195312 C 133.132812 67.761719 133.121094 69.796875 133.074219 70.375 L 133.171875 70.484375 Z M 133.898438 67.472656 C 133.898438 67.464844 133.878906 66.441406 133.878906 65.625 C 133.878906 65.515625 133.90625 64.761719 133.90625 64.703125 C 134.371094 64.335938 134.78125 64.125 135.289062 64.125 C 135.921875 64.125 136.3125 64.890625 136.3125 65.757812 C 136.3125 66.699219 135.972656 67.84375 134.773438 67.84375 C 134.445312 67.84375 134.136719 67.691406 133.898438 67.472656 "/>
<path style=" stroke:none;fill-rule:nonzero;fill:rgb(0%,0%,0%);fill-opacity:1;" d="M 149.382812 65.84375 C 149.015625 66.300781 148.488281 67.085938 148.238281 68.128906 L 148.636719 68.128906 C 148.945312 66.828125 149.78125 65.925781 150.078125 65.648438 C 149.757812 65.347656 148.945312 64.453125 148.636719 63.164062 L 148.238281 63.164062 C 148.488281 64.195312 149.003906 64.980469 149.382812 65.445312 L 141.605469 65.445312 C 141.425781 65.445312 141.257812 65.445312 141.257812 65.648438 C 141.257812 65.84375 141.433594 65.84375 141.605469 65.84375 L 149.382812 65.84375 "/>
<path style=" stroke:none;fill-rule:nonzero;fill:rgb(0%,0%,0%);fill-opacity:1;" d="M 157.464844 61.851562 C 157.464844 61.671875 157.464844 61.492188 157.265625 61.492188 C 157.066406 61.492188 157.066406 61.703125 157.066406 61.851562 L 157.066406 67.734375 L 154.304688 67.734375 C 154.15625 67.734375 153.945312 67.734375 153.945312 67.929688 C 153.945312 68.128906 154.15625 68.128906 154.304688 68.128906 L 160.234375 68.128906 C 160.402344 68.128906 160.582031 68.128906 160.582031 67.929688 C 160.582031 67.734375 160.402344 67.734375 160.234375 67.734375 L 157.464844 67.734375 L 157.464844 61.851562 "/>
</g>
</svg>
