<?xml version="1.0" encoding="UTF-8"?>
<svg xmlns="http://www.w3.org/2000/svg" xmlns:xlink="http://www.w3.org/1999/xlink" width="209.38pt" height="49.12pt" viewBox="0 0 209.38 49.12" version="1.1">
<defs>
<clipPath id="clip1">
  <path d="M 78 25 L 209.378906 25 L 209.378906 26 L 78 26 Z M 78 25 "/>
</clipPath>
<clipPath id="clip2">
  <path d="M 37 37 L 209.378906 37 L 209.378906 39 L 37 39 Z M 37 37 "/>
</clipPath>
<clipPath id="clip3">
  <path d="M 118 42 L 124 42 L 124 49.121094 L 118 49.121094 Z M 118 42 "/>
</clipPath>
<clipPath id="clip4">
  <path d="M 142 42 L 148 42 L 148 49.121094 L 142 49.121094 Z M 142 42 "/>
</clipPath>
</defs>
<g id="surface1">
<path style=" stroke:none;fill-rule:nonzero;fill:rgb(0%,0%,0%);fill-opacity:1;" d="M 2.992188 42.039062 C 1.710938 41.789062 1.640625 39.375 1.640625 37.699219 C 1.640625 36.199219 1.726562 33.675781 2.992188 33.359375 L 2.992188 33.089844 C 1.957031 33.269531 1.507812 34.398438 1.320312 35.355469 C 1.171875 36.097656 1.121094 36.875 1.121094 37.640625 C 1.121094 38.445312 1.164062 39.25 1.300781 40.042969 C 1.46875 40.984375 1.945312 42.1875 2.992188 42.277344 L 2.992188 42.039062 "/>
<path style=" stroke:none;fill-rule:nonzero;fill:rgb(0%,0%,0%);fill-opacity:1;" d="M 12.582031 38.136719 C 12.214844 38.59375 11.6875 39.375 11.4375 40.421875 L 11.835938 40.421875 C 12.144531 39.117188 12.980469 38.214844 13.277344 37.9375 C 12.960938 37.640625 12.144531 36.746094 11.835938 35.453125 L 11.4375 35.453125 C 11.6875 36.484375 12.203125 37.273438 12.582031 37.738281 L 4.804688 37.738281 C 4.625 37.738281 4.457031 37.738281 4.457031 37.9375 C 4.457031 38.136719 4.632812 38.136719 4.804688 38.136719 L 12.582031 38.136719 "/>
<path style=" stroke:none;fill-rule:nonzero;fill:rgb(0%,0%,0%);fill-opacity:1;" d="M 20.039062 40.429688 L 20.054688 40.191406 C 20.046875 40.191406 19.621094 40.082031 19.410156 40.023438 C 18.992188 39.914062 19.101562 39.167969 19.09375 38.742188 C 19.082031 38.136719 19.074219 37.519531 19.074219 36.855469 C 19.074219 36.078125 19.015625 34.898438 19.101562 34.3125 C 19.113281 34.191406 19.191406 34.082031 19.320312 34.054688 L 19.988281 33.902344 L 19.988281 33.695312 L 19.929688 33.636719 L 17.445312 33.636719 L 17.375 33.695312 L 17.375 33.914062 C 18.167969 34.09375 18.238281 34.042969 18.257812 34.339844 C 18.289062 34.71875 18.289062 35.09375 18.289062 35.484375 L 18.289062 39.089844 C 18.25 39.914062 18.378906 39.984375 17.40625 40.171875 L 17.40625 40.429688 L 20.039062 40.429688 "/>
<path style=" stroke:none;fill-rule:nonzero;fill:rgb(0%,0%,0%);fill-opacity:1;" d="M 21.355469 33.375 C 22.160156 33.664062 22.386719 34.597656 22.535156 35.34375 C 22.6875 36.109375 22.726562 36.902344 22.726562 37.679688 C 22.726562 38.8125 22.746094 40.023438 22.386719 41.085938 C 22.1875 41.679688 21.8125 41.941406 21.355469 42.058594 L 21.355469 42.296875 C 23.132812 42.070312 23.242188 39.417969 23.242188 37.71875 C 23.242188 36.058594 23.03125 33.457031 21.355469 33.109375 L 21.355469 33.375 "/>
<path style=" stroke:none;fill-rule:nonzero;fill:rgb(0%,0%,0%);fill-opacity:1;" d="M 41.890625 29.4375 C 40.609375 29.191406 40.539062 26.777344 40.539062 25.097656 C 40.539062 23.597656 40.628906 21.074219 41.890625 20.757812 L 41.890625 20.488281 C 40.855469 20.667969 40.410156 21.800781 40.222656 22.753906 C 40.070312 23.5 40.023438 24.273438 40.023438 25.039062 C 40.023438 25.84375 40.0625 26.648438 40.203125 27.441406 C 40.371094 28.386719 40.847656 29.589844 41.890625 29.679688 L 41.890625 29.4375 "/>
<path style=" stroke:none;fill-rule:nonzero;fill:rgb(0%,0%,0%);fill-opacity:1;" d="M 51.484375 25.535156 C 51.113281 25.992188 50.585938 26.777344 50.339844 27.820312 L 50.738281 27.820312 C 51.046875 26.519531 51.878906 25.617188 52.179688 25.335938 C 51.859375 25.039062 51.046875 24.144531 50.738281 22.851562 L 50.339844 22.851562 C 50.585938 23.886719 51.105469 24.671875 51.484375 25.136719 L 43.703125 25.136719 C 43.523438 25.136719 43.355469 25.136719 43.355469 25.335938 C 43.355469 25.535156 43.535156 25.535156 43.703125 25.535156 L 51.484375 25.535156 "/>
<path style=" stroke:none;fill-rule:nonzero;fill:rgb(0%,0%,0%);fill-opacity:1;" d="M 60.03125 24.484375 L 60.089844 24.007812 L 60.03125 23.9375 C 59.503906 23.976562 58.769531 24.007812 58.242188 24.007812 C 57.875 24.007812 57.585938 24.035156 57.585938 23.867188 L 57.585938 22.21875 C 57.585938 21.871094 57.625 21.503906 57.824219 21.460938 L 58.222656 21.460938 C 58.289062 21.460938 59.613281 21.523438 60.296875 21.5625 L 60.335938 21.492188 L 60.359375 20.996094 C 60.226562 20.984375 60.078125 20.984375 59.898438 20.984375 C 59.195312 20.996094 58.191406 21.046875 57.496094 21.046875 L 56.027344 21.054688 L 55.957031 21.125 L 55.96875 21.324219 C 56.433594 21.394531 56.664062 21.511719 56.722656 21.640625 C 56.8125 21.839844 56.8125 22.136719 56.8125 22.277344 L 56.8125 27.164062 C 56.8125 27.433594 56.871094 27.710938 57.070312 27.820312 L 60.921875 27.820312 L 61.054688 27.292969 L 61.003906 27.242188 C 59.375 27.382812 59.144531 27.382812 58.679688 27.382812 C 58.074219 27.382812 57.863281 27.324219 57.726562 27.066406 C 57.585938 26.816406 57.578125 26.328125 57.578125 25.953125 L 57.578125 24.570312 C 57.578125 24.394531 58.28125 24.421875 58.859375 24.421875 C 59.246094 24.421875 59.640625 24.453125 60.03125 24.484375 "/>
<path style=" stroke:none;fill-rule:nonzero;fill:rgb(0%,0%,0%);fill-opacity:1;" d="M 62.355469 20.777344 C 63.160156 21.066406 63.386719 22 63.535156 22.742188 C 63.6875 23.507812 63.726562 24.304688 63.726562 25.078125 C 63.726562 26.210938 63.746094 27.421875 63.386719 28.484375 C 63.1875 29.082031 62.8125 29.339844 62.355469 29.460938 L 62.355469 29.699219 C 64.132812 29.46875 64.242188 26.816406 64.242188 25.117188 C 64.242188 23.460938 64.03125 20.855469 62.355469 20.507812 L 62.355469 20.777344 "/>
<path style=" stroke:none;fill-rule:nonzero;fill:rgb(0%,0%,0%);fill-opacity:1;" d="M 104.984375 1.882812 L 104.984375 1.605469 C 104.179688 1.625 102.996094 1.65625 102.5625 1.65625 L 100.59375 1.65625 C 99.847656 1.65625 99.101562 1.617188 98.359375 1.566406 L 98.359375 1.863281 C 98.925781 2.03125 99.015625 2.0625 99.101562 2.140625 C 99.222656 2.261719 99.234375 2.816406 99.234375 3.117188 C 99.234375 3.355469 99.234375 3.601562 99.234375 3.839844 C 99.234375 5.371094 99.222656 6.882812 99.152344 8.398438 L 99.222656 8.460938 L 100.066406 8.273438 C 100.046875 7.25 100.015625 6.035156 100.015625 5.222656 C 100.015625 4.207031 100.015625 3.203125 100.089844 2.203125 C 100.089844 2.121094 100.164062 2.0625 100.226562 2.0625 L 103.097656 2.0625 C 103.117188 2.0625 103.226562 2.09375 103.226562 2.191406 C 103.234375 3.265625 103.246094 4.46875 103.246094 5.539062 C 103.246094 6.511719 103.246094 7.476562 103.214844 8.449219 L 103.355469 8.558594 L 104.148438 8.339844 C 104.050781 7 104.03125 5.667969 104.03125 4.328125 C 104.03125 3.324219 104.050781 2.179688 104.101562 2.113281 C 104.140625 2.082031 104.179688 2.0625 104.230469 2.054688 L 104.984375 1.882812 "/>
<path style=" stroke:none;fill-rule:nonzero;fill:rgb(0%,0%,0%);fill-opacity:1;" d="M 85.175781 22.367188 C 85.117188 21.851562 85.085938 20.886719 85.078125 20.429688 L 85.175781 20.351562 C 85.367188 20.398438 85.5625 20.429688 85.761719 20.429688 C 87.304688 20.429688 88.34375 18.820312 88.34375 17.359375 C 88.34375 16.617188 88 15.703125 86.984375 15.703125 C 86.300781 15.703125 85.695312 16.007812 85.15625 16.4375 L 85.078125 16.398438 C 85.039062 15.960938 84.878906 15.652344 84.429688 15.652344 C 83.996094 15.652344 83.476562 16.007812 83.082031 16.328125 L 83.21875 16.515625 C 83.457031 16.375 83.734375 16.226562 83.945312 16.226562 C 84.242188 16.226562 84.332031 16.742188 84.332031 17.191406 L 84.332031 19.386719 C 84.332031 19.953125 84.320312 21.988281 84.273438 22.566406 L 84.371094 22.675781 Z M 85.097656 19.664062 C 85.097656 19.65625 85.078125 18.632812 85.078125 17.816406 C 85.078125 17.707031 85.109375 16.953125 85.109375 16.894531 C 85.574219 16.523438 85.980469 16.316406 86.488281 16.316406 C 87.125 16.316406 87.511719 17.082031 87.511719 17.945312 C 87.511719 18.890625 87.171875 20.03125 85.972656 20.03125 C 85.644531 20.03125 85.335938 19.882812 85.097656 19.664062 "/>
<path style=" stroke:none;fill-rule:nonzero;fill:rgb(0%,0%,0%);fill-opacity:1;" d="M 96.964844 17.070312 C 97.132812 17.070312 97.3125 17.070312 97.3125 16.875 C 97.3125 16.675781 97.132812 16.675781 96.964844 16.675781 L 92.742188 16.675781 L 92.742188 13.785156 C 92.742188 13.605469 92.742188 13.425781 92.546875 13.425781 C 92.347656 13.425781 92.347656 13.632812 92.347656 13.785156 L 92.347656 19.960938 C 92.347656 20.109375 92.347656 20.320312 92.546875 20.320312 C 92.742188 20.320312 92.742188 20.140625 92.742188 19.960938 L 92.742188 17.070312 L 96.964844 17.070312 "/>
<path style=" stroke:none;fill-rule:nonzero;fill:rgb(0%,0%,0%);fill-opacity:1;" d="M 106.9375 16.257812 L 100.949219 16.257812 L 100.949219 16.65625 L 106.539062 16.65625 L 106.539062 18.273438 L 106.9375 18.273438 L 106.9375 16.257812 "/>
<path style=" stroke:none;fill-rule:nonzero;fill:rgb(0%,0%,0%);fill-opacity:1;" d="M 113.738281 16.257812 L 107.746094 16.257812 L 107.746094 16.65625 L 113.339844 16.65625 L 113.339844 18.273438 L 113.738281 18.273438 L 113.738281 16.257812 "/>
<path style=" stroke:none;fill-rule:nonzero;fill:rgb(0%,0%,0%);fill-opacity:1;" d="M 116.277344 22.367188 C 116.21875 21.851562 116.1875 20.886719 116.179688 20.429688 L 116.277344 20.351562 C 116.464844 20.398438 116.664062 20.429688 116.863281 20.429688 C 118.402344 20.429688 119.445312 18.820312 119.445312 17.359375 C 119.445312 16.617188 119.097656 15.703125 118.085938 15.703125 C 117.398438 15.703125 116.792969 16.007812 116.257812 16.4375 L 116.179688 16.398438 C 116.136719 15.960938 115.976562 15.652344 115.53125 15.652344 C 115.09375 15.652344 114.578125 16.007812 114.179688 16.328125 L 114.320312 16.515625 C 114.558594 16.375 114.835938 16.226562 115.046875 16.226562 C 115.34375 16.226562 115.433594 16.742188 115.433594 17.191406 L 115.433594 19.386719 C 115.433594 19.953125 115.421875 21.988281 115.371094 22.566406 L 115.472656 22.675781 Z M 116.195312 19.664062 C 116.195312 19.65625 116.179688 18.632812 116.179688 17.816406 C 116.179688 17.707031 116.207031 16.953125 116.207031 16.894531 C 116.671875 16.523438 117.082031 16.316406 117.589844 16.316406 C 118.222656 16.316406 118.609375 17.082031 118.609375 17.945312 C 118.609375 18.890625 118.273438 20.03125 117.070312 20.03125 C 116.742188 20.03125 116.4375 19.882812 116.195312 19.664062 "/>
<path style=" stroke:none;fill-rule:nonzero;fill:rgb(0%,0%,0%);fill-opacity:1;" d="M 146.339844 16.257812 L 140.347656 16.257812 L 140.347656 16.65625 L 145.941406 16.65625 L 145.941406 18.273438 L 146.339844 18.273438 L 146.339844 16.257812 "/>
<path style=" stroke:none;fill-rule:nonzero;fill:rgb(0%,0%,0%);fill-opacity:1;" d="M 153.140625 16.257812 L 147.148438 16.257812 L 147.148438 16.65625 L 152.742188 16.65625 L 152.742188 18.273438 L 153.140625 18.273438 L 153.140625 16.257812 "/>
<path style=" stroke:none;fill-rule:nonzero;fill:rgb(0%,0%,0%);fill-opacity:1;" d="M 160.039062 16.257812 L 154.046875 16.257812 L 154.046875 16.65625 L 159.640625 16.65625 L 159.640625 18.273438 L 160.039062 18.273438 L 160.039062 16.257812 "/>
<path style=" stroke:none;fill-rule:nonzero;fill:rgb(0%,0%,0%);fill-opacity:1;" d="M 162.578125 22.367188 C 162.515625 21.851562 162.488281 20.886719 162.476562 20.429688 L 162.578125 20.351562 C 162.765625 20.398438 162.964844 20.429688 163.164062 20.429688 C 164.703125 20.429688 165.746094 18.820312 165.746094 17.359375 C 165.746094 16.617188 165.398438 15.703125 164.382812 15.703125 C 163.699219 15.703125 163.09375 16.007812 162.554688 16.4375 L 162.476562 16.398438 C 162.4375 15.960938 162.277344 15.652344 161.832031 15.652344 C 161.394531 15.652344 160.878906 16.007812 160.480469 16.328125 L 160.621094 16.515625 C 160.859375 16.375 161.136719 16.226562 161.34375 16.226562 C 161.644531 16.226562 161.734375 16.742188 161.734375 17.191406 L 161.734375 19.386719 C 161.734375 19.953125 161.722656 21.988281 161.671875 22.566406 L 161.773438 22.675781 Z M 162.496094 19.664062 C 162.496094 19.65625 162.476562 18.632812 162.476562 17.816406 C 162.476562 17.707031 162.507812 16.953125 162.507812 16.894531 C 162.972656 16.523438 163.382812 16.316406 163.886719 16.316406 C 164.523438 16.316406 164.910156 17.082031 164.910156 17.945312 C 164.910156 18.890625 164.574219 20.03125 163.371094 20.03125 C 163.042969 20.03125 162.734375 19.882812 162.496094 19.664062 "/>
<path style=" stroke:none;fill-rule:nonzero;fill:rgb(0%,0%,0%);fill-opacity:1;" d="M 174.367188 17.070312 C 174.535156 17.070312 174.714844 17.070312 174.714844 16.875 C 174.714844 16.675781 174.535156 16.675781 174.367188 16.675781 L 170.144531 16.675781 L 170.144531 13.785156 C 170.144531 13.605469 170.144531 13.425781 169.945312 13.425781 C 169.746094 13.425781 169.746094 13.632812 169.746094 13.785156 L 169.746094 19.960938 C 169.746094 20.109375 169.746094 20.320312 169.945312 20.320312 C 170.144531 20.320312 170.144531 20.140625 170.144531 19.960938 L 170.144531 17.070312 L 174.367188 17.070312 "/>
<path style=" stroke:none;fill-rule:nonzero;fill:rgb(0%,0%,0%);fill-opacity:1;" d="M 184.339844 16.257812 L 178.347656 16.257812 L 178.347656 16.65625 L 183.941406 16.65625 L 183.941406 18.273438 L 184.339844 18.273438 L 184.339844 16.257812 "/>
<path style=" stroke:none;fill-rule:nonzero;fill:rgb(0%,0%,0%);fill-opacity:1;" d="M 191.140625 16.257812 L 185.148438 16.257812 L 185.148438 16.65625 L 190.742188 16.65625 L 190.742188 18.273438 L 191.140625 18.273438 L 191.140625 16.257812 "/>
<path style=" stroke:none;fill-rule:nonzero;fill:rgb(0%,0%,0%);fill-opacity:1;" d="M 197.9375 16.257812 L 191.949219 16.257812 L 191.949219 16.65625 L 197.539062 16.65625 L 197.539062 18.273438 L 197.9375 18.273438 L 197.9375 16.257812 "/>
<path style=" stroke:none;fill-rule:nonzero;fill:rgb(0%,0%,0%);fill-opacity:1;" d="M 200.476562 22.367188 C 200.417969 21.851562 200.386719 20.886719 200.378906 20.429688 L 200.476562 20.351562 C 200.664062 20.398438 200.863281 20.429688 201.0625 20.429688 C 202.601562 20.429688 203.644531 18.820312 203.644531 17.359375 C 203.644531 16.617188 203.296875 15.703125 202.285156 15.703125 C 201.601562 15.703125 200.992188 16.007812 200.457031 16.4375 L 200.378906 16.398438 C 200.339844 15.960938 200.179688 15.652344 199.730469 15.652344 C 199.296875 15.652344 198.777344 16.007812 198.382812 16.328125 L 198.519531 16.515625 C 198.757812 16.375 199.035156 16.226562 199.246094 16.226562 C 199.542969 16.226562 199.632812 16.742188 199.632812 17.191406 L 199.632812 19.386719 C 199.632812 19.953125 199.621094 21.988281 199.574219 22.566406 L 199.671875 22.675781 Z M 200.398438 19.664062 C 200.398438 19.65625 200.378906 18.632812 200.378906 17.816406 C 200.378906 17.707031 200.40625 16.953125 200.40625 16.894531 C 200.871094 16.523438 201.28125 16.316406 201.789062 16.316406 C 202.421875 16.316406 202.8125 17.082031 202.8125 17.945312 C 202.8125 18.890625 202.472656 20.03125 201.273438 20.03125 C 200.945312 20.03125 200.636719 19.882812 200.398438 19.664062 "/>
<g clip-path="url(#clip1)" clip-rule="nonzero">
<path style="fill:none;stroke-width:3.98;stroke-linecap:butt;stroke-linejoin:miter;stroke:rgb(0%,0%,0%);stroke-opacity:1;stroke-miterlimit:10;" d="M 782.03125 238.114063 L 2093.75 238.114063 " transform="matrix(0.1,0,0,-0.1,0,49.12)"/>
</g>
<path style=" stroke:none;fill-rule:nonzero;fill:rgb(0%,0%,0%);fill-opacity:1;" d="M 117.777344 36.667969 C 117.71875 36.148438 117.6875 35.1875 117.679688 34.730469 L 117.777344 34.648438 C 117.964844 34.699219 118.164062 34.730469 118.363281 34.730469 C 119.902344 34.730469 120.945312 33.121094 120.945312 31.660156 C 120.945312 30.914062 120.597656 30 119.585938 30 C 118.898438 30 118.292969 30.308594 117.757812 30.734375 L 117.679688 30.695312 C 117.636719 30.257812 117.476562 29.953125 117.03125 29.953125 C 116.59375 29.953125 116.078125 30.308594 115.679688 30.625 L 115.820312 30.816406 C 116.058594 30.675781 116.335938 30.527344 116.546875 30.527344 C 116.84375 30.527344 116.933594 31.042969 116.933594 31.492188 L 116.933594 33.6875 C 116.933594 34.253906 116.921875 36.289062 116.871094 36.867188 L 116.972656 36.976562 Z M 117.695312 33.964844 C 117.695312 33.953125 117.679688 32.929688 117.679688 32.117188 C 117.679688 32.007812 117.707031 31.253906 117.707031 31.195312 C 118.171875 30.824219 118.582031 30.617188 119.089844 30.617188 C 119.722656 30.617188 120.109375 31.382812 120.109375 32.246094 C 120.109375 33.191406 119.773438 34.332031 118.570312 34.332031 C 118.242188 34.332031 117.9375 34.183594 117.695312 33.964844 "/>
<path style=" stroke:none;fill-rule:nonzero;fill:rgb(0%,0%,0%);fill-opacity:1;" d="M 122.792969 36.707031 C 123.496094 35.890625 123.828125 35.386719 123.828125 34.890625 C 123.828125 34.539062 123.476562 33.25 122.953125 33.25 C 122.703125 33.25 122.367188 33.46875 122.367188 33.726562 C 122.367188 33.824219 122.394531 33.933594 122.433594 33.984375 L 123.128906 34.808594 C 123.21875 34.917969 123.257812 35.085938 123.257812 35.226562 C 123.257812 35.625 122.953125 36.109375 122.605469 36.566406 L 122.792969 36.707031 "/>
<path style=" stroke:none;fill-rule:nonzero;fill:rgb(0%,0%,0%);fill-opacity:1;" d="M 132.339844 30.558594 L 126.347656 30.558594 L 126.347656 30.953125 L 131.941406 30.953125 L 131.941406 32.574219 L 132.339844 32.574219 L 132.339844 30.558594 "/>
<path style=" stroke:none;fill-rule:nonzero;fill:rgb(0%,0%,0%);fill-opacity:1;" d="M 139.140625 30.558594 L 133.148438 30.558594 L 133.148438 30.953125 L 138.742188 30.953125 L 138.742188 32.574219 L 139.140625 32.574219 L 139.140625 30.558594 "/>
<path style=" stroke:none;fill-rule:nonzero;fill:rgb(0%,0%,0%);fill-opacity:1;" d="M 145.9375 30.558594 L 139.949219 30.558594 L 139.949219 30.953125 L 145.539062 30.953125 L 145.539062 32.574219 L 145.9375 32.574219 L 145.9375 30.558594 "/>
<path style=" stroke:none;fill-rule:nonzero;fill:rgb(0%,0%,0%);fill-opacity:1;" d="M 148.476562 36.667969 C 148.417969 36.148438 148.386719 35.1875 148.378906 34.730469 L 148.476562 34.648438 C 148.664062 34.699219 148.863281 34.730469 149.0625 34.730469 C 150.601562 34.730469 151.644531 33.121094 151.644531 31.660156 C 151.644531 30.914062 151.296875 30 150.285156 30 C 149.601562 30 148.992188 30.308594 148.457031 30.734375 L 148.378906 30.695312 C 148.339844 30.257812 148.179688 29.953125 147.730469 29.953125 C 147.296875 29.953125 146.777344 30.308594 146.382812 30.625 L 146.519531 30.816406 C 146.757812 30.675781 147.035156 30.527344 147.246094 30.527344 C 147.542969 30.527344 147.632812 31.042969 147.632812 31.492188 L 147.632812 33.6875 C 147.632812 34.253906 147.621094 36.289062 147.574219 36.867188 L 147.671875 36.976562 Z M 148.398438 33.964844 C 148.398438 33.953125 148.378906 32.929688 148.378906 32.117188 C 148.378906 32.007812 148.40625 31.253906 148.40625 31.195312 C 148.871094 30.824219 149.28125 30.617188 149.789062 30.617188 C 150.421875 30.617188 150.8125 31.382812 150.8125 32.246094 C 150.8125 33.191406 150.472656 34.332031 149.273438 34.332031 C 148.945312 34.332031 148.636719 34.183594 148.398438 33.964844 "/>
<path style=" stroke:none;fill-rule:nonzero;fill:rgb(0%,0%,0%);fill-opacity:1;" d="M 160.367188 31.371094 C 160.535156 31.371094 160.714844 31.371094 160.714844 31.171875 C 160.714844 30.976562 160.535156 30.976562 160.367188 30.976562 L 156.144531 30.976562 L 156.144531 28.085938 C 156.144531 27.90625 156.144531 27.726562 155.945312 27.726562 C 155.746094 27.726562 155.746094 27.933594 155.746094 28.085938 L 155.746094 34.261719 C 155.746094 34.410156 155.746094 34.621094 155.945312 34.621094 C 156.144531 34.621094 156.144531 34.441406 156.144531 34.261719 L 156.144531 31.371094 L 160.367188 31.371094 "/>
<path style=" stroke:none;fill-rule:nonzero;fill:rgb(0%,0%,0%);fill-opacity:1;" d="M 168.0625 28.34375 C 168.0625 28.164062 168.0625 27.984375 167.863281 27.984375 C 167.664062 27.984375 167.664062 28.195312 167.664062 28.34375 L 167.664062 34.222656 L 164.90625 34.222656 C 164.753906 34.222656 164.546875 34.222656 164.546875 34.421875 C 164.546875 34.621094 164.753906 34.621094 164.90625 34.621094 L 170.835938 34.621094 C 171.003906 34.621094 171.183594 34.621094 171.183594 34.421875 C 171.183594 34.222656 171.003906 34.222656 170.835938 34.222656 L 168.0625 34.222656 L 168.0625 28.34375 "/>
<g clip-path="url(#clip2)" clip-rule="nonzero">
<path style="fill:none;stroke-width:3.98;stroke-linecap:butt;stroke-linejoin:miter;stroke:rgb(0%,0%,0%);stroke-opacity:1;stroke-miterlimit:10;" d="M 372.226562 112.059375 L 2093.75 112.059375 " transform="matrix(0.1,0,0,-0.1,0,49.12)"/>
</g>
<path style=" stroke:none;fill-rule:nonzero;fill:rgb(0%,0%,0%);fill-opacity:1;" d="M 104.238281 43.15625 L 98.25 43.15625 L 98.25 43.554688 L 103.839844 43.554688 L 103.839844 45.171875 L 104.238281 45.171875 L 104.238281 43.15625 "/>
<path style=" stroke:none;fill-rule:nonzero;fill:rgb(0%,0%,0%);fill-opacity:1;" d="M 111.039062 43.15625 L 105.046875 43.15625 L 105.046875 43.554688 L 110.640625 43.554688 L 110.640625 45.171875 L 111.039062 45.171875 L 111.039062 43.15625 "/>
<path style=" stroke:none;fill-rule:nonzero;fill:rgb(0%,0%,0%);fill-opacity:1;" d="M 117.839844 43.15625 L 111.847656 43.15625 L 111.847656 43.554688 L 117.441406 43.554688 L 117.441406 45.171875 L 117.839844 45.171875 L 117.839844 43.15625 "/>
<g clip-path="url(#clip3)" clip-rule="nonzero">
<path style=" stroke:none;fill-rule:nonzero;fill:rgb(0%,0%,0%);fill-opacity:1;" d="M 120.378906 49.265625 C 120.316406 48.75 120.289062 47.785156 120.277344 47.328125 L 120.378906 47.25 C 120.566406 47.300781 120.765625 47.328125 120.964844 47.328125 C 122.503906 47.328125 123.546875 45.71875 123.546875 44.257812 C 123.546875 43.515625 123.199219 42.601562 122.183594 42.601562 C 121.5 42.601562 120.894531 42.910156 120.355469 43.335938 L 120.277344 43.296875 C 120.238281 42.859375 120.078125 42.550781 119.632812 42.550781 C 119.195312 42.550781 118.679688 42.910156 118.28125 43.226562 L 118.421875 43.414062 C 118.65625 43.277344 118.9375 43.128906 119.144531 43.128906 C 119.445312 43.128906 119.53125 43.644531 119.53125 44.089844 L 119.53125 46.285156 C 119.53125 46.851562 119.523438 48.890625 119.472656 49.464844 L 119.570312 49.574219 Z M 120.296875 46.5625 C 120.296875 46.554688 120.277344 45.53125 120.277344 44.71875 C 120.277344 44.609375 120.308594 43.851562 120.308594 43.792969 C 120.773438 43.425781 121.179688 43.21875 121.6875 43.21875 C 122.324219 43.21875 122.710938 43.980469 122.710938 44.847656 C 122.710938 45.789062 122.371094 46.933594 121.171875 46.933594 C 120.84375 46.933594 120.535156 46.78125 120.296875 46.5625 "/>
</g>
<path style=" stroke:none;fill-rule:nonzero;fill:rgb(0%,0%,0%);fill-opacity:1;" d="M 132.265625 43.972656 C 132.433594 43.972656 132.613281 43.972656 132.613281 43.773438 C 132.613281 43.574219 132.433594 43.574219 132.265625 43.574219 L 128.042969 43.574219 L 128.042969 40.683594 C 128.042969 40.503906 128.042969 40.328125 127.84375 40.328125 C 127.648438 40.328125 127.648438 40.535156 127.648438 40.683594 L 127.648438 46.863281 C 127.648438 47.011719 127.648438 47.21875 127.84375 47.21875 C 128.042969 47.21875 128.042969 47.042969 128.042969 46.863281 L 128.042969 43.972656 L 132.265625 43.972656 "/>
<path style=" stroke:none;fill-rule:nonzero;fill:rgb(0%,0%,0%);fill-opacity:1;" d="M 142.140625 43.15625 L 136.148438 43.15625 L 136.148438 43.554688 L 141.742188 43.554688 L 141.742188 45.171875 L 142.140625 45.171875 L 142.140625 43.15625 "/>
<g clip-path="url(#clip4)" clip-rule="nonzero">
<path style=" stroke:none;fill-rule:nonzero;fill:rgb(0%,0%,0%);fill-opacity:1;" d="M 144.675781 49.265625 C 144.617188 48.75 144.589844 47.785156 144.578125 47.328125 L 144.675781 47.25 C 144.867188 47.300781 145.0625 47.328125 145.261719 47.328125 C 146.804688 47.328125 147.84375 45.71875 147.84375 44.257812 C 147.84375 43.515625 147.496094 42.601562 146.484375 42.601562 C 145.800781 42.601562 145.195312 42.910156 144.65625 43.335938 L 144.578125 43.296875 C 144.539062 42.859375 144.378906 42.550781 143.929688 42.550781 C 143.496094 42.550781 142.976562 42.910156 142.582031 43.226562 L 142.71875 43.414062 C 142.957031 43.277344 143.234375 43.128906 143.445312 43.128906 C 143.742188 43.128906 143.832031 43.644531 143.832031 44.089844 L 143.832031 46.285156 C 143.832031 46.851562 143.820312 48.890625 143.773438 49.464844 L 143.871094 49.574219 Z M 144.597656 46.5625 C 144.597656 46.554688 144.578125 45.53125 144.578125 44.71875 C 144.578125 44.609375 144.609375 43.851562 144.609375 43.792969 C 145.074219 43.425781 145.480469 43.21875 145.988281 43.21875 C 146.621094 43.21875 147.011719 43.980469 147.011719 44.847656 C 147.011719 45.789062 146.671875 46.933594 145.472656 46.933594 C 145.144531 46.933594 144.835938 46.78125 144.597656 46.5625 "/>
</g>
</g>
</svg>
