<?xml version="1.0" encoding="UTF-8"?>
<svg xmlns="http://www.w3.org/2000/svg" xmlns:xlink="http://www.w3.org/1999/xlink" width="298.93pt" height="63.11pt" viewBox="0 0 298.93 63.11" version="1.1">
<defs>
<clipPath id="clip1">
  <path d="M 72 39 L 298.929688 39 L 298.929688 40 L 72 40 Z M 72 39 "/>
</clipPath>
<clipPath id="clip2">
  <path d="M 34 51 L 298.929688 51 L 298.929688 53 L 34 53 Z M 34 51 "/>
</clipPath>
<clipPath id="clip3">
  <path d="M 139 56 L 145 56 L 145 63.109375 L 139 63.109375 Z M 139 56 "/>
</clipPath>
<clipPath id="clip4">
  <path d="M 160 56 L 167 56 L 167 63.109375 L 160 63.109375 Z M 160 56 "/>
</clipPath>
<clipPath id="clip5">
  <path d="M 201 56 L 207 56 L 207 63.109375 L 201 63.109375 Z M 201 56 "/>
</clipPath>
</defs>
<g id="surface1">
<path style=" stroke:none;fill-rule:nonzero;fill:rgb(0%,0%,0%);fill-opacity:1;" d="M 2.992188 56.027344 C 1.710938 55.78125 1.640625 53.367188 1.640625 51.6875 C 1.640625 50.1875 1.726562 47.664062 2.992188 47.347656 L 2.992188 47.078125 C 1.957031 47.257812 1.507812 48.390625 1.320312 49.34375 C 1.171875 50.089844 1.121094 50.863281 1.121094 51.628906 C 1.121094 52.433594 1.164062 53.238281 1.300781 54.03125 C 1.46875 54.976562 1.945312 56.179688 2.992188 56.269531 L 2.992188 56.027344 "/>
<path style=" stroke:none;fill-rule:nonzero;fill:rgb(0%,0%,0%);fill-opacity:1;" d="M 12.582031 52.125 C 12.214844 52.582031 11.6875 53.367188 11.4375 54.410156 L 11.835938 54.410156 C 12.144531 53.109375 12.980469 52.207031 13.277344 51.925781 C 12.960938 51.628906 12.144531 50.734375 11.835938 49.441406 L 11.4375 49.441406 C 11.6875 50.476562 12.203125 51.261719 12.582031 51.726562 L 4.804688 51.726562 C 4.625 51.726562 4.457031 51.726562 4.457031 51.925781 C 4.457031 52.125 4.632812 52.125 4.804688 52.125 L 12.582031 52.125 "/>
<path style=" stroke:none;fill-rule:nonzero;fill:rgb(0%,0%,0%);fill-opacity:1;" d="M 17.238281 54.417969 L 17.257812 54.183594 C 17.246094 54.183594 16.820312 54.074219 16.609375 54.011719 C 16.195312 53.902344 16.304688 53.160156 16.292969 52.730469 C 16.28125 52.125 16.273438 51.511719 16.273438 50.84375 C 16.273438 50.070312 16.214844 48.886719 16.304688 48.300781 C 16.3125 48.183594 16.390625 48.074219 16.523438 48.042969 L 17.1875 47.894531 L 17.1875 47.683594 L 17.128906 47.625 L 14.644531 47.625 L 14.574219 47.683594 L 14.574219 47.902344 C 15.367188 48.082031 15.4375 48.03125 15.460938 48.332031 C 15.488281 48.707031 15.488281 49.085938 15.488281 49.472656 L 15.488281 53.078125 C 15.449219 53.902344 15.578125 53.972656 14.605469 54.160156 L 14.605469 54.417969 L 17.238281 54.417969 "/>
<path style=" stroke:none;fill-rule:nonzero;fill:rgb(0%,0%,0%);fill-opacity:1;" d="M 18.65625 47.367188 C 19.460938 47.65625 19.6875 48.589844 19.835938 49.332031 C 19.984375 50.097656 20.023438 50.894531 20.023438 51.667969 C 20.023438 52.800781 20.046875 54.011719 19.6875 55.074219 C 19.488281 55.671875 19.109375 55.929688 18.65625 56.050781 L 18.65625 56.289062 C 20.433594 56.058594 20.542969 53.40625 20.542969 51.707031 C 20.542969 50.050781 20.332031 47.445312 18.65625 47.097656 L 18.65625 47.367188 "/>
<path style=" stroke:none;fill-rule:nonzero;fill:rgb(0%,0%,0%);fill-opacity:1;" d="M 39.089844 43.429688 C 37.808594 43.179688 37.738281 40.765625 37.738281 39.089844 C 37.738281 37.589844 37.828125 35.066406 39.089844 34.746094 L 39.089844 34.480469 C 38.054688 34.660156 37.609375 35.789062 37.421875 36.746094 C 37.273438 37.488281 37.222656 38.261719 37.222656 39.027344 C 37.222656 39.832031 37.261719 40.636719 37.402344 41.433594 C 37.570312 42.375 38.046875 43.578125 39.089844 43.667969 L 39.089844 43.429688 "/>
<path style=" stroke:none;fill-rule:nonzero;fill:rgb(0%,0%,0%);fill-opacity:1;" d="M 48.683594 39.527344 C 48.3125 39.980469 47.789062 40.765625 47.539062 41.808594 L 47.9375 41.808594 C 48.246094 40.507812 49.078125 39.605469 49.378906 39.328125 C 49.058594 39.027344 48.246094 38.136719 47.9375 36.84375 L 47.539062 36.84375 C 47.789062 37.875 48.304688 38.660156 48.683594 39.128906 L 40.90625 39.128906 C 40.726562 39.128906 40.554688 39.128906 40.554688 39.328125 C 40.554688 39.527344 40.734375 39.527344 40.90625 39.527344 L 48.683594 39.527344 "/>
<path style=" stroke:none;fill-rule:nonzero;fill:rgb(0%,0%,0%);fill-opacity:1;" d="M 54.429688 38.472656 L 54.488281 37.996094 L 54.429688 37.925781 C 53.902344 37.964844 53.167969 37.996094 52.640625 37.996094 C 52.273438 37.996094 51.984375 38.027344 51.984375 37.855469 L 51.984375 36.207031 C 51.984375 35.859375 52.027344 35.492188 52.226562 35.453125 L 52.621094 35.453125 C 52.691406 35.453125 54.011719 35.511719 54.699219 35.550781 L 54.738281 35.480469 L 54.757812 34.984375 C 54.628906 34.976562 54.480469 34.976562 54.300781 34.976562 C 53.59375 34.984375 52.59375 35.035156 51.898438 35.035156 L 50.425781 35.042969 L 50.355469 35.113281 L 50.367188 35.3125 C 50.835938 35.382812 51.0625 35.503906 51.121094 35.632812 C 51.210938 35.832031 51.210938 36.128906 51.210938 36.265625 L 51.210938 41.152344 C 51.210938 41.421875 51.269531 41.699219 51.46875 41.808594 L 55.324219 41.808594 L 55.453125 41.285156 L 55.402344 41.234375 C 53.773438 41.371094 53.546875 41.371094 53.078125 41.371094 C 52.472656 41.371094 52.265625 41.3125 52.125 41.054688 C 51.984375 40.808594 51.976562 40.320312 51.976562 39.941406 L 51.976562 38.5625 C 51.976562 38.382812 52.679688 38.414062 53.257812 38.414062 C 53.644531 38.414062 54.042969 38.441406 54.429688 38.472656 "/>
<path style=" stroke:none;fill-rule:nonzero;fill:rgb(0%,0%,0%);fill-opacity:1;" d="M 56.855469 34.765625 C 57.660156 35.054688 57.886719 35.988281 58.035156 36.734375 C 58.1875 37.5 58.226562 38.292969 58.226562 39.066406 C 58.226562 40.199219 58.246094 41.414062 57.886719 42.476562 C 57.6875 43.070312 57.3125 43.332031 56.855469 43.449219 L 56.855469 43.6875 C 58.632812 43.457031 58.742188 40.808594 58.742188 39.109375 C 58.742188 37.449219 58.53125 34.847656 56.855469 34.5 L 56.855469 34.765625 "/>
<path style=" stroke:none;fill-rule:nonzero;fill:rgb(0%,0%,0%);fill-opacity:1;" d="M 77.289062 30.027344 C 76.007812 29.78125 75.9375 27.367188 75.9375 25.6875 C 75.9375 24.1875 76.027344 21.664062 77.289062 21.347656 L 77.289062 21.078125 C 76.257812 21.257812 75.808594 22.390625 75.621094 23.34375 C 75.472656 24.089844 75.421875 24.863281 75.421875 25.628906 C 75.421875 26.433594 75.460938 27.238281 75.601562 28.03125 C 75.769531 28.976562 76.246094 30.179688 77.289062 30.269531 L 77.289062 30.027344 "/>
<path style=" stroke:none;fill-rule:nonzero;fill:rgb(0%,0%,0%);fill-opacity:1;" d="M 86.882812 26.125 C 86.515625 26.582031 85.988281 27.367188 85.738281 28.410156 L 86.136719 28.410156 C 86.445312 27.109375 87.28125 26.207031 87.578125 25.925781 C 87.257812 25.628906 86.445312 24.734375 86.136719 23.441406 L 85.738281 23.441406 C 85.988281 24.476562 86.503906 25.261719 86.882812 25.726562 L 79.105469 25.726562 C 78.925781 25.726562 78.757812 25.726562 78.757812 25.925781 C 78.757812 26.125 78.933594 26.125 79.105469 26.125 L 86.882812 26.125 "/>
<path style=" stroke:none;fill-rule:nonzero;fill:rgb(0%,0%,0%);fill-opacity:1;" d="M 91.636719 28.417969 L 91.65625 28.183594 C 91.648438 28.183594 91.21875 28.074219 91.011719 28.011719 C 90.59375 27.902344 90.703125 27.160156 90.695312 26.730469 C 90.683594 26.125 90.671875 25.511719 90.671875 24.84375 C 90.671875 24.070312 90.613281 22.886719 90.703125 22.300781 C 90.710938 22.183594 90.792969 22.074219 90.921875 22.042969 L 91.585938 21.894531 L 91.585938 21.683594 L 91.527344 21.625 L 89.042969 21.625 L 88.976562 21.683594 L 88.976562 21.902344 C 89.769531 22.082031 89.839844 22.03125 89.859375 22.332031 C 89.890625 22.707031 89.890625 23.085938 89.890625 23.472656 L 89.890625 27.078125 C 89.847656 27.902344 89.976562 27.972656 89.003906 28.160156 L 89.003906 28.417969 L 91.636719 28.417969 "/>
<path style=" stroke:none;fill-rule:nonzero;fill:rgb(0%,0%,0%);fill-opacity:1;" d="M 92.953125 21.367188 C 93.757812 21.65625 93.988281 22.589844 94.136719 23.332031 C 94.285156 24.097656 94.324219 24.894531 94.324219 25.667969 C 94.324219 26.800781 94.34375 28.011719 93.988281 29.074219 C 93.789062 29.671875 93.410156 29.929688 92.953125 30.050781 L 92.953125 30.289062 C 94.734375 30.058594 94.84375 27.40625 94.84375 25.707031 C 94.84375 24.050781 94.632812 21.445312 92.953125 21.097656 L 92.953125 21.367188 "/>
<path style=" stroke:none;fill-rule:nonzero;fill:rgb(0%,0%,0%);fill-opacity:1;" d="M 113.390625 17.429688 C 112.109375 17.179688 112.039062 14.765625 112.039062 13.089844 C 112.039062 11.589844 112.128906 9.066406 113.390625 8.746094 L 113.390625 8.480469 C 112.355469 8.660156 111.910156 9.789062 111.722656 10.746094 C 111.570312 11.488281 111.523438 12.261719 111.523438 13.027344 C 111.523438 13.832031 111.5625 14.636719 111.703125 15.433594 C 111.871094 16.375 112.347656 17.578125 113.390625 17.667969 L 113.390625 17.429688 "/>
<path style=" stroke:none;fill-rule:nonzero;fill:rgb(0%,0%,0%);fill-opacity:1;" d="M 124.023438 9.105469 C 123.855469 9.421875 123.636719 9.808594 123.429688 10.265625 L 122.347656 12.671875 L 121.550781 14.359375 C 121.53125 14.390625 121.511719 14.429688 121.421875 14.429688 C 121.242188 14.429688 121.054688 13.128906 120.9375 12.582031 C 120.628906 11.132812 120.320312 9.632812 120.320312 9.015625 L 120.25 8.957031 L 119.496094 9.246094 C 119.046875 10.496094 117.738281 13.386719 117.320312 14.210938 C 117.308594 14.230469 117.28125 14.25 117.25 14.25 C 117.230469 14.25 117.191406 14.242188 117.179688 14.191406 C 116.792969 12.453125 116.207031 9.769531 116.058594 8.964844 L 114.507812 8.996094 L 114.429688 9.066406 L 114.449219 9.304688 C 114.757812 9.363281 115.054688 9.433594 115.164062 9.710938 C 115.464844 10.476562 115.660156 11.28125 115.859375 12.085938 C 116.15625 13.335938 116.40625 14.597656 116.632812 15.871094 L 116.742188 15.917969 L 117.378906 15.632812 C 117.847656 14.089844 118.652344 12.3125 119.1875 11.113281 L 119.464844 10.484375 C 119.484375 10.4375 119.523438 10.367188 119.554688 10.367188 C 119.605469 10.367188 119.613281 10.4375 119.625 10.484375 C 120.023438 12.261719 120.390625 14.042969 120.707031 15.839844 L 120.828125 15.917969 L 121.421875 15.652344 C 122.070312 14.089844 123.21875 11.808594 123.6875 11.042969 L 124.828125 9.175781 L 124.828125 8.964844 L 124.023438 9.105469 "/>
<path style=" stroke:none;fill-rule:nonzero;fill:rgb(0%,0%,0%);fill-opacity:1;" d="M 125.554688 8.765625 C 126.359375 9.054688 126.589844 9.988281 126.734375 10.734375 C 126.886719 11.5 126.925781 12.292969 126.925781 13.066406 C 126.925781 14.199219 126.945312 15.414062 126.589844 16.476562 C 126.390625 17.070312 126.011719 17.332031 125.554688 17.449219 L 125.554688 17.6875 C 127.332031 17.457031 127.441406 14.808594 127.441406 13.109375 C 127.441406 11.449219 127.234375 8.847656 125.554688 8.5 L 125.554688 8.765625 "/>
<path style=" stroke:none;fill-rule:nonzero;fill:rgb(0%,0%,0%);fill-opacity:1;" d="M 153.964844 2.132812 C 153.964844 1.953125 153.964844 1.773438 153.765625 1.773438 C 153.566406 1.773438 153.566406 1.984375 153.566406 2.132812 L 153.566406 8.011719 L 150.804688 8.011719 C 150.65625 8.011719 150.445312 8.011719 150.445312 8.210938 C 150.445312 8.410156 150.65625 8.410156 150.804688 8.410156 L 156.734375 8.410156 C 156.902344 8.410156 157.082031 8.410156 157.082031 8.210938 C 157.082031 8.011719 156.902344 8.011719 156.734375 8.011719 L 153.964844 8.011719 L 153.964844 2.132812 "/>
<path style=" stroke:none;fill-rule:nonzero;fill:rgb(0%,0%,0%);fill-opacity:1;" d="M 165.664062 5.160156 C 165.835938 5.160156 166.011719 5.160156 166.011719 4.964844 C 166.011719 4.765625 165.835938 4.765625 165.664062 4.765625 L 161.445312 4.765625 L 161.445312 1.875 C 161.445312 1.695312 161.445312 1.515625 161.246094 1.515625 C 161.046875 1.515625 161.046875 1.722656 161.046875 1.875 L 161.046875 8.050781 C 161.046875 8.199219 161.046875 8.410156 161.246094 8.410156 C 161.445312 8.410156 161.445312 8.230469 161.445312 8.050781 L 161.445312 5.160156 L 165.664062 5.160156 "/>
<path style=" stroke:none;fill-rule:nonzero;fill:rgb(0%,0%,0%);fill-opacity:1;" d="M 173.363281 2.132812 C 173.363281 1.953125 173.363281 1.773438 173.164062 1.773438 C 172.964844 1.773438 172.964844 1.984375 172.964844 2.132812 L 172.964844 8.011719 L 170.203125 8.011719 C 170.054688 8.011719 169.847656 8.011719 169.847656 8.210938 C 169.847656 8.410156 170.054688 8.410156 170.203125 8.410156 L 176.132812 8.410156 C 176.304688 8.410156 176.484375 8.410156 176.484375 8.210938 C 176.484375 8.011719 176.304688 8.011719 176.132812 8.011719 L 173.363281 8.011719 L 173.363281 2.132812 "/>
<path style="fill:none;stroke-width:3.98;stroke-linecap:butt;stroke-linejoin:miter;stroke:rgb(0%,0%,0%);stroke-opacity:1;stroke-miterlimit:10;" d="M 1413.828125 497.623438 L 1856.210938 497.623438 " transform="matrix(0.1,0,0,-0.1,0,63.11)"/>
<path style=" stroke:none;fill-rule:nonzero;fill:rgb(0%,0%,0%);fill-opacity:1;" d="M 147.640625 18.648438 L 141.648438 18.648438 L 141.648438 19.042969 L 147.242188 19.042969 L 147.242188 20.664062 L 147.640625 20.664062 L 147.640625 18.648438 "/>
<path style=" stroke:none;fill-rule:nonzero;fill:rgb(0%,0%,0%);fill-opacity:1;" d="M 150.175781 24.757812 C 150.117188 24.238281 150.089844 23.277344 150.078125 22.820312 L 150.175781 22.738281 C 150.367188 22.789062 150.5625 22.820312 150.761719 22.820312 C 152.304688 22.820312 153.34375 21.210938 153.34375 19.75 C 153.34375 19.003906 152.996094 18.089844 151.984375 18.089844 C 151.300781 18.089844 150.695312 18.398438 150.15625 18.824219 L 150.078125 18.785156 C 150.039062 18.347656 149.878906 18.042969 149.429688 18.042969 C 148.996094 18.042969 148.476562 18.398438 148.082031 18.714844 L 148.21875 18.90625 C 148.457031 18.765625 148.734375 18.617188 148.945312 18.617188 C 149.242188 18.617188 149.332031 19.132812 149.332031 19.582031 L 149.332031 21.777344 C 149.332031 22.34375 149.320312 24.378906 149.273438 24.957031 L 149.371094 25.066406 Z M 150.097656 22.054688 C 150.097656 22.042969 150.078125 21.019531 150.078125 20.207031 C 150.078125 20.097656 150.109375 19.34375 150.109375 19.285156 C 150.574219 18.914062 150.980469 18.707031 151.488281 18.707031 C 152.121094 18.707031 152.511719 19.472656 152.511719 20.335938 C 152.511719 21.28125 152.171875 22.421875 150.972656 22.421875 C 150.644531 22.421875 150.335938 22.273438 150.097656 22.054688 "/>
<path style=" stroke:none;fill-rule:nonzero;fill:rgb(0%,0%,0%);fill-opacity:1;" d="M 155.191406 24.796875 C 155.898438 23.980469 156.226562 23.476562 156.226562 22.980469 C 156.226562 22.628906 155.878906 21.339844 155.351562 21.339844 C 155.101562 21.339844 154.765625 21.558594 154.765625 21.816406 C 154.765625 21.914062 154.796875 22.023438 154.835938 22.074219 L 155.53125 22.898438 C 155.621094 23.007812 155.660156 23.175781 155.660156 23.316406 C 155.660156 23.714844 155.351562 24.199219 155.003906 24.65625 L 155.191406 24.796875 "/>
<path style=" stroke:none;fill-rule:nonzero;fill:rgb(0%,0%,0%);fill-opacity:1;" d="M 162.5625 16.433594 C 162.5625 16.253906 162.5625 16.074219 162.363281 16.074219 C 162.164062 16.074219 162.164062 16.285156 162.164062 16.433594 L 162.164062 22.3125 L 159.40625 22.3125 C 159.253906 22.3125 159.046875 22.3125 159.046875 22.511719 C 159.046875 22.710938 159.253906 22.710938 159.40625 22.710938 L 165.335938 22.710938 C 165.503906 22.710938 165.683594 22.710938 165.683594 22.511719 C 165.683594 22.3125 165.503906 22.3125 165.335938 22.3125 L 162.5625 22.3125 L 162.5625 16.433594 "/>
<path style=" stroke:none;fill-rule:nonzero;fill:rgb(0%,0%,0%);fill-opacity:1;" d="M 174.164062 19.460938 C 174.335938 19.460938 174.511719 19.460938 174.511719 19.261719 C 174.511719 19.066406 174.335938 19.066406 174.164062 19.066406 L 169.945312 19.066406 L 169.945312 16.175781 C 169.945312 15.996094 169.945312 15.816406 169.746094 15.816406 C 169.546875 15.816406 169.546875 16.023438 169.546875 16.175781 L 169.546875 22.351562 C 169.546875 22.5 169.546875 22.710938 169.746094 22.710938 C 169.945312 22.710938 169.945312 22.53125 169.945312 22.351562 L 169.945312 19.460938 L 174.164062 19.460938 "/>
<path style=" stroke:none;fill-rule:nonzero;fill:rgb(0%,0%,0%);fill-opacity:1;" d="M 181.964844 16.433594 C 181.964844 16.253906 181.964844 16.074219 181.765625 16.074219 C 181.566406 16.074219 181.566406 16.285156 181.566406 16.433594 L 181.566406 22.3125 L 178.804688 22.3125 C 178.65625 22.3125 178.445312 22.3125 178.445312 22.511719 C 178.445312 22.710938 178.65625 22.710938 178.804688 22.710938 L 184.734375 22.710938 C 184.902344 22.710938 185.082031 22.710938 185.082031 22.511719 C 185.082031 22.3125 184.902344 22.3125 184.734375 22.3125 L 181.964844 22.3125 L 181.964844 16.433594 "/>
<path style="fill:none;stroke-width:3.98;stroke-linecap:butt;stroke-linejoin:miter;stroke:rgb(0%,0%,0%);stroke-opacity:1;stroke-miterlimit:10;" d="M 1087.8125 371.607813 L 1856.210938 371.607813 " transform="matrix(0.1,0,0,-0.1,0,63.11)"/>
<path style=" stroke:none;fill-rule:nonzero;fill:rgb(0%,0%,0%);fill-opacity:1;" d="M 131.863281 29.03125 C 131.863281 28.855469 131.863281 28.675781 131.664062 28.675781 C 131.464844 28.675781 131.464844 28.882812 131.464844 29.03125 L 131.464844 34.914062 L 128.703125 34.914062 C 128.554688 34.914062 128.347656 34.914062 128.347656 35.113281 C 128.347656 35.308594 128.554688 35.308594 128.703125 35.308594 L 134.632812 35.308594 C 134.804688 35.308594 134.984375 35.308594 134.984375 35.113281 C 134.984375 34.914062 134.804688 34.914062 134.632812 34.914062 L 131.863281 34.914062 L 131.863281 29.03125 "/>
<path style=" stroke:none;fill-rule:nonzero;fill:rgb(0%,0%,0%);fill-opacity:1;" d="M 143.464844 32.0625 C 143.632812 32.0625 143.8125 32.0625 143.8125 31.863281 C 143.8125 31.664062 143.632812 31.664062 143.464844 31.664062 L 139.242188 31.664062 L 139.242188 28.773438 C 139.242188 28.59375 139.242188 28.417969 139.046875 28.417969 C 138.847656 28.417969 138.847656 28.625 138.847656 28.773438 L 138.847656 34.953125 C 138.847656 35.101562 138.847656 35.308594 139.046875 35.308594 C 139.242188 35.308594 139.242188 35.132812 139.242188 34.953125 L 139.242188 32.0625 L 143.464844 32.0625 "/>
<path style=" stroke:none;fill-rule:nonzero;fill:rgb(0%,0%,0%);fill-opacity:1;" d="M 153.339844 31.246094 L 147.347656 31.246094 L 147.347656 31.644531 L 152.941406 31.644531 L 152.941406 33.261719 L 153.339844 33.261719 L 153.339844 31.246094 "/>
<path style=" stroke:none;fill-rule:nonzero;fill:rgb(0%,0%,0%);fill-opacity:1;" d="M 160.238281 31.246094 L 154.246094 31.246094 L 154.246094 31.644531 L 159.839844 31.644531 L 159.839844 33.261719 L 160.238281 33.261719 L 160.238281 31.246094 "/>
<path style=" stroke:none;fill-rule:nonzero;fill:rgb(0%,0%,0%);fill-opacity:1;" d="M 162.777344 37.355469 C 162.71875 36.839844 162.6875 35.875 162.679688 35.417969 L 162.777344 35.339844 C 162.964844 35.390625 163.164062 35.417969 163.363281 35.417969 C 164.902344 35.417969 165.945312 33.808594 165.945312 32.347656 C 165.945312 31.605469 165.597656 30.691406 164.585938 30.691406 C 163.898438 30.691406 163.292969 31 162.757812 31.425781 L 162.679688 31.386719 C 162.636719 30.949219 162.476562 30.640625 162.03125 30.640625 C 161.59375 30.640625 161.078125 31 160.679688 31.316406 L 160.820312 31.503906 C 161.058594 31.367188 161.335938 31.21875 161.546875 31.21875 C 161.84375 31.21875 161.933594 31.734375 161.933594 32.179688 L 161.933594 34.375 C 161.933594 34.941406 161.921875 36.980469 161.871094 37.554688 L 161.972656 37.664062 Z M 162.695312 34.652344 C 162.695312 34.644531 162.679688 33.621094 162.679688 32.808594 C 162.679688 32.699219 162.707031 31.941406 162.707031 31.882812 C 163.171875 31.515625 163.582031 31.308594 164.089844 31.308594 C 164.722656 31.308594 165.109375 32.070312 165.109375 32.9375 C 165.109375 33.878906 164.773438 35.023438 163.570312 35.023438 C 163.242188 35.023438 162.9375 34.871094 162.695312 34.652344 "/>
<path style=" stroke:none;fill-rule:nonzero;fill:rgb(0%,0%,0%);fill-opacity:1;" d="M 206.839844 30.246094 L 200.847656 30.246094 L 200.847656 30.644531 L 206.441406 30.644531 L 206.441406 32.261719 L 206.839844 32.261719 L 206.839844 30.246094 "/>
<path style=" stroke:none;fill-rule:nonzero;fill:rgb(0%,0%,0%);fill-opacity:1;" d="M 213.640625 30.246094 L 207.648438 30.246094 L 207.648438 30.644531 L 213.242188 30.644531 L 213.242188 32.261719 L 213.640625 32.261719 L 213.640625 30.246094 "/>
<path style=" stroke:none;fill-rule:nonzero;fill:rgb(0%,0%,0%);fill-opacity:1;" d="M 216.175781 36.355469 C 216.117188 35.839844 216.089844 34.875 216.078125 34.417969 L 216.175781 34.339844 C 216.367188 34.390625 216.5625 34.417969 216.761719 34.417969 C 218.304688 34.417969 219.34375 32.808594 219.34375 31.347656 C 219.34375 30.605469 218.996094 29.691406 217.984375 29.691406 C 217.300781 29.691406 216.695312 30 216.15625 30.425781 L 216.078125 30.386719 C 216.039062 29.949219 215.878906 29.640625 215.429688 29.640625 C 214.996094 29.640625 214.476562 30 214.082031 30.316406 L 214.21875 30.503906 C 214.457031 30.367188 214.734375 30.21875 214.945312 30.21875 C 215.242188 30.21875 215.332031 30.734375 215.332031 31.179688 L 215.332031 33.375 C 215.332031 33.941406 215.320312 35.980469 215.273438 36.554688 L 215.371094 36.664062 Z M 216.097656 33.652344 C 216.097656 33.644531 216.078125 32.621094 216.078125 31.808594 C 216.078125 31.699219 216.109375 30.941406 216.109375 30.882812 C 216.574219 30.515625 216.980469 30.308594 217.488281 30.308594 C 218.121094 30.308594 218.511719 31.070312 218.511719 31.9375 C 218.511719 32.878906 218.171875 34.023438 216.972656 34.023438 C 216.644531 34.023438 216.335938 33.871094 216.097656 33.652344 "/>
<path style=" stroke:none;fill-rule:nonzero;fill:rgb(0%,0%,0%);fill-opacity:1;" d="M 231.484375 32.027344 C 231.113281 32.480469 230.589844 33.265625 230.339844 34.308594 L 230.738281 34.308594 C 231.046875 33.007812 231.878906 32.105469 232.179688 31.828125 C 231.859375 31.527344 231.046875 30.636719 230.738281 29.34375 L 230.339844 29.34375 C 230.589844 30.375 231.105469 31.160156 231.484375 31.628906 L 223.703125 31.628906 C 223.523438 31.628906 223.355469 31.628906 223.355469 31.828125 C 223.355469 32.027344 223.535156 32.027344 223.703125 32.027344 L 231.484375 32.027344 "/>
<path style=" stroke:none;fill-rule:nonzero;fill:rgb(0%,0%,0%);fill-opacity:1;" d="M 237.578125 36.355469 C 237.515625 35.839844 237.488281 34.875 237.476562 34.417969 L 237.578125 34.339844 C 237.765625 34.390625 237.964844 34.417969 238.164062 34.417969 C 239.703125 34.417969 240.746094 32.808594 240.746094 31.347656 C 240.746094 30.605469 240.398438 29.691406 239.382812 29.691406 C 238.699219 29.691406 238.09375 30 237.554688 30.425781 L 237.476562 30.386719 C 237.4375 29.949219 237.277344 29.640625 236.832031 29.640625 C 236.394531 29.640625 235.878906 30 235.480469 30.316406 L 235.621094 30.503906 C 235.859375 30.367188 236.136719 30.21875 236.34375 30.21875 C 236.644531 30.21875 236.734375 30.734375 236.734375 31.179688 L 236.734375 33.375 C 236.734375 33.941406 236.722656 35.980469 236.671875 36.554688 L 236.773438 36.664062 Z M 237.496094 33.652344 C 237.496094 33.644531 237.476562 32.621094 237.476562 31.808594 C 237.476562 31.699219 237.507812 30.941406 237.507812 30.882812 C 237.972656 30.515625 238.382812 30.308594 238.886719 30.308594 C 239.523438 30.308594 239.910156 31.070312 239.910156 31.9375 C 239.910156 32.878906 239.574219 34.023438 238.371094 34.023438 C 238.042969 34.023438 237.734375 33.871094 237.496094 33.652344 "/>
<path style=" stroke:none;fill-rule:nonzero;fill:rgb(0%,0%,0%);fill-opacity:1;" d="M 249.367188 31.0625 C 249.535156 31.0625 249.714844 31.0625 249.714844 30.863281 C 249.714844 30.664062 249.535156 30.664062 249.367188 30.664062 L 245.144531 30.664062 L 245.144531 27.773438 C 245.144531 27.59375 245.144531 27.417969 244.945312 27.417969 C 244.746094 27.417969 244.746094 27.625 244.746094 27.773438 L 244.746094 33.953125 C 244.746094 34.101562 244.746094 34.308594 244.945312 34.308594 C 245.144531 34.308594 245.144531 34.132812 245.144531 33.953125 L 245.144531 31.0625 L 249.367188 31.0625 "/>
<path style=" stroke:none;fill-rule:nonzero;fill:rgb(0%,0%,0%);fill-opacity:1;" d="M 259.339844 30.246094 L 253.347656 30.246094 L 253.347656 30.644531 L 258.941406 30.644531 L 258.941406 32.261719 L 259.339844 32.261719 L 259.339844 30.246094 "/>
<path style=" stroke:none;fill-rule:nonzero;fill:rgb(0%,0%,0%);fill-opacity:1;" d="M 266.140625 30.246094 L 260.148438 30.246094 L 260.148438 30.644531 L 265.742188 30.644531 L 265.742188 32.261719 L 266.140625 32.261719 L 266.140625 30.246094 "/>
<path style=" stroke:none;fill-rule:nonzero;fill:rgb(0%,0%,0%);fill-opacity:1;" d="M 268.675781 36.355469 C 268.617188 35.839844 268.589844 34.875 268.578125 34.417969 L 268.675781 34.339844 C 268.867188 34.390625 269.0625 34.417969 269.261719 34.417969 C 270.804688 34.417969 271.84375 32.808594 271.84375 31.347656 C 271.84375 30.605469 271.496094 29.691406 270.484375 29.691406 C 269.800781 29.691406 269.195312 30 268.65625 30.425781 L 268.578125 30.386719 C 268.539062 29.949219 268.378906 29.640625 267.929688 29.640625 C 267.496094 29.640625 266.976562 30 266.582031 30.316406 L 266.71875 30.503906 C 266.957031 30.367188 267.234375 30.21875 267.445312 30.21875 C 267.742188 30.21875 267.832031 30.734375 267.832031 31.179688 L 267.832031 33.375 C 267.832031 33.941406 267.820312 35.980469 267.773438 36.554688 L 267.871094 36.664062 Z M 268.597656 33.652344 C 268.597656 33.644531 268.578125 32.621094 268.578125 31.808594 C 268.578125 31.699219 268.609375 30.941406 268.609375 30.882812 C 269.074219 30.515625 269.480469 30.308594 269.988281 30.308594 C 270.621094 30.308594 271.011719 31.070312 271.011719 31.9375 C 271.011719 32.878906 270.671875 34.023438 269.472656 34.023438 C 269.144531 34.023438 268.835938 33.871094 268.597656 33.652344 "/>
<path style=" stroke:none;fill-rule:nonzero;fill:rgb(0%,0%,0%);fill-opacity:1;" d="M 283.984375 32.027344 C 283.613281 32.480469 283.089844 33.265625 282.839844 34.308594 L 283.238281 34.308594 C 283.546875 33.007812 284.378906 32.105469 284.679688 31.828125 C 284.359375 31.527344 283.546875 30.636719 283.238281 29.34375 L 282.839844 29.34375 C 283.089844 30.375 283.605469 31.160156 283.984375 31.628906 L 276.203125 31.628906 C 276.023438 31.628906 275.855469 31.628906 275.855469 31.828125 C 275.855469 32.027344 276.035156 32.027344 276.203125 32.027344 L 283.984375 32.027344 "/>
<path style=" stroke:none;fill-rule:nonzero;fill:rgb(0%,0%,0%);fill-opacity:1;" d="M 290.078125 36.355469 C 290.015625 35.839844 289.988281 34.875 289.976562 34.417969 L 290.078125 34.339844 C 290.265625 34.390625 290.464844 34.417969 290.664062 34.417969 C 292.203125 34.417969 293.246094 32.808594 293.246094 31.347656 C 293.246094 30.605469 292.898438 29.691406 291.882812 29.691406 C 291.199219 29.691406 290.59375 30 290.054688 30.425781 L 289.976562 30.386719 C 289.9375 29.949219 289.777344 29.640625 289.332031 29.640625 C 288.894531 29.640625 288.378906 30 287.980469 30.316406 L 288.121094 30.503906 C 288.359375 30.367188 288.636719 30.21875 288.84375 30.21875 C 289.144531 30.21875 289.234375 30.734375 289.234375 31.179688 L 289.234375 33.375 C 289.234375 33.941406 289.222656 35.980469 289.171875 36.554688 L 289.273438 36.664062 Z M 289.996094 33.652344 C 289.996094 33.644531 289.976562 32.621094 289.976562 31.808594 C 289.976562 31.699219 290.007812 30.941406 290.007812 30.882812 C 290.472656 30.515625 290.882812 30.308594 291.386719 30.308594 C 292.023438 30.308594 292.410156 31.070312 292.410156 31.9375 C 292.410156 32.878906 292.074219 34.023438 290.871094 34.023438 C 290.542969 34.023438 290.234375 33.871094 289.996094 33.652344 "/>
<g clip-path="url(#clip1)" clip-rule="nonzero">
<path style="fill:none;stroke-width:3.98;stroke-linecap:butt;stroke-linejoin:miter;stroke:rgb(0%,0%,0%);stroke-opacity:1;stroke-miterlimit:10;" d="M 726.640625 238.092188 L 2989.335938 238.092188 " transform="matrix(0.1,0,0,-0.1,0,63.11)"/>
</g>
<path style=" stroke:none;fill-rule:nonzero;fill:rgb(0%,0%,0%);fill-opacity:1;" d="M 154.5625 42.332031 C 154.5625 42.152344 154.5625 41.972656 154.363281 41.972656 C 154.164062 41.972656 154.164062 42.183594 154.164062 42.332031 L 154.164062 48.214844 L 151.40625 48.214844 C 151.253906 48.214844 151.046875 48.214844 151.046875 48.410156 C 151.046875 48.609375 151.253906 48.609375 151.40625 48.609375 L 157.335938 48.609375 C 157.503906 48.609375 157.683594 48.609375 157.683594 48.410156 C 157.683594 48.214844 157.503906 48.214844 157.335938 48.214844 L 154.5625 48.214844 L 154.5625 42.332031 "/>
<path style=" stroke:none;fill-rule:nonzero;fill:rgb(0%,0%,0%);fill-opacity:1;" d="M 159.390625 50.695312 C 160.097656 49.882812 160.425781 49.375 160.425781 48.878906 C 160.425781 48.53125 160.078125 47.238281 159.550781 47.238281 C 159.304688 47.238281 158.964844 47.457031 158.964844 47.714844 C 158.964844 47.816406 158.996094 47.925781 159.035156 47.972656 L 159.730469 48.800781 C 159.820312 48.910156 159.859375 49.078125 159.859375 49.214844 C 159.859375 49.613281 159.550781 50.101562 159.203125 50.558594 L 159.390625 50.695312 "/>
<path style=" stroke:none;fill-rule:nonzero;fill:rgb(0%,0%,0%);fill-opacity:1;" d="M 168.9375 44.546875 L 162.949219 44.546875 L 162.949219 44.945312 L 168.539062 44.945312 L 168.539062 46.5625 L 168.9375 46.5625 L 168.9375 44.546875 "/>
<path style=" stroke:none;fill-rule:nonzero;fill:rgb(0%,0%,0%);fill-opacity:1;" d="M 175.738281 44.546875 L 169.746094 44.546875 L 169.746094 44.945312 L 175.339844 44.945312 L 175.339844 46.5625 L 175.738281 46.5625 L 175.738281 44.546875 "/>
<path style=" stroke:none;fill-rule:nonzero;fill:rgb(0%,0%,0%);fill-opacity:1;" d="M 178.277344 50.65625 C 178.21875 50.140625 178.1875 49.175781 178.179688 48.71875 L 178.277344 48.640625 C 178.464844 48.691406 178.664062 48.71875 178.863281 48.71875 C 180.402344 48.71875 181.445312 47.109375 181.445312 45.648438 C 181.445312 44.90625 181.097656 43.992188 180.085938 43.992188 C 179.398438 43.992188 178.792969 44.300781 178.257812 44.726562 L 178.179688 44.6875 C 178.136719 44.25 177.976562 43.941406 177.53125 43.941406 C 177.09375 43.941406 176.578125 44.300781 176.179688 44.617188 L 176.320312 44.804688 C 176.558594 44.667969 176.835938 44.519531 177.046875 44.519531 C 177.34375 44.519531 177.433594 45.035156 177.433594 45.480469 L 177.433594 47.675781 C 177.433594 48.242188 177.421875 50.277344 177.371094 50.855469 L 177.472656 50.964844 Z M 178.195312 47.953125 C 178.195312 47.945312 178.179688 46.921875 178.179688 46.105469 C 178.179688 45.996094 178.207031 45.242188 178.207031 45.183594 C 178.671875 44.816406 179.082031 44.605469 179.589844 44.605469 C 180.222656 44.605469 180.609375 45.371094 180.609375 46.238281 C 180.609375 47.179688 180.273438 48.324219 179.070312 48.324219 C 178.742188 48.324219 178.4375 48.171875 178.195312 47.953125 "/>
<path style=" stroke:none;fill-rule:nonzero;fill:rgb(0%,0%,0%);fill-opacity:1;" d="M 193.683594 46.324219 C 193.3125 46.78125 192.789062 47.566406 192.539062 48.609375 L 192.9375 48.609375 C 193.246094 47.308594 194.078125 46.40625 194.378906 46.128906 C 194.058594 45.828125 193.246094 44.933594 192.9375 43.644531 L 192.539062 43.644531 C 192.789062 44.675781 193.304688 45.460938 193.683594 45.925781 L 185.90625 45.925781 C 185.726562 45.925781 185.554688 45.925781 185.554688 46.128906 C 185.554688 46.324219 185.734375 46.324219 185.90625 46.324219 L 193.683594 46.324219 "/>
<path style=" stroke:none;fill-rule:nonzero;fill:rgb(0%,0%,0%);fill-opacity:1;" d="M 199.675781 50.65625 C 199.617188 50.140625 199.589844 49.175781 199.578125 48.71875 L 199.675781 48.640625 C 199.867188 48.691406 200.0625 48.71875 200.261719 48.71875 C 201.804688 48.71875 202.84375 47.109375 202.84375 45.648438 C 202.84375 44.90625 202.496094 43.992188 201.484375 43.992188 C 200.800781 43.992188 200.195312 44.300781 199.65625 44.726562 L 199.578125 44.6875 C 199.539062 44.25 199.378906 43.941406 198.929688 43.941406 C 198.496094 43.941406 197.976562 44.300781 197.582031 44.617188 L 197.71875 44.804688 C 197.957031 44.667969 198.234375 44.519531 198.445312 44.519531 C 198.742188 44.519531 198.832031 45.035156 198.832031 45.480469 L 198.832031 47.675781 C 198.832031 48.242188 198.820312 50.277344 198.773438 50.855469 L 198.871094 50.964844 Z M 199.597656 47.953125 C 199.597656 47.945312 199.578125 46.921875 199.578125 46.105469 C 199.578125 45.996094 199.609375 45.242188 199.609375 45.183594 C 200.074219 44.816406 200.480469 44.605469 200.988281 44.605469 C 201.621094 44.605469 202.011719 45.371094 202.011719 46.238281 C 202.011719 47.179688 201.671875 48.324219 200.472656 48.324219 C 200.144531 48.324219 199.835938 48.171875 199.597656 47.953125 "/>
<path style=" stroke:none;fill-rule:nonzero;fill:rgb(0%,0%,0%);fill-opacity:1;" d="M 211.464844 45.363281 C 211.632812 45.363281 211.8125 45.363281 211.8125 45.164062 C 211.8125 44.964844 211.632812 44.964844 211.464844 44.964844 L 207.242188 44.964844 L 207.242188 42.074219 C 207.242188 41.894531 207.242188 41.714844 207.046875 41.714844 C 206.847656 41.714844 206.847656 41.925781 206.847656 42.074219 L 206.847656 48.253906 C 206.847656 48.402344 206.847656 48.609375 207.046875 48.609375 C 207.242188 48.609375 207.242188 48.433594 207.242188 48.253906 L 207.242188 45.363281 L 211.464844 45.363281 "/>
<path style=" stroke:none;fill-rule:nonzero;fill:rgb(0%,0%,0%);fill-opacity:1;" d="M 217.175781 50.65625 C 217.117188 50.140625 217.089844 49.175781 217.078125 48.71875 L 217.175781 48.640625 C 217.367188 48.691406 217.5625 48.71875 217.761719 48.71875 C 219.304688 48.71875 220.34375 47.109375 220.34375 45.648438 C 220.34375 44.90625 219.996094 43.992188 218.984375 43.992188 C 218.300781 43.992188 217.695312 44.300781 217.15625 44.726562 L 217.078125 44.6875 C 217.039062 44.25 216.878906 43.941406 216.429688 43.941406 C 215.996094 43.941406 215.476562 44.300781 215.082031 44.617188 L 215.21875 44.804688 C 215.457031 44.667969 215.734375 44.519531 215.945312 44.519531 C 216.242188 44.519531 216.332031 45.035156 216.332031 45.480469 L 216.332031 47.675781 C 216.332031 48.242188 216.320312 50.277344 216.273438 50.855469 L 216.371094 50.964844 Z M 217.097656 47.953125 C 217.097656 47.945312 217.078125 46.921875 217.078125 46.105469 C 217.078125 45.996094 217.109375 45.242188 217.109375 45.183594 C 217.574219 44.816406 217.980469 44.605469 218.488281 44.605469 C 219.121094 44.605469 219.511719 45.371094 219.511719 46.238281 C 219.511719 47.179688 219.171875 48.324219 217.972656 48.324219 C 217.644531 48.324219 217.335938 48.171875 217.097656 47.953125 "/>
<g clip-path="url(#clip2)" clip-rule="nonzero">
<path style="fill:none;stroke-width:3.98;stroke-linecap:butt;stroke-linejoin:miter;stroke:rgb(0%,0%,0%);stroke-opacity:1;stroke-miterlimit:10;" d="M 344.53125 112.076563 L 2989.335938 112.076563 " transform="matrix(0.1,0,0,-0.1,0,63.11)"/>
</g>
<path style=" stroke:none;fill-rule:nonzero;fill:rgb(0%,0%,0%);fill-opacity:1;" d="M 132.140625 57.148438 L 126.148438 57.148438 L 126.148438 57.542969 L 131.742188 57.542969 L 131.742188 59.164062 L 132.140625 59.164062 L 132.140625 57.148438 "/>
<path style=" stroke:none;fill-rule:nonzero;fill:rgb(0%,0%,0%);fill-opacity:1;" d="M 138.9375 57.148438 L 132.949219 57.148438 L 132.949219 57.542969 L 138.539062 57.542969 L 138.539062 59.164062 L 138.9375 59.164062 L 138.9375 57.148438 "/>
<g clip-path="url(#clip3)" clip-rule="nonzero">
<path style=" stroke:none;fill-rule:nonzero;fill:rgb(0%,0%,0%);fill-opacity:1;" d="M 141.476562 63.257812 C 141.417969 62.738281 141.386719 61.777344 141.378906 61.320312 L 141.476562 61.238281 C 141.664062 61.289062 141.863281 61.320312 142.0625 61.320312 C 143.601562 61.320312 144.644531 59.710938 144.644531 58.25 C 144.644531 57.503906 144.296875 56.589844 143.285156 56.589844 C 142.601562 56.589844 141.992188 56.898438 141.457031 57.324219 L 141.378906 57.285156 C 141.339844 56.847656 141.179688 56.542969 140.730469 56.542969 C 140.296875 56.542969 139.777344 56.898438 139.382812 57.214844 L 139.519531 57.40625 C 139.757812 57.265625 140.035156 57.117188 140.246094 57.117188 C 140.542969 57.117188 140.632812 57.632812 140.632812 58.082031 L 140.632812 60.277344 C 140.632812 60.84375 140.621094 62.878906 140.574219 63.457031 L 140.671875 63.566406 Z M 141.398438 60.554688 C 141.398438 60.542969 141.378906 59.519531 141.378906 58.707031 C 141.378906 58.597656 141.40625 57.84375 141.40625 57.785156 C 141.871094 57.414062 142.28125 57.207031 142.789062 57.207031 C 143.421875 57.207031 143.8125 57.972656 143.8125 58.835938 C 143.8125 59.78125 143.472656 60.921875 142.273438 60.921875 C 141.945312 60.921875 141.636719 60.773438 141.398438 60.554688 "/>
</g>
<path style=" stroke:none;fill-rule:nonzero;fill:rgb(0%,0%,0%);fill-opacity:1;" d="M 156.882812 58.925781 C 156.515625 59.382812 155.988281 60.167969 155.738281 61.210938 L 156.136719 61.210938 C 156.445312 59.910156 157.28125 59.003906 157.578125 58.726562 C 157.257812 58.429688 156.445312 57.535156 156.136719 56.242188 L 155.738281 56.242188 C 155.988281 57.277344 156.503906 58.0625 156.882812 58.527344 L 149.105469 58.527344 C 148.925781 58.527344 148.757812 58.527344 148.757812 58.726562 C 148.757812 58.925781 148.933594 58.925781 149.105469 58.925781 L 156.882812 58.925781 "/>
<g clip-path="url(#clip4)" clip-rule="nonzero">
<path style=" stroke:none;fill-rule:nonzero;fill:rgb(0%,0%,0%);fill-opacity:1;" d="M 162.878906 63.257812 C 162.816406 62.738281 162.789062 61.777344 162.777344 61.320312 L 162.878906 61.238281 C 163.066406 61.289062 163.265625 61.320312 163.464844 61.320312 C 165.003906 61.320312 166.046875 59.710938 166.046875 58.25 C 166.046875 57.503906 165.699219 56.589844 164.683594 56.589844 C 164 56.589844 163.394531 56.898438 162.855469 57.324219 L 162.777344 57.285156 C 162.738281 56.847656 162.578125 56.542969 162.132812 56.542969 C 161.695312 56.542969 161.179688 56.898438 160.78125 57.214844 L 160.921875 57.40625 C 161.15625 57.265625 161.4375 57.117188 161.644531 57.117188 C 161.945312 57.117188 162.03125 57.632812 162.03125 58.082031 L 162.03125 60.277344 C 162.03125 60.84375 162.023438 62.878906 161.972656 63.457031 L 162.070312 63.566406 Z M 162.796875 60.554688 C 162.796875 60.542969 162.777344 59.519531 162.777344 58.707031 C 162.777344 58.597656 162.808594 57.84375 162.808594 57.785156 C 163.273438 57.414062 163.679688 57.207031 164.1875 57.207031 C 164.824219 57.207031 165.210938 57.972656 165.210938 58.835938 C 165.210938 59.78125 164.871094 60.921875 163.671875 60.921875 C 163.34375 60.921875 163.035156 60.773438 162.796875 60.554688 "/>
</g>
<path style=" stroke:none;fill-rule:nonzero;fill:rgb(0%,0%,0%);fill-opacity:1;" d="M 174.664062 57.960938 C 174.835938 57.960938 175.011719 57.960938 175.011719 57.761719 C 175.011719 57.566406 174.835938 57.566406 174.664062 57.566406 L 170.445312 57.566406 L 170.445312 54.675781 C 170.445312 54.496094 170.445312 54.316406 170.246094 54.316406 C 170.046875 54.316406 170.046875 54.523438 170.046875 54.675781 L 170.046875 60.851562 C 170.046875 61 170.046875 61.210938 170.246094 61.210938 C 170.445312 61.210938 170.445312 61.03125 170.445312 60.851562 L 170.445312 57.960938 L 174.664062 57.960938 "/>
<path style=" stroke:none;fill-rule:nonzero;fill:rgb(0%,0%,0%);fill-opacity:1;" d="M 182.464844 54.933594 C 182.464844 54.753906 182.464844 54.574219 182.265625 54.574219 C 182.066406 54.574219 182.066406 54.785156 182.066406 54.933594 L 182.066406 60.8125 L 179.304688 60.8125 C 179.15625 60.8125 178.945312 60.8125 178.945312 61.011719 C 178.945312 61.210938 179.15625 61.210938 179.304688 61.210938 L 185.234375 61.210938 C 185.402344 61.210938 185.582031 61.210938 185.582031 61.011719 C 185.582031 60.8125 185.402344 60.8125 185.234375 60.8125 L 182.464844 60.8125 L 182.464844 54.933594 "/>
<path style=" stroke:none;fill-rule:nonzero;fill:rgb(0%,0%,0%);fill-opacity:1;" d="M 197.582031 58.925781 C 197.214844 59.382812 196.6875 60.167969 196.4375 61.210938 L 196.839844 61.210938 C 197.144531 59.910156 197.980469 59.003906 198.277344 58.726562 C 197.960938 58.429688 197.144531 57.535156 196.839844 56.242188 L 196.4375 56.242188 C 196.6875 57.277344 197.203125 58.0625 197.582031 58.527344 L 189.804688 58.527344 C 189.625 58.527344 189.457031 58.527344 189.457031 58.726562 C 189.457031 58.925781 189.632812 58.925781 189.804688 58.925781 L 197.582031 58.925781 "/>
<g clip-path="url(#clip5)" clip-rule="nonzero">
<path style=" stroke:none;fill-rule:nonzero;fill:rgb(0%,0%,0%);fill-opacity:1;" d="M 203.578125 63.257812 C 203.515625 62.738281 203.488281 61.777344 203.476562 61.320312 L 203.578125 61.238281 C 203.765625 61.289062 203.964844 61.320312 204.164062 61.320312 C 205.703125 61.320312 206.746094 59.710938 206.746094 58.25 C 206.746094 57.503906 206.398438 56.589844 205.382812 56.589844 C 204.699219 56.589844 204.09375 56.898438 203.554688 57.324219 L 203.476562 57.285156 C 203.4375 56.847656 203.277344 56.542969 202.832031 56.542969 C 202.394531 56.542969 201.878906 56.898438 201.480469 57.214844 L 201.621094 57.40625 C 201.859375 57.265625 202.136719 57.117188 202.34375 57.117188 C 202.644531 57.117188 202.734375 57.632812 202.734375 58.082031 L 202.734375 60.277344 C 202.734375 60.84375 202.722656 62.878906 202.671875 63.457031 L 202.773438 63.566406 Z M 203.496094 60.554688 C 203.496094 60.542969 203.476562 59.519531 203.476562 58.707031 C 203.476562 58.597656 203.507812 57.84375 203.507812 57.785156 C 203.972656 57.414062 204.382812 57.207031 204.886719 57.207031 C 205.523438 57.207031 205.910156 57.972656 205.910156 58.835938 C 205.910156 59.78125 205.574219 60.921875 204.371094 60.921875 C 204.042969 60.921875 203.734375 60.773438 203.496094 60.554688 "/>
</g>
</g>
</svg>
