<?xml version="1.0" encoding="UTF-8"?>
<svg xmlns="http://www.w3.org/2000/svg" xmlns:xlink="http://www.w3.org/1999/xlink" width="307.24pt" height="63.11pt" viewBox="0 0 307.24 63.11" version="1.1">
<defs>
<clipPath id="clip1">
  <path d="M 78 39 L 307.238281 39 L 307.238281 40 L 78 40 Z M 78 39 "/>
</clipPath>
<clipPath id="clip2">
  <path d="M 37 51 L 307.238281 51 L 307.238281 53 L 37 53 Z M 37 51 "/>
</clipPath>
<clipPath id="clip3">
  <path d="M 144 56 L 151 56 L 151 63.109375 L 144 63.109375 Z M 144 56 "/>
</clipPath>
<clipPath id="clip4">
  <path d="M 166 56 L 172 56 L 172 63.109375 L 166 63.109375 Z M 166 56 "/>
</clipPath>
<clipPath id="clip5">
  <path d="M 207 56 L 213 56 L 213 63.109375 L 207 63.109375 Z M 207 56 "/>
</clipPath>
</defs>
<g id="surface1">
<path style=" stroke:none;fill-rule:nonzero;fill:rgb(0%,0%,0%);fill-opacity:1;" d="M 2.992188 56.027344 C 1.710938 55.78125 1.640625 53.367188 1.640625 51.6875 C 1.640625 50.1875 1.726562 47.664062 2.992188 47.347656 L 2.992188 47.078125 C 1.957031 47.257812 1.507812 48.390625 1.320312 49.34375 C 1.171875 50.089844 1.121094 50.863281 1.121094 51.628906 C 1.121094 52.433594 1.164062 53.238281 1.300781 54.03125 C 1.46875 54.976562 1.945312 56.179688 2.992188 56.269531 L 2.992188 56.027344 "/>
<path style=" stroke:none;fill-rule:nonzero;fill:rgb(0%,0%,0%);fill-opacity:1;" d="M 12.582031 52.125 C 12.214844 52.582031 11.6875 53.367188 11.4375 54.410156 L 11.835938 54.410156 C 12.144531 53.109375 12.980469 52.207031 13.277344 51.925781 C 12.960938 51.628906 12.144531 50.734375 11.835938 49.441406 L 11.4375 49.441406 C 11.6875 50.476562 12.203125 51.261719 12.582031 51.726562 L 4.804688 51.726562 C 4.625 51.726562 4.457031 51.726562 4.457031 51.925781 C 4.457031 52.125 4.632812 52.125 4.804688 52.125 L 12.582031 52.125 "/>
<path style=" stroke:none;fill-rule:nonzero;fill:rgb(0%,0%,0%);fill-opacity:1;" d="M 20.039062 54.417969 L 20.054688 54.183594 C 20.046875 54.183594 19.621094 54.074219 19.410156 54.011719 C 18.992188 53.902344 19.101562 53.160156 19.09375 52.730469 C 19.082031 52.125 19.074219 51.511719 19.074219 50.84375 C 19.074219 50.070312 19.015625 48.886719 19.101562 48.300781 C 19.113281 48.183594 19.191406 48.074219 19.320312 48.042969 L 19.988281 47.894531 L 19.988281 47.683594 L 19.929688 47.625 L 17.445312 47.625 L 17.375 47.683594 L 17.375 47.902344 C 18.167969 48.082031 18.238281 48.03125 18.257812 48.332031 C 18.289062 48.707031 18.289062 49.085938 18.289062 49.472656 L 18.289062 53.078125 C 18.25 53.902344 18.378906 53.972656 17.40625 54.160156 L 17.40625 54.417969 L 20.039062 54.417969 "/>
<path style=" stroke:none;fill-rule:nonzero;fill:rgb(0%,0%,0%);fill-opacity:1;" d="M 21.355469 47.367188 C 22.160156 47.65625 22.386719 48.589844 22.535156 49.332031 C 22.6875 50.097656 22.726562 50.894531 22.726562 51.667969 C 22.726562 52.800781 22.746094 54.011719 22.386719 55.074219 C 22.1875 55.671875 21.8125 55.929688 21.355469 56.050781 L 21.355469 56.289062 C 23.132812 56.058594 23.242188 53.40625 23.242188 51.707031 C 23.242188 50.050781 23.03125 47.445312 21.355469 47.097656 L 21.355469 47.367188 "/>
<path style=" stroke:none;fill-rule:nonzero;fill:rgb(0%,0%,0%);fill-opacity:1;" d="M 41.890625 43.429688 C 40.609375 43.179688 40.539062 40.765625 40.539062 39.089844 C 40.539062 37.589844 40.628906 35.066406 41.890625 34.746094 L 41.890625 34.480469 C 40.855469 34.660156 40.410156 35.789062 40.222656 36.746094 C 40.070312 37.488281 40.023438 38.261719 40.023438 39.027344 C 40.023438 39.832031 40.0625 40.636719 40.203125 41.433594 C 40.371094 42.375 40.847656 43.578125 41.890625 43.667969 L 41.890625 43.429688 "/>
<path style=" stroke:none;fill-rule:nonzero;fill:rgb(0%,0%,0%);fill-opacity:1;" d="M 51.484375 39.527344 C 51.113281 39.980469 50.585938 40.765625 50.339844 41.808594 L 50.738281 41.808594 C 51.046875 40.507812 51.878906 39.605469 52.179688 39.328125 C 51.859375 39.027344 51.046875 38.136719 50.738281 36.84375 L 50.339844 36.84375 C 50.585938 37.875 51.105469 38.660156 51.484375 39.128906 L 43.703125 39.128906 C 43.523438 39.128906 43.355469 39.128906 43.355469 39.328125 C 43.355469 39.527344 43.535156 39.527344 43.703125 39.527344 L 51.484375 39.527344 "/>
<path style=" stroke:none;fill-rule:nonzero;fill:rgb(0%,0%,0%);fill-opacity:1;" d="M 60.03125 38.472656 L 60.089844 37.996094 L 60.03125 37.925781 C 59.503906 37.964844 58.769531 37.996094 58.242188 37.996094 C 57.875 37.996094 57.585938 38.027344 57.585938 37.855469 L 57.585938 36.207031 C 57.585938 35.859375 57.625 35.492188 57.824219 35.453125 L 58.222656 35.453125 C 58.289062 35.453125 59.613281 35.511719 60.296875 35.550781 L 60.335938 35.480469 L 60.359375 34.984375 C 60.226562 34.976562 60.078125 34.976562 59.898438 34.976562 C 59.195312 34.984375 58.191406 35.035156 57.496094 35.035156 L 56.027344 35.042969 L 55.957031 35.113281 L 55.96875 35.3125 C 56.433594 35.382812 56.664062 35.503906 56.722656 35.632812 C 56.8125 35.832031 56.8125 36.128906 56.8125 36.265625 L 56.8125 41.152344 C 56.8125 41.421875 56.871094 41.699219 57.070312 41.808594 L 60.921875 41.808594 L 61.054688 41.285156 L 61.003906 41.234375 C 59.375 41.371094 59.144531 41.371094 58.679688 41.371094 C 58.074219 41.371094 57.863281 41.3125 57.726562 41.054688 C 57.585938 40.808594 57.578125 40.320312 57.578125 39.941406 L 57.578125 38.5625 C 57.578125 38.382812 58.28125 38.414062 58.859375 38.414062 C 59.246094 38.414062 59.640625 38.441406 60.03125 38.472656 "/>
<path style=" stroke:none;fill-rule:nonzero;fill:rgb(0%,0%,0%);fill-opacity:1;" d="M 62.355469 34.765625 C 63.160156 35.054688 63.386719 35.988281 63.535156 36.734375 C 63.6875 37.5 63.726562 38.292969 63.726562 39.066406 C 63.726562 40.199219 63.746094 41.414062 63.386719 42.476562 C 63.1875 43.070312 62.8125 43.332031 62.355469 43.449219 L 62.355469 43.6875 C 64.132812 43.457031 64.242188 40.808594 64.242188 39.109375 C 64.242188 37.449219 64.03125 34.847656 62.355469 34.5 L 62.355469 34.765625 "/>
<path style=" stroke:none;fill-rule:nonzero;fill:rgb(0%,0%,0%);fill-opacity:1;" d="M 82.890625 30.027344 C 81.609375 29.78125 81.539062 27.367188 81.539062 25.6875 C 81.539062 24.1875 81.628906 21.664062 82.890625 21.347656 L 82.890625 21.078125 C 81.855469 21.257812 81.410156 22.390625 81.222656 23.34375 C 81.070312 24.089844 81.023438 24.863281 81.023438 25.628906 C 81.023438 26.433594 81.0625 27.238281 81.203125 28.03125 C 81.371094 28.976562 81.847656 30.179688 82.890625 30.269531 L 82.890625 30.027344 "/>
<path style=" stroke:none;fill-rule:nonzero;fill:rgb(0%,0%,0%);fill-opacity:1;" d="M 92.382812 26.125 C 92.015625 26.582031 91.488281 27.367188 91.238281 28.410156 L 91.636719 28.410156 C 91.945312 27.109375 92.78125 26.207031 93.078125 25.925781 C 92.757812 25.628906 91.945312 24.734375 91.636719 23.441406 L 91.238281 23.441406 C 91.488281 24.476562 92.003906 25.261719 92.382812 25.726562 L 84.605469 25.726562 C 84.425781 25.726562 84.257812 25.726562 84.257812 25.925781 C 84.257812 26.125 84.433594 26.125 84.605469 26.125 L 92.382812 26.125 "/>
<path style=" stroke:none;fill-rule:nonzero;fill:rgb(0%,0%,0%);fill-opacity:1;" d="M 99.9375 28.417969 L 99.957031 28.183594 C 99.945312 28.183594 99.519531 28.074219 99.3125 28.011719 C 98.894531 27.902344 99.003906 27.160156 98.992188 26.730469 C 98.984375 26.125 98.972656 25.511719 98.972656 24.84375 C 98.972656 24.070312 98.914062 22.886719 99.003906 22.300781 C 99.011719 22.183594 99.09375 22.074219 99.222656 22.042969 L 99.886719 21.894531 L 99.886719 21.683594 L 99.828125 21.625 L 97.34375 21.625 L 97.273438 21.683594 L 97.273438 21.902344 C 98.070312 22.082031 98.140625 22.03125 98.160156 22.332031 C 98.1875 22.707031 98.1875 23.085938 98.1875 23.472656 L 98.1875 27.078125 C 98.148438 27.902344 98.277344 27.972656 97.304688 28.160156 L 97.304688 28.417969 L 99.9375 28.417969 "/>
<path style=" stroke:none;fill-rule:nonzero;fill:rgb(0%,0%,0%);fill-opacity:1;" d="M 101.253906 21.367188 C 102.058594 21.65625 102.289062 22.589844 102.4375 23.332031 C 102.585938 24.097656 102.625 24.894531 102.625 25.667969 C 102.625 26.800781 102.644531 28.011719 102.289062 29.074219 C 102.089844 29.671875 101.710938 29.929688 101.253906 30.050781 L 101.253906 30.289062 C 103.03125 30.058594 103.140625 27.40625 103.140625 25.707031 C 103.140625 24.050781 102.933594 21.445312 101.253906 21.097656 L 101.253906 21.367188 "/>
<path style=" stroke:none;fill-rule:nonzero;fill:rgb(0%,0%,0%);fill-opacity:1;" d="M 121.691406 17.429688 C 120.410156 17.179688 120.339844 14.765625 120.339844 13.089844 C 120.339844 11.589844 120.429688 9.066406 121.691406 8.746094 L 121.691406 8.480469 C 120.65625 8.660156 120.210938 9.789062 120.023438 10.746094 C 119.871094 11.488281 119.820312 12.261719 119.820312 13.027344 C 119.820312 13.832031 119.863281 14.636719 120.003906 15.433594 C 120.171875 16.375 120.648438 17.578125 121.691406 17.667969 L 121.691406 17.429688 "/>
<path style=" stroke:none;fill-rule:nonzero;fill:rgb(0%,0%,0%);fill-opacity:1;" d="M 132.324219 9.105469 C 132.15625 9.421875 131.9375 9.808594 131.730469 10.265625 L 130.648438 12.671875 L 129.851562 14.359375 C 129.832031 14.390625 129.8125 14.429688 129.722656 14.429688 C 129.542969 14.429688 129.355469 13.128906 129.234375 12.582031 C 128.929688 11.132812 128.621094 9.632812 128.621094 9.015625 L 128.550781 8.957031 L 127.796875 9.246094 C 127.347656 10.496094 126.039062 13.386719 125.621094 14.210938 C 125.609375 14.230469 125.578125 14.25 125.550781 14.25 C 125.53125 14.25 125.492188 14.242188 125.480469 14.191406 C 125.09375 12.453125 124.507812 9.769531 124.359375 8.964844 L 122.808594 8.996094 L 122.730469 9.066406 L 122.746094 9.304688 C 123.054688 9.363281 123.355469 9.433594 123.464844 9.710938 C 123.761719 10.476562 123.960938 11.28125 124.160156 12.085938 C 124.457031 13.335938 124.707031 14.597656 124.933594 15.871094 L 125.042969 15.917969 L 125.679688 15.632812 C 126.148438 14.089844 126.953125 12.3125 127.488281 11.113281 L 127.765625 10.484375 C 127.785156 10.4375 127.824219 10.367188 127.855469 10.367188 C 127.90625 10.367188 127.914062 10.4375 127.925781 10.484375 C 128.320312 12.261719 128.6875 14.042969 129.007812 15.839844 L 129.128906 15.917969 L 129.722656 15.652344 C 130.367188 14.089844 131.519531 11.808594 131.988281 11.042969 L 133.128906 9.175781 L 133.128906 8.964844 L 132.324219 9.105469 "/>
<path style=" stroke:none;fill-rule:nonzero;fill:rgb(0%,0%,0%);fill-opacity:1;" d="M 133.855469 8.765625 C 134.660156 9.054688 134.886719 9.988281 135.035156 10.734375 C 135.1875 11.5 135.226562 12.292969 135.226562 13.066406 C 135.226562 14.199219 135.246094 15.414062 134.886719 16.476562 C 134.6875 17.070312 134.3125 17.332031 133.855469 17.449219 L 133.855469 17.6875 C 135.632812 17.457031 135.742188 14.808594 135.742188 13.109375 C 135.742188 11.449219 135.53125 8.847656 133.855469 8.5 L 133.855469 8.765625 "/>
<path style=" stroke:none;fill-rule:nonzero;fill:rgb(0%,0%,0%);fill-opacity:1;" d="M 162.261719 2.132812 C 162.261719 1.953125 162.261719 1.773438 162.0625 1.773438 C 161.867188 1.773438 161.867188 1.984375 161.867188 2.132812 L 161.867188 8.011719 L 159.105469 8.011719 C 158.953125 8.011719 158.746094 8.011719 158.746094 8.210938 C 158.746094 8.410156 158.953125 8.410156 159.105469 8.410156 L 165.035156 8.410156 C 165.203125 8.410156 165.382812 8.410156 165.382812 8.210938 C 165.382812 8.011719 165.203125 8.011719 165.035156 8.011719 L 162.261719 8.011719 L 162.261719 2.132812 "/>
<path style=" stroke:none;fill-rule:nonzero;fill:rgb(0%,0%,0%);fill-opacity:1;" d="M 173.964844 5.160156 C 174.132812 5.160156 174.3125 5.160156 174.3125 4.964844 C 174.3125 4.765625 174.132812 4.765625 173.964844 4.765625 L 169.742188 4.765625 L 169.742188 1.875 C 169.742188 1.695312 169.742188 1.515625 169.546875 1.515625 C 169.347656 1.515625 169.347656 1.722656 169.347656 1.875 L 169.347656 8.050781 C 169.347656 8.199219 169.347656 8.410156 169.546875 8.410156 C 169.742188 8.410156 169.742188 8.230469 169.742188 8.050781 L 169.742188 5.160156 L 173.964844 5.160156 "/>
<path style=" stroke:none;fill-rule:nonzero;fill:rgb(0%,0%,0%);fill-opacity:1;" d="M 181.664062 2.132812 C 181.664062 1.953125 181.664062 1.773438 181.464844 1.773438 C 181.265625 1.773438 181.265625 1.984375 181.265625 2.132812 L 181.265625 8.011719 L 178.503906 8.011719 C 178.355469 8.011719 178.148438 8.011719 178.148438 8.210938 C 178.148438 8.410156 178.355469 8.410156 178.503906 8.410156 L 184.433594 8.410156 C 184.601562 8.410156 184.78125 8.410156 184.78125 8.210938 C 184.78125 8.011719 184.601562 8.011719 184.433594 8.011719 L 181.664062 8.011719 L 181.664062 2.132812 "/>
<path style="fill:none;stroke-width:3.98;stroke-linecap:butt;stroke-linejoin:miter;stroke:rgb(0%,0%,0%);stroke-opacity:1;stroke-miterlimit:10;" d="M 1496.875 497.623438 L 1939.257812 497.623438 " transform="matrix(0.1,0,0,-0.1,0,63.11)"/>
<path style=" stroke:none;fill-rule:nonzero;fill:rgb(0%,0%,0%);fill-opacity:1;" d="M 155.9375 18.648438 L 149.949219 18.648438 L 149.949219 19.042969 L 155.539062 19.042969 L 155.539062 20.664062 L 155.9375 20.664062 L 155.9375 18.648438 "/>
<path style=" stroke:none;fill-rule:nonzero;fill:rgb(0%,0%,0%);fill-opacity:1;" d="M 158.476562 24.757812 C 158.417969 24.238281 158.386719 23.277344 158.378906 22.820312 L 158.476562 22.738281 C 158.664062 22.789062 158.863281 22.820312 159.0625 22.820312 C 160.601562 22.820312 161.644531 21.210938 161.644531 19.75 C 161.644531 19.003906 161.296875 18.089844 160.285156 18.089844 C 159.601562 18.089844 158.992188 18.398438 158.457031 18.824219 L 158.378906 18.785156 C 158.339844 18.347656 158.179688 18.042969 157.730469 18.042969 C 157.296875 18.042969 156.777344 18.398438 156.382812 18.714844 L 156.519531 18.90625 C 156.757812 18.765625 157.035156 18.617188 157.246094 18.617188 C 157.542969 18.617188 157.632812 19.132812 157.632812 19.582031 L 157.632812 21.777344 C 157.632812 22.34375 157.621094 24.378906 157.574219 24.957031 L 157.671875 25.066406 Z M 158.398438 22.054688 C 158.398438 22.042969 158.378906 21.019531 158.378906 20.207031 C 158.378906 20.097656 158.40625 19.34375 158.40625 19.285156 C 158.871094 18.914062 159.28125 18.707031 159.789062 18.707031 C 160.421875 18.707031 160.8125 19.472656 160.8125 20.335938 C 160.8125 21.28125 160.472656 22.421875 159.273438 22.421875 C 158.945312 22.421875 158.636719 22.273438 158.398438 22.054688 "/>
<path style=" stroke:none;fill-rule:nonzero;fill:rgb(0%,0%,0%);fill-opacity:1;" d="M 163.492188 24.796875 C 164.199219 23.980469 164.527344 23.476562 164.527344 22.980469 C 164.527344 22.628906 164.179688 21.339844 163.652344 21.339844 C 163.402344 21.339844 163.066406 21.558594 163.066406 21.816406 C 163.066406 21.914062 163.09375 22.023438 163.132812 22.074219 L 163.828125 22.898438 C 163.921875 23.007812 163.960938 23.175781 163.960938 23.316406 C 163.960938 23.714844 163.652344 24.199219 163.304688 24.65625 L 163.492188 24.796875 "/>
<path style=" stroke:none;fill-rule:nonzero;fill:rgb(0%,0%,0%);fill-opacity:1;" d="M 170.863281 16.433594 C 170.863281 16.253906 170.863281 16.074219 170.664062 16.074219 C 170.464844 16.074219 170.464844 16.285156 170.464844 16.433594 L 170.464844 22.3125 L 167.703125 22.3125 C 167.554688 22.3125 167.347656 22.3125 167.347656 22.511719 C 167.347656 22.710938 167.554688 22.710938 167.703125 22.710938 L 173.632812 22.710938 C 173.804688 22.710938 173.984375 22.710938 173.984375 22.511719 C 173.984375 22.3125 173.804688 22.3125 173.632812 22.3125 L 170.863281 22.3125 L 170.863281 16.433594 "/>
<path style=" stroke:none;fill-rule:nonzero;fill:rgb(0%,0%,0%);fill-opacity:1;" d="M 182.464844 19.460938 C 182.632812 19.460938 182.8125 19.460938 182.8125 19.261719 C 182.8125 19.066406 182.632812 19.066406 182.464844 19.066406 L 178.242188 19.066406 L 178.242188 16.175781 C 178.242188 15.996094 178.242188 15.816406 178.046875 15.816406 C 177.847656 15.816406 177.847656 16.023438 177.847656 16.175781 L 177.847656 22.351562 C 177.847656 22.5 177.847656 22.710938 178.046875 22.710938 C 178.242188 22.710938 178.242188 22.53125 178.242188 22.351562 L 178.242188 19.460938 L 182.464844 19.460938 "/>
<path style=" stroke:none;fill-rule:nonzero;fill:rgb(0%,0%,0%);fill-opacity:1;" d="M 190.261719 16.433594 C 190.261719 16.253906 190.261719 16.074219 190.0625 16.074219 C 189.867188 16.074219 189.867188 16.285156 189.867188 16.433594 L 189.867188 22.3125 L 187.105469 22.3125 C 186.953125 22.3125 186.746094 22.3125 186.746094 22.511719 C 186.746094 22.710938 186.953125 22.710938 187.105469 22.710938 L 193.035156 22.710938 C 193.203125 22.710938 193.382812 22.710938 193.382812 22.511719 C 193.382812 22.3125 193.203125 22.3125 193.035156 22.3125 L 190.261719 22.3125 L 190.261719 16.433594 "/>
<path style="fill:none;stroke-width:3.98;stroke-linecap:butt;stroke-linejoin:miter;stroke:rgb(0%,0%,0%);stroke-opacity:1;stroke-miterlimit:10;" d="M 1170.820312 371.607813 L 1939.257812 371.607813 " transform="matrix(0.1,0,0,-0.1,0,63.11)"/>
<path style=" stroke:none;fill-rule:nonzero;fill:rgb(0%,0%,0%);fill-opacity:1;" d="M 140.164062 29.03125 C 140.164062 28.855469 140.164062 28.675781 139.964844 28.675781 C 139.765625 28.675781 139.765625 28.882812 139.765625 29.03125 L 139.765625 34.914062 L 137.003906 34.914062 C 136.855469 34.914062 136.648438 34.914062 136.648438 35.113281 C 136.648438 35.308594 136.855469 35.308594 137.003906 35.308594 L 142.933594 35.308594 C 143.101562 35.308594 143.28125 35.308594 143.28125 35.113281 C 143.28125 34.914062 143.101562 34.914062 142.933594 34.914062 L 140.164062 34.914062 L 140.164062 29.03125 "/>
<path style=" stroke:none;fill-rule:nonzero;fill:rgb(0%,0%,0%);fill-opacity:1;" d="M 151.765625 32.0625 C 151.933594 32.0625 152.113281 32.0625 152.113281 31.863281 C 152.113281 31.664062 151.933594 31.664062 151.765625 31.664062 L 147.542969 31.664062 L 147.542969 28.773438 C 147.542969 28.59375 147.542969 28.417969 147.34375 28.417969 C 147.148438 28.417969 147.148438 28.625 147.148438 28.773438 L 147.148438 34.953125 C 147.148438 35.101562 147.148438 35.308594 147.34375 35.308594 C 147.542969 35.308594 147.542969 35.132812 147.542969 34.953125 L 147.542969 32.0625 L 151.765625 32.0625 "/>
<path style=" stroke:none;fill-rule:nonzero;fill:rgb(0%,0%,0%);fill-opacity:1;" d="M 161.640625 31.246094 L 155.648438 31.246094 L 155.648438 31.644531 L 161.242188 31.644531 L 161.242188 33.261719 L 161.640625 33.261719 L 161.640625 31.246094 "/>
<path style=" stroke:none;fill-rule:nonzero;fill:rgb(0%,0%,0%);fill-opacity:1;" d="M 168.539062 31.246094 L 162.546875 31.246094 L 162.546875 31.644531 L 168.140625 31.644531 L 168.140625 33.261719 L 168.539062 33.261719 L 168.539062 31.246094 "/>
<path style=" stroke:none;fill-rule:nonzero;fill:rgb(0%,0%,0%);fill-opacity:1;" d="M 171.078125 37.355469 C 171.015625 36.839844 170.988281 35.875 170.976562 35.417969 L 171.078125 35.339844 C 171.265625 35.390625 171.464844 35.417969 171.664062 35.417969 C 173.203125 35.417969 174.246094 33.808594 174.246094 32.347656 C 174.246094 31.605469 173.898438 30.691406 172.882812 30.691406 C 172.199219 30.691406 171.59375 31 171.054688 31.425781 L 170.976562 31.386719 C 170.9375 30.949219 170.777344 30.640625 170.332031 30.640625 C 169.894531 30.640625 169.378906 31 168.980469 31.316406 L 169.121094 31.503906 C 169.359375 31.367188 169.636719 31.21875 169.84375 31.21875 C 170.144531 31.21875 170.234375 31.734375 170.234375 32.179688 L 170.234375 34.375 C 170.234375 34.941406 170.222656 36.980469 170.171875 37.554688 L 170.273438 37.664062 Z M 170.996094 34.652344 C 170.996094 34.644531 170.976562 33.621094 170.976562 32.808594 C 170.976562 32.699219 171.007812 31.941406 171.007812 31.882812 C 171.472656 31.515625 171.882812 31.308594 172.386719 31.308594 C 173.023438 31.308594 173.410156 32.070312 173.410156 32.9375 C 173.410156 33.878906 173.074219 35.023438 171.871094 35.023438 C 171.542969 35.023438 171.234375 34.871094 170.996094 34.652344 "/>
<path style=" stroke:none;fill-rule:nonzero;fill:rgb(0%,0%,0%);fill-opacity:1;" d="M 215.140625 30.246094 L 209.148438 30.246094 L 209.148438 30.644531 L 214.742188 30.644531 L 214.742188 32.261719 L 215.140625 32.261719 L 215.140625 30.246094 "/>
<path style=" stroke:none;fill-rule:nonzero;fill:rgb(0%,0%,0%);fill-opacity:1;" d="M 221.9375 30.246094 L 215.949219 30.246094 L 215.949219 30.644531 L 221.539062 30.644531 L 221.539062 32.261719 L 221.9375 32.261719 L 221.9375 30.246094 "/>
<path style=" stroke:none;fill-rule:nonzero;fill:rgb(0%,0%,0%);fill-opacity:1;" d="M 224.476562 36.355469 C 224.417969 35.839844 224.386719 34.875 224.378906 34.417969 L 224.476562 34.339844 C 224.664062 34.390625 224.863281 34.417969 225.0625 34.417969 C 226.601562 34.417969 227.644531 32.808594 227.644531 31.347656 C 227.644531 30.605469 227.296875 29.691406 226.285156 29.691406 C 225.601562 29.691406 224.992188 30 224.457031 30.425781 L 224.378906 30.386719 C 224.339844 29.949219 224.179688 29.640625 223.730469 29.640625 C 223.296875 29.640625 222.777344 30 222.382812 30.316406 L 222.519531 30.503906 C 222.757812 30.367188 223.035156 30.21875 223.246094 30.21875 C 223.542969 30.21875 223.632812 30.734375 223.632812 31.179688 L 223.632812 33.375 C 223.632812 33.941406 223.621094 35.980469 223.574219 36.554688 L 223.671875 36.664062 Z M 224.398438 33.652344 C 224.398438 33.644531 224.378906 32.621094 224.378906 31.808594 C 224.378906 31.699219 224.40625 30.941406 224.40625 30.882812 C 224.871094 30.515625 225.28125 30.308594 225.789062 30.308594 C 226.421875 30.308594 226.8125 31.070312 226.8125 31.9375 C 226.8125 32.878906 226.472656 34.023438 225.273438 34.023438 C 224.945312 34.023438 224.636719 33.871094 224.398438 33.652344 "/>
<path style=" stroke:none;fill-rule:nonzero;fill:rgb(0%,0%,0%);fill-opacity:1;" d="M 239.78125 32.027344 C 239.414062 32.480469 238.886719 33.265625 238.640625 34.308594 L 239.039062 34.308594 C 239.34375 33.007812 240.179688 32.105469 240.476562 31.828125 C 240.160156 31.527344 239.34375 30.636719 239.039062 29.34375 L 238.640625 29.34375 C 238.886719 30.375 239.40625 31.160156 239.78125 31.628906 L 232.003906 31.628906 C 231.824219 31.628906 231.65625 31.628906 231.65625 31.828125 C 231.65625 32.027344 231.835938 32.027344 232.003906 32.027344 L 239.78125 32.027344 "/>
<path style=" stroke:none;fill-rule:nonzero;fill:rgb(0%,0%,0%);fill-opacity:1;" d="M 245.878906 36.355469 C 245.816406 35.839844 245.789062 34.875 245.777344 34.417969 L 245.878906 34.339844 C 246.066406 34.390625 246.265625 34.417969 246.464844 34.417969 C 248.003906 34.417969 249.046875 32.808594 249.046875 31.347656 C 249.046875 30.605469 248.699219 29.691406 247.683594 29.691406 C 247 29.691406 246.394531 30 245.855469 30.425781 L 245.777344 30.386719 C 245.738281 29.949219 245.578125 29.640625 245.132812 29.640625 C 244.695312 29.640625 244.179688 30 243.78125 30.316406 L 243.921875 30.503906 C 244.15625 30.367188 244.4375 30.21875 244.644531 30.21875 C 244.945312 30.21875 245.03125 30.734375 245.03125 31.179688 L 245.03125 33.375 C 245.03125 33.941406 245.023438 35.980469 244.972656 36.554688 L 245.070312 36.664062 Z M 245.796875 33.652344 C 245.796875 33.644531 245.777344 32.621094 245.777344 31.808594 C 245.777344 31.699219 245.808594 30.941406 245.808594 30.882812 C 246.273438 30.515625 246.679688 30.308594 247.1875 30.308594 C 247.824219 30.308594 248.210938 31.070312 248.210938 31.9375 C 248.210938 32.878906 247.871094 34.023438 246.671875 34.023438 C 246.34375 34.023438 246.035156 33.871094 245.796875 33.652344 "/>
<path style=" stroke:none;fill-rule:nonzero;fill:rgb(0%,0%,0%);fill-opacity:1;" d="M 257.664062 31.0625 C 257.835938 31.0625 258.011719 31.0625 258.011719 30.863281 C 258.011719 30.664062 257.835938 30.664062 257.664062 30.664062 L 253.445312 30.664062 L 253.445312 27.773438 C 253.445312 27.59375 253.445312 27.417969 253.246094 27.417969 C 253.046875 27.417969 253.046875 27.625 253.046875 27.773438 L 253.046875 33.953125 C 253.046875 34.101562 253.046875 34.308594 253.246094 34.308594 C 253.445312 34.308594 253.445312 34.132812 253.445312 33.953125 L 253.445312 31.0625 L 257.664062 31.0625 "/>
<path style=" stroke:none;fill-rule:nonzero;fill:rgb(0%,0%,0%);fill-opacity:1;" d="M 267.640625 30.246094 L 261.648438 30.246094 L 261.648438 30.644531 L 267.242188 30.644531 L 267.242188 32.261719 L 267.640625 32.261719 L 267.640625 30.246094 "/>
<path style=" stroke:none;fill-rule:nonzero;fill:rgb(0%,0%,0%);fill-opacity:1;" d="M 274.4375 30.246094 L 268.449219 30.246094 L 268.449219 30.644531 L 274.039062 30.644531 L 274.039062 32.261719 L 274.4375 32.261719 L 274.4375 30.246094 "/>
<path style=" stroke:none;fill-rule:nonzero;fill:rgb(0%,0%,0%);fill-opacity:1;" d="M 276.976562 36.355469 C 276.917969 35.839844 276.886719 34.875 276.878906 34.417969 L 276.976562 34.339844 C 277.164062 34.390625 277.363281 34.417969 277.5625 34.417969 C 279.101562 34.417969 280.144531 32.808594 280.144531 31.347656 C 280.144531 30.605469 279.796875 29.691406 278.785156 29.691406 C 278.101562 29.691406 277.492188 30 276.957031 30.425781 L 276.878906 30.386719 C 276.839844 29.949219 276.679688 29.640625 276.230469 29.640625 C 275.796875 29.640625 275.277344 30 274.882812 30.316406 L 275.019531 30.503906 C 275.257812 30.367188 275.535156 30.21875 275.746094 30.21875 C 276.042969 30.21875 276.132812 30.734375 276.132812 31.179688 L 276.132812 33.375 C 276.132812 33.941406 276.121094 35.980469 276.074219 36.554688 L 276.171875 36.664062 Z M 276.898438 33.652344 C 276.898438 33.644531 276.878906 32.621094 276.878906 31.808594 C 276.878906 31.699219 276.90625 30.941406 276.90625 30.882812 C 277.371094 30.515625 277.78125 30.308594 278.289062 30.308594 C 278.921875 30.308594 279.3125 31.070312 279.3125 31.9375 C 279.3125 32.878906 278.972656 34.023438 277.773438 34.023438 C 277.445312 34.023438 277.136719 33.871094 276.898438 33.652344 "/>
<path style=" stroke:none;fill-rule:nonzero;fill:rgb(0%,0%,0%);fill-opacity:1;" d="M 292.382812 32.027344 C 292.015625 32.480469 291.488281 33.265625 291.238281 34.308594 L 291.636719 34.308594 C 291.945312 33.007812 292.78125 32.105469 293.078125 31.828125 C 292.757812 31.527344 291.945312 30.636719 291.636719 29.34375 L 291.238281 29.34375 C 291.488281 30.375 292.003906 31.160156 292.382812 31.628906 L 284.605469 31.628906 C 284.425781 31.628906 284.257812 31.628906 284.257812 31.828125 C 284.257812 32.027344 284.433594 32.027344 284.605469 32.027344 L 292.382812 32.027344 "/>
<path style=" stroke:none;fill-rule:nonzero;fill:rgb(0%,0%,0%);fill-opacity:1;" d="M 298.378906 36.355469 C 298.316406 35.839844 298.289062 34.875 298.277344 34.417969 L 298.378906 34.339844 C 298.566406 34.390625 298.765625 34.417969 298.964844 34.417969 C 300.503906 34.417969 301.546875 32.808594 301.546875 31.347656 C 301.546875 30.605469 301.199219 29.691406 300.183594 29.691406 C 299.5 29.691406 298.894531 30 298.355469 30.425781 L 298.277344 30.386719 C 298.238281 29.949219 298.078125 29.640625 297.632812 29.640625 C 297.195312 29.640625 296.679688 30 296.28125 30.316406 L 296.421875 30.503906 C 296.65625 30.367188 296.9375 30.21875 297.144531 30.21875 C 297.445312 30.21875 297.53125 30.734375 297.53125 31.179688 L 297.53125 33.375 C 297.53125 33.941406 297.523438 35.980469 297.472656 36.554688 L 297.570312 36.664062 Z M 298.296875 33.652344 C 298.296875 33.644531 298.277344 32.621094 298.277344 31.808594 C 298.277344 31.699219 298.308594 30.941406 298.308594 30.882812 C 298.773438 30.515625 299.179688 30.308594 299.6875 30.308594 C 300.324219 30.308594 300.710938 31.070312 300.710938 31.9375 C 300.710938 32.878906 300.371094 34.023438 299.171875 34.023438 C 298.84375 34.023438 298.535156 33.871094 298.296875 33.652344 "/>
<g clip-path="url(#clip1)" clip-rule="nonzero">
<path style="fill:none;stroke-width:3.98;stroke-linecap:butt;stroke-linejoin:miter;stroke:rgb(0%,0%,0%);stroke-opacity:1;stroke-miterlimit:10;" d="M 782.03125 238.092188 L 3072.34375 238.092188 " transform="matrix(0.1,0,0,-0.1,0,63.11)"/>
</g>
<path style=" stroke:none;fill-rule:nonzero;fill:rgb(0%,0%,0%);fill-opacity:1;" d="M 161.464844 42.332031 C 161.464844 42.152344 161.464844 41.972656 161.265625 41.972656 C 161.066406 41.972656 161.066406 42.183594 161.066406 42.332031 L 161.066406 48.214844 L 158.304688 48.214844 C 158.15625 48.214844 157.945312 48.214844 157.945312 48.410156 C 157.945312 48.609375 158.15625 48.609375 158.304688 48.609375 L 164.234375 48.609375 C 164.402344 48.609375 164.582031 48.609375 164.582031 48.410156 C 164.582031 48.214844 164.402344 48.214844 164.234375 48.214844 L 161.464844 48.214844 L 161.464844 42.332031 "/>
<path style=" stroke:none;fill-rule:nonzero;fill:rgb(0%,0%,0%);fill-opacity:1;" d="M 166.292969 50.695312 C 166.996094 49.882812 167.328125 49.375 167.328125 48.878906 C 167.328125 48.53125 166.976562 47.238281 166.453125 47.238281 C 166.203125 47.238281 165.867188 47.457031 165.867188 47.714844 C 165.867188 47.816406 165.894531 47.925781 165.933594 47.972656 L 166.628906 48.800781 C 166.71875 48.910156 166.757812 49.078125 166.757812 49.214844 C 166.757812 49.613281 166.453125 50.101562 166.105469 50.558594 L 166.292969 50.695312 "/>
<path style=" stroke:none;fill-rule:nonzero;fill:rgb(0%,0%,0%);fill-opacity:1;" d="M 175.839844 44.546875 L 169.847656 44.546875 L 169.847656 44.945312 L 175.441406 44.945312 L 175.441406 46.5625 L 175.839844 46.5625 L 175.839844 44.546875 "/>
<path style=" stroke:none;fill-rule:nonzero;fill:rgb(0%,0%,0%);fill-opacity:1;" d="M 182.640625 44.546875 L 176.648438 44.546875 L 176.648438 44.945312 L 182.242188 44.945312 L 182.242188 46.5625 L 182.640625 46.5625 L 182.640625 44.546875 "/>
<path style=" stroke:none;fill-rule:nonzero;fill:rgb(0%,0%,0%);fill-opacity:1;" d="M 185.277344 50.65625 C 185.21875 50.140625 185.1875 49.175781 185.179688 48.71875 L 185.277344 48.640625 C 185.464844 48.691406 185.664062 48.71875 185.863281 48.71875 C 187.402344 48.71875 188.445312 47.109375 188.445312 45.648438 C 188.445312 44.90625 188.097656 43.992188 187.085938 43.992188 C 186.398438 43.992188 185.792969 44.300781 185.257812 44.726562 L 185.179688 44.6875 C 185.136719 44.25 184.976562 43.941406 184.53125 43.941406 C 184.09375 43.941406 183.578125 44.300781 183.179688 44.617188 L 183.320312 44.804688 C 183.558594 44.667969 183.835938 44.519531 184.046875 44.519531 C 184.34375 44.519531 184.433594 45.035156 184.433594 45.480469 L 184.433594 47.675781 C 184.433594 48.242188 184.421875 50.277344 184.371094 50.855469 L 184.472656 50.964844 Z M 185.195312 47.953125 C 185.195312 47.945312 185.179688 46.921875 185.179688 46.105469 C 185.179688 45.996094 185.207031 45.242188 185.207031 45.183594 C 185.671875 44.816406 186.082031 44.605469 186.589844 44.605469 C 187.222656 44.605469 187.609375 45.371094 187.609375 46.238281 C 187.609375 47.179688 187.273438 48.324219 186.070312 48.324219 C 185.742188 48.324219 185.4375 48.171875 185.195312 47.953125 "/>
<path style=" stroke:none;fill-rule:nonzero;fill:rgb(0%,0%,0%);fill-opacity:1;" d="M 200.582031 46.324219 C 200.214844 46.78125 199.6875 47.566406 199.4375 48.609375 L 199.839844 48.609375 C 200.144531 47.308594 200.980469 46.40625 201.277344 46.128906 C 200.960938 45.828125 200.144531 44.933594 199.839844 43.644531 L 199.4375 43.644531 C 199.6875 44.675781 200.203125 45.460938 200.582031 45.925781 L 192.804688 45.925781 C 192.625 45.925781 192.457031 45.925781 192.457031 46.128906 C 192.457031 46.324219 192.632812 46.324219 192.804688 46.324219 L 200.582031 46.324219 "/>
<path style=" stroke:none;fill-rule:nonzero;fill:rgb(0%,0%,0%);fill-opacity:1;" d="M 206.578125 50.65625 C 206.515625 50.140625 206.488281 49.175781 206.476562 48.71875 L 206.578125 48.640625 C 206.765625 48.691406 206.964844 48.71875 207.164062 48.71875 C 208.703125 48.71875 209.746094 47.109375 209.746094 45.648438 C 209.746094 44.90625 209.398438 43.992188 208.382812 43.992188 C 207.699219 43.992188 207.09375 44.300781 206.554688 44.726562 L 206.476562 44.6875 C 206.4375 44.25 206.277344 43.941406 205.832031 43.941406 C 205.394531 43.941406 204.878906 44.300781 204.480469 44.617188 L 204.621094 44.804688 C 204.859375 44.667969 205.136719 44.519531 205.34375 44.519531 C 205.644531 44.519531 205.734375 45.035156 205.734375 45.480469 L 205.734375 47.675781 C 205.734375 48.242188 205.722656 50.277344 205.671875 50.855469 L 205.773438 50.964844 Z M 206.496094 47.953125 C 206.496094 47.945312 206.476562 46.921875 206.476562 46.105469 C 206.476562 45.996094 206.507812 45.242188 206.507812 45.183594 C 206.972656 44.816406 207.382812 44.605469 207.886719 44.605469 C 208.523438 44.605469 208.910156 45.371094 208.910156 46.238281 C 208.910156 47.179688 208.574219 48.324219 207.371094 48.324219 C 207.042969 48.324219 206.734375 48.171875 206.496094 47.953125 "/>
<path style=" stroke:none;fill-rule:nonzero;fill:rgb(0%,0%,0%);fill-opacity:1;" d="M 218.464844 45.363281 C 218.632812 45.363281 218.8125 45.363281 218.8125 45.164062 C 218.8125 44.964844 218.632812 44.964844 218.464844 44.964844 L 214.242188 44.964844 L 214.242188 42.074219 C 214.242188 41.894531 214.242188 41.714844 214.046875 41.714844 C 213.847656 41.714844 213.847656 41.925781 213.847656 42.074219 L 213.847656 48.253906 C 213.847656 48.402344 213.847656 48.609375 214.046875 48.609375 C 214.242188 48.609375 214.242188 48.433594 214.242188 48.253906 L 214.242188 45.363281 L 218.464844 45.363281 "/>
<path style=" stroke:none;fill-rule:nonzero;fill:rgb(0%,0%,0%);fill-opacity:1;" d="M 224.078125 50.65625 C 224.015625 50.140625 223.988281 49.175781 223.976562 48.71875 L 224.078125 48.640625 C 224.265625 48.691406 224.464844 48.71875 224.664062 48.71875 C 226.203125 48.71875 227.246094 47.109375 227.246094 45.648438 C 227.246094 44.90625 226.898438 43.992188 225.882812 43.992188 C 225.199219 43.992188 224.59375 44.300781 224.054688 44.726562 L 223.976562 44.6875 C 223.9375 44.25 223.777344 43.941406 223.332031 43.941406 C 222.894531 43.941406 222.378906 44.300781 221.980469 44.617188 L 222.121094 44.804688 C 222.359375 44.667969 222.636719 44.519531 222.84375 44.519531 C 223.144531 44.519531 223.234375 45.035156 223.234375 45.480469 L 223.234375 47.675781 C 223.234375 48.242188 223.222656 50.277344 223.171875 50.855469 L 223.273438 50.964844 Z M 223.996094 47.953125 C 223.996094 47.945312 223.976562 46.921875 223.976562 46.105469 C 223.976562 45.996094 224.007812 45.242188 224.007812 45.183594 C 224.472656 44.816406 224.882812 44.605469 225.386719 44.605469 C 226.023438 44.605469 226.410156 45.371094 226.410156 46.238281 C 226.410156 47.179688 226.074219 48.324219 224.871094 48.324219 C 224.542969 48.324219 224.234375 48.171875 223.996094 47.953125 "/>
<g clip-path="url(#clip2)" clip-rule="nonzero">
<path style="fill:none;stroke-width:3.98;stroke-linecap:butt;stroke-linejoin:miter;stroke:rgb(0%,0%,0%);stroke-opacity:1;stroke-miterlimit:10;" d="M 372.226562 112.076563 L 3072.34375 112.076563 " transform="matrix(0.1,0,0,-0.1,0,63.11)"/>
</g>
<path style=" stroke:none;fill-rule:nonzero;fill:rgb(0%,0%,0%);fill-opacity:1;" d="M 137.640625 57.148438 L 131.648438 57.148438 L 131.648438 57.542969 L 137.242188 57.542969 L 137.242188 59.164062 L 137.640625 59.164062 L 137.640625 57.148438 "/>
<path style=" stroke:none;fill-rule:nonzero;fill:rgb(0%,0%,0%);fill-opacity:1;" d="M 144.4375 57.148438 L 138.449219 57.148438 L 138.449219 57.542969 L 144.039062 57.542969 L 144.039062 59.164062 L 144.4375 59.164062 L 144.4375 57.148438 "/>
<g clip-path="url(#clip3)" clip-rule="nonzero">
<path style=" stroke:none;fill-rule:nonzero;fill:rgb(0%,0%,0%);fill-opacity:1;" d="M 147.078125 63.257812 C 147.015625 62.738281 146.988281 61.777344 146.976562 61.320312 L 147.078125 61.238281 C 147.265625 61.289062 147.464844 61.320312 147.664062 61.320312 C 149.203125 61.320312 150.246094 59.710938 150.246094 58.25 C 150.246094 57.503906 149.898438 56.589844 148.882812 56.589844 C 148.199219 56.589844 147.59375 56.898438 147.054688 57.324219 L 146.976562 57.285156 C 146.9375 56.847656 146.777344 56.542969 146.332031 56.542969 C 145.894531 56.542969 145.378906 56.898438 144.980469 57.214844 L 145.121094 57.40625 C 145.359375 57.265625 145.636719 57.117188 145.84375 57.117188 C 146.144531 57.117188 146.234375 57.632812 146.234375 58.082031 L 146.234375 60.277344 C 146.234375 60.84375 146.222656 62.878906 146.171875 63.457031 L 146.273438 63.566406 Z M 146.996094 60.554688 C 146.996094 60.542969 146.976562 59.519531 146.976562 58.707031 C 146.976562 58.597656 147.007812 57.84375 147.007812 57.785156 C 147.472656 57.414062 147.882812 57.207031 148.386719 57.207031 C 149.023438 57.207031 149.410156 57.972656 149.410156 58.835938 C 149.410156 59.78125 149.074219 60.921875 147.871094 60.921875 C 147.542969 60.921875 147.234375 60.773438 146.996094 60.554688 "/>
</g>
<path style=" stroke:none;fill-rule:nonzero;fill:rgb(0%,0%,0%);fill-opacity:1;" d="M 162.382812 58.925781 C 162.015625 59.382812 161.488281 60.167969 161.238281 61.210938 L 161.636719 61.210938 C 161.945312 59.910156 162.78125 59.003906 163.078125 58.726562 C 162.757812 58.429688 161.945312 57.535156 161.636719 56.242188 L 161.238281 56.242188 C 161.488281 57.277344 162.003906 58.0625 162.382812 58.527344 L 154.605469 58.527344 C 154.425781 58.527344 154.257812 58.527344 154.257812 58.726562 C 154.257812 58.925781 154.433594 58.925781 154.605469 58.925781 L 162.382812 58.925781 "/>
<g clip-path="url(#clip4)" clip-rule="nonzero">
<path style=" stroke:none;fill-rule:nonzero;fill:rgb(0%,0%,0%);fill-opacity:1;" d="M 168.378906 63.257812 C 168.316406 62.738281 168.289062 61.777344 168.277344 61.320312 L 168.378906 61.238281 C 168.566406 61.289062 168.765625 61.320312 168.964844 61.320312 C 170.503906 61.320312 171.546875 59.710938 171.546875 58.25 C 171.546875 57.503906 171.199219 56.589844 170.183594 56.589844 C 169.5 56.589844 168.894531 56.898438 168.355469 57.324219 L 168.277344 57.285156 C 168.238281 56.847656 168.078125 56.542969 167.632812 56.542969 C 167.195312 56.542969 166.679688 56.898438 166.28125 57.214844 L 166.421875 57.40625 C 166.65625 57.265625 166.9375 57.117188 167.144531 57.117188 C 167.445312 57.117188 167.53125 57.632812 167.53125 58.082031 L 167.53125 60.277344 C 167.53125 60.84375 167.523438 62.878906 167.472656 63.457031 L 167.570312 63.566406 Z M 168.296875 60.554688 C 168.296875 60.542969 168.277344 59.519531 168.277344 58.707031 C 168.277344 58.597656 168.308594 57.84375 168.308594 57.785156 C 168.773438 57.414062 169.179688 57.207031 169.6875 57.207031 C 170.324219 57.207031 170.710938 57.972656 170.710938 58.835938 C 170.710938 59.78125 170.371094 60.921875 169.171875 60.921875 C 168.84375 60.921875 168.535156 60.773438 168.296875 60.554688 "/>
</g>
<path style=" stroke:none;fill-rule:nonzero;fill:rgb(0%,0%,0%);fill-opacity:1;" d="M 180.265625 57.960938 C 180.433594 57.960938 180.613281 57.960938 180.613281 57.761719 C 180.613281 57.566406 180.433594 57.566406 180.265625 57.566406 L 176.042969 57.566406 L 176.042969 54.675781 C 176.042969 54.496094 176.042969 54.316406 175.84375 54.316406 C 175.648438 54.316406 175.648438 54.523438 175.648438 54.675781 L 175.648438 60.851562 C 175.648438 61 175.648438 61.210938 175.84375 61.210938 C 176.042969 61.210938 176.042969 61.03125 176.042969 60.851562 L 176.042969 57.960938 L 180.265625 57.960938 "/>
<path style=" stroke:none;fill-rule:nonzero;fill:rgb(0%,0%,0%);fill-opacity:1;" d="M 187.964844 54.933594 C 187.964844 54.753906 187.964844 54.574219 187.765625 54.574219 C 187.566406 54.574219 187.566406 54.785156 187.566406 54.933594 L 187.566406 60.8125 L 184.804688 60.8125 C 184.65625 60.8125 184.445312 60.8125 184.445312 61.011719 C 184.445312 61.210938 184.65625 61.210938 184.804688 61.210938 L 190.734375 61.210938 C 190.902344 61.210938 191.082031 61.210938 191.082031 61.011719 C 191.082031 60.8125 190.902344 60.8125 190.734375 60.8125 L 187.964844 60.8125 L 187.964844 54.933594 "/>
<path style=" stroke:none;fill-rule:nonzero;fill:rgb(0%,0%,0%);fill-opacity:1;" d="M 203.082031 58.925781 C 202.714844 59.382812 202.1875 60.167969 201.9375 61.210938 L 202.339844 61.210938 C 202.644531 59.910156 203.480469 59.003906 203.777344 58.726562 C 203.460938 58.429688 202.644531 57.535156 202.339844 56.242188 L 201.9375 56.242188 C 202.1875 57.277344 202.703125 58.0625 203.082031 58.527344 L 195.304688 58.527344 C 195.125 58.527344 194.957031 58.527344 194.957031 58.726562 C 194.957031 58.925781 195.132812 58.925781 195.304688 58.925781 L 203.082031 58.925781 "/>
<g clip-path="url(#clip5)" clip-rule="nonzero">
<path style=" stroke:none;fill-rule:nonzero;fill:rgb(0%,0%,0%);fill-opacity:1;" d="M 209.175781 63.257812 C 209.117188 62.738281 209.089844 61.777344 209.078125 61.320312 L 209.175781 61.238281 C 209.367188 61.289062 209.5625 61.320312 209.761719 61.320312 C 211.304688 61.320312 212.34375 59.710938 212.34375 58.25 C 212.34375 57.503906 211.996094 56.589844 210.984375 56.589844 C 210.300781 56.589844 209.695312 56.898438 209.15625 57.324219 L 209.078125 57.285156 C 209.039062 56.847656 208.878906 56.542969 208.429688 56.542969 C 207.996094 56.542969 207.476562 56.898438 207.082031 57.214844 L 207.21875 57.40625 C 207.457031 57.265625 207.734375 57.117188 207.945312 57.117188 C 208.242188 57.117188 208.332031 57.632812 208.332031 58.082031 L 208.332031 60.277344 C 208.332031 60.84375 208.320312 62.878906 208.273438 63.457031 L 208.371094 63.566406 Z M 209.097656 60.554688 C 209.097656 60.542969 209.078125 59.519531 209.078125 58.707031 C 209.078125 58.597656 209.109375 57.84375 209.109375 57.785156 C 209.574219 57.414062 209.980469 57.207031 210.488281 57.207031 C 211.121094 57.207031 211.511719 57.972656 211.511719 58.835938 C 211.511719 59.78125 211.171875 60.921875 209.972656 60.921875 C 209.644531 60.921875 209.335938 60.773438 209.097656 60.554688 "/>
</g>
</g>
</svg>
