<?xml version="1.0" encoding="UTF-8"?>
<svg xmlns="http://www.w3.org/2000/svg" xmlns:xlink="http://www.w3.org/1999/xlink" width="55.51pt" height="9.96pt" viewBox="0 0 55.51 9.96" version="1.1">
<defs>
<clipPath id="clip1">
  <path d="M 0 0 L 2 0 L 2 9.960938 L 0 9.960938 Z M 0 0 "/>
</clipPath>
<clipPath id="clip2">
  <path d="M 10 2 L 16 2 L 16 9.960938 L 10 9.960938 Z M 10 2 "/>
</clipPath>
<clipPath id="clip3">
  <path d="M 49 2 L 55 2 L 55 9.960938 L 49 9.960938 Z M 49 2 "/>
</clipPath>
</defs>
<g id="surface1">
<g clip-path="url(#clip1)" clip-rule="nonzero">
<path style=" stroke:none;fill-rule:nonzero;fill:rgb(0%,0%,0%);fill-opacity:1;" d="M 1.25 9.039062 L 1.25 0.128906 L 0.855469 0.207031 L 0.855469 9.121094 L 1.25 9.039062 "/>
</g>
<path style=" stroke:none;fill-rule:nonzero;fill:rgb(0%,0%,0%);fill-opacity:1;" d="M 7.613281 4.191406 L 7.671875 3.792969 L 1.105469 3.792969 L 1.035156 4.191406 Z M 7.613281 6.148438 L 7.671875 5.75 L 1.105469 5.75 L 1.035156 6.148438 L 7.613281 6.148438 "/>
<g clip-path="url(#clip2)" clip-rule="nonzero">
<path style=" stroke:none;fill-rule:nonzero;fill:rgb(0%,0%,0%);fill-opacity:1;" d="M 12.777344 9.507812 C 12.71875 8.988281 12.6875 8.027344 12.679688 7.570312 L 12.777344 7.488281 C 12.964844 7.539062 13.164062 7.570312 13.363281 7.570312 C 14.902344 7.570312 15.945312 5.960938 15.945312 4.5 C 15.945312 3.753906 15.597656 2.839844 14.585938 2.839844 C 13.898438 2.839844 13.292969 3.148438 12.757812 3.574219 L 12.679688 3.535156 C 12.636719 3.097656 12.476562 2.792969 12.03125 2.792969 C 11.59375 2.792969 11.078125 3.148438 10.679688 3.464844 L 10.820312 3.65625 C 11.058594 3.515625 11.335938 3.367188 11.546875 3.367188 C 11.84375 3.367188 11.933594 3.882812 11.933594 4.332031 L 11.933594 6.527344 C 11.933594 7.09375 11.921875 9.128906 11.875 9.707031 L 11.972656 9.816406 Z M 12.695312 6.804688 C 12.695312 6.792969 12.679688 5.769531 12.679688 4.957031 C 12.679688 4.847656 12.707031 4.09375 12.707031 4.035156 C 13.171875 3.664062 13.582031 3.457031 14.085938 3.457031 C 14.722656 3.457031 15.109375 4.222656 15.109375 5.085938 C 15.109375 6.03125 14.773438 7.171875 13.570312 7.171875 C 13.242188 7.171875 12.9375 7.023438 12.695312 6.804688 "/>
</g>
<path style=" stroke:none;fill-rule:nonzero;fill:rgb(0%,0%,0%);fill-opacity:1;" d="M 26.511719 4.191406 L 26.570312 3.792969 L 20.007812 3.792969 L 19.9375 4.191406 Z M 26.511719 6.148438 L 26.570312 5.75 L 20.007812 5.75 L 19.9375 6.148438 L 26.511719 6.148438 "/>
<path style=" stroke:none;fill-rule:nonzero;fill:rgb(0%,0%,0%);fill-opacity:1;" d="M 32.960938 4.210938 C 33.109375 4.351562 33.414062 4.648438 33.921875 4.976562 C 33.671875 5.136719 33.355469 5.363281 32.960938 5.742188 L 26.214844 5.742188 C 26.046875 5.742188 25.855469 5.742188 25.855469 5.941406 C 25.855469 6.136719 26.035156 6.136719 26.203125 6.136719 L 32.5625 6.136719 C 32.164062 6.566406 31.546875 7.390625 31.179688 8.425781 L 31.578125 8.425781 C 32.125 6.925781 33.226562 5.703125 34.679688 4.976562 C 33.277344 4.28125 32.144531 3.078125 31.578125 1.53125 L 31.179688 1.53125 C 31.558594 2.574219 32.171875 3.386719 32.5625 3.816406 L 26.203125 3.816406 C 26.035156 3.816406 25.855469 3.816406 25.855469 4.011719 C 25.855469 4.210938 26.046875 4.210938 26.214844 4.210938 L 32.960938 4.210938 "/>
<path style=" stroke:none;fill-rule:nonzero;fill:rgb(0%,0%,0%);fill-opacity:1;" d="M 45.964844 4.210938 C 46.132812 4.210938 46.3125 4.210938 46.3125 4.011719 C 46.3125 3.816406 46.132812 3.816406 45.964844 3.816406 L 41.742188 3.816406 L 41.742188 0.925781 C 41.742188 0.746094 41.742188 0.566406 41.546875 0.566406 C 41.347656 0.566406 41.347656 0.773438 41.347656 0.925781 L 41.347656 7.101562 C 41.347656 7.25 41.347656 7.460938 41.546875 7.460938 C 41.742188 7.460938 41.742188 7.28125 41.742188 7.101562 L 41.742188 4.210938 L 45.964844 4.210938 "/>
<g clip-path="url(#clip3)" clip-rule="nonzero">
<path style=" stroke:none;fill-rule:nonzero;fill:rgb(0%,0%,0%);fill-opacity:1;" d="M 51.578125 9.507812 C 51.515625 8.988281 51.488281 8.027344 51.476562 7.570312 L 51.578125 7.488281 C 51.765625 7.539062 51.964844 7.570312 52.164062 7.570312 C 53.703125 7.570312 54.746094 5.960938 54.746094 4.5 C 54.746094 3.753906 54.398438 2.839844 53.382812 2.839844 C 52.699219 2.839844 52.09375 3.148438 51.554688 3.574219 L 51.476562 3.535156 C 51.4375 3.097656 51.277344 2.792969 50.832031 2.792969 C 50.394531 2.792969 49.878906 3.148438 49.480469 3.464844 L 49.621094 3.65625 C 49.859375 3.515625 50.136719 3.367188 50.34375 3.367188 C 50.644531 3.367188 50.734375 3.882812 50.734375 4.332031 L 50.734375 6.527344 C 50.734375 7.09375 50.722656 9.128906 50.671875 9.707031 L 50.773438 9.816406 Z M 51.496094 6.804688 C 51.496094 6.792969 51.476562 5.769531 51.476562 4.957031 C 51.476562 4.847656 51.507812 4.09375 51.507812 4.035156 C 51.972656 3.664062 52.382812 3.457031 52.886719 3.457031 C 53.523438 3.457031 53.910156 4.222656 53.910156 5.085938 C 53.910156 6.03125 53.574219 7.171875 52.371094 7.171875 C 52.042969 7.171875 51.734375 7.023438 51.496094 6.804688 "/>
</g>
</g>
</svg>
