<?xml version="1.0" encoding="UTF-8"?>
<svg xmlns="http://www.w3.org/2000/svg" xmlns:xlink="http://www.w3.org/1999/xlink" width="230.39pt" height="49.69pt" viewBox="0 0 230.39 49.69" version="1.1">
<g id="surface1">
<path style=" stroke:none;fill-rule:nonzero;fill:rgb(0%,0%,0%);fill-opacity:1;" d="M 10.324219 9.433594 C 10.445312 9.871094 10.574219 10.289062 10.898438 10.289062 C 11.050781 10.289062 11.199219 10.269531 11.347656 10.230469 L 12.382812 9.933594 L 12.371094 9.671875 C 12.230469 9.683594 12.082031 9.703125 11.945312 9.703125 C 11.675781 9.703125 11.4375 9.625 11.308594 9.40625 C 10.949219 8.808594 10.683594 7.847656 10.464844 7.042969 C 10.136719 5.847656 9.6875 4.261719 9.539062 3.433594 L 7.613281 3.433594 L 7.613281 3.703125 L 8.507812 3.851562 C 8.59375 3.871094 8.625 3.933594 8.625 3.960938 C 8.625 3.992188 8.625 4 8.617188 4.03125 C 7.574219 6.097656 6.429688 8.125 5.25 10.109375 L 5.277344 10.210938 L 6.183594 10.019531 L 7.34375 7.558594 C 7.363281 7.519531 7.40625 7.476562 7.445312 7.476562 L 9.679688 7.476562 C 9.707031 7.476562 9.769531 7.527344 9.789062 7.566406 Z M 8.796875 4.507812 C 8.796875 4.496094 8.824219 4.46875 8.855469 4.46875 C 8.882812 4.46875 8.914062 4.488281 8.921875 4.507812 L 9.617188 6.933594 C 9.617188 6.941406 9.640625 7.019531 9.640625 7.019531 C 9.640625 7.050781 9.617188 7.089844 9.570312 7.089844 L 7.703125 7.089844 C 7.671875 7.089844 7.632812 7.050781 7.632812 7.019531 C 7.632812 7.011719 7.632812 6.949219 7.640625 6.933594 L 8.796875 4.507812 "/>
<path style=" stroke:none;fill-rule:nonzero;fill:rgb(0%,0%,0%);fill-opacity:1;" d="M 24.082031 7.90625 C 23.714844 8.363281 23.1875 9.144531 22.9375 10.191406 L 23.335938 10.191406 C 23.644531 8.886719 24.480469 7.984375 24.777344 7.707031 C 24.460938 7.410156 23.644531 6.515625 23.335938 5.222656 L 22.9375 5.222656 C 23.1875 6.253906 23.703125 7.042969 24.082031 7.507812 L 16.304688 7.507812 C 16.125 7.507812 15.957031 7.507812 15.957031 7.707031 C 15.957031 7.90625 16.132812 7.90625 16.304688 7.90625 L 24.082031 7.90625 "/>
<path style=" stroke:none;fill-rule:nonzero;fill:rgb(0%,0%,0%);fill-opacity:1;" d="M 30.335938 6.972656 L 30.335938 6.832031 C 30.386719 6.734375 30.59375 6.753906 30.953125 6.753906 C 31.945312 6.753906 33 6.941406 33 8.125 C 33 9.285156 32.09375 9.800781 31.082031 9.800781 C 30.414062 9.800781 30.335938 9.761719 30.335938 9.535156 Z M 30.335938 6.105469 L 30.335938 3.941406 C 30.394531 3.734375 30.832031 3.753906 31.0625 3.753906 C 31.90625 3.753906 32.660156 3.941406 32.660156 4.777344 C 32.660156 5.949219 31.726562 6.40625 30.671875 6.40625 C 30.476562 6.40625 30.355469 6.40625 30.335938 6.304688 Z M 31.984375 6.433594 C 32.789062 6.097656 33.503906 5.660156 33.503906 4.695312 C 33.503906 3.613281 32.351562 3.375 31.230469 3.375 L 28.777344 3.375 L 28.707031 3.445312 L 28.695312 3.613281 C 29.0625 3.714844 29.523438 3.78125 29.523438 4.121094 L 29.523438 9.386719 C 29.523438 9.941406 29.492188 9.78125 29.292969 10.082031 L 29.304688 10.179688 C 29.3125 10.179688 30.613281 10.199219 31.269531 10.199219 C 32.472656 10.199219 33.902344 9.722656 33.902344 8.191406 C 33.902344 7.21875 33.425781 6.703125 31.976562 6.515625 L 31.984375 6.433594 "/>
<path style=" stroke:none;fill-rule:nonzero;fill:rgb(0%,0%,0%);fill-opacity:1;" d="M 46.714844 6.542969 C 47.320312 5.75 47.71875 4.875 47.886719 4.261719 L 47.492188 4.261719 C 47.261719 5.074219 46.636719 6.523438 44.949219 7.707031 C 46.675781 8.917969 47.28125 10.410156 47.492188 11.152344 L 47.886719 11.152344 C 47.71875 10.558594 47.34375 9.671875 46.714844 8.867188 L 52.429688 8.867188 C 51.820312 9.664062 51.425781 10.539062 51.257812 11.152344 L 51.652344 11.152344 C 51.882812 10.339844 52.507812 8.886719 54.195312 7.707031 C 52.46875 6.496094 51.859375 5.003906 51.652344 4.261719 L 51.257812 4.261719 C 51.425781 4.855469 51.800781 5.738281 52.429688 6.542969 Z M 46.378906 8.472656 C 46.140625 8.214844 45.960938 8.015625 45.59375 7.707031 C 45.960938 7.398438 46.140625 7.199219 46.378906 6.941406 L 52.765625 6.941406 C 53.003906 7.199219 53.183594 7.398438 53.550781 7.707031 C 53.183594 8.015625 53.003906 8.214844 52.765625 8.472656 L 46.378906 8.472656 "/>
<path style=" stroke:none;fill-rule:nonzero;fill:rgb(0%,0%,0%);fill-opacity:1;" d="M 66.734375 6.972656 L 66.734375 6.832031 C 66.785156 6.734375 66.992188 6.753906 67.351562 6.753906 C 68.34375 6.753906 69.398438 6.941406 69.398438 8.125 C 69.398438 9.285156 68.492188 9.800781 67.480469 9.800781 C 66.816406 9.800781 66.734375 9.761719 66.734375 9.535156 Z M 66.734375 6.105469 L 66.734375 3.941406 C 66.796875 3.734375 67.234375 3.753906 67.460938 3.753906 C 68.304688 3.753906 69.0625 3.941406 69.0625 4.777344 C 69.0625 5.949219 68.125 6.40625 67.074219 6.40625 C 66.875 6.40625 66.757812 6.40625 66.734375 6.304688 Z M 68.382812 6.433594 C 69.1875 6.097656 69.90625 5.660156 69.90625 4.695312 C 69.90625 3.613281 68.75 3.375 67.628906 3.375 L 65.175781 3.375 L 65.105469 3.445312 L 65.097656 3.613281 C 65.464844 3.714844 65.921875 3.78125 65.921875 4.121094 L 65.921875 9.386719 C 65.921875 9.941406 65.890625 9.78125 65.691406 10.082031 L 65.703125 10.179688 C 65.710938 10.179688 67.015625 10.199219 67.667969 10.199219 C 68.871094 10.199219 70.300781 9.722656 70.300781 8.191406 C 70.300781 7.21875 69.824219 6.703125 68.375 6.515625 L 68.382812 6.433594 "/>
<path style=" stroke:none;fill-rule:nonzero;fill:rgb(0%,0%,0%);fill-opacity:1;" d="M 75.578125 6.054688 C 75.675781 6.363281 75.773438 6.660156 76.035156 6.660156 C 76.15625 6.660156 76.273438 6.644531 76.394531 6.617188 L 77.222656 6.40625 L 77.210938 6.222656 C 77.101562 6.230469 76.984375 6.246094 76.871094 6.246094 C 76.660156 6.246094 76.464844 6.191406 76.367188 6.035156 C 76.085938 5.605469 75.859375 4.9375 75.683594 4.363281 C 75.421875 3.519531 75.066406 2.394531 74.945312 1.808594 L 73.40625 1.808594 L 73.40625 2 L 74.125 2.105469 C 74.195312 2.121094 74.214844 2.160156 74.214844 2.183594 C 74.214844 2.203125 74.214844 2.210938 74.207031 2.230469 C 73.378906 3.691406 72.464844 5.128906 71.515625 6.535156 L 71.542969 6.605469 L 72.257812 6.472656 L 73.195312 4.726562 C 73.210938 4.699219 73.242188 4.671875 73.273438 4.671875 L 75.058594 4.671875 C 75.085938 4.671875 75.136719 4.707031 75.140625 4.734375 Z M 74.347656 2.566406 C 74.355469 2.5625 74.375 2.539062 74.398438 2.539062 C 74.425781 2.539062 74.445312 2.554688 74.453125 2.566406 L 75.007812 4.285156 C 75.015625 4.292969 75.03125 4.347656 75.03125 4.347656 C 75.03125 4.367188 75.015625 4.394531 74.972656 4.394531 L 73.484375 4.394531 C 73.453125 4.394531 73.425781 4.367188 73.425781 4.347656 C 73.425781 4.339844 73.425781 4.296875 73.433594 4.285156 L 74.347656 2.566406 "/>
<path style=" stroke:none;fill-rule:nonzero;fill:rgb(0%,0%,0%);fill-opacity:1;" d="M 106.058594 3.464844 C 106.136719 3.324219 106.136719 3.304688 106.136719 3.277344 C 106.136719 3.207031 106.078125 3.078125 105.9375 3.078125 C 105.820312 3.078125 105.789062 3.136719 105.71875 3.277344 L 101.261719 11.949219 C 101.179688 12.085938 101.179688 12.105469 101.179688 12.136719 C 101.179688 12.214844 101.25 12.335938 101.378906 12.335938 C 101.496094 12.335938 101.527344 12.277344 101.597656 12.136719 L 106.058594 3.464844 "/>
<path style=" stroke:none;fill-rule:nonzero;fill:rgb(0%,0%,0%);fill-opacity:1;" d="M 106.914062 6.921875 L 106.972656 6.523438 L 100.40625 6.523438 L 100.335938 6.921875 Z M 106.914062 8.878906 L 106.972656 8.480469 L 100.40625 8.480469 L 100.335938 8.878906 L 106.914062 8.878906 "/>
<path style=" stroke:none;fill-rule:nonzero;fill:rgb(0%,0%,0%);fill-opacity:1;" d="M 121.15625 2.71875 C 121.15625 2.609375 121.074219 2.519531 120.957031 2.519531 C 120.804688 2.519531 120.777344 2.628906 120.71875 2.839844 C 120.597656 3.238281 120.695312 2.886719 120.589844 3.285156 C 120.46875 3.226562 120.152344 3.078125 119.78125 3.078125 C 119.21875 3.078125 118.570312 3.375 118.203125 4.140625 C 117.816406 4.945312 117.765625 5.839844 117.765625 6.761719 C 117.765625 7.386719 117.765625 9.175781 118.632812 9.949219 C 118.402344 10.714844 118.402344 10.738281 118.402344 10.765625 C 118.402344 10.875 118.484375 10.964844 118.601562 10.964844 C 118.75 10.964844 118.78125 10.863281 118.839844 10.644531 C 118.960938 10.25 118.859375 10.597656 118.96875 10.199219 C 119.207031 10.328125 119.503906 10.410156 119.773438 10.410156 C 120.886719 10.410156 121.324219 9.472656 121.503906 8.996094 C 121.761719 8.300781 121.789062 7.476562 121.789062 6.761719 C 121.789062 6.027344 121.789062 4.378906 120.925781 3.554688 Z M 118.761719 9.496094 C 118.433594 8.808594 118.433594 7.585938 118.433594 6.644531 C 118.433594 5.839844 118.433594 5.152344 118.570312 4.519531 C 118.761719 3.59375 119.335938 3.296875 119.78125 3.296875 C 119.984375 3.296875 120.242188 3.355469 120.496094 3.574219 Z M 120.796875 3.972656 C 121.125 4.546875 121.125 5.699219 121.125 6.644531 C 121.125 7.367188 121.125 8.105469 121.003906 8.769531 C 120.828125 9.8125 120.300781 10.191406 119.773438 10.191406 C 119.546875 10.191406 119.304688 10.109375 119.070312 9.902344 L 120.796875 3.972656 "/>
<path style=" stroke:none;fill-rule:nonzero;fill:rgb(0%,0%,0%);fill-opacity:1;" d="M 134.414062 6.542969 C 135.023438 5.75 135.417969 4.875 135.589844 4.261719 L 135.191406 4.261719 C 134.964844 5.074219 134.335938 6.523438 132.648438 7.707031 C 134.378906 8.917969 134.984375 10.410156 135.191406 11.152344 L 135.589844 11.152344 C 135.417969 10.558594 135.042969 9.671875 134.414062 8.867188 L 140.128906 8.867188 C 139.523438 9.664062 139.125 10.539062 138.957031 11.152344 L 139.351562 11.152344 C 139.582031 10.339844 140.207031 8.886719 141.894531 7.707031 C 140.167969 6.496094 139.5625 5.003906 139.351562 4.261719 L 138.957031 4.261719 C 139.125 4.855469 139.503906 5.738281 140.128906 6.542969 Z M 134.078125 8.472656 C 133.839844 8.214844 133.660156 8.015625 133.292969 7.707031 C 133.660156 7.398438 133.839844 7.199219 134.078125 6.941406 L 140.464844 6.941406 C 140.703125 7.199219 140.882812 7.398438 141.25 7.707031 C 140.882812 8.015625 140.703125 8.214844 140.464844 8.472656 L 134.078125 8.472656 "/>
<path style=" stroke:none;fill-rule:nonzero;fill:rgb(0%,0%,0%);fill-opacity:1;" d="M 154.992188 3.832031 C 155.90625 3.832031 156.710938 4.128906 156.710938 5.164062 C 156.710938 6.265625 155.777344 6.921875 154.394531 6.921875 C 154.355469 6.921875 154.285156 6.890625 154.285156 6.800781 C 154.285156 5.9375 154.304688 4.816406 154.34375 3.941406 C 154.34375 3.890625 154.367188 3.832031 154.433594 3.832031 Z M 154.355469 9.972656 C 154.34375 8.96875 154.285156 7.714844 154.285156 7.46875 C 154.285156 7.277344 154.929688 7.300781 155.21875 7.277344 C 155.867188 7.230469 156.589844 7.082031 157.027344 6.632812 C 157.445312 6.214844 157.664062 5.667969 157.664062 5.082031 C 157.664062 4.03125 156.996094 3.445312 155.367188 3.445312 L 152.816406 3.445312 L 152.746094 3.515625 L 152.746094 3.691406 C 153.121094 3.742188 153.453125 3.832031 153.480469 4.230469 C 153.511719 4.816406 153.53125 5.402344 153.53125 5.988281 C 153.53125 7.386719 153.480469 8.789062 153.460938 10.179688 L 153.53125 10.25 L 154.355469 9.972656 "/>
<path style=" stroke:none;fill-rule:nonzero;fill:rgb(0%,0%,0%);fill-opacity:1;" d="M 162.789062 11.808594 C 161.507812 11.558594 161.4375 9.144531 161.4375 7.46875 C 161.4375 5.96875 161.527344 3.445312 162.789062 3.128906 L 162.789062 2.859375 C 161.757812 3.039062 161.308594 4.167969 161.121094 5.125 C 160.972656 5.867188 160.921875 6.644531 160.921875 7.410156 C 160.921875 8.214844 160.964844 9.019531 161.101562 9.8125 C 161.269531 10.753906 161.746094 11.957031 162.789062 12.046875 L 162.789062 11.808594 "/>
<path style=" stroke:none;fill-rule:nonzero;fill:rgb(0%,0%,0%);fill-opacity:1;" d="M 165.835938 6.972656 L 165.835938 6.832031 C 165.886719 6.734375 166.09375 6.753906 166.453125 6.753906 C 167.445312 6.753906 168.496094 6.941406 168.496094 8.125 C 168.496094 9.285156 167.59375 9.800781 166.582031 9.800781 C 165.914062 9.800781 165.835938 9.761719 165.835938 9.535156 Z M 165.835938 6.105469 L 165.835938 3.941406 C 165.894531 3.734375 166.332031 3.753906 166.5625 3.753906 C 167.40625 3.753906 168.160156 3.941406 168.160156 4.777344 C 168.160156 5.949219 167.226562 6.40625 166.171875 6.40625 C 165.976562 6.40625 165.855469 6.40625 165.835938 6.304688 Z M 167.484375 6.433594 C 168.289062 6.097656 169.003906 5.660156 169.003906 4.695312 C 169.003906 3.613281 167.851562 3.375 166.730469 3.375 L 164.277344 3.375 L 164.207031 3.445312 L 164.195312 3.613281 C 164.5625 3.714844 165.023438 3.78125 165.023438 4.121094 L 165.023438 9.386719 C 165.023438 9.941406 164.992188 9.78125 164.792969 10.082031 L 164.804688 10.179688 C 164.8125 10.179688 166.113281 10.199219 166.769531 10.199219 C 167.972656 10.199219 169.402344 9.722656 169.402344 8.191406 C 169.402344 7.21875 168.925781 6.703125 167.476562 6.515625 L 167.484375 6.433594 "/>
<path style=" stroke:none;fill-rule:nonzero;fill:rgb(0%,0%,0%);fill-opacity:1;" d="M 171.15625 3.144531 C 171.960938 3.433594 172.1875 4.367188 172.335938 5.113281 C 172.484375 5.878906 172.523438 6.671875 172.523438 7.449219 C 172.523438 8.582031 172.546875 9.792969 172.1875 10.855469 C 171.988281 11.449219 171.609375 11.710938 171.15625 11.828125 L 171.15625 12.066406 C 172.933594 11.839844 173.042969 9.1875 173.042969 7.488281 C 173.042969 5.828125 172.832031 3.226562 171.15625 2.878906 L 171.15625 3.144531 "/>
<path style=" stroke:none;fill-rule:nonzero;fill:rgb(0%,0%,0%);fill-opacity:1;" d="M 176.554688 0.691406 C 177.269531 0.691406 177.925781 0.894531 177.925781 1.632812 C 177.925781 2.417969 177.15625 2.878906 176.074219 2.878906 C 176.039062 2.878906 175.984375 2.855469 175.984375 2.792969 C 175.984375 2.179688 176.003906 1.386719 176.03125 0.769531 C 176.03125 0.734375 176.054688 0.691406 176.101562 0.691406 Z M 176.039062 5.035156 C 176.03125 4.324219 175.984375 3.441406 175.984375 3.261719 C 175.984375 3.128906 176.496094 3.152344 176.734375 3.128906 C 177.226562 3.09375 177.839844 2.996094 178.179688 2.671875 C 178.515625 2.386719 178.683594 1.984375 178.683594 1.574219 C 178.683594 0.824219 178.148438 0.417969 176.847656 0.417969 L 174.808594 0.417969 L 174.753906 0.464844 L 174.753906 0.59375 C 175.054688 0.628906 175.324219 0.699219 175.34375 0.972656 C 175.367188 1.386719 175.378906 1.800781 175.378906 2.214844 C 175.378906 3.207031 175.34375 4.199219 175.328125 5.183594 L 175.378906 5.230469 L 176.039062 5.035156 "/>
<path style=" stroke:none;fill-rule:nonzero;fill:rgb(0%,0%,0%);fill-opacity:1;" d="M 181.867188 6.335938 C 180.894531 6.152344 180.824219 4.480469 180.824219 3.261719 C 180.824219 2.203125 180.894531 0.425781 181.867188 0.191406 L 181.867188 0.00390625 C 181.078125 0.128906 180.726562 0.929688 180.578125 1.605469 C 180.460938 2.132812 180.429688 2.679688 180.429688 3.222656 C 180.429688 3.792969 180.460938 4.359375 180.566406 4.921875 C 180.636719 5.28125 180.726562 5.644531 180.964844 5.949219 C 181.171875 6.207031 181.507812 6.476562 181.867188 6.503906 L 181.867188 6.335938 "/>
<path style=" stroke:none;fill-rule:nonzero;fill:rgb(0%,0%,0%);fill-opacity:1;" d="M 187.078125 4.65625 C 187.175781 4.964844 187.273438 5.261719 187.535156 5.261719 C 187.65625 5.261719 187.773438 5.246094 187.894531 5.21875 L 188.722656 5.007812 L 188.710938 4.824219 C 188.601562 4.832031 188.484375 4.847656 188.371094 4.847656 C 188.160156 4.847656 187.964844 4.789062 187.867188 4.636719 C 187.585938 4.207031 187.359375 3.539062 187.183594 2.960938 C 186.921875 2.117188 186.566406 0.992188 186.445312 0.410156 L 184.90625 0.410156 L 184.90625 0.597656 L 185.621094 0.707031 C 185.695312 0.71875 185.714844 0.761719 185.714844 0.78125 C 185.714844 0.800781 185.714844 0.808594 185.707031 0.832031 C 184.878906 2.292969 183.964844 3.726562 183.015625 5.132812 L 183.042969 5.203125 L 183.757812 5.070312 L 184.695312 3.328125 C 184.710938 3.300781 184.742188 3.269531 184.773438 3.269531 L 186.558594 3.269531 C 186.585938 3.269531 186.636719 3.304688 186.640625 3.332031 Z M 185.847656 1.167969 C 185.855469 1.160156 185.878906 1.140625 185.898438 1.140625 C 185.925781 1.140625 185.945312 1.152344 185.953125 1.167969 L 186.507812 2.882812 C 186.515625 2.890625 186.53125 2.949219 186.53125 2.949219 C 186.53125 2.96875 186.515625 2.996094 186.472656 2.996094 L 184.984375 2.996094 C 184.953125 2.996094 184.925781 2.96875 184.925781 2.949219 C 184.925781 2.941406 184.925781 2.898438 184.933594 2.882812 L 185.847656 1.167969 "/>
<path style=" stroke:none;fill-rule:nonzero;fill:rgb(0%,0%,0%);fill-opacity:1;" d="M 190.035156 0.207031 C 190.660156 0.410156 190.828125 1.0625 190.949219 1.597656 C 191.054688 2.136719 191.097656 2.695312 191.097656 3.25 C 191.097656 4.050781 191.117188 4.921875 190.835938 5.660156 C 190.675781 6.097656 190.394531 6.265625 190.035156 6.347656 L 190.035156 6.519531 C 191.40625 6.355469 191.496094 4.480469 191.496094 3.277344 C 191.496094 2.097656 191.328125 0.253906 190.035156 0.015625 L 190.035156 0.207031 "/>
<path style=" stroke:none;fill-rule:nonzero;fill:rgb(0%,0%,0%);fill-opacity:1;" d="M 209.15625 3.464844 C 209.238281 3.324219 209.238281 3.304688 209.238281 3.277344 C 209.238281 3.207031 209.179688 3.078125 209.039062 3.078125 C 208.921875 3.078125 208.890625 3.136719 208.820312 3.277344 L 204.359375 11.949219 C 204.28125 12.085938 204.28125 12.105469 204.28125 12.136719 C 204.28125 12.214844 204.351562 12.335938 204.480469 12.335938 C 204.597656 12.335938 204.628906 12.277344 204.699219 12.136719 L 209.15625 3.464844 "/>
<path style=" stroke:none;fill-rule:nonzero;fill:rgb(0%,0%,0%);fill-opacity:1;" d="M 210.011719 6.921875 L 210.070312 6.523438 L 203.507812 6.523438 L 203.4375 6.921875 Z M 210.011719 8.878906 L 210.070312 8.480469 L 203.507812 8.480469 L 203.4375 8.878906 L 210.011719 8.878906 "/>
<path style=" stroke:none;fill-rule:nonzero;fill:rgb(0%,0%,0%);fill-opacity:1;" d="M 223.28125 3.195312 C 222.84375 3.375 222.355469 3.613281 222.03125 3.941406 C 221.183594 4.785156 220.738281 5.988281 220.738281 7.179688 C 220.738281 8.324219 221.015625 10.328125 222.457031 10.328125 C 224.285156 10.328125 224.96875 8.234375 224.96875 6.652344 C 224.96875 5.332031 224.484375 3.960938 223.28125 3.195312 Z M 222.726562 3.832031 C 223.171875 4.019531 223.609375 4.714844 223.679688 4.835938 C 224.117188 5.621094 224.351562 6.464844 224.351562 7.359375 C 224.351562 8.324219 224.117188 9.671875 222.902344 9.671875 C 222.265625 9.671875 221.8125 8.886719 221.613281 8.214844 C 221.453125 7.667969 221.402344 7.082031 221.402344 6.503906 C 221.402344 5.5 221.851562 4.378906 222.726562 3.832031 "/>
<path style=" stroke:none;fill-rule:nonzero;fill:rgb(0%,0%,0%);fill-opacity:1;" d="M 10.324219 21.433594 C 10.445312 21.871094 10.574219 22.289062 10.898438 22.289062 C 11.050781 22.289062 11.199219 22.269531 11.347656 22.230469 L 12.382812 21.933594 L 12.371094 21.671875 C 12.230469 21.683594 12.082031 21.703125 11.945312 21.703125 C 11.675781 21.703125 11.4375 21.625 11.308594 21.40625 C 10.949219 20.808594 10.683594 19.847656 10.464844 19.042969 C 10.136719 17.847656 9.6875 16.261719 9.539062 15.433594 L 7.613281 15.433594 L 7.613281 15.703125 L 8.507812 15.851562 C 8.59375 15.871094 8.625 15.933594 8.625 15.960938 C 8.625 15.992188 8.625 16 8.617188 16.03125 C 7.574219 18.097656 6.429688 20.125 5.25 22.109375 L 5.277344 22.210938 L 6.183594 22.019531 L 7.34375 19.558594 C 7.363281 19.519531 7.40625 19.476562 7.445312 19.476562 L 9.679688 19.476562 C 9.707031 19.476562 9.769531 19.527344 9.789062 19.566406 Z M 8.796875 16.507812 C 8.796875 16.496094 8.824219 16.46875 8.855469 16.46875 C 8.882812 16.46875 8.914062 16.488281 8.921875 16.507812 L 9.617188 18.933594 C 9.617188 18.941406 9.640625 19.019531 9.640625 19.019531 C 9.640625 19.050781 9.617188 19.089844 9.570312 19.089844 L 7.703125 19.089844 C 7.671875 19.089844 7.632812 19.050781 7.632812 19.019531 C 7.632812 19.011719 7.632812 18.949219 7.640625 18.933594 L 8.796875 16.507812 "/>
<path style=" stroke:none;fill-rule:nonzero;fill:rgb(0%,0%,0%);fill-opacity:1;" d="M 18.914062 15.105469 L 18.824219 15.097656 L 15.007812 22.089844 L 15.117188 22.199219 L 15.40625 22.179688 L 18.851562 15.863281 L 22.113281 22.230469 L 22.53125 22.167969 L 18.914062 15.105469 "/>
<path style=" stroke:none;fill-rule:nonzero;fill:rgb(0%,0%,0%);fill-opacity:1;" d="M 26.9375 18.972656 L 26.9375 18.832031 C 26.984375 18.734375 27.195312 18.753906 27.550781 18.753906 C 28.546875 18.753906 29.597656 18.941406 29.597656 20.125 C 29.597656 21.285156 28.695312 21.800781 27.679688 21.800781 C 27.015625 21.800781 26.9375 21.761719 26.9375 21.535156 Z M 26.9375 18.105469 L 26.9375 15.941406 C 26.996094 15.734375 27.433594 15.753906 27.660156 15.753906 C 28.503906 15.753906 29.261719 15.941406 29.261719 16.777344 C 29.261719 17.949219 28.328125 18.40625 27.273438 18.40625 C 27.074219 18.40625 26.957031 18.40625 26.9375 18.304688 Z M 28.585938 18.433594 C 29.390625 18.097656 30.105469 17.660156 30.105469 16.695312 C 30.105469 15.613281 28.953125 15.375 27.828125 15.375 L 25.375 15.375 L 25.304688 15.445312 L 25.296875 15.613281 C 25.664062 15.714844 26.121094 15.78125 26.121094 16.121094 L 26.121094 21.386719 C 26.121094 21.941406 26.089844 21.78125 25.890625 22.082031 L 25.902344 22.179688 C 25.914062 22.179688 27.214844 22.199219 27.867188 22.199219 C 29.070312 22.199219 30.5 21.722656 30.5 20.191406 C 30.5 19.21875 30.023438 18.703125 28.574219 18.515625 L 28.585938 18.433594 "/>
<path style=" stroke:none;fill-rule:nonzero;fill:rgb(0%,0%,0%);fill-opacity:1;" d="M 46.714844 18.542969 C 47.320312 17.75 47.71875 16.875 47.886719 16.261719 L 47.492188 16.261719 C 47.261719 17.074219 46.636719 18.523438 44.949219 19.707031 C 46.675781 20.917969 47.28125 22.410156 47.492188 23.152344 L 47.886719 23.152344 C 47.71875 22.558594 47.34375 21.671875 46.714844 20.867188 L 52.429688 20.867188 C 51.820312 21.664062 51.425781 22.539062 51.257812 23.152344 L 51.652344 23.152344 C 51.882812 22.339844 52.507812 20.886719 54.195312 19.707031 C 52.46875 18.496094 51.859375 17.003906 51.652344 16.261719 L 51.257812 16.261719 C 51.425781 16.855469 51.800781 17.738281 52.429688 18.542969 Z M 46.378906 20.472656 C 46.140625 20.214844 45.960938 20.015625 45.59375 19.707031 C 45.960938 19.398438 46.140625 19.199219 46.378906 18.941406 L 52.765625 18.941406 C 53.003906 19.199219 53.183594 19.398438 53.550781 19.707031 C 53.183594 20.015625 53.003906 20.214844 52.765625 20.472656 L 46.378906 20.472656 "/>
<path style=" stroke:none;fill-rule:nonzero;fill:rgb(0%,0%,0%);fill-opacity:1;" d="M 69.925781 21.433594 C 70.042969 21.871094 70.171875 22.289062 70.5 22.289062 C 70.648438 22.289062 70.796875 22.269531 70.945312 22.230469 L 71.980469 21.933594 L 71.96875 21.671875 C 71.832031 21.683594 71.683594 21.703125 71.542969 21.703125 C 71.273438 21.703125 71.039062 21.625 70.90625 21.40625 C 70.550781 20.808594 70.28125 19.847656 70.0625 19.042969 C 69.734375 17.847656 69.289062 16.261719 69.140625 15.433594 L 67.210938 15.433594 L 67.210938 15.703125 L 68.105469 15.851562 C 68.195312 15.871094 68.226562 15.933594 68.226562 15.960938 C 68.226562 15.992188 68.226562 16 68.214844 16.03125 C 67.171875 18.097656 66.03125 20.125 64.847656 22.109375 L 64.878906 22.210938 L 65.78125 22.019531 L 66.945312 19.558594 C 66.964844 19.519531 67.003906 19.476562 67.042969 19.476562 L 69.277344 19.476562 C 69.308594 19.476562 69.367188 19.527344 69.386719 19.566406 Z M 68.394531 16.507812 C 68.394531 16.496094 68.425781 16.46875 68.453125 16.46875 C 68.484375 16.46875 68.515625 16.488281 68.523438 16.507812 L 69.21875 18.933594 C 69.21875 18.941406 69.238281 19.019531 69.238281 19.019531 C 69.238281 19.050781 69.21875 19.089844 69.167969 19.089844 L 67.300781 19.089844 C 67.273438 19.089844 67.234375 19.050781 67.234375 19.019531 C 67.234375 19.011719 67.234375 18.949219 67.242188 18.933594 L 68.394531 16.507812 "/>
<path style=" stroke:none;fill-rule:nonzero;fill:rgb(0%,0%,0%);fill-opacity:1;" d="M 80.570312 18.414062 C 80.570312 16.90625 79.050781 16.25 77.808594 16.25 C 76.515625 16.25 75.046875 16.945312 75.046875 18.40625 L 75.046875 22.050781 C 75.046875 22.230469 75.046875 22.410156 75.246094 22.410156 C 75.445312 22.410156 75.445312 22.230469 75.445312 22.050781 L 75.445312 18.457031 C 75.445312 16.964844 77.0625 16.644531 77.808594 16.644531 C 78.253906 16.644531 78.882812 16.738281 79.40625 17.074219 C 80.171875 17.558594 80.171875 18.195312 80.171875 18.464844 L 80.171875 22.050781 C 80.171875 22.230469 80.171875 22.410156 80.371094 22.410156 C 80.570312 22.410156 80.570312 22.230469 80.570312 22.050781 L 80.570312 18.414062 "/>
<path style=" stroke:none;fill-rule:nonzero;fill:rgb(0%,0%,0%);fill-opacity:1;" d="M 85.4375 18.972656 L 85.4375 18.832031 C 85.484375 18.734375 85.695312 18.753906 86.050781 18.753906 C 87.046875 18.753906 88.097656 18.941406 88.097656 20.125 C 88.097656 21.285156 87.195312 21.800781 86.179688 21.800781 C 85.515625 21.800781 85.4375 21.761719 85.4375 21.535156 Z M 85.4375 18.105469 L 85.4375 15.941406 C 85.496094 15.734375 85.933594 15.753906 86.160156 15.753906 C 87.003906 15.753906 87.761719 15.941406 87.761719 16.777344 C 87.761719 17.949219 86.828125 18.40625 85.773438 18.40625 C 85.574219 18.40625 85.457031 18.40625 85.4375 18.304688 Z M 87.085938 18.433594 C 87.890625 18.097656 88.605469 17.660156 88.605469 16.695312 C 88.605469 15.613281 87.453125 15.375 86.328125 15.375 L 83.875 15.375 L 83.804688 15.445312 L 83.796875 15.613281 C 84.164062 15.714844 84.621094 15.78125 84.621094 16.121094 L 84.621094 21.386719 C 84.621094 21.941406 84.589844 21.78125 84.390625 22.082031 L 84.402344 22.179688 C 84.414062 22.179688 85.714844 22.199219 86.367188 22.199219 C 87.570312 22.199219 89 21.722656 89 20.191406 C 89 19.21875 88.523438 18.703125 87.074219 18.515625 L 87.085938 18.433594 "/>
<path style=" stroke:none;fill-rule:nonzero;fill:rgb(0%,0%,0%);fill-opacity:1;" d="M 106.058594 15.464844 C 106.136719 15.324219 106.136719 15.304688 106.136719 15.277344 C 106.136719 15.207031 106.078125 15.078125 105.9375 15.078125 C 105.820312 15.078125 105.789062 15.136719 105.71875 15.277344 L 101.261719 23.949219 C 101.179688 24.085938 101.179688 24.105469 101.179688 24.136719 C 101.179688 24.214844 101.25 24.335938 101.378906 24.335938 C 101.496094 24.335938 101.527344 24.277344 101.597656 24.136719 L 106.058594 15.464844 "/>
<path style=" stroke:none;fill-rule:nonzero;fill:rgb(0%,0%,0%);fill-opacity:1;" d="M 106.914062 18.921875 L 106.972656 18.523438 L 100.40625 18.523438 L 100.335938 18.921875 Z M 106.914062 20.878906 L 106.972656 20.480469 L 100.40625 20.480469 L 100.335938 20.878906 L 106.914062 20.878906 "/>
<path style=" stroke:none;fill-rule:nonzero;fill:rgb(0%,0%,0%);fill-opacity:1;" d="M 121.15625 14.71875 C 121.15625 14.609375 121.074219 14.519531 120.957031 14.519531 C 120.804688 14.519531 120.777344 14.628906 120.71875 14.839844 C 120.597656 15.238281 120.695312 14.886719 120.589844 15.285156 C 120.46875 15.226562 120.152344 15.078125 119.78125 15.078125 C 119.21875 15.078125 118.570312 15.375 118.203125 16.140625 C 117.816406 16.945312 117.765625 17.839844 117.765625 18.761719 C 117.765625 19.386719 117.765625 21.175781 118.632812 21.949219 C 118.402344 22.714844 118.402344 22.738281 118.402344 22.765625 C 118.402344 22.875 118.484375 22.964844 118.601562 22.964844 C 118.75 22.964844 118.78125 22.863281 118.839844 22.644531 C 118.960938 22.25 118.859375 22.597656 118.96875 22.199219 C 119.207031 22.328125 119.503906 22.410156 119.773438 22.410156 C 120.886719 22.410156 121.324219 21.472656 121.503906 20.996094 C 121.761719 20.300781 121.789062 19.476562 121.789062 18.761719 C 121.789062 18.027344 121.789062 16.378906 120.925781 15.554688 Z M 118.761719 21.496094 C 118.433594 20.808594 118.433594 19.585938 118.433594 18.644531 C 118.433594 17.839844 118.433594 17.152344 118.570312 16.519531 C 118.761719 15.59375 119.335938 15.296875 119.78125 15.296875 C 119.984375 15.296875 120.242188 15.355469 120.496094 15.574219 Z M 120.796875 15.972656 C 121.125 16.546875 121.125 17.699219 121.125 18.644531 C 121.125 19.367188 121.125 20.105469 121.003906 20.769531 C 120.828125 21.8125 120.300781 22.191406 119.773438 22.191406 C 119.546875 22.191406 119.304688 22.109375 119.070312 21.902344 L 120.796875 15.972656 "/>
<path style=" stroke:none;fill-rule:nonzero;fill:rgb(0%,0%,0%);fill-opacity:1;" d="M 134.414062 18.542969 C 135.023438 17.75 135.417969 16.875 135.589844 16.261719 L 135.191406 16.261719 C 134.964844 17.074219 134.335938 18.523438 132.648438 19.707031 C 134.378906 20.917969 134.984375 22.410156 135.191406 23.152344 L 135.589844 23.152344 C 135.417969 22.558594 135.042969 21.671875 134.414062 20.867188 L 140.128906 20.867188 C 139.523438 21.664062 139.125 22.539062 138.957031 23.152344 L 139.351562 23.152344 C 139.582031 22.339844 140.207031 20.886719 141.894531 19.707031 C 140.167969 18.496094 139.5625 17.003906 139.351562 16.261719 L 138.957031 16.261719 C 139.125 16.855469 139.503906 17.738281 140.128906 18.542969 Z M 134.078125 20.472656 C 133.839844 20.214844 133.660156 20.015625 133.292969 19.707031 C 133.660156 19.398438 133.839844 19.199219 134.078125 18.941406 L 140.464844 18.941406 C 140.703125 19.199219 140.882812 19.398438 141.25 19.707031 C 140.882812 20.015625 140.703125 20.214844 140.464844 20.472656 L 134.078125 20.472656 "/>
<path style=" stroke:none;fill-rule:nonzero;fill:rgb(0%,0%,0%);fill-opacity:1;" d="M 154.992188 15.832031 C 155.90625 15.832031 156.710938 16.128906 156.710938 17.164062 C 156.710938 18.265625 155.777344 18.921875 154.394531 18.921875 C 154.355469 18.921875 154.285156 18.890625 154.285156 18.800781 C 154.285156 17.9375 154.304688 16.816406 154.34375 15.941406 C 154.34375 15.890625 154.367188 15.832031 154.433594 15.832031 Z M 154.355469 21.972656 C 154.34375 20.96875 154.285156 19.714844 154.285156 19.46875 C 154.285156 19.277344 154.929688 19.300781 155.21875 19.277344 C 155.867188 19.230469 156.589844 19.082031 157.027344 18.632812 C 157.445312 18.214844 157.664062 17.667969 157.664062 17.082031 C 157.664062 16.03125 156.996094 15.445312 155.367188 15.445312 L 152.816406 15.445312 L 152.746094 15.515625 L 152.746094 15.691406 C 153.121094 15.742188 153.453125 15.832031 153.480469 16.230469 C 153.511719 16.816406 153.53125 17.402344 153.53125 17.988281 C 153.53125 19.386719 153.480469 20.789062 153.460938 22.179688 L 153.53125 22.25 L 154.355469 21.972656 "/>
<path style=" stroke:none;fill-rule:nonzero;fill:rgb(0%,0%,0%);fill-opacity:1;" d="M 162.789062 23.808594 C 161.507812 23.558594 161.4375 21.144531 161.4375 19.46875 C 161.4375 17.96875 161.527344 15.445312 162.789062 15.128906 L 162.789062 14.859375 C 161.757812 15.039062 161.308594 16.167969 161.121094 17.125 C 160.972656 17.867188 160.921875 18.644531 160.921875 19.410156 C 160.921875 20.214844 160.964844 21.019531 161.101562 21.8125 C 161.269531 22.753906 161.746094 23.957031 162.789062 24.046875 L 162.789062 23.808594 "/>
<path style=" stroke:none;fill-rule:nonzero;fill:rgb(0%,0%,0%);fill-opacity:1;" d="M 169.023438 21.433594 C 169.144531 21.871094 169.273438 22.289062 169.601562 22.289062 C 169.75 22.289062 169.898438 22.269531 170.046875 22.230469 L 171.082031 21.933594 L 171.070312 21.671875 C 170.929688 21.683594 170.78125 21.703125 170.644531 21.703125 C 170.375 21.703125 170.136719 21.625 170.007812 21.40625 C 169.648438 20.808594 169.382812 19.847656 169.164062 19.042969 C 168.835938 17.847656 168.390625 16.261719 168.238281 15.433594 L 166.3125 15.433594 L 166.3125 15.703125 L 167.207031 15.851562 C 167.296875 15.871094 167.328125 15.933594 167.328125 15.960938 C 167.328125 15.992188 167.328125 16 167.316406 16.03125 C 166.273438 18.097656 165.128906 20.125 163.949219 22.109375 L 163.976562 22.210938 L 164.882812 22.019531 L 166.042969 19.558594 C 166.0625 19.519531 166.105469 19.476562 166.144531 19.476562 L 168.378906 19.476562 C 168.40625 19.476562 168.46875 19.527344 168.488281 19.566406 Z M 167.496094 16.507812 C 167.496094 16.496094 167.523438 16.46875 167.554688 16.46875 C 167.585938 16.46875 167.613281 16.488281 167.621094 16.507812 L 168.320312 18.933594 C 168.320312 18.941406 168.339844 19.019531 168.339844 19.019531 C 168.339844 19.050781 168.320312 19.089844 168.269531 19.089844 L 166.402344 19.089844 C 166.371094 19.089844 166.332031 19.050781 166.332031 19.019531 C 166.332031 19.011719 166.332031 18.949219 166.34375 18.933594 L 167.496094 16.507812 "/>
<path style=" stroke:none;fill-rule:nonzero;fill:rgb(0%,0%,0%);fill-opacity:1;" d="M 179.667969 18.414062 C 179.667969 16.90625 178.148438 16.25 176.90625 16.25 C 175.617188 16.25 174.148438 16.945312 174.148438 18.40625 L 174.148438 22.050781 C 174.148438 22.230469 174.148438 22.410156 174.34375 22.410156 C 174.542969 22.410156 174.542969 22.230469 174.542969 22.050781 L 174.542969 18.457031 C 174.542969 16.964844 176.164062 16.644531 176.90625 16.644531 C 177.355469 16.644531 177.980469 16.738281 178.507812 17.074219 C 179.273438 17.558594 179.273438 18.195312 179.273438 18.464844 L 179.273438 22.050781 C 179.273438 22.230469 179.273438 22.410156 179.46875 22.410156 C 179.667969 22.410156 179.667969 22.230469 179.667969 22.050781 L 179.667969 18.414062 "/>
<path style=" stroke:none;fill-rule:nonzero;fill:rgb(0%,0%,0%);fill-opacity:1;" d="M 184.636719 18.972656 L 184.636719 18.832031 C 184.6875 18.734375 184.894531 18.753906 185.253906 18.753906 C 186.246094 18.753906 187.296875 18.941406 187.296875 20.125 C 187.296875 21.285156 186.394531 21.800781 185.382812 21.800781 C 184.714844 21.800781 184.636719 21.761719 184.636719 21.535156 Z M 184.636719 18.105469 L 184.636719 15.941406 C 184.695312 15.734375 185.132812 15.753906 185.359375 15.753906 C 186.203125 15.753906 186.960938 15.941406 186.960938 16.777344 C 186.960938 17.949219 186.027344 18.40625 184.972656 18.40625 C 184.773438 18.40625 184.65625 18.40625 184.636719 18.304688 Z M 186.285156 18.433594 C 187.089844 18.097656 187.804688 17.660156 187.804688 16.695312 C 187.804688 15.613281 186.652344 15.375 185.53125 15.375 L 183.078125 15.375 L 183.007812 15.445312 L 182.996094 15.613281 C 183.363281 15.714844 183.820312 15.78125 183.820312 16.121094 L 183.820312 21.386719 C 183.820312 21.941406 183.789062 21.78125 183.59375 22.082031 L 183.601562 22.179688 C 183.613281 22.179688 184.914062 22.199219 185.570312 22.199219 C 186.773438 22.199219 188.203125 21.722656 188.203125 20.191406 C 188.203125 19.21875 187.726562 18.703125 186.273438 18.515625 L 186.285156 18.433594 "/>
<path style=" stroke:none;fill-rule:nonzero;fill:rgb(0%,0%,0%);fill-opacity:1;" d="M 189.855469 15.144531 C 190.660156 15.433594 190.886719 16.367188 191.035156 17.113281 C 191.1875 17.878906 191.226562 18.671875 191.226562 19.449219 C 191.226562 20.582031 191.246094 21.792969 190.886719 22.855469 C 190.6875 23.449219 190.3125 23.710938 189.855469 23.828125 L 189.855469 24.066406 C 191.632812 23.839844 191.742188 21.1875 191.742188 19.488281 C 191.742188 17.828125 191.53125 15.226562 189.855469 14.878906 L 189.855469 15.144531 "/>
<path style=" stroke:none;fill-rule:nonzero;fill:rgb(0%,0%,0%);fill-opacity:1;" d="M 209.15625 15.464844 C 209.238281 15.324219 209.238281 15.304688 209.238281 15.277344 C 209.238281 15.207031 209.179688 15.078125 209.039062 15.078125 C 208.921875 15.078125 208.890625 15.136719 208.820312 15.277344 L 204.359375 23.949219 C 204.28125 24.085938 204.28125 24.105469 204.28125 24.136719 C 204.28125 24.214844 204.351562 24.335938 204.480469 24.335938 C 204.597656 24.335938 204.628906 24.277344 204.699219 24.136719 L 209.15625 15.464844 "/>
<path style=" stroke:none;fill-rule:nonzero;fill:rgb(0%,0%,0%);fill-opacity:1;" d="M 210.011719 18.921875 L 210.070312 18.523438 L 203.507812 18.523438 L 203.4375 18.921875 Z M 210.011719 20.878906 L 210.070312 20.480469 L 203.507812 20.480469 L 203.4375 20.878906 L 210.011719 20.878906 "/>
<path style=" stroke:none;fill-rule:nonzero;fill:rgb(0%,0%,0%);fill-opacity:1;" d="M 223.28125 15.195312 C 222.84375 15.375 222.355469 15.613281 222.03125 15.941406 C 221.183594 16.785156 220.738281 17.988281 220.738281 19.179688 C 220.738281 20.324219 221.015625 22.328125 222.457031 22.328125 C 224.285156 22.328125 224.96875 20.234375 224.96875 18.652344 C 224.96875 17.332031 224.484375 15.960938 223.28125 15.195312 Z M 222.726562 15.832031 C 223.171875 16.019531 223.609375 16.714844 223.679688 16.835938 C 224.117188 17.621094 224.351562 18.464844 224.351562 19.359375 C 224.351562 20.324219 224.117188 21.671875 222.902344 21.671875 C 222.265625 21.671875 221.8125 20.886719 221.613281 20.214844 C 221.453125 19.667969 221.402344 19.082031 221.402344 18.503906 C 221.402344 17.5 221.851562 16.378906 222.726562 15.832031 "/>
<path style=" stroke:none;fill-rule:nonzero;fill:rgb(0%,0%,0%);fill-opacity:1;" d="M 10.324219 33.433594 C 10.445312 33.871094 10.574219 34.289062 10.898438 34.289062 C 11.050781 34.289062 11.199219 34.269531 11.347656 34.230469 L 12.382812 33.933594 L 12.371094 33.671875 C 12.230469 33.683594 12.082031 33.703125 11.945312 33.703125 C 11.675781 33.703125 11.4375 33.625 11.308594 33.40625 C 10.949219 32.808594 10.683594 31.847656 10.464844 31.042969 C 10.136719 29.847656 9.6875 28.261719 9.539062 27.433594 L 7.613281 27.433594 L 7.613281 27.703125 L 8.507812 27.851562 C 8.59375 27.871094 8.625 27.933594 8.625 27.960938 C 8.625 27.992188 8.625 28 8.617188 28.03125 C 7.574219 30.097656 6.429688 32.125 5.25 34.109375 L 5.277344 34.210938 L 6.183594 34.019531 L 7.34375 31.558594 C 7.363281 31.519531 7.40625 31.476562 7.445312 31.476562 L 9.679688 31.476562 C 9.707031 31.476562 9.769531 31.527344 9.789062 31.566406 Z M 8.796875 28.507812 C 8.796875 28.496094 8.824219 28.46875 8.855469 28.46875 C 8.882812 28.46875 8.914062 28.488281 8.921875 28.507812 L 9.617188 30.933594 C 9.617188 30.941406 9.640625 31.019531 9.640625 31.019531 C 9.640625 31.050781 9.617188 31.089844 9.570312 31.089844 L 7.703125 31.089844 C 7.671875 31.089844 7.632812 31.050781 7.632812 31.019531 C 7.632812 31.011719 7.632812 30.949219 7.640625 30.933594 L 8.796875 28.507812 "/>
<path style=" stroke:none;fill-rule:nonzero;fill:rgb(0%,0%,0%);fill-opacity:1;" d="M 22.410156 27.394531 L 22.371094 27.355469 L 21.984375 27.355469 L 18.625 33.605469 L 15.375 27.394531 L 14.960938 27.464844 L 18.546875 34.308594 L 18.695312 34.308594 L 22.410156 27.394531 "/>
<path style=" stroke:none;fill-rule:nonzero;fill:rgb(0%,0%,0%);fill-opacity:1;" d="M 26.9375 30.972656 L 26.9375 30.832031 C 26.984375 30.734375 27.195312 30.753906 27.550781 30.753906 C 28.546875 30.753906 29.597656 30.941406 29.597656 32.125 C 29.597656 33.285156 28.695312 33.800781 27.679688 33.800781 C 27.015625 33.800781 26.9375 33.761719 26.9375 33.535156 Z M 26.9375 30.105469 L 26.9375 27.941406 C 26.996094 27.734375 27.433594 27.753906 27.660156 27.753906 C 28.503906 27.753906 29.261719 27.941406 29.261719 28.777344 C 29.261719 29.949219 28.328125 30.40625 27.273438 30.40625 C 27.074219 30.40625 26.957031 30.40625 26.9375 30.304688 Z M 28.585938 30.433594 C 29.390625 30.097656 30.105469 29.660156 30.105469 28.695312 C 30.105469 27.613281 28.953125 27.375 27.828125 27.375 L 25.375 27.375 L 25.304688 27.445312 L 25.296875 27.613281 C 25.664062 27.714844 26.121094 27.78125 26.121094 28.121094 L 26.121094 33.386719 C 26.121094 33.941406 26.089844 33.78125 25.890625 34.082031 L 25.902344 34.179688 C 25.914062 34.179688 27.214844 34.199219 27.867188 34.199219 C 29.070312 34.199219 30.5 33.722656 30.5 32.191406 C 30.5 31.21875 30.023438 30.703125 28.574219 30.515625 L 28.585938 30.433594 "/>
<path style=" stroke:none;fill-rule:nonzero;fill:rgb(0%,0%,0%);fill-opacity:1;" d="M 46.714844 30.542969 C 47.320312 29.75 47.71875 28.875 47.886719 28.261719 L 47.492188 28.261719 C 47.261719 29.074219 46.636719 30.523438 44.949219 31.707031 C 46.675781 32.917969 47.28125 34.410156 47.492188 35.152344 L 47.886719 35.152344 C 47.71875 34.558594 47.34375 33.671875 46.714844 32.867188 L 52.429688 32.867188 C 51.820312 33.664062 51.425781 34.539062 51.257812 35.152344 L 51.652344 35.152344 C 51.882812 34.339844 52.507812 32.886719 54.195312 31.707031 C 52.46875 30.496094 51.859375 29.003906 51.652344 28.261719 L 51.257812 28.261719 C 51.425781 28.855469 51.800781 29.738281 52.429688 30.542969 Z M 46.378906 32.472656 C 46.140625 32.214844 45.960938 32.015625 45.59375 31.707031 C 45.960938 31.398438 46.140625 31.199219 46.378906 30.941406 L 52.765625 30.941406 C 53.003906 31.199219 53.183594 31.398438 53.550781 31.707031 C 53.183594 32.015625 53.003906 32.214844 52.765625 32.472656 L 46.378906 32.472656 "/>
<path style=" stroke:none;fill-rule:nonzero;fill:rgb(0%,0%,0%);fill-opacity:1;" d="M 69.925781 33.433594 C 70.042969 33.871094 70.171875 34.289062 70.5 34.289062 C 70.648438 34.289062 70.796875 34.269531 70.945312 34.230469 L 71.980469 33.933594 L 71.96875 33.671875 C 71.832031 33.683594 71.683594 33.703125 71.542969 33.703125 C 71.273438 33.703125 71.039062 33.625 70.90625 33.40625 C 70.550781 32.808594 70.28125 31.847656 70.0625 31.042969 C 69.734375 29.847656 69.289062 28.261719 69.140625 27.433594 L 67.210938 27.433594 L 67.210938 27.703125 L 68.105469 27.851562 C 68.195312 27.871094 68.226562 27.933594 68.226562 27.960938 C 68.226562 27.992188 68.226562 28 68.214844 28.03125 C 67.171875 30.097656 66.03125 32.125 64.847656 34.109375 L 64.878906 34.210938 L 65.78125 34.019531 L 66.945312 31.558594 C 66.964844 31.519531 67.003906 31.476562 67.042969 31.476562 L 69.277344 31.476562 C 69.308594 31.476562 69.367188 31.527344 69.386719 31.566406 Z M 68.394531 28.507812 C 68.394531 28.496094 68.425781 28.46875 68.453125 28.46875 C 68.484375 28.46875 68.515625 28.488281 68.523438 28.507812 L 69.21875 30.933594 C 69.21875 30.941406 69.238281 31.019531 69.238281 31.019531 C 69.238281 31.050781 69.21875 31.089844 69.167969 31.089844 L 67.300781 31.089844 C 67.273438 31.089844 67.234375 31.050781 67.234375 31.019531 C 67.234375 31.011719 67.234375 30.949219 67.242188 30.933594 L 68.394531 28.507812 "/>
<path style=" stroke:none;fill-rule:nonzero;fill:rgb(0%,0%,0%);fill-opacity:1;" d="M 80.570312 28.605469 C 80.570312 28.429688 80.570312 28.25 80.371094 28.25 C 80.171875 28.25 80.171875 28.429688 80.171875 28.605469 L 80.171875 32.203125 C 80.171875 33.691406 78.554688 34.011719 77.808594 34.011719 C 77.359375 34.011719 76.734375 33.921875 76.210938 33.582031 C 75.445312 33.097656 75.445312 32.460938 75.445312 32.191406 L 75.445312 28.605469 C 75.445312 28.429688 75.445312 28.25 75.246094 28.25 C 75.046875 28.25 75.046875 28.429688 75.046875 28.605469 L 75.046875 32.242188 C 75.046875 33.753906 76.566406 34.410156 77.808594 34.410156 C 79.101562 34.410156 80.570312 33.714844 80.570312 32.253906 L 80.570312 28.605469 "/>
<path style=" stroke:none;fill-rule:nonzero;fill:rgb(0%,0%,0%);fill-opacity:1;" d="M 85.4375 30.972656 L 85.4375 30.832031 C 85.484375 30.734375 85.695312 30.753906 86.050781 30.753906 C 87.046875 30.753906 88.097656 30.941406 88.097656 32.125 C 88.097656 33.285156 87.195312 33.800781 86.179688 33.800781 C 85.515625 33.800781 85.4375 33.761719 85.4375 33.535156 Z M 85.4375 30.105469 L 85.4375 27.941406 C 85.496094 27.734375 85.933594 27.753906 86.160156 27.753906 C 87.003906 27.753906 87.761719 27.941406 87.761719 28.777344 C 87.761719 29.949219 86.828125 30.40625 85.773438 30.40625 C 85.574219 30.40625 85.457031 30.40625 85.4375 30.304688 Z M 87.085938 30.433594 C 87.890625 30.097656 88.605469 29.660156 88.605469 28.695312 C 88.605469 27.613281 87.453125 27.375 86.328125 27.375 L 83.875 27.375 L 83.804688 27.445312 L 83.796875 27.613281 C 84.164062 27.714844 84.621094 27.78125 84.621094 28.121094 L 84.621094 33.386719 C 84.621094 33.941406 84.589844 33.78125 84.390625 34.082031 L 84.402344 34.179688 C 84.414062 34.179688 85.714844 34.199219 86.367188 34.199219 C 87.570312 34.199219 89 33.722656 89 32.191406 C 89 31.21875 88.523438 30.703125 87.074219 30.515625 L 87.085938 30.433594 "/>
<path style=" stroke:none;fill-rule:nonzero;fill:rgb(0%,0%,0%);fill-opacity:1;" d="M 106.058594 27.464844 C 106.136719 27.324219 106.136719 27.304688 106.136719 27.277344 C 106.136719 27.207031 106.078125 27.078125 105.9375 27.078125 C 105.820312 27.078125 105.789062 27.136719 105.71875 27.277344 L 101.261719 35.949219 C 101.179688 36.085938 101.179688 36.105469 101.179688 36.136719 C 101.179688 36.214844 101.25 36.335938 101.378906 36.335938 C 101.496094 36.335938 101.527344 36.277344 101.597656 36.136719 L 106.058594 27.464844 "/>
<path style=" stroke:none;fill-rule:nonzero;fill:rgb(0%,0%,0%);fill-opacity:1;" d="M 106.914062 30.921875 L 106.972656 30.523438 L 100.40625 30.523438 L 100.335938 30.921875 Z M 106.914062 32.878906 L 106.972656 32.480469 L 100.40625 32.480469 L 100.335938 32.878906 L 106.914062 32.878906 "/>
<path style=" stroke:none;fill-rule:nonzero;fill:rgb(0%,0%,0%);fill-opacity:1;" d="M 121.15625 26.71875 C 121.15625 26.609375 121.074219 26.519531 120.957031 26.519531 C 120.804688 26.519531 120.777344 26.628906 120.71875 26.839844 C 120.597656 27.238281 120.695312 26.886719 120.589844 27.285156 C 120.46875 27.226562 120.152344 27.078125 119.78125 27.078125 C 119.21875 27.078125 118.570312 27.375 118.203125 28.140625 C 117.816406 28.945312 117.765625 29.839844 117.765625 30.761719 C 117.765625 31.386719 117.765625 33.175781 118.632812 33.949219 C 118.402344 34.714844 118.402344 34.738281 118.402344 34.765625 C 118.402344 34.875 118.484375 34.964844 118.601562 34.964844 C 118.75 34.964844 118.78125 34.863281 118.839844 34.644531 C 118.960938 34.25 118.859375 34.597656 118.96875 34.199219 C 119.207031 34.328125 119.503906 34.410156 119.773438 34.410156 C 120.886719 34.410156 121.324219 33.472656 121.503906 32.996094 C 121.761719 32.300781 121.789062 31.476562 121.789062 30.761719 C 121.789062 30.027344 121.789062 28.378906 120.925781 27.554688 Z M 118.761719 33.496094 C 118.433594 32.808594 118.433594 31.585938 118.433594 30.644531 C 118.433594 29.839844 118.433594 29.152344 118.570312 28.519531 C 118.761719 27.59375 119.335938 27.296875 119.78125 27.296875 C 119.984375 27.296875 120.242188 27.355469 120.496094 27.574219 Z M 120.796875 27.972656 C 121.125 28.546875 121.125 29.699219 121.125 30.644531 C 121.125 31.367188 121.125 32.105469 121.003906 32.769531 C 120.828125 33.8125 120.300781 34.191406 119.773438 34.191406 C 119.546875 34.191406 119.304688 34.109375 119.070312 33.902344 L 120.796875 27.972656 "/>
<path style=" stroke:none;fill-rule:nonzero;fill:rgb(0%,0%,0%);fill-opacity:1;" d="M 134.414062 30.542969 C 135.023438 29.75 135.417969 28.875 135.589844 28.261719 L 135.191406 28.261719 C 134.964844 29.074219 134.335938 30.523438 132.648438 31.707031 C 134.378906 32.917969 134.984375 34.410156 135.191406 35.152344 L 135.589844 35.152344 C 135.417969 34.558594 135.042969 33.671875 134.414062 32.867188 L 140.128906 32.867188 C 139.523438 33.664062 139.125 34.539062 138.957031 35.152344 L 139.351562 35.152344 C 139.582031 34.339844 140.207031 32.886719 141.894531 31.707031 C 140.167969 30.496094 139.5625 29.003906 139.351562 28.261719 L 138.957031 28.261719 C 139.125 28.855469 139.503906 29.738281 140.128906 30.542969 Z M 134.078125 32.472656 C 133.839844 32.214844 133.660156 32.015625 133.292969 31.707031 C 133.660156 31.398438 133.839844 31.199219 134.078125 30.941406 L 140.464844 30.941406 C 140.703125 31.199219 140.882812 31.398438 141.25 31.707031 C 140.882812 32.015625 140.703125 32.214844 140.464844 32.472656 L 134.078125 32.472656 "/>
<path style=" stroke:none;fill-rule:nonzero;fill:rgb(0%,0%,0%);fill-opacity:1;" d="M 154.992188 27.832031 C 155.90625 27.832031 156.710938 28.128906 156.710938 29.164062 C 156.710938 30.265625 155.777344 30.921875 154.394531 30.921875 C 154.355469 30.921875 154.285156 30.890625 154.285156 30.800781 C 154.285156 29.9375 154.304688 28.816406 154.34375 27.941406 C 154.34375 27.890625 154.367188 27.832031 154.433594 27.832031 Z M 154.355469 33.972656 C 154.34375 32.96875 154.285156 31.714844 154.285156 31.46875 C 154.285156 31.277344 154.929688 31.300781 155.21875 31.277344 C 155.867188 31.230469 156.589844 31.082031 157.027344 30.632812 C 157.445312 30.214844 157.664062 29.667969 157.664062 29.082031 C 157.664062 28.03125 156.996094 27.445312 155.367188 27.445312 L 152.816406 27.445312 L 152.746094 27.515625 L 152.746094 27.691406 C 153.121094 27.742188 153.453125 27.832031 153.480469 28.230469 C 153.511719 28.816406 153.53125 29.402344 153.53125 29.988281 C 153.53125 31.386719 153.480469 32.789062 153.460938 34.179688 L 153.53125 34.25 L 154.355469 33.972656 "/>
<path style=" stroke:none;fill-rule:nonzero;fill:rgb(0%,0%,0%);fill-opacity:1;" d="M 162.789062 35.808594 C 161.507812 35.558594 161.4375 33.144531 161.4375 31.46875 C 161.4375 29.96875 161.527344 27.445312 162.789062 27.128906 L 162.789062 26.859375 C 161.757812 27.039062 161.308594 28.167969 161.121094 29.125 C 160.972656 29.867188 160.921875 30.644531 160.921875 31.410156 C 160.921875 32.214844 160.964844 33.019531 161.101562 33.8125 C 161.269531 34.753906 161.746094 35.957031 162.789062 36.046875 L 162.789062 35.808594 "/>
<path style=" stroke:none;fill-rule:nonzero;fill:rgb(0%,0%,0%);fill-opacity:1;" d="M 169.023438 33.433594 C 169.144531 33.871094 169.273438 34.289062 169.601562 34.289062 C 169.75 34.289062 169.898438 34.269531 170.046875 34.230469 L 171.082031 33.933594 L 171.070312 33.671875 C 170.929688 33.683594 170.78125 33.703125 170.644531 33.703125 C 170.375 33.703125 170.136719 33.625 170.007812 33.40625 C 169.648438 32.808594 169.382812 31.847656 169.164062 31.042969 C 168.835938 29.847656 168.390625 28.261719 168.238281 27.433594 L 166.3125 27.433594 L 166.3125 27.703125 L 167.207031 27.851562 C 167.296875 27.871094 167.328125 27.933594 167.328125 27.960938 C 167.328125 27.992188 167.328125 28 167.316406 28.03125 C 166.273438 30.097656 165.128906 32.125 163.949219 34.109375 L 163.976562 34.210938 L 164.882812 34.019531 L 166.042969 31.558594 C 166.0625 31.519531 166.105469 31.476562 166.144531 31.476562 L 168.378906 31.476562 C 168.40625 31.476562 168.46875 31.527344 168.488281 31.566406 Z M 167.496094 28.507812 C 167.496094 28.496094 167.523438 28.46875 167.554688 28.46875 C 167.585938 28.46875 167.613281 28.488281 167.621094 28.507812 L 168.320312 30.933594 C 168.320312 30.941406 168.339844 31.019531 168.339844 31.019531 C 168.339844 31.050781 168.320312 31.089844 168.269531 31.089844 L 166.402344 31.089844 C 166.371094 31.089844 166.332031 31.050781 166.332031 31.019531 C 166.332031 31.011719 166.332031 30.949219 166.34375 30.933594 L 167.496094 28.507812 "/>
<path style=" stroke:none;fill-rule:nonzero;fill:rgb(0%,0%,0%);fill-opacity:1;" d="M 179.667969 28.605469 C 179.667969 28.429688 179.667969 28.25 179.46875 28.25 C 179.273438 28.25 179.273438 28.429688 179.273438 28.605469 L 179.273438 32.203125 C 179.273438 33.691406 177.652344 34.011719 176.90625 34.011719 C 176.460938 34.011719 175.835938 33.921875 175.308594 33.582031 C 174.542969 33.097656 174.542969 32.460938 174.542969 32.191406 L 174.542969 28.605469 C 174.542969 28.429688 174.542969 28.25 174.34375 28.25 C 174.148438 28.25 174.148438 28.429688 174.148438 28.605469 L 174.148438 32.242188 C 174.148438 33.753906 175.664062 34.410156 176.90625 34.410156 C 178.199219 34.410156 179.667969 33.714844 179.667969 32.253906 L 179.667969 28.605469 "/>
<path style=" stroke:none;fill-rule:nonzero;fill:rgb(0%,0%,0%);fill-opacity:1;" d="M 184.636719 30.972656 L 184.636719 30.832031 C 184.6875 30.734375 184.894531 30.753906 185.253906 30.753906 C 186.246094 30.753906 187.296875 30.941406 187.296875 32.125 C 187.296875 33.285156 186.394531 33.800781 185.382812 33.800781 C 184.714844 33.800781 184.636719 33.761719 184.636719 33.535156 Z M 184.636719 30.105469 L 184.636719 27.941406 C 184.695312 27.734375 185.132812 27.753906 185.359375 27.753906 C 186.203125 27.753906 186.960938 27.941406 186.960938 28.777344 C 186.960938 29.949219 186.027344 30.40625 184.972656 30.40625 C 184.773438 30.40625 184.65625 30.40625 184.636719 30.304688 Z M 186.285156 30.433594 C 187.089844 30.097656 187.804688 29.660156 187.804688 28.695312 C 187.804688 27.613281 186.652344 27.375 185.53125 27.375 L 183.078125 27.375 L 183.007812 27.445312 L 182.996094 27.613281 C 183.363281 27.714844 183.820312 27.78125 183.820312 28.121094 L 183.820312 33.386719 C 183.820312 33.941406 183.789062 33.78125 183.59375 34.082031 L 183.601562 34.179688 C 183.613281 34.179688 184.914062 34.199219 185.570312 34.199219 C 186.773438 34.199219 188.203125 33.722656 188.203125 32.191406 C 188.203125 31.21875 187.726562 30.703125 186.273438 30.515625 L 186.285156 30.433594 "/>
<path style=" stroke:none;fill-rule:nonzero;fill:rgb(0%,0%,0%);fill-opacity:1;" d="M 189.855469 27.144531 C 190.660156 27.433594 190.886719 28.367188 191.035156 29.113281 C 191.1875 29.878906 191.226562 30.671875 191.226562 31.449219 C 191.226562 32.582031 191.246094 33.792969 190.886719 34.855469 C 190.6875 35.449219 190.3125 35.710938 189.855469 35.828125 L 189.855469 36.066406 C 191.632812 35.839844 191.742188 33.1875 191.742188 31.488281 C 191.742188 29.828125 191.53125 27.226562 189.855469 26.878906 L 189.855469 27.144531 "/>
<path style=" stroke:none;fill-rule:nonzero;fill:rgb(0%,0%,0%);fill-opacity:1;" d="M 209.15625 27.464844 C 209.238281 27.324219 209.238281 27.304688 209.238281 27.277344 C 209.238281 27.207031 209.179688 27.078125 209.039062 27.078125 C 208.921875 27.078125 208.890625 27.136719 208.820312 27.277344 L 204.359375 35.949219 C 204.28125 36.085938 204.28125 36.105469 204.28125 36.136719 C 204.28125 36.214844 204.351562 36.335938 204.480469 36.335938 C 204.597656 36.335938 204.628906 36.277344 204.699219 36.136719 L 209.15625 27.464844 "/>
<path style=" stroke:none;fill-rule:nonzero;fill:rgb(0%,0%,0%);fill-opacity:1;" d="M 210.011719 30.921875 L 210.070312 30.523438 L 203.507812 30.523438 L 203.4375 30.921875 Z M 210.011719 32.878906 L 210.070312 32.480469 L 203.507812 32.480469 L 203.4375 32.878906 L 210.011719 32.878906 "/>
<path style=" stroke:none;fill-rule:nonzero;fill:rgb(0%,0%,0%);fill-opacity:1;" d="M 223.28125 27.195312 C 222.84375 27.375 222.355469 27.613281 222.03125 27.941406 C 221.183594 28.785156 220.738281 29.988281 220.738281 31.179688 C 220.738281 32.324219 221.015625 34.328125 222.457031 34.328125 C 224.285156 34.328125 224.96875 32.234375 224.96875 30.652344 C 224.96875 29.332031 224.484375 27.960938 223.28125 27.195312 Z M 222.726562 27.832031 C 223.171875 28.019531 223.609375 28.714844 223.679688 28.835938 C 224.117188 29.621094 224.351562 30.464844 224.351562 31.359375 C 224.351562 32.324219 224.117188 33.671875 222.902344 33.671875 C 222.265625 33.671875 221.8125 32.886719 221.613281 32.214844 C 221.453125 31.667969 221.402344 31.082031 221.402344 30.503906 C 221.402344 29.5 221.851562 28.378906 222.726562 27.832031 "/>
<path style=" stroke:none;fill-rule:nonzero;fill:rgb(0%,0%,0%);fill-opacity:1;" d="M 9.0625 39.8125 C 9.0625 39.632812 9.0625 39.453125 8.863281 39.453125 C 8.664062 39.453125 8.664062 39.664062 8.664062 39.8125 L 8.664062 45.691406 L 5.90625 45.691406 C 5.753906 45.691406 5.546875 45.691406 5.546875 45.890625 C 5.546875 46.089844 5.753906 46.089844 5.90625 46.089844 L 11.835938 46.089844 C 12.003906 46.089844 12.183594 46.089844 12.183594 45.890625 C 12.183594 45.691406 12.003906 45.691406 11.835938 45.691406 L 9.0625 45.691406 L 9.0625 39.8125 "/>
<path style=" stroke:none;fill-rule:nonzero;fill:rgb(0%,0%,0%);fill-opacity:1;" d="M 46.714844 42.445312 C 47.320312 41.648438 47.71875 40.777344 47.886719 40.160156 L 47.492188 40.160156 C 47.261719 40.972656 46.636719 42.425781 44.949219 43.605469 C 46.675781 44.816406 47.28125 46.308594 47.492188 47.054688 L 47.886719 47.054688 C 47.71875 46.457031 47.34375 45.574219 46.714844 44.769531 L 52.429688 44.769531 C 51.820312 45.5625 51.425781 46.4375 51.257812 47.054688 L 51.652344 47.054688 C 51.882812 46.238281 52.507812 44.789062 54.195312 43.605469 C 52.46875 42.394531 51.859375 40.902344 51.652344 40.160156 L 51.257812 40.160156 C 51.425781 40.753906 51.800781 41.640625 52.429688 42.445312 Z M 46.378906 44.371094 C 46.140625 44.113281 45.960938 43.914062 45.59375 43.605469 C 45.960938 43.300781 46.140625 43.097656 46.378906 42.839844 L 52.765625 42.839844 C 53.003906 43.097656 53.183594 43.300781 53.550781 43.605469 C 53.183594 43.914062 53.003906 44.113281 52.765625 44.371094 L 46.378906 44.371094 "/>
<path style=" stroke:none;fill-rule:nonzero;fill:rgb(0%,0%,0%);fill-opacity:1;" d="M 68.453125 38.621094 C 68.453125 38.511719 68.375 38.421875 68.257812 38.421875 C 68.105469 38.421875 68.078125 38.53125 68.015625 38.738281 C 67.898438 39.136719 67.996094 38.789062 67.886719 39.183594 C 67.769531 39.125 67.453125 38.976562 67.082031 38.976562 C 66.515625 38.976562 65.871094 39.277344 65.503906 40.039062 C 65.117188 40.84375 65.066406 41.738281 65.066406 42.664062 C 65.066406 43.289062 65.066406 45.078125 65.929688 45.851562 C 65.703125 46.617188 65.703125 46.636719 65.703125 46.667969 C 65.703125 46.777344 65.78125 46.863281 65.902344 46.863281 C 66.050781 46.863281 66.078125 46.765625 66.140625 46.546875 C 66.257812 46.148438 66.160156 46.496094 66.269531 46.097656 C 66.507812 46.230469 66.804688 46.308594 67.074219 46.308594 C 68.1875 46.308594 68.625 45.375 68.800781 44.898438 C 69.0625 44.203125 69.089844 43.378906 69.089844 42.664062 C 69.089844 41.925781 69.089844 40.277344 68.226562 39.453125 Z M 66.0625 45.394531 C 65.734375 44.707031 65.734375 43.488281 65.734375 42.542969 C 65.734375 41.738281 65.734375 41.054688 65.871094 40.417969 C 66.0625 39.496094 66.636719 39.195312 67.082031 39.195312 C 67.28125 39.195312 67.539062 39.253906 67.796875 39.472656 Z M 68.097656 39.871094 C 68.425781 40.449219 68.425781 41.597656 68.425781 42.542969 C 68.425781 43.269531 68.425781 44.003906 68.304688 44.667969 C 68.125 45.710938 67.601562 46.089844 67.074219 46.089844 C 66.84375 46.089844 66.605469 46.011719 66.367188 45.800781 L 68.097656 39.871094 "/>
<path style=" stroke:none;fill-rule:nonzero;fill:rgb(0%,0%,0%);fill-opacity:1;" d="M 106.058594 39.363281 C 106.136719 39.226562 106.136719 39.207031 106.136719 39.175781 C 106.136719 39.105469 106.078125 38.976562 105.9375 38.976562 C 105.820312 38.976562 105.789062 39.035156 105.71875 39.175781 L 101.261719 47.847656 C 101.179688 47.988281 101.179688 48.007812 101.179688 48.035156 C 101.179688 48.117188 101.25 48.234375 101.378906 48.234375 C 101.496094 48.234375 101.527344 48.175781 101.597656 48.035156 L 106.058594 39.363281 "/>
<path style=" stroke:none;fill-rule:nonzero;fill:rgb(0%,0%,0%);fill-opacity:1;" d="M 106.914062 42.820312 L 106.972656 42.425781 L 100.40625 42.425781 L 100.335938 42.820312 Z M 106.914062 44.777344 L 106.972656 44.378906 L 100.40625 44.378906 L 100.335938 44.777344 L 106.914062 44.777344 "/>
<path style=" stroke:none;fill-rule:nonzero;fill:rgb(0%,0%,0%);fill-opacity:1;" d="M 121.15625 38.621094 C 121.15625 38.511719 121.074219 38.421875 120.957031 38.421875 C 120.804688 38.421875 120.777344 38.53125 120.71875 38.738281 C 120.597656 39.136719 120.695312 38.789062 120.589844 39.183594 C 120.46875 39.125 120.152344 38.976562 119.78125 38.976562 C 119.21875 38.976562 118.570312 39.277344 118.203125 40.039062 C 117.816406 40.84375 117.765625 41.738281 117.765625 42.664062 C 117.765625 43.289062 117.765625 45.078125 118.632812 45.851562 C 118.402344 46.617188 118.402344 46.636719 118.402344 46.667969 C 118.402344 46.777344 118.484375 46.863281 118.601562 46.863281 C 118.75 46.863281 118.78125 46.765625 118.839844 46.546875 C 118.960938 46.148438 118.859375 46.496094 118.96875 46.097656 C 119.207031 46.230469 119.503906 46.308594 119.773438 46.308594 C 120.886719 46.308594 121.324219 45.375 121.503906 44.898438 C 121.761719 44.203125 121.789062 43.378906 121.789062 42.664062 C 121.789062 41.925781 121.789062 40.277344 120.925781 39.453125 Z M 118.761719 45.394531 C 118.433594 44.707031 118.433594 43.488281 118.433594 42.542969 C 118.433594 41.738281 118.433594 41.054688 118.570312 40.417969 C 118.761719 39.496094 119.335938 39.195312 119.78125 39.195312 C 119.984375 39.195312 120.242188 39.253906 120.496094 39.472656 Z M 120.796875 39.871094 C 121.125 40.449219 121.125 41.597656 121.125 42.542969 C 121.125 43.269531 121.125 44.003906 121.003906 44.667969 C 120.828125 45.710938 120.300781 46.089844 119.773438 46.089844 C 119.546875 46.089844 119.304688 46.011719 119.070312 45.800781 L 120.796875 39.871094 "/>
<path style=" stroke:none;fill-rule:nonzero;fill:rgb(0%,0%,0%);fill-opacity:1;" d="M 134.414062 42.445312 C 135.023438 41.648438 135.417969 40.777344 135.589844 40.160156 L 135.191406 40.160156 C 134.964844 40.972656 134.335938 42.425781 132.648438 43.605469 C 134.378906 44.816406 134.984375 46.308594 135.191406 47.054688 L 135.589844 47.054688 C 135.417969 46.457031 135.042969 45.574219 134.414062 44.769531 L 140.128906 44.769531 C 139.523438 45.5625 139.125 46.4375 138.957031 47.054688 L 139.351562 47.054688 C 139.582031 46.238281 140.207031 44.789062 141.894531 43.605469 C 140.167969 42.394531 139.5625 40.902344 139.351562 40.160156 L 138.957031 40.160156 C 139.125 40.753906 139.503906 41.640625 140.128906 42.445312 Z M 134.078125 44.371094 C 133.839844 44.113281 133.660156 43.914062 133.292969 43.605469 C 133.660156 43.300781 133.839844 43.097656 134.078125 42.839844 L 140.464844 42.839844 C 140.703125 43.097656 140.882812 43.300781 141.25 43.605469 C 140.882812 43.914062 140.703125 44.113281 140.464844 44.371094 L 134.078125 44.371094 "/>
<path style=" stroke:none;fill-rule:nonzero;fill:rgb(0%,0%,0%);fill-opacity:1;" d="M 154.992188 39.730469 C 155.90625 39.730469 156.710938 40.03125 156.710938 41.0625 C 156.710938 42.167969 155.777344 42.820312 154.394531 42.820312 C 154.355469 42.820312 154.285156 42.792969 154.285156 42.703125 C 154.285156 41.839844 154.304688 40.714844 154.34375 39.839844 C 154.34375 39.792969 154.367188 39.730469 154.433594 39.730469 Z M 154.355469 45.871094 C 154.34375 44.867188 154.285156 43.617188 154.285156 43.367188 C 154.285156 43.179688 154.929688 43.199219 155.21875 43.179688 C 155.867188 43.128906 156.589844 42.980469 157.027344 42.535156 C 157.445312 42.117188 157.664062 41.570312 157.664062 40.984375 C 157.664062 39.929688 156.996094 39.34375 155.367188 39.34375 L 152.816406 39.34375 L 152.746094 39.414062 L 152.746094 39.59375 C 153.121094 39.644531 153.453125 39.730469 153.480469 40.128906 C 153.511719 40.714844 153.53125 41.300781 153.53125 41.886719 C 153.53125 43.289062 153.480469 44.691406 153.460938 46.082031 L 153.53125 46.148438 L 154.355469 45.871094 "/>
<path style=" stroke:none;fill-rule:nonzero;fill:rgb(0%,0%,0%);fill-opacity:1;" d="M 162.789062 47.707031 C 161.507812 47.460938 161.4375 45.046875 161.4375 43.367188 C 161.4375 41.867188 161.527344 39.34375 162.789062 39.027344 L 162.789062 38.757812 C 161.757812 38.9375 161.308594 40.070312 161.121094 41.023438 C 160.972656 41.769531 160.921875 42.542969 160.921875 43.308594 C 160.921875 44.113281 160.964844 44.917969 161.101562 45.710938 C 161.269531 46.65625 161.746094 47.859375 162.789062 47.949219 L 162.789062 47.707031 "/>
<path style=" stroke:none;fill-rule:nonzero;fill:rgb(0%,0%,0%);fill-opacity:1;" d="M 167.554688 38.621094 C 167.554688 38.511719 167.476562 38.421875 167.355469 38.421875 C 167.207031 38.421875 167.175781 38.53125 167.117188 38.738281 C 166.996094 39.136719 167.097656 38.789062 166.988281 39.183594 C 166.867188 39.125 166.550781 38.976562 166.183594 38.976562 C 165.617188 38.976562 164.972656 39.277344 164.605469 40.039062 C 164.21875 40.84375 164.167969 41.738281 164.167969 42.664062 C 164.167969 43.289062 164.167969 45.078125 165.03125 45.851562 C 164.804688 46.617188 164.804688 46.636719 164.804688 46.667969 C 164.804688 46.777344 164.882812 46.863281 165.003906 46.863281 C 165.148438 46.863281 165.179688 46.765625 165.238281 46.546875 C 165.359375 46.148438 165.257812 46.496094 165.367188 46.097656 C 165.609375 46.230469 165.90625 46.308594 166.171875 46.308594 C 167.285156 46.308594 167.722656 45.375 167.902344 44.898438 C 168.160156 44.203125 168.191406 43.378906 168.191406 42.664062 C 168.191406 41.925781 168.191406 40.277344 167.328125 39.453125 Z M 165.160156 45.394531 C 164.832031 44.707031 164.832031 43.488281 164.832031 42.542969 C 164.832031 41.738281 164.832031 41.054688 164.972656 40.417969 C 165.160156 39.496094 165.734375 39.195312 166.183594 39.195312 C 166.382812 39.195312 166.640625 39.253906 166.898438 39.472656 Z M 167.195312 39.871094 C 167.523438 40.449219 167.523438 41.597656 167.523438 42.542969 C 167.523438 43.269531 167.523438 44.003906 167.40625 44.667969 C 167.226562 45.710938 166.699219 46.089844 166.171875 46.089844 C 165.945312 46.089844 165.707031 46.011719 165.46875 45.800781 L 167.195312 39.871094 "/>
<path style=" stroke:none;fill-rule:nonzero;fill:rgb(0%,0%,0%);fill-opacity:1;" d="M 169.554688 39.046875 C 170.359375 39.335938 170.589844 40.269531 170.734375 41.011719 C 170.886719 41.777344 170.925781 42.574219 170.925781 43.347656 C 170.925781 44.480469 170.945312 45.691406 170.589844 46.753906 C 170.390625 47.351562 170.011719 47.609375 169.554688 47.730469 L 169.554688 47.96875 C 171.332031 47.738281 171.441406 45.085938 171.441406 43.386719 C 171.441406 41.730469 171.234375 39.125 169.554688 38.777344 L 169.554688 39.046875 "/>
<path style=" stroke:none;fill-rule:nonzero;fill:rgb(0%,0%,0%);fill-opacity:1;" d="M 209.15625 39.363281 C 209.238281 39.226562 209.238281 39.207031 209.238281 39.175781 C 209.238281 39.105469 209.179688 38.976562 209.039062 38.976562 C 208.921875 38.976562 208.890625 39.035156 208.820312 39.175781 L 204.359375 47.847656 C 204.28125 47.988281 204.28125 48.007812 204.28125 48.035156 C 204.28125 48.117188 204.351562 48.234375 204.480469 48.234375 C 204.597656 48.234375 204.628906 48.175781 204.699219 48.035156 L 209.15625 39.363281 "/>
<path style=" stroke:none;fill-rule:nonzero;fill:rgb(0%,0%,0%);fill-opacity:1;" d="M 210.011719 42.820312 L 210.070312 42.425781 L 203.507812 42.425781 L 203.4375 42.820312 Z M 210.011719 44.777344 L 210.070312 44.378906 L 203.507812 44.378906 L 203.4375 44.777344 L 210.011719 44.777344 "/>
<path style=" stroke:none;fill-rule:nonzero;fill:rgb(0%,0%,0%);fill-opacity:1;" d="M 223.28125 39.097656 C 222.84375 39.277344 222.355469 39.511719 222.03125 39.839844 C 221.183594 40.683594 220.738281 41.886719 220.738281 43.082031 C 220.738281 44.222656 221.015625 46.230469 222.457031 46.230469 C 224.285156 46.230469 224.96875 44.132812 224.96875 42.554688 C 224.96875 41.230469 224.484375 39.863281 223.28125 39.097656 Z M 222.726562 39.730469 C 223.171875 39.921875 223.609375 40.617188 223.679688 40.734375 C 224.117188 41.519531 224.351562 42.363281 224.351562 43.257812 C 224.351562 44.222656 224.117188 45.574219 222.902344 45.574219 C 222.265625 45.574219 221.8125 44.789062 221.613281 44.113281 C 221.453125 43.566406 221.402344 42.980469 221.402344 42.402344 C 221.402344 41.402344 221.851562 40.277344 222.726562 39.730469 "/>
</g>
</svg>
