<?xml version="1.0" encoding="UTF-8"?>
<svg xmlns="http://www.w3.org/2000/svg" xmlns:xlink="http://www.w3.org/1999/xlink" width="123.98pt" height="48.11pt" viewBox="0 0 123.98 48.11" version="1.1">
<g id="surface1">
<path style=" stroke:none;fill-rule:nonzero;fill:rgb(0%,0%,0%);fill-opacity:1;" d="M 9.0625 2.132812 C 9.0625 1.953125 9.0625 1.773438 8.863281 1.773438 C 8.664062 1.773438 8.664062 1.984375 8.664062 2.132812 L 8.664062 8.011719 L 5.90625 8.011719 C 5.753906 8.011719 5.546875 8.011719 5.546875 8.210938 C 5.546875 8.410156 5.753906 8.410156 5.90625 8.410156 L 11.835938 8.410156 C 12.003906 8.410156 12.183594 8.410156 12.183594 8.210938 C 12.183594 8.011719 12.003906 8.011719 11.835938 8.011719 L 9.0625 8.011719 L 9.0625 2.132812 "/>
<path style=" stroke:none;fill-rule:nonzero;fill:rgb(0%,0%,0%);fill-opacity:1;" d="M 24.183594 6.125 C 23.8125 6.582031 23.289062 7.367188 23.039062 8.410156 L 23.4375 8.410156 C 23.746094 7.109375 24.578125 6.207031 24.878906 5.925781 C 24.558594 5.628906 23.746094 4.734375 23.4375 3.441406 L 23.039062 3.441406 C 23.289062 4.476562 23.804688 5.261719 24.183594 5.726562 L 16.40625 5.726562 C 16.226562 5.726562 16.054688 5.726562 16.054688 5.925781 C 16.054688 6.125 16.234375 6.125 16.40625 6.125 L 24.183594 6.125 "/>
<path style=" stroke:none;fill-rule:nonzero;fill:rgb(0%,0%,0%);fill-opacity:1;" d="M 32.261719 2.132812 C 32.261719 1.953125 32.261719 1.773438 32.0625 1.773438 C 31.867188 1.773438 31.867188 1.984375 31.867188 2.132812 L 31.867188 8.011719 L 29.105469 8.011719 C 28.953125 8.011719 28.746094 8.011719 28.746094 8.210938 C 28.746094 8.410156 28.953125 8.410156 29.105469 8.410156 L 35.035156 8.410156 C 35.203125 8.410156 35.382812 8.410156 35.382812 8.210938 C 35.382812 8.011719 35.203125 8.011719 35.035156 8.011719 L 32.261719 8.011719 L 32.261719 2.132812 "/>
<path style=" stroke:none;fill-rule:nonzero;fill:rgb(0%,0%,0%);fill-opacity:1;" d="M 53.011719 5.140625 L 53.070312 4.746094 L 46.507812 4.746094 L 46.4375 5.140625 Z M 53.011719 7.097656 L 53.070312 6.699219 L 46.507812 6.699219 L 46.4375 7.097656 L 53.011719 7.097656 "/>
<path style=" stroke:none;fill-rule:nonzero;fill:rgb(0%,0%,0%);fill-opacity:1;" d="M 67.460938 2.171875 L 70.234375 2.171875 C 70.402344 2.171875 70.582031 2.171875 70.582031 1.972656 C 70.582031 1.773438 70.402344 1.773438 70.234375 1.773438 L 64.304688 1.773438 C 64.15625 1.773438 63.945312 1.773438 63.945312 1.972656 C 63.945312 2.171875 64.15625 2.171875 64.304688 2.171875 L 67.066406 2.171875 L 67.066406 8.050781 C 67.066406 8.199219 67.066406 8.410156 67.265625 8.410156 C 67.460938 8.410156 67.460938 8.230469 67.460938 8.050781 L 67.460938 2.171875 "/>
<path style=" stroke:none;fill-rule:nonzero;fill:rgb(0%,0%,0%);fill-opacity:1;" d="M 93.980469 1.417969 C 93.542969 1.597656 93.054688 1.832031 92.730469 2.160156 C 91.882812 3.003906 91.4375 4.207031 91.4375 5.402344 C 91.4375 6.542969 91.714844 8.550781 93.15625 8.550781 C 94.984375 8.550781 95.667969 6.453125 95.667969 4.875 C 95.667969 3.550781 95.183594 2.183594 93.980469 1.417969 Z M 93.425781 2.050781 C 93.871094 2.242188 94.308594 2.9375 94.378906 3.054688 C 94.816406 3.839844 95.054688 4.683594 95.054688 5.578125 C 95.054688 6.542969 94.816406 7.894531 93.601562 7.894531 C 92.96875 7.894531 92.511719 7.109375 92.3125 6.433594 C 92.152344 5.886719 92.101562 5.300781 92.101562 4.722656 C 92.101562 3.722656 92.550781 2.597656 93.425781 2.050781 "/>
<path style=" stroke:none;fill-rule:nonzero;fill:rgb(0%,0%,0%);fill-opacity:1;" d="M 98.617188 -0.136719 C 98.28125 -0.0117188 97.886719 0.15625 97.617188 0.386719 C 96.945312 0.984375 96.585938 1.835938 96.585938 2.679688 C 96.585938 3.511719 96.824219 4.910156 97.960938 4.910156 C 99.398438 4.910156 99.972656 3.460938 99.972656 2.308594 C 99.972656 1.371094 99.585938 0.394531 98.617188 -0.136719 Z M 98.171875 0.3125 C 98.53125 0.445312 98.882812 0.9375 98.941406 1.019531 C 99.285156 1.574219 99.480469 2.175781 99.480469 2.808594 C 99.480469 3.503906 99.277344 4.445312 98.320312 4.445312 C 97.800781 4.445312 97.449219 3.890625 97.289062 3.410156 C 97.15625 3.03125 97.117188 2.609375 97.117188 2.203125 C 97.117188 1.492188 97.484375 0.703125 98.171875 0.3125 "/>
<path style=" stroke:none;fill-rule:nonzero;fill:rgb(0%,0%,0%);fill-opacity:1;" d="M 110.8125 5.140625 L 110.871094 4.746094 L 104.304688 4.746094 L 104.234375 5.140625 Z M 110.8125 7.097656 L 110.871094 6.699219 L 104.304688 6.699219 L 104.234375 7.097656 L 110.8125 7.097656 "/>
<path style=" stroke:none;fill-rule:nonzero;fill:rgb(0%,0%,0%);fill-opacity:1;" d="M 117.058594 1.335938 L 114.914062 2.0625 L 114.914062 2.332031 L 115.738281 2.332031 C 116.355469 2.332031 116.203125 3.144531 116.203125 4.246094 C 116.203125 5.636719 116.175781 7.027344 116.128906 8.410156 L 116.246094 8.460938 L 117.078125 8.191406 C 117.050781 7.4375 117.050781 5.46875 117.050781 4.121094 C 117.050781 3.234375 117.070312 2.339844 117.117188 1.457031 L 117.058594 1.335938 "/>
<path style=" stroke:none;fill-rule:nonzero;fill:rgb(0%,0%,0%);fill-opacity:1;" d="M 9.0625 14.230469 C 9.0625 14.054688 9.0625 13.875 8.863281 13.875 C 8.664062 13.875 8.664062 14.082031 8.664062 14.230469 L 8.664062 20.113281 L 5.90625 20.113281 C 5.753906 20.113281 5.546875 20.113281 5.546875 20.3125 C 5.546875 20.511719 5.753906 20.511719 5.90625 20.511719 L 11.835938 20.511719 C 12.003906 20.511719 12.183594 20.511719 12.183594 20.3125 C 12.183594 20.113281 12.003906 20.113281 11.835938 20.113281 L 9.0625 20.113281 L 9.0625 14.230469 "/>
<path style=" stroke:none;fill-rule:nonzero;fill:rgb(0%,0%,0%);fill-opacity:1;" d="M 24.183594 18.226562 C 23.8125 18.683594 23.289062 19.464844 23.039062 20.511719 L 23.4375 20.511719 C 23.746094 19.207031 24.578125 18.304688 24.878906 18.027344 C 24.558594 17.730469 23.746094 16.835938 23.4375 15.542969 L 23.039062 15.542969 C 23.289062 16.574219 23.804688 17.363281 24.183594 17.828125 L 16.40625 17.828125 C 16.226562 17.828125 16.054688 17.828125 16.054688 18.027344 C 16.054688 18.226562 16.234375 18.226562 16.40625 18.226562 L 24.183594 18.226562 "/>
<path style=" stroke:none;fill-rule:nonzero;fill:rgb(0%,0%,0%);fill-opacity:1;" d="M 32.261719 14.269531 L 35.035156 14.269531 C 35.203125 14.269531 35.382812 14.269531 35.382812 14.074219 C 35.382812 13.875 35.203125 13.875 35.035156 13.875 L 29.105469 13.875 C 28.953125 13.875 28.746094 13.875 28.746094 14.074219 C 28.746094 14.269531 28.953125 14.269531 29.105469 14.269531 L 31.867188 14.269531 L 31.867188 20.152344 C 31.867188 20.300781 31.867188 20.511719 32.0625 20.511719 C 32.261719 20.511719 32.261719 20.332031 32.261719 20.152344 L 32.261719 14.269531 "/>
<path style=" stroke:none;fill-rule:nonzero;fill:rgb(0%,0%,0%);fill-opacity:1;" d="M 53.011719 17.242188 L 53.070312 16.84375 L 46.507812 16.84375 L 46.4375 17.242188 Z M 53.011719 19.199219 L 53.070312 18.800781 L 46.507812 18.800781 L 46.4375 19.199219 L 53.011719 19.199219 "/>
<path style=" stroke:none;fill-rule:nonzero;fill:rgb(0%,0%,0%);fill-opacity:1;" d="M 67.460938 14.269531 L 70.234375 14.269531 C 70.402344 14.269531 70.582031 14.269531 70.582031 14.074219 C 70.582031 13.875 70.402344 13.875 70.234375 13.875 L 64.304688 13.875 C 64.15625 13.875 63.945312 13.875 63.945312 14.074219 C 63.945312 14.269531 64.15625 14.269531 64.304688 14.269531 L 67.066406 14.269531 L 67.066406 20.152344 C 67.066406 20.300781 67.066406 20.511719 67.265625 20.511719 C 67.460938 20.511719 67.460938 20.332031 67.460938 20.152344 L 67.460938 14.269531 "/>
<path style=" stroke:none;fill-rule:nonzero;fill:rgb(0%,0%,0%);fill-opacity:1;" d="M 94.160156 13.4375 L 92.015625 14.164062 L 92.015625 14.429688 L 92.839844 14.429688 C 93.453125 14.429688 93.304688 15.246094 93.304688 16.347656 C 93.304688 17.738281 93.273438 19.128906 93.226562 20.511719 L 93.34375 20.558594 L 94.179688 20.292969 C 94.148438 19.535156 94.148438 17.570312 94.148438 16.21875 C 94.148438 15.335938 94.167969 14.441406 94.21875 13.558594 L 94.160156 13.4375 "/>
<path style=" stroke:none;fill-rule:nonzero;fill:rgb(0%,0%,0%);fill-opacity:1;" d="M 98.617188 11.863281 C 98.28125 11.988281 97.886719 12.15625 97.617188 12.386719 C 96.945312 12.984375 96.585938 13.835938 96.585938 14.679688 C 96.585938 15.511719 96.824219 16.910156 97.960938 16.910156 C 99.398438 16.910156 99.972656 15.460938 99.972656 14.308594 C 99.972656 13.371094 99.585938 12.394531 98.617188 11.863281 Z M 98.171875 12.3125 C 98.53125 12.445312 98.882812 12.9375 98.941406 13.019531 C 99.285156 13.574219 99.480469 14.175781 99.480469 14.808594 C 99.480469 15.503906 99.277344 16.445312 98.320312 16.445312 C 97.800781 16.445312 97.449219 15.890625 97.289062 15.410156 C 97.15625 15.03125 97.117188 14.609375 97.117188 14.203125 C 97.117188 13.492188 97.484375 12.703125 98.171875 12.3125 "/>
<path style=" stroke:none;fill-rule:nonzero;fill:rgb(0%,0%,0%);fill-opacity:1;" d="M 110.8125 17.242188 L 110.871094 16.84375 L 104.304688 16.84375 L 104.234375 17.242188 Z M 110.8125 19.199219 L 110.871094 18.800781 L 104.304688 18.800781 L 104.234375 19.199219 L 110.8125 19.199219 "/>
<path style=" stroke:none;fill-rule:nonzero;fill:rgb(0%,0%,0%);fill-opacity:1;" d="M 117.058594 13.4375 L 114.914062 14.164062 L 114.914062 14.429688 L 115.738281 14.429688 C 116.355469 14.429688 116.203125 15.246094 116.203125 16.347656 C 116.203125 17.738281 116.175781 19.128906 116.128906 20.511719 L 116.246094 20.558594 L 117.078125 20.292969 C 117.050781 19.535156 117.050781 17.570312 117.050781 16.21875 C 117.050781 15.335938 117.070312 14.441406 117.117188 13.558594 L 117.058594 13.4375 "/>
<path style=" stroke:none;fill-rule:nonzero;fill:rgb(0%,0%,0%);fill-opacity:1;" d="M 9.0625 26.269531 L 11.835938 26.269531 C 12.003906 26.269531 12.183594 26.269531 12.183594 26.074219 C 12.183594 25.875 12.003906 25.875 11.835938 25.875 L 5.90625 25.875 C 5.753906 25.875 5.546875 25.875 5.546875 26.074219 C 5.546875 26.269531 5.753906 26.269531 5.90625 26.269531 L 8.664062 26.269531 L 8.664062 32.152344 C 8.664062 32.300781 8.664062 32.511719 8.863281 32.511719 C 9.0625 32.511719 9.0625 32.332031 9.0625 32.152344 L 9.0625 26.269531 "/>
<path style=" stroke:none;fill-rule:nonzero;fill:rgb(0%,0%,0%);fill-opacity:1;" d="M 24.183594 30.226562 C 23.8125 30.683594 23.289062 31.464844 23.039062 32.511719 L 23.4375 32.511719 C 23.746094 31.207031 24.578125 30.304688 24.878906 30.027344 C 24.558594 29.730469 23.746094 28.835938 23.4375 27.542969 L 23.039062 27.542969 C 23.289062 28.574219 23.804688 29.363281 24.183594 29.828125 L 16.40625 29.828125 C 16.226562 29.828125 16.054688 29.828125 16.054688 30.027344 C 16.054688 30.226562 16.234375 30.226562 16.40625 30.226562 L 24.183594 30.226562 "/>
<path style=" stroke:none;fill-rule:nonzero;fill:rgb(0%,0%,0%);fill-opacity:1;" d="M 32.261719 26.230469 C 32.261719 26.054688 32.261719 25.875 32.0625 25.875 C 31.867188 25.875 31.867188 26.082031 31.867188 26.230469 L 31.867188 32.113281 L 29.105469 32.113281 C 28.953125 32.113281 28.746094 32.113281 28.746094 32.3125 C 28.746094 32.511719 28.953125 32.511719 29.105469 32.511719 L 35.035156 32.511719 C 35.203125 32.511719 35.382812 32.511719 35.382812 32.3125 C 35.382812 32.113281 35.203125 32.113281 35.035156 32.113281 L 32.261719 32.113281 L 32.261719 26.230469 "/>
<path style=" stroke:none;fill-rule:nonzero;fill:rgb(0%,0%,0%);fill-opacity:1;" d="M 53.011719 29.242188 L 53.070312 28.84375 L 46.507812 28.84375 L 46.4375 29.242188 Z M 53.011719 31.199219 L 53.070312 30.800781 L 46.507812 30.800781 L 46.4375 31.199219 L 53.011719 31.199219 "/>
<path style=" stroke:none;fill-rule:nonzero;fill:rgb(0%,0%,0%);fill-opacity:1;" d="M 67.460938 26.230469 C 67.460938 26.054688 67.460938 25.875 67.265625 25.875 C 67.066406 25.875 67.066406 26.082031 67.066406 26.230469 L 67.066406 32.113281 L 64.304688 32.113281 C 64.15625 32.113281 63.945312 32.113281 63.945312 32.3125 C 63.945312 32.511719 64.15625 32.511719 64.304688 32.511719 L 70.234375 32.511719 C 70.402344 32.511719 70.582031 32.511719 70.582031 32.3125 C 70.582031 32.113281 70.402344 32.113281 70.234375 32.113281 L 67.460938 32.113281 L 67.460938 26.230469 "/>
<path style=" stroke:none;fill-rule:nonzero;fill:rgb(0%,0%,0%);fill-opacity:1;" d="M 93.980469 25.515625 C 93.542969 25.695312 93.054688 25.933594 92.730469 26.261719 C 91.882812 27.105469 91.4375 28.308594 91.4375 29.5 C 91.4375 30.644531 91.714844 32.648438 93.15625 32.648438 C 94.984375 32.648438 95.667969 30.554688 95.667969 28.972656 C 95.667969 27.652344 95.183594 26.28125 93.980469 25.515625 Z M 93.425781 26.152344 C 93.871094 26.339844 94.308594 27.035156 94.378906 27.15625 C 94.816406 27.941406 95.054688 28.785156 95.054688 29.679688 C 95.054688 30.644531 94.816406 31.992188 93.601562 31.992188 C 92.96875 31.992188 92.511719 31.207031 92.3125 30.535156 C 92.152344 29.988281 92.101562 29.402344 92.101562 28.824219 C 92.101562 27.820312 92.550781 26.699219 93.425781 26.152344 "/>
<path style=" stroke:none;fill-rule:nonzero;fill:rgb(0%,0%,0%);fill-opacity:1;" d="M 98.765625 23.90625 L 97.046875 24.417969 L 97.046875 24.605469 L 97.710938 24.605469 C 98.203125 24.605469 98.082031 25.175781 98.082031 25.964844 C 98.082031 26.949219 98.054688 27.933594 98.019531 28.910156 L 98.109375 28.945312 L 98.777344 28.753906 C 98.757812 28.222656 98.757812 26.828125 98.757812 25.871094 C 98.757812 25.246094 98.773438 24.613281 98.8125 23.988281 L 98.765625 23.90625 "/>
<path style=" stroke:none;fill-rule:nonzero;fill:rgb(0%,0%,0%);fill-opacity:1;" d="M 110.8125 29.242188 L 110.871094 28.84375 L 104.304688 28.84375 L 104.234375 29.242188 Z M 110.8125 31.199219 L 110.871094 30.800781 L 104.304688 30.800781 L 104.234375 31.199219 L 110.8125 31.199219 "/>
<path style=" stroke:none;fill-rule:nonzero;fill:rgb(0%,0%,0%);fill-opacity:1;" d="M 116.882812 25.515625 C 116.445312 25.695312 115.957031 25.933594 115.628906 26.261719 C 114.785156 27.105469 114.339844 28.308594 114.339844 29.5 C 114.339844 30.644531 114.617188 32.648438 116.054688 32.648438 C 117.882812 32.648438 118.570312 30.554688 118.570312 28.972656 C 118.570312 27.652344 118.082031 26.28125 116.882812 25.515625 Z M 116.324219 26.152344 C 116.773438 26.339844 117.207031 27.035156 117.277344 27.15625 C 117.714844 27.941406 117.953125 28.785156 117.953125 29.679688 C 117.953125 30.644531 117.714844 31.992188 116.503906 31.992188 C 115.867188 31.992188 115.410156 31.207031 115.214844 30.535156 C 115.054688 29.988281 115.003906 29.402344 115.003906 28.824219 C 115.003906 27.820312 115.449219 26.699219 116.324219 26.152344 "/>
<path style=" stroke:none;fill-rule:nonzero;fill:rgb(0%,0%,0%);fill-opacity:1;" d="M 9.0625 38.269531 L 11.835938 38.269531 C 12.003906 38.269531 12.183594 38.269531 12.183594 38.074219 C 12.183594 37.875 12.003906 37.875 11.835938 37.875 L 5.90625 37.875 C 5.753906 37.875 5.546875 37.875 5.546875 38.074219 C 5.546875 38.269531 5.753906 38.269531 5.90625 38.269531 L 8.664062 38.269531 L 8.664062 44.152344 C 8.664062 44.300781 8.664062 44.511719 8.863281 44.511719 C 9.0625 44.511719 9.0625 44.332031 9.0625 44.152344 L 9.0625 38.269531 "/>
<path style=" stroke:none;fill-rule:nonzero;fill:rgb(0%,0%,0%);fill-opacity:1;" d="M 24.183594 42.226562 C 23.8125 42.683594 23.289062 43.464844 23.039062 44.511719 L 23.4375 44.511719 C 23.746094 43.207031 24.578125 42.304688 24.878906 42.027344 C 24.558594 41.730469 23.746094 40.835938 23.4375 39.542969 L 23.039062 39.542969 C 23.289062 40.574219 23.804688 41.363281 24.183594 41.828125 L 16.40625 41.828125 C 16.226562 41.828125 16.054688 41.828125 16.054688 42.027344 C 16.054688 42.226562 16.234375 42.226562 16.40625 42.226562 L 24.183594 42.226562 "/>
<path style=" stroke:none;fill-rule:nonzero;fill:rgb(0%,0%,0%);fill-opacity:1;" d="M 32.261719 38.269531 L 35.035156 38.269531 C 35.203125 38.269531 35.382812 38.269531 35.382812 38.074219 C 35.382812 37.875 35.203125 37.875 35.035156 37.875 L 29.105469 37.875 C 28.953125 37.875 28.746094 37.875 28.746094 38.074219 C 28.746094 38.269531 28.953125 38.269531 29.105469 38.269531 L 31.867188 38.269531 L 31.867188 44.152344 C 31.867188 44.300781 31.867188 44.511719 32.0625 44.511719 C 32.261719 44.511719 32.261719 44.332031 32.261719 44.152344 L 32.261719 38.269531 "/>
<path style=" stroke:none;fill-rule:nonzero;fill:rgb(0%,0%,0%);fill-opacity:1;" d="M 53.011719 41.242188 L 53.070312 40.84375 L 46.507812 40.84375 L 46.4375 41.242188 Z M 53.011719 43.199219 L 53.070312 42.800781 L 46.507812 42.800781 L 46.4375 43.199219 L 53.011719 43.199219 "/>
<path style=" stroke:none;fill-rule:nonzero;fill:rgb(0%,0%,0%);fill-opacity:1;" d="M 67.460938 38.269531 L 70.234375 38.269531 C 70.402344 38.269531 70.582031 38.269531 70.582031 38.074219 C 70.582031 37.875 70.402344 37.875 70.234375 37.875 L 64.304688 37.875 C 64.15625 37.875 63.945312 37.875 63.945312 38.074219 C 63.945312 38.269531 64.15625 38.269531 64.304688 38.269531 L 67.066406 38.269531 L 67.066406 44.152344 C 67.066406 44.300781 67.066406 44.511719 67.265625 44.511719 C 67.460938 44.511719 67.460938 44.332031 67.460938 44.152344 L 67.460938 38.269531 "/>
<path style=" stroke:none;fill-rule:nonzero;fill:rgb(0%,0%,0%);fill-opacity:1;" d="M 94.160156 37.4375 L 92.015625 38.164062 L 92.015625 38.429688 L 92.839844 38.429688 C 93.453125 38.429688 93.304688 39.246094 93.304688 40.347656 C 93.304688 41.738281 93.273438 43.128906 93.226562 44.511719 L 93.34375 44.558594 L 94.179688 44.292969 C 94.148438 43.535156 94.148438 41.570312 94.148438 40.21875 C 94.148438 39.335938 94.167969 38.441406 94.21875 37.558594 L 94.160156 37.4375 "/>
<path style=" stroke:none;fill-rule:nonzero;fill:rgb(0%,0%,0%);fill-opacity:1;" d="M 98.765625 35.90625 L 97.046875 36.417969 L 97.046875 36.605469 L 97.710938 36.605469 C 98.203125 36.605469 98.082031 37.175781 98.082031 37.964844 C 98.082031 38.949219 98.054688 39.933594 98.019531 40.910156 L 98.109375 40.945312 L 98.777344 40.753906 C 98.757812 40.222656 98.757812 38.828125 98.757812 37.871094 C 98.757812 37.246094 98.773438 36.613281 98.8125 35.988281 L 98.765625 35.90625 "/>
<path style=" stroke:none;fill-rule:nonzero;fill:rgb(0%,0%,0%);fill-opacity:1;" d="M 110.8125 41.242188 L 110.871094 40.84375 L 104.304688 40.84375 L 104.234375 41.242188 Z M 110.8125 43.199219 L 110.871094 42.800781 L 104.304688 42.800781 L 104.234375 43.199219 L 110.8125 43.199219 "/>
<path style=" stroke:none;fill-rule:nonzero;fill:rgb(0%,0%,0%);fill-opacity:1;" d="M 117.058594 37.4375 L 114.914062 38.164062 L 114.914062 38.429688 L 115.738281 38.429688 C 116.355469 38.429688 116.203125 39.246094 116.203125 40.347656 C 116.203125 41.738281 116.175781 43.128906 116.128906 44.511719 L 116.246094 44.558594 L 117.078125 44.292969 C 117.050781 43.535156 117.050781 41.570312 117.050781 40.21875 C 117.050781 39.335938 117.070312 38.441406 117.117188 37.558594 L 117.058594 37.4375 "/>
</g>
</svg>
