<?xml version="1.0" encoding="UTF-8"?>
<svg xmlns="http://www.w3.org/2000/svg" xmlns:xlink="http://www.w3.org/1999/xlink" width="8.94pt" height="22.67pt" viewBox="0 0 8.94 22.67" version="1.1">
<defs>
<clipPath id="clip1">
  <path d="M 1 1 L 8.941406 1 L 8.941406 9 L 1 9 Z M 1 1 "/>
</clipPath>
<clipPath id="clip2">
  <path d="M 0 13 L 8.941406 13 L 8.941406 14 L 0 14 Z M 0 13 "/>
</clipPath>
<clipPath id="clip3">
  <path d="M 1 15 L 8.941406 15 L 8.941406 22.671875 L 1 22.671875 Z M 1 15 "/>
</clipPath>
</defs>
<g id="surface1">
<g clip-path="url(#clip1)" clip-rule="nonzero">
<path style=" stroke:none;fill-rule:nonzero;fill:rgb(0%,0%,0%);fill-opacity:1;" d="M 5.261719 2.09375 C 5.261719 1.914062 5.261719 1.734375 5.0625 1.734375 C 4.867188 1.734375 4.867188 1.945312 4.867188 2.09375 L 4.867188 7.972656 L 2.105469 7.972656 C 1.953125 7.972656 1.746094 7.972656 1.746094 8.171875 C 1.746094 8.371094 1.953125 8.371094 2.105469 8.371094 L 8.035156 8.371094 C 8.203125 8.371094 8.382812 8.371094 8.382812 8.171875 C 8.382812 7.972656 8.203125 7.972656 8.035156 7.972656 L 5.261719 7.972656 L 5.261719 2.09375 "/>
</g>
<g clip-path="url(#clip2)" clip-rule="nonzero">
<path style="fill:none;stroke-width:3.98;stroke-linecap:butt;stroke-linejoin:miter;stroke:rgb(0%,0%,0%);stroke-opacity:1;stroke-miterlimit:10;" d="M 11.953125 93.2625 L 89.453125 93.2625 " transform="matrix(0.1,0,0,-0.1,0,22.67)"/>
</g>
<g clip-path="url(#clip3)" clip-rule="nonzero">
<path style=" stroke:none;fill-rule:nonzero;fill:rgb(0%,0%,0%);fill-opacity:1;" d="M 6.523438 21.914062 C 6.644531 22.351562 6.773438 22.769531 7.101562 22.769531 C 7.25 22.769531 7.398438 22.75 7.546875 22.710938 L 8.582031 22.414062 L 8.570312 22.152344 C 8.429688 22.164062 8.28125 22.183594 8.144531 22.183594 C 7.875 22.183594 7.636719 22.105469 7.507812 21.886719 C 7.148438 21.289062 6.882812 20.328125 6.664062 19.523438 C 6.335938 18.328125 5.890625 16.742188 5.738281 15.914062 L 3.8125 15.914062 L 3.8125 16.183594 L 4.707031 16.332031 C 4.796875 16.351562 4.828125 16.414062 4.828125 16.441406 C 4.828125 16.472656 4.828125 16.480469 4.816406 16.511719 C 3.773438 18.578125 2.628906 20.605469 1.449219 22.589844 L 1.476562 22.691406 L 2.382812 22.5 L 3.542969 20.039062 C 3.5625 20 3.605469 19.957031 3.644531 19.957031 L 5.878906 19.957031 C 5.90625 19.957031 5.96875 20.007812 5.988281 20.046875 Z M 4.996094 16.988281 C 4.996094 16.976562 5.023438 16.949219 5.054688 16.949219 C 5.085938 16.949219 5.113281 16.96875 5.125 16.988281 L 5.820312 19.414062 C 5.820312 19.421875 5.839844 19.5 5.839844 19.5 C 5.839844 19.53125 5.820312 19.570312 5.769531 19.570312 L 3.902344 19.570312 C 3.871094 19.570312 3.832031 19.53125 3.832031 19.5 C 3.832031 19.492188 3.832031 19.429688 3.84375 19.414062 L 4.996094 16.988281 "/>
</g>
</g>
</svg>
