<?xml version="1.0" encoding="UTF-8"?>
<svg xmlns="http://www.w3.org/2000/svg" xmlns:xlink="http://www.w3.org/1999/xlink" width="33.33pt" height="22.67pt" viewBox="0 0 33.33 22.67" version="1.1">
<defs>
<clipPath id="clip1">
  <path d="M 25 1 L 33.328125 1 L 33.328125 9 L 25 9 Z M 25 1 "/>
</clipPath>
<clipPath id="clip2">
  <path d="M 0 13 L 33.328125 13 L 33.328125 14 L 0 14 Z M 0 13 "/>
</clipPath>
<clipPath id="clip3">
  <path d="M 13 16 L 21 16 L 21 22.671875 L 13 22.671875 Z M 13 16 "/>
</clipPath>
</defs>
<g id="surface1">
<path style=" stroke:none;fill-rule:nonzero;fill:rgb(0%,0%,0%);fill-opacity:1;" d="M 6.523438 7.617188 C 6.644531 8.054688 6.773438 8.46875 7.101562 8.46875 C 7.25 8.46875 7.398438 8.449219 7.546875 8.410156 L 8.582031 8.113281 L 8.570312 7.851562 C 8.429688 7.863281 8.28125 7.882812 8.144531 7.882812 C 7.875 7.882812 7.636719 7.804688 7.507812 7.585938 C 7.148438 6.988281 6.882812 6.027344 6.664062 5.222656 C 6.335938 4.03125 5.890625 2.441406 5.738281 1.617188 L 3.8125 1.617188 L 3.8125 1.882812 L 4.707031 2.03125 C 4.796875 2.054688 4.828125 2.113281 4.828125 2.140625 C 4.828125 2.171875 4.828125 2.179688 4.816406 2.210938 C 3.773438 4.277344 2.628906 6.304688 1.449219 8.289062 L 1.476562 8.390625 L 2.382812 8.203125 L 3.542969 5.738281 C 3.5625 5.699219 3.605469 5.65625 3.644531 5.65625 L 5.878906 5.65625 C 5.90625 5.65625 5.96875 5.707031 5.988281 5.75 Z M 4.996094 2.6875 C 4.996094 2.679688 5.023438 2.648438 5.054688 2.648438 C 5.085938 2.648438 5.113281 2.667969 5.125 2.6875 L 5.820312 5.113281 C 5.820312 5.121094 5.839844 5.203125 5.839844 5.203125 C 5.839844 5.230469 5.820312 5.269531 5.769531 5.269531 L 3.902344 5.269531 C 3.871094 5.269531 3.832031 5.230469 3.832031 5.203125 C 3.832031 5.191406 3.832031 5.132812 3.84375 5.113281 L 4.996094 2.6875 "/>
<path style=" stroke:none;fill-rule:nonzero;fill:rgb(0%,0%,0%);fill-opacity:1;" d="M 25.039062 4.308594 L 19.046875 4.308594 L 19.046875 4.703125 L 24.640625 4.703125 L 24.640625 6.324219 L 25.039062 6.324219 L 25.039062 4.308594 "/>
<g clip-path="url(#clip1)" clip-rule="nonzero">
<path style=" stroke:none;fill-rule:nonzero;fill:rgb(0%,0%,0%);fill-opacity:1;" d="M 31.023438 7.617188 C 31.144531 8.054688 31.273438 8.46875 31.601562 8.46875 C 31.75 8.46875 31.898438 8.449219 32.046875 8.410156 L 33.082031 8.113281 L 33.070312 7.851562 C 32.929688 7.863281 32.78125 7.882812 32.644531 7.882812 C 32.375 7.882812 32.136719 7.804688 32.007812 7.585938 C 31.648438 6.988281 31.382812 6.027344 31.164062 5.222656 C 30.835938 4.03125 30.390625 2.441406 30.238281 1.617188 L 28.3125 1.617188 L 28.3125 1.882812 L 29.207031 2.03125 C 29.296875 2.054688 29.328125 2.113281 29.328125 2.140625 C 29.328125 2.171875 29.328125 2.179688 29.316406 2.210938 C 28.273438 4.277344 27.128906 6.304688 25.949219 8.289062 L 25.976562 8.390625 L 26.882812 8.203125 L 28.042969 5.738281 C 28.0625 5.699219 28.105469 5.65625 28.144531 5.65625 L 30.378906 5.65625 C 30.40625 5.65625 30.46875 5.707031 30.488281 5.75 Z M 29.496094 2.6875 C 29.496094 2.679688 29.523438 2.648438 29.554688 2.648438 C 29.585938 2.648438 29.613281 2.667969 29.625 2.6875 L 30.320312 5.113281 C 30.320312 5.121094 30.339844 5.203125 30.339844 5.203125 C 30.339844 5.230469 30.320312 5.269531 30.269531 5.269531 L 28.402344 5.269531 C 28.371094 5.269531 28.332031 5.230469 28.332031 5.203125 C 28.332031 5.191406 28.332031 5.132812 28.34375 5.113281 L 29.496094 2.6875 "/>
</g>
<g clip-path="url(#clip2)" clip-rule="nonzero">
<path style="fill:none;stroke-width:3.98;stroke-linecap:butt;stroke-linejoin:miter;stroke:rgb(0%,0%,0%);stroke-opacity:1;stroke-miterlimit:10;" d="M 11.953125 93.2625 L 333.28125 93.2625 " transform="matrix(0.1,0,0,-0.1,0,22.67)"/>
</g>
<g clip-path="url(#clip3)" clip-rule="nonzero">
<path style=" stroke:none;fill-rule:nonzero;fill:rgb(0%,0%,0%);fill-opacity:1;" d="M 17.460938 16.390625 C 17.460938 16.214844 17.460938 16.035156 17.265625 16.035156 C 17.066406 16.035156 17.066406 16.242188 17.066406 16.390625 L 17.066406 22.273438 L 14.304688 22.273438 C 14.15625 22.273438 13.945312 22.273438 13.945312 22.472656 C 13.945312 22.671875 14.15625 22.671875 14.304688 22.671875 L 20.234375 22.671875 C 20.402344 22.671875 20.582031 22.671875 20.582031 22.472656 C 20.582031 22.273438 20.402344 22.273438 20.234375 22.273438 L 17.460938 22.273438 L 17.460938 16.390625 "/>
</g>
</g>
</svg>
