<?xml version="1.0" encoding="UTF-8"?>
<svg xmlns="http://www.w3.org/2000/svg" xmlns:xlink="http://www.w3.org/1999/xlink" width="58pt" height="9.96pt" viewBox="0 0 58 9.96" version="1.1">
<defs>
<clipPath id="clip1">
  <path d="M 46 6 L 48 6 L 48 9.960938 L 46 9.960938 Z M 46 6 "/>
</clipPath>
</defs>
<g id="surface1">
<path style=" stroke:none;fill-rule:nonzero;fill:rgb(0%,0%,0%);fill-opacity:1;" d="M 5.574219 3.050781 L 5.542969 2.96875 L 4.976562 2.8125 L 4.75 2.910156 C 4.421875 4.191406 4.0625 5.285156 3.507812 6.457031 L 3.457031 6.457031 C 3.199219 5.273438 2.832031 3.644531 2.285156 3.097656 C 2.078125 2.890625 1.75 2.78125 1.449219 2.78125 C 0.921875 2.78125 0.496094 3 0.148438 3.386719 L 0.347656 3.644531 C 0.496094 3.546875 0.703125 3.464844 1.011719 3.464844 C 1.738281 3.464844 2.164062 4.441406 2.394531 5.097656 C 2.664062 5.859375 2.820312 6.664062 2.941406 7.46875 L 3.007812 7.539062 L 3.566406 7.222656 C 3.765625 6.726562 3.984375 6.246094 4.222656 5.769531 L 5.574219 3.050781 "/>
<path style=" stroke:none;fill-rule:nonzero;fill:rgb(0%,0%,0%);fill-opacity:1;" d="M 9.195312 7.011719 C 9.195312 7.320312 9.453125 7.578125 9.773438 7.578125 C 10.082031 7.578125 10.328125 7.320312 10.328125 7.011719 C 10.328125 6.707031 10.082031 6.449219 9.773438 6.449219 C 9.453125 6.449219 9.195312 6.707031 9.195312 7.011719 Z M 9.195312 3.507812 C 9.195312 3.816406 9.453125 4.074219 9.773438 4.074219 C 10.082031 4.074219 10.328125 3.816406 10.328125 3.507812 C 10.328125 3.199219 10.082031 2.941406 9.773438 2.941406 C 9.453125 2.941406 9.195312 3.199219 9.195312 3.507812 "/>
<path style=" stroke:none;fill-rule:nonzero;fill:rgb(0%,0%,0%);fill-opacity:1;" d="M 20.027344 0.707031 C 19.78125 1.132812 19.53125 1.570312 19.34375 2.015625 L 18.160156 4.738281 C 17.753906 5.621094 17.523438 6.136719 17.453125 6.160156 C 17.433594 6.148438 17.394531 6.128906 17.375 6.089844 C 16.671875 4.28125 16.125 2.425781 15.734375 0.527344 L 14 0.625 L 13.929688 0.683594 L 13.9375 0.953125 C 14.496094 1.035156 14.722656 1.082031 14.882812 1.410156 C 15.082031 1.847656 15.210938 2.304688 15.359375 2.761719 L 16.78125 7.550781 L 16.878906 7.621094 L 17.554688 7.359375 C 18.121094 5.722656 18.84375 4.132812 19.5625 2.8125 C 19.679688 2.601562 20.296875 1.511719 20.941406 0.726562 L 20.882812 0.535156 L 20.027344 0.707031 "/>
<path style=" stroke:none;fill-rule:nonzero;fill:rgb(0%,0%,0%);fill-opacity:1;" d="M 32.382812 5.175781 C 32.015625 5.632812 31.488281 6.417969 31.238281 7.460938 L 31.636719 7.460938 C 31.945312 6.160156 32.78125 5.253906 33.078125 4.976562 C 32.757812 4.679688 31.945312 3.785156 31.636719 2.492188 L 31.238281 2.492188 C 31.488281 3.527344 32.003906 4.3125 32.382812 4.777344 L 24.605469 4.777344 C 24.425781 4.777344 24.257812 4.777344 24.257812 4.976562 C 24.257812 5.175781 24.433594 5.175781 24.605469 5.175781 L 32.382812 5.175781 "/>
<path style=" stroke:none;fill-rule:nonzero;fill:rgb(0%,0%,0%);fill-opacity:1;" d="M 40.871094 0.386719 L 40.871094 0.148438 C 40.335938 0.148438 39.679688 0.148438 39.292969 0.0976562 L 39.292969 8.703125 C 39.808594 8.652344 40.335938 8.652344 40.871094 8.652344 L 40.871094 8.414062 L 39.6875 8.285156 L 39.6875 0.515625 L 40.871094 0.386719 "/>
<path style=" stroke:none;fill-rule:nonzero;fill:rgb(0%,0%,0%);fill-opacity:1;" d="M 43.679688 0.464844 C 43.242188 0.644531 42.757812 0.882812 42.429688 1.210938 C 41.585938 2.054688 41.136719 3.257812 41.136719 4.449219 C 41.136719 5.59375 41.414062 7.597656 42.855469 7.597656 C 44.683594 7.597656 45.367188 5.503906 45.367188 3.925781 C 45.367188 2.601562 44.882812 1.230469 43.679688 0.464844 Z M 43.125 1.101562 C 43.570312 1.292969 44.007812 1.988281 44.078125 2.105469 C 44.515625 2.890625 44.753906 3.734375 44.753906 4.628906 C 44.753906 5.59375 44.515625 6.941406 43.304688 6.941406 C 42.667969 6.941406 42.210938 6.160156 42.011719 5.484375 C 41.851562 4.9375 41.804688 4.351562 41.804688 3.773438 C 41.804688 2.769531 42.25 1.648438 43.125 1.101562 "/>
<g clip-path="url(#clip1)" clip-rule="nonzero">
<path style=" stroke:none;fill-rule:nonzero;fill:rgb(0%,0%,0%);fill-opacity:1;" d="M 46.890625 9.546875 C 47.597656 8.730469 47.925781 8.226562 47.925781 7.730469 C 47.925781 7.378906 47.578125 6.089844 47.050781 6.089844 C 46.804688 6.089844 46.464844 6.308594 46.464844 6.566406 C 46.464844 6.664062 46.496094 6.773438 46.535156 6.824219 L 47.230469 7.648438 C 47.320312 7.757812 47.359375 7.925781 47.359375 8.066406 C 47.359375 8.464844 47.050781 8.949219 46.703125 9.40625 L 46.890625 9.546875 "/>
</g>
<path style=" stroke:none;fill-rule:nonzero;fill:rgb(0%,0%,0%);fill-opacity:1;" d="M 53.257812 0.386719 L 51.113281 1.113281 L 51.113281 1.378906 L 51.9375 1.378906 C 52.554688 1.378906 52.40625 2.195312 52.40625 3.296875 C 52.40625 4.6875 52.375 6.078125 52.328125 7.460938 L 52.445312 7.511719 L 53.28125 7.242188 C 53.25 6.488281 53.25 4.519531 53.25 3.167969 C 53.25 2.285156 53.269531 1.390625 53.320312 0.507812 L 53.257812 0.386719 "/>
<path style=" stroke:none;fill-rule:nonzero;fill:rgb(0%,0%,0%);fill-opacity:1;" d="M 56.371094 0.515625 L 56.371094 8.285156 L 55.191406 8.414062 L 55.191406 8.652344 C 55.726562 8.652344 56.253906 8.652344 56.769531 8.703125 L 56.769531 0.0976562 C 56.382812 0.148438 55.726562 0.148438 55.191406 0.148438 L 55.191406 0.386719 L 56.371094 0.515625 "/>
</g>
</svg>
