<?xml version="1.0" encoding="UTF-8"?>
<svg xmlns="http://www.w3.org/2000/svg" xmlns:xlink="http://www.w3.org/1999/xlink" width="24.37pt" height="53.22pt" viewBox="0 0 24.37 53.22" version="1.1">
<defs>
<clipPath id="clip1">
  <path d="M 0 43 L 24.371094 43 L 24.371094 45 L 0 45 Z M 0 43 "/>
</clipPath>
<clipPath id="clip2">
  <path d="M 12 46 L 20 46 L 20 53.21875 L 12 53.21875 Z M 12 46 "/>
</clipPath>
</defs>
<g id="surface1">
<path style=" stroke:none;fill-rule:nonzero;fill:rgb(0%,0%,0%);fill-opacity:1;" d="M 8.972656 1.246094 L 8.972656 1.007812 C 8.433594 1.007812 7.78125 1.007812 7.390625 0.960938 L 7.390625 9.5625 C 7.910156 9.511719 8.433594 9.511719 8.972656 9.511719 L 8.972656 9.273438 L 7.789062 9.144531 L 7.789062 1.375 L 8.972656 1.246094 "/>
<path style=" stroke:none;fill-rule:nonzero;fill:rgb(0%,0%,0%);fill-opacity:1;" d="M 14.226562 7.566406 C 14.34375 8.003906 14.472656 8.421875 14.800781 8.421875 C 14.949219 8.421875 15.097656 8.398438 15.246094 8.359375 L 16.28125 8.0625 L 16.269531 7.804688 C 16.132812 7.8125 15.984375 7.832031 15.84375 7.832031 C 15.574219 7.832031 15.335938 7.753906 15.207031 7.535156 C 14.851562 6.9375 14.582031 5.976562 14.363281 5.171875 C 14.035156 3.980469 13.589844 2.390625 13.4375 1.566406 L 11.511719 1.566406 L 11.511719 1.835938 L 12.40625 1.984375 C 12.496094 2.003906 12.527344 2.0625 12.527344 2.09375 C 12.527344 2.121094 12.527344 2.132812 12.515625 2.160156 C 11.472656 4.226562 10.328125 6.253906 9.148438 8.242188 L 9.179688 8.339844 L 10.082031 8.152344 L 11.242188 5.6875 C 11.265625 5.648438 11.304688 5.609375 11.34375 5.609375 L 13.578125 5.609375 C 13.609375 5.609375 13.667969 5.65625 13.6875 5.699219 Z M 12.695312 2.636719 C 12.695312 2.628906 12.726562 2.597656 12.753906 2.597656 C 12.785156 2.597656 12.8125 2.617188 12.824219 2.636719 L 13.519531 5.0625 C 13.519531 5.070312 13.539062 5.152344 13.539062 5.152344 C 13.539062 5.179688 13.519531 5.21875 13.46875 5.21875 L 11.601562 5.21875 C 11.570312 5.21875 11.53125 5.179688 11.53125 5.152344 C 11.53125 5.140625 11.53125 5.082031 11.542969 5.0625 L 12.695312 2.636719 "/>
<path style=" stroke:none;fill-rule:nonzero;fill:rgb(0%,0%,0%);fill-opacity:1;" d="M 17.773438 1.375 L 17.773438 9.144531 L 16.589844 9.273438 L 16.589844 9.511719 C 17.125 9.511719 17.652344 9.511719 18.167969 9.5625 L 18.167969 0.960938 C 17.78125 1.007812 17.125 1.007812 16.589844 1.007812 L 16.589844 1.246094 L 17.773438 1.375 "/>
<path style=" stroke:none;fill-rule:nonzero;fill:rgb(0%,0%,0%);fill-opacity:1;" d="M 13.308594 18.492188 C 13.308594 18.207031 13.070312 17.96875 12.78125 17.96875 C 12.492188 17.96875 12.253906 18.207031 12.253906 18.492188 C 12.253906 18.78125 12.492188 19.019531 12.78125 19.019531 C 13.070312 19.019531 13.308594 18.78125 13.308594 18.492188 "/>
<path style=" stroke:none;fill-rule:nonzero;fill:rgb(0%,0%,0%);fill-opacity:1;" d="M 13.308594 22.492188 C 13.308594 22.207031 13.070312 21.96875 12.78125 21.96875 C 12.492188 21.96875 12.253906 22.207031 12.253906 22.492188 C 12.253906 22.78125 12.492188 23.019531 12.78125 23.019531 C 13.070312 23.019531 13.308594 22.78125 13.308594 22.492188 "/>
<path style=" stroke:none;fill-rule:nonzero;fill:rgb(0%,0%,0%);fill-opacity:1;" d="M 13.308594 26.394531 C 13.308594 26.105469 13.070312 25.867188 12.78125 25.867188 C 12.492188 25.867188 12.253906 26.105469 12.253906 26.394531 C 12.253906 26.679688 12.492188 26.921875 12.78125 26.921875 C 13.070312 26.921875 13.308594 26.679688 13.308594 26.394531 "/>
<path style=" stroke:none;fill-rule:nonzero;fill:rgb(0%,0%,0%);fill-opacity:1;" d="M 12.960938 32.640625 C 12.960938 32.464844 12.960938 32.285156 12.765625 32.285156 C 12.566406 32.285156 12.566406 32.492188 12.566406 32.640625 L 12.566406 38.523438 L 9.804688 38.523438 C 9.65625 38.523438 9.445312 38.523438 9.445312 38.722656 C 9.445312 38.921875 9.65625 38.921875 9.804688 38.921875 L 15.734375 38.921875 C 15.902344 38.921875 16.082031 38.921875 16.082031 38.722656 C 16.082031 38.523438 15.902344 38.523438 15.734375 38.523438 L 12.960938 38.523438 L 12.960938 32.640625 "/>
<g clip-path="url(#clip1)" clip-rule="nonzero">
<path style="fill:none;stroke-width:3.98;stroke-linecap:butt;stroke-linejoin:miter;stroke:rgb(0%,0%,0%);stroke-opacity:1;stroke-miterlimit:10;" d="M 11.953125 93.254688 L 243.671875 93.254688 " transform="matrix(0.1,0,0,-0.1,0,53.22)"/>
</g>
<path style=" stroke:none;fill-rule:nonzero;fill:rgb(0%,0%,0%);fill-opacity:1;" d="M 11.738281 49.15625 L 5.75 49.15625 L 5.75 49.554688 L 11.339844 49.554688 L 11.339844 51.171875 L 11.738281 51.171875 L 11.738281 49.15625 "/>
<g clip-path="url(#clip2)" clip-rule="nonzero">
<path style=" stroke:none;fill-rule:nonzero;fill:rgb(0%,0%,0%);fill-opacity:1;" d="M 17.726562 52.464844 C 17.84375 52.902344 17.972656 53.320312 18.300781 53.320312 C 18.449219 53.320312 18.597656 53.300781 18.746094 53.257812 L 19.78125 52.960938 L 19.769531 52.703125 C 19.632812 52.714844 19.484375 52.734375 19.34375 52.734375 C 19.074219 52.734375 18.835938 52.65625 18.707031 52.4375 C 18.351562 51.839844 18.082031 50.875 17.863281 50.070312 C 17.535156 48.878906 17.089844 47.289062 16.9375 46.464844 L 15.011719 46.464844 L 15.011719 46.734375 L 15.90625 46.882812 C 15.996094 46.902344 16.027344 46.960938 16.027344 46.992188 C 16.027344 47.023438 16.027344 47.03125 16.015625 47.0625 C 14.972656 49.128906 13.828125 51.15625 12.648438 53.140625 L 12.679688 53.242188 L 13.582031 53.050781 L 14.742188 50.585938 C 14.765625 50.546875 14.804688 50.507812 14.84375 50.507812 L 17.078125 50.507812 C 17.109375 50.507812 17.167969 50.558594 17.1875 50.597656 Z M 16.195312 47.539062 C 16.195312 47.527344 16.226562 47.5 16.253906 47.5 C 16.285156 47.5 16.3125 47.519531 16.324219 47.539062 L 17.019531 49.960938 C 17.019531 49.972656 17.039062 50.050781 17.039062 50.050781 C 17.039062 50.082031 17.019531 50.121094 16.96875 50.121094 L 15.101562 50.121094 C 15.070312 50.121094 15.03125 50.082031 15.03125 50.050781 C 15.03125 50.042969 15.03125 49.980469 15.042969 49.960938 L 16.195312 47.539062 "/>
</g>
</g>
</svg>
