<?xml version="1.0" encoding="UTF-8"?>
<svg xmlns="http://www.w3.org/2000/svg" xmlns:xlink="http://www.w3.org/1999/xlink" width="55.51pt" height="9.96pt" viewBox="0 0 55.51 9.96" version="1.1">
<defs>
<clipPath id="clip1">
  <path d="M 8 2 L 15 2 L 15 9.960938 L 8 9.960938 Z M 8 2 "/>
</clipPath>
<clipPath id="clip2">
  <path d="M 39 0 L 41 0 L 41 9.960938 L 39 9.960938 Z M 39 0 "/>
</clipPath>
<clipPath id="clip3">
  <path d="M 49 2 L 55 2 L 55 9.960938 L 49 9.960938 Z M 49 2 "/>
</clipPath>
</defs>
<g id="surface1">
<path style=" stroke:none;fill-rule:nonzero;fill:rgb(0%,0%,0%);fill-opacity:1;" d="M 5.164062 4.210938 C 5.335938 4.210938 5.511719 4.210938 5.511719 4.011719 C 5.511719 3.816406 5.335938 3.816406 5.164062 3.816406 L 0.945312 3.816406 L 0.945312 0.925781 C 0.945312 0.746094 0.945312 0.566406 0.746094 0.566406 C 0.546875 0.566406 0.546875 0.773438 0.546875 0.925781 L 0.546875 7.101562 C 0.546875 7.25 0.546875 7.460938 0.746094 7.460938 C 0.945312 7.460938 0.945312 7.28125 0.945312 7.101562 L 0.945312 4.210938 L 5.164062 4.210938 "/>
<g clip-path="url(#clip1)" clip-rule="nonzero">
<path style=" stroke:none;fill-rule:nonzero;fill:rgb(0%,0%,0%);fill-opacity:1;" d="M 10.875 9.507812 C 10.816406 8.988281 10.789062 8.027344 10.777344 7.570312 L 10.875 7.488281 C 11.066406 7.539062 11.265625 7.570312 11.460938 7.570312 C 13.003906 7.570312 14.046875 5.960938 14.046875 4.5 C 14.046875 3.753906 13.699219 2.839844 12.683594 2.839844 C 12 2.839844 11.394531 3.148438 10.855469 3.574219 L 10.777344 3.535156 C 10.738281 3.097656 10.578125 2.792969 10.132812 2.792969 C 9.695312 2.792969 9.179688 3.148438 8.78125 3.464844 L 8.921875 3.65625 C 9.15625 3.515625 9.4375 3.367188 9.644531 3.367188 C 9.945312 3.367188 10.03125 3.882812 10.03125 4.332031 L 10.03125 6.527344 C 10.03125 7.09375 10.023438 9.128906 9.972656 9.707031 L 10.070312 9.816406 Z M 10.796875 6.804688 C 10.796875 6.792969 10.777344 5.769531 10.777344 4.957031 C 10.777344 4.847656 10.808594 4.09375 10.808594 4.035156 C 11.273438 3.664062 11.679688 3.457031 12.1875 3.457031 C 12.824219 3.457031 13.210938 4.222656 13.210938 5.085938 C 13.210938 6.03125 12.875 7.171875 11.671875 7.171875 C 11.34375 7.171875 11.035156 7.023438 10.796875 6.804688 "/>
</g>
<path style=" stroke:none;fill-rule:nonzero;fill:rgb(0%,0%,0%);fill-opacity:1;" d="M 24.613281 4.191406 L 24.671875 3.792969 L 18.105469 3.792969 L 18.035156 4.191406 Z M 24.613281 6.148438 L 24.671875 5.75 L 18.105469 5.75 L 18.035156 6.148438 L 24.613281 6.148438 "/>
<path style=" stroke:none;fill-rule:nonzero;fill:rgb(0%,0%,0%);fill-opacity:1;" d="M 31.058594 4.210938 C 31.207031 4.351562 31.515625 4.648438 32.023438 4.976562 C 31.773438 5.136719 31.457031 5.363281 31.058594 5.742188 L 24.3125 5.742188 C 24.144531 5.742188 23.957031 5.742188 23.957031 5.941406 C 23.957031 6.136719 24.132812 6.136719 24.304688 6.136719 L 30.660156 6.136719 C 30.265625 6.566406 29.648438 7.390625 29.28125 8.425781 L 29.679688 8.425781 C 30.226562 6.925781 31.328125 5.703125 32.777344 4.976562 C 31.375 4.28125 30.242188 3.078125 29.679688 1.53125 L 29.28125 1.53125 C 29.65625 2.574219 30.273438 3.386719 30.660156 3.816406 L 24.304688 3.816406 C 24.132812 3.816406 23.957031 3.816406 23.957031 4.011719 C 23.957031 4.210938 24.144531 4.210938 24.3125 4.210938 L 31.058594 4.210938 "/>
<g clip-path="url(#clip2)" clip-rule="nonzero">
<path style=" stroke:none;fill-rule:nonzero;fill:rgb(0%,0%,0%);fill-opacity:1;" d="M 40.152344 9.039062 L 40.152344 0.128906 L 39.753906 0.207031 L 39.753906 9.121094 L 40.152344 9.039062 "/>
</g>
<path style=" stroke:none;fill-rule:nonzero;fill:rgb(0%,0%,0%);fill-opacity:1;" d="M 46.414062 4.191406 L 46.472656 3.792969 L 39.90625 3.792969 L 39.835938 4.191406 Z M 46.414062 6.148438 L 46.472656 5.75 L 39.90625 5.75 L 39.835938 6.148438 L 46.414062 6.148438 "/>
<g clip-path="url(#clip3)" clip-rule="nonzero">
<path style=" stroke:none;fill-rule:nonzero;fill:rgb(0%,0%,0%);fill-opacity:1;" d="M 51.578125 9.507812 C 51.515625 8.988281 51.488281 8.027344 51.476562 7.570312 L 51.578125 7.488281 C 51.765625 7.539062 51.964844 7.570312 52.164062 7.570312 C 53.703125 7.570312 54.746094 5.960938 54.746094 4.5 C 54.746094 3.753906 54.398438 2.839844 53.382812 2.839844 C 52.699219 2.839844 52.09375 3.148438 51.554688 3.574219 L 51.476562 3.535156 C 51.4375 3.097656 51.277344 2.792969 50.832031 2.792969 C 50.394531 2.792969 49.878906 3.148438 49.480469 3.464844 L 49.621094 3.65625 C 49.859375 3.515625 50.136719 3.367188 50.34375 3.367188 C 50.644531 3.367188 50.734375 3.882812 50.734375 4.332031 L 50.734375 6.527344 C 50.734375 7.09375 50.722656 9.128906 50.671875 9.707031 L 50.773438 9.816406 Z M 51.496094 6.804688 C 51.496094 6.792969 51.476562 5.769531 51.476562 4.957031 C 51.476562 4.847656 51.507812 4.09375 51.507812 4.035156 C 51.972656 3.664062 52.382812 3.457031 52.886719 3.457031 C 53.523438 3.457031 53.910156 4.222656 53.910156 5.085938 C 53.910156 6.03125 53.574219 7.171875 52.371094 7.171875 C 52.042969 7.171875 51.734375 7.023438 51.496094 6.804688 "/>
</g>
</g>
</svg>
