<?xml version="1.0" encoding="UTF-8"?>
<svg xmlns="http://www.w3.org/2000/svg" xmlns:xlink="http://www.w3.org/1999/xlink" width="205.04pt" height="11.95pt" viewBox="0 0 205.04 11.95" version="1.1">
<g id="surface1">
<path style=" stroke:none;fill-rule:nonzero;fill:rgb(0%,0%,0%);fill-opacity:1;" d="M 7.992188 9.96875 C 6.710938 9.71875 6.640625 7.304688 6.640625 5.628906 C 6.640625 4.128906 6.726562 1.605469 7.992188 1.289062 L 7.992188 1.019531 C 6.957031 1.199219 6.507812 2.328125 6.320312 3.285156 C 6.171875 4.027344 6.121094 4.804688 6.121094 5.570312 C 6.121094 6.375 6.164062 7.179688 6.300781 7.972656 C 6.46875 8.914062 6.945312 10.117188 7.992188 10.207031 L 7.992188 9.96875 "/>
<path style=" stroke:none;fill-rule:nonzero;fill:rgb(0%,0%,0%);fill-opacity:1;" d="M 14.226562 7.59375 C 14.34375 8.03125 14.472656 8.449219 14.800781 8.449219 C 14.949219 8.449219 15.097656 8.429688 15.246094 8.390625 L 16.28125 8.09375 L 16.269531 7.832031 C 16.132812 7.84375 15.984375 7.863281 15.84375 7.863281 C 15.574219 7.863281 15.335938 7.785156 15.207031 7.566406 C 14.851562 6.96875 14.582031 6.007812 14.363281 5.203125 C 14.035156 4.007812 13.589844 2.421875 13.4375 1.59375 L 11.511719 1.59375 L 11.511719 1.863281 L 12.40625 2.011719 C 12.496094 2.03125 12.527344 2.09375 12.527344 2.121094 C 12.527344 2.152344 12.527344 2.160156 12.515625 2.191406 C 11.472656 4.257812 10.328125 6.285156 9.148438 8.269531 L 9.179688 8.371094 L 10.082031 8.179688 L 11.242188 5.71875 C 11.265625 5.679688 11.304688 5.636719 11.34375 5.636719 L 13.578125 5.636719 C 13.609375 5.636719 13.667969 5.6875 13.6875 5.726562 Z M 12.695312 2.667969 C 12.695312 2.65625 12.726562 2.628906 12.753906 2.628906 C 12.785156 2.628906 12.8125 2.648438 12.824219 2.667969 L 13.519531 5.09375 C 13.519531 5.101562 13.539062 5.179688 13.539062 5.179688 C 13.539062 5.210938 13.519531 5.25 13.46875 5.25 L 11.601562 5.25 C 11.570312 5.25 11.53125 5.210938 11.53125 5.179688 C 11.53125 5.171875 11.53125 5.109375 11.542969 5.09375 L 12.695312 2.667969 "/>
<path style=" stroke:none;fill-rule:nonzero;fill:rgb(0%,0%,0%);fill-opacity:1;" d="M 24.769531 2.765625 C 24.769531 2.589844 24.769531 2.410156 24.570312 2.410156 C 24.371094 2.410156 24.371094 2.589844 24.371094 2.765625 L 24.371094 6.363281 C 24.371094 7.851562 22.753906 8.171875 22.007812 8.171875 C 21.5625 8.171875 20.933594 8.082031 20.410156 7.742188 C 19.644531 7.257812 19.644531 6.621094 19.644531 6.351562 L 19.644531 2.765625 C 19.644531 2.589844 19.644531 2.410156 19.445312 2.410156 C 19.246094 2.410156 19.246094 2.589844 19.246094 2.765625 L 19.246094 6.402344 C 19.246094 7.914062 20.765625 8.570312 22.007812 8.570312 C 23.300781 8.570312 24.769531 7.875 24.769531 6.414062 L 24.769531 2.765625 "/>
<path style=" stroke:none;fill-rule:nonzero;fill:rgb(0%,0%,0%);fill-opacity:1;" d="M 29.734375 5.132812 L 29.734375 4.992188 C 29.785156 4.894531 29.992188 4.914062 30.351562 4.914062 C 31.34375 4.914062 32.398438 5.101562 32.398438 6.285156 C 32.398438 7.445312 31.492188 7.960938 30.480469 7.960938 C 29.816406 7.960938 29.734375 7.921875 29.734375 7.695312 Z M 29.734375 4.265625 L 29.734375 2.101562 C 29.796875 1.894531 30.234375 1.914062 30.460938 1.914062 C 31.304688 1.914062 32.0625 2.101562 32.0625 2.9375 C 32.0625 4.109375 31.125 4.566406 30.074219 4.566406 C 29.875 4.566406 29.757812 4.566406 29.734375 4.464844 Z M 31.382812 4.59375 C 32.1875 4.257812 32.90625 3.820312 32.90625 2.855469 C 32.90625 1.773438 31.75 1.535156 30.628906 1.535156 L 28.175781 1.535156 L 28.105469 1.605469 L 28.097656 1.773438 C 28.464844 1.875 28.921875 1.941406 28.921875 2.28125 L 28.921875 7.546875 C 28.921875 8.101562 28.890625 7.941406 28.691406 8.242188 L 28.703125 8.339844 C 28.710938 8.339844 30.015625 8.359375 30.667969 8.359375 C 31.871094 8.359375 33.300781 7.882812 33.300781 6.351562 C 33.300781 5.378906 32.824219 4.863281 31.375 4.675781 L 31.382812 4.59375 "/>
<path style=" stroke:none;fill-rule:nonzero;fill:rgb(0%,0%,0%);fill-opacity:1;" d="M 34.953125 1.304688 C 35.757812 1.59375 35.988281 2.527344 36.136719 3.273438 C 36.285156 4.039062 36.324219 4.832031 36.324219 5.609375 C 36.324219 6.742188 36.34375 7.953125 35.988281 9.015625 C 35.789062 9.609375 35.410156 9.871094 34.953125 9.988281 L 34.953125 10.226562 C 36.734375 10 36.84375 7.347656 36.84375 5.648438 C 36.84375 3.988281 36.632812 1.386719 34.953125 1.039062 L 34.953125 1.304688 "/>
<path style=" stroke:none;fill-rule:nonzero;fill:rgb(0%,0%,0%);fill-opacity:1;" d="M 44.453125 10.257812 L 44.769531 10.179688 L 44.800781 10.046875 L 40.945312 1.179688 L 40.636719 1.246094 L 40.585938 1.355469 L 44.453125 10.257812 "/>
<path style=" stroke:none;fill-rule:nonzero;fill:rgb(0%,0%,0%);fill-opacity:1;" d="M 50.390625 9.96875 C 49.109375 9.71875 49.039062 7.304688 49.039062 5.628906 C 49.039062 4.128906 49.128906 1.605469 50.390625 1.289062 L 50.390625 1.019531 C 49.355469 1.199219 48.910156 2.328125 48.722656 3.285156 C 48.570312 4.027344 48.523438 4.804688 48.523438 5.570312 C 48.523438 6.375 48.5625 7.179688 48.703125 7.972656 C 48.871094 8.914062 49.347656 10.117188 50.390625 10.207031 L 50.390625 9.96875 "/>
<path style=" stroke:none;fill-rule:nonzero;fill:rgb(0%,0%,0%);fill-opacity:1;" d="M 56.625 7.59375 C 56.742188 8.03125 56.875 8.449219 57.199219 8.449219 C 57.351562 8.449219 57.5 8.429688 57.648438 8.390625 L 58.679688 8.09375 L 58.671875 7.832031 C 58.53125 7.84375 58.382812 7.863281 58.242188 7.863281 C 57.976562 7.863281 57.738281 7.785156 57.609375 7.566406 C 57.25 6.96875 56.984375 6.007812 56.765625 5.203125 C 56.4375 4.007812 55.988281 2.421875 55.839844 1.59375 L 53.914062 1.59375 L 53.914062 1.863281 L 54.804688 2.011719 C 54.894531 2.03125 54.925781 2.09375 54.925781 2.121094 C 54.925781 2.152344 54.925781 2.160156 54.914062 2.191406 C 53.875 4.257812 52.730469 6.285156 51.546875 8.269531 L 51.578125 8.371094 L 52.484375 8.179688 L 53.644531 5.71875 C 53.664062 5.679688 53.703125 5.636719 53.742188 5.636719 L 55.976562 5.636719 C 56.007812 5.636719 56.070312 5.6875 56.085938 5.726562 Z M 55.09375 2.667969 C 55.09375 2.65625 55.125 2.628906 55.15625 2.628906 C 55.183594 2.628906 55.214844 2.648438 55.222656 2.667969 L 55.917969 5.09375 C 55.917969 5.101562 55.9375 5.179688 55.9375 5.179688 C 55.9375 5.210938 55.917969 5.25 55.867188 5.25 L 54 5.25 C 53.972656 5.25 53.933594 5.210938 53.933594 5.179688 C 53.933594 5.171875 53.933594 5.109375 53.941406 5.09375 L 55.09375 2.667969 "/>
<path style=" stroke:none;fill-rule:nonzero;fill:rgb(0%,0%,0%);fill-opacity:1;" d="M 67.269531 4.574219 C 67.269531 3.066406 65.75 2.410156 64.507812 2.410156 C 63.21875 2.410156 61.746094 3.105469 61.746094 4.566406 L 61.746094 8.210938 C 61.746094 8.390625 61.746094 8.570312 61.945312 8.570312 C 62.144531 8.570312 62.144531 8.390625 62.144531 8.210938 L 62.144531 4.617188 C 62.144531 3.125 63.761719 2.804688 64.507812 2.804688 C 64.953125 2.804688 65.582031 2.898438 66.109375 3.234375 C 66.871094 3.71875 66.871094 4.355469 66.871094 4.625 L 66.871094 8.210938 C 66.871094 8.390625 66.871094 8.570312 67.070312 8.570312 C 67.269531 8.570312 67.269531 8.390625 67.269531 8.210938 L 67.269531 4.574219 "/>
<path style=" stroke:none;fill-rule:nonzero;fill:rgb(0%,0%,0%);fill-opacity:1;" d="M 72.136719 5.132812 L 72.136719 4.992188 C 72.1875 4.894531 72.394531 4.914062 72.75 4.914062 C 73.746094 4.914062 74.796875 5.101562 74.796875 6.285156 C 74.796875 7.445312 73.894531 7.960938 72.882812 7.960938 C 72.214844 7.960938 72.136719 7.921875 72.136719 7.695312 Z M 72.136719 4.265625 L 72.136719 2.101562 C 72.195312 1.894531 72.632812 1.914062 72.859375 1.914062 C 73.703125 1.914062 74.460938 2.101562 74.460938 2.9375 C 74.460938 4.109375 73.527344 4.566406 72.472656 4.566406 C 72.273438 4.566406 72.15625 4.566406 72.136719 4.464844 Z M 73.785156 4.59375 C 74.589844 4.257812 75.304688 3.820312 75.304688 2.855469 C 75.304688 1.773438 74.152344 1.535156 73.03125 1.535156 L 70.578125 1.535156 L 70.507812 1.605469 L 70.496094 1.773438 C 70.863281 1.875 71.320312 1.941406 71.320312 2.28125 L 71.320312 7.546875 C 71.320312 8.101562 71.289062 7.941406 71.09375 8.242188 L 71.101562 8.339844 C 71.113281 8.339844 72.414062 8.359375 73.070312 8.359375 C 74.273438 8.359375 75.703125 7.882812 75.703125 6.351562 C 75.703125 5.378906 75.226562 4.863281 73.773438 4.675781 L 73.785156 4.59375 "/>
<path style=" stroke:none;fill-rule:nonzero;fill:rgb(0%,0%,0%);fill-opacity:1;" d="M 77.453125 1.304688 C 78.257812 1.59375 78.488281 2.527344 78.636719 3.273438 C 78.785156 4.039062 78.824219 4.832031 78.824219 5.609375 C 78.824219 6.742188 78.84375 7.953125 78.488281 9.015625 C 78.289062 9.609375 77.910156 9.871094 77.453125 9.988281 L 77.453125 10.226562 C 79.234375 10 79.34375 7.347656 79.34375 5.648438 C 79.34375 3.988281 79.132812 1.386719 77.453125 1.039062 L 77.453125 1.304688 "/>
<path style=" stroke:none;fill-rule:nonzero;fill:rgb(0%,0%,0%);fill-opacity:1;" d="M 93.191406 1.992188 C 94.105469 1.992188 94.910156 2.289062 94.910156 3.324219 C 94.910156 4.425781 93.976562 5.082031 92.59375 5.082031 C 92.554688 5.082031 92.484375 5.050781 92.484375 4.960938 C 92.484375 4.097656 92.507812 2.976562 92.546875 2.101562 C 92.546875 2.050781 92.566406 1.992188 92.632812 1.992188 Z M 92.554688 8.132812 C 92.546875 7.128906 92.484375 5.875 92.484375 5.628906 C 92.484375 5.4375 93.132812 5.460938 93.421875 5.4375 C 94.066406 5.390625 94.789062 5.242188 95.226562 4.792969 C 95.644531 4.375 95.863281 3.828125 95.863281 3.242188 C 95.863281 2.191406 95.199219 1.605469 93.570312 1.605469 L 91.015625 1.605469 L 90.945312 1.675781 L 90.945312 1.851562 C 91.324219 1.902344 91.652344 1.992188 91.679688 2.390625 C 91.710938 2.976562 91.730469 3.5625 91.730469 4.148438 C 91.730469 5.546875 91.679688 6.949219 91.660156 8.339844 L 91.730469 8.410156 L 92.554688 8.132812 "/>
<path style=" stroke:none;fill-rule:nonzero;fill:rgb(0%,0%,0%);fill-opacity:1;" d="M 101.089844 9.96875 C 99.808594 9.71875 99.738281 7.304688 99.738281 5.628906 C 99.738281 4.128906 99.828125 1.605469 101.089844 1.289062 L 101.089844 1.019531 C 100.054688 1.199219 99.609375 2.328125 99.421875 3.285156 C 99.273438 4.027344 99.222656 4.804688 99.222656 5.570312 C 99.222656 6.375 99.261719 7.179688 99.402344 7.972656 C 99.570312 8.914062 100.046875 10.117188 101.089844 10.207031 L 101.089844 9.96875 "/>
<path style=" stroke:none;fill-rule:nonzero;fill:rgb(0%,0%,0%);fill-opacity:1;" d="M 107.324219 7.59375 C 107.445312 8.03125 107.574219 8.449219 107.898438 8.449219 C 108.050781 8.449219 108.199219 8.429688 108.347656 8.390625 L 109.382812 8.09375 L 109.371094 7.832031 C 109.230469 7.84375 109.082031 7.863281 108.945312 7.863281 C 108.675781 7.863281 108.4375 7.785156 108.308594 7.566406 C 107.949219 6.96875 107.683594 6.007812 107.464844 5.203125 C 107.136719 4.007812 106.6875 2.421875 106.539062 1.59375 L 104.613281 1.59375 L 104.613281 1.863281 L 105.507812 2.011719 C 105.59375 2.03125 105.628906 2.09375 105.628906 2.121094 C 105.628906 2.152344 105.628906 2.160156 105.617188 2.191406 C 104.574219 4.257812 103.429688 6.285156 102.246094 8.269531 L 102.277344 8.371094 L 103.183594 8.179688 L 104.34375 5.71875 C 104.363281 5.679688 104.40625 5.636719 104.445312 5.636719 L 106.679688 5.636719 C 106.707031 5.636719 106.769531 5.6875 106.789062 5.726562 Z M 105.796875 2.667969 C 105.796875 2.65625 105.824219 2.628906 105.855469 2.628906 C 105.882812 2.628906 105.914062 2.648438 105.921875 2.667969 L 106.617188 5.09375 C 106.617188 5.101562 106.640625 5.179688 106.640625 5.179688 C 106.640625 5.210938 106.617188 5.25 106.570312 5.25 L 104.703125 5.25 C 104.671875 5.25 104.632812 5.210938 104.632812 5.179688 C 104.632812 5.171875 104.632812 5.109375 104.640625 5.09375 L 105.796875 2.667969 "/>
<path style=" stroke:none;fill-rule:nonzero;fill:rgb(0%,0%,0%);fill-opacity:1;" d="M 110.453125 1.304688 C 111.257812 1.59375 111.488281 2.527344 111.636719 3.273438 C 111.785156 4.039062 111.824219 4.832031 111.824219 5.609375 C 111.824219 6.742188 111.84375 7.953125 111.488281 9.015625 C 111.289062 9.609375 110.910156 9.871094 110.453125 9.988281 L 110.453125 10.226562 C 112.234375 10 112.34375 7.347656 112.34375 5.648438 C 112.34375 3.988281 112.132812 1.386719 110.453125 1.039062 L 110.453125 1.304688 "/>
<path style=" stroke:none;fill-rule:nonzero;fill:rgb(0%,0%,0%);fill-opacity:1;" d="M 119.632812 5.609375 L 119.632812 2.527344 L 119.234375 2.589844 L 119.234375 5.609375 L 116.226562 5.609375 L 116.15625 6.007812 L 119.234375 6.007812 L 119.234375 9.085938 L 119.632812 9.015625 L 119.632812 6.007812 L 122.695312 6.007812 L 122.742188 5.609375 L 119.632812 5.609375 "/>
<path style=" stroke:none;fill-rule:nonzero;fill:rgb(0%,0%,0%);fill-opacity:1;" d="M 128.289062 1.992188 C 129.203125 1.992188 130.007812 2.289062 130.007812 3.324219 C 130.007812 4.425781 129.078125 5.082031 127.695312 5.082031 C 127.65625 5.082031 127.585938 5.050781 127.585938 4.960938 C 127.585938 4.097656 127.605469 2.976562 127.644531 2.101562 C 127.644531 2.050781 127.664062 1.992188 127.734375 1.992188 Z M 127.65625 8.132812 C 127.644531 7.128906 127.585938 5.875 127.585938 5.628906 C 127.585938 5.4375 128.230469 5.460938 128.519531 5.4375 C 129.164062 5.390625 129.890625 5.242188 130.328125 4.792969 C 130.746094 4.375 130.964844 3.828125 130.964844 3.242188 C 130.964844 2.191406 130.296875 1.605469 128.667969 1.605469 L 126.117188 1.605469 L 126.046875 1.675781 L 126.046875 1.851562 C 126.421875 1.902344 126.753906 1.992188 126.78125 2.390625 C 126.8125 2.976562 126.832031 3.5625 126.832031 4.148438 C 126.832031 5.546875 126.78125 6.949219 126.761719 8.339844 L 126.832031 8.410156 L 127.65625 8.132812 "/>
<path style=" stroke:none;fill-rule:nonzero;fill:rgb(0%,0%,0%);fill-opacity:1;" d="M 136.089844 9.96875 C 134.808594 9.71875 134.738281 7.304688 134.738281 5.628906 C 134.738281 4.128906 134.828125 1.605469 136.089844 1.289062 L 136.089844 1.019531 C 135.054688 1.199219 134.609375 2.328125 134.421875 3.285156 C 134.273438 4.027344 134.222656 4.804688 134.222656 5.570312 C 134.222656 6.375 134.261719 7.179688 134.402344 7.972656 C 134.570312 8.914062 135.046875 10.117188 136.089844 10.207031 L 136.089844 9.96875 "/>
<path style=" stroke:none;fill-rule:nonzero;fill:rgb(0%,0%,0%);fill-opacity:1;" d="M 139.136719 5.132812 L 139.136719 4.992188 C 139.1875 4.894531 139.394531 4.914062 139.753906 4.914062 C 140.746094 4.914062 141.796875 5.101562 141.796875 6.285156 C 141.796875 7.445312 140.894531 7.960938 139.882812 7.960938 C 139.214844 7.960938 139.136719 7.921875 139.136719 7.695312 Z M 139.136719 4.265625 L 139.136719 2.101562 C 139.195312 1.894531 139.632812 1.914062 139.859375 1.914062 C 140.703125 1.914062 141.460938 2.101562 141.460938 2.9375 C 141.460938 4.109375 140.527344 4.566406 139.472656 4.566406 C 139.273438 4.566406 139.15625 4.566406 139.136719 4.464844 Z M 140.785156 4.59375 C 141.589844 4.257812 142.304688 3.820312 142.304688 2.855469 C 142.304688 1.773438 141.152344 1.535156 140.03125 1.535156 L 137.578125 1.535156 L 137.507812 1.605469 L 137.496094 1.773438 C 137.863281 1.875 138.320312 1.941406 138.320312 2.28125 L 138.320312 7.546875 C 138.320312 8.101562 138.289062 7.941406 138.09375 8.242188 L 138.101562 8.339844 C 138.113281 8.339844 139.414062 8.359375 140.070312 8.359375 C 141.273438 8.359375 142.703125 7.882812 142.703125 6.351562 C 142.703125 5.378906 142.226562 4.863281 140.773438 4.675781 L 140.785156 4.59375 "/>
<path style=" stroke:none;fill-rule:nonzero;fill:rgb(0%,0%,0%);fill-opacity:1;" d="M 144.355469 1.304688 C 145.160156 1.59375 145.386719 2.527344 145.535156 3.273438 C 145.6875 4.039062 145.726562 4.832031 145.726562 5.609375 C 145.726562 6.742188 145.746094 7.953125 145.386719 9.015625 C 145.1875 9.609375 144.8125 9.871094 144.355469 9.988281 L 144.355469 10.226562 C 146.132812 10 146.242188 7.347656 146.242188 5.648438 C 146.242188 3.988281 146.03125 1.386719 144.355469 1.039062 L 144.355469 1.304688 "/>
<path style=" stroke:none;fill-rule:nonzero;fill:rgb(0%,0%,0%);fill-opacity:1;" d="M 156.59375 6.007812 L 156.652344 5.609375 L 150.128906 5.609375 L 150.054688 6.007812 L 156.59375 6.007812 "/>
<path style=" stroke:none;fill-rule:nonzero;fill:rgb(0%,0%,0%);fill-opacity:1;" d="M 162.191406 1.992188 C 163.105469 1.992188 163.910156 2.289062 163.910156 3.324219 C 163.910156 4.425781 162.976562 5.082031 161.59375 5.082031 C 161.554688 5.082031 161.484375 5.050781 161.484375 4.960938 C 161.484375 4.097656 161.507812 2.976562 161.546875 2.101562 C 161.546875 2.050781 161.566406 1.992188 161.632812 1.992188 Z M 161.554688 8.132812 C 161.546875 7.128906 161.484375 5.875 161.484375 5.628906 C 161.484375 5.4375 162.132812 5.460938 162.421875 5.4375 C 163.066406 5.390625 163.789062 5.242188 164.226562 4.792969 C 164.644531 4.375 164.863281 3.828125 164.863281 3.242188 C 164.863281 2.191406 164.199219 1.605469 162.570312 1.605469 L 160.015625 1.605469 L 159.945312 1.675781 L 159.945312 1.851562 C 160.324219 1.902344 160.652344 1.992188 160.679688 2.390625 C 160.710938 2.976562 160.730469 3.5625 160.730469 4.148438 C 160.730469 5.546875 160.679688 6.949219 160.660156 8.339844 L 160.730469 8.410156 L 161.554688 8.132812 "/>
<path style=" stroke:none;fill-rule:nonzero;fill:rgb(0%,0%,0%);fill-opacity:1;" d="M 169.992188 9.96875 C 168.710938 9.71875 168.640625 7.304688 168.640625 5.628906 C 168.640625 4.128906 168.726562 1.605469 169.992188 1.289062 L 169.992188 1.019531 C 168.957031 1.199219 168.507812 2.328125 168.320312 3.285156 C 168.171875 4.027344 168.121094 4.804688 168.121094 5.570312 C 168.121094 6.375 168.164062 7.179688 168.300781 7.972656 C 168.46875 8.914062 168.945312 10.117188 169.992188 10.207031 L 169.992188 9.96875 "/>
<path style=" stroke:none;fill-rule:nonzero;fill:rgb(0%,0%,0%);fill-opacity:1;" d="M 176.226562 7.59375 C 176.34375 8.03125 176.472656 8.449219 176.800781 8.449219 C 176.949219 8.449219 177.097656 8.429688 177.246094 8.390625 L 178.28125 8.09375 L 178.269531 7.832031 C 178.132812 7.84375 177.984375 7.863281 177.84375 7.863281 C 177.574219 7.863281 177.339844 7.785156 177.207031 7.566406 C 176.851562 6.96875 176.582031 6.007812 176.363281 5.203125 C 176.035156 4.007812 175.589844 2.421875 175.4375 1.59375 L 173.511719 1.59375 L 173.511719 1.863281 L 174.40625 2.011719 C 174.496094 2.03125 174.527344 2.09375 174.527344 2.121094 C 174.527344 2.152344 174.527344 2.160156 174.515625 2.191406 C 173.472656 4.257812 172.328125 6.285156 171.148438 8.269531 L 171.179688 8.371094 L 172.082031 8.179688 L 173.242188 5.71875 C 173.265625 5.679688 173.304688 5.636719 173.34375 5.636719 L 175.578125 5.636719 C 175.609375 5.636719 175.667969 5.6875 175.6875 5.726562 Z M 174.695312 2.667969 C 174.695312 2.65625 174.726562 2.628906 174.753906 2.628906 C 174.785156 2.628906 174.8125 2.648438 174.824219 2.667969 L 175.519531 5.09375 C 175.519531 5.101562 175.539062 5.179688 175.539062 5.179688 C 175.539062 5.210938 175.519531 5.25 175.46875 5.25 L 173.601562 5.25 C 173.570312 5.25 173.53125 5.210938 173.53125 5.179688 C 173.53125 5.171875 173.53125 5.109375 173.542969 5.09375 L 174.695312 2.667969 "/>
<path style=" stroke:none;fill-rule:nonzero;fill:rgb(0%,0%,0%);fill-opacity:1;" d="M 186.867188 4.574219 C 186.867188 3.066406 185.351562 2.410156 184.109375 2.410156 C 182.816406 2.410156 181.347656 3.105469 181.347656 4.566406 L 181.347656 8.210938 C 181.347656 8.390625 181.347656 8.570312 181.546875 8.570312 C 181.742188 8.570312 181.742188 8.390625 181.742188 8.210938 L 181.742188 4.617188 C 181.742188 3.125 183.363281 2.804688 184.109375 2.804688 C 184.554688 2.804688 185.179688 2.898438 185.707031 3.234375 C 186.472656 3.71875 186.472656 4.355469 186.472656 4.625 L 186.472656 8.210938 C 186.472656 8.390625 186.472656 8.570312 186.671875 8.570312 C 186.867188 8.570312 186.867188 8.390625 186.867188 8.210938 L 186.867188 4.574219 "/>
<path style=" stroke:none;fill-rule:nonzero;fill:rgb(0%,0%,0%);fill-opacity:1;" d="M 191.835938 5.132812 L 191.835938 4.992188 C 191.886719 4.894531 192.09375 4.914062 192.453125 4.914062 C 193.445312 4.914062 194.496094 5.101562 194.496094 6.285156 C 194.496094 7.445312 193.59375 7.960938 192.582031 7.960938 C 191.914062 7.960938 191.835938 7.921875 191.835938 7.695312 Z M 191.835938 4.265625 L 191.835938 2.101562 C 191.894531 1.894531 192.332031 1.914062 192.5625 1.914062 C 193.40625 1.914062 194.160156 2.101562 194.160156 2.9375 C 194.160156 4.109375 193.226562 4.566406 192.171875 4.566406 C 191.976562 4.566406 191.855469 4.566406 191.835938 4.464844 Z M 193.484375 4.59375 C 194.289062 4.257812 195.003906 3.820312 195.003906 2.855469 C 195.003906 1.773438 193.851562 1.535156 192.730469 1.535156 L 190.277344 1.535156 L 190.207031 1.605469 L 190.195312 1.773438 C 190.5625 1.875 191.023438 1.941406 191.023438 2.28125 L 191.023438 7.546875 C 191.023438 8.101562 190.992188 7.941406 190.792969 8.242188 L 190.804688 8.339844 C 190.8125 8.339844 192.113281 8.359375 192.769531 8.359375 C 193.972656 8.359375 195.402344 7.882812 195.402344 6.351562 C 195.402344 5.378906 194.925781 4.863281 193.476562 4.675781 L 193.484375 4.59375 "/>
<path style=" stroke:none;fill-rule:nonzero;fill:rgb(0%,0%,0%);fill-opacity:1;" d="M 197.054688 1.304688 C 197.859375 1.59375 198.089844 2.527344 198.234375 3.273438 C 198.386719 4.039062 198.425781 4.832031 198.425781 5.609375 C 198.425781 6.742188 198.445312 7.953125 198.089844 9.015625 C 197.890625 9.609375 197.511719 9.871094 197.054688 9.988281 L 197.054688 10.226562 C 198.832031 10 198.941406 7.347656 198.941406 5.648438 C 198.941406 3.988281 198.734375 1.386719 197.054688 1.039062 L 197.054688 1.304688 "/>
</g>
</svg>
