<?xml version="1.0" encoding="UTF-8"?>
<svg xmlns="http://www.w3.org/2000/svg" xmlns:xlink="http://www.w3.org/1999/xlink" width="16.64pt" height="9.96pt" viewBox="0 0 16.64 9.96" version="1.1">
<defs>
<clipPath id="clip1">
  <path d="M 0 0 L 2 0 L 2 9.960938 L 0 9.960938 Z M 0 0 "/>
</clipPath>
<clipPath id="clip2">
  <path d="M 10 2 L 16 2 L 16 9.960938 L 10 9.960938 Z M 10 2 "/>
</clipPath>
</defs>
<g id="surface1">
<g clip-path="url(#clip1)" clip-rule="nonzero">
<path style=" stroke:none;fill-rule:nonzero;fill:rgb(0%,0%,0%);fill-opacity:1;" d="M 1.25 9.039062 L 1.25 0.128906 L 0.855469 0.207031 L 0.855469 9.121094 L 1.25 9.039062 "/>
</g>
<path style=" stroke:none;fill-rule:nonzero;fill:rgb(0%,0%,0%);fill-opacity:1;" d="M 7.613281 4.191406 L 7.671875 3.792969 L 1.105469 3.792969 L 1.035156 4.191406 Z M 7.613281 6.148438 L 7.671875 5.75 L 1.105469 5.75 L 1.035156 6.148438 L 7.613281 6.148438 "/>
<g clip-path="url(#clip2)" clip-rule="nonzero">
<path style=" stroke:none;fill-rule:nonzero;fill:rgb(0%,0%,0%);fill-opacity:1;" d="M 12.777344 9.507812 C 12.71875 8.988281 12.6875 8.027344 12.679688 7.570312 L 12.777344 7.488281 C 12.964844 7.539062 13.164062 7.570312 13.363281 7.570312 C 14.902344 7.570312 15.945312 5.960938 15.945312 4.5 C 15.945312 3.753906 15.597656 2.839844 14.585938 2.839844 C 13.898438 2.839844 13.292969 3.148438 12.757812 3.574219 L 12.679688 3.535156 C 12.636719 3.097656 12.476562 2.792969 12.03125 2.792969 C 11.59375 2.792969 11.078125 3.148438 10.679688 3.464844 L 10.820312 3.65625 C 11.058594 3.515625 11.335938 3.367188 11.546875 3.367188 C 11.84375 3.367188 11.933594 3.882812 11.933594 4.332031 L 11.933594 6.527344 C 11.933594 7.09375 11.921875 9.128906 11.875 9.707031 L 11.972656 9.816406 Z M 12.695312 6.804688 C 12.695312 6.792969 12.679688 5.769531 12.679688 4.957031 C 12.679688 4.847656 12.707031 4.09375 12.707031 4.035156 C 13.171875 3.664062 13.582031 3.457031 14.085938 3.457031 C 14.722656 3.457031 15.109375 4.222656 15.109375 5.085938 C 15.109375 6.03125 14.773438 7.171875 13.570312 7.171875 C 13.242188 7.171875 12.9375 7.023438 12.695312 6.804688 "/>
</g>
</g>
</svg>
