<?xml version="1.0" encoding="UTF-8"?>
<svg xmlns="http://www.w3.org/2000/svg" xmlns:xlink="http://www.w3.org/1999/xlink" width="28.17pt" height="9.96pt" viewBox="0 0 28.17 9.96" version="1.1">
<defs>
<clipPath id="clip1">
  <path d="M 0 0 L 2 0 L 2 9.960938 L 0 9.960938 Z M 0 0 "/>
</clipPath>
<clipPath id="clip2">
  <path d="M 1 2 L 8 2 L 8 9.960938 L 1 9.960938 Z M 1 2 "/>
</clipPath>
<clipPath id="clip3">
  <path d="M 8 0 L 10 0 L 10 9.960938 L 8 9.960938 Z M 8 0 "/>
</clipPath>
<clipPath id="clip4">
  <path d="M 14 0 L 20 0 L 20 9.960938 L 14 9.960938 Z M 14 0 "/>
</clipPath>
</defs>
<g id="surface1">
<g clip-path="url(#clip1)" clip-rule="nonzero">
<path style=" stroke:none;fill-rule:nonzero;fill:rgb(0%,0%,0%);fill-opacity:1;" d="M 1.25 9.039062 L 1.25 0.128906 L 0.855469 0.207031 L 0.855469 9.121094 L 1.25 9.039062 "/>
</g>
<g clip-path="url(#clip2)" clip-rule="nonzero">
<path style=" stroke:none;fill-rule:nonzero;fill:rgb(0%,0%,0%);fill-opacity:1;" d="M 4.078125 9.507812 C 4.015625 8.988281 3.988281 8.027344 3.976562 7.570312 L 4.078125 7.488281 C 4.265625 7.539062 4.464844 7.570312 4.664062 7.570312 C 6.203125 7.570312 7.246094 5.960938 7.246094 4.5 C 7.246094 3.753906 6.898438 2.839844 5.882812 2.839844 C 5.199219 2.839844 4.59375 3.148438 4.054688 3.574219 L 3.976562 3.535156 C 3.9375 3.097656 3.777344 2.792969 3.332031 2.792969 C 2.894531 2.792969 2.378906 3.148438 1.980469 3.464844 L 2.121094 3.65625 C 2.359375 3.515625 2.636719 3.367188 2.84375 3.367188 C 3.144531 3.367188 3.234375 3.882812 3.234375 4.332031 L 3.234375 6.527344 C 3.234375 7.09375 3.222656 9.128906 3.171875 9.707031 L 3.273438 9.816406 Z M 3.996094 6.804688 C 3.996094 6.792969 3.976562 5.769531 3.976562 4.957031 C 3.976562 4.847656 4.007812 4.09375 4.007812 4.035156 C 4.472656 3.664062 4.882812 3.457031 5.386719 3.457031 C 6.023438 3.457031 6.410156 4.222656 6.410156 5.085938 C 6.410156 6.03125 6.074219 7.171875 4.871094 7.171875 C 4.542969 7.171875 4.234375 7.023438 3.996094 6.804688 "/>
</g>
<g clip-path="url(#clip3)" clip-rule="nonzero">
<path style=" stroke:none;fill-rule:nonzero;fill:rgb(0%,0%,0%);fill-opacity:1;" d="M 9.25 9.039062 L 9.25 0.128906 L 8.855469 0.207031 L 8.855469 9.121094 L 9.25 9.039062 "/>
</g>
<g clip-path="url(#clip4)" clip-rule="nonzero">
<path style=" stroke:none;fill-rule:nonzero;fill:rgb(0%,0%,0%);fill-opacity:1;" d="M 19.15625 0.734375 C 19.238281 0.597656 19.238281 0.574219 19.238281 0.546875 C 19.238281 0.476562 19.179688 0.347656 19.039062 0.347656 C 18.921875 0.347656 18.890625 0.40625 18.820312 0.546875 L 14.359375 9.21875 C 14.28125 9.355469 14.28125 9.378906 14.28125 9.40625 C 14.28125 9.488281 14.351562 9.605469 14.480469 9.605469 C 14.597656 9.605469 14.628906 9.546875 14.699219 9.40625 L 19.15625 0.734375 "/>
</g>
<path style=" stroke:none;fill-rule:nonzero;fill:rgb(0%,0%,0%);fill-opacity:1;" d="M 20.011719 4.191406 L 20.070312 3.792969 L 13.507812 3.792969 L 13.4375 4.191406 Z M 20.011719 6.148438 L 20.070312 5.75 L 13.507812 5.75 L 13.4375 6.148438 L 20.011719 6.148438 "/>
<path style=" stroke:none;fill-rule:nonzero;fill:rgb(0%,0%,0%);fill-opacity:1;" d="M 26.082031 0.464844 C 25.644531 0.644531 25.15625 0.882812 24.828125 1.210938 C 23.984375 2.054688 23.539062 3.257812 23.539062 4.449219 C 23.539062 5.59375 23.816406 7.597656 25.257812 7.597656 C 27.085938 7.597656 27.769531 5.503906 27.769531 3.925781 C 27.769531 2.601562 27.28125 1.230469 26.082031 0.464844 Z M 25.523438 1.101562 C 25.972656 1.292969 26.40625 1.988281 26.476562 2.105469 C 26.914062 2.890625 27.152344 3.734375 27.152344 4.628906 C 27.152344 5.59375 26.914062 6.941406 25.703125 6.941406 C 25.066406 6.941406 24.609375 6.160156 24.414062 5.484375 C 24.253906 4.9375 24.203125 4.351562 24.203125 3.773438 C 24.203125 2.769531 24.648438 1.648438 25.523438 1.101562 "/>
</g>
</svg>
