<?xml version="1.0" encoding="UTF-8"?>
<svg xmlns="http://www.w3.org/2000/svg" xmlns:xlink="http://www.w3.org/1999/xlink" width="25.38pt" height="9.96pt" viewBox="0 0 25.38 9.96" version="1.1">
<defs>
<clipPath id="clip1">
  <path d="M 9 0 L 10 0 L 10 9.960938 L 9 9.960938 Z M 9 0 "/>
</clipPath>
<clipPath id="clip2">
  <path d="M 19 2 L 25 2 L 25 9.960938 L 19 9.960938 Z M 19 2 "/>
</clipPath>
</defs>
<g id="surface1">
<path style=" stroke:none;fill-rule:nonzero;fill:rgb(0%,0%,0%);fill-opacity:1;" d="M 5.574219 3.050781 L 5.542969 2.96875 L 4.976562 2.8125 L 4.75 2.910156 C 4.421875 4.191406 4.0625 5.285156 3.507812 6.457031 L 3.457031 6.457031 C 3.199219 5.273438 2.832031 3.644531 2.285156 3.097656 C 2.078125 2.890625 1.75 2.78125 1.449219 2.78125 C 0.921875 2.78125 0.496094 3 0.148438 3.386719 L 0.347656 3.644531 C 0.496094 3.546875 0.703125 3.464844 1.011719 3.464844 C 1.738281 3.464844 2.164062 4.441406 2.394531 5.097656 C 2.664062 5.859375 2.820312 6.664062 2.941406 7.46875 L 3.007812 7.539062 L 3.566406 7.222656 C 3.765625 6.726562 3.984375 6.246094 4.222656 5.769531 L 5.574219 3.050781 "/>
<g clip-path="url(#clip1)" clip-rule="nonzero">
<path style=" stroke:none;fill-rule:nonzero;fill:rgb(0%,0%,0%);fill-opacity:1;" d="M 9.953125 9.039062 L 9.953125 0.128906 L 9.554688 0.207031 L 9.554688 9.121094 L 9.953125 9.039062 "/>
</g>
<path style=" stroke:none;fill-rule:nonzero;fill:rgb(0%,0%,0%);fill-opacity:1;" d="M 16.3125 4.191406 L 16.371094 3.792969 L 9.804688 3.792969 L 9.734375 4.191406 Z M 16.3125 6.148438 L 16.371094 5.75 L 9.804688 5.75 L 9.734375 6.148438 L 16.3125 6.148438 "/>
<g clip-path="url(#clip2)" clip-rule="nonzero">
<path style=" stroke:none;fill-rule:nonzero;fill:rgb(0%,0%,0%);fill-opacity:1;" d="M 21.476562 9.507812 C 21.417969 8.988281 21.386719 8.027344 21.378906 7.570312 L 21.476562 7.488281 C 21.664062 7.539062 21.863281 7.570312 22.0625 7.570312 C 23.601562 7.570312 24.644531 5.960938 24.644531 4.5 C 24.644531 3.753906 24.296875 2.839844 23.285156 2.839844 C 22.601562 2.839844 21.992188 3.148438 21.457031 3.574219 L 21.378906 3.535156 C 21.335938 3.097656 21.179688 2.792969 20.730469 2.792969 C 20.296875 2.792969 19.777344 3.148438 19.382812 3.464844 L 19.519531 3.65625 C 19.757812 3.515625 20.035156 3.367188 20.246094 3.367188 C 20.542969 3.367188 20.632812 3.882812 20.632812 4.332031 L 20.632812 6.527344 C 20.632812 7.09375 20.621094 9.128906 20.574219 9.707031 L 20.671875 9.816406 Z M 21.398438 6.804688 C 21.398438 6.792969 21.378906 5.769531 21.378906 4.957031 C 21.378906 4.847656 21.40625 4.09375 21.40625 4.035156 C 21.875 3.664062 22.28125 3.457031 22.789062 3.457031 C 23.421875 3.457031 23.8125 4.222656 23.8125 5.085938 C 23.8125 6.03125 23.472656 7.171875 22.273438 7.171875 C 21.945312 7.171875 21.636719 7.023438 21.398438 6.804688 "/>
</g>
</g>
</svg>
