<?xml version="1.0" encoding="UTF-8"?>
<svg xmlns="http://www.w3.org/2000/svg" xmlns:xlink="http://www.w3.org/1999/xlink" width="434.8pt" height="76.46pt" viewBox="0 0 434.8 76.46" version="1.1">
<defs>
<clipPath id="clip1">
  <path d="M 267 26 L 434.800781 26 L 434.800781 27 L 267 27 Z M 267 26 "/>
</clipPath>
<clipPath id="clip2">
  <path d="M 106 39 L 434.800781 39 L 434.800781 41 L 106 41 Z M 106 39 "/>
</clipPath>
<clipPath id="clip3">
  <path d="M 70 52 L 434.800781 52 L 434.800781 53 L 70 53 Z M 70 52 "/>
</clipPath>
<clipPath id="clip4">
  <path d="M 34 65 L 434.800781 65 L 434.800781 66 L 34 66 Z M 34 65 "/>
</clipPath>
<clipPath id="clip5">
  <path d="M 209 69 L 214 69 L 214 76.460938 L 209 76.460938 Z M 209 69 "/>
</clipPath>
<clipPath id="clip6">
  <path d="M 230 69 L 236 69 L 236 76.460938 L 230 76.460938 Z M 230 69 "/>
</clipPath>
<clipPath id="clip7">
  <path d="M 249 69 L 254 69 L 254 76.460938 L 249 76.460938 Z M 249 69 "/>
</clipPath>
<clipPath id="clip8">
  <path d="M 269 69 L 276 69 L 276 76.460938 L 269 76.460938 Z M 269 69 "/>
</clipPath>
</defs>
<g id="surface1">
<path style=" stroke:none;fill-rule:nonzero;fill:rgb(0%,0%,0%);fill-opacity:1;" d="M 2.992188 69.378906 C 1.710938 69.128906 1.640625 66.714844 1.640625 65.039062 C 1.640625 63.539062 1.726562 61.015625 2.992188 60.699219 L 2.992188 60.429688 C 1.957031 60.609375 1.507812 61.738281 1.320312 62.695312 C 1.171875 63.4375 1.121094 64.214844 1.121094 64.980469 C 1.121094 65.785156 1.164062 66.589844 1.300781 67.382812 C 1.46875 68.324219 1.945312 69.527344 2.992188 69.617188 L 2.992188 69.378906 "/>
<path style=" stroke:none;fill-rule:nonzero;fill:rgb(0%,0%,0%);fill-opacity:1;" d="M 12.582031 65.476562 C 12.214844 65.933594 11.6875 66.714844 11.4375 67.761719 L 11.835938 67.761719 C 12.144531 66.457031 12.980469 65.554688 13.277344 65.277344 C 12.960938 64.980469 12.144531 64.085938 11.835938 62.792969 L 11.4375 62.792969 C 11.6875 63.824219 12.203125 64.613281 12.582031 65.078125 L 4.804688 65.078125 C 4.625 65.078125 4.457031 65.078125 4.457031 65.277344 C 4.457031 65.476562 4.632812 65.476562 4.804688 65.476562 L 12.582031 65.476562 "/>
<path style=" stroke:none;fill-rule:nonzero;fill:rgb(0%,0%,0%);fill-opacity:1;" d="M 17.238281 67.769531 L 17.257812 67.53125 C 17.246094 67.53125 16.820312 67.421875 16.609375 67.363281 C 16.195312 67.253906 16.304688 66.507812 16.292969 66.082031 C 16.28125 65.476562 16.273438 64.859375 16.273438 64.195312 C 16.273438 63.417969 16.214844 62.238281 16.304688 61.652344 C 16.3125 61.53125 16.390625 61.421875 16.523438 61.394531 L 17.1875 61.242188 L 17.1875 61.035156 L 17.128906 60.976562 L 14.644531 60.976562 L 14.574219 61.035156 L 14.574219 61.253906 C 15.367188 61.433594 15.4375 61.382812 15.460938 61.679688 C 15.488281 62.058594 15.488281 62.433594 15.488281 62.824219 L 15.488281 66.429688 C 15.449219 67.253906 15.578125 67.324219 14.605469 67.511719 L 14.605469 67.769531 L 17.238281 67.769531 "/>
<path style=" stroke:none;fill-rule:nonzero;fill:rgb(0%,0%,0%);fill-opacity:1;" d="M 18.65625 60.714844 C 19.460938 61.003906 19.6875 61.9375 19.835938 62.683594 C 19.984375 63.449219 20.023438 64.242188 20.023438 65.019531 C 20.023438 66.152344 20.046875 67.363281 19.6875 68.425781 C 19.488281 69.019531 19.109375 69.28125 18.65625 69.398438 L 18.65625 69.636719 C 20.433594 69.410156 20.542969 66.757812 20.542969 65.058594 C 20.542969 63.398438 20.332031 60.796875 18.65625 60.449219 L 18.65625 60.714844 "/>
<path style=" stroke:none;fill-rule:nonzero;fill:rgb(0%,0%,0%);fill-opacity:1;" d="M 39.089844 56.777344 C 37.808594 56.53125 37.738281 54.117188 37.738281 52.4375 C 37.738281 50.9375 37.828125 48.414062 39.089844 48.097656 L 39.089844 47.828125 C 38.054688 48.007812 37.609375 49.140625 37.421875 50.09375 C 37.273438 50.839844 37.222656 51.613281 37.222656 52.378906 C 37.222656 53.183594 37.261719 53.988281 37.402344 54.78125 C 37.570312 55.726562 38.046875 56.929688 39.089844 57.019531 L 39.089844 56.777344 "/>
<path style=" stroke:none;fill-rule:nonzero;fill:rgb(0%,0%,0%);fill-opacity:1;" d="M 48.683594 52.875 C 48.3125 53.332031 47.789062 54.117188 47.539062 55.160156 L 47.9375 55.160156 C 48.246094 53.859375 49.078125 52.957031 49.378906 52.675781 C 49.058594 52.378906 48.246094 51.484375 47.9375 50.191406 L 47.539062 50.191406 C 47.789062 51.226562 48.304688 52.011719 48.683594 52.476562 L 40.90625 52.476562 C 40.726562 52.476562 40.554688 52.476562 40.554688 52.675781 C 40.554688 52.875 40.734375 52.875 40.90625 52.875 L 48.683594 52.875 "/>
<path style=" stroke:none;fill-rule:nonzero;fill:rgb(0%,0%,0%);fill-opacity:1;" d="M 53.335938 55.167969 L 53.355469 54.933594 C 53.347656 54.933594 52.921875 54.824219 52.710938 54.761719 C 52.292969 54.652344 52.402344 53.910156 52.394531 53.480469 C 52.382812 52.875 52.375 52.261719 52.375 51.59375 C 52.375 50.820312 52.3125 49.636719 52.402344 49.050781 C 52.414062 48.933594 52.492188 48.824219 52.621094 48.792969 L 53.289062 48.644531 L 53.289062 48.433594 L 53.226562 48.375 L 50.742188 48.375 L 50.675781 48.433594 L 50.675781 48.652344 C 51.46875 48.832031 51.539062 48.78125 51.558594 49.082031 C 51.589844 49.457031 51.589844 49.835938 51.589844 50.222656 L 51.589844 53.828125 C 51.546875 54.652344 51.679688 54.722656 50.703125 54.910156 L 50.703125 55.167969 L 53.335938 55.167969 "/>
<path style=" stroke:none;fill-rule:nonzero;fill:rgb(0%,0%,0%);fill-opacity:1;" d="M 54.753906 48.117188 C 55.558594 48.40625 55.789062 49.339844 55.9375 50.082031 C 56.085938 50.847656 56.125 51.644531 56.125 52.417969 C 56.125 53.550781 56.144531 54.761719 55.789062 55.824219 C 55.589844 56.421875 55.210938 56.679688 54.753906 56.800781 L 54.753906 57.039062 C 56.53125 56.808594 56.640625 54.15625 56.640625 52.457031 C 56.640625 50.800781 56.433594 48.195312 54.753906 47.847656 L 54.753906 48.117188 "/>
<path style=" stroke:none;fill-rule:nonzero;fill:rgb(0%,0%,0%);fill-opacity:1;" d="M 75.191406 44.179688 C 73.910156 43.929688 73.839844 41.515625 73.839844 39.839844 C 73.839844 38.339844 73.929688 35.816406 75.191406 35.496094 L 75.191406 35.230469 C 74.15625 35.410156 73.710938 36.539062 73.523438 37.496094 C 73.371094 38.238281 73.320312 39.011719 73.320312 39.777344 C 73.320312 40.582031 73.363281 41.386719 73.5 42.183594 C 73.671875 43.125 74.148438 44.328125 75.191406 44.417969 L 75.191406 44.179688 "/>
<path style=" stroke:none;fill-rule:nonzero;fill:rgb(0%,0%,0%);fill-opacity:1;" d="M 83.609375 35.765625 L 83.570312 35.726562 L 83.183594 35.726562 L 79.824219 41.972656 L 76.578125 35.765625 L 76.160156 35.835938 L 79.746094 42.679688 L 79.894531 42.679688 L 83.609375 35.765625 "/>
<path style=" stroke:none;fill-rule:nonzero;fill:rgb(0%,0%,0%);fill-opacity:1;" d="M 88.328125 39.222656 L 88.390625 38.746094 L 88.328125 38.675781 C 87.804688 38.714844 87.070312 38.746094 86.542969 38.746094 C 86.171875 38.746094 85.886719 38.777344 85.886719 38.605469 L 85.886719 36.957031 C 85.886719 36.609375 85.925781 36.242188 86.125 36.203125 L 86.523438 36.203125 C 86.589844 36.203125 87.914062 36.261719 88.597656 36.300781 L 88.636719 36.230469 L 88.65625 35.734375 C 88.527344 35.726562 88.378906 35.726562 88.199219 35.726562 C 87.496094 35.734375 86.492188 35.785156 85.796875 35.785156 L 84.328125 35.792969 L 84.257812 35.863281 L 84.265625 36.0625 C 84.734375 36.132812 84.960938 36.253906 85.023438 36.382812 C 85.109375 36.582031 85.109375 36.878906 85.109375 37.015625 L 85.109375 41.902344 C 85.109375 42.171875 85.171875 42.449219 85.367188 42.558594 L 89.222656 42.558594 L 89.351562 42.035156 L 89.304688 41.984375 C 87.671875 42.121094 87.445312 42.121094 86.976562 42.121094 C 86.375 42.121094 86.164062 42.0625 86.023438 41.804688 C 85.886719 41.558594 85.875 41.070312 85.875 40.691406 L 85.875 39.3125 C 85.875 39.132812 86.582031 39.164062 87.15625 39.164062 C 87.546875 39.164062 87.941406 39.191406 88.328125 39.222656 "/>
<path style=" stroke:none;fill-rule:nonzero;fill:rgb(0%,0%,0%);fill-opacity:1;" d="M 90.65625 35.515625 C 91.460938 35.804688 91.6875 36.738281 91.835938 37.484375 C 91.984375 38.25 92.023438 39.042969 92.023438 39.816406 C 92.023438 40.949219 92.046875 42.164062 91.6875 43.226562 C 91.488281 43.820312 91.109375 44.082031 90.65625 44.199219 L 90.65625 44.4375 C 92.433594 44.207031 92.542969 41.558594 92.542969 39.859375 C 92.542969 38.199219 92.332031 35.597656 90.65625 35.25 L 90.65625 35.515625 "/>
<path style=" stroke:none;fill-rule:nonzero;fill:rgb(0%,0%,0%);fill-opacity:1;" d="M 113.476562 37.105469 C 113.417969 36.589844 113.386719 35.625 113.378906 35.167969 L 113.476562 35.089844 C 113.664062 35.140625 113.863281 35.167969 114.0625 35.167969 C 115.601562 35.167969 116.644531 33.558594 116.644531 32.097656 C 116.644531 31.355469 116.296875 30.441406 115.285156 30.441406 C 114.601562 30.441406 113.992188 30.75 113.457031 31.175781 L 113.378906 31.136719 C 113.339844 30.699219 113.179688 30.390625 112.730469 30.390625 C 112.296875 30.390625 111.777344 30.75 111.382812 31.066406 L 111.519531 31.253906 C 111.757812 31.117188 112.035156 30.96875 112.246094 30.96875 C 112.542969 30.96875 112.632812 31.484375 112.632812 31.929688 L 112.632812 34.125 C 112.632812 34.691406 112.621094 36.730469 112.574219 37.304688 L 112.671875 37.414062 Z M 113.398438 34.402344 C 113.398438 34.394531 113.378906 33.371094 113.378906 32.558594 C 113.378906 32.449219 113.40625 31.691406 113.40625 31.632812 C 113.871094 31.265625 114.28125 31.058594 114.789062 31.058594 C 115.421875 31.058594 115.8125 31.820312 115.8125 32.6875 C 115.8125 33.628906 115.472656 34.773438 114.273438 34.773438 C 113.945312 34.773438 113.636719 34.621094 113.398438 34.402344 "/>
<path style=" stroke:none;fill-rule:nonzero;fill:rgb(0%,0%,0%);fill-opacity:1;" d="M 127.109375 28.265625 L 127.070312 28.226562 L 126.683594 28.226562 L 123.324219 34.472656 L 120.078125 28.265625 L 119.660156 28.335938 L 123.246094 35.179688 L 123.394531 35.179688 L 127.109375 28.265625 "/>
<path style=" stroke:none;fill-rule:nonzero;fill:rgb(0%,0%,0%);fill-opacity:1;" d="M 133.664062 37.472656 L 134.46875 37.1875 C 134.386719 36.300781 134.347656 35.148438 134.347656 33.9375 C 134.347656 32.625 134.386719 31.246094 134.488281 30.09375 L 134.277344 30.054688 L 133.839844 30.640625 L 133.753906 30.660156 C 133.472656 30.519531 133.078125 30.382812 132.769531 30.382812 C 131.089844 30.382812 130.382812 31.832031 130.382812 33.210938 C 130.382812 34.046875 130.761719 35.128906 131.804688 35.128906 C 132.429688 35.128906 133.007812 34.851562 133.511719 34.472656 L 133.582031 34.523438 C 133.554688 35.476562 133.53125 36.910156 133.503906 37.316406 Z M 133.582031 34.015625 C 133.253906 34.304688 132.816406 34.511719 132.429688 34.511719 C 131.617188 34.511719 131.296875 33.769531 131.296875 32.945312 C 131.296875 31.832031 131.636719 30.75 132.757812 30.75 C 133.015625 30.75 133.246094 30.886719 133.421875 31.066406 C 133.582031 31.226562 133.582031 31.523438 133.582031 31.773438 L 133.582031 34.015625 "/>
<path style=" stroke:none;fill-rule:nonzero;fill:rgb(0%,0%,0%);fill-opacity:1;" d="M 143.464844 31.8125 C 143.632812 31.8125 143.8125 31.8125 143.8125 31.613281 C 143.8125 31.414062 143.632812 31.414062 143.464844 31.414062 L 139.242188 31.414062 L 139.242188 28.523438 C 139.242188 28.34375 139.242188 28.167969 139.046875 28.167969 C 138.847656 28.167969 138.847656 28.375 138.847656 28.523438 L 138.847656 34.703125 C 138.847656 34.851562 138.847656 35.058594 139.046875 35.058594 C 139.242188 35.058594 139.242188 34.882812 139.242188 34.703125 L 139.242188 31.8125 L 143.464844 31.8125 "/>
<path style=" stroke:none;fill-rule:nonzero;fill:rgb(0%,0%,0%);fill-opacity:1;" d="M 149.175781 37.105469 C 149.117188 36.589844 149.089844 35.625 149.078125 35.167969 L 149.175781 35.089844 C 149.367188 35.140625 149.5625 35.167969 149.761719 35.167969 C 151.304688 35.167969 152.34375 33.558594 152.34375 32.097656 C 152.34375 31.355469 151.996094 30.441406 150.984375 30.441406 C 150.300781 30.441406 149.695312 30.75 149.15625 31.175781 L 149.078125 31.136719 C 149.039062 30.699219 148.878906 30.390625 148.429688 30.390625 C 147.996094 30.390625 147.476562 30.75 147.082031 31.066406 L 147.21875 31.253906 C 147.457031 31.117188 147.734375 30.96875 147.945312 30.96875 C 148.242188 30.96875 148.332031 31.484375 148.332031 31.929688 L 148.332031 34.125 C 148.332031 34.691406 148.320312 36.730469 148.273438 37.304688 L 148.371094 37.414062 Z M 149.097656 34.402344 C 149.097656 34.394531 149.078125 33.371094 149.078125 32.558594 C 149.078125 32.449219 149.109375 31.691406 149.109375 31.632812 C 149.574219 31.265625 149.980469 31.058594 150.488281 31.058594 C 151.121094 31.058594 151.511719 31.820312 151.511719 32.6875 C 151.511719 33.628906 151.171875 34.773438 149.972656 34.773438 C 149.644531 34.773438 149.335938 34.621094 149.097656 34.402344 "/>
<path style=" stroke:none;fill-rule:nonzero;fill:rgb(0%,0%,0%);fill-opacity:1;" d="M 162.808594 28.265625 L 162.769531 28.226562 L 162.382812 28.226562 L 159.023438 34.472656 L 155.777344 28.265625 L 155.359375 28.335938 L 158.945312 35.179688 L 159.09375 35.179688 L 162.808594 28.265625 "/>
<path style=" stroke:none;fill-rule:nonzero;fill:rgb(0%,0%,0%);fill-opacity:1;" d="M 169.363281 37.472656 L 170.167969 37.1875 C 170.089844 36.300781 170.046875 35.148438 170.046875 33.9375 C 170.046875 32.625 170.089844 31.246094 170.1875 30.09375 L 169.976562 30.054688 L 169.539062 30.640625 L 169.453125 30.660156 C 169.171875 30.519531 168.777344 30.382812 168.46875 30.382812 C 166.789062 30.382812 166.085938 31.832031 166.085938 33.210938 C 166.085938 34.046875 166.460938 35.128906 167.503906 35.128906 C 168.128906 35.128906 168.707031 34.851562 169.214844 34.472656 L 169.28125 34.523438 C 169.253906 35.476562 169.234375 36.910156 169.203125 37.316406 Z M 169.28125 34.015625 C 168.953125 34.304688 168.515625 34.511719 168.128906 34.511719 C 167.316406 34.511719 166.996094 33.769531 166.996094 32.945312 C 166.996094 31.832031 167.335938 30.75 168.457031 30.75 C 168.71875 30.75 168.945312 30.886719 169.121094 31.066406 C 169.28125 31.226562 169.28125 31.523438 169.28125 31.773438 L 169.28125 34.015625 "/>
<path style=" stroke:none;fill-rule:nonzero;fill:rgb(0%,0%,0%);fill-opacity:1;" d="M 193.175781 37.105469 C 193.117188 36.589844 193.089844 35.625 193.078125 35.167969 L 193.175781 35.089844 C 193.367188 35.140625 193.5625 35.167969 193.761719 35.167969 C 195.304688 35.167969 196.34375 33.558594 196.34375 32.097656 C 196.34375 31.355469 195.996094 30.441406 194.984375 30.441406 C 194.300781 30.441406 193.695312 30.75 193.15625 31.175781 L 193.078125 31.136719 C 193.039062 30.699219 192.878906 30.390625 192.429688 30.390625 C 191.996094 30.390625 191.476562 30.75 191.082031 31.066406 L 191.21875 31.253906 C 191.457031 31.117188 191.734375 30.96875 191.945312 30.96875 C 192.242188 30.96875 192.332031 31.484375 192.332031 31.929688 L 192.332031 34.125 C 192.332031 34.691406 192.320312 36.730469 192.273438 37.304688 L 192.371094 37.414062 Z M 193.097656 34.402344 C 193.097656 34.394531 193.078125 33.371094 193.078125 32.558594 C 193.078125 32.449219 193.109375 31.691406 193.109375 31.632812 C 193.574219 31.265625 193.980469 31.058594 194.488281 31.058594 C 195.121094 31.058594 195.511719 31.820312 195.511719 32.6875 C 195.511719 33.628906 195.171875 34.773438 193.972656 34.773438 C 193.644531 34.773438 193.335938 34.621094 193.097656 34.402344 "/>
<path style=" stroke:none;fill-rule:nonzero;fill:rgb(0%,0%,0%);fill-opacity:1;" d="M 204.964844 31.8125 C 205.132812 31.8125 205.3125 31.8125 205.3125 31.613281 C 205.3125 31.414062 205.132812 31.414062 204.964844 31.414062 L 200.742188 31.414062 L 200.742188 28.523438 C 200.742188 28.34375 200.742188 28.167969 200.546875 28.167969 C 200.347656 28.167969 200.347656 28.375 200.347656 28.523438 L 200.347656 34.703125 C 200.347656 34.851562 200.347656 35.058594 200.546875 35.058594 C 200.742188 35.058594 200.742188 34.882812 200.742188 34.703125 L 200.742188 31.8125 L 204.964844 31.8125 "/>
<path style=" stroke:none;fill-rule:nonzero;fill:rgb(0%,0%,0%);fill-opacity:1;" d="M 210.675781 37.105469 C 210.617188 36.589844 210.589844 35.625 210.578125 35.167969 L 210.675781 35.089844 C 210.867188 35.140625 211.0625 35.167969 211.261719 35.167969 C 212.804688 35.167969 213.84375 33.558594 213.84375 32.097656 C 213.84375 31.355469 213.496094 30.441406 212.484375 30.441406 C 211.800781 30.441406 211.195312 30.75 210.65625 31.175781 L 210.578125 31.136719 C 210.539062 30.699219 210.378906 30.390625 209.929688 30.390625 C 209.496094 30.390625 208.976562 30.75 208.582031 31.066406 L 208.71875 31.253906 C 208.957031 31.117188 209.234375 30.96875 209.445312 30.96875 C 209.742188 30.96875 209.832031 31.484375 209.832031 31.929688 L 209.832031 34.125 C 209.832031 34.691406 209.820312 36.730469 209.773438 37.304688 L 209.871094 37.414062 Z M 210.597656 34.402344 C 210.597656 34.394531 210.578125 33.371094 210.578125 32.558594 C 210.578125 32.449219 210.609375 31.691406 210.609375 31.632812 C 211.074219 31.265625 211.480469 31.058594 211.988281 31.058594 C 212.621094 31.058594 213.011719 31.820312 213.011719 32.6875 C 213.011719 33.628906 212.671875 34.773438 211.472656 34.773438 C 211.144531 34.773438 210.835938 34.621094 210.597656 34.402344 "/>
<path style=" stroke:none;fill-rule:nonzero;fill:rgb(0%,0%,0%);fill-opacity:1;" d="M 234.191406 30.777344 C 232.910156 30.53125 232.839844 28.117188 232.839844 26.4375 C 232.839844 24.9375 232.929688 22.414062 234.191406 22.097656 L 234.191406 21.828125 C 233.15625 22.007812 232.710938 23.140625 232.523438 24.09375 C 232.371094 24.839844 232.320312 25.613281 232.320312 26.378906 C 232.320312 27.183594 232.363281 27.988281 232.503906 28.78125 C 232.671875 29.726562 233.148438 30.929688 234.191406 31.019531 L 234.191406 30.777344 "/>
<path style=" stroke:none;fill-rule:nonzero;fill:rgb(0%,0%,0%);fill-opacity:1;" d="M 243.683594 26.875 C 243.3125 27.332031 242.789062 28.117188 242.539062 29.160156 L 242.9375 29.160156 C 243.246094 27.859375 244.078125 26.957031 244.378906 26.675781 C 244.058594 26.378906 243.246094 25.484375 242.9375 24.191406 L 242.539062 24.191406 C 242.789062 25.226562 243.304688 26.011719 243.683594 26.476562 L 235.90625 26.476562 C 235.726562 26.476562 235.554688 26.476562 235.554688 26.675781 C 235.554688 26.875 235.734375 26.875 235.90625 26.875 L 243.683594 26.875 "/>
<path style=" stroke:none;fill-rule:nonzero;fill:rgb(0%,0%,0%);fill-opacity:1;" d="M 249.53125 25.824219 L 249.589844 25.347656 L 249.53125 25.277344 C 249.003906 25.316406 248.269531 25.347656 247.742188 25.347656 C 247.371094 25.347656 247.085938 25.375 247.085938 25.207031 L 247.085938 23.558594 C 247.085938 23.210938 247.128906 22.84375 247.324219 22.800781 L 247.722656 22.800781 C 247.789062 22.800781 249.113281 22.863281 249.796875 22.902344 L 249.839844 22.832031 L 249.859375 22.335938 C 249.726562 22.324219 249.578125 22.324219 249.398438 22.324219 C 248.695312 22.335938 247.691406 22.386719 246.996094 22.386719 L 245.527344 22.394531 L 245.457031 22.464844 L 245.46875 22.664062 C 245.933594 22.734375 246.164062 22.851562 246.222656 22.980469 C 246.3125 23.179688 246.3125 23.476562 246.3125 23.617188 L 246.3125 28.503906 C 246.3125 28.773438 246.371094 29.050781 246.570312 29.160156 L 250.421875 29.160156 L 250.554688 28.632812 L 250.503906 28.582031 C 248.871094 28.722656 248.644531 28.722656 248.179688 28.722656 C 247.574219 28.722656 247.363281 28.664062 247.226562 28.40625 C 247.085938 28.15625 247.078125 27.667969 247.078125 27.292969 L 247.078125 25.910156 C 247.078125 25.734375 247.78125 25.761719 248.359375 25.761719 C 248.746094 25.761719 249.140625 25.792969 249.53125 25.824219 "/>
<path style=" stroke:none;fill-rule:nonzero;fill:rgb(0%,0%,0%);fill-opacity:1;" d="M 251.855469 22.117188 C 252.660156 22.40625 252.886719 23.339844 253.035156 24.082031 C 253.1875 24.847656 253.226562 25.644531 253.226562 26.417969 C 253.226562 27.550781 253.246094 28.761719 252.886719 29.824219 C 252.6875 30.421875 252.3125 30.679688 251.855469 30.800781 L 251.855469 31.039062 C 253.632812 30.808594 253.742188 28.15625 253.742188 26.457031 C 253.742188 24.800781 253.53125 22.195312 251.855469 21.847656 L 251.855469 22.117188 "/>
<path style=" stroke:none;fill-rule:nonzero;fill:rgb(0%,0%,0%);fill-opacity:1;" d="M 272.390625 17.480469 C 271.109375 17.230469 271.039062 14.816406 271.039062 13.136719 C 271.039062 11.636719 271.128906 9.113281 272.390625 8.796875 L 272.390625 8.527344 C 271.355469 8.707031 270.910156 9.839844 270.722656 10.792969 C 270.570312 11.539062 270.523438 12.3125 270.523438 13.078125 C 270.523438 13.882812 270.5625 14.6875 270.703125 15.480469 C 270.871094 16.425781 271.347656 17.628906 272.390625 17.71875 L 272.390625 17.480469 "/>
<path style=" stroke:none;fill-rule:nonzero;fill:rgb(0%,0%,0%);fill-opacity:1;" d="M 281.882812 13.574219 C 281.515625 14.03125 280.988281 14.816406 280.738281 15.859375 L 281.136719 15.859375 C 281.445312 14.558594 282.28125 13.65625 282.578125 13.378906 C 282.257812 13.078125 281.445312 12.183594 281.136719 10.894531 L 280.738281 10.894531 C 280.988281 11.925781 281.503906 12.710938 281.882812 13.175781 L 274.105469 13.175781 C 273.925781 13.175781 273.757812 13.175781 273.757812 13.378906 C 273.757812 13.574219 273.933594 13.574219 274.105469 13.574219 L 281.882812 13.574219 "/>
<path style=" stroke:none;fill-rule:nonzero;fill:rgb(0%,0%,0%);fill-opacity:1;" d="M 287.730469 12.523438 L 287.789062 12.046875 L 287.730469 11.976562 C 287.203125 12.015625 286.46875 12.046875 285.941406 12.046875 C 285.574219 12.046875 285.285156 12.074219 285.285156 11.90625 L 285.285156 10.257812 C 285.285156 9.910156 285.328125 9.542969 285.523438 9.503906 L 285.921875 9.503906 C 285.992188 9.503906 287.3125 9.5625 287.996094 9.601562 L 288.039062 9.53125 L 288.058594 9.035156 C 287.929688 9.027344 287.78125 9.027344 287.601562 9.027344 C 286.894531 9.035156 285.890625 9.085938 285.195312 9.085938 L 283.726562 9.09375 L 283.65625 9.164062 L 283.667969 9.363281 C 284.132812 9.433594 284.363281 9.550781 284.421875 9.683594 C 284.511719 9.878906 284.511719 10.175781 284.511719 10.316406 L 284.511719 15.203125 C 284.511719 15.472656 284.570312 15.75 284.769531 15.859375 L 288.621094 15.859375 L 288.753906 15.332031 L 288.703125 15.285156 C 287.074219 15.421875 286.84375 15.421875 286.378906 15.421875 C 285.773438 15.421875 285.5625 15.363281 285.425781 15.105469 C 285.285156 14.855469 285.277344 14.371094 285.277344 13.992188 L 285.277344 12.613281 C 285.277344 12.433594 285.980469 12.464844 286.558594 12.464844 C 286.945312 12.464844 287.34375 12.492188 287.730469 12.523438 "/>
<path style=" stroke:none;fill-rule:nonzero;fill:rgb(0%,0%,0%);fill-opacity:1;" d="M 290.054688 8.816406 C 290.859375 9.105469 291.089844 10.039062 291.234375 10.785156 C 291.386719 11.550781 291.425781 12.34375 291.425781 13.117188 C 291.425781 14.25 291.445312 15.464844 291.089844 16.527344 C 290.890625 17.121094 290.511719 17.378906 290.054688 17.5 L 290.054688 17.738281 C 291.832031 17.507812 291.941406 14.855469 291.941406 13.160156 C 291.941406 11.5 291.734375 8.894531 290.054688 8.550781 L 290.054688 8.816406 "/>
<path style=" stroke:none;fill-rule:nonzero;fill:rgb(0%,0%,0%);fill-opacity:1;" d="M 310.0625 10.773438 L 310.867188 10.488281 C 310.789062 9.601562 310.746094 8.449219 310.746094 7.238281 C 310.746094 5.925781 310.789062 4.546875 310.886719 3.394531 L 310.679688 3.355469 L 310.242188 3.941406 L 310.152344 3.960938 C 309.871094 3.820312 309.476562 3.683594 309.167969 3.683594 C 307.488281 3.683594 306.785156 5.132812 306.785156 6.511719 C 306.785156 7.347656 307.160156 8.429688 308.203125 8.429688 C 308.828125 8.429688 309.40625 8.152344 309.914062 7.773438 L 309.984375 7.824219 C 309.953125 8.777344 309.933594 10.207031 309.902344 10.613281 Z M 309.984375 7.316406 C 309.65625 7.605469 309.21875 7.8125 308.828125 7.8125 C 308.015625 7.8125 307.699219 7.070312 307.699219 6.246094 C 307.699219 5.132812 308.035156 4.050781 309.15625 4.050781 C 309.417969 4.050781 309.644531 4.1875 309.824219 4.367188 C 309.984375 4.527344 309.984375 4.824219 309.984375 5.074219 L 309.984375 7.316406 "/>
<path style=" stroke:none;fill-rule:nonzero;fill:rgb(0%,0%,0%);fill-opacity:1;" d="M 319.867188 5.113281 C 320.035156 5.113281 320.214844 5.113281 320.214844 4.914062 C 320.214844 4.714844 320.035156 4.714844 319.867188 4.714844 L 315.644531 4.714844 L 315.644531 1.824219 C 315.644531 1.644531 315.644531 1.464844 315.445312 1.464844 C 315.246094 1.464844 315.246094 1.675781 315.246094 1.824219 L 315.246094 8.003906 C 315.246094 8.152344 315.246094 8.359375 315.445312 8.359375 C 315.644531 8.359375 315.644531 8.183594 315.644531 8.003906 L 315.644531 5.113281 L 319.867188 5.113281 "/>
<path style=" stroke:none;fill-rule:nonzero;fill:rgb(0%,0%,0%);fill-opacity:1;" d="M 327.761719 10.773438 L 328.566406 10.488281 C 328.488281 9.601562 328.445312 8.449219 328.445312 7.238281 C 328.445312 5.925781 328.488281 4.546875 328.589844 3.394531 L 328.378906 3.355469 L 327.941406 3.941406 L 327.851562 3.960938 C 327.574219 3.820312 327.175781 3.683594 326.867188 3.683594 C 325.1875 3.683594 324.484375 5.132812 324.484375 6.511719 C 324.484375 7.347656 324.859375 8.429688 325.90625 8.429688 C 326.53125 8.429688 327.105469 8.152344 327.613281 7.773438 L 327.683594 7.824219 C 327.652344 8.777344 327.632812 10.207031 327.601562 10.613281 Z M 327.683594 7.316406 C 327.355469 7.605469 326.917969 7.8125 326.53125 7.8125 C 325.714844 7.8125 325.398438 7.070312 325.398438 6.246094 C 325.398438 5.132812 325.734375 4.050781 326.859375 4.050781 C 327.117188 4.050781 327.34375 4.1875 327.523438 4.367188 C 327.683594 4.527344 327.683594 4.824219 327.683594 5.074219 L 327.683594 7.316406 "/>
<path style=" stroke:none;fill-rule:nonzero;fill:rgb(0%,0%,0%);fill-opacity:1;" d="M 345.839844 4.296875 L 339.847656 4.296875 L 339.847656 4.695312 L 345.441406 4.695312 L 345.441406 6.3125 L 345.839844 6.3125 L 345.839844 4.296875 "/>
<path style=" stroke:none;fill-rule:nonzero;fill:rgb(0%,0%,0%);fill-opacity:1;" d="M 350.5625 10.773438 L 351.367188 10.488281 C 351.289062 9.601562 351.246094 8.449219 351.246094 7.238281 C 351.246094 5.925781 351.289062 4.546875 351.386719 3.394531 L 351.179688 3.355469 L 350.742188 3.941406 L 350.652344 3.960938 C 350.371094 3.820312 349.976562 3.683594 349.667969 3.683594 C 347.988281 3.683594 347.285156 5.132812 347.285156 6.511719 C 347.285156 7.347656 347.660156 8.429688 348.703125 8.429688 C 349.328125 8.429688 349.90625 8.152344 350.414062 7.773438 L 350.484375 7.824219 C 350.453125 8.777344 350.433594 10.207031 350.402344 10.613281 Z M 350.484375 7.316406 C 350.15625 7.605469 349.71875 7.8125 349.328125 7.8125 C 348.515625 7.8125 348.199219 7.070312 348.199219 6.246094 C 348.199219 5.132812 348.535156 4.050781 349.65625 4.050781 C 349.917969 4.050781 350.144531 4.1875 350.324219 4.367188 C 350.484375 4.527344 350.484375 4.824219 350.484375 5.074219 L 350.484375 7.316406 "/>
<path style=" stroke:none;fill-rule:nonzero;fill:rgb(0%,0%,0%);fill-opacity:1;" d="M 360.367188 5.113281 C 360.535156 5.113281 360.714844 5.113281 360.714844 4.914062 C 360.714844 4.714844 360.535156 4.714844 360.367188 4.714844 L 356.144531 4.714844 L 356.144531 1.824219 C 356.144531 1.644531 356.144531 1.464844 355.945312 1.464844 C 355.746094 1.464844 355.746094 1.675781 355.746094 1.824219 L 355.746094 8.003906 C 355.746094 8.152344 355.746094 8.359375 355.945312 8.359375 C 356.144531 8.359375 356.144531 8.183594 356.144531 8.003906 L 356.144531 5.113281 L 360.367188 5.113281 "/>
<path style=" stroke:none;fill-rule:nonzero;fill:rgb(0%,0%,0%);fill-opacity:1;" d="M 370.238281 4.296875 L 364.246094 4.296875 L 364.246094 4.695312 L 369.839844 4.695312 L 369.839844 6.3125 L 370.238281 6.3125 L 370.238281 4.296875 "/>
<path style=" stroke:none;fill-rule:nonzero;fill:rgb(0%,0%,0%);fill-opacity:1;" d="M 375.0625 10.773438 L 375.867188 10.488281 C 375.789062 9.601562 375.746094 8.449219 375.746094 7.238281 C 375.746094 5.925781 375.789062 4.546875 375.886719 3.394531 L 375.679688 3.355469 L 375.242188 3.941406 L 375.152344 3.960938 C 374.871094 3.820312 374.476562 3.683594 374.167969 3.683594 C 372.488281 3.683594 371.785156 5.132812 371.785156 6.511719 C 371.785156 7.347656 372.160156 8.429688 373.203125 8.429688 C 373.828125 8.429688 374.40625 8.152344 374.914062 7.773438 L 374.984375 7.824219 C 374.953125 8.777344 374.933594 10.207031 374.902344 10.613281 Z M 374.984375 7.316406 C 374.65625 7.605469 374.21875 7.8125 373.828125 7.8125 C 373.015625 7.8125 372.699219 7.070312 372.699219 6.246094 C 372.699219 5.132812 373.035156 4.050781 374.15625 4.050781 C 374.417969 4.050781 374.644531 4.1875 374.824219 4.367188 C 374.984375 4.527344 374.984375 4.824219 374.984375 5.074219 L 374.984375 7.316406 "/>
<path style="fill:none;stroke-width:3.98;stroke-linecap:butt;stroke-linejoin:miter;stroke:rgb(0%,0%,0%);stroke-opacity:1;stroke-miterlimit:10;" d="M 3059.21875 631.123438 L 3768.984375 631.123438 " transform="matrix(0.1,0,0,-0.1,0,76.46)"/>
<path style=" stroke:none;fill-rule:nonzero;fill:rgb(0%,0%,0%);fill-opacity:1;" d="M 324.261719 25.074219 L 325.066406 24.785156 C 324.988281 23.902344 324.945312 22.75 324.945312 21.539062 C 324.945312 20.226562 324.988281 18.847656 325.089844 17.691406 L 324.878906 17.652344 L 324.441406 18.238281 L 324.351562 18.261719 C 324.074219 18.121094 323.675781 17.980469 323.367188 17.980469 C 321.6875 17.980469 320.984375 19.433594 320.984375 20.8125 C 320.984375 21.648438 321.359375 22.730469 322.40625 22.730469 C 323.03125 22.730469 323.605469 22.449219 324.113281 22.074219 L 324.183594 22.125 C 324.152344 23.078125 324.132812 24.507812 324.101562 24.914062 Z M 324.183594 21.617188 C 323.855469 21.90625 323.417969 22.113281 323.03125 22.113281 C 322.214844 22.113281 321.898438 21.371094 321.898438 20.542969 C 321.898438 19.433594 322.234375 18.347656 323.359375 18.347656 C 323.617188 18.347656 323.84375 18.488281 324.023438 18.667969 C 324.183594 18.824219 324.183594 19.125 324.183594 19.371094 L 324.183594 21.617188 "/>
<path style=" stroke:none;fill-rule:nonzero;fill:rgb(0%,0%,0%);fill-opacity:1;" d="M 327.191406 24.746094 C 327.898438 23.933594 328.226562 23.425781 328.226562 22.929688 C 328.226562 22.582031 327.878906 21.289062 327.351562 21.289062 C 327.101562 21.289062 326.765625 21.507812 326.765625 21.765625 C 326.765625 21.863281 326.796875 21.972656 326.835938 22.023438 L 327.53125 22.847656 C 327.621094 22.957031 327.660156 23.128906 327.660156 23.265625 C 327.660156 23.664062 327.351562 24.152344 327.003906 24.605469 L 327.191406 24.746094 "/>
<path style=" stroke:none;fill-rule:nonzero;fill:rgb(0%,0%,0%);fill-opacity:1;" d="M 336.738281 18.597656 L 330.746094 18.597656 L 330.746094 18.996094 L 336.339844 18.996094 L 336.339844 20.613281 L 336.738281 20.613281 L 336.738281 18.597656 "/>
<path style=" stroke:none;fill-rule:nonzero;fill:rgb(0%,0%,0%);fill-opacity:1;" d="M 341.464844 25.074219 L 342.265625 24.785156 C 342.1875 23.902344 342.148438 22.75 342.148438 21.539062 C 342.148438 20.226562 342.1875 18.847656 342.289062 17.691406 L 342.078125 17.652344 L 341.640625 18.238281 L 341.550781 18.261719 C 341.273438 18.121094 340.878906 17.980469 340.570312 17.980469 C 338.890625 17.980469 338.183594 19.433594 338.183594 20.8125 C 338.183594 21.648438 338.5625 22.730469 339.605469 22.730469 C 340.230469 22.730469 340.804688 22.449219 341.3125 22.074219 L 341.382812 22.125 C 341.351562 23.078125 341.332031 24.507812 341.304688 24.914062 Z M 341.382812 21.617188 C 341.054688 21.90625 340.617188 22.113281 340.230469 22.113281 C 339.414062 22.113281 339.097656 21.371094 339.097656 20.542969 C 339.097656 19.433594 339.4375 18.347656 340.558594 18.347656 C 340.816406 18.347656 341.046875 18.488281 341.222656 18.667969 C 341.382812 18.824219 341.382812 19.125 341.382812 19.371094 L 341.382812 21.617188 "/>
<path style=" stroke:none;fill-rule:nonzero;fill:rgb(0%,0%,0%);fill-opacity:1;" d="M 351.265625 19.410156 C 351.433594 19.410156 351.613281 19.410156 351.613281 19.214844 C 351.613281 19.015625 351.433594 19.015625 351.265625 19.015625 L 347.042969 19.015625 L 347.042969 16.125 C 347.042969 15.945312 347.042969 15.765625 346.84375 15.765625 C 346.648438 15.765625 346.648438 15.972656 346.648438 16.125 L 346.648438 22.300781 C 346.648438 22.449219 346.648438 22.660156 346.84375 22.660156 C 347.042969 22.660156 347.042969 22.480469 347.042969 22.300781 L 347.042969 19.410156 L 351.265625 19.410156 "/>
<path style=" stroke:none;fill-rule:nonzero;fill:rgb(0%,0%,0%);fill-opacity:1;" d="M 359.0625 16.382812 C 359.0625 16.203125 359.0625 16.023438 358.863281 16.023438 C 358.664062 16.023438 358.664062 16.234375 358.664062 16.382812 L 358.664062 22.261719 L 355.90625 22.261719 C 355.753906 22.261719 355.546875 22.261719 355.546875 22.460938 C 355.546875 22.660156 355.753906 22.660156 355.90625 22.660156 L 361.835938 22.660156 C 362.003906 22.660156 362.183594 22.660156 362.183594 22.460938 C 362.183594 22.261719 362.003906 22.261719 361.835938 22.261719 L 359.0625 22.261719 L 359.0625 16.382812 "/>
<path style=" stroke:none;fill-rule:nonzero;fill:rgb(0%,0%,0%);fill-opacity:1;" d="M 396.964844 18.511719 C 397.132812 18.511719 397.3125 18.511719 397.3125 18.3125 C 397.3125 18.113281 397.132812 18.113281 396.964844 18.113281 L 392.742188 18.113281 L 392.742188 15.222656 C 392.742188 15.042969 392.742188 14.867188 392.546875 14.867188 C 392.347656 14.867188 392.347656 15.074219 392.347656 15.222656 L 392.347656 21.402344 C 392.347656 21.550781 392.347656 21.761719 392.546875 21.761719 C 392.742188 21.761719 392.742188 21.582031 392.742188 21.402344 L 392.742188 18.511719 L 396.964844 18.511719 "/>
<path style=" stroke:none;fill-rule:nonzero;fill:rgb(0%,0%,0%);fill-opacity:1;" d="M 404.761719 15.480469 C 404.761719 15.304688 404.761719 15.125 404.5625 15.125 C 404.367188 15.125 404.367188 15.332031 404.367188 15.480469 L 404.367188 21.363281 L 401.605469 21.363281 C 401.453125 21.363281 401.246094 21.363281 401.246094 21.5625 C 401.246094 21.761719 401.453125 21.761719 401.605469 21.761719 L 407.535156 21.761719 C 407.703125 21.761719 407.882812 21.761719 407.882812 21.5625 C 407.882812 21.363281 407.703125 21.363281 407.535156 21.363281 L 404.761719 21.363281 L 404.761719 15.480469 "/>
<path style=" stroke:none;fill-rule:nonzero;fill:rgb(0%,0%,0%);fill-opacity:1;" d="M 419.882812 19.476562 C 419.515625 19.933594 418.988281 20.714844 418.738281 21.761719 L 419.136719 21.761719 C 419.445312 20.457031 420.28125 19.554688 420.578125 19.277344 C 420.257812 18.980469 419.445312 18.085938 419.136719 16.792969 L 418.738281 16.792969 C 418.988281 17.824219 419.503906 18.613281 419.882812 19.078125 L 412.105469 19.078125 C 411.925781 19.078125 411.757812 19.078125 411.757812 19.277344 C 411.757812 19.476562 411.933594 19.476562 412.105469 19.476562 L 419.882812 19.476562 "/>
<path style=" stroke:none;fill-rule:nonzero;fill:rgb(0%,0%,0%);fill-opacity:1;" d="M 425.878906 23.808594 C 425.816406 23.289062 425.789062 22.324219 425.777344 21.871094 L 425.878906 21.789062 C 426.066406 21.839844 426.265625 21.871094 426.464844 21.871094 C 428.003906 21.871094 429.046875 20.261719 429.046875 18.800781 C 429.046875 18.054688 428.699219 17.140625 427.683594 17.140625 C 427 17.140625 426.394531 17.449219 425.855469 17.875 L 425.777344 17.835938 C 425.738281 17.398438 425.578125 17.089844 425.132812 17.089844 C 424.695312 17.089844 424.179688 17.449219 423.78125 17.765625 L 423.921875 17.957031 C 424.15625 17.816406 424.4375 17.667969 424.644531 17.667969 C 424.945312 17.667969 425.03125 18.183594 425.03125 18.628906 L 425.03125 20.824219 C 425.03125 21.394531 425.023438 23.429688 424.972656 24.003906 L 425.070312 24.113281 Z M 425.796875 21.105469 C 425.796875 21.09375 425.777344 20.070312 425.777344 19.257812 C 425.777344 19.148438 425.808594 18.394531 425.808594 18.332031 C 426.273438 17.964844 426.679688 17.757812 427.1875 17.757812 C 427.824219 17.757812 428.210938 18.519531 428.210938 19.386719 C 428.210938 20.332031 427.871094 21.472656 426.671875 21.472656 C 426.34375 21.472656 426.035156 21.324219 425.796875 21.105469 "/>
<g clip-path="url(#clip1)" clip-rule="nonzero">
<path style="fill:none;stroke-width:3.98;stroke-linecap:butt;stroke-linejoin:miter;stroke:rgb(0%,0%,0%);stroke-opacity:1;stroke-miterlimit:10;" d="M 2677.109375 497.646875 L 4348.007812 497.646875 " transform="matrix(0.1,0,0,-0.1,0,76.46)"/>
</g>
<path style=" stroke:none;fill-rule:nonzero;fill:rgb(0%,0%,0%);fill-opacity:1;" d="M 335.0625 38.472656 L 335.867188 38.1875 C 335.789062 37.300781 335.746094 36.148438 335.746094 34.9375 C 335.746094 33.625 335.789062 32.246094 335.886719 31.09375 L 335.679688 31.054688 L 335.242188 31.640625 L 335.152344 31.660156 C 334.871094 31.519531 334.476562 31.382812 334.167969 31.382812 C 332.488281 31.382812 331.785156 32.832031 331.785156 34.210938 C 331.785156 35.046875 332.160156 36.128906 333.203125 36.128906 C 333.828125 36.128906 334.40625 35.851562 334.914062 35.472656 L 334.984375 35.523438 C 334.953125 36.476562 334.933594 37.910156 334.902344 38.316406 Z M 334.984375 35.015625 C 334.65625 35.304688 334.21875 35.511719 333.828125 35.511719 C 333.015625 35.511719 332.699219 34.769531 332.699219 33.945312 C 332.699219 32.832031 333.035156 31.75 334.15625 31.75 C 334.417969 31.75 334.644531 31.886719 334.824219 32.066406 C 334.984375 32.226562 334.984375 32.523438 334.984375 32.773438 L 334.984375 35.015625 "/>
<path style=" stroke:none;fill-rule:nonzero;fill:rgb(0%,0%,0%);fill-opacity:1;" d="M 337.992188 38.144531 C 338.699219 37.332031 339.027344 36.824219 339.027344 36.328125 C 339.027344 35.980469 338.679688 34.691406 338.152344 34.691406 C 337.902344 34.691406 337.566406 34.910156 337.566406 35.167969 C 337.566406 35.265625 337.59375 35.375 337.632812 35.425781 L 338.328125 36.25 C 338.421875 36.359375 338.460938 36.527344 338.460938 36.667969 C 338.460938 37.0625 338.152344 37.550781 337.804688 38.007812 L 337.992188 38.144531 "/>
<path style=" stroke:none;fill-rule:nonzero;fill:rgb(0%,0%,0%);fill-opacity:1;" d="M 347.539062 31.996094 L 341.546875 31.996094 L 341.546875 32.394531 L 347.140625 32.394531 L 347.140625 34.011719 L 347.539062 34.011719 L 347.539062 31.996094 "/>
<path style=" stroke:none;fill-rule:nonzero;fill:rgb(0%,0%,0%);fill-opacity:1;" d="M 352.261719 38.472656 L 353.066406 38.1875 C 352.988281 37.300781 352.945312 36.148438 352.945312 34.9375 C 352.945312 33.625 352.988281 32.246094 353.089844 31.09375 L 352.878906 31.054688 L 352.441406 31.640625 L 352.351562 31.660156 C 352.074219 31.519531 351.675781 31.382812 351.367188 31.382812 C 349.6875 31.382812 348.984375 32.832031 348.984375 34.210938 C 348.984375 35.046875 349.359375 36.128906 350.40625 36.128906 C 351.03125 36.128906 351.605469 35.851562 352.113281 35.472656 L 352.183594 35.523438 C 352.152344 36.476562 352.132812 37.910156 352.101562 38.316406 Z M 352.183594 35.015625 C 351.855469 35.304688 351.417969 35.511719 351.03125 35.511719 C 350.214844 35.511719 349.898438 34.769531 349.898438 33.945312 C 349.898438 32.832031 350.234375 31.75 351.359375 31.75 C 351.617188 31.75 351.84375 31.886719 352.023438 32.066406 C 352.183594 32.226562 352.183594 32.523438 352.183594 32.773438 L 352.183594 35.015625 "/>
<path style=" stroke:none;fill-rule:nonzero;fill:rgb(0%,0%,0%);fill-opacity:1;" d="M 362.066406 32.8125 C 362.234375 32.8125 362.414062 32.8125 362.414062 32.613281 C 362.414062 32.414062 362.234375 32.414062 362.066406 32.414062 L 357.84375 32.414062 L 357.84375 29.523438 C 357.84375 29.34375 357.84375 29.167969 357.644531 29.167969 C 357.445312 29.167969 357.445312 29.375 357.445312 29.523438 L 357.445312 35.703125 C 357.445312 35.851562 357.445312 36.058594 357.644531 36.058594 C 357.84375 36.058594 357.84375 35.882812 357.84375 35.703125 L 357.84375 32.8125 L 362.066406 32.8125 "/>
<path style=" stroke:none;fill-rule:nonzero;fill:rgb(0%,0%,0%);fill-opacity:1;" d="M 367.777344 38.105469 C 367.71875 37.589844 367.6875 36.625 367.679688 36.167969 L 367.777344 36.089844 C 367.964844 36.140625 368.164062 36.167969 368.363281 36.167969 C 369.902344 36.167969 370.945312 34.558594 370.945312 33.097656 C 370.945312 32.355469 370.597656 31.441406 369.585938 31.441406 C 368.898438 31.441406 368.292969 31.75 367.757812 32.175781 L 367.679688 32.136719 C 367.636719 31.699219 367.476562 31.390625 367.03125 31.390625 C 366.59375 31.390625 366.078125 31.75 365.679688 32.066406 L 365.820312 32.253906 C 366.058594 32.117188 366.335938 31.96875 366.546875 31.96875 C 366.84375 31.96875 366.933594 32.484375 366.933594 32.929688 L 366.933594 35.125 C 366.933594 35.691406 366.921875 37.730469 366.871094 38.304688 L 366.972656 38.414062 Z M 367.695312 35.402344 C 367.695312 35.394531 367.679688 34.371094 367.679688 33.558594 C 367.679688 33.449219 367.707031 32.691406 367.707031 32.632812 C 368.171875 32.265625 368.582031 32.058594 369.089844 32.058594 C 369.722656 32.058594 370.109375 32.820312 370.109375 33.6875 C 370.109375 34.628906 369.773438 35.773438 368.570312 35.773438 C 368.242188 35.773438 367.9375 35.621094 367.695312 35.402344 "/>
<g clip-path="url(#clip2)" clip-rule="nonzero">
<path style="fill:none;stroke-width:3.98;stroke-linecap:butt;stroke-linejoin:miter;stroke:rgb(0%,0%,0%);stroke-opacity:1;stroke-miterlimit:10;" d="M 1065.390625 364.13125 L 4348.007812 364.13125 " transform="matrix(0.1,0,0,-0.1,0,76.46)"/>
</g>
<path style=" stroke:none;fill-rule:nonzero;fill:rgb(0%,0%,0%);fill-opacity:1;" d="M 243.277344 51.40625 C 243.21875 50.890625 243.1875 49.925781 243.179688 49.46875 L 243.277344 49.390625 C 243.464844 49.441406 243.664062 49.46875 243.863281 49.46875 C 245.402344 49.46875 246.445312 47.859375 246.445312 46.398438 C 246.445312 45.65625 246.097656 44.742188 245.085938 44.742188 C 244.398438 44.742188 243.792969 45.050781 243.257812 45.476562 L 243.179688 45.4375 C 243.136719 45 242.976562 44.691406 242.53125 44.691406 C 242.09375 44.691406 241.578125 45.050781 241.179688 45.367188 L 241.320312 45.554688 C 241.558594 45.417969 241.835938 45.269531 242.046875 45.269531 C 242.34375 45.269531 242.433594 45.785156 242.433594 46.230469 L 242.433594 48.425781 C 242.433594 48.992188 242.421875 51.027344 242.371094 51.605469 L 242.472656 51.714844 Z M 243.195312 48.703125 C 243.195312 48.695312 243.179688 47.671875 243.179688 46.855469 C 243.179688 46.746094 243.207031 45.992188 243.207031 45.933594 C 243.671875 45.566406 244.082031 45.355469 244.589844 45.355469 C 245.222656 45.355469 245.609375 46.121094 245.609375 46.988281 C 245.609375 47.929688 245.273438 49.074219 244.070312 49.074219 C 243.742188 49.074219 243.4375 48.921875 243.195312 48.703125 "/>
<path style=" stroke:none;fill-rule:nonzero;fill:rgb(0%,0%,0%);fill-opacity:1;" d="M 256.808594 42.566406 L 256.769531 42.527344 L 256.382812 42.527344 L 253.023438 48.773438 L 249.777344 42.566406 L 249.359375 42.636719 L 252.945312 49.480469 L 253.09375 49.480469 L 256.808594 42.566406 "/>
<path style=" stroke:none;fill-rule:nonzero;fill:rgb(0%,0%,0%);fill-opacity:1;" d="M 263.464844 51.773438 L 264.265625 51.488281 C 264.1875 50.601562 264.148438 49.449219 264.148438 48.238281 C 264.148438 46.925781 264.1875 45.546875 264.289062 44.394531 L 264.078125 44.355469 L 263.640625 44.941406 L 263.550781 44.960938 C 263.273438 44.820312 262.878906 44.683594 262.570312 44.683594 C 260.890625 44.683594 260.183594 46.132812 260.183594 47.511719 C 260.183594 48.347656 260.5625 49.429688 261.605469 49.429688 C 262.230469 49.429688 262.804688 49.152344 263.3125 48.773438 L 263.382812 48.824219 C 263.351562 49.777344 263.332031 51.207031 263.304688 51.613281 Z M 263.382812 48.316406 C 263.054688 48.605469 262.617188 48.8125 262.230469 48.8125 C 261.414062 48.8125 261.097656 48.070312 261.097656 47.246094 C 261.097656 46.132812 261.4375 45.050781 262.558594 45.050781 C 262.816406 45.050781 263.046875 45.1875 263.222656 45.367188 C 263.382812 45.527344 263.382812 45.824219 263.382812 46.074219 L 263.382812 48.316406 "/>
<path style=" stroke:none;fill-rule:nonzero;fill:rgb(0%,0%,0%);fill-opacity:1;" d="M 266.390625 51.445312 C 267.097656 50.632812 267.425781 50.125 267.425781 49.628906 C 267.425781 49.28125 267.078125 47.988281 266.550781 47.988281 C 266.304688 47.988281 265.964844 48.207031 265.964844 48.464844 C 265.964844 48.566406 265.996094 48.675781 266.035156 48.722656 L 266.730469 49.550781 C 266.820312 49.660156 266.859375 49.828125 266.859375 49.964844 C 266.859375 50.363281 266.550781 50.851562 266.203125 51.308594 L 266.390625 51.445312 "/>
<path style=" stroke:none;fill-rule:nonzero;fill:rgb(0%,0%,0%);fill-opacity:1;" d="M 275.9375 45.296875 L 269.949219 45.296875 L 269.949219 45.695312 L 275.539062 45.695312 L 275.539062 47.3125 L 275.9375 47.3125 L 275.9375 45.296875 "/>
<path style=" stroke:none;fill-rule:nonzero;fill:rgb(0%,0%,0%);fill-opacity:1;" d="M 280.761719 51.773438 L 281.566406 51.488281 C 281.488281 50.601562 281.445312 49.449219 281.445312 48.238281 C 281.445312 46.925781 281.488281 45.546875 281.589844 44.394531 L 281.378906 44.355469 L 280.941406 44.941406 L 280.851562 44.960938 C 280.574219 44.820312 280.175781 44.683594 279.867188 44.683594 C 278.1875 44.683594 277.484375 46.132812 277.484375 47.511719 C 277.484375 48.347656 277.859375 49.429688 278.90625 49.429688 C 279.53125 49.429688 280.105469 49.152344 280.613281 48.773438 L 280.683594 48.824219 C 280.652344 49.777344 280.632812 51.207031 280.601562 51.613281 Z M 280.683594 48.316406 C 280.355469 48.605469 279.917969 48.8125 279.53125 48.8125 C 278.714844 48.8125 278.398438 48.070312 278.398438 47.246094 C 278.398438 46.132812 278.734375 45.050781 279.859375 45.050781 C 280.117188 45.050781 280.34375 45.1875 280.523438 45.367188 C 280.683594 45.527344 280.683594 45.824219 280.683594 46.074219 L 280.683594 48.316406 "/>
<path style=" stroke:none;fill-rule:nonzero;fill:rgb(0%,0%,0%);fill-opacity:1;" d="M 290.566406 46.113281 C 290.734375 46.113281 290.914062 46.113281 290.914062 45.914062 C 290.914062 45.714844 290.734375 45.714844 290.566406 45.714844 L 286.34375 45.714844 L 286.34375 42.824219 C 286.34375 42.644531 286.34375 42.464844 286.144531 42.464844 C 285.945312 42.464844 285.945312 42.675781 285.945312 42.824219 L 285.945312 49.003906 C 285.945312 49.152344 285.945312 49.359375 286.144531 49.359375 C 286.34375 49.359375 286.34375 49.183594 286.34375 49.003906 L 286.34375 46.113281 L 290.566406 46.113281 "/>
<path style=" stroke:none;fill-rule:nonzero;fill:rgb(0%,0%,0%);fill-opacity:1;" d="M 296.175781 51.40625 C 296.117188 50.890625 296.089844 49.925781 296.078125 49.46875 L 296.175781 49.390625 C 296.367188 49.441406 296.5625 49.46875 296.761719 49.46875 C 298.304688 49.46875 299.34375 47.859375 299.34375 46.398438 C 299.34375 45.65625 298.996094 44.742188 297.984375 44.742188 C 297.300781 44.742188 296.695312 45.050781 296.15625 45.476562 L 296.078125 45.4375 C 296.039062 45 295.878906 44.691406 295.429688 44.691406 C 294.996094 44.691406 294.476562 45.050781 294.082031 45.367188 L 294.21875 45.554688 C 294.457031 45.417969 294.734375 45.269531 294.945312 45.269531 C 295.242188 45.269531 295.332031 45.785156 295.332031 46.230469 L 295.332031 48.425781 C 295.332031 48.992188 295.320312 51.027344 295.273438 51.605469 L 295.371094 51.714844 Z M 296.097656 48.703125 C 296.097656 48.695312 296.078125 47.671875 296.078125 46.855469 C 296.078125 46.746094 296.109375 45.992188 296.109375 45.933594 C 296.574219 45.566406 296.980469 45.355469 297.488281 45.355469 C 298.121094 45.355469 298.511719 46.121094 298.511719 46.988281 C 298.511719 47.929688 298.171875 49.074219 296.972656 49.074219 C 296.644531 49.074219 296.335938 48.921875 296.097656 48.703125 "/>
<g clip-path="url(#clip3)" clip-rule="nonzero">
<path style="fill:none;stroke-width:3.98;stroke-linecap:butt;stroke-linejoin:miter;stroke:rgb(0%,0%,0%);stroke-opacity:1;stroke-miterlimit:10;" d="M 705.664062 238.115625 L 4347.96875 238.115625 " transform="matrix(0.1,0,0,-0.1,0,76.46)"/>
</g>
<path style=" stroke:none;fill-rule:nonzero;fill:rgb(0%,0%,0%);fill-opacity:1;" d="M 223.9375 57.898438 L 217.949219 57.898438 L 217.949219 58.292969 L 223.539062 58.292969 L 223.539062 59.914062 L 223.9375 59.914062 L 223.9375 57.898438 "/>
<path style=" stroke:none;fill-rule:nonzero;fill:rgb(0%,0%,0%);fill-opacity:1;" d="M 228.761719 64.375 L 229.566406 64.085938 C 229.488281 63.203125 229.445312 62.050781 229.445312 60.839844 C 229.445312 59.527344 229.488281 58.144531 229.589844 56.992188 L 229.378906 56.953125 L 228.941406 57.539062 L 228.851562 57.558594 C 228.574219 57.421875 228.175781 57.28125 227.867188 57.28125 C 226.1875 57.28125 225.484375 58.730469 225.484375 60.113281 C 225.484375 60.949219 225.859375 62.03125 226.90625 62.03125 C 227.53125 62.03125 228.105469 61.75 228.613281 61.375 L 228.683594 61.425781 C 228.652344 62.378906 228.632812 63.808594 228.601562 64.214844 Z M 228.683594 60.917969 C 228.355469 61.207031 227.917969 61.414062 227.53125 61.414062 C 226.714844 61.414062 226.398438 60.667969 226.398438 59.84375 C 226.398438 58.730469 226.734375 57.648438 227.859375 57.648438 C 228.117188 57.648438 228.34375 57.789062 228.523438 57.964844 C 228.683594 58.125 228.683594 58.425781 228.683594 58.671875 L 228.683594 60.917969 "/>
<path style=" stroke:none;fill-rule:nonzero;fill:rgb(0%,0%,0%);fill-opacity:1;" d="M 238.566406 58.710938 C 238.734375 58.710938 238.914062 58.710938 238.914062 58.511719 C 238.914062 58.316406 238.734375 58.316406 238.566406 58.316406 L 234.34375 58.316406 L 234.34375 55.425781 C 234.34375 55.246094 234.34375 55.066406 234.144531 55.066406 C 233.945312 55.066406 233.945312 55.273438 233.945312 55.425781 L 233.945312 61.601562 C 233.945312 61.75 233.945312 61.960938 234.144531 61.960938 C 234.34375 61.960938 234.34375 61.78125 234.34375 61.601562 L 234.34375 58.710938 L 238.566406 58.710938 "/>
<path style=" stroke:none;fill-rule:nonzero;fill:rgb(0%,0%,0%);fill-opacity:1;" d="M 244.175781 64.007812 C 244.117188 63.488281 244.089844 62.527344 244.078125 62.070312 L 244.175781 61.988281 C 244.367188 62.039062 244.5625 62.070312 244.761719 62.070312 C 246.304688 62.070312 247.34375 60.460938 247.34375 59 C 247.34375 58.253906 246.996094 57.339844 245.984375 57.339844 C 245.300781 57.339844 244.695312 57.648438 244.15625 58.074219 L 244.078125 58.035156 C 244.039062 57.597656 243.878906 57.292969 243.429688 57.292969 C 242.996094 57.292969 242.476562 57.648438 242.082031 57.964844 L 242.21875 58.15625 C 242.457031 58.015625 242.734375 57.867188 242.945312 57.867188 C 243.242188 57.867188 243.332031 58.382812 243.332031 58.832031 L 243.332031 61.027344 C 243.332031 61.59375 243.320312 63.628906 243.273438 64.207031 L 243.371094 64.316406 Z M 244.097656 61.304688 C 244.097656 61.292969 244.078125 60.269531 244.078125 59.457031 C 244.078125 59.347656 244.109375 58.59375 244.109375 58.535156 C 244.574219 58.164062 244.980469 57.957031 245.488281 57.957031 C 246.121094 57.957031 246.511719 58.722656 246.511719 59.585938 C 246.511719 60.53125 246.171875 61.671875 244.972656 61.671875 C 244.644531 61.671875 244.335938 61.523438 244.097656 61.304688 "/>
<path style=" stroke:none;fill-rule:nonzero;fill:rgb(0%,0%,0%);fill-opacity:1;" d="M 257.808594 55.164062 L 257.769531 55.125 L 257.382812 55.125 L 254.023438 61.375 L 250.777344 55.164062 L 250.359375 55.234375 L 253.945312 62.078125 L 254.09375 62.078125 L 257.808594 55.164062 "/>
<path style=" stroke:none;fill-rule:nonzero;fill:rgb(0%,0%,0%);fill-opacity:1;" d="M 264.363281 64.375 L 265.167969 64.085938 C 265.089844 63.203125 265.046875 62.050781 265.046875 60.839844 C 265.046875 59.527344 265.089844 58.144531 265.1875 56.992188 L 264.976562 56.953125 L 264.539062 57.539062 L 264.453125 57.558594 C 264.171875 57.421875 263.777344 57.28125 263.46875 57.28125 C 261.789062 57.28125 261.085938 58.730469 261.085938 60.113281 C 261.085938 60.949219 261.460938 62.03125 262.503906 62.03125 C 263.128906 62.03125 263.707031 61.75 264.214844 61.375 L 264.28125 61.425781 C 264.253906 62.378906 264.234375 63.808594 264.203125 64.214844 Z M 264.28125 60.917969 C 263.953125 61.207031 263.515625 61.414062 263.128906 61.414062 C 262.316406 61.414062 261.996094 60.667969 261.996094 59.84375 C 261.996094 58.730469 262.335938 57.648438 263.457031 57.648438 C 263.71875 57.648438 263.945312 57.789062 264.121094 57.964844 C 264.28125 58.125 264.28125 58.425781 264.28125 58.671875 L 264.28125 60.917969 "/>
<path style=" stroke:none;fill-rule:nonzero;fill:rgb(0%,0%,0%);fill-opacity:1;" d="M 277.683594 59.675781 C 277.3125 60.132812 276.789062 60.917969 276.539062 61.960938 L 276.9375 61.960938 C 277.246094 60.660156 278.078125 59.753906 278.378906 59.476562 C 278.058594 59.179688 277.246094 58.285156 276.9375 56.992188 L 276.539062 56.992188 C 276.789062 58.027344 277.304688 58.8125 277.683594 59.277344 L 269.90625 59.277344 C 269.726562 59.277344 269.554688 59.277344 269.554688 59.476562 C 269.554688 59.675781 269.734375 59.675781 269.90625 59.675781 L 277.683594 59.675781 "/>
<path style=" stroke:none;fill-rule:nonzero;fill:rgb(0%,0%,0%);fill-opacity:1;" d="M 283.777344 64.007812 C 283.71875 63.488281 283.6875 62.527344 283.679688 62.070312 L 283.777344 61.988281 C 283.964844 62.039062 284.164062 62.070312 284.363281 62.070312 C 285.902344 62.070312 286.945312 60.460938 286.945312 59 C 286.945312 58.253906 286.597656 57.339844 285.585938 57.339844 C 284.898438 57.339844 284.292969 57.648438 283.757812 58.074219 L 283.679688 58.035156 C 283.636719 57.597656 283.476562 57.292969 283.03125 57.292969 C 282.59375 57.292969 282.078125 57.648438 281.679688 57.964844 L 281.820312 58.15625 C 282.058594 58.015625 282.335938 57.867188 282.546875 57.867188 C 282.84375 57.867188 282.933594 58.382812 282.933594 58.832031 L 282.933594 61.027344 C 282.933594 61.59375 282.921875 63.628906 282.871094 64.207031 L 282.972656 64.316406 Z M 283.695312 61.304688 C 283.695312 61.292969 283.679688 60.269531 283.679688 59.457031 C 283.679688 59.347656 283.707031 58.59375 283.707031 58.535156 C 284.171875 58.164062 284.582031 57.957031 285.089844 57.957031 C 285.722656 57.957031 286.109375 58.722656 286.109375 59.585938 C 286.109375 60.53125 285.773438 61.671875 284.570312 61.671875 C 284.242188 61.671875 283.9375 61.523438 283.695312 61.304688 "/>
<g clip-path="url(#clip4)" clip-rule="nonzero">
<path style="fill:none;stroke-width:3.98;stroke-linecap:butt;stroke-linejoin:miter;stroke:rgb(0%,0%,0%);stroke-opacity:1;stroke-miterlimit:10;" d="M 344.53125 112.060938 L 4348.007812 112.060938 " transform="matrix(0.1,0,0,-0.1,0,76.46)"/>
</g>
<path style=" stroke:none;fill-rule:nonzero;fill:rgb(0%,0%,0%);fill-opacity:1;" d="M 198.464844 71.3125 C 198.632812 71.3125 198.8125 71.3125 198.8125 71.113281 C 198.8125 70.914062 198.632812 70.914062 198.464844 70.914062 L 194.242188 70.914062 L 194.242188 68.023438 C 194.242188 67.84375 194.242188 67.667969 194.046875 67.667969 C 193.847656 67.667969 193.847656 67.875 193.847656 68.023438 L 193.847656 74.203125 C 193.847656 74.351562 193.847656 74.558594 194.046875 74.558594 C 194.242188 74.558594 194.242188 74.382812 194.242188 74.203125 L 194.242188 71.3125 L 198.464844 71.3125 "/>
<path style=" stroke:none;fill-rule:nonzero;fill:rgb(0%,0%,0%);fill-opacity:1;" d="M 208.4375 70.496094 L 202.449219 70.496094 L 202.449219 70.894531 L 208.039062 70.894531 L 208.039062 72.511719 L 208.4375 72.511719 L 208.4375 70.496094 "/>
<g clip-path="url(#clip5)" clip-rule="nonzero">
<path style=" stroke:none;fill-rule:nonzero;fill:rgb(0%,0%,0%);fill-opacity:1;" d="M 213.164062 76.972656 L 213.96875 76.6875 C 213.886719 75.800781 213.847656 74.648438 213.847656 73.4375 C 213.847656 72.125 213.886719 70.746094 213.988281 69.59375 L 213.777344 69.554688 L 213.339844 70.140625 L 213.253906 70.160156 C 212.972656 70.019531 212.578125 69.882812 212.269531 69.882812 C 210.589844 69.882812 209.882812 71.332031 209.882812 72.710938 C 209.882812 73.546875 210.261719 74.628906 211.304688 74.628906 C 211.929688 74.628906 212.507812 74.351562 213.011719 73.972656 L 213.082031 74.023438 C 213.054688 74.976562 213.03125 76.410156 213.003906 76.816406 Z M 213.082031 73.515625 C 212.753906 73.804688 212.316406 74.011719 211.929688 74.011719 C 211.117188 74.011719 210.796875 73.269531 210.796875 72.445312 C 210.796875 71.332031 211.136719 70.25 212.257812 70.25 C 212.515625 70.25 212.746094 70.386719 212.921875 70.566406 C 213.082031 70.726562 213.082031 71.023438 213.082031 71.273438 L 213.082031 73.515625 "/>
</g>
<path style=" stroke:none;fill-rule:nonzero;fill:rgb(0%,0%,0%);fill-opacity:1;" d="M 226.484375 72.277344 C 226.113281 72.730469 225.589844 73.515625 225.339844 74.558594 L 225.738281 74.558594 C 226.046875 73.257812 226.878906 72.355469 227.179688 72.078125 C 226.859375 71.777344 226.046875 70.886719 225.738281 69.59375 L 225.339844 69.59375 C 225.589844 70.625 226.105469 71.410156 226.484375 71.878906 L 218.703125 71.878906 C 218.523438 71.878906 218.355469 71.878906 218.355469 72.078125 C 218.355469 72.277344 218.535156 72.277344 218.703125 72.277344 L 226.484375 72.277344 "/>
<g clip-path="url(#clip6)" clip-rule="nonzero">
<path style=" stroke:none;fill-rule:nonzero;fill:rgb(0%,0%,0%);fill-opacity:1;" d="M 232.476562 76.605469 C 232.417969 76.089844 232.386719 75.125 232.378906 74.667969 L 232.476562 74.589844 C 232.664062 74.640625 232.863281 74.667969 233.0625 74.667969 C 234.601562 74.667969 235.644531 73.058594 235.644531 71.597656 C 235.644531 70.855469 235.296875 69.941406 234.285156 69.941406 C 233.601562 69.941406 232.992188 70.25 232.457031 70.675781 L 232.378906 70.636719 C 232.339844 70.199219 232.179688 69.890625 231.730469 69.890625 C 231.296875 69.890625 230.777344 70.25 230.382812 70.566406 L 230.519531 70.753906 C 230.757812 70.617188 231.035156 70.46875 231.246094 70.46875 C 231.542969 70.46875 231.632812 70.984375 231.632812 71.429688 L 231.632812 73.625 C 231.632812 74.191406 231.621094 76.230469 231.574219 76.804688 L 231.671875 76.914062 Z M 232.398438 73.902344 C 232.398438 73.894531 232.378906 72.871094 232.378906 72.058594 C 232.378906 71.949219 232.40625 71.191406 232.40625 71.132812 C 232.871094 70.765625 233.28125 70.558594 233.789062 70.558594 C 234.421875 70.558594 234.8125 71.320312 234.8125 72.1875 C 234.8125 73.128906 234.472656 74.273438 233.273438 74.273438 C 232.945312 74.273438 232.636719 74.121094 232.398438 73.902344 "/>
</g>
<path style=" stroke:none;fill-rule:nonzero;fill:rgb(0%,0%,0%);fill-opacity:1;" d="M 246.109375 67.765625 L 246.070312 67.726562 L 245.683594 67.726562 L 242.324219 73.972656 L 239.078125 67.765625 L 238.660156 67.835938 L 242.246094 74.679688 L 242.394531 74.679688 L 246.109375 67.765625 "/>
<g clip-path="url(#clip7)" clip-rule="nonzero">
<path style=" stroke:none;fill-rule:nonzero;fill:rgb(0%,0%,0%);fill-opacity:1;" d="M 252.664062 76.972656 L 253.46875 76.6875 C 253.386719 75.800781 253.347656 74.648438 253.347656 73.4375 C 253.347656 72.125 253.386719 70.746094 253.488281 69.59375 L 253.277344 69.554688 L 252.839844 70.140625 L 252.753906 70.160156 C 252.472656 70.019531 252.078125 69.882812 251.769531 69.882812 C 250.089844 69.882812 249.382812 71.332031 249.382812 72.710938 C 249.382812 73.546875 249.761719 74.628906 250.804688 74.628906 C 251.429688 74.628906 252.007812 74.351562 252.511719 73.972656 L 252.582031 74.023438 C 252.554688 74.976562 252.53125 76.410156 252.503906 76.816406 Z M 252.582031 73.515625 C 252.253906 73.804688 251.816406 74.011719 251.429688 74.011719 C 250.617188 74.011719 250.296875 73.269531 250.296875 72.445312 C 250.296875 71.332031 250.636719 70.25 251.757812 70.25 C 252.015625 70.25 252.246094 70.386719 252.421875 70.566406 C 252.582031 70.726562 252.582031 71.023438 252.582031 71.273438 L 252.582031 73.515625 "/>
</g>
<path style=" stroke:none;fill-rule:nonzero;fill:rgb(0%,0%,0%);fill-opacity:1;" d="M 265.984375 72.277344 C 265.613281 72.730469 265.089844 73.515625 264.839844 74.558594 L 265.238281 74.558594 C 265.546875 73.257812 266.378906 72.355469 266.679688 72.078125 C 266.359375 71.777344 265.546875 70.886719 265.238281 69.59375 L 264.839844 69.59375 C 265.089844 70.625 265.605469 71.410156 265.984375 71.878906 L 258.203125 71.878906 C 258.023438 71.878906 257.855469 71.878906 257.855469 72.078125 C 257.855469 72.277344 258.035156 72.277344 258.203125 72.277344 L 265.984375 72.277344 "/>
<g clip-path="url(#clip8)" clip-rule="nonzero">
<path style=" stroke:none;fill-rule:nonzero;fill:rgb(0%,0%,0%);fill-opacity:1;" d="M 272.078125 76.605469 C 272.015625 76.089844 271.988281 75.125 271.976562 74.667969 L 272.078125 74.589844 C 272.265625 74.640625 272.464844 74.667969 272.664062 74.667969 C 274.203125 74.667969 275.246094 73.058594 275.246094 71.597656 C 275.246094 70.855469 274.898438 69.941406 273.882812 69.941406 C 273.199219 69.941406 272.59375 70.25 272.054688 70.675781 L 271.976562 70.636719 C 271.9375 70.199219 271.777344 69.890625 271.332031 69.890625 C 270.894531 69.890625 270.378906 70.25 269.980469 70.566406 L 270.121094 70.753906 C 270.359375 70.617188 270.636719 70.46875 270.84375 70.46875 C 271.144531 70.46875 271.234375 70.984375 271.234375 71.429688 L 271.234375 73.625 C 271.234375 74.191406 271.222656 76.230469 271.171875 76.804688 L 271.273438 76.914062 Z M 271.996094 73.902344 C 271.996094 73.894531 271.976562 72.871094 271.976562 72.058594 C 271.976562 71.949219 272.007812 71.191406 272.007812 71.132812 C 272.472656 70.765625 272.882812 70.558594 273.386719 70.558594 C 274.023438 70.558594 274.410156 71.320312 274.410156 72.1875 C 274.410156 73.128906 274.074219 74.273438 272.871094 74.273438 C 272.542969 74.273438 272.234375 74.121094 271.996094 73.902344 "/>
</g>
</g>
</svg>
