<?xml version="1.0" encoding="UTF-8"?>
<svg xmlns="http://www.w3.org/2000/svg" xmlns:xlink="http://www.w3.org/1999/xlink" width="466.87pt" height="76.46pt" viewBox="0 0 466.87 76.46" version="1.1">
<defs>
<clipPath id="clip1">
  <path d="M 272 26 L 466.871094 26 L 466.871094 27 L 272 27 Z M 272 26 "/>
</clipPath>
<clipPath id="clip2">
  <path d="M 98 39 L 466.871094 39 L 466.871094 41 L 98 41 Z M 98 39 "/>
</clipPath>
<clipPath id="clip3">
  <path d="M 62 52 L 466.871094 52 L 466.871094 53 L 62 53 Z M 62 52 "/>
</clipPath>
<clipPath id="clip4">
  <path d="M 34 65 L 466.871094 65 L 466.871094 66 L 34 66 Z M 34 65 "/>
</clipPath>
<clipPath id="clip5">
  <path d="M 208 69 L 215 69 L 215 76.460938 L 208 76.460938 Z M 208 69 "/>
</clipPath>
<clipPath id="clip6">
  <path d="M 233 69 L 240 69 L 240 76.460938 L 233 76.460938 Z M 233 69 "/>
</clipPath>
<clipPath id="clip7">
  <path d="M 264 69 L 271 69 L 271 76.460938 L 264 76.460938 Z M 264 69 "/>
</clipPath>
<clipPath id="clip8">
  <path d="M 286 69 L 292 69 L 292 76.460938 L 286 76.460938 Z M 286 69 "/>
</clipPath>
</defs>
<g id="surface1">
<path style=" stroke:none;fill-rule:nonzero;fill:rgb(0%,0%,0%);fill-opacity:1;" d="M 2.992188 69.378906 C 1.710938 69.128906 1.640625 66.714844 1.640625 65.039062 C 1.640625 63.539062 1.726562 61.015625 2.992188 60.699219 L 2.992188 60.429688 C 1.957031 60.609375 1.507812 61.738281 1.320312 62.695312 C 1.171875 63.4375 1.121094 64.214844 1.121094 64.980469 C 1.121094 65.785156 1.164062 66.589844 1.300781 67.382812 C 1.46875 68.324219 1.945312 69.527344 2.992188 69.617188 L 2.992188 69.378906 "/>
<path style=" stroke:none;fill-rule:nonzero;fill:rgb(0%,0%,0%);fill-opacity:1;" d="M 12.582031 65.476562 C 12.214844 65.933594 11.6875 66.714844 11.4375 67.761719 L 11.835938 67.761719 C 12.144531 66.457031 12.980469 65.554688 13.277344 65.277344 C 12.960938 64.980469 12.144531 64.085938 11.835938 62.792969 L 11.4375 62.792969 C 11.6875 63.824219 12.203125 64.613281 12.582031 65.078125 L 4.804688 65.078125 C 4.625 65.078125 4.457031 65.078125 4.457031 65.277344 C 4.457031 65.476562 4.632812 65.476562 4.804688 65.476562 L 12.582031 65.476562 "/>
<path style=" stroke:none;fill-rule:nonzero;fill:rgb(0%,0%,0%);fill-opacity:1;" d="M 17.238281 67.769531 L 17.257812 67.53125 C 17.246094 67.53125 16.820312 67.421875 16.609375 67.363281 C 16.195312 67.253906 16.304688 66.507812 16.292969 66.082031 C 16.28125 65.476562 16.273438 64.859375 16.273438 64.195312 C 16.273438 63.417969 16.214844 62.238281 16.304688 61.652344 C 16.3125 61.53125 16.390625 61.421875 16.523438 61.394531 L 17.1875 61.242188 L 17.1875 61.035156 L 17.128906 60.976562 L 14.644531 60.976562 L 14.574219 61.035156 L 14.574219 61.253906 C 15.367188 61.433594 15.4375 61.382812 15.460938 61.679688 C 15.488281 62.058594 15.488281 62.433594 15.488281 62.824219 L 15.488281 66.429688 C 15.449219 67.253906 15.578125 67.324219 14.605469 67.511719 L 14.605469 67.769531 L 17.238281 67.769531 "/>
<path style=" stroke:none;fill-rule:nonzero;fill:rgb(0%,0%,0%);fill-opacity:1;" d="M 18.65625 60.714844 C 19.460938 61.003906 19.6875 61.9375 19.835938 62.683594 C 19.984375 63.449219 20.023438 64.242188 20.023438 65.019531 C 20.023438 66.152344 20.046875 67.363281 19.6875 68.425781 C 19.488281 69.019531 19.109375 69.28125 18.65625 69.398438 L 18.65625 69.636719 C 20.433594 69.410156 20.542969 66.757812 20.542969 65.058594 C 20.542969 63.398438 20.332031 60.796875 18.65625 60.449219 L 18.65625 60.714844 "/>
<path style=" stroke:none;fill-rule:nonzero;fill:rgb(0%,0%,0%);fill-opacity:1;" d="M 39.089844 56.777344 C 37.808594 56.53125 37.738281 54.117188 37.738281 52.4375 C 37.738281 50.9375 37.828125 48.414062 39.089844 48.097656 L 39.089844 47.828125 C 38.054688 48.007812 37.609375 49.140625 37.421875 50.09375 C 37.273438 50.839844 37.222656 51.613281 37.222656 52.378906 C 37.222656 53.183594 37.261719 53.988281 37.402344 54.78125 C 37.570312 55.726562 38.046875 56.929688 39.089844 57.019531 L 39.089844 56.777344 "/>
<path style=" stroke:none;fill-rule:nonzero;fill:rgb(0%,0%,0%);fill-opacity:1;" d="M 42.789062 48.800781 C 43.703125 48.800781 44.507812 49.101562 44.507812 50.132812 C 44.507812 51.238281 43.578125 51.890625 42.195312 51.890625 C 42.15625 51.890625 42.085938 51.863281 42.085938 51.773438 C 42.085938 50.910156 42.105469 49.785156 42.144531 48.910156 C 42.144531 48.863281 42.164062 48.800781 42.234375 48.800781 Z M 42.15625 54.941406 C 42.144531 53.9375 42.085938 52.6875 42.085938 52.4375 C 42.085938 52.25 42.730469 52.269531 43.019531 52.25 C 43.664062 52.199219 44.390625 52.050781 44.828125 51.605469 C 45.246094 51.1875 45.464844 50.640625 45.464844 50.054688 C 45.464844 49 44.796875 48.414062 43.167969 48.414062 L 40.617188 48.414062 L 40.546875 48.484375 L 40.546875 48.664062 C 40.921875 48.714844 41.25 48.800781 41.28125 49.199219 C 41.3125 49.785156 41.332031 50.371094 41.332031 50.957031 C 41.332031 52.359375 41.28125 53.761719 41.261719 55.152344 L 41.332031 55.21875 L 42.15625 54.941406 "/>
<path style=" stroke:none;fill-rule:nonzero;fill:rgb(0%,0%,0%);fill-opacity:1;" d="M 46.855469 48.117188 C 47.660156 48.40625 47.886719 49.339844 48.035156 50.082031 C 48.1875 50.847656 48.226562 51.644531 48.226562 52.417969 C 48.226562 53.550781 48.246094 54.761719 47.886719 55.824219 C 47.6875 56.421875 47.3125 56.679688 46.855469 56.800781 L 46.855469 57.039062 C 48.632812 56.808594 48.742188 54.15625 48.742188 52.457031 C 48.742188 50.800781 48.53125 48.195312 46.855469 47.847656 L 46.855469 48.117188 "/>
<path style=" stroke:none;fill-rule:nonzero;fill:rgb(0%,0%,0%);fill-opacity:1;" d="M 67.289062 44.179688 C 66.007812 43.929688 65.9375 41.515625 65.9375 39.839844 C 65.9375 38.339844 66.027344 35.816406 67.289062 35.496094 L 67.289062 35.230469 C 66.257812 35.410156 65.808594 36.539062 65.621094 37.496094 C 65.472656 38.238281 65.421875 39.011719 65.421875 39.777344 C 65.421875 40.582031 65.460938 41.386719 65.601562 42.183594 C 65.769531 43.125 66.246094 44.328125 67.289062 44.417969 L 67.289062 44.179688 "/>
<path style=" stroke:none;fill-rule:nonzero;fill:rgb(0%,0%,0%);fill-opacity:1;" d="M 75.710938 35.765625 L 75.671875 35.726562 L 75.28125 35.726562 L 71.925781 41.972656 L 68.675781 35.765625 L 68.257812 35.835938 L 71.84375 42.679688 L 71.996094 42.679688 L 75.710938 35.765625 "/>
<path style=" stroke:none;fill-rule:nonzero;fill:rgb(0%,0%,0%);fill-opacity:1;" d="M 80.429688 39.222656 L 80.488281 38.746094 L 80.429688 38.675781 C 79.902344 38.714844 79.167969 38.746094 78.640625 38.746094 C 78.273438 38.746094 77.984375 38.777344 77.984375 38.605469 L 77.984375 36.957031 C 77.984375 36.609375 78.027344 36.242188 78.226562 36.203125 L 78.621094 36.203125 C 78.691406 36.203125 80.011719 36.261719 80.699219 36.300781 L 80.738281 36.230469 L 80.757812 35.734375 C 80.628906 35.726562 80.480469 35.726562 80.300781 35.726562 C 79.59375 35.734375 78.59375 35.785156 77.898438 35.785156 L 76.425781 35.792969 L 76.355469 35.863281 L 76.367188 36.0625 C 76.835938 36.132812 77.0625 36.253906 77.121094 36.382812 C 77.210938 36.582031 77.210938 36.878906 77.210938 37.015625 L 77.210938 41.902344 C 77.210938 42.171875 77.269531 42.449219 77.46875 42.558594 L 81.324219 42.558594 L 81.453125 42.035156 L 81.402344 41.984375 C 79.773438 42.121094 79.546875 42.121094 79.078125 42.121094 C 78.472656 42.121094 78.265625 42.0625 78.125 41.804688 C 77.984375 41.558594 77.976562 41.070312 77.976562 40.691406 L 77.976562 39.3125 C 77.976562 39.132812 78.679688 39.164062 79.257812 39.164062 C 79.644531 39.164062 80.042969 39.191406 80.429688 39.222656 "/>
<path style=" stroke:none;fill-rule:nonzero;fill:rgb(0%,0%,0%);fill-opacity:1;" d="M 82.855469 35.515625 C 83.660156 35.804688 83.886719 36.738281 84.035156 37.484375 C 84.1875 38.25 84.226562 39.042969 84.226562 39.816406 C 84.226562 40.949219 84.246094 42.164062 83.886719 43.226562 C 83.6875 43.820312 83.3125 44.082031 82.855469 44.199219 L 82.855469 44.4375 C 84.632812 44.207031 84.742188 41.558594 84.742188 39.859375 C 84.742188 38.199219 84.53125 35.597656 82.855469 35.25 L 82.855469 35.515625 "/>
<path style=" stroke:none;fill-rule:nonzero;fill:rgb(0%,0%,0%);fill-opacity:1;" d="M 105.578125 37.105469 C 105.515625 36.589844 105.488281 35.625 105.476562 35.167969 L 105.578125 35.089844 C 105.765625 35.140625 105.964844 35.167969 106.164062 35.167969 C 107.703125 35.167969 108.746094 33.558594 108.746094 32.097656 C 108.746094 31.355469 108.398438 30.441406 107.382812 30.441406 C 106.699219 30.441406 106.09375 30.75 105.554688 31.175781 L 105.476562 31.136719 C 105.4375 30.699219 105.277344 30.390625 104.832031 30.390625 C 104.394531 30.390625 103.878906 30.75 103.480469 31.066406 L 103.621094 31.253906 C 103.859375 31.117188 104.136719 30.96875 104.34375 30.96875 C 104.644531 30.96875 104.734375 31.484375 104.734375 31.929688 L 104.734375 34.125 C 104.734375 34.691406 104.722656 36.730469 104.671875 37.304688 L 104.773438 37.414062 Z M 105.496094 34.402344 C 105.496094 34.394531 105.476562 33.371094 105.476562 32.558594 C 105.476562 32.449219 105.507812 31.691406 105.507812 31.632812 C 105.972656 31.265625 106.382812 31.058594 106.886719 31.058594 C 107.523438 31.058594 107.910156 31.820312 107.910156 32.6875 C 107.910156 33.628906 107.574219 34.773438 106.371094 34.773438 C 106.042969 34.773438 105.734375 34.621094 105.496094 34.402344 "/>
<path style=" stroke:none;fill-rule:nonzero;fill:rgb(0%,0%,0%);fill-opacity:1;" d="M 119.210938 28.265625 L 119.171875 28.226562 L 118.78125 28.226562 L 115.425781 34.472656 L 112.175781 28.265625 L 111.757812 28.335938 L 115.34375 35.179688 L 115.496094 35.179688 L 119.210938 28.265625 "/>
<path style=" stroke:none;fill-rule:nonzero;fill:rgb(0%,0%,0%);fill-opacity:1;" d="M 127.9375 30.996094 L 121.949219 30.996094 L 121.949219 31.394531 L 127.539062 31.394531 L 127.539062 33.011719 L 127.9375 33.011719 L 127.9375 30.996094 "/>
<path style=" stroke:none;fill-rule:nonzero;fill:rgb(0%,0%,0%);fill-opacity:1;" d="M 130.476562 37.105469 C 130.417969 36.589844 130.386719 35.625 130.378906 35.167969 L 130.476562 35.089844 C 130.664062 35.140625 130.863281 35.167969 131.0625 35.167969 C 132.601562 35.167969 133.644531 33.558594 133.644531 32.097656 C 133.644531 31.355469 133.296875 30.441406 132.285156 30.441406 C 131.601562 30.441406 130.992188 30.75 130.457031 31.175781 L 130.378906 31.136719 C 130.339844 30.699219 130.179688 30.390625 129.730469 30.390625 C 129.296875 30.390625 128.777344 30.75 128.382812 31.066406 L 128.519531 31.253906 C 128.757812 31.117188 129.035156 30.96875 129.246094 30.96875 C 129.542969 30.96875 129.632812 31.484375 129.632812 31.929688 L 129.632812 34.125 C 129.632812 34.691406 129.621094 36.730469 129.574219 37.304688 L 129.671875 37.414062 Z M 130.398438 34.402344 C 130.398438 34.394531 130.378906 33.371094 130.378906 32.558594 C 130.378906 32.449219 130.40625 31.691406 130.40625 31.632812 C 130.871094 31.265625 131.28125 31.058594 131.789062 31.058594 C 132.421875 31.058594 132.8125 31.820312 132.8125 32.6875 C 132.8125 33.628906 132.472656 34.773438 131.273438 34.773438 C 130.945312 34.773438 130.636719 34.621094 130.398438 34.402344 "/>
<path style=" stroke:none;fill-rule:nonzero;fill:rgb(0%,0%,0%);fill-opacity:1;" d="M 142.265625 31.8125 C 142.433594 31.8125 142.613281 31.8125 142.613281 31.613281 C 142.613281 31.414062 142.433594 31.414062 142.265625 31.414062 L 138.042969 31.414062 L 138.042969 28.523438 C 138.042969 28.34375 138.042969 28.167969 137.84375 28.167969 C 137.648438 28.167969 137.648438 28.375 137.648438 28.523438 L 137.648438 34.703125 C 137.648438 34.851562 137.648438 35.058594 137.84375 35.058594 C 138.042969 35.058594 138.042969 34.882812 138.042969 34.703125 L 138.042969 31.8125 L 142.265625 31.8125 "/>
<path style=" stroke:none;fill-rule:nonzero;fill:rgb(0%,0%,0%);fill-opacity:1;" d="M 147.976562 37.105469 C 147.917969 36.589844 147.886719 35.625 147.878906 35.167969 L 147.976562 35.089844 C 148.164062 35.140625 148.363281 35.167969 148.5625 35.167969 C 150.101562 35.167969 151.144531 33.558594 151.144531 32.097656 C 151.144531 31.355469 150.796875 30.441406 149.785156 30.441406 C 149.101562 30.441406 148.492188 30.75 147.957031 31.175781 L 147.878906 31.136719 C 147.839844 30.699219 147.679688 30.390625 147.230469 30.390625 C 146.796875 30.390625 146.277344 30.75 145.882812 31.066406 L 146.019531 31.253906 C 146.257812 31.117188 146.535156 30.96875 146.746094 30.96875 C 147.042969 30.96875 147.132812 31.484375 147.132812 31.929688 L 147.132812 34.125 C 147.132812 34.691406 147.121094 36.730469 147.074219 37.304688 L 147.171875 37.414062 Z M 147.898438 34.402344 C 147.898438 34.394531 147.878906 33.371094 147.878906 32.558594 C 147.878906 32.449219 147.90625 31.691406 147.90625 31.632812 C 148.371094 31.265625 148.78125 31.058594 149.289062 31.058594 C 149.921875 31.058594 150.3125 31.820312 150.3125 32.6875 C 150.3125 33.628906 149.972656 34.773438 148.773438 34.773438 C 148.445312 34.773438 148.136719 34.621094 147.898438 34.402344 "/>
<path style=" stroke:none;fill-rule:nonzero;fill:rgb(0%,0%,0%);fill-opacity:1;" d="M 161.609375 28.265625 L 161.570312 28.226562 L 161.183594 28.226562 L 157.824219 34.472656 L 154.578125 28.265625 L 154.160156 28.335938 L 157.746094 35.179688 L 157.894531 35.179688 L 161.609375 28.265625 "/>
<path style=" stroke:none;fill-rule:nonzero;fill:rgb(0%,0%,0%);fill-opacity:1;" d="M 170.238281 30.996094 L 164.246094 30.996094 L 164.246094 31.394531 L 169.839844 31.394531 L 169.839844 33.011719 L 170.238281 33.011719 L 170.238281 30.996094 "/>
<path style=" stroke:none;fill-rule:nonzero;fill:rgb(0%,0%,0%);fill-opacity:1;" d="M 172.777344 37.105469 C 172.71875 36.589844 172.6875 35.625 172.679688 35.167969 L 172.777344 35.089844 C 172.964844 35.140625 173.164062 35.167969 173.363281 35.167969 C 174.902344 35.167969 175.945312 33.558594 175.945312 32.097656 C 175.945312 31.355469 175.597656 30.441406 174.585938 30.441406 C 173.898438 30.441406 173.292969 30.75 172.757812 31.175781 L 172.679688 31.136719 C 172.636719 30.699219 172.476562 30.390625 172.03125 30.390625 C 171.59375 30.390625 171.078125 30.75 170.679688 31.066406 L 170.820312 31.253906 C 171.058594 31.117188 171.335938 30.96875 171.546875 30.96875 C 171.84375 30.96875 171.933594 31.484375 171.933594 31.929688 L 171.933594 34.125 C 171.933594 34.691406 171.921875 36.730469 171.871094 37.304688 L 171.972656 37.414062 Z M 172.695312 34.402344 C 172.695312 34.394531 172.679688 33.371094 172.679688 32.558594 C 172.679688 32.449219 172.707031 31.691406 172.707031 31.632812 C 173.171875 31.265625 173.582031 31.058594 174.089844 31.058594 C 174.722656 31.058594 175.109375 31.820312 175.109375 32.6875 C 175.109375 33.628906 174.773438 34.773438 173.570312 34.773438 C 173.242188 34.773438 172.9375 34.621094 172.695312 34.402344 "/>
<path style=" stroke:none;fill-rule:nonzero;fill:rgb(0%,0%,0%);fill-opacity:1;" d="M 198.578125 37.105469 C 198.515625 36.589844 198.488281 35.625 198.476562 35.167969 L 198.578125 35.089844 C 198.765625 35.140625 198.964844 35.167969 199.164062 35.167969 C 200.703125 35.167969 201.746094 33.558594 201.746094 32.097656 C 201.746094 31.355469 201.398438 30.441406 200.382812 30.441406 C 199.699219 30.441406 199.09375 30.75 198.554688 31.175781 L 198.476562 31.136719 C 198.4375 30.699219 198.277344 30.390625 197.832031 30.390625 C 197.394531 30.390625 196.878906 30.75 196.480469 31.066406 L 196.621094 31.253906 C 196.859375 31.117188 197.136719 30.96875 197.34375 30.96875 C 197.644531 30.96875 197.734375 31.484375 197.734375 31.929688 L 197.734375 34.125 C 197.734375 34.691406 197.722656 36.730469 197.671875 37.304688 L 197.773438 37.414062 Z M 198.496094 34.402344 C 198.496094 34.394531 198.476562 33.371094 198.476562 32.558594 C 198.476562 32.449219 198.507812 31.691406 198.507812 31.632812 C 198.972656 31.265625 199.382812 31.058594 199.886719 31.058594 C 200.523438 31.058594 200.910156 31.820312 200.910156 32.6875 C 200.910156 33.628906 200.574219 34.773438 199.371094 34.773438 C 199.042969 34.773438 198.734375 34.621094 198.496094 34.402344 "/>
<path style=" stroke:none;fill-rule:nonzero;fill:rgb(0%,0%,0%);fill-opacity:1;" d="M 210.464844 31.8125 C 210.632812 31.8125 210.8125 31.8125 210.8125 31.613281 C 210.8125 31.414062 210.632812 31.414062 210.464844 31.414062 L 206.242188 31.414062 L 206.242188 28.523438 C 206.242188 28.34375 206.242188 28.167969 206.046875 28.167969 C 205.847656 28.167969 205.847656 28.375 205.847656 28.523438 L 205.847656 34.703125 C 205.847656 34.851562 205.847656 35.058594 206.046875 35.058594 C 206.242188 35.058594 206.242188 34.882812 206.242188 34.703125 L 206.242188 31.8125 L 210.464844 31.8125 "/>
<path style=" stroke:none;fill-rule:nonzero;fill:rgb(0%,0%,0%);fill-opacity:1;" d="M 216.078125 37.105469 C 216.015625 36.589844 215.988281 35.625 215.976562 35.167969 L 216.078125 35.089844 C 216.265625 35.140625 216.464844 35.167969 216.664062 35.167969 C 218.203125 35.167969 219.246094 33.558594 219.246094 32.097656 C 219.246094 31.355469 218.898438 30.441406 217.882812 30.441406 C 217.199219 30.441406 216.59375 30.75 216.054688 31.175781 L 215.976562 31.136719 C 215.9375 30.699219 215.777344 30.390625 215.332031 30.390625 C 214.894531 30.390625 214.378906 30.75 213.980469 31.066406 L 214.121094 31.253906 C 214.359375 31.117188 214.636719 30.96875 214.84375 30.96875 C 215.144531 30.96875 215.234375 31.484375 215.234375 31.929688 L 215.234375 34.125 C 215.234375 34.691406 215.222656 36.730469 215.171875 37.304688 L 215.273438 37.414062 Z M 215.996094 34.402344 C 215.996094 34.394531 215.976562 33.371094 215.976562 32.558594 C 215.976562 32.449219 216.007812 31.691406 216.007812 31.632812 C 216.472656 31.265625 216.882812 31.058594 217.386719 31.058594 C 218.023438 31.058594 218.410156 31.820312 218.410156 32.6875 C 218.410156 33.628906 218.074219 34.773438 216.871094 34.773438 C 216.542969 34.773438 216.234375 34.621094 215.996094 34.402344 "/>
<path style=" stroke:none;fill-rule:nonzero;fill:rgb(0%,0%,0%);fill-opacity:1;" d="M 239.589844 30.777344 C 238.308594 30.53125 238.238281 28.117188 238.238281 26.4375 C 238.238281 24.9375 238.328125 22.414062 239.589844 22.097656 L 239.589844 21.828125 C 238.554688 22.007812 238.109375 23.140625 237.921875 24.09375 C 237.773438 24.839844 237.722656 25.613281 237.722656 26.378906 C 237.722656 27.183594 237.761719 27.988281 237.902344 28.78125 C 238.070312 29.726562 238.546875 30.929688 239.589844 31.019531 L 239.589844 30.777344 "/>
<path style=" stroke:none;fill-rule:nonzero;fill:rgb(0%,0%,0%);fill-opacity:1;" d="M 249.183594 26.875 C 248.8125 27.332031 248.289062 28.117188 248.039062 29.160156 L 248.4375 29.160156 C 248.746094 27.859375 249.578125 26.957031 249.878906 26.675781 C 249.558594 26.378906 248.746094 25.484375 248.4375 24.191406 L 248.039062 24.191406 C 248.289062 25.226562 248.804688 26.011719 249.183594 26.476562 L 241.40625 26.476562 C 241.226562 26.476562 241.054688 26.476562 241.054688 26.675781 C 241.054688 26.875 241.234375 26.875 241.40625 26.875 L 249.183594 26.875 "/>
<path style=" stroke:none;fill-rule:nonzero;fill:rgb(0%,0%,0%);fill-opacity:1;" d="M 254.929688 25.824219 L 254.988281 25.347656 L 254.929688 25.277344 C 254.402344 25.316406 253.667969 25.347656 253.140625 25.347656 C 252.773438 25.347656 252.484375 25.375 252.484375 25.207031 L 252.484375 23.558594 C 252.484375 23.210938 252.527344 22.84375 252.726562 22.800781 L 253.121094 22.800781 C 253.191406 22.800781 254.511719 22.863281 255.199219 22.902344 L 255.238281 22.832031 L 255.257812 22.335938 C 255.128906 22.324219 254.980469 22.324219 254.800781 22.324219 C 254.09375 22.335938 253.09375 22.386719 252.398438 22.386719 L 250.925781 22.394531 L 250.855469 22.464844 L 250.867188 22.664062 C 251.335938 22.734375 251.5625 22.851562 251.621094 22.980469 C 251.710938 23.179688 251.710938 23.476562 251.710938 23.617188 L 251.710938 28.503906 C 251.710938 28.773438 251.769531 29.050781 251.96875 29.160156 L 255.824219 29.160156 L 255.953125 28.632812 L 255.902344 28.582031 C 254.273438 28.722656 254.046875 28.722656 253.578125 28.722656 C 252.972656 28.722656 252.765625 28.664062 252.625 28.40625 C 252.484375 28.15625 252.476562 27.667969 252.476562 27.292969 L 252.476562 25.910156 C 252.476562 25.734375 253.179688 25.761719 253.757812 25.761719 C 254.144531 25.761719 254.542969 25.792969 254.929688 25.824219 "/>
<path style=" stroke:none;fill-rule:nonzero;fill:rgb(0%,0%,0%);fill-opacity:1;" d="M 257.355469 22.117188 C 258.160156 22.40625 258.386719 23.339844 258.535156 24.082031 C 258.6875 24.847656 258.726562 25.644531 258.726562 26.417969 C 258.726562 27.550781 258.746094 28.761719 258.386719 29.824219 C 258.1875 30.421875 257.8125 30.679688 257.355469 30.800781 L 257.355469 31.039062 C 259.132812 30.808594 259.242188 28.15625 259.242188 26.457031 C 259.242188 24.800781 259.03125 22.195312 257.355469 21.847656 L 257.355469 22.117188 "/>
<path style=" stroke:none;fill-rule:nonzero;fill:rgb(0%,0%,0%);fill-opacity:1;" d="M 277.789062 17.480469 C 276.507812 17.230469 276.4375 14.816406 276.4375 13.136719 C 276.4375 11.636719 276.527344 9.113281 277.789062 8.796875 L 277.789062 8.527344 C 276.757812 8.707031 276.308594 9.839844 276.121094 10.792969 C 275.972656 11.539062 275.921875 12.3125 275.921875 13.078125 C 275.921875 13.882812 275.964844 14.6875 276.101562 15.480469 C 276.269531 16.425781 276.746094 17.628906 277.789062 17.71875 L 277.789062 17.480469 "/>
<path style=" stroke:none;fill-rule:nonzero;fill:rgb(0%,0%,0%);fill-opacity:1;" d="M 287.382812 13.574219 C 287.015625 14.03125 286.488281 14.816406 286.238281 15.859375 L 286.636719 15.859375 C 286.945312 14.558594 287.78125 13.65625 288.078125 13.378906 C 287.757812 13.078125 286.945312 12.183594 286.636719 10.894531 L 286.238281 10.894531 C 286.488281 11.925781 287.003906 12.710938 287.382812 13.175781 L 279.605469 13.175781 C 279.425781 13.175781 279.257812 13.175781 279.257812 13.378906 C 279.257812 13.574219 279.433594 13.574219 279.605469 13.574219 L 287.382812 13.574219 "/>
<path style=" stroke:none;fill-rule:nonzero;fill:rgb(0%,0%,0%);fill-opacity:1;" d="M 293.128906 12.523438 L 293.1875 12.046875 L 293.128906 11.976562 C 292.601562 12.015625 291.867188 12.046875 291.34375 12.046875 C 290.972656 12.046875 290.6875 12.074219 290.6875 11.90625 L 290.6875 10.257812 C 290.6875 9.910156 290.726562 9.542969 290.925781 9.503906 L 291.320312 9.503906 C 291.390625 9.503906 292.714844 9.5625 293.398438 9.601562 L 293.4375 9.53125 L 293.457031 9.035156 C 293.328125 9.027344 293.179688 9.027344 293 9.027344 C 292.296875 9.035156 291.292969 9.085938 290.597656 9.085938 L 289.128906 9.09375 L 289.054688 9.164062 L 289.066406 9.363281 C 289.535156 9.433594 289.761719 9.550781 289.820312 9.683594 C 289.910156 9.878906 289.910156 10.175781 289.910156 10.316406 L 289.910156 15.203125 C 289.910156 15.472656 289.96875 15.75 290.167969 15.859375 L 294.023438 15.859375 L 294.152344 15.332031 L 294.101562 15.285156 C 292.472656 15.421875 292.246094 15.421875 291.777344 15.421875 C 291.171875 15.421875 290.964844 15.363281 290.824219 15.105469 C 290.6875 14.855469 290.675781 14.371094 290.675781 13.992188 L 290.675781 12.613281 C 290.675781 12.433594 291.382812 12.464844 291.957031 12.464844 C 292.34375 12.464844 292.742188 12.492188 293.128906 12.523438 "/>
<path style=" stroke:none;fill-rule:nonzero;fill:rgb(0%,0%,0%);fill-opacity:1;" d="M 295.554688 8.816406 C 296.359375 9.105469 296.589844 10.039062 296.734375 10.785156 C 296.886719 11.550781 296.925781 12.34375 296.925781 13.117188 C 296.925781 14.25 296.945312 15.464844 296.589844 16.527344 C 296.390625 17.121094 296.011719 17.378906 295.554688 17.5 L 295.554688 17.738281 C 297.332031 17.507812 297.441406 14.855469 297.441406 13.160156 C 297.441406 11.5 297.234375 8.894531 295.554688 8.550781 L 295.554688 8.816406 "/>
<path style=" stroke:none;fill-rule:nonzero;fill:rgb(0%,0%,0%);fill-opacity:1;" d="M 317.640625 4.296875 L 311.648438 4.296875 L 311.648438 4.695312 L 317.242188 4.695312 L 317.242188 6.3125 L 317.640625 6.3125 L 317.640625 4.296875 "/>
<path style=" stroke:none;fill-rule:nonzero;fill:rgb(0%,0%,0%);fill-opacity:1;" d="M 320.175781 10.40625 C 320.117188 9.890625 320.089844 8.925781 320.078125 8.46875 L 320.175781 8.390625 C 320.367188 8.441406 320.5625 8.46875 320.761719 8.46875 C 322.304688 8.46875 323.34375 6.859375 323.34375 5.398438 C 323.34375 4.65625 322.996094 3.742188 321.984375 3.742188 C 321.300781 3.742188 320.695312 4.050781 320.15625 4.476562 L 320.078125 4.4375 C 320.039062 4 319.878906 3.691406 319.429688 3.691406 C 318.996094 3.691406 318.476562 4.050781 318.082031 4.367188 L 318.21875 4.554688 C 318.457031 4.417969 318.734375 4.269531 318.945312 4.269531 C 319.242188 4.269531 319.332031 4.785156 319.332031 5.230469 L 319.332031 7.425781 C 319.332031 7.992188 319.320312 10.027344 319.273438 10.605469 L 319.371094 10.714844 Z M 320.097656 7.703125 C 320.097656 7.695312 320.078125 6.671875 320.078125 5.855469 C 320.078125 5.746094 320.109375 4.992188 320.109375 4.933594 C 320.574219 4.566406 320.980469 4.355469 321.488281 4.355469 C 322.121094 4.355469 322.511719 5.121094 322.511719 5.988281 C 322.511719 6.929688 322.171875 8.074219 320.972656 8.074219 C 320.644531 8.074219 320.335938 7.921875 320.097656 7.703125 "/>
<path style=" stroke:none;fill-rule:nonzero;fill:rgb(0%,0%,0%);fill-opacity:1;" d="M 331.964844 5.113281 C 332.132812 5.113281 332.3125 5.113281 332.3125 4.914062 C 332.3125 4.714844 332.132812 4.714844 331.964844 4.714844 L 327.742188 4.714844 L 327.742188 1.824219 C 327.742188 1.644531 327.742188 1.464844 327.546875 1.464844 C 327.347656 1.464844 327.347656 1.675781 327.347656 1.824219 L 327.347656 8.003906 C 327.347656 8.152344 327.347656 8.359375 327.546875 8.359375 C 327.742188 8.359375 327.742188 8.183594 327.742188 8.003906 L 327.742188 5.113281 L 331.964844 5.113281 "/>
<path style=" stroke:none;fill-rule:nonzero;fill:rgb(0%,0%,0%);fill-opacity:1;" d="M 341.9375 4.296875 L 335.949219 4.296875 L 335.949219 4.695312 L 341.539062 4.695312 L 341.539062 6.3125 L 341.9375 6.3125 L 341.9375 4.296875 "/>
<path style=" stroke:none;fill-rule:nonzero;fill:rgb(0%,0%,0%);fill-opacity:1;" d="M 344.476562 10.40625 C 344.417969 9.890625 344.386719 8.925781 344.378906 8.46875 L 344.476562 8.390625 C 344.664062 8.441406 344.863281 8.46875 345.0625 8.46875 C 346.601562 8.46875 347.644531 6.859375 347.644531 5.398438 C 347.644531 4.65625 347.296875 3.742188 346.285156 3.742188 C 345.601562 3.742188 344.992188 4.050781 344.457031 4.476562 L 344.378906 4.4375 C 344.339844 4 344.179688 3.691406 343.730469 3.691406 C 343.296875 3.691406 342.777344 4.050781 342.382812 4.367188 L 342.519531 4.554688 C 342.757812 4.417969 343.035156 4.269531 343.246094 4.269531 C 343.542969 4.269531 343.632812 4.785156 343.632812 5.230469 L 343.632812 7.425781 C 343.632812 7.992188 343.621094 10.027344 343.574219 10.605469 L 343.671875 10.714844 Z M 344.398438 7.703125 C 344.398438 7.695312 344.378906 6.671875 344.378906 5.855469 C 344.378906 5.746094 344.40625 4.992188 344.40625 4.933594 C 344.871094 4.566406 345.28125 4.355469 345.789062 4.355469 C 346.421875 4.355469 346.8125 5.121094 346.8125 5.988281 C 346.8125 6.929688 346.472656 8.074219 345.273438 8.074219 C 344.945312 8.074219 344.636719 7.921875 344.398438 7.703125 "/>
<path style=" stroke:none;fill-rule:nonzero;fill:rgb(0%,0%,0%);fill-opacity:1;" d="M 364.539062 4.296875 L 358.546875 4.296875 L 358.546875 4.695312 L 364.140625 4.695312 L 364.140625 6.3125 L 364.539062 6.3125 L 364.539062 4.296875 "/>
<path style=" stroke:none;fill-rule:nonzero;fill:rgb(0%,0%,0%);fill-opacity:1;" d="M 371.339844 4.296875 L 365.347656 4.296875 L 365.347656 4.695312 L 370.941406 4.695312 L 370.941406 6.3125 L 371.339844 6.3125 L 371.339844 4.296875 "/>
<path style=" stroke:none;fill-rule:nonzero;fill:rgb(0%,0%,0%);fill-opacity:1;" d="M 373.976562 10.40625 C 373.917969 9.890625 373.886719 8.925781 373.878906 8.46875 L 373.976562 8.390625 C 374.164062 8.441406 374.363281 8.46875 374.5625 8.46875 C 376.101562 8.46875 377.144531 6.859375 377.144531 5.398438 C 377.144531 4.65625 376.796875 3.742188 375.785156 3.742188 C 375.101562 3.742188 374.492188 4.050781 373.957031 4.476562 L 373.878906 4.4375 C 373.839844 4 373.679688 3.691406 373.230469 3.691406 C 372.796875 3.691406 372.277344 4.050781 371.882812 4.367188 L 372.019531 4.554688 C 372.257812 4.417969 372.535156 4.269531 372.746094 4.269531 C 373.042969 4.269531 373.132812 4.785156 373.132812 5.230469 L 373.132812 7.425781 C 373.132812 7.992188 373.121094 10.027344 373.074219 10.605469 L 373.171875 10.714844 Z M 373.898438 7.703125 C 373.898438 7.695312 373.878906 6.671875 373.878906 5.855469 C 373.878906 5.746094 373.90625 4.992188 373.90625 4.933594 C 374.371094 4.566406 374.78125 4.355469 375.289062 4.355469 C 375.921875 4.355469 376.3125 5.121094 376.3125 5.988281 C 376.3125 6.929688 375.972656 8.074219 374.773438 8.074219 C 374.445312 8.074219 374.136719 7.921875 373.898438 7.703125 "/>
<path style=" stroke:none;fill-rule:nonzero;fill:rgb(0%,0%,0%);fill-opacity:1;" d="M 385.765625 5.113281 C 385.933594 5.113281 386.113281 5.113281 386.113281 4.914062 C 386.113281 4.714844 385.933594 4.714844 385.765625 4.714844 L 381.542969 4.714844 L 381.542969 1.824219 C 381.542969 1.644531 381.542969 1.464844 381.34375 1.464844 C 381.148438 1.464844 381.148438 1.675781 381.148438 1.824219 L 381.148438 8.003906 C 381.148438 8.152344 381.148438 8.359375 381.34375 8.359375 C 381.542969 8.359375 381.542969 8.183594 381.542969 8.003906 L 381.542969 5.113281 L 385.765625 5.113281 "/>
<path style=" stroke:none;fill-rule:nonzero;fill:rgb(0%,0%,0%);fill-opacity:1;" d="M 395.738281 4.296875 L 389.746094 4.296875 L 389.746094 4.695312 L 395.339844 4.695312 L 395.339844 6.3125 L 395.738281 6.3125 L 395.738281 4.296875 "/>
<path style=" stroke:none;fill-rule:nonzero;fill:rgb(0%,0%,0%);fill-opacity:1;" d="M 402.539062 4.296875 L 396.546875 4.296875 L 396.546875 4.695312 L 402.140625 4.695312 L 402.140625 6.3125 L 402.539062 6.3125 L 402.539062 4.296875 "/>
<path style=" stroke:none;fill-rule:nonzero;fill:rgb(0%,0%,0%);fill-opacity:1;" d="M 405.078125 10.40625 C 405.015625 9.890625 404.988281 8.925781 404.976562 8.46875 L 405.078125 8.390625 C 405.265625 8.441406 405.464844 8.46875 405.664062 8.46875 C 407.203125 8.46875 408.246094 6.859375 408.246094 5.398438 C 408.246094 4.65625 407.898438 3.742188 406.882812 3.742188 C 406.199219 3.742188 405.59375 4.050781 405.054688 4.476562 L 404.976562 4.4375 C 404.9375 4 404.777344 3.691406 404.332031 3.691406 C 403.894531 3.691406 403.378906 4.050781 402.980469 4.367188 L 403.121094 4.554688 C 403.359375 4.417969 403.636719 4.269531 403.84375 4.269531 C 404.144531 4.269531 404.234375 4.785156 404.234375 5.230469 L 404.234375 7.425781 C 404.234375 7.992188 404.222656 10.027344 404.171875 10.605469 L 404.273438 10.714844 Z M 404.996094 7.703125 C 404.996094 7.695312 404.976562 6.671875 404.976562 5.855469 C 404.976562 5.746094 405.007812 4.992188 405.007812 4.933594 C 405.472656 4.566406 405.882812 4.355469 406.386719 4.355469 C 407.023438 4.355469 407.410156 5.121094 407.410156 5.988281 C 407.410156 6.929688 407.074219 8.074219 405.871094 8.074219 C 405.542969 8.074219 405.234375 7.921875 404.996094 7.703125 "/>
<path style="fill:none;stroke-width:3.98;stroke-linecap:butt;stroke-linejoin:miter;stroke:rgb(0%,0%,0%);stroke-opacity:1;stroke-miterlimit:10;" d="M 3113.59375 631.123438 L 4089.726562 631.123438 " transform="matrix(0.1,0,0,-0.1,0,76.46)"/>
<path style=" stroke:none;fill-rule:nonzero;fill:rgb(0%,0%,0%);fill-opacity:1;" d="M 338.4375 18.597656 L 332.449219 18.597656 L 332.449219 18.996094 L 338.039062 18.996094 L 338.039062 20.613281 L 338.4375 20.613281 L 338.4375 18.597656 "/>
<path style=" stroke:none;fill-rule:nonzero;fill:rgb(0%,0%,0%);fill-opacity:1;" d="M 340.976562 24.707031 C 340.917969 24.191406 340.886719 23.226562 340.878906 22.769531 L 340.976562 22.691406 C 341.164062 22.738281 341.363281 22.769531 341.5625 22.769531 C 343.101562 22.769531 344.144531 21.160156 344.144531 19.699219 C 344.144531 18.957031 343.796875 18.042969 342.785156 18.042969 C 342.101562 18.042969 341.492188 18.347656 340.957031 18.777344 L 340.878906 18.738281 C 340.839844 18.300781 340.679688 17.992188 340.230469 17.992188 C 339.796875 17.992188 339.277344 18.347656 338.882812 18.667969 L 339.019531 18.855469 C 339.257812 18.714844 339.535156 18.566406 339.746094 18.566406 C 340.042969 18.566406 340.132812 19.082031 340.132812 19.53125 L 340.132812 21.726562 C 340.132812 22.292969 340.121094 24.328125 340.074219 24.90625 L 340.171875 25.015625 Z M 340.898438 22.003906 C 340.898438 21.996094 340.878906 20.972656 340.878906 20.15625 C 340.878906 20.046875 340.90625 19.292969 340.90625 19.234375 C 341.371094 18.863281 341.78125 18.65625 342.289062 18.65625 C 342.921875 18.65625 343.3125 19.421875 343.3125 20.285156 C 343.3125 21.230469 342.972656 22.371094 341.773438 22.371094 C 341.445312 22.371094 341.136719 22.222656 340.898438 22.003906 "/>
<path style=" stroke:none;fill-rule:nonzero;fill:rgb(0%,0%,0%);fill-opacity:1;" d="M 345.992188 24.746094 C 346.699219 23.933594 347.027344 23.425781 347.027344 22.929688 C 347.027344 22.582031 346.679688 21.289062 346.152344 21.289062 C 345.902344 21.289062 345.566406 21.507812 345.566406 21.765625 C 345.566406 21.863281 345.59375 21.972656 345.632812 22.023438 L 346.328125 22.847656 C 346.421875 22.957031 346.460938 23.128906 346.460938 23.265625 C 346.460938 23.664062 346.152344 24.152344 345.804688 24.605469 L 345.992188 24.746094 "/>
<path style=" stroke:none;fill-rule:nonzero;fill:rgb(0%,0%,0%);fill-opacity:1;" d="M 355.539062 18.597656 L 349.546875 18.597656 L 349.546875 18.996094 L 355.140625 18.996094 L 355.140625 20.613281 L 355.539062 20.613281 L 355.539062 18.597656 "/>
<path style=" stroke:none;fill-rule:nonzero;fill:rgb(0%,0%,0%);fill-opacity:1;" d="M 362.339844 18.597656 L 356.347656 18.597656 L 356.347656 18.996094 L 361.941406 18.996094 L 361.941406 20.613281 L 362.339844 20.613281 L 362.339844 18.597656 "/>
<path style=" stroke:none;fill-rule:nonzero;fill:rgb(0%,0%,0%);fill-opacity:1;" d="M 364.878906 24.707031 C 364.816406 24.191406 364.789062 23.226562 364.777344 22.769531 L 364.878906 22.691406 C 365.066406 22.738281 365.265625 22.769531 365.464844 22.769531 C 367.003906 22.769531 368.046875 21.160156 368.046875 19.699219 C 368.046875 18.957031 367.699219 18.042969 366.683594 18.042969 C 366 18.042969 365.394531 18.347656 364.855469 18.777344 L 364.777344 18.738281 C 364.738281 18.300781 364.578125 17.992188 364.132812 17.992188 C 363.695312 17.992188 363.179688 18.347656 362.78125 18.667969 L 362.921875 18.855469 C 363.15625 18.714844 363.4375 18.566406 363.644531 18.566406 C 363.945312 18.566406 364.03125 19.082031 364.03125 19.53125 L 364.03125 21.726562 C 364.03125 22.292969 364.023438 24.328125 363.972656 24.90625 L 364.070312 25.015625 Z M 364.796875 22.003906 C 364.796875 21.996094 364.777344 20.972656 364.777344 20.15625 C 364.777344 20.046875 364.808594 19.292969 364.808594 19.234375 C 365.273438 18.863281 365.679688 18.65625 366.1875 18.65625 C 366.824219 18.65625 367.210938 19.421875 367.210938 20.285156 C 367.210938 21.230469 366.871094 22.371094 365.671875 22.371094 C 365.34375 22.371094 365.035156 22.222656 364.796875 22.003906 "/>
<path style=" stroke:none;fill-rule:nonzero;fill:rgb(0%,0%,0%);fill-opacity:1;" d="M 376.765625 19.410156 C 376.933594 19.410156 377.113281 19.410156 377.113281 19.214844 C 377.113281 19.015625 376.933594 19.015625 376.765625 19.015625 L 372.542969 19.015625 L 372.542969 16.125 C 372.542969 15.945312 372.542969 15.765625 372.34375 15.765625 C 372.148438 15.765625 372.148438 15.972656 372.148438 16.125 L 372.148438 22.300781 C 372.148438 22.449219 372.148438 22.660156 372.34375 22.660156 C 372.542969 22.660156 372.542969 22.480469 372.542969 22.300781 L 372.542969 19.410156 L 376.765625 19.410156 "/>
<path style=" stroke:none;fill-rule:nonzero;fill:rgb(0%,0%,0%);fill-opacity:1;" d="M 384.464844 16.382812 C 384.464844 16.203125 384.464844 16.023438 384.265625 16.023438 C 384.066406 16.023438 384.066406 16.234375 384.066406 16.382812 L 384.066406 22.261719 L 381.304688 22.261719 C 381.15625 22.261719 380.945312 22.261719 380.945312 22.460938 C 380.945312 22.660156 381.15625 22.660156 381.304688 22.660156 L 387.234375 22.660156 C 387.402344 22.660156 387.582031 22.660156 387.582031 22.460938 C 387.582031 22.261719 387.402344 22.261719 387.234375 22.261719 L 384.464844 22.261719 L 384.464844 16.382812 "/>
<path style=" stroke:none;fill-rule:nonzero;fill:rgb(0%,0%,0%);fill-opacity:1;" d="M 429.066406 18.511719 C 429.234375 18.511719 429.414062 18.511719 429.414062 18.3125 C 429.414062 18.113281 429.234375 18.113281 429.066406 18.113281 L 424.84375 18.113281 L 424.84375 15.222656 C 424.84375 15.042969 424.84375 14.867188 424.644531 14.867188 C 424.445312 14.867188 424.445312 15.074219 424.445312 15.222656 L 424.445312 21.402344 C 424.445312 21.550781 424.445312 21.761719 424.644531 21.761719 C 424.84375 21.761719 424.84375 21.582031 424.84375 21.402344 L 424.84375 18.511719 L 429.066406 18.511719 "/>
<path style=" stroke:none;fill-rule:nonzero;fill:rgb(0%,0%,0%);fill-opacity:1;" d="M 436.863281 15.480469 C 436.863281 15.304688 436.863281 15.125 436.664062 15.125 C 436.464844 15.125 436.464844 15.332031 436.464844 15.480469 L 436.464844 21.363281 L 433.703125 21.363281 C 433.554688 21.363281 433.347656 21.363281 433.347656 21.5625 C 433.347656 21.761719 433.554688 21.761719 433.703125 21.761719 L 439.632812 21.761719 C 439.804688 21.761719 439.984375 21.761719 439.984375 21.5625 C 439.984375 21.363281 439.804688 21.363281 439.632812 21.363281 L 436.863281 21.363281 L 436.863281 15.480469 "/>
<path style=" stroke:none;fill-rule:nonzero;fill:rgb(0%,0%,0%);fill-opacity:1;" d="M 451.984375 19.476562 C 451.613281 19.933594 451.089844 20.714844 450.839844 21.761719 L 451.238281 21.761719 C 451.546875 20.457031 452.378906 19.554688 452.679688 19.277344 C 452.359375 18.980469 451.546875 18.085938 451.238281 16.792969 L 450.839844 16.792969 C 451.089844 17.824219 451.605469 18.613281 451.984375 19.078125 L 444.203125 19.078125 C 444.023438 19.078125 443.855469 19.078125 443.855469 19.277344 C 443.855469 19.476562 444.035156 19.476562 444.203125 19.476562 L 451.984375 19.476562 "/>
<path style=" stroke:none;fill-rule:nonzero;fill:rgb(0%,0%,0%);fill-opacity:1;" d="M 457.976562 23.808594 C 457.917969 23.289062 457.886719 22.324219 457.878906 21.871094 L 457.976562 21.789062 C 458.164062 21.839844 458.363281 21.871094 458.5625 21.871094 C 460.101562 21.871094 461.144531 20.261719 461.144531 18.800781 C 461.144531 18.054688 460.796875 17.140625 459.785156 17.140625 C 459.101562 17.140625 458.492188 17.449219 457.957031 17.875 L 457.878906 17.835938 C 457.839844 17.398438 457.679688 17.089844 457.230469 17.089844 C 456.796875 17.089844 456.277344 17.449219 455.882812 17.765625 L 456.019531 17.957031 C 456.257812 17.816406 456.535156 17.667969 456.746094 17.667969 C 457.042969 17.667969 457.132812 18.183594 457.132812 18.628906 L 457.132812 20.824219 C 457.132812 21.394531 457.121094 23.429688 457.074219 24.003906 L 457.171875 24.113281 Z M 457.898438 21.105469 C 457.898438 21.09375 457.878906 20.070312 457.878906 19.257812 C 457.878906 19.148438 457.90625 18.394531 457.90625 18.332031 C 458.371094 17.964844 458.78125 17.757812 459.289062 17.757812 C 459.921875 17.757812 460.3125 18.519531 460.3125 19.386719 C 460.3125 20.332031 459.972656 21.472656 458.773438 21.472656 C 458.445312 21.472656 458.136719 21.324219 457.898438 21.105469 "/>
<g clip-path="url(#clip1)" clip-rule="nonzero">
<path style="fill:none;stroke-width:3.98;stroke-linecap:butt;stroke-linejoin:miter;stroke:rgb(0%,0%,0%);stroke-opacity:1;stroke-miterlimit:10;" d="M 2731.445312 497.646875 L 4668.710938 497.646875 " transform="matrix(0.1,0,0,-0.1,0,76.46)"/>
</g>
<path style=" stroke:none;fill-rule:nonzero;fill:rgb(0%,0%,0%);fill-opacity:1;" d="M 349.140625 31.996094 L 343.148438 31.996094 L 343.148438 32.394531 L 348.742188 32.394531 L 348.742188 34.011719 L 349.140625 34.011719 L 349.140625 31.996094 "/>
<path style=" stroke:none;fill-rule:nonzero;fill:rgb(0%,0%,0%);fill-opacity:1;" d="M 351.777344 38.105469 C 351.71875 37.589844 351.6875 36.625 351.679688 36.167969 L 351.777344 36.089844 C 351.964844 36.140625 352.164062 36.167969 352.363281 36.167969 C 353.902344 36.167969 354.945312 34.558594 354.945312 33.097656 C 354.945312 32.355469 354.597656 31.441406 353.585938 31.441406 C 352.898438 31.441406 352.292969 31.75 351.757812 32.175781 L 351.679688 32.136719 C 351.636719 31.699219 351.476562 31.390625 351.03125 31.390625 C 350.59375 31.390625 350.078125 31.75 349.679688 32.066406 L 349.820312 32.253906 C 350.058594 32.117188 350.335938 31.96875 350.546875 31.96875 C 350.84375 31.96875 350.933594 32.484375 350.933594 32.929688 L 350.933594 35.125 C 350.933594 35.691406 350.921875 37.730469 350.871094 38.304688 L 350.972656 38.414062 Z M 351.695312 35.402344 C 351.695312 35.394531 351.679688 34.371094 351.679688 33.558594 C 351.679688 33.449219 351.707031 32.691406 351.707031 32.632812 C 352.171875 32.265625 352.582031 32.058594 353.089844 32.058594 C 353.722656 32.058594 354.109375 32.820312 354.109375 33.6875 C 354.109375 34.628906 353.773438 35.773438 352.570312 35.773438 C 352.242188 35.773438 351.9375 35.621094 351.695312 35.402344 "/>
<path style=" stroke:none;fill-rule:nonzero;fill:rgb(0%,0%,0%);fill-opacity:1;" d="M 356.691406 38.144531 C 357.398438 37.332031 357.726562 36.824219 357.726562 36.328125 C 357.726562 35.980469 357.378906 34.691406 356.851562 34.691406 C 356.601562 34.691406 356.265625 34.910156 356.265625 35.167969 C 356.265625 35.265625 356.296875 35.375 356.335938 35.425781 L 357.03125 36.25 C 357.121094 36.359375 357.160156 36.527344 357.160156 36.667969 C 357.160156 37.0625 356.851562 37.550781 356.503906 38.007812 L 356.691406 38.144531 "/>
<path style=" stroke:none;fill-rule:nonzero;fill:rgb(0%,0%,0%);fill-opacity:1;" d="M 366.339844 31.996094 L 360.347656 31.996094 L 360.347656 32.394531 L 365.941406 32.394531 L 365.941406 34.011719 L 366.339844 34.011719 L 366.339844 31.996094 "/>
<path style=" stroke:none;fill-rule:nonzero;fill:rgb(0%,0%,0%);fill-opacity:1;" d="M 373.140625 31.996094 L 367.148438 31.996094 L 367.148438 32.394531 L 372.742188 32.394531 L 372.742188 34.011719 L 373.140625 34.011719 L 373.140625 31.996094 "/>
<path style=" stroke:none;fill-rule:nonzero;fill:rgb(0%,0%,0%);fill-opacity:1;" d="M 375.675781 38.105469 C 375.617188 37.589844 375.589844 36.625 375.578125 36.167969 L 375.675781 36.089844 C 375.867188 36.140625 376.0625 36.167969 376.261719 36.167969 C 377.804688 36.167969 378.84375 34.558594 378.84375 33.097656 C 378.84375 32.355469 378.496094 31.441406 377.484375 31.441406 C 376.800781 31.441406 376.195312 31.75 375.65625 32.175781 L 375.578125 32.136719 C 375.539062 31.699219 375.378906 31.390625 374.929688 31.390625 C 374.496094 31.390625 373.976562 31.75 373.582031 32.066406 L 373.71875 32.253906 C 373.957031 32.117188 374.234375 31.96875 374.445312 31.96875 C 374.742188 31.96875 374.832031 32.484375 374.832031 32.929688 L 374.832031 35.125 C 374.832031 35.691406 374.820312 37.730469 374.773438 38.304688 L 374.871094 38.414062 Z M 375.597656 35.402344 C 375.597656 35.394531 375.578125 34.371094 375.578125 33.558594 C 375.578125 33.449219 375.609375 32.691406 375.609375 32.632812 C 376.074219 32.265625 376.480469 32.058594 376.988281 32.058594 C 377.621094 32.058594 378.011719 32.820312 378.011719 33.6875 C 378.011719 34.628906 377.671875 35.773438 376.472656 35.773438 C 376.144531 35.773438 375.835938 35.621094 375.597656 35.402344 "/>
<path style=" stroke:none;fill-rule:nonzero;fill:rgb(0%,0%,0%);fill-opacity:1;" d="M 387.464844 32.8125 C 387.632812 32.8125 387.8125 32.8125 387.8125 32.613281 C 387.8125 32.414062 387.632812 32.414062 387.464844 32.414062 L 383.242188 32.414062 L 383.242188 29.523438 C 383.242188 29.34375 383.242188 29.167969 383.046875 29.167969 C 382.847656 29.167969 382.847656 29.375 382.847656 29.523438 L 382.847656 35.703125 C 382.847656 35.851562 382.847656 36.058594 383.046875 36.058594 C 383.242188 36.058594 383.242188 35.882812 383.242188 35.703125 L 383.242188 32.8125 L 387.464844 32.8125 "/>
<path style=" stroke:none;fill-rule:nonzero;fill:rgb(0%,0%,0%);fill-opacity:1;" d="M 393.175781 38.105469 C 393.117188 37.589844 393.089844 36.625 393.078125 36.167969 L 393.175781 36.089844 C 393.367188 36.140625 393.5625 36.167969 393.761719 36.167969 C 395.304688 36.167969 396.34375 34.558594 396.34375 33.097656 C 396.34375 32.355469 395.996094 31.441406 394.984375 31.441406 C 394.300781 31.441406 393.695312 31.75 393.15625 32.175781 L 393.078125 32.136719 C 393.039062 31.699219 392.878906 31.390625 392.429688 31.390625 C 391.996094 31.390625 391.476562 31.75 391.082031 32.066406 L 391.21875 32.253906 C 391.457031 32.117188 391.734375 31.96875 391.945312 31.96875 C 392.242188 31.96875 392.332031 32.484375 392.332031 32.929688 L 392.332031 35.125 C 392.332031 35.691406 392.320312 37.730469 392.273438 38.304688 L 392.371094 38.414062 Z M 393.097656 35.402344 C 393.097656 35.394531 393.078125 34.371094 393.078125 33.558594 C 393.078125 33.449219 393.109375 32.691406 393.109375 32.632812 C 393.574219 32.265625 393.980469 32.058594 394.488281 32.058594 C 395.121094 32.058594 395.511719 32.820312 395.511719 33.6875 C 395.511719 34.628906 395.171875 35.773438 393.972656 35.773438 C 393.644531 35.773438 393.335938 35.621094 393.097656 35.402344 "/>
<g clip-path="url(#clip2)" clip-rule="nonzero">
<path style="fill:none;stroke-width:3.98;stroke-linecap:butt;stroke-linejoin:miter;stroke:rgb(0%,0%,0%);stroke-opacity:1;stroke-miterlimit:10;" d="M 986.5625 364.13125 L 4668.710938 364.13125 " transform="matrix(0.1,0,0,-0.1,0,76.46)"/>
</g>
<path style=" stroke:none;fill-rule:nonzero;fill:rgb(0%,0%,0%);fill-opacity:1;" d="M 248.675781 51.40625 C 248.617188 50.890625 248.589844 49.925781 248.578125 49.46875 L 248.675781 49.390625 C 248.867188 49.441406 249.0625 49.46875 249.261719 49.46875 C 250.804688 49.46875 251.84375 47.859375 251.84375 46.398438 C 251.84375 45.65625 251.496094 44.742188 250.484375 44.742188 C 249.800781 44.742188 249.195312 45.050781 248.65625 45.476562 L 248.578125 45.4375 C 248.539062 45 248.378906 44.691406 247.929688 44.691406 C 247.496094 44.691406 246.976562 45.050781 246.582031 45.367188 L 246.71875 45.554688 C 246.957031 45.417969 247.234375 45.269531 247.445312 45.269531 C 247.742188 45.269531 247.832031 45.785156 247.832031 46.230469 L 247.832031 48.425781 C 247.832031 48.992188 247.820312 51.027344 247.773438 51.605469 L 247.871094 51.714844 Z M 248.597656 48.703125 C 248.597656 48.695312 248.578125 47.671875 248.578125 46.855469 C 248.578125 46.746094 248.609375 45.992188 248.609375 45.933594 C 249.074219 45.566406 249.480469 45.355469 249.988281 45.355469 C 250.621094 45.355469 251.011719 46.121094 251.011719 46.988281 C 251.011719 47.929688 250.671875 49.074219 249.472656 49.074219 C 249.144531 49.074219 248.835938 48.921875 248.597656 48.703125 "/>
<path style=" stroke:none;fill-rule:nonzero;fill:rgb(0%,0%,0%);fill-opacity:1;" d="M 262.308594 42.566406 L 262.269531 42.527344 L 261.882812 42.527344 L 258.523438 48.773438 L 255.277344 42.566406 L 254.859375 42.636719 L 258.445312 49.480469 L 258.59375 49.480469 L 262.308594 42.566406 "/>
<path style=" stroke:none;fill-rule:nonzero;fill:rgb(0%,0%,0%);fill-opacity:1;" d="M 270.9375 45.296875 L 264.949219 45.296875 L 264.949219 45.695312 L 270.539062 45.695312 L 270.539062 47.3125 L 270.9375 47.3125 L 270.9375 45.296875 "/>
<path style=" stroke:none;fill-rule:nonzero;fill:rgb(0%,0%,0%);fill-opacity:1;" d="M 273.476562 51.40625 C 273.417969 50.890625 273.386719 49.925781 273.378906 49.46875 L 273.476562 49.390625 C 273.664062 49.441406 273.863281 49.46875 274.0625 49.46875 C 275.601562 49.46875 276.644531 47.859375 276.644531 46.398438 C 276.644531 45.65625 276.296875 44.742188 275.285156 44.742188 C 274.601562 44.742188 273.992188 45.050781 273.457031 45.476562 L 273.378906 45.4375 C 273.339844 45 273.179688 44.691406 272.730469 44.691406 C 272.296875 44.691406 271.777344 45.050781 271.382812 45.367188 L 271.519531 45.554688 C 271.757812 45.417969 272.035156 45.269531 272.246094 45.269531 C 272.542969 45.269531 272.632812 45.785156 272.632812 46.230469 L 272.632812 48.425781 C 272.632812 48.992188 272.621094 51.027344 272.574219 51.605469 L 272.671875 51.714844 Z M 273.398438 48.703125 C 273.398438 48.695312 273.378906 47.671875 273.378906 46.855469 C 273.378906 46.746094 273.40625 45.992188 273.40625 45.933594 C 273.871094 45.566406 274.28125 45.355469 274.789062 45.355469 C 275.421875 45.355469 275.8125 46.121094 275.8125 46.988281 C 275.8125 47.929688 275.472656 49.074219 274.273438 49.074219 C 273.945312 49.074219 273.636719 48.921875 273.398438 48.703125 "/>
<path style=" stroke:none;fill-rule:nonzero;fill:rgb(0%,0%,0%);fill-opacity:1;" d="M 278.492188 51.445312 C 279.199219 50.632812 279.527344 50.125 279.527344 49.628906 C 279.527344 49.28125 279.179688 47.988281 278.652344 47.988281 C 278.402344 47.988281 278.066406 48.207031 278.066406 48.464844 C 278.066406 48.566406 278.09375 48.675781 278.132812 48.722656 L 278.828125 49.550781 C 278.921875 49.660156 278.960938 49.828125 278.960938 49.964844 C 278.960938 50.363281 278.652344 50.851562 278.304688 51.308594 L 278.492188 51.445312 "/>
<path style=" stroke:none;fill-rule:nonzero;fill:rgb(0%,0%,0%);fill-opacity:1;" d="M 288.039062 45.296875 L 282.046875 45.296875 L 282.046875 45.695312 L 287.640625 45.695312 L 287.640625 47.3125 L 288.039062 47.3125 L 288.039062 45.296875 "/>
<path style=" stroke:none;fill-rule:nonzero;fill:rgb(0%,0%,0%);fill-opacity:1;" d="M 294.9375 45.296875 L 288.949219 45.296875 L 288.949219 45.695312 L 294.539062 45.695312 L 294.539062 47.3125 L 294.9375 47.3125 L 294.9375 45.296875 "/>
<path style=" stroke:none;fill-rule:nonzero;fill:rgb(0%,0%,0%);fill-opacity:1;" d="M 297.476562 51.40625 C 297.417969 50.890625 297.386719 49.925781 297.378906 49.46875 L 297.476562 49.390625 C 297.664062 49.441406 297.863281 49.46875 298.0625 49.46875 C 299.601562 49.46875 300.644531 47.859375 300.644531 46.398438 C 300.644531 45.65625 300.296875 44.742188 299.285156 44.742188 C 298.601562 44.742188 297.992188 45.050781 297.457031 45.476562 L 297.378906 45.4375 C 297.339844 45 297.179688 44.691406 296.730469 44.691406 C 296.296875 44.691406 295.777344 45.050781 295.382812 45.367188 L 295.519531 45.554688 C 295.757812 45.417969 296.035156 45.269531 296.246094 45.269531 C 296.542969 45.269531 296.632812 45.785156 296.632812 46.230469 L 296.632812 48.425781 C 296.632812 48.992188 296.621094 51.027344 296.574219 51.605469 L 296.671875 51.714844 Z M 297.398438 48.703125 C 297.398438 48.695312 297.378906 47.671875 297.378906 46.855469 C 297.378906 46.746094 297.40625 45.992188 297.40625 45.933594 C 297.871094 45.566406 298.28125 45.355469 298.789062 45.355469 C 299.421875 45.355469 299.8125 46.121094 299.8125 46.988281 C 299.8125 47.929688 299.472656 49.074219 298.273438 49.074219 C 297.945312 49.074219 297.636719 48.921875 297.398438 48.703125 "/>
<path style=" stroke:none;fill-rule:nonzero;fill:rgb(0%,0%,0%);fill-opacity:1;" d="M 309.265625 46.113281 C 309.433594 46.113281 309.613281 46.113281 309.613281 45.914062 C 309.613281 45.714844 309.433594 45.714844 309.265625 45.714844 L 305.042969 45.714844 L 305.042969 42.824219 C 305.042969 42.644531 305.042969 42.464844 304.84375 42.464844 C 304.648438 42.464844 304.648438 42.675781 304.648438 42.824219 L 304.648438 49.003906 C 304.648438 49.152344 304.648438 49.359375 304.84375 49.359375 C 305.042969 49.359375 305.042969 49.183594 305.042969 49.003906 L 305.042969 46.113281 L 309.265625 46.113281 "/>
<path style=" stroke:none;fill-rule:nonzero;fill:rgb(0%,0%,0%);fill-opacity:1;" d="M 314.976562 51.40625 C 314.917969 50.890625 314.886719 49.925781 314.878906 49.46875 L 314.976562 49.390625 C 315.164062 49.441406 315.363281 49.46875 315.5625 49.46875 C 317.101562 49.46875 318.144531 47.859375 318.144531 46.398438 C 318.144531 45.65625 317.796875 44.742188 316.785156 44.742188 C 316.101562 44.742188 315.492188 45.050781 314.957031 45.476562 L 314.878906 45.4375 C 314.839844 45 314.679688 44.691406 314.230469 44.691406 C 313.796875 44.691406 313.277344 45.050781 312.882812 45.367188 L 313.019531 45.554688 C 313.257812 45.417969 313.535156 45.269531 313.746094 45.269531 C 314.042969 45.269531 314.132812 45.785156 314.132812 46.230469 L 314.132812 48.425781 C 314.132812 48.992188 314.121094 51.027344 314.074219 51.605469 L 314.171875 51.714844 Z M 314.898438 48.703125 C 314.898438 48.695312 314.878906 47.671875 314.878906 46.855469 C 314.878906 46.746094 314.90625 45.992188 314.90625 45.933594 C 315.371094 45.566406 315.78125 45.355469 316.289062 45.355469 C 316.921875 45.355469 317.3125 46.121094 317.3125 46.988281 C 317.3125 47.929688 316.972656 49.074219 315.773438 49.074219 C 315.445312 49.074219 315.136719 48.921875 314.898438 48.703125 "/>
<g clip-path="url(#clip3)" clip-rule="nonzero">
<path style="fill:none;stroke-width:3.98;stroke-linecap:butt;stroke-linejoin:miter;stroke:rgb(0%,0%,0%);stroke-opacity:1;stroke-miterlimit:10;" d="M 626.835938 238.115625 L 4668.710938 238.115625 " transform="matrix(0.1,0,0,-0.1,0,76.46)"/>
</g>
<path style=" stroke:none;fill-rule:nonzero;fill:rgb(0%,0%,0%);fill-opacity:1;" d="M 234.9375 57.898438 L 228.949219 57.898438 L 228.949219 58.292969 L 234.539062 58.292969 L 234.539062 59.914062 L 234.9375 59.914062 L 234.9375 57.898438 "/>
<path style=" stroke:none;fill-rule:nonzero;fill:rgb(0%,0%,0%);fill-opacity:1;" d="M 241.738281 57.898438 L 235.746094 57.898438 L 235.746094 58.292969 L 241.339844 58.292969 L 241.339844 59.914062 L 241.738281 59.914062 L 241.738281 57.898438 "/>
<path style=" stroke:none;fill-rule:nonzero;fill:rgb(0%,0%,0%);fill-opacity:1;" d="M 244.277344 64.007812 C 244.21875 63.488281 244.1875 62.527344 244.179688 62.070312 L 244.277344 61.988281 C 244.464844 62.039062 244.664062 62.070312 244.863281 62.070312 C 246.402344 62.070312 247.445312 60.460938 247.445312 59 C 247.445312 58.253906 247.097656 57.339844 246.085938 57.339844 C 245.398438 57.339844 244.792969 57.648438 244.257812 58.074219 L 244.179688 58.035156 C 244.136719 57.597656 243.976562 57.292969 243.53125 57.292969 C 243.09375 57.292969 242.578125 57.648438 242.179688 57.964844 L 242.320312 58.15625 C 242.558594 58.015625 242.835938 57.867188 243.046875 57.867188 C 243.34375 57.867188 243.433594 58.382812 243.433594 58.832031 L 243.433594 61.027344 C 243.433594 61.59375 243.421875 63.628906 243.371094 64.207031 L 243.472656 64.316406 Z M 244.195312 61.304688 C 244.195312 61.292969 244.179688 60.269531 244.179688 59.457031 C 244.179688 59.347656 244.207031 58.59375 244.207031 58.535156 C 244.671875 58.164062 245.082031 57.957031 245.589844 57.957031 C 246.222656 57.957031 246.609375 58.722656 246.609375 59.585938 C 246.609375 60.53125 246.273438 61.671875 245.070312 61.671875 C 244.742188 61.671875 244.4375 61.523438 244.195312 61.304688 "/>
<path style=" stroke:none;fill-rule:nonzero;fill:rgb(0%,0%,0%);fill-opacity:1;" d="M 249.292969 64.046875 C 249.996094 63.230469 250.328125 62.726562 250.328125 62.230469 C 250.328125 61.878906 249.976562 60.589844 249.453125 60.589844 C 249.203125 60.589844 248.867188 60.808594 248.867188 61.066406 C 248.867188 61.164062 248.894531 61.273438 248.933594 61.324219 L 249.628906 62.148438 C 249.71875 62.257812 249.757812 62.425781 249.757812 62.566406 C 249.757812 62.964844 249.453125 63.449219 249.105469 63.90625 L 249.292969 64.046875 "/>
<path style=" stroke:none;fill-rule:nonzero;fill:rgb(0%,0%,0%);fill-opacity:1;" d="M 254.578125 64.007812 C 254.515625 63.488281 254.488281 62.527344 254.476562 62.070312 L 254.578125 61.988281 C 254.765625 62.039062 254.964844 62.070312 255.164062 62.070312 C 256.703125 62.070312 257.746094 60.460938 257.746094 59 C 257.746094 58.253906 257.398438 57.339844 256.382812 57.339844 C 255.699219 57.339844 255.09375 57.648438 254.554688 58.074219 L 254.476562 58.035156 C 254.4375 57.597656 254.277344 57.292969 253.832031 57.292969 C 253.394531 57.292969 252.878906 57.648438 252.480469 57.964844 L 252.621094 58.15625 C 252.859375 58.015625 253.136719 57.867188 253.34375 57.867188 C 253.644531 57.867188 253.734375 58.382812 253.734375 58.832031 L 253.734375 61.027344 C 253.734375 61.59375 253.722656 63.628906 253.671875 64.207031 L 253.773438 64.316406 Z M 254.496094 61.304688 C 254.496094 61.292969 254.476562 60.269531 254.476562 59.457031 C 254.476562 59.347656 254.507812 58.59375 254.507812 58.535156 C 254.972656 58.164062 255.382812 57.957031 255.886719 57.957031 C 256.523438 57.957031 256.910156 58.722656 256.910156 59.585938 C 256.910156 60.53125 256.574219 61.671875 255.371094 61.671875 C 255.042969 61.671875 254.734375 61.523438 254.496094 61.304688 "/>
<path style=" stroke:none;fill-rule:nonzero;fill:rgb(0%,0%,0%);fill-opacity:1;" d="M 268.210938 55.164062 L 268.171875 55.125 L 267.78125 55.125 L 264.425781 61.375 L 261.175781 55.164062 L 260.757812 55.234375 L 264.34375 62.078125 L 264.496094 62.078125 L 268.210938 55.164062 "/>
<path style=" stroke:none;fill-rule:nonzero;fill:rgb(0%,0%,0%);fill-opacity:1;" d="M 276.9375 57.898438 L 270.949219 57.898438 L 270.949219 58.292969 L 276.539062 58.292969 L 276.539062 59.914062 L 276.9375 59.914062 L 276.9375 57.898438 "/>
<path style=" stroke:none;fill-rule:nonzero;fill:rgb(0%,0%,0%);fill-opacity:1;" d="M 279.476562 64.007812 C 279.417969 63.488281 279.386719 62.527344 279.378906 62.070312 L 279.476562 61.988281 C 279.664062 62.039062 279.863281 62.070312 280.0625 62.070312 C 281.601562 62.070312 282.644531 60.460938 282.644531 59 C 282.644531 58.253906 282.296875 57.339844 281.285156 57.339844 C 280.601562 57.339844 279.992188 57.648438 279.457031 58.074219 L 279.378906 58.035156 C 279.339844 57.597656 279.179688 57.292969 278.730469 57.292969 C 278.296875 57.292969 277.777344 57.648438 277.382812 57.964844 L 277.519531 58.15625 C 277.757812 58.015625 278.035156 57.867188 278.246094 57.867188 C 278.542969 57.867188 278.632812 58.382812 278.632812 58.832031 L 278.632812 61.027344 C 278.632812 61.59375 278.621094 63.628906 278.574219 64.207031 L 278.671875 64.316406 Z M 279.398438 61.304688 C 279.398438 61.292969 279.378906 60.269531 279.378906 59.457031 C 279.378906 59.347656 279.40625 58.59375 279.40625 58.535156 C 279.871094 58.164062 280.28125 57.957031 280.789062 57.957031 C 281.421875 57.957031 281.8125 58.722656 281.8125 59.585938 C 281.8125 60.53125 281.472656 61.671875 280.273438 61.671875 C 279.945312 61.671875 279.636719 61.523438 279.398438 61.304688 "/>
<path style=" stroke:none;fill-rule:nonzero;fill:rgb(0%,0%,0%);fill-opacity:1;" d="M 291.265625 58.710938 C 291.433594 58.710938 291.613281 58.710938 291.613281 58.511719 C 291.613281 58.316406 291.433594 58.316406 291.265625 58.316406 L 287.042969 58.316406 L 287.042969 55.425781 C 287.042969 55.246094 287.042969 55.066406 286.84375 55.066406 C 286.648438 55.066406 286.648438 55.273438 286.648438 55.425781 L 286.648438 61.601562 C 286.648438 61.75 286.648438 61.960938 286.84375 61.960938 C 287.042969 61.960938 287.042969 61.78125 287.042969 61.601562 L 287.042969 58.710938 L 291.265625 58.710938 "/>
<path style=" stroke:none;fill-rule:nonzero;fill:rgb(0%,0%,0%);fill-opacity:1;" d="M 296.976562 64.007812 C 296.917969 63.488281 296.886719 62.527344 296.878906 62.070312 L 296.976562 61.988281 C 297.164062 62.039062 297.363281 62.070312 297.5625 62.070312 C 299.101562 62.070312 300.144531 60.460938 300.144531 59 C 300.144531 58.253906 299.796875 57.339844 298.785156 57.339844 C 298.101562 57.339844 297.492188 57.648438 296.957031 58.074219 L 296.878906 58.035156 C 296.839844 57.597656 296.679688 57.292969 296.230469 57.292969 C 295.796875 57.292969 295.277344 57.648438 294.882812 57.964844 L 295.019531 58.15625 C 295.257812 58.015625 295.535156 57.867188 295.746094 57.867188 C 296.042969 57.867188 296.132812 58.382812 296.132812 58.832031 L 296.132812 61.027344 C 296.132812 61.59375 296.121094 63.628906 296.074219 64.207031 L 296.171875 64.316406 Z M 296.898438 61.304688 C 296.898438 61.292969 296.878906 60.269531 296.878906 59.457031 C 296.878906 59.347656 296.90625 58.59375 296.90625 58.535156 C 297.371094 58.164062 297.78125 57.957031 298.289062 57.957031 C 298.921875 57.957031 299.3125 58.722656 299.3125 59.585938 C 299.3125 60.53125 298.972656 61.671875 297.773438 61.671875 C 297.445312 61.671875 297.136719 61.523438 296.898438 61.304688 "/>
<g clip-path="url(#clip4)" clip-rule="nonzero">
<path style="fill:none;stroke-width:3.98;stroke-linecap:butt;stroke-linejoin:miter;stroke:rgb(0%,0%,0%);stroke-opacity:1;stroke-miterlimit:10;" d="M 344.53125 112.060938 L 4668.710938 112.060938 " transform="matrix(0.1,0,0,-0.1,0,76.46)"/>
</g>
<g clip-path="url(#clip5)" clip-rule="nonzero">
<path style=" stroke:none;fill-rule:nonzero;fill:rgb(0%,0%,0%);fill-opacity:1;" d="M 211.078125 76.605469 C 211.015625 76.089844 210.988281 75.125 210.976562 74.667969 L 211.078125 74.589844 C 211.265625 74.640625 211.464844 74.667969 211.664062 74.667969 C 213.203125 74.667969 214.246094 73.058594 214.246094 71.597656 C 214.246094 70.855469 213.898438 69.941406 212.882812 69.941406 C 212.199219 69.941406 211.59375 70.25 211.054688 70.675781 L 210.976562 70.636719 C 210.9375 70.199219 210.777344 69.890625 210.332031 69.890625 C 209.894531 69.890625 209.378906 70.25 208.980469 70.566406 L 209.121094 70.753906 C 209.359375 70.617188 209.636719 70.46875 209.84375 70.46875 C 210.144531 70.46875 210.234375 70.984375 210.234375 71.429688 L 210.234375 73.625 C 210.234375 74.191406 210.222656 76.230469 210.171875 76.804688 L 210.273438 76.914062 Z M 210.996094 73.902344 C 210.996094 73.894531 210.976562 72.871094 210.976562 72.058594 C 210.976562 71.949219 211.007812 71.191406 211.007812 71.132812 C 211.472656 70.765625 211.882812 70.558594 212.386719 70.558594 C 213.023438 70.558594 213.410156 71.320312 213.410156 72.1875 C 213.410156 73.128906 213.074219 74.273438 211.871094 74.273438 C 211.542969 74.273438 211.234375 74.121094 210.996094 73.902344 "/>
</g>
<path style=" stroke:none;fill-rule:nonzero;fill:rgb(0%,0%,0%);fill-opacity:1;" d="M 224.609375 67.765625 L 224.570312 67.726562 L 224.183594 67.726562 L 220.824219 73.972656 L 217.578125 67.765625 L 217.160156 67.835938 L 220.746094 74.679688 L 220.894531 74.679688 L 224.609375 67.765625 "/>
<path style=" stroke:none;fill-rule:nonzero;fill:rgb(0%,0%,0%);fill-opacity:1;" d="M 233.339844 70.496094 L 227.347656 70.496094 L 227.347656 70.894531 L 232.941406 70.894531 L 232.941406 72.511719 L 233.339844 72.511719 L 233.339844 70.496094 "/>
<g clip-path="url(#clip6)" clip-rule="nonzero">
<path style=" stroke:none;fill-rule:nonzero;fill:rgb(0%,0%,0%);fill-opacity:1;" d="M 235.878906 76.605469 C 235.816406 76.089844 235.789062 75.125 235.777344 74.667969 L 235.878906 74.589844 C 236.066406 74.640625 236.265625 74.667969 236.464844 74.667969 C 238.003906 74.667969 239.046875 73.058594 239.046875 71.597656 C 239.046875 70.855469 238.699219 69.941406 237.683594 69.941406 C 237 69.941406 236.394531 70.25 235.855469 70.675781 L 235.777344 70.636719 C 235.738281 70.199219 235.578125 69.890625 235.132812 69.890625 C 234.695312 69.890625 234.179688 70.25 233.78125 70.566406 L 233.921875 70.753906 C 234.15625 70.617188 234.4375 70.46875 234.644531 70.46875 C 234.945312 70.46875 235.03125 70.984375 235.03125 71.429688 L 235.03125 73.625 C 235.03125 74.191406 235.023438 76.230469 234.972656 76.804688 L 235.070312 76.914062 Z M 235.796875 73.902344 C 235.796875 73.894531 235.777344 72.871094 235.777344 72.058594 C 235.777344 71.949219 235.808594 71.191406 235.808594 71.132812 C 236.273438 70.765625 236.679688 70.558594 237.1875 70.558594 C 237.824219 70.558594 238.210938 71.320312 238.210938 72.1875 C 238.210938 73.128906 237.871094 74.273438 236.671875 74.273438 C 236.34375 74.273438 236.035156 74.121094 235.796875 73.902344 "/>
</g>
<path style=" stroke:none;fill-rule:nonzero;fill:rgb(0%,0%,0%);fill-opacity:1;" d="M 247.664062 71.3125 C 247.835938 71.3125 248.011719 71.3125 248.011719 71.113281 C 248.011719 70.914062 247.835938 70.914062 247.664062 70.914062 L 243.445312 70.914062 L 243.445312 68.023438 C 243.445312 67.84375 243.445312 67.667969 243.246094 67.667969 C 243.046875 67.667969 243.046875 67.875 243.046875 68.023438 L 243.046875 74.203125 C 243.046875 74.351562 243.046875 74.558594 243.246094 74.558594 C 243.445312 74.558594 243.445312 74.382812 243.445312 74.203125 L 243.445312 71.3125 L 247.664062 71.3125 "/>
<path style=" stroke:none;fill-rule:nonzero;fill:rgb(0%,0%,0%);fill-opacity:1;" d="M 257.640625 70.496094 L 251.648438 70.496094 L 251.648438 70.894531 L 257.242188 70.894531 L 257.242188 72.511719 L 257.640625 72.511719 L 257.640625 70.496094 "/>
<path style=" stroke:none;fill-rule:nonzero;fill:rgb(0%,0%,0%);fill-opacity:1;" d="M 264.4375 70.496094 L 258.449219 70.496094 L 258.449219 70.894531 L 264.039062 70.894531 L 264.039062 72.511719 L 264.4375 72.511719 L 264.4375 70.496094 "/>
<g clip-path="url(#clip7)" clip-rule="nonzero">
<path style=" stroke:none;fill-rule:nonzero;fill:rgb(0%,0%,0%);fill-opacity:1;" d="M 266.976562 76.605469 C 266.917969 76.089844 266.886719 75.125 266.878906 74.667969 L 266.976562 74.589844 C 267.164062 74.640625 267.363281 74.667969 267.5625 74.667969 C 269.101562 74.667969 270.144531 73.058594 270.144531 71.597656 C 270.144531 70.855469 269.796875 69.941406 268.785156 69.941406 C 268.101562 69.941406 267.492188 70.25 266.957031 70.675781 L 266.878906 70.636719 C 266.839844 70.199219 266.679688 69.890625 266.230469 69.890625 C 265.796875 69.890625 265.277344 70.25 264.882812 70.566406 L 265.019531 70.753906 C 265.257812 70.617188 265.535156 70.46875 265.746094 70.46875 C 266.042969 70.46875 266.132812 70.984375 266.132812 71.429688 L 266.132812 73.625 C 266.132812 74.191406 266.121094 76.230469 266.074219 76.804688 L 266.171875 76.914062 Z M 266.898438 73.902344 C 266.898438 73.894531 266.878906 72.871094 266.878906 72.058594 C 266.878906 71.949219 266.90625 71.191406 266.90625 71.132812 C 267.371094 70.765625 267.78125 70.558594 268.289062 70.558594 C 268.921875 70.558594 269.3125 71.320312 269.3125 72.1875 C 269.3125 73.128906 268.972656 74.273438 267.773438 74.273438 C 267.445312 74.273438 267.136719 74.121094 266.898438 73.902344 "/>
</g>
<path style=" stroke:none;fill-rule:nonzero;fill:rgb(0%,0%,0%);fill-opacity:1;" d="M 282.382812 72.277344 C 282.015625 72.730469 281.488281 73.515625 281.238281 74.558594 L 281.636719 74.558594 C 281.945312 73.257812 282.78125 72.355469 283.078125 72.078125 C 282.757812 71.777344 281.945312 70.886719 281.636719 69.59375 L 281.238281 69.59375 C 281.488281 70.625 282.003906 71.410156 282.382812 71.878906 L 274.605469 71.878906 C 274.425781 71.878906 274.257812 71.878906 274.257812 72.078125 C 274.257812 72.277344 274.433594 72.277344 274.605469 72.277344 L 282.382812 72.277344 "/>
<g clip-path="url(#clip8)" clip-rule="nonzero">
<path style=" stroke:none;fill-rule:nonzero;fill:rgb(0%,0%,0%);fill-opacity:1;" d="M 288.378906 76.605469 C 288.316406 76.089844 288.289062 75.125 288.277344 74.667969 L 288.378906 74.589844 C 288.566406 74.640625 288.765625 74.667969 288.964844 74.667969 C 290.503906 74.667969 291.546875 73.058594 291.546875 71.597656 C 291.546875 70.855469 291.199219 69.941406 290.183594 69.941406 C 289.5 69.941406 288.894531 70.25 288.355469 70.675781 L 288.277344 70.636719 C 288.238281 70.199219 288.078125 69.890625 287.632812 69.890625 C 287.195312 69.890625 286.679688 70.25 286.28125 70.566406 L 286.421875 70.753906 C 286.65625 70.617188 286.9375 70.46875 287.144531 70.46875 C 287.445312 70.46875 287.53125 70.984375 287.53125 71.429688 L 287.53125 73.625 C 287.53125 74.191406 287.523438 76.230469 287.472656 76.804688 L 287.570312 76.914062 Z M 288.296875 73.902344 C 288.296875 73.894531 288.277344 72.871094 288.277344 72.058594 C 288.277344 71.949219 288.308594 71.191406 288.308594 71.132812 C 288.773438 70.765625 289.179688 70.558594 289.6875 70.558594 C 290.324219 70.558594 290.710938 71.320312 290.710938 72.1875 C 290.710938 73.128906 290.371094 74.273438 289.171875 74.273438 C 288.84375 74.273438 288.535156 74.121094 288.296875 73.902344 "/>
</g>
</g>
</svg>
