<?xml version="1.0" encoding="UTF-8"?>
<svg xmlns="http://www.w3.org/2000/svg" xmlns:xlink="http://www.w3.org/1999/xlink" width="94.13pt" height="37.33pt" viewBox="0 0 94.13 37.33" version="1.1">
<g id="surface1">
<path style=" stroke:none;fill-rule:nonzero;fill:rgb(0%,0%,0%);fill-opacity:1;" d="M 6.25 9.910156 L 6.25 1 L 5.855469 1.078125 L 5.855469 9.988281 L 6.25 9.910156 "/>
<path style=" stroke:none;fill-rule:nonzero;fill:rgb(0%,0%,0%);fill-opacity:1;" d="M 13.429688 1.574219 C 13.179688 2 12.929688 2.4375 12.742188 2.886719 L 11.5625 5.609375 C 11.152344 6.492188 10.925781 7.007812 10.855469 7.027344 C 10.835938 7.019531 10.796875 7 10.773438 6.960938 C 10.070312 5.152344 9.523438 3.292969 9.136719 1.394531 L 7.398438 1.496094 L 7.328125 1.554688 L 7.339844 1.824219 C 7.894531 1.902344 8.125 1.953125 8.28125 2.28125 C 8.480469 2.71875 8.609375 3.171875 8.757812 3.632812 L 10.179688 8.417969 L 10.277344 8.488281 L 10.953125 8.230469 C 11.519531 6.589844 12.246094 5 12.960938 3.679688 C 13.078125 3.472656 13.695312 2.378906 14.34375 1.59375 L 14.28125 1.40625 L 13.429688 1.574219 "/>
<path style=" stroke:none;fill-rule:nonzero;fill:rgb(0%,0%,0%);fill-opacity:1;" d="M 15.652344 9.910156 L 15.652344 1 L 15.253906 1.078125 L 15.253906 9.988281 L 15.652344 9.910156 "/>
<path style=" stroke:none;fill-rule:nonzero;fill:rgb(0%,0%,0%);fill-opacity:1;" d="M 33.613281 5.0625 L 33.671875 4.664062 L 27.105469 4.664062 L 27.035156 5.0625 Z M 33.613281 7.019531 L 33.671875 6.621094 L 27.105469 6.621094 L 27.035156 7.019531 L 33.613281 7.019531 "/>
<path style=" stroke:none;fill-rule:nonzero;fill:rgb(0%,0%,0%);fill-opacity:1;" d="M 47.226562 7.425781 L 46.382812 7.425781 C 46.105469 7.425781 45.726562 6.742188 45.726562 6.242188 C 45.726562 5.65625 46.125 5.042969 46.542969 4.664062 L 48.359375 6.132812 C 49.085938 6.71875 50.019531 7.59375 50.46875 8.320312 L 50.636719 8.320312 L 50.84375 6.910156 C 50.089844 6.375 49.027344 5.757812 49.027344 4.792969 C 49.027344 4.335938 49.046875 4.085938 49.1875 3.679688 C 49.246094 3.511719 49.554688 2.914062 49.78125 2.757812 L 50.257812 2.757812 C 50.4375 2.757812 50.585938 2.886719 50.695312 3.023438 L 50.84375 2.976562 L 50.84375 2.261719 C 50.84375 2.03125 50.636719 1.875 50.40625 1.875 L 49.214844 1.875 C 48.878906 1.875 48.71875 1.8125 48.628906 1.484375 L 48.390625 1.484375 L 48.390625 2.367188 C 48.390625 2.738281 48.816406 2.765625 49.363281 2.765625 C 48.886719 3.292969 48.570312 3.988281 48.570312 4.65625 L 48.570312 5.089844 C 48.558594 5.089844 46.851562 3.71875 46.054688 3.074219 C 45.550781 2.667969 45.140625 2.140625 45.082031 1.484375 L 44.773438 1.484375 L 44.773438 3.035156 C 44.972656 3.402344 45.835938 4.097656 46.3125 4.476562 C 45.191406 5.597656 45.230469 6.265625 45.191406 7.425781 L 44.945312 8.320312 L 47.089844 8.320312 L 47.226562 7.425781 "/>
<path style=" stroke:none;fill-rule:nonzero;fill:rgb(0%,0%,0%);fill-opacity:1;" d="M 54.21875 6.179688 C 53.878906 6.308594 53.484375 6.476562 53.21875 6.707031 C 52.542969 7.304688 52.183594 8.15625 52.183594 9 C 52.183594 9.828125 52.421875 11.226562 53.5625 11.226562 C 54.996094 11.226562 55.574219 9.78125 55.574219 8.625 C 55.574219 7.691406 55.1875 6.714844 54.21875 6.179688 Z M 53.773438 6.632812 C 54.132812 6.765625 54.484375 7.257812 54.539062 7.339844 C 54.882812 7.894531 55.082031 8.492188 55.082031 9.125 C 55.082031 9.820312 54.878906 10.765625 53.921875 10.765625 C 53.402344 10.765625 53.050781 10.210938 52.886719 9.730469 C 52.753906 9.351562 52.71875 8.929688 52.71875 8.523438 C 52.71875 7.8125 53.085938 7.023438 53.773438 6.632812 "/>
<path style=" stroke:none;fill-rule:nonzero;fill:rgb(0%,0%,0%);fill-opacity:1;" d="M 16.074219 17.417969 L 16.042969 17.339844 L 15.476562 17.179688 L 15.25 17.28125 C 14.921875 18.5625 14.5625 19.65625 14.007812 20.828125 L 13.957031 20.828125 C 13.699219 19.644531 13.332031 18.015625 12.785156 17.46875 C 12.578125 17.261719 12.25 17.152344 11.949219 17.152344 C 11.421875 17.152344 10.996094 17.367188 10.648438 17.757812 L 10.847656 18.015625 C 10.996094 17.914062 11.203125 17.835938 11.511719 17.835938 C 12.238281 17.835938 12.664062 18.808594 12.894531 19.464844 C 13.164062 20.230469 13.320312 21.035156 13.441406 21.839844 L 13.507812 21.910156 L 14.066406 21.589844 C 14.265625 21.09375 14.484375 20.617188 14.722656 20.140625 L 16.074219 17.417969 "/>
<path style=" stroke:none;fill-rule:nonzero;fill:rgb(0%,0%,0%);fill-opacity:1;" d="M 32.34375 19.546875 C 32.511719 19.546875 32.691406 19.546875 32.691406 19.347656 C 32.691406 19.148438 32.511719 19.148438 32.34375 19.148438 L 28.132812 19.148438 C 28.25 17.816406 29.394531 16.863281 30.792969 16.863281 L 32.34375 16.863281 C 32.511719 16.863281 32.691406 16.863281 32.691406 16.664062 C 32.691406 16.464844 32.511719 16.464844 32.34375 16.464844 L 30.773438 16.464844 C 29.074219 16.464844 27.726562 17.757812 27.726562 19.347656 C 27.726562 20.9375 29.074219 22.226562 30.773438 22.226562 L 32.34375 22.226562 C 32.511719 22.226562 32.691406 22.226562 32.691406 22.027344 C 32.691406 21.828125 32.511719 21.828125 32.34375 21.828125 L 30.792969 21.828125 C 29.394531 21.828125 28.25 20.875 28.132812 19.546875 L 32.34375 19.546875 "/>
<path style=" stroke:none;fill-rule:nonzero;fill:rgb(0%,0%,0%);fill-opacity:1;" d="M 46.898438 23.359375 C 45.9375 23.359375 45.578125 23.339844 45.578125 21.53125 C 45.578125 20.628906 45.648438 19.4375 44.734375 19.117188 L 44.734375 19.109375 C 45.371094 18.878906 45.578125 18.003906 45.578125 16.683594 C 45.578125 16.027344 45.539062 15.023438 46.035156 14.894531 C 46.304688 14.828125 46.613281 14.816406 46.898438 14.816406 L 46.898438 14.578125 C 45.3125 14.578125 45.074219 14.585938 45.074219 16.722656 C 45.074219 17.648438 45.132812 18.523438 44.8125 18.800781 C 44.59375 18.988281 44.359375 19 43.96875 19 L 43.96875 19.257812 C 44.277344 19.257812 44.644531 19.277344 44.835938 19.484375 C 45.082031 19.765625 45.082031 20.804688 45.082031 21.492188 C 45.082031 22.496094 45.003906 23.339844 45.75 23.539062 C 45.988281 23.597656 46.511719 23.597656 46.898438 23.597656 L 46.898438 23.359375 "/>
<path style=" stroke:none;fill-rule:nonzero;fill:rgb(0%,0%,0%);fill-opacity:1;" d="M 49.980469 14.835938 C 49.542969 15.015625 49.054688 15.253906 48.730469 15.582031 C 47.882812 16.425781 47.4375 17.628906 47.4375 18.820312 C 47.4375 19.960938 47.714844 21.96875 49.15625 21.96875 C 50.984375 21.96875 51.667969 19.875 51.667969 18.292969 C 51.667969 16.972656 51.183594 15.601562 49.980469 14.835938 Z M 49.425781 15.472656 C 49.871094 15.660156 50.308594 16.355469 50.378906 16.476562 C 50.816406 17.261719 51.054688 18.105469 51.054688 19 C 51.054688 19.960938 50.816406 21.3125 49.601562 21.3125 C 48.96875 21.3125 48.511719 20.527344 48.3125 19.851562 C 48.152344 19.304688 48.101562 18.71875 48.101562 18.144531 C 48.101562 17.140625 48.550781 16.019531 49.425781 15.472656 "/>
<path style=" stroke:none;fill-rule:nonzero;fill:rgb(0%,0%,0%);fill-opacity:1;" d="M 53.191406 23.914062 C 53.898438 23.101562 54.226562 22.59375 54.226562 22.097656 C 54.226562 21.75 53.878906 20.460938 53.351562 20.460938 C 53.101562 20.460938 52.765625 20.679688 52.765625 20.9375 C 52.765625 21.035156 52.796875 21.144531 52.835938 21.195312 L 53.53125 22.019531 C 53.621094 22.128906 53.660156 22.296875 53.660156 22.4375 C 53.660156 22.832031 53.351562 23.320312 53.003906 23.777344 L 53.191406 23.914062 "/>
<path style=" stroke:none;fill-rule:nonzero;fill:rgb(0%,0%,0%);fill-opacity:1;" d="M 59.558594 14.757812 L 57.414062 15.484375 L 57.414062 15.75 L 58.238281 15.75 C 58.855469 15.75 58.703125 16.5625 58.703125 17.667969 C 58.703125 19.058594 58.675781 20.449219 58.625 21.828125 L 58.746094 21.878906 L 59.578125 21.609375 C 59.550781 20.855469 59.550781 18.890625 59.550781 17.539062 C 59.550781 16.65625 59.570312 15.761719 59.617188 14.875 L 59.558594 14.757812 "/>
<path style=" stroke:none;fill-rule:nonzero;fill:rgb(0%,0%,0%);fill-opacity:1;" d="M 61.726562 23.570312 C 63.210938 23.570312 63.546875 23.578125 63.546875 21.460938 C 63.546875 20.429688 63.515625 19.425781 64.121094 19.277344 C 64.289062 19.238281 64.480469 19.21875 64.660156 19.226562 L 64.660156 18.96875 C 63.59375 18.96875 63.554688 18.609375 63.554688 16.695312 C 63.554688 15.5625 63.617188 15.265625 63.296875 14.867188 C 63.03125 14.527344 62.503906 14.558594 61.726562 14.546875 L 61.726562 14.785156 C 62.34375 14.785156 62.839844 14.746094 62.992188 15.484375 C 63.109375 16.265625 63.007812 17.070312 63.117188 17.875 C 63.210938 18.550781 63.527344 18.949219 63.894531 19.078125 L 63.894531 19.085938 C 62.980469 19.414062 63.050781 20.636719 63.050781 21.5 C 63.050781 22.167969 63.078125 23.140625 62.523438 23.269531 C 62.296875 23.328125 61.996094 23.328125 61.726562 23.328125 L 61.726562 23.570312 "/>
<path style=" stroke:none;fill-rule:nonzero;fill:rgb(0%,0%,0%);fill-opacity:1;" d="M 69.980469 12.050781 C 69.773438 12.351562 69.585938 12.660156 69.429688 12.976562 L 68.484375 14.902344 C 68.164062 15.550781 67.96875 15.894531 67.921875 15.910156 C 67.90625 15.902344 67.871094 15.886719 67.855469 15.859375 C 67.292969 14.578125 66.859375 13.265625 66.546875 11.921875 L 65.15625 11.992188 L 65.101562 12.035156 L 65.109375 12.226562 C 65.570312 12.28125 65.746094 12.324219 65.859375 12.546875 C 66.007812 12.859375 66.132812 13.179688 66.246094 13.503906 L 67.378906 16.890625 L 67.460938 16.941406 L 67.996094 16.757812 C 68.453125 15.601562 69.03125 14.46875 69.601562 13.539062 C 69.699219 13.382812 70.195312 12.617188 70.710938 12.0625 L 70.660156 11.929688 L 69.980469 12.050781 "/>
<path style=" stroke:none;fill-rule:nonzero;fill:rgb(0%,0%,0%);fill-opacity:1;" d="M 16.074219 29.320312 L 16.042969 29.238281 L 15.476562 29.082031 L 15.25 29.179688 C 14.921875 30.460938 14.5625 31.554688 14.007812 32.726562 L 13.957031 32.726562 C 13.699219 31.542969 13.332031 29.914062 12.785156 29.367188 C 12.578125 29.160156 12.25 29.050781 11.949219 29.050781 C 11.421875 29.050781 10.996094 29.269531 10.648438 29.65625 L 10.847656 29.914062 C 10.996094 29.816406 11.203125 29.734375 11.511719 29.734375 C 12.238281 29.734375 12.664062 30.710938 12.894531 31.367188 C 13.164062 32.128906 13.320312 32.933594 13.441406 33.738281 L 13.507812 33.808594 L 14.066406 33.492188 C 14.265625 32.996094 14.484375 32.515625 14.722656 32.039062 L 16.074219 29.320312 "/>
<path style=" stroke:none;fill-rule:nonzero;fill:rgb(0%,0%,0%);fill-opacity:1;" d="M 29.695312 33.28125 C 29.695312 33.589844 29.953125 33.847656 30.273438 33.847656 C 30.582031 33.847656 30.828125 33.589844 30.828125 33.28125 C 30.828125 32.976562 30.582031 32.71875 30.273438 32.71875 C 29.953125 32.71875 29.695312 32.976562 29.695312 33.28125 Z M 29.695312 29.777344 C 29.695312 30.085938 29.953125 30.34375 30.273438 30.34375 C 30.582031 30.34375 30.828125 30.085938 30.828125 29.777344 C 30.828125 29.46875 30.582031 29.210938 30.273438 29.210938 C 29.953125 29.210938 29.695312 29.46875 29.695312 29.777344 "/>
<path style=" stroke:none;fill-rule:nonzero;fill:rgb(0%,0%,0%);fill-opacity:1;" d="M 50.328125 26.976562 C 50.078125 27.402344 49.832031 27.839844 49.640625 28.285156 L 48.460938 31.007812 C 48.054688 31.890625 47.824219 32.40625 47.753906 32.429688 C 47.734375 32.417969 47.695312 32.398438 47.675781 32.359375 C 46.96875 30.550781 46.421875 28.695312 46.035156 26.796875 L 44.296875 26.894531 L 44.226562 26.953125 L 44.238281 27.222656 C 44.796875 27.304688 45.023438 27.351562 45.183594 27.679688 C 45.382812 28.117188 45.507812 28.574219 45.660156 29.03125 L 47.078125 33.820312 L 47.179688 33.890625 L 47.855469 33.628906 C 48.421875 31.992188 49.144531 30.402344 49.859375 29.082031 C 49.980469 28.871094 50.59375 27.78125 51.242188 26.996094 L 51.183594 26.804688 L 50.328125 26.976562 "/>
<path style=" stroke:none;fill-rule:nonzero;fill:rgb(0%,0%,0%);fill-opacity:1;" d="M 62.683594 31.445312 C 62.3125 31.902344 61.789062 32.6875 61.539062 33.730469 L 61.9375 33.730469 C 62.246094 32.429688 63.078125 31.523438 63.378906 31.246094 C 63.058594 30.949219 62.246094 30.054688 61.9375 28.761719 L 61.539062 28.761719 C 61.789062 29.796875 62.304688 30.582031 62.683594 31.046875 L 54.90625 31.046875 C 54.726562 31.046875 54.554688 31.046875 54.554688 31.246094 C 54.554688 31.445312 54.734375 31.445312 54.90625 31.445312 L 62.683594 31.445312 "/>
<path style=" stroke:none;fill-rule:nonzero;fill:rgb(0%,0%,0%);fill-opacity:1;" d="M 71.300781 35.257812 C 70.335938 35.257812 69.980469 35.238281 69.980469 33.429688 C 69.980469 32.527344 70.046875 31.335938 69.132812 31.015625 L 69.132812 31.007812 C 69.769531 30.78125 69.980469 29.90625 69.980469 28.585938 C 69.980469 27.929688 69.9375 26.925781 70.4375 26.796875 C 70.703125 26.726562 71.011719 26.71875 71.300781 26.71875 L 71.300781 26.476562 C 69.710938 26.476562 69.472656 26.488281 69.472656 28.625 C 69.472656 29.546875 69.53125 30.421875 69.214844 30.699219 C 68.996094 30.890625 68.757812 30.898438 68.371094 30.898438 L 68.371094 31.15625 C 68.679688 31.15625 69.046875 31.175781 69.234375 31.386719 C 69.484375 31.664062 69.484375 32.707031 69.484375 33.390625 C 69.484375 34.394531 69.402344 35.238281 70.148438 35.4375 C 70.386719 35.5 70.914062 35.5 71.300781 35.5 L 71.300781 35.257812 "/>
<path style=" stroke:none;fill-rule:nonzero;fill:rgb(0%,0%,0%);fill-opacity:1;" d="M 74.480469 26.734375 C 74.042969 26.914062 73.554688 27.152344 73.230469 27.480469 C 72.382812 28.324219 71.9375 29.527344 71.9375 30.71875 C 71.9375 31.863281 72.214844 33.867188 73.65625 33.867188 C 75.484375 33.867188 76.167969 31.773438 76.167969 30.195312 C 76.167969 28.871094 75.683594 27.5 74.480469 26.734375 Z M 73.925781 27.371094 C 74.371094 27.5625 74.808594 28.257812 74.878906 28.375 C 75.316406 29.160156 75.554688 30.003906 75.554688 30.898438 C 75.554688 31.863281 75.316406 33.210938 74.101562 33.210938 C 73.46875 33.210938 73.011719 32.429688 72.8125 31.753906 C 72.652344 31.207031 72.601562 30.621094 72.601562 30.042969 C 72.601562 29.039062 73.050781 27.917969 73.925781 27.371094 "/>
<path style=" stroke:none;fill-rule:nonzero;fill:rgb(0%,0%,0%);fill-opacity:1;" d="M 77.691406 35.816406 C 78.398438 35 78.726562 34.496094 78.726562 34 C 78.726562 33.648438 78.378906 32.359375 77.851562 32.359375 C 77.601562 32.359375 77.265625 32.578125 77.265625 32.835938 C 77.265625 32.933594 77.296875 33.042969 77.335938 33.09375 L 78.03125 33.917969 C 78.121094 34.027344 78.160156 34.195312 78.160156 34.335938 C 78.160156 34.734375 77.851562 35.21875 77.503906 35.675781 L 77.691406 35.816406 "/>
<path style=" stroke:none;fill-rule:nonzero;fill:rgb(0%,0%,0%);fill-opacity:1;" d="M 84.058594 26.65625 L 81.914062 27.382812 L 81.914062 27.648438 L 82.738281 27.648438 C 83.355469 27.648438 83.203125 28.464844 83.203125 29.566406 C 83.203125 30.957031 83.175781 32.347656 83.125 33.730469 L 83.246094 33.78125 L 84.078125 33.511719 C 84.050781 32.757812 84.050781 30.789062 84.050781 29.4375 C 84.050781 28.554688 84.070312 27.660156 84.117188 26.777344 L 84.058594 26.65625 "/>
<path style=" stroke:none;fill-rule:nonzero;fill:rgb(0%,0%,0%);fill-opacity:1;" d="M 86.226562 35.46875 C 87.710938 35.46875 88.046875 35.476562 88.046875 33.363281 C 88.046875 32.328125 88.015625 31.324219 88.621094 31.175781 C 88.789062 31.136719 88.980469 31.117188 89.160156 31.125 L 89.160156 30.867188 C 88.09375 30.867188 88.054688 30.511719 88.054688 28.59375 C 88.054688 27.460938 88.117188 27.164062 87.796875 26.765625 C 87.53125 26.429688 87.003906 26.457031 86.226562 26.449219 L 86.226562 26.6875 C 86.84375 26.6875 87.339844 26.648438 87.492188 27.382812 C 87.609375 28.167969 87.507812 28.972656 87.617188 29.777344 C 87.710938 30.453125 88.027344 30.847656 88.394531 30.976562 L 88.394531 30.988281 C 87.480469 31.316406 87.550781 32.539062 87.550781 33.402344 C 87.550781 34.066406 87.578125 35.039062 87.023438 35.171875 C 86.796875 35.230469 86.496094 35.230469 86.226562 35.230469 L 86.226562 35.46875 "/>
</g>
</svg>
