<?xml version="1.0" encoding="UTF-8"?>
<svg xmlns="http://www.w3.org/2000/svg" xmlns:xlink="http://www.w3.org/1999/xlink" width="226.41pt" height="48.44pt" viewBox="0 0 226.41 48.44" version="1.1">
<g id="surface1">
<path style=" stroke:none;fill-rule:nonzero;fill:rgb(0%,0%,0%);fill-opacity:1;" d="M 100.664062 2.101562 L 103.433594 2.101562 C 103.601562 2.101562 103.78125 2.101562 103.78125 1.902344 C 103.78125 1.703125 103.601562 1.703125 103.433594 1.703125 L 97.503906 1.703125 C 97.355469 1.703125 97.148438 1.703125 97.148438 1.902344 C 97.148438 2.101562 97.355469 2.101562 97.503906 2.101562 L 100.265625 2.101562 L 100.265625 7.980469 C 100.265625 8.128906 100.265625 8.339844 100.464844 8.339844 C 100.664062 8.339844 100.664062 8.160156 100.664062 7.980469 L 100.664062 2.101562 "/>
<path style=" stroke:none;fill-rule:nonzero;fill:rgb(0%,0%,0%);fill-opacity:1;" d="M 121.113281 4.128906 C 121.28125 4.128906 121.472656 4.128906 121.472656 3.929688 C 121.472656 3.730469 121.292969 3.730469 121.125 3.730469 L 115.195312 3.730469 C 115.023438 3.730469 114.847656 3.730469 114.847656 3.929688 C 114.847656 4.128906 115.046875 4.128906 115.203125 4.128906 Z M 121.125 7.980469 C 121.292969 7.980469 121.472656 7.980469 121.472656 7.785156 C 121.472656 7.585938 121.28125 7.585938 121.113281 7.585938 L 115.203125 7.585938 C 115.046875 7.585938 114.847656 7.585938 114.847656 7.785156 C 114.847656 7.980469 115.023438 7.980469 115.195312 7.980469 Z M 121.125 6.054688 C 121.292969 6.054688 121.472656 6.054688 121.472656 5.855469 C 121.472656 5.65625 121.292969 5.65625 121.125 5.65625 L 115.195312 5.65625 C 115.023438 5.65625 114.847656 5.65625 114.847656 5.855469 C 114.847656 6.054688 115.023438 6.054688 115.195312 6.054688 L 121.125 6.054688 "/>
<path style=" stroke:none;fill-rule:nonzero;fill:rgb(0%,0%,0%);fill-opacity:1;" d="M 138.238281 4.277344 L 132.246094 4.277344 L 132.246094 4.675781 L 137.839844 4.675781 L 137.839844 6.292969 L 138.238281 6.292969 L 138.238281 4.277344 "/>
<path style=" stroke:none;fill-rule:nonzero;fill:rgb(0%,0%,0%);fill-opacity:1;" d="M 142.964844 2.0625 C 142.964844 1.882812 142.964844 1.703125 142.765625 1.703125 C 142.566406 1.703125 142.566406 1.914062 142.566406 2.0625 L 142.566406 7.941406 L 139.804688 7.941406 C 139.65625 7.941406 139.445312 7.941406 139.445312 8.140625 C 139.445312 8.339844 139.65625 8.339844 139.804688 8.339844 L 145.734375 8.339844 C 145.902344 8.339844 146.082031 8.339844 146.082031 8.140625 C 146.082031 7.941406 145.902344 7.941406 145.734375 7.941406 L 142.964844 7.941406 L 142.964844 2.0625 "/>
<path style=" stroke:none;fill-rule:nonzero;fill:rgb(0%,0%,0%);fill-opacity:1;" d="M 6.976562 22.386719 C 6.917969 21.871094 6.886719 20.90625 6.878906 20.449219 L 6.976562 20.371094 C 7.164062 20.417969 7.363281 20.449219 7.5625 20.449219 C 9.101562 20.449219 10.144531 18.839844 10.144531 17.378906 C 10.144531 16.636719 9.796875 15.722656 8.785156 15.722656 C 8.101562 15.722656 7.492188 16.027344 6.957031 16.457031 L 6.878906 16.417969 C 6.835938 15.980469 6.679688 15.671875 6.230469 15.671875 C 5.796875 15.671875 5.277344 16.027344 4.882812 16.347656 L 5.019531 16.535156 C 5.257812 16.394531 5.535156 16.246094 5.746094 16.246094 C 6.042969 16.246094 6.132812 16.761719 6.132812 17.210938 L 6.132812 19.40625 C 6.132812 19.972656 6.121094 22.007812 6.074219 22.585938 L 6.171875 22.695312 Z M 6.898438 19.683594 C 6.898438 19.675781 6.878906 18.652344 6.878906 17.835938 C 6.878906 17.726562 6.90625 16.972656 6.90625 16.914062 C 7.375 16.542969 7.78125 16.335938 8.289062 16.335938 C 8.921875 16.335938 9.3125 17.101562 9.3125 17.964844 C 9.3125 18.910156 8.972656 20.050781 7.773438 20.050781 C 7.445312 20.050781 7.136719 19.902344 6.898438 19.683594 "/>
<path style=" stroke:none;fill-rule:nonzero;fill:rgb(0%,0%,0%);fill-opacity:1;" d="M 11.992188 22.425781 C 12.699219 21.613281 13.027344 21.105469 13.027344 20.609375 C 13.027344 20.261719 12.679688 18.96875 12.152344 18.96875 C 11.902344 18.96875 11.566406 19.1875 11.566406 19.445312 C 11.566406 19.542969 11.59375 19.652344 11.632812 19.703125 L 12.328125 20.527344 C 12.421875 20.636719 12.460938 20.808594 12.460938 20.945312 C 12.460938 21.34375 12.152344 21.832031 11.804688 22.285156 L 11.992188 22.425781 "/>
<path style=" stroke:none;fill-rule:nonzero;fill:rgb(0%,0%,0%);fill-opacity:1;" d="M 19.460938 22.753906 L 20.265625 22.464844 C 20.1875 21.582031 20.148438 20.429688 20.148438 19.21875 C 20.148438 17.90625 20.1875 16.527344 20.289062 15.371094 L 20.078125 15.332031 L 19.640625 15.917969 L 19.550781 15.941406 C 19.273438 15.800781 18.875 15.660156 18.570312 15.660156 C 16.890625 15.660156 16.183594 17.113281 16.183594 18.492188 C 16.183594 19.328125 16.5625 20.410156 17.605469 20.410156 C 18.230469 20.410156 18.804688 20.128906 19.3125 19.753906 L 19.382812 19.804688 C 19.351562 20.757812 19.332031 22.1875 19.304688 22.59375 Z M 19.382812 19.296875 C 19.054688 19.585938 18.617188 19.792969 18.230469 19.792969 C 17.414062 19.792969 17.097656 19.050781 17.097656 18.222656 C 17.097656 17.113281 17.4375 16.027344 18.558594 16.027344 C 18.816406 16.027344 19.046875 16.167969 19.222656 16.347656 C 19.382812 16.503906 19.382812 16.804688 19.382812 17.050781 L 19.382812 19.296875 "/>
<path style=" stroke:none;fill-rule:nonzero;fill:rgb(0%,0%,0%);fill-opacity:1;" d="M 29.542969 18.054688 C 29.710938 18.054688 29.890625 18.054688 29.890625 17.855469 C 29.890625 17.65625 29.710938 17.65625 29.542969 17.65625 L 25.332031 17.65625 C 25.453125 16.328125 26.59375 15.371094 27.992188 15.371094 L 29.542969 15.371094 C 29.710938 15.371094 29.890625 15.371094 29.890625 15.175781 C 29.890625 14.976562 29.710938 14.976562 29.542969 14.976562 L 27.972656 14.976562 C 26.273438 14.976562 24.925781 16.265625 24.925781 17.855469 C 24.925781 19.445312 26.273438 20.738281 27.972656 20.738281 L 29.542969 20.738281 C 29.710938 20.738281 29.890625 20.738281 29.890625 20.539062 C 29.890625 20.339844 29.710938 20.339844 29.542969 20.339844 L 27.992188 20.339844 C 26.59375 20.339844 25.453125 19.386719 25.332031 18.054688 L 29.542969 18.054688 "/>
<path style=" stroke:none;fill-rule:nonzero;fill:rgb(0%,0%,0%);fill-opacity:1;" d="M 35.585938 14.957031 C 35.585938 14.785156 35.636719 13.785156 35.664062 13.644531 L 35.59375 13.585938 L 33.917969 13.585938 L 33.835938 13.652344 L 33.859375 13.855469 C 33.996094 13.855469 34.730469 13.972656 34.730469 14.371094 C 34.730469 14.566406 34.730469 14.757812 34.730469 14.957031 C 34.730469 15.730469 34.710938 16.515625 34.710938 17.28125 C 34.710938 17.886719 34.722656 18.621094 34.789062 19.078125 C 34.910156 19.664062 35.238281 20.429688 36.617188 20.429688 C 37.445312 20.429688 38.238281 20.089844 38.933594 19.644531 L 39.011719 19.703125 C 39.011719 20.003906 38.953125 20.390625 39.339844 20.390625 C 39.648438 20.390625 40.355469 20.179688 40.859375 20.023438 L 40.910156 19.953125 L 40.871094 19.785156 C 40.671875 19.804688 40.492188 19.863281 40.296875 19.863281 C 39.816406 19.863281 39.816406 19.148438 39.816406 18.332031 C 39.816406 16.722656 39.828125 14.648438 39.976562 13.515625 L 39.917969 13.445312 L 39.042969 13.792969 C 39.023438 15.601562 39.003906 17.417969 39.003906 19.238281 C 38.46875 19.554688 37.871094 19.824219 37.253906 19.824219 C 36.289062 19.824219 35.507812 19.335938 35.507812 17.667969 L 35.585938 14.957031 "/>
<path style=" stroke:none;fill-rule:nonzero;fill:rgb(0%,0%,0%);fill-opacity:1;" d="M 58.3125 17.070312 L 58.371094 16.675781 L 51.804688 16.675781 L 51.734375 17.070312 Z M 58.3125 19.027344 L 58.371094 18.628906 L 51.804688 18.628906 L 51.734375 19.027344 L 58.3125 19.027344 "/>
<path style=" stroke:none;fill-rule:nonzero;fill:rgb(0%,0%,0%);fill-opacity:1;" d="M 64.660156 17.089844 C 64.808594 17.230469 65.117188 17.527344 65.621094 17.855469 C 65.375 18.015625 65.054688 18.246094 64.660156 18.621094 L 57.914062 18.621094 C 57.746094 18.621094 57.554688 18.621094 57.554688 18.820312 C 57.554688 19.019531 57.734375 19.019531 57.90625 19.019531 L 64.261719 19.019531 C 63.863281 19.445312 63.25 20.269531 62.882812 21.304688 L 63.277344 21.304688 C 63.824219 19.804688 64.925781 18.582031 66.378906 17.855469 C 64.976562 17.160156 63.84375 15.957031 63.277344 14.410156 L 62.882812 14.410156 C 63.257812 15.453125 63.875 16.265625 64.261719 16.695312 L 57.90625 16.695312 C 57.734375 16.695312 57.554688 16.695312 57.554688 16.894531 C 57.554688 17.089844 57.746094 17.089844 57.914062 17.089844 L 64.660156 17.089844 "/>
<path style=" stroke:none;fill-rule:nonzero;fill:rgb(0%,0%,0%);fill-opacity:1;" d="M 78.976562 22.386719 C 78.917969 21.871094 78.886719 20.90625 78.878906 20.449219 L 78.976562 20.371094 C 79.164062 20.417969 79.363281 20.449219 79.5625 20.449219 C 81.101562 20.449219 82.144531 18.839844 82.144531 17.378906 C 82.144531 16.636719 81.796875 15.722656 80.785156 15.722656 C 80.101562 15.722656 79.492188 16.027344 78.957031 16.457031 L 78.878906 16.417969 C 78.835938 15.980469 78.679688 15.671875 78.230469 15.671875 C 77.796875 15.671875 77.277344 16.027344 76.882812 16.347656 L 77.019531 16.535156 C 77.257812 16.394531 77.535156 16.246094 77.746094 16.246094 C 78.042969 16.246094 78.132812 16.761719 78.132812 17.210938 L 78.132812 19.40625 C 78.132812 19.972656 78.121094 22.007812 78.074219 22.585938 L 78.171875 22.695312 Z M 78.898438 19.683594 C 78.898438 19.675781 78.878906 18.652344 78.878906 17.835938 C 78.878906 17.726562 78.90625 16.972656 78.90625 16.914062 C 79.375 16.542969 79.78125 16.335938 80.289062 16.335938 C 80.921875 16.335938 81.3125 17.101562 81.3125 17.964844 C 81.3125 18.910156 80.972656 20.050781 79.773438 20.050781 C 79.445312 20.050781 79.136719 19.902344 78.898438 19.683594 "/>
<path style=" stroke:none;fill-rule:nonzero;fill:rgb(0%,0%,0%);fill-opacity:1;" d="M 94.28125 18.054688 C 93.914062 18.511719 93.386719 19.296875 93.140625 20.339844 L 93.539062 20.339844 C 93.84375 19.039062 94.679688 18.136719 94.976562 17.855469 C 94.660156 17.558594 93.84375 16.664062 93.539062 15.371094 L 93.140625 15.371094 C 93.386719 16.40625 93.90625 17.191406 94.28125 17.65625 L 86.859375 17.65625 C 87.230469 17.199219 87.757812 16.417969 88.003906 15.371094 L 87.605469 15.371094 C 87.296875 16.675781 86.464844 17.578125 86.164062 17.855469 C 86.484375 18.152344 87.296875 19.050781 87.605469 20.339844 L 88.003906 20.339844 C 87.757812 19.308594 87.238281 18.523438 86.859375 18.054688 L 94.28125 18.054688 "/>
<path style=" stroke:none;fill-rule:nonzero;fill:rgb(0%,0%,0%);fill-opacity:1;" d="M 102.464844 22.753906 L 103.265625 22.464844 C 103.1875 21.582031 103.148438 20.429688 103.148438 19.21875 C 103.148438 17.90625 103.1875 16.527344 103.289062 15.371094 L 103.078125 15.332031 L 102.640625 15.917969 L 102.550781 15.941406 C 102.273438 15.800781 101.878906 15.660156 101.570312 15.660156 C 99.890625 15.660156 99.183594 17.113281 99.183594 18.492188 C 99.183594 19.328125 99.5625 20.410156 100.605469 20.410156 C 101.230469 20.410156 101.804688 20.128906 102.3125 19.753906 L 102.382812 19.804688 C 102.351562 20.757812 102.332031 22.1875 102.304688 22.59375 Z M 102.382812 19.296875 C 102.054688 19.585938 101.617188 19.792969 101.230469 19.792969 C 100.414062 19.792969 100.097656 19.050781 100.097656 18.222656 C 100.097656 17.113281 100.4375 16.027344 101.558594 16.027344 C 101.816406 16.027344 102.046875 16.167969 102.222656 16.347656 C 102.382812 16.503906 102.382812 16.804688 102.382812 17.050781 L 102.382812 19.296875 "/>
<path style=" stroke:none;fill-rule:nonzero;fill:rgb(0%,0%,0%);fill-opacity:1;" d="M 121.113281 16.128906 C 121.28125 16.128906 121.472656 16.128906 121.472656 15.929688 C 121.472656 15.730469 121.292969 15.730469 121.125 15.730469 L 115.195312 15.730469 C 115.023438 15.730469 114.847656 15.730469 114.847656 15.929688 C 114.847656 16.128906 115.046875 16.128906 115.203125 16.128906 Z M 121.125 19.980469 C 121.292969 19.980469 121.472656 19.980469 121.472656 19.785156 C 121.472656 19.585938 121.28125 19.585938 121.113281 19.585938 L 115.203125 19.585938 C 115.046875 19.585938 114.847656 19.585938 114.847656 19.785156 C 114.847656 19.980469 115.023438 19.980469 115.195312 19.980469 Z M 121.125 18.054688 C 121.292969 18.054688 121.472656 18.054688 121.472656 17.855469 C 121.472656 17.65625 121.292969 17.65625 121.125 17.65625 L 115.195312 17.65625 C 115.023438 17.65625 114.847656 17.65625 114.847656 17.855469 C 114.847656 18.054688 115.023438 18.054688 115.195312 18.054688 L 121.125 18.054688 "/>
<path style=" stroke:none;fill-rule:nonzero;fill:rgb(0%,0%,0%);fill-opacity:1;" d="M 134.992188 21.957031 C 133.710938 21.710938 133.640625 19.296875 133.640625 17.617188 C 133.640625 16.117188 133.726562 13.59375 134.992188 13.277344 L 134.992188 13.007812 C 133.957031 13.1875 133.507812 14.320312 133.320312 15.273438 C 133.171875 16.019531 133.121094 16.792969 133.121094 17.558594 C 133.121094 18.363281 133.164062 19.167969 133.300781 19.960938 C 133.46875 20.90625 133.945312 22.109375 134.992188 22.199219 L 134.992188 21.957031 "/>
<path style=" stroke:none;fill-rule:nonzero;fill:rgb(0%,0%,0%);fill-opacity:1;" d="M 137.878906 22.386719 C 137.816406 21.871094 137.789062 20.90625 137.777344 20.449219 L 137.878906 20.371094 C 138.066406 20.417969 138.265625 20.449219 138.464844 20.449219 C 140.003906 20.449219 141.046875 18.839844 141.046875 17.378906 C 141.046875 16.636719 140.699219 15.722656 139.683594 15.722656 C 139 15.722656 138.394531 16.027344 137.855469 16.457031 L 137.777344 16.417969 C 137.738281 15.980469 137.578125 15.671875 137.132812 15.671875 C 136.695312 15.671875 136.179688 16.027344 135.78125 16.347656 L 135.921875 16.535156 C 136.15625 16.394531 136.4375 16.246094 136.644531 16.246094 C 136.945312 16.246094 137.03125 16.761719 137.03125 17.210938 L 137.03125 19.40625 C 137.03125 19.972656 137.023438 22.007812 136.972656 22.585938 L 137.070312 22.695312 Z M 137.796875 19.683594 C 137.796875 19.675781 137.777344 18.652344 137.777344 17.835938 C 137.777344 17.726562 137.808594 16.972656 137.808594 16.914062 C 138.273438 16.542969 138.679688 16.335938 139.1875 16.335938 C 139.824219 16.335938 140.210938 17.101562 140.210938 17.964844 C 140.210938 18.910156 139.871094 20.050781 138.671875 20.050781 C 138.34375 20.050781 138.035156 19.902344 137.796875 19.683594 "/>
<path style=" stroke:none;fill-rule:nonzero;fill:rgb(0%,0%,0%);fill-opacity:1;" d="M 153.28125 18.054688 C 152.914062 18.511719 152.386719 19.296875 152.140625 20.339844 L 152.539062 20.339844 C 152.84375 19.039062 153.679688 18.136719 153.976562 17.855469 C 153.660156 17.558594 152.84375 16.664062 152.539062 15.371094 L 152.140625 15.371094 C 152.386719 16.40625 152.90625 17.191406 153.28125 17.65625 L 145.503906 17.65625 C 145.324219 17.65625 145.15625 17.65625 145.15625 17.855469 C 145.15625 18.054688 145.335938 18.054688 145.503906 18.054688 L 153.28125 18.054688 "/>
<path style=" stroke:none;fill-rule:nonzero;fill:rgb(0%,0%,0%);fill-opacity:1;" d="M 161.464844 22.753906 L 162.265625 22.464844 C 162.1875 21.582031 162.148438 20.429688 162.148438 19.21875 C 162.148438 17.90625 162.1875 16.527344 162.289062 15.371094 L 162.078125 15.332031 L 161.640625 15.917969 L 161.550781 15.941406 C 161.273438 15.800781 160.878906 15.660156 160.570312 15.660156 C 158.890625 15.660156 158.183594 17.113281 158.183594 18.492188 C 158.183594 19.328125 158.5625 20.410156 159.605469 20.410156 C 160.230469 20.410156 160.804688 20.128906 161.3125 19.753906 L 161.382812 19.804688 C 161.351562 20.757812 161.332031 22.1875 161.304688 22.59375 Z M 161.382812 19.296875 C 161.054688 19.585938 160.617188 19.792969 160.230469 19.792969 C 159.414062 19.792969 159.097656 19.050781 159.097656 18.222656 C 159.097656 17.113281 159.4375 16.027344 160.558594 16.027344 C 160.816406 16.027344 161.046875 16.167969 161.222656 16.347656 C 161.382812 16.503906 161.382812 16.804688 161.382812 17.050781 L 161.382812 19.296875 "/>
<path style=" stroke:none;fill-rule:nonzero;fill:rgb(0%,0%,0%);fill-opacity:1;" d="M 164.15625 13.296875 C 164.960938 13.585938 165.1875 14.519531 165.335938 15.261719 C 165.484375 16.027344 165.523438 16.824219 165.523438 17.597656 C 165.523438 18.730469 165.546875 19.941406 165.1875 21.003906 C 164.988281 21.601562 164.609375 21.859375 164.15625 21.980469 L 164.15625 22.21875 C 165.933594 21.988281 166.042969 19.335938 166.042969 17.636719 C 166.042969 15.980469 165.832031 13.375 164.15625 13.027344 L 164.15625 13.296875 "/>
<path style=" stroke:none;fill-rule:nonzero;fill:rgb(0%,0%,0%);fill-opacity:1;" d="M 173.414062 13.257812 L 173.324219 13.246094 L 169.507812 20.238281 L 169.617188 20.347656 L 169.90625 20.332031 L 173.351562 14.011719 L 176.613281 20.378906 L 177.03125 20.320312 L 173.414062 13.257812 "/>
<path style=" stroke:none;fill-rule:nonzero;fill:rgb(0%,0%,0%);fill-opacity:1;" d="M 182.289062 21.957031 C 181.007812 21.710938 180.9375 19.296875 180.9375 17.617188 C 180.9375 16.117188 181.027344 13.59375 182.289062 13.277344 L 182.289062 13.007812 C 181.257812 13.1875 180.808594 14.320312 180.621094 15.273438 C 180.472656 16.019531 180.421875 16.792969 180.421875 17.558594 C 180.421875 18.363281 180.464844 19.167969 180.601562 19.960938 C 180.769531 20.90625 181.246094 22.109375 182.289062 22.199219 L 182.289062 21.957031 "/>
<path style=" stroke:none;fill-rule:nonzero;fill:rgb(0%,0%,0%);fill-opacity:1;" d="M 185.175781 22.386719 C 185.117188 21.871094 185.089844 20.90625 185.078125 20.449219 L 185.175781 20.371094 C 185.367188 20.417969 185.5625 20.449219 185.761719 20.449219 C 187.304688 20.449219 188.34375 18.839844 188.34375 17.378906 C 188.34375 16.636719 187.996094 15.722656 186.984375 15.722656 C 186.300781 15.722656 185.695312 16.027344 185.15625 16.457031 L 185.078125 16.417969 C 185.039062 15.980469 184.878906 15.671875 184.429688 15.671875 C 183.996094 15.671875 183.476562 16.027344 183.082031 16.347656 L 183.21875 16.535156 C 183.457031 16.394531 183.734375 16.246094 183.945312 16.246094 C 184.242188 16.246094 184.332031 16.761719 184.332031 17.210938 L 184.332031 19.40625 C 184.332031 19.972656 184.320312 22.007812 184.273438 22.585938 L 184.371094 22.695312 Z M 185.097656 19.683594 C 185.097656 19.675781 185.078125 18.652344 185.078125 17.835938 C 185.078125 17.726562 185.109375 16.972656 185.109375 16.914062 C 185.574219 16.542969 185.980469 16.335938 186.488281 16.335938 C 187.121094 16.335938 187.511719 17.101562 187.511719 17.964844 C 187.511719 18.910156 187.171875 20.050781 185.972656 20.050781 C 185.644531 20.050781 185.335938 19.902344 185.097656 19.683594 "/>
<path style=" stroke:none;fill-rule:nonzero;fill:rgb(0%,0%,0%);fill-opacity:1;" d="M 200.582031 18.054688 C 200.214844 18.511719 199.6875 19.296875 199.4375 20.339844 L 199.839844 20.339844 C 200.144531 19.039062 200.980469 18.136719 201.277344 17.855469 C 200.960938 17.558594 200.144531 16.664062 199.839844 15.371094 L 199.4375 15.371094 C 199.6875 16.40625 200.203125 17.191406 200.582031 17.65625 L 192.804688 17.65625 C 192.625 17.65625 192.457031 17.65625 192.457031 17.855469 C 192.457031 18.054688 192.632812 18.054688 192.804688 18.054688 L 200.582031 18.054688 "/>
<path style=" stroke:none;fill-rule:nonzero;fill:rgb(0%,0%,0%);fill-opacity:1;" d="M 208.761719 22.753906 L 209.566406 22.464844 C 209.488281 21.582031 209.445312 20.429688 209.445312 19.21875 C 209.445312 17.90625 209.488281 16.527344 209.589844 15.371094 L 209.378906 15.332031 L 208.941406 15.917969 L 208.851562 15.941406 C 208.574219 15.800781 208.175781 15.660156 207.867188 15.660156 C 206.1875 15.660156 205.484375 17.113281 205.484375 18.492188 C 205.484375 19.328125 205.859375 20.410156 206.90625 20.410156 C 207.53125 20.410156 208.105469 20.128906 208.613281 19.753906 L 208.683594 19.804688 C 208.652344 20.757812 208.632812 22.1875 208.601562 22.59375 Z M 208.683594 19.296875 C 208.355469 19.585938 207.917969 19.792969 207.53125 19.792969 C 206.714844 19.792969 206.398438 19.050781 206.398438 18.222656 C 206.398438 17.113281 206.734375 16.027344 207.859375 16.027344 C 208.117188 16.027344 208.34375 16.167969 208.523438 16.347656 C 208.683594 16.503906 208.683594 16.804688 208.683594 17.050781 L 208.683594 19.296875 "/>
<path style=" stroke:none;fill-rule:nonzero;fill:rgb(0%,0%,0%);fill-opacity:1;" d="M 211.453125 13.296875 C 212.257812 13.585938 212.488281 14.519531 212.636719 15.261719 C 212.785156 16.027344 212.824219 16.824219 212.824219 17.597656 C 212.824219 18.730469 212.84375 19.941406 212.488281 21.003906 C 212.289062 21.601562 211.910156 21.859375 211.453125 21.980469 L 211.453125 22.21875 C 213.234375 21.988281 213.34375 19.335938 213.34375 17.636719 C 213.34375 15.980469 213.132812 13.375 211.453125 13.027344 L 211.453125 13.296875 "/>
<path style=" stroke:none;fill-rule:nonzero;fill:rgb(0%,0%,0%);fill-opacity:1;" d="M 6.976562 34.988281 C 6.917969 34.46875 6.886719 33.503906 6.878906 33.050781 L 6.976562 32.96875 C 7.164062 33.019531 7.363281 33.050781 7.5625 33.050781 C 9.101562 33.050781 10.144531 31.441406 10.144531 29.980469 C 10.144531 29.234375 9.796875 28.320312 8.785156 28.320312 C 8.101562 28.320312 7.492188 28.628906 6.957031 29.054688 L 6.878906 29.015625 C 6.835938 28.578125 6.679688 28.269531 6.230469 28.269531 C 5.796875 28.269531 5.277344 28.628906 4.882812 28.945312 L 5.019531 29.136719 C 5.257812 28.996094 5.535156 28.847656 5.746094 28.847656 C 6.042969 28.847656 6.132812 29.363281 6.132812 29.808594 L 6.132812 32.003906 C 6.132812 32.574219 6.121094 34.609375 6.074219 35.183594 L 6.171875 35.292969 Z M 6.898438 32.285156 C 6.898438 32.273438 6.878906 31.25 6.878906 30.4375 C 6.878906 30.328125 6.90625 29.574219 6.90625 29.511719 C 7.375 29.144531 7.78125 28.9375 8.289062 28.9375 C 8.921875 28.9375 9.3125 29.699219 9.3125 30.566406 C 9.3125 31.511719 8.972656 32.652344 7.773438 32.652344 C 7.445312 32.652344 7.136719 32.503906 6.898438 32.285156 "/>
<path style=" stroke:none;fill-rule:nonzero;fill:rgb(0%,0%,0%);fill-opacity:1;" d="M 11.992188 35.027344 C 12.699219 34.210938 13.027344 33.707031 13.027344 33.207031 C 13.027344 32.859375 12.679688 31.570312 12.152344 31.570312 C 11.902344 31.570312 11.566406 31.789062 11.566406 32.046875 C 11.566406 32.144531 11.59375 32.253906 11.632812 32.304688 L 12.328125 33.128906 C 12.421875 33.238281 12.460938 33.40625 12.460938 33.546875 C 12.460938 33.941406 12.152344 34.429688 11.804688 34.886719 L 11.992188 35.027344 "/>
<path style=" stroke:none;fill-rule:nonzero;fill:rgb(0%,0%,0%);fill-opacity:1;" d="M 19.460938 35.355469 L 20.265625 35.066406 C 20.1875 34.183594 20.148438 33.027344 20.148438 31.816406 C 20.148438 30.503906 20.1875 29.125 20.289062 27.972656 L 20.078125 27.933594 L 19.640625 28.519531 L 19.550781 28.539062 C 19.273438 28.402344 18.875 28.261719 18.570312 28.261719 C 16.890625 28.261719 16.183594 29.710938 16.183594 31.089844 C 16.183594 31.925781 16.5625 33.011719 17.605469 33.011719 C 18.230469 33.011719 18.804688 32.730469 19.3125 32.355469 L 19.382812 32.402344 C 19.351562 33.355469 19.332031 34.789062 19.304688 35.195312 Z M 19.382812 31.894531 C 19.054688 32.183594 18.617188 32.394531 18.230469 32.394531 C 17.414062 32.394531 17.097656 31.648438 17.097656 30.824219 C 17.097656 29.710938 17.4375 28.628906 18.558594 28.628906 C 18.816406 28.628906 19.046875 28.769531 19.222656 28.945312 C 19.382812 29.105469 19.382812 29.402344 19.382812 29.652344 L 19.382812 31.894531 "/>
<path style=" stroke:none;fill-rule:nonzero;fill:rgb(0%,0%,0%);fill-opacity:1;" d="M 29.542969 30.65625 C 29.710938 30.65625 29.890625 30.65625 29.890625 30.457031 C 29.890625 30.257812 29.710938 30.257812 29.542969 30.257812 L 25.332031 30.257812 C 25.453125 28.925781 26.59375 27.972656 27.992188 27.972656 L 29.542969 27.972656 C 29.710938 27.972656 29.890625 27.972656 29.890625 27.773438 C 29.890625 27.574219 29.710938 27.574219 29.542969 27.574219 L 27.972656 27.574219 C 26.273438 27.574219 24.925781 28.867188 24.925781 30.457031 C 24.925781 32.046875 26.273438 33.335938 27.972656 33.335938 L 29.542969 33.335938 C 29.710938 33.335938 29.890625 33.335938 29.890625 33.136719 C 29.890625 32.941406 29.710938 32.941406 29.542969 32.941406 L 27.992188 32.941406 C 26.59375 32.941406 25.453125 31.988281 25.332031 30.65625 L 29.542969 30.65625 "/>
<path style=" stroke:none;fill-rule:nonzero;fill:rgb(0%,0%,0%);fill-opacity:1;" d="M 35.585938 27.554688 C 35.585938 27.386719 35.636719 26.382812 35.664062 26.246094 L 35.59375 26.183594 L 33.917969 26.183594 L 33.835938 26.253906 L 33.859375 26.453125 C 33.996094 26.453125 34.730469 26.574219 34.730469 26.96875 C 34.730469 27.167969 34.730469 27.355469 34.730469 27.554688 C 34.730469 28.332031 34.710938 29.113281 34.710938 29.878906 C 34.710938 30.488281 34.722656 31.222656 34.789062 31.679688 C 34.910156 32.265625 35.238281 33.027344 36.617188 33.027344 C 37.445312 33.027344 38.238281 32.691406 38.933594 32.246094 L 39.011719 32.304688 C 39.011719 32.601562 38.953125 32.988281 39.339844 32.988281 C 39.648438 32.988281 40.355469 32.78125 40.859375 32.621094 L 40.910156 32.550781 L 40.871094 32.382812 C 40.671875 32.402344 40.492188 32.464844 40.296875 32.464844 C 39.816406 32.464844 39.816406 31.746094 39.816406 30.933594 C 39.816406 29.324219 39.828125 27.246094 39.976562 26.113281 L 39.917969 26.046875 L 39.042969 26.394531 C 39.023438 28.199219 39.003906 30.019531 39.003906 31.835938 C 38.46875 32.15625 37.871094 32.421875 37.253906 32.421875 C 36.289062 32.421875 35.507812 31.9375 35.507812 30.269531 L 35.585938 27.554688 "/>
<path style=" stroke:none;fill-rule:nonzero;fill:rgb(0%,0%,0%);fill-opacity:1;" d="M 58.3125 29.671875 L 58.371094 29.273438 L 51.804688 29.273438 L 51.734375 29.671875 Z M 58.3125 31.628906 L 58.371094 31.230469 L 51.804688 31.230469 L 51.734375 31.628906 L 58.3125 31.628906 "/>
<path style=" stroke:none;fill-rule:nonzero;fill:rgb(0%,0%,0%);fill-opacity:1;" d="M 64.660156 29.691406 C 64.808594 29.832031 65.117188 30.128906 65.621094 30.457031 C 65.375 30.613281 65.054688 30.84375 64.660156 31.222656 L 57.914062 31.222656 C 57.746094 31.222656 57.554688 31.222656 57.554688 31.417969 C 57.554688 31.617188 57.734375 31.617188 57.90625 31.617188 L 64.261719 31.617188 C 63.863281 32.046875 63.25 32.871094 62.882812 33.902344 L 63.277344 33.902344 C 63.824219 32.402344 64.925781 31.183594 66.378906 30.457031 C 64.976562 29.761719 63.84375 28.558594 63.277344 27.011719 L 62.882812 27.011719 C 63.257812 28.050781 63.875 28.867188 64.261719 29.292969 L 57.90625 29.292969 C 57.734375 29.292969 57.554688 29.292969 57.554688 29.492188 C 57.554688 29.691406 57.746094 29.691406 57.914062 29.691406 L 64.660156 29.691406 "/>
<path style=" stroke:none;fill-rule:nonzero;fill:rgb(0%,0%,0%);fill-opacity:1;" d="M 86.675781 34.988281 C 86.617188 34.46875 86.585938 33.503906 86.578125 33.050781 L 86.675781 32.96875 C 86.867188 33.019531 87.0625 33.050781 87.261719 33.050781 C 88.804688 33.050781 89.84375 31.441406 89.84375 29.980469 C 89.84375 29.234375 89.5 28.320312 88.484375 28.320312 C 87.800781 28.320312 87.195312 28.628906 86.65625 29.054688 L 86.578125 29.015625 C 86.539062 28.578125 86.378906 28.269531 85.929688 28.269531 C 85.496094 28.269531 84.976562 28.628906 84.582031 28.945312 L 84.71875 29.136719 C 84.957031 28.996094 85.234375 28.847656 85.445312 28.847656 C 85.742188 28.847656 85.832031 29.363281 85.832031 29.808594 L 85.832031 32.003906 C 85.832031 32.574219 85.820312 34.609375 85.773438 35.183594 L 85.871094 35.292969 Z M 86.597656 32.285156 C 86.597656 32.273438 86.578125 31.25 86.578125 30.4375 C 86.578125 30.328125 86.609375 29.574219 86.609375 29.511719 C 87.074219 29.144531 87.480469 28.9375 87.988281 28.9375 C 88.625 28.9375 89.011719 29.699219 89.011719 30.566406 C 89.011719 31.511719 88.671875 32.652344 87.472656 32.652344 C 87.144531 32.652344 86.835938 32.503906 86.597656 32.285156 "/>
<path style="fill:none;stroke-width:3.98;stroke-linecap:butt;stroke-linejoin:miter;stroke:rgb(0%,0%,0%);stroke-opacity:1;stroke-miterlimit:10;" d="M 906.132812 239.321875 L 983.359375 239.321875 " transform="matrix(0.1,0,0,-0.1,0,48.44)"/>
<path style=" stroke:none;fill-rule:nonzero;fill:rgb(0%,0%,0%);fill-opacity:1;" d="M 94.613281 25.855469 L 94.523438 25.847656 L 90.710938 32.839844 L 90.820312 32.949219 L 91.105469 32.929688 L 94.554688 26.613281 L 97.8125 32.980469 L 98.230469 32.917969 L 94.613281 25.855469 "/>
<path style=" stroke:none;fill-rule:nonzero;fill:rgb(0%,0%,0%);fill-opacity:1;" d="M 102.464844 35.355469 L 103.265625 35.066406 C 103.1875 34.183594 103.148438 33.027344 103.148438 31.816406 C 103.148438 30.503906 103.1875 29.125 103.289062 27.972656 L 103.078125 27.933594 L 102.640625 28.519531 L 102.550781 28.539062 C 102.273438 28.402344 101.878906 28.261719 101.570312 28.261719 C 99.890625 28.261719 99.183594 29.710938 99.183594 31.089844 C 99.183594 31.925781 99.5625 33.011719 100.605469 33.011719 C 101.230469 33.011719 101.804688 32.730469 102.3125 32.355469 L 102.382812 32.402344 C 102.351562 33.355469 102.332031 34.789062 102.304688 35.195312 Z M 102.382812 31.894531 C 102.054688 32.183594 101.617188 32.394531 101.230469 32.394531 C 100.414062 32.394531 100.097656 31.648438 100.097656 30.824219 C 100.097656 29.710938 100.4375 28.628906 101.558594 28.628906 C 101.816406 28.628906 102.046875 28.769531 102.222656 28.945312 C 102.382812 29.105469 102.382812 29.402344 102.382812 29.652344 L 102.382812 31.894531 "/>
<path style=" stroke:none;fill-rule:nonzero;fill:rgb(0%,0%,0%);fill-opacity:1;" d="M 121.113281 28.726562 C 121.28125 28.726562 121.472656 28.726562 121.472656 28.527344 C 121.472656 28.332031 121.292969 28.332031 121.125 28.332031 L 115.195312 28.332031 C 115.023438 28.332031 114.847656 28.332031 114.847656 28.527344 C 114.847656 28.726562 115.046875 28.726562 115.203125 28.726562 Z M 121.125 32.582031 C 121.292969 32.582031 121.472656 32.582031 121.472656 32.382812 C 121.472656 32.183594 121.28125 32.183594 121.113281 32.183594 L 115.203125 32.183594 C 115.046875 32.183594 114.847656 32.183594 114.847656 32.382812 C 114.847656 32.582031 115.023438 32.582031 115.195312 32.582031 Z M 121.125 30.65625 C 121.292969 30.65625 121.472656 30.65625 121.472656 30.457031 C 121.472656 30.257812 121.292969 30.257812 121.125 30.257812 L 115.195312 30.257812 C 115.023438 30.257812 114.847656 30.257812 114.847656 30.457031 C 114.847656 30.65625 115.023438 30.65625 115.195312 30.65625 L 121.125 30.65625 "/>
<path style=" stroke:none;fill-rule:nonzero;fill:rgb(0%,0%,0%);fill-opacity:1;" d="M 134.992188 34.558594 C 133.710938 34.308594 133.640625 31.894531 133.640625 30.21875 C 133.640625 28.71875 133.726562 26.195312 134.992188 25.878906 L 134.992188 25.609375 C 133.957031 25.789062 133.507812 26.917969 133.320312 27.875 C 133.171875 28.617188 133.121094 29.394531 133.121094 30.160156 C 133.121094 30.964844 133.164062 31.769531 133.300781 32.5625 C 133.46875 33.503906 133.945312 34.707031 134.992188 34.796875 L 134.992188 34.558594 "/>
<path style=" stroke:none;fill-rule:nonzero;fill:rgb(0%,0%,0%);fill-opacity:1;" d="M 137.878906 34.988281 C 137.816406 34.46875 137.789062 33.503906 137.777344 33.050781 L 137.878906 32.96875 C 138.066406 33.019531 138.265625 33.050781 138.464844 33.050781 C 140.003906 33.050781 141.046875 31.441406 141.046875 29.980469 C 141.046875 29.234375 140.699219 28.320312 139.683594 28.320312 C 139 28.320312 138.394531 28.628906 137.855469 29.054688 L 137.777344 29.015625 C 137.738281 28.578125 137.578125 28.269531 137.132812 28.269531 C 136.695312 28.269531 136.179688 28.628906 135.78125 28.945312 L 135.921875 29.136719 C 136.15625 28.996094 136.4375 28.847656 136.644531 28.847656 C 136.945312 28.847656 137.03125 29.363281 137.03125 29.808594 L 137.03125 32.003906 C 137.03125 32.574219 137.023438 34.609375 136.972656 35.183594 L 137.070312 35.292969 Z M 137.796875 32.285156 C 137.796875 32.273438 137.777344 31.25 137.777344 30.4375 C 137.777344 30.328125 137.808594 29.574219 137.808594 29.511719 C 138.273438 29.144531 138.679688 28.9375 139.1875 28.9375 C 139.824219 28.9375 140.210938 29.699219 140.210938 30.566406 C 140.210938 31.511719 139.871094 32.652344 138.671875 32.652344 C 138.34375 32.652344 138.035156 32.503906 137.796875 32.285156 "/>
<path style=" stroke:none;fill-rule:nonzero;fill:rgb(0%,0%,0%);fill-opacity:1;" d="M 151.507812 26.144531 L 151.46875 26.105469 L 151.082031 26.105469 L 147.726562 32.355469 L 144.476562 26.144531 L 144.058594 26.214844 L 147.644531 33.058594 L 147.796875 33.058594 L 151.507812 26.144531 "/>
<path style=" stroke:none;fill-rule:nonzero;fill:rgb(0%,0%,0%);fill-opacity:1;" d="M 160.140625 28.878906 L 154.148438 28.878906 L 154.148438 29.273438 L 159.742188 29.273438 L 159.742188 30.894531 L 160.140625 30.894531 L 160.140625 28.878906 "/>
<path style=" stroke:none;fill-rule:nonzero;fill:rgb(0%,0%,0%);fill-opacity:1;" d="M 164.964844 35.355469 L 165.765625 35.066406 C 165.6875 34.183594 165.648438 33.027344 165.648438 31.816406 C 165.648438 30.503906 165.6875 29.125 165.789062 27.972656 L 165.578125 27.933594 L 165.140625 28.519531 L 165.050781 28.539062 C 164.773438 28.402344 164.378906 28.261719 164.070312 28.261719 C 162.390625 28.261719 161.683594 29.710938 161.683594 31.089844 C 161.683594 31.925781 162.0625 33.011719 163.105469 33.011719 C 163.730469 33.011719 164.304688 32.730469 164.8125 32.355469 L 164.882812 32.402344 C 164.851562 33.355469 164.832031 34.789062 164.804688 35.195312 Z M 164.882812 31.894531 C 164.554688 32.183594 164.117188 32.394531 163.730469 32.394531 C 162.914062 32.394531 162.597656 31.648438 162.597656 30.824219 C 162.597656 29.710938 162.9375 28.628906 164.058594 28.628906 C 164.316406 28.628906 164.546875 28.769531 164.722656 28.945312 C 164.882812 29.105469 164.882812 29.402344 164.882812 29.652344 L 164.882812 31.894531 "/>
<path style=" stroke:none;fill-rule:nonzero;fill:rgb(0%,0%,0%);fill-opacity:1;" d="M 167.65625 25.894531 C 168.460938 26.183594 168.6875 27.117188 168.835938 27.863281 C 168.984375 28.628906 169.023438 29.421875 169.023438 30.199219 C 169.023438 31.332031 169.046875 32.542969 168.6875 33.605469 C 168.488281 34.199219 168.109375 34.460938 167.65625 34.578125 L 167.65625 34.816406 C 169.433594 34.589844 169.542969 31.9375 169.542969 30.238281 C 169.542969 28.578125 169.332031 25.976562 167.65625 25.628906 L 167.65625 25.894531 "/>
<path style=" stroke:none;fill-rule:nonzero;fill:rgb(0%,0%,0%);fill-opacity:1;" d="M 176.914062 25.855469 L 176.824219 25.847656 L 173.007812 32.839844 L 173.117188 32.949219 L 173.40625 32.929688 L 176.851562 26.613281 L 180.113281 32.980469 L 180.53125 32.917969 L 176.914062 25.855469 "/>
<path style=" stroke:none;fill-rule:nonzero;fill:rgb(0%,0%,0%);fill-opacity:1;" d="M 185.789062 34.558594 C 184.507812 34.308594 184.4375 31.894531 184.4375 30.21875 C 184.4375 28.71875 184.527344 26.195312 185.789062 25.878906 L 185.789062 25.609375 C 184.757812 25.789062 184.308594 26.917969 184.121094 27.875 C 183.972656 28.617188 183.921875 29.394531 183.921875 30.160156 C 183.921875 30.964844 183.964844 31.769531 184.101562 32.5625 C 184.269531 33.503906 184.746094 34.707031 185.789062 34.796875 L 185.789062 34.558594 "/>
<path style=" stroke:none;fill-rule:nonzero;fill:rgb(0%,0%,0%);fill-opacity:1;" d="M 192.9375 28.878906 L 186.949219 28.878906 L 186.949219 29.273438 L 192.539062 29.273438 L 192.539062 30.894531 L 192.9375 30.894531 L 192.9375 28.878906 "/>
<path style=" stroke:none;fill-rule:nonzero;fill:rgb(0%,0%,0%);fill-opacity:1;" d="M 195.476562 34.988281 C 195.417969 34.46875 195.386719 33.503906 195.378906 33.050781 L 195.476562 32.96875 C 195.664062 33.019531 195.863281 33.050781 196.0625 33.050781 C 197.601562 33.050781 198.644531 31.441406 198.644531 29.980469 C 198.644531 29.234375 198.296875 28.320312 197.285156 28.320312 C 196.601562 28.320312 195.992188 28.628906 195.457031 29.054688 L 195.378906 29.015625 C 195.339844 28.578125 195.179688 28.269531 194.730469 28.269531 C 194.296875 28.269531 193.777344 28.628906 193.382812 28.945312 L 193.519531 29.136719 C 193.757812 28.996094 194.035156 28.847656 194.246094 28.847656 C 194.542969 28.847656 194.632812 29.363281 194.632812 29.808594 L 194.632812 32.003906 C 194.632812 32.574219 194.621094 34.609375 194.574219 35.183594 L 194.671875 35.292969 Z M 195.398438 32.285156 C 195.398438 32.273438 195.378906 31.25 195.378906 30.4375 C 195.378906 30.328125 195.40625 29.574219 195.40625 29.511719 C 195.871094 29.144531 196.28125 28.9375 196.789062 28.9375 C 197.421875 28.9375 197.8125 29.699219 197.8125 30.566406 C 197.8125 31.511719 197.472656 32.652344 196.273438 32.652344 C 195.945312 32.652344 195.636719 32.503906 195.398438 32.285156 "/>
<path style=" stroke:none;fill-rule:nonzero;fill:rgb(0%,0%,0%);fill-opacity:1;" d="M 209.109375 26.144531 L 209.070312 26.105469 L 208.683594 26.105469 L 205.324219 32.355469 L 202.078125 26.144531 L 201.660156 26.214844 L 205.246094 33.058594 L 205.394531 33.058594 L 209.109375 26.144531 "/>
<path style=" stroke:none;fill-rule:nonzero;fill:rgb(0%,0%,0%);fill-opacity:1;" d="M 215.664062 35.355469 L 216.46875 35.066406 C 216.386719 34.183594 216.347656 33.027344 216.347656 31.816406 C 216.347656 30.503906 216.386719 29.125 216.488281 27.972656 L 216.277344 27.933594 L 215.839844 28.519531 L 215.753906 28.539062 C 215.472656 28.402344 215.078125 28.261719 214.769531 28.261719 C 213.089844 28.261719 212.382812 29.710938 212.382812 31.089844 C 212.382812 31.925781 212.761719 33.011719 213.804688 33.011719 C 214.429688 33.011719 215.007812 32.730469 215.511719 32.355469 L 215.582031 32.402344 C 215.554688 33.355469 215.53125 34.789062 215.503906 35.195312 Z M 215.582031 31.894531 C 215.253906 32.183594 214.816406 32.394531 214.429688 32.394531 C 213.617188 32.394531 213.296875 31.648438 213.296875 30.824219 C 213.296875 29.710938 213.636719 28.628906 214.757812 28.628906 C 215.015625 28.628906 215.246094 28.769531 215.421875 28.945312 C 215.582031 29.105469 215.582031 29.402344 215.582031 29.652344 L 215.582031 31.894531 "/>
<path style=" stroke:none;fill-rule:nonzero;fill:rgb(0%,0%,0%);fill-opacity:1;" d="M 218.453125 25.894531 C 219.257812 26.183594 219.488281 27.117188 219.636719 27.863281 C 219.785156 28.628906 219.824219 29.421875 219.824219 30.199219 C 219.824219 31.332031 219.84375 32.542969 219.488281 33.605469 C 219.289062 34.199219 218.910156 34.460938 218.453125 34.578125 L 218.453125 34.816406 C 220.234375 34.589844 220.34375 31.9375 220.34375 30.238281 C 220.34375 28.578125 220.132812 25.976562 218.453125 25.628906 L 218.453125 25.894531 "/>
<path style=" stroke:none;fill-rule:nonzero;fill:rgb(0%,0%,0%);fill-opacity:1;" d="M 6.976562 46.886719 C 6.917969 46.371094 6.886719 45.40625 6.878906 44.949219 L 6.976562 44.871094 C 7.164062 44.917969 7.363281 44.949219 7.5625 44.949219 C 9.101562 44.949219 10.144531 43.339844 10.144531 41.878906 C 10.144531 41.136719 9.796875 40.222656 8.785156 40.222656 C 8.101562 40.222656 7.492188 40.527344 6.957031 40.957031 L 6.878906 40.917969 C 6.835938 40.480469 6.679688 40.171875 6.230469 40.171875 C 5.796875 40.171875 5.277344 40.527344 4.882812 40.847656 L 5.019531 41.035156 C 5.257812 40.894531 5.535156 40.746094 5.746094 40.746094 C 6.042969 40.746094 6.132812 41.261719 6.132812 41.710938 L 6.132812 43.90625 C 6.132812 44.472656 6.121094 46.507812 6.074219 47.085938 L 6.171875 47.195312 Z M 6.898438 44.183594 C 6.898438 44.175781 6.878906 43.152344 6.878906 42.335938 C 6.878906 42.226562 6.90625 41.472656 6.90625 41.414062 C 7.375 41.042969 7.78125 40.835938 8.289062 40.835938 C 8.921875 40.835938 9.3125 41.601562 9.3125 42.464844 C 9.3125 43.410156 8.972656 44.550781 7.773438 44.550781 C 7.445312 44.550781 7.136719 44.402344 6.898438 44.183594 "/>
<path style=" stroke:none;fill-rule:nonzero;fill:rgb(0%,0%,0%);fill-opacity:1;" d="M 11.992188 46.925781 C 12.699219 46.113281 13.027344 45.605469 13.027344 45.109375 C 13.027344 44.761719 12.679688 43.46875 12.152344 43.46875 C 11.902344 43.46875 11.566406 43.6875 11.566406 43.945312 C 11.566406 44.042969 11.59375 44.152344 11.632812 44.203125 L 12.328125 45.027344 C 12.421875 45.136719 12.460938 45.308594 12.460938 45.445312 C 12.460938 45.84375 12.152344 46.332031 11.804688 46.785156 L 11.992188 46.925781 "/>
<path style=" stroke:none;fill-rule:nonzero;fill:rgb(0%,0%,0%);fill-opacity:1;" d="M 19.460938 47.253906 L 20.265625 46.964844 C 20.1875 46.082031 20.148438 44.929688 20.148438 43.71875 C 20.148438 42.40625 20.1875 41.027344 20.289062 39.871094 L 20.078125 39.832031 L 19.640625 40.417969 L 19.550781 40.441406 C 19.273438 40.300781 18.875 40.160156 18.570312 40.160156 C 16.890625 40.160156 16.183594 41.613281 16.183594 42.992188 C 16.183594 43.828125 16.5625 44.910156 17.605469 44.910156 C 18.230469 44.910156 18.804688 44.628906 19.3125 44.253906 L 19.382812 44.304688 C 19.351562 45.257812 19.332031 46.6875 19.304688 47.09375 Z M 19.382812 43.796875 C 19.054688 44.085938 18.617188 44.292969 18.230469 44.292969 C 17.414062 44.292969 17.097656 43.550781 17.097656 42.722656 C 17.097656 41.613281 17.4375 40.527344 18.558594 40.527344 C 18.816406 40.527344 19.046875 40.667969 19.222656 40.847656 C 19.382812 41.003906 19.382812 41.304688 19.382812 41.550781 L 19.382812 43.796875 "/>
<path style=" stroke:none;fill-rule:nonzero;fill:rgb(0%,0%,0%);fill-opacity:1;" d="M 29.542969 42.554688 C 29.710938 42.554688 29.890625 42.554688 29.890625 42.355469 C 29.890625 42.15625 29.710938 42.15625 29.542969 42.15625 L 25.332031 42.15625 C 25.453125 40.828125 26.59375 39.871094 27.992188 39.871094 L 29.542969 39.871094 C 29.710938 39.871094 29.890625 39.871094 29.890625 39.675781 C 29.890625 39.476562 29.710938 39.476562 29.542969 39.476562 L 27.972656 39.476562 C 26.273438 39.476562 24.925781 40.765625 24.925781 42.355469 C 24.925781 43.945312 26.273438 45.238281 27.972656 45.238281 L 29.542969 45.238281 C 29.710938 45.238281 29.890625 45.238281 29.890625 45.039062 C 29.890625 44.839844 29.710938 44.839844 29.542969 44.839844 L 27.992188 44.839844 C 26.59375 44.839844 25.453125 43.886719 25.332031 42.554688 L 29.542969 42.554688 "/>
<path style=" stroke:none;fill-rule:nonzero;fill:rgb(0%,0%,0%);fill-opacity:1;" d="M 35.585938 39.457031 C 35.585938 39.285156 35.636719 38.285156 35.664062 38.144531 L 35.59375 38.085938 L 33.917969 38.085938 L 33.835938 38.152344 L 33.859375 38.355469 C 33.996094 38.355469 34.730469 38.472656 34.730469 38.871094 C 34.730469 39.066406 34.730469 39.257812 34.730469 39.457031 C 34.730469 40.230469 34.710938 41.015625 34.710938 41.78125 C 34.710938 42.386719 34.722656 43.121094 34.789062 43.578125 C 34.910156 44.164062 35.238281 44.929688 36.617188 44.929688 C 37.445312 44.929688 38.238281 44.589844 38.933594 44.144531 L 39.011719 44.203125 C 39.011719 44.503906 38.953125 44.890625 39.339844 44.890625 C 39.648438 44.890625 40.355469 44.679688 40.859375 44.523438 L 40.910156 44.453125 L 40.871094 44.285156 C 40.671875 44.304688 40.492188 44.363281 40.296875 44.363281 C 39.816406 44.363281 39.816406 43.648438 39.816406 42.832031 C 39.816406 41.222656 39.828125 39.148438 39.976562 38.015625 L 39.917969 37.945312 L 39.042969 38.292969 C 39.023438 40.101562 39.003906 41.917969 39.003906 43.738281 C 38.46875 44.054688 37.871094 44.324219 37.253906 44.324219 C 36.289062 44.324219 35.507812 43.835938 35.507812 42.167969 L 35.585938 39.457031 "/>
<path style=" stroke:none;fill-rule:nonzero;fill:rgb(0%,0%,0%);fill-opacity:1;" d="M 58.3125 41.570312 L 58.371094 41.175781 L 51.804688 41.175781 L 51.734375 41.570312 Z M 58.3125 43.527344 L 58.371094 43.128906 L 51.804688 43.128906 L 51.734375 43.527344 L 58.3125 43.527344 "/>
<path style=" stroke:none;fill-rule:nonzero;fill:rgb(0%,0%,0%);fill-opacity:1;" d="M 64.660156 41.589844 C 64.808594 41.730469 65.117188 42.027344 65.621094 42.355469 C 65.375 42.515625 65.054688 42.746094 64.660156 43.121094 L 57.914062 43.121094 C 57.746094 43.121094 57.554688 43.121094 57.554688 43.320312 C 57.554688 43.519531 57.734375 43.519531 57.90625 43.519531 L 64.261719 43.519531 C 63.863281 43.945312 63.25 44.769531 62.882812 45.804688 L 63.277344 45.804688 C 63.824219 44.304688 64.925781 43.082031 66.378906 42.355469 C 64.976562 41.660156 63.84375 40.457031 63.277344 38.910156 L 62.882812 38.910156 C 63.257812 39.953125 63.875 40.765625 64.261719 41.195312 L 57.90625 41.195312 C 57.734375 41.195312 57.554688 41.195312 57.554688 41.394531 C 57.554688 41.589844 57.746094 41.589844 57.914062 41.589844 L 64.660156 41.589844 "/>
<path style=" stroke:none;fill-rule:nonzero;fill:rgb(0%,0%,0%);fill-opacity:1;" d="M 86.675781 46.886719 C 86.617188 46.371094 86.585938 45.40625 86.578125 44.949219 L 86.675781 44.871094 C 86.867188 44.917969 87.0625 44.949219 87.261719 44.949219 C 88.804688 44.949219 89.84375 43.339844 89.84375 41.878906 C 89.84375 41.136719 89.5 40.222656 88.484375 40.222656 C 87.800781 40.222656 87.195312 40.527344 86.65625 40.957031 L 86.578125 40.917969 C 86.539062 40.480469 86.378906 40.171875 85.929688 40.171875 C 85.496094 40.171875 84.976562 40.527344 84.582031 40.847656 L 84.71875 41.035156 C 84.957031 40.894531 85.234375 40.746094 85.445312 40.746094 C 85.742188 40.746094 85.832031 41.261719 85.832031 41.710938 L 85.832031 43.90625 C 85.832031 44.472656 85.820312 46.507812 85.773438 47.085938 L 85.871094 47.195312 Z M 86.597656 44.183594 C 86.597656 44.175781 86.578125 43.152344 86.578125 42.335938 C 86.578125 42.226562 86.609375 41.472656 86.609375 41.414062 C 87.074219 41.042969 87.480469 40.835938 87.988281 40.835938 C 88.625 40.835938 89.011719 41.601562 89.011719 42.464844 C 89.011719 43.410156 88.671875 44.550781 87.472656 44.550781 C 87.144531 44.550781 86.835938 44.402344 86.597656 44.183594 "/>
<path style=" stroke:none;fill-rule:nonzero;fill:rgb(0%,0%,0%);fill-opacity:1;" d="M 98.109375 38.042969 L 98.070312 38.003906 L 97.683594 38.003906 L 94.324219 44.253906 L 91.078125 38.042969 L 90.660156 38.113281 L 94.246094 44.957031 L 94.394531 44.957031 L 98.109375 38.042969 "/>
<path style="fill:none;stroke-width:3.98;stroke-linecap:butt;stroke-linejoin:miter;stroke:rgb(0%,0%,0%);stroke-opacity:1;stroke-miterlimit:10;" d="M 906.132812 21.939062 L 983.359375 21.939062 " transform="matrix(0.1,0,0,-0.1,0,48.44)"/>
<path style=" stroke:none;fill-rule:nonzero;fill:rgb(0%,0%,0%);fill-opacity:1;" d="M 102.464844 47.253906 L 103.265625 46.964844 C 103.1875 46.082031 103.148438 44.929688 103.148438 43.71875 C 103.148438 42.40625 103.1875 41.027344 103.289062 39.871094 L 103.078125 39.832031 L 102.640625 40.417969 L 102.550781 40.441406 C 102.273438 40.300781 101.878906 40.160156 101.570312 40.160156 C 99.890625 40.160156 99.183594 41.613281 99.183594 42.992188 C 99.183594 43.828125 99.5625 44.910156 100.605469 44.910156 C 101.230469 44.910156 101.804688 44.628906 102.3125 44.253906 L 102.382812 44.304688 C 102.351562 45.257812 102.332031 46.6875 102.304688 47.09375 Z M 102.382812 43.796875 C 102.054688 44.085938 101.617188 44.292969 101.230469 44.292969 C 100.414062 44.292969 100.097656 43.550781 100.097656 42.722656 C 100.097656 41.613281 100.4375 40.527344 101.558594 40.527344 C 101.816406 40.527344 102.046875 40.667969 102.222656 40.847656 C 102.382812 41.003906 102.382812 41.304688 102.382812 41.550781 L 102.382812 43.796875 "/>
<path style=" stroke:none;fill-rule:nonzero;fill:rgb(0%,0%,0%);fill-opacity:1;" d="M 121.113281 40.628906 C 121.28125 40.628906 121.472656 40.628906 121.472656 40.429688 C 121.472656 40.230469 121.292969 40.230469 121.125 40.230469 L 115.195312 40.230469 C 115.023438 40.230469 114.847656 40.230469 114.847656 40.429688 C 114.847656 40.628906 115.046875 40.628906 115.203125 40.628906 Z M 121.125 44.480469 C 121.292969 44.480469 121.472656 44.480469 121.472656 44.285156 C 121.472656 44.085938 121.28125 44.085938 121.113281 44.085938 L 115.203125 44.085938 C 115.046875 44.085938 114.847656 44.085938 114.847656 44.285156 C 114.847656 44.480469 115.023438 44.480469 115.195312 44.480469 Z M 121.125 42.554688 C 121.292969 42.554688 121.472656 42.554688 121.472656 42.355469 C 121.472656 42.15625 121.292969 42.15625 121.125 42.15625 L 115.195312 42.15625 C 115.023438 42.15625 114.847656 42.15625 114.847656 42.355469 C 114.847656 42.554688 115.023438 42.554688 115.195312 42.554688 L 121.125 42.554688 "/>
<path style=" stroke:none;fill-rule:nonzero;fill:rgb(0%,0%,0%);fill-opacity:1;" d="M 134.992188 46.457031 C 133.710938 46.210938 133.640625 43.796875 133.640625 42.117188 C 133.640625 40.617188 133.726562 38.09375 134.992188 37.777344 L 134.992188 37.507812 C 133.957031 37.6875 133.507812 38.820312 133.320312 39.773438 C 133.171875 40.519531 133.121094 41.292969 133.121094 42.058594 C 133.121094 42.863281 133.164062 43.667969 133.300781 44.460938 C 133.46875 45.40625 133.945312 46.609375 134.992188 46.699219 L 134.992188 46.457031 "/>
<path style=" stroke:none;fill-rule:nonzero;fill:rgb(0%,0%,0%);fill-opacity:1;" d="M 137.878906 46.886719 C 137.816406 46.371094 137.789062 45.40625 137.777344 44.949219 L 137.878906 44.871094 C 138.066406 44.917969 138.265625 44.949219 138.464844 44.949219 C 140.003906 44.949219 141.046875 43.339844 141.046875 41.878906 C 141.046875 41.136719 140.699219 40.222656 139.683594 40.222656 C 139 40.222656 138.394531 40.527344 137.855469 40.957031 L 137.777344 40.917969 C 137.738281 40.480469 137.578125 40.171875 137.132812 40.171875 C 136.695312 40.171875 136.179688 40.527344 135.78125 40.847656 L 135.921875 41.035156 C 136.15625 40.894531 136.4375 40.746094 136.644531 40.746094 C 136.945312 40.746094 137.03125 41.261719 137.03125 41.710938 L 137.03125 43.90625 C 137.03125 44.472656 137.023438 46.507812 136.972656 47.085938 L 137.070312 47.195312 Z M 137.796875 44.183594 C 137.796875 44.175781 137.777344 43.152344 137.777344 42.335938 C 137.777344 42.226562 137.808594 41.472656 137.808594 41.414062 C 138.273438 41.042969 138.679688 40.835938 139.1875 40.835938 C 139.824219 40.835938 140.210938 41.601562 140.210938 42.464844 C 140.210938 43.410156 139.871094 44.550781 138.671875 44.550781 C 138.34375 44.550781 138.035156 44.402344 137.796875 44.183594 "/>
<path style=" stroke:none;fill-rule:nonzero;fill:rgb(0%,0%,0%);fill-opacity:1;" d="M 148.011719 37.757812 L 147.921875 37.746094 L 144.109375 44.738281 L 144.21875 44.847656 L 144.507812 44.832031 L 147.953125 38.511719 L 151.214844 44.878906 L 151.628906 44.820312 L 148.011719 37.757812 "/>
<path style=" stroke:none;fill-rule:nonzero;fill:rgb(0%,0%,0%);fill-opacity:1;" d="M 160.140625 40.777344 L 154.148438 40.777344 L 154.148438 41.175781 L 159.742188 41.175781 L 159.742188 42.792969 L 160.140625 42.792969 L 160.140625 40.777344 "/>
<path style=" stroke:none;fill-rule:nonzero;fill:rgb(0%,0%,0%);fill-opacity:1;" d="M 164.964844 47.253906 L 165.765625 46.964844 C 165.6875 46.082031 165.648438 44.929688 165.648438 43.71875 C 165.648438 42.40625 165.6875 41.027344 165.789062 39.871094 L 165.578125 39.832031 L 165.140625 40.417969 L 165.050781 40.441406 C 164.773438 40.300781 164.378906 40.160156 164.070312 40.160156 C 162.390625 40.160156 161.683594 41.613281 161.683594 42.992188 C 161.683594 43.828125 162.0625 44.910156 163.105469 44.910156 C 163.730469 44.910156 164.304688 44.628906 164.8125 44.253906 L 164.882812 44.304688 C 164.851562 45.257812 164.832031 46.6875 164.804688 47.09375 Z M 164.882812 43.796875 C 164.554688 44.085938 164.117188 44.292969 163.730469 44.292969 C 162.914062 44.292969 162.597656 43.550781 162.597656 42.722656 C 162.597656 41.613281 162.9375 40.527344 164.058594 40.527344 C 164.316406 40.527344 164.546875 40.667969 164.722656 40.847656 C 164.882812 41.003906 164.882812 41.304688 164.882812 41.550781 L 164.882812 43.796875 "/>
<path style=" stroke:none;fill-rule:nonzero;fill:rgb(0%,0%,0%);fill-opacity:1;" d="M 167.65625 37.796875 C 168.460938 38.085938 168.6875 39.019531 168.835938 39.761719 C 168.984375 40.527344 169.023438 41.324219 169.023438 42.097656 C 169.023438 43.230469 169.046875 44.441406 168.6875 45.503906 C 168.488281 46.101562 168.109375 46.359375 167.65625 46.480469 L 167.65625 46.71875 C 169.433594 46.488281 169.542969 43.835938 169.542969 42.136719 C 169.542969 40.480469 169.332031 37.875 167.65625 37.527344 L 167.65625 37.796875 "/>
<path style=" stroke:none;fill-rule:nonzero;fill:rgb(0%,0%,0%);fill-opacity:1;" d="M 180.410156 38.042969 L 180.371094 38.003906 L 179.984375 38.003906 L 176.625 44.253906 L 173.378906 38.042969 L 172.960938 38.113281 L 176.546875 44.957031 L 176.695312 44.957031 L 180.410156 38.042969 "/>
<path style=" stroke:none;fill-rule:nonzero;fill:rgb(0%,0%,0%);fill-opacity:1;" d="M 185.789062 46.457031 C 184.507812 46.210938 184.4375 43.796875 184.4375 42.117188 C 184.4375 40.617188 184.527344 38.09375 185.789062 37.777344 L 185.789062 37.507812 C 184.757812 37.6875 184.308594 38.820312 184.121094 39.773438 C 183.972656 40.519531 183.921875 41.292969 183.921875 42.058594 C 183.921875 42.863281 183.964844 43.667969 184.101562 44.460938 C 184.269531 45.40625 184.746094 46.609375 185.789062 46.699219 L 185.789062 46.457031 "/>
<path style=" stroke:none;fill-rule:nonzero;fill:rgb(0%,0%,0%);fill-opacity:1;" d="M 192.9375 40.777344 L 186.949219 40.777344 L 186.949219 41.175781 L 192.539062 41.175781 L 192.539062 42.792969 L 192.9375 42.792969 L 192.9375 40.777344 "/>
<path style=" stroke:none;fill-rule:nonzero;fill:rgb(0%,0%,0%);fill-opacity:1;" d="M 195.476562 46.886719 C 195.417969 46.371094 195.386719 45.40625 195.378906 44.949219 L 195.476562 44.871094 C 195.664062 44.917969 195.863281 44.949219 196.0625 44.949219 C 197.601562 44.949219 198.644531 43.339844 198.644531 41.878906 C 198.644531 41.136719 198.296875 40.222656 197.285156 40.222656 C 196.601562 40.222656 195.992188 40.527344 195.457031 40.957031 L 195.378906 40.917969 C 195.339844 40.480469 195.179688 40.171875 194.730469 40.171875 C 194.296875 40.171875 193.777344 40.527344 193.382812 40.847656 L 193.519531 41.035156 C 193.757812 40.894531 194.035156 40.746094 194.246094 40.746094 C 194.542969 40.746094 194.632812 41.261719 194.632812 41.710938 L 194.632812 43.90625 C 194.632812 44.472656 194.621094 46.507812 194.574219 47.085938 L 194.671875 47.195312 Z M 195.398438 44.183594 C 195.398438 44.175781 195.378906 43.152344 195.378906 42.335938 C 195.378906 42.226562 195.40625 41.472656 195.40625 41.414062 C 195.871094 41.042969 196.28125 40.835938 196.789062 40.835938 C 197.421875 40.835938 197.8125 41.601562 197.8125 42.464844 C 197.8125 43.410156 197.472656 44.550781 196.273438 44.550781 C 195.945312 44.550781 195.636719 44.402344 195.398438 44.183594 "/>
<path style=" stroke:none;fill-rule:nonzero;fill:rgb(0%,0%,0%);fill-opacity:1;" d="M 205.613281 37.757812 L 205.523438 37.746094 L 201.710938 44.738281 L 201.820312 44.847656 L 202.105469 44.832031 L 205.554688 38.511719 L 208.8125 44.878906 L 209.230469 44.820312 L 205.613281 37.757812 "/>
<path style=" stroke:none;fill-rule:nonzero;fill:rgb(0%,0%,0%);fill-opacity:1;" d="M 215.664062 47.253906 L 216.46875 46.964844 C 216.386719 46.082031 216.347656 44.929688 216.347656 43.71875 C 216.347656 42.40625 216.386719 41.027344 216.488281 39.871094 L 216.277344 39.832031 L 215.839844 40.417969 L 215.753906 40.441406 C 215.472656 40.300781 215.078125 40.160156 214.769531 40.160156 C 213.089844 40.160156 212.382812 41.613281 212.382812 42.992188 C 212.382812 43.828125 212.761719 44.910156 213.804688 44.910156 C 214.429688 44.910156 215.007812 44.628906 215.511719 44.253906 L 215.582031 44.304688 C 215.554688 45.257812 215.53125 46.6875 215.503906 47.09375 Z M 215.582031 43.796875 C 215.253906 44.085938 214.816406 44.292969 214.429688 44.292969 C 213.617188 44.292969 213.296875 43.550781 213.296875 42.722656 C 213.296875 41.613281 213.636719 40.527344 214.757812 40.527344 C 215.015625 40.527344 215.246094 40.667969 215.421875 40.847656 C 215.582031 41.003906 215.582031 41.304688 215.582031 41.550781 L 215.582031 43.796875 "/>
<path style=" stroke:none;fill-rule:nonzero;fill:rgb(0%,0%,0%);fill-opacity:1;" d="M 218.453125 37.796875 C 219.257812 38.085938 219.488281 39.019531 219.636719 39.761719 C 219.785156 40.527344 219.824219 41.324219 219.824219 42.097656 C 219.824219 43.230469 219.84375 44.441406 219.488281 45.503906 C 219.289062 46.101562 218.910156 46.359375 218.453125 46.480469 L 218.453125 46.71875 C 220.234375 46.488281 220.34375 43.835938 220.34375 42.136719 C 220.34375 40.480469 220.132812 37.875 218.453125 37.527344 L 218.453125 37.796875 "/>
</g>
</svg>
