<?xml version="1.0" encoding="UTF-8"?>
<svg xmlns="http://www.w3.org/2000/svg" xmlns:xlink="http://www.w3.org/1999/xlink" width="405.16pt" height="63.86pt" viewBox="0 0 405.16 63.86" version="1.1">
<defs>
<clipPath id="clip1">
  <path d="M 211 26 L 405.160156 26 L 405.160156 27 L 211 27 Z M 211 26 "/>
</clipPath>
<clipPath id="clip2">
  <path d="M 70 39 L 405.160156 39 L 405.160156 41 L 70 41 Z M 70 39 "/>
</clipPath>
<clipPath id="clip3">
  <path d="M 34 52 L 405.160156 52 L 405.160156 53 L 34 53 Z M 34 52 "/>
</clipPath>
<clipPath id="clip4">
  <path d="M 217 57 L 223 57 L 223 63.859375 L 217 63.859375 Z M 217 57 "/>
</clipPath>
<clipPath id="clip5">
  <path d="M 238 57 L 244 57 L 244 63.859375 L 238 63.859375 Z M 238 57 "/>
</clipPath>
</defs>
<g id="surface1">
<path style=" stroke:none;fill-rule:nonzero;fill:rgb(0%,0%,0%);fill-opacity:1;" d="M 2.992188 56.777344 C 1.710938 56.53125 1.640625 54.117188 1.640625 52.4375 C 1.640625 50.9375 1.726562 48.414062 2.992188 48.097656 L 2.992188 47.828125 C 1.957031 48.007812 1.507812 49.140625 1.320312 50.09375 C 1.171875 50.839844 1.121094 51.613281 1.121094 52.378906 C 1.121094 53.183594 1.164062 53.988281 1.300781 54.78125 C 1.46875 55.726562 1.945312 56.929688 2.992188 57.019531 L 2.992188 56.777344 "/>
<path style=" stroke:none;fill-rule:nonzero;fill:rgb(0%,0%,0%);fill-opacity:1;" d="M 12.582031 52.875 C 12.214844 53.332031 11.6875 54.117188 11.4375 55.160156 L 11.835938 55.160156 C 12.144531 53.859375 12.980469 52.957031 13.277344 52.675781 C 12.960938 52.378906 12.144531 51.484375 11.835938 50.191406 L 11.4375 50.191406 C 11.6875 51.226562 12.203125 52.011719 12.582031 52.476562 L 4.804688 52.476562 C 4.625 52.476562 4.457031 52.476562 4.457031 52.675781 C 4.457031 52.875 4.632812 52.875 4.804688 52.875 L 12.582031 52.875 "/>
<path style=" stroke:none;fill-rule:nonzero;fill:rgb(0%,0%,0%);fill-opacity:1;" d="M 17.238281 55.167969 L 17.257812 54.933594 C 17.246094 54.933594 16.820312 54.824219 16.609375 54.761719 C 16.195312 54.652344 16.304688 53.910156 16.292969 53.480469 C 16.28125 52.875 16.273438 52.261719 16.273438 51.59375 C 16.273438 50.820312 16.214844 49.636719 16.304688 49.050781 C 16.3125 48.933594 16.390625 48.824219 16.523438 48.792969 L 17.1875 48.644531 L 17.1875 48.433594 L 17.128906 48.375 L 14.644531 48.375 L 14.574219 48.433594 L 14.574219 48.652344 C 15.367188 48.832031 15.4375 48.78125 15.460938 49.082031 C 15.488281 49.457031 15.488281 49.835938 15.488281 50.222656 L 15.488281 53.828125 C 15.449219 54.652344 15.578125 54.722656 14.605469 54.910156 L 14.605469 55.167969 L 17.238281 55.167969 "/>
<path style=" stroke:none;fill-rule:nonzero;fill:rgb(0%,0%,0%);fill-opacity:1;" d="M 18.65625 48.117188 C 19.460938 48.40625 19.6875 49.339844 19.835938 50.082031 C 19.984375 50.847656 20.023438 51.644531 20.023438 52.417969 C 20.023438 53.550781 20.046875 54.761719 19.6875 55.824219 C 19.488281 56.421875 19.109375 56.679688 18.65625 56.800781 L 18.65625 57.039062 C 20.433594 56.808594 20.542969 54.15625 20.542969 52.457031 C 20.542969 50.800781 20.332031 48.195312 18.65625 47.847656 L 18.65625 48.117188 "/>
<path style=" stroke:none;fill-rule:nonzero;fill:rgb(0%,0%,0%);fill-opacity:1;" d="M 39.089844 44.179688 C 37.808594 43.929688 37.738281 41.515625 37.738281 39.839844 C 37.738281 38.339844 37.828125 35.816406 39.089844 35.496094 L 39.089844 35.230469 C 38.054688 35.410156 37.609375 36.539062 37.421875 37.496094 C 37.273438 38.238281 37.222656 39.011719 37.222656 39.777344 C 37.222656 40.582031 37.261719 41.386719 37.402344 42.183594 C 37.570312 43.125 38.046875 44.328125 39.089844 44.417969 L 39.089844 44.179688 "/>
<path style=" stroke:none;fill-rule:nonzero;fill:rgb(0%,0%,0%);fill-opacity:1;" d="M 47.507812 35.765625 L 47.46875 35.726562 L 47.082031 35.726562 L 43.726562 41.972656 L 40.476562 35.765625 L 40.058594 35.835938 L 43.644531 42.679688 L 43.796875 42.679688 L 47.507812 35.765625 "/>
<path style=" stroke:none;fill-rule:nonzero;fill:rgb(0%,0%,0%);fill-opacity:1;" d="M 52.230469 39.222656 L 52.289062 38.746094 L 52.230469 38.675781 C 51.703125 38.714844 50.96875 38.746094 50.441406 38.746094 C 50.074219 38.746094 49.785156 38.777344 49.785156 38.605469 L 49.785156 36.957031 C 49.785156 36.609375 49.828125 36.242188 50.023438 36.203125 L 50.421875 36.203125 C 50.492188 36.203125 51.8125 36.261719 52.5 36.300781 L 52.539062 36.230469 L 52.558594 35.734375 C 52.429688 35.726562 52.28125 35.726562 52.101562 35.726562 C 51.394531 35.734375 50.390625 35.785156 49.695312 35.785156 L 48.226562 35.792969 L 48.15625 35.863281 L 48.167969 36.0625 C 48.632812 36.132812 48.863281 36.253906 48.921875 36.382812 C 49.011719 36.582031 49.011719 36.878906 49.011719 37.015625 L 49.011719 41.902344 C 49.011719 42.171875 49.070312 42.449219 49.269531 42.558594 L 53.125 42.558594 L 53.253906 42.035156 L 53.203125 41.984375 C 51.574219 42.121094 51.34375 42.121094 50.878906 42.121094 C 50.273438 42.121094 50.0625 42.0625 49.925781 41.804688 C 49.785156 41.558594 49.777344 41.070312 49.777344 40.691406 L 49.777344 39.3125 C 49.777344 39.132812 50.480469 39.164062 51.058594 39.164062 C 51.445312 39.164062 51.84375 39.191406 52.230469 39.222656 "/>
<path style=" stroke:none;fill-rule:nonzero;fill:rgb(0%,0%,0%);fill-opacity:1;" d="M 54.554688 35.515625 C 55.359375 35.804688 55.585938 36.738281 55.734375 37.484375 C 55.886719 38.25 55.925781 39.042969 55.925781 39.816406 C 55.925781 40.949219 55.945312 42.164062 55.585938 43.226562 C 55.390625 43.820312 55.011719 44.082031 54.554688 44.199219 L 54.554688 44.4375 C 56.332031 44.207031 56.441406 41.558594 56.441406 39.859375 C 56.441406 38.199219 56.234375 35.597656 54.554688 35.25 L 54.554688 35.515625 "/>
<path style=" stroke:none;fill-rule:nonzero;fill:rgb(0%,0%,0%);fill-opacity:1;" d="M 80.566406 31.8125 C 80.734375 31.8125 80.914062 31.8125 80.914062 31.613281 C 80.914062 31.414062 80.734375 31.414062 80.566406 31.414062 L 76.34375 31.414062 L 76.34375 28.523438 C 76.34375 28.34375 76.34375 28.167969 76.144531 28.167969 C 75.945312 28.167969 75.945312 28.375 75.945312 28.523438 L 75.945312 34.703125 C 75.945312 34.851562 75.945312 35.058594 76.144531 35.058594 C 76.34375 35.058594 76.34375 34.882812 76.34375 34.703125 L 76.34375 31.8125 L 80.566406 31.8125 "/>
<path style=" stroke:none;fill-rule:nonzero;fill:rgb(0%,0%,0%);fill-opacity:1;" d="M 86.277344 37.105469 C 86.21875 36.589844 86.1875 35.625 86.179688 35.167969 L 86.277344 35.089844 C 86.464844 35.140625 86.664062 35.167969 86.863281 35.167969 C 88.402344 35.167969 89.445312 33.558594 89.445312 32.097656 C 89.445312 31.355469 89.097656 30.441406 88.085938 30.441406 C 87.398438 30.441406 86.792969 30.75 86.257812 31.175781 L 86.179688 31.136719 C 86.136719 30.699219 85.976562 30.390625 85.53125 30.390625 C 85.09375 30.390625 84.578125 30.75 84.179688 31.066406 L 84.320312 31.253906 C 84.558594 31.117188 84.835938 30.96875 85.046875 30.96875 C 85.34375 30.96875 85.433594 31.484375 85.433594 31.929688 L 85.433594 34.125 C 85.433594 34.691406 85.421875 36.730469 85.375 37.304688 L 85.472656 37.414062 Z M 86.195312 34.402344 C 86.195312 34.394531 86.179688 33.371094 86.179688 32.558594 C 86.179688 32.449219 86.207031 31.691406 86.207031 31.632812 C 86.671875 31.265625 87.082031 31.058594 87.585938 31.058594 C 88.222656 31.058594 88.609375 31.820312 88.609375 32.6875 C 88.609375 33.628906 88.273438 34.773438 87.070312 34.773438 C 86.742188 34.773438 86.4375 34.621094 86.195312 34.402344 "/>
<path style=" stroke:none;fill-rule:nonzero;fill:rgb(0%,0%,0%);fill-opacity:1;" d="M 99.910156 28.265625 L 99.871094 28.226562 L 99.484375 28.226562 L 96.125 34.472656 L 92.875 28.265625 L 92.460938 28.335938 L 96.046875 35.179688 L 96.195312 35.179688 L 99.910156 28.265625 "/>
<path style=" stroke:none;fill-rule:nonzero;fill:rgb(0%,0%,0%);fill-opacity:1;" d="M 108.539062 30.996094 L 102.546875 30.996094 L 102.546875 31.394531 L 108.140625 31.394531 L 108.140625 33.011719 L 108.539062 33.011719 L 108.539062 30.996094 "/>
<path style=" stroke:none;fill-rule:nonzero;fill:rgb(0%,0%,0%);fill-opacity:1;" d="M 111.078125 37.105469 C 111.015625 36.589844 110.988281 35.625 110.976562 35.167969 L 111.078125 35.089844 C 111.265625 35.140625 111.464844 35.167969 111.664062 35.167969 C 113.203125 35.167969 114.246094 33.558594 114.246094 32.097656 C 114.246094 31.355469 113.898438 30.441406 112.882812 30.441406 C 112.199219 30.441406 111.59375 30.75 111.054688 31.175781 L 110.976562 31.136719 C 110.9375 30.699219 110.777344 30.390625 110.332031 30.390625 C 109.894531 30.390625 109.378906 30.75 108.980469 31.066406 L 109.121094 31.253906 C 109.359375 31.117188 109.636719 30.96875 109.84375 30.96875 C 110.144531 30.96875 110.234375 31.484375 110.234375 31.929688 L 110.234375 34.125 C 110.234375 34.691406 110.222656 36.730469 110.171875 37.304688 L 110.273438 37.414062 Z M 110.996094 34.402344 C 110.996094 34.394531 110.976562 33.371094 110.976562 32.558594 C 110.976562 32.449219 111.007812 31.691406 111.007812 31.632812 C 111.472656 31.265625 111.882812 31.058594 112.386719 31.058594 C 113.023438 31.058594 113.410156 31.820312 113.410156 32.6875 C 113.410156 33.628906 113.074219 34.773438 111.871094 34.773438 C 111.542969 34.773438 111.234375 34.621094 110.996094 34.402344 "/>
<path style=" stroke:none;fill-rule:nonzero;fill:rgb(0%,0%,0%);fill-opacity:1;" d="M 136.878906 37.105469 C 136.816406 36.589844 136.789062 35.625 136.777344 35.167969 L 136.878906 35.089844 C 137.066406 35.140625 137.265625 35.167969 137.464844 35.167969 C 139.003906 35.167969 140.046875 33.558594 140.046875 32.097656 C 140.046875 31.355469 139.699219 30.441406 138.683594 30.441406 C 138 30.441406 137.394531 30.75 136.855469 31.175781 L 136.777344 31.136719 C 136.738281 30.699219 136.578125 30.390625 136.132812 30.390625 C 135.695312 30.390625 135.179688 30.75 134.78125 31.066406 L 134.921875 31.253906 C 135.15625 31.117188 135.4375 30.96875 135.644531 30.96875 C 135.945312 30.96875 136.03125 31.484375 136.03125 31.929688 L 136.03125 34.125 C 136.03125 34.691406 136.023438 36.730469 135.972656 37.304688 L 136.070312 37.414062 Z M 136.796875 34.402344 C 136.796875 34.394531 136.777344 33.371094 136.777344 32.558594 C 136.777344 32.449219 136.808594 31.691406 136.808594 31.632812 C 137.273438 31.265625 137.679688 31.058594 138.1875 31.058594 C 138.824219 31.058594 139.210938 31.820312 139.210938 32.6875 C 139.210938 33.628906 138.871094 34.773438 137.671875 34.773438 C 137.34375 34.773438 137.035156 34.621094 136.796875 34.402344 "/>
<path style=" stroke:none;fill-rule:nonzero;fill:rgb(0%,0%,0%);fill-opacity:1;" d="M 148.664062 31.8125 C 148.835938 31.8125 149.011719 31.8125 149.011719 31.613281 C 149.011719 31.414062 148.835938 31.414062 148.664062 31.414062 L 144.445312 31.414062 L 144.445312 28.523438 C 144.445312 28.34375 144.445312 28.167969 144.246094 28.167969 C 144.046875 28.167969 144.046875 28.375 144.046875 28.523438 L 144.046875 34.703125 C 144.046875 34.851562 144.046875 35.058594 144.246094 35.058594 C 144.445312 35.058594 144.445312 34.882812 144.445312 34.703125 L 144.445312 31.8125 L 148.664062 31.8125 "/>
<path style=" stroke:none;fill-rule:nonzero;fill:rgb(0%,0%,0%);fill-opacity:1;" d="M 154.378906 37.105469 C 154.316406 36.589844 154.289062 35.625 154.277344 35.167969 L 154.378906 35.089844 C 154.566406 35.140625 154.765625 35.167969 154.964844 35.167969 C 156.503906 35.167969 157.546875 33.558594 157.546875 32.097656 C 157.546875 31.355469 157.199219 30.441406 156.183594 30.441406 C 155.5 30.441406 154.894531 30.75 154.355469 31.175781 L 154.277344 31.136719 C 154.238281 30.699219 154.078125 30.390625 153.632812 30.390625 C 153.195312 30.390625 152.679688 30.75 152.28125 31.066406 L 152.421875 31.253906 C 152.65625 31.117188 152.9375 30.96875 153.144531 30.96875 C 153.445312 30.96875 153.53125 31.484375 153.53125 31.929688 L 153.53125 34.125 C 153.53125 34.691406 153.523438 36.730469 153.472656 37.304688 L 153.570312 37.414062 Z M 154.296875 34.402344 C 154.296875 34.394531 154.277344 33.371094 154.277344 32.558594 C 154.277344 32.449219 154.308594 31.691406 154.308594 31.632812 C 154.773438 31.265625 155.179688 31.058594 155.6875 31.058594 C 156.324219 31.058594 156.710938 31.820312 156.710938 32.6875 C 156.710938 33.628906 156.371094 34.773438 155.171875 34.773438 C 154.84375 34.773438 154.535156 34.621094 154.296875 34.402344 "/>
<path style=" stroke:none;fill-rule:nonzero;fill:rgb(0%,0%,0%);fill-opacity:1;" d="M 177.890625 30.777344 C 176.609375 30.53125 176.539062 28.117188 176.539062 26.4375 C 176.539062 24.9375 176.628906 22.414062 177.890625 22.097656 L 177.890625 21.828125 C 176.855469 22.007812 176.410156 23.140625 176.222656 24.09375 C 176.070312 24.839844 176.023438 25.613281 176.023438 26.378906 C 176.023438 27.183594 176.0625 27.988281 176.203125 28.78125 C 176.371094 29.726562 176.847656 30.929688 177.890625 31.019531 L 177.890625 30.777344 "/>
<path style=" stroke:none;fill-rule:nonzero;fill:rgb(0%,0%,0%);fill-opacity:1;" d="M 187.484375 26.875 C 187.113281 27.332031 186.589844 28.117188 186.339844 29.160156 L 186.738281 29.160156 C 187.046875 27.859375 187.878906 26.957031 188.179688 26.675781 C 187.859375 26.378906 187.046875 25.484375 186.738281 24.191406 L 186.339844 24.191406 C 186.589844 25.226562 187.105469 26.011719 187.484375 26.476562 L 179.703125 26.476562 C 179.523438 26.476562 179.355469 26.476562 179.355469 26.675781 C 179.355469 26.875 179.535156 26.875 179.703125 26.875 L 187.484375 26.875 "/>
<path style=" stroke:none;fill-rule:nonzero;fill:rgb(0%,0%,0%);fill-opacity:1;" d="M 193.230469 25.824219 L 193.289062 25.347656 L 193.230469 25.277344 C 192.703125 25.316406 191.96875 25.347656 191.441406 25.347656 C 191.074219 25.347656 190.785156 25.375 190.785156 25.207031 L 190.785156 23.558594 C 190.785156 23.210938 190.828125 22.84375 191.023438 22.800781 L 191.421875 22.800781 C 191.492188 22.800781 192.8125 22.863281 193.496094 22.902344 L 193.539062 22.832031 L 193.558594 22.335938 C 193.429688 22.324219 193.28125 22.324219 193.101562 22.324219 C 192.394531 22.335938 191.390625 22.386719 190.695312 22.386719 L 189.226562 22.394531 L 189.15625 22.464844 L 189.167969 22.664062 C 189.632812 22.734375 189.863281 22.851562 189.921875 22.980469 C 190.011719 23.179688 190.011719 23.476562 190.011719 23.617188 L 190.011719 28.503906 C 190.011719 28.773438 190.070312 29.050781 190.269531 29.160156 L 194.121094 29.160156 L 194.253906 28.632812 L 194.203125 28.582031 C 192.574219 28.722656 192.34375 28.722656 191.878906 28.722656 C 191.273438 28.722656 191.0625 28.664062 190.925781 28.40625 C 190.785156 28.15625 190.777344 27.667969 190.777344 27.292969 L 190.777344 25.910156 C 190.777344 25.734375 191.480469 25.761719 192.058594 25.761719 C 192.445312 25.761719 192.84375 25.792969 193.230469 25.824219 "/>
<path style=" stroke:none;fill-rule:nonzero;fill:rgb(0%,0%,0%);fill-opacity:1;" d="M 195.554688 22.117188 C 196.359375 22.40625 196.589844 23.339844 196.734375 24.082031 C 196.886719 24.847656 196.925781 25.644531 196.925781 26.417969 C 196.925781 27.550781 196.945312 28.761719 196.589844 29.824219 C 196.390625 30.421875 196.011719 30.679688 195.554688 30.800781 L 195.554688 31.039062 C 197.332031 30.808594 197.441406 28.15625 197.441406 26.457031 C 197.441406 24.800781 197.234375 22.195312 195.554688 21.847656 L 195.554688 22.117188 "/>
<path style=" stroke:none;fill-rule:nonzero;fill:rgb(0%,0%,0%);fill-opacity:1;" d="M 216.089844 17.480469 C 214.808594 17.230469 214.738281 14.816406 214.738281 13.136719 C 214.738281 11.636719 214.828125 9.113281 216.089844 8.796875 L 216.089844 8.527344 C 215.054688 8.707031 214.609375 9.839844 214.421875 10.792969 C 214.273438 11.539062 214.222656 12.3125 214.222656 13.078125 C 214.222656 13.882812 214.261719 14.6875 214.402344 15.480469 C 214.570312 16.425781 215.046875 17.628906 216.089844 17.71875 L 216.089844 17.480469 "/>
<path style=" stroke:none;fill-rule:nonzero;fill:rgb(0%,0%,0%);fill-opacity:1;" d="M 225.683594 13.574219 C 225.3125 14.03125 224.789062 14.816406 224.539062 15.859375 L 224.9375 15.859375 C 225.246094 14.558594 226.078125 13.65625 226.378906 13.378906 C 226.058594 13.078125 225.246094 12.183594 224.9375 10.894531 L 224.539062 10.894531 C 224.789062 11.925781 225.304688 12.710938 225.683594 13.175781 L 217.90625 13.175781 C 217.726562 13.175781 217.554688 13.175781 217.554688 13.378906 C 217.554688 13.574219 217.734375 13.574219 217.90625 13.574219 L 225.683594 13.574219 "/>
<path style=" stroke:none;fill-rule:nonzero;fill:rgb(0%,0%,0%);fill-opacity:1;" d="M 231.429688 12.523438 L 231.488281 12.046875 L 231.429688 11.976562 C 230.902344 12.015625 230.167969 12.046875 229.640625 12.046875 C 229.273438 12.046875 228.984375 12.074219 228.984375 11.90625 L 228.984375 10.257812 C 228.984375 9.910156 229.027344 9.542969 229.226562 9.503906 L 229.621094 9.503906 C 229.691406 9.503906 231.011719 9.5625 231.699219 9.601562 L 231.738281 9.53125 L 231.757812 9.035156 C 231.628906 9.027344 231.480469 9.027344 231.300781 9.027344 C 230.59375 9.035156 229.59375 9.085938 228.898438 9.085938 L 227.425781 9.09375 L 227.355469 9.164062 L 227.367188 9.363281 C 227.835938 9.433594 228.0625 9.550781 228.121094 9.683594 C 228.210938 9.878906 228.210938 10.175781 228.210938 10.316406 L 228.210938 15.203125 C 228.210938 15.472656 228.269531 15.75 228.46875 15.859375 L 232.324219 15.859375 L 232.453125 15.332031 L 232.402344 15.285156 C 230.773438 15.421875 230.546875 15.421875 230.078125 15.421875 C 229.472656 15.421875 229.265625 15.363281 229.125 15.105469 C 228.984375 14.855469 228.976562 14.371094 228.976562 13.992188 L 228.976562 12.613281 C 228.976562 12.433594 229.679688 12.464844 230.257812 12.464844 C 230.644531 12.464844 231.042969 12.492188 231.429688 12.523438 "/>
<path style=" stroke:none;fill-rule:nonzero;fill:rgb(0%,0%,0%);fill-opacity:1;" d="M 233.855469 8.816406 C 234.660156 9.105469 234.886719 10.039062 235.035156 10.785156 C 235.1875 11.550781 235.226562 12.34375 235.226562 13.117188 C 235.226562 14.25 235.246094 15.464844 234.886719 16.527344 C 234.6875 17.121094 234.3125 17.378906 233.855469 17.5 L 233.855469 17.738281 C 235.632812 17.507812 235.742188 14.855469 235.742188 13.160156 C 235.742188 11.5 235.53125 8.894531 233.855469 8.550781 L 233.855469 8.816406 "/>
<path style=" stroke:none;fill-rule:nonzero;fill:rgb(0%,0%,0%);fill-opacity:1;" d="M 255.839844 4.296875 L 249.847656 4.296875 L 249.847656 4.695312 L 255.441406 4.695312 L 255.441406 6.3125 L 255.839844 6.3125 L 255.839844 4.296875 "/>
<path style=" stroke:none;fill-rule:nonzero;fill:rgb(0%,0%,0%);fill-opacity:1;" d="M 258.476562 10.40625 C 258.417969 9.890625 258.386719 8.925781 258.378906 8.46875 L 258.476562 8.390625 C 258.664062 8.441406 258.863281 8.46875 259.0625 8.46875 C 260.601562 8.46875 261.644531 6.859375 261.644531 5.398438 C 261.644531 4.65625 261.296875 3.742188 260.285156 3.742188 C 259.601562 3.742188 258.992188 4.050781 258.457031 4.476562 L 258.378906 4.4375 C 258.339844 4 258.179688 3.691406 257.730469 3.691406 C 257.296875 3.691406 256.777344 4.050781 256.382812 4.367188 L 256.519531 4.554688 C 256.757812 4.417969 257.035156 4.269531 257.246094 4.269531 C 257.542969 4.269531 257.632812 4.785156 257.632812 5.230469 L 257.632812 7.425781 C 257.632812 7.992188 257.621094 10.027344 257.574219 10.605469 L 257.671875 10.714844 Z M 258.398438 7.703125 C 258.398438 7.695312 258.378906 6.671875 258.378906 5.855469 C 258.378906 5.746094 258.40625 4.992188 258.40625 4.933594 C 258.871094 4.566406 259.28125 4.355469 259.789062 4.355469 C 260.421875 4.355469 260.8125 5.121094 260.8125 5.988281 C 260.8125 6.929688 260.472656 8.074219 259.273438 8.074219 C 258.945312 8.074219 258.636719 7.921875 258.398438 7.703125 "/>
<path style=" stroke:none;fill-rule:nonzero;fill:rgb(0%,0%,0%);fill-opacity:1;" d="M 270.265625 5.113281 C 270.433594 5.113281 270.613281 5.113281 270.613281 4.914062 C 270.613281 4.714844 270.433594 4.714844 270.265625 4.714844 L 266.042969 4.714844 L 266.042969 1.824219 C 266.042969 1.644531 266.042969 1.464844 265.84375 1.464844 C 265.648438 1.464844 265.648438 1.675781 265.648438 1.824219 L 265.648438 8.003906 C 265.648438 8.152344 265.648438 8.359375 265.84375 8.359375 C 266.042969 8.359375 266.042969 8.183594 266.042969 8.003906 L 266.042969 5.113281 L 270.265625 5.113281 "/>
<path style=" stroke:none;fill-rule:nonzero;fill:rgb(0%,0%,0%);fill-opacity:1;" d="M 280.238281 4.296875 L 274.246094 4.296875 L 274.246094 4.695312 L 279.839844 4.695312 L 279.839844 6.3125 L 280.238281 6.3125 L 280.238281 4.296875 "/>
<path style=" stroke:none;fill-rule:nonzero;fill:rgb(0%,0%,0%);fill-opacity:1;" d="M 282.777344 10.40625 C 282.71875 9.890625 282.6875 8.925781 282.679688 8.46875 L 282.777344 8.390625 C 282.964844 8.441406 283.164062 8.46875 283.363281 8.46875 C 284.902344 8.46875 285.945312 6.859375 285.945312 5.398438 C 285.945312 4.65625 285.597656 3.742188 284.585938 3.742188 C 283.898438 3.742188 283.292969 4.050781 282.757812 4.476562 L 282.679688 4.4375 C 282.636719 4 282.476562 3.691406 282.03125 3.691406 C 281.59375 3.691406 281.078125 4.050781 280.679688 4.367188 L 280.820312 4.554688 C 281.058594 4.417969 281.335938 4.269531 281.546875 4.269531 C 281.84375 4.269531 281.933594 4.785156 281.933594 5.230469 L 281.933594 7.425781 C 281.933594 7.992188 281.921875 10.027344 281.871094 10.605469 L 281.972656 10.714844 Z M 282.695312 7.703125 C 282.695312 7.695312 282.679688 6.671875 282.679688 5.855469 C 282.679688 5.746094 282.707031 4.992188 282.707031 4.933594 C 283.171875 4.566406 283.582031 4.355469 284.089844 4.355469 C 284.722656 4.355469 285.109375 5.121094 285.109375 5.988281 C 285.109375 6.929688 284.773438 8.074219 283.570312 8.074219 C 283.242188 8.074219 282.9375 7.921875 282.695312 7.703125 "/>
<path style=" stroke:none;fill-rule:nonzero;fill:rgb(0%,0%,0%);fill-opacity:1;" d="M 302.839844 4.296875 L 296.847656 4.296875 L 296.847656 4.695312 L 302.441406 4.695312 L 302.441406 6.3125 L 302.839844 6.3125 L 302.839844 4.296875 "/>
<path style=" stroke:none;fill-rule:nonzero;fill:rgb(0%,0%,0%);fill-opacity:1;" d="M 309.640625 4.296875 L 303.648438 4.296875 L 303.648438 4.695312 L 309.242188 4.695312 L 309.242188 6.3125 L 309.640625 6.3125 L 309.640625 4.296875 "/>
<path style=" stroke:none;fill-rule:nonzero;fill:rgb(0%,0%,0%);fill-opacity:1;" d="M 312.277344 10.40625 C 312.21875 9.890625 312.1875 8.925781 312.179688 8.46875 L 312.277344 8.390625 C 312.464844 8.441406 312.664062 8.46875 312.863281 8.46875 C 314.402344 8.46875 315.445312 6.859375 315.445312 5.398438 C 315.445312 4.65625 315.097656 3.742188 314.085938 3.742188 C 313.398438 3.742188 312.792969 4.050781 312.257812 4.476562 L 312.179688 4.4375 C 312.136719 4 311.976562 3.691406 311.53125 3.691406 C 311.09375 3.691406 310.578125 4.050781 310.179688 4.367188 L 310.320312 4.554688 C 310.558594 4.417969 310.835938 4.269531 311.046875 4.269531 C 311.34375 4.269531 311.433594 4.785156 311.433594 5.230469 L 311.433594 7.425781 C 311.433594 7.992188 311.421875 10.027344 311.371094 10.605469 L 311.472656 10.714844 Z M 312.195312 7.703125 C 312.195312 7.695312 312.179688 6.671875 312.179688 5.855469 C 312.179688 5.746094 312.207031 4.992188 312.207031 4.933594 C 312.671875 4.566406 313.082031 4.355469 313.589844 4.355469 C 314.222656 4.355469 314.609375 5.121094 314.609375 5.988281 C 314.609375 6.929688 314.273438 8.074219 313.070312 8.074219 C 312.742188 8.074219 312.4375 7.921875 312.195312 7.703125 "/>
<path style=" stroke:none;fill-rule:nonzero;fill:rgb(0%,0%,0%);fill-opacity:1;" d="M 324.066406 5.113281 C 324.234375 5.113281 324.414062 5.113281 324.414062 4.914062 C 324.414062 4.714844 324.234375 4.714844 324.066406 4.714844 L 319.84375 4.714844 L 319.84375 1.824219 C 319.84375 1.644531 319.84375 1.464844 319.644531 1.464844 C 319.445312 1.464844 319.445312 1.675781 319.445312 1.824219 L 319.445312 8.003906 C 319.445312 8.152344 319.445312 8.359375 319.644531 8.359375 C 319.84375 8.359375 319.84375 8.183594 319.84375 8.003906 L 319.84375 5.113281 L 324.066406 5.113281 "/>
<path style=" stroke:none;fill-rule:nonzero;fill:rgb(0%,0%,0%);fill-opacity:1;" d="M 333.9375 4.296875 L 327.949219 4.296875 L 327.949219 4.695312 L 333.539062 4.695312 L 333.539062 6.3125 L 333.9375 6.3125 L 333.9375 4.296875 "/>
<path style=" stroke:none;fill-rule:nonzero;fill:rgb(0%,0%,0%);fill-opacity:1;" d="M 340.839844 4.296875 L 334.847656 4.296875 L 334.847656 4.695312 L 340.441406 4.695312 L 340.441406 6.3125 L 340.839844 6.3125 L 340.839844 4.296875 "/>
<path style=" stroke:none;fill-rule:nonzero;fill:rgb(0%,0%,0%);fill-opacity:1;" d="M 343.378906 10.40625 C 343.316406 9.890625 343.289062 8.925781 343.277344 8.46875 L 343.378906 8.390625 C 343.566406 8.441406 343.765625 8.46875 343.964844 8.46875 C 345.503906 8.46875 346.546875 6.859375 346.546875 5.398438 C 346.546875 4.65625 346.199219 3.742188 345.183594 3.742188 C 344.5 3.742188 343.894531 4.050781 343.355469 4.476562 L 343.277344 4.4375 C 343.238281 4 343.078125 3.691406 342.632812 3.691406 C 342.195312 3.691406 341.679688 4.050781 341.28125 4.367188 L 341.421875 4.554688 C 341.65625 4.417969 341.9375 4.269531 342.144531 4.269531 C 342.445312 4.269531 342.53125 4.785156 342.53125 5.230469 L 342.53125 7.425781 C 342.53125 7.992188 342.523438 10.027344 342.472656 10.605469 L 342.570312 10.714844 Z M 343.296875 7.703125 C 343.296875 7.695312 343.277344 6.671875 343.277344 5.855469 C 343.277344 5.746094 343.308594 4.992188 343.308594 4.933594 C 343.773438 4.566406 344.179688 4.355469 344.6875 4.355469 C 345.324219 4.355469 345.710938 5.121094 345.710938 5.988281 C 345.710938 6.929688 345.371094 8.074219 344.171875 8.074219 C 343.84375 8.074219 343.535156 7.921875 343.296875 7.703125 "/>
<path style="fill:none;stroke-width:3.98;stroke-linecap:butt;stroke-linejoin:miter;stroke:rgb(0%,0%,0%);stroke-opacity:1;stroke-miterlimit:10;" d="M 2496.445312 505.123438 L 3472.578125 505.123438 " transform="matrix(0.1,0,0,-0.1,0,63.86)"/>
<path style=" stroke:none;fill-rule:nonzero;fill:rgb(0%,0%,0%);fill-opacity:1;" d="M 276.738281 18.597656 L 270.746094 18.597656 L 270.746094 18.996094 L 276.339844 18.996094 L 276.339844 20.613281 L 276.738281 20.613281 L 276.738281 18.597656 "/>
<path style=" stroke:none;fill-rule:nonzero;fill:rgb(0%,0%,0%);fill-opacity:1;" d="M 279.277344 24.707031 C 279.21875 24.191406 279.1875 23.226562 279.179688 22.769531 L 279.277344 22.691406 C 279.464844 22.738281 279.664062 22.769531 279.863281 22.769531 C 281.402344 22.769531 282.445312 21.160156 282.445312 19.699219 C 282.445312 18.957031 282.097656 18.042969 281.085938 18.042969 C 280.398438 18.042969 279.792969 18.347656 279.257812 18.777344 L 279.179688 18.738281 C 279.136719 18.300781 278.976562 17.992188 278.53125 17.992188 C 278.09375 17.992188 277.578125 18.347656 277.179688 18.667969 L 277.320312 18.855469 C 277.558594 18.714844 277.835938 18.566406 278.046875 18.566406 C 278.34375 18.566406 278.433594 19.082031 278.433594 19.53125 L 278.433594 21.726562 C 278.433594 22.292969 278.421875 24.328125 278.371094 24.90625 L 278.472656 25.015625 Z M 279.195312 22.003906 C 279.195312 21.996094 279.179688 20.972656 279.179688 20.15625 C 279.179688 20.046875 279.207031 19.292969 279.207031 19.234375 C 279.671875 18.863281 280.082031 18.65625 280.589844 18.65625 C 281.222656 18.65625 281.609375 19.421875 281.609375 20.285156 C 281.609375 21.230469 281.273438 22.371094 280.070312 22.371094 C 279.742188 22.371094 279.4375 22.222656 279.195312 22.003906 "/>
<path style=" stroke:none;fill-rule:nonzero;fill:rgb(0%,0%,0%);fill-opacity:1;" d="M 284.191406 24.746094 C 284.898438 23.933594 285.226562 23.425781 285.226562 22.929688 C 285.226562 22.582031 284.878906 21.289062 284.351562 21.289062 C 284.101562 21.289062 283.765625 21.507812 283.765625 21.765625 C 283.765625 21.863281 283.796875 21.972656 283.835938 22.023438 L 284.53125 22.847656 C 284.621094 22.957031 284.660156 23.128906 284.660156 23.265625 C 284.660156 23.664062 284.351562 24.152344 284.003906 24.605469 L 284.191406 24.746094 "/>
<path style=" stroke:none;fill-rule:nonzero;fill:rgb(0%,0%,0%);fill-opacity:1;" d="M 293.839844 18.597656 L 287.847656 18.597656 L 287.847656 18.996094 L 293.441406 18.996094 L 293.441406 20.613281 L 293.839844 20.613281 L 293.839844 18.597656 "/>
<path style=" stroke:none;fill-rule:nonzero;fill:rgb(0%,0%,0%);fill-opacity:1;" d="M 300.640625 18.597656 L 294.648438 18.597656 L 294.648438 18.996094 L 300.242188 18.996094 L 300.242188 20.613281 L 300.640625 20.613281 L 300.640625 18.597656 "/>
<path style=" stroke:none;fill-rule:nonzero;fill:rgb(0%,0%,0%);fill-opacity:1;" d="M 303.175781 24.707031 C 303.117188 24.191406 303.089844 23.226562 303.078125 22.769531 L 303.175781 22.691406 C 303.367188 22.738281 303.5625 22.769531 303.761719 22.769531 C 305.304688 22.769531 306.34375 21.160156 306.34375 19.699219 C 306.34375 18.957031 305.996094 18.042969 304.984375 18.042969 C 304.300781 18.042969 303.695312 18.347656 303.15625 18.777344 L 303.078125 18.738281 C 303.039062 18.300781 302.878906 17.992188 302.429688 17.992188 C 301.996094 17.992188 301.476562 18.347656 301.082031 18.667969 L 301.21875 18.855469 C 301.457031 18.714844 301.734375 18.566406 301.945312 18.566406 C 302.242188 18.566406 302.332031 19.082031 302.332031 19.53125 L 302.332031 21.726562 C 302.332031 22.292969 302.320312 24.328125 302.273438 24.90625 L 302.371094 25.015625 Z M 303.097656 22.003906 C 303.097656 21.996094 303.078125 20.972656 303.078125 20.15625 C 303.078125 20.046875 303.109375 19.292969 303.109375 19.234375 C 303.574219 18.863281 303.980469 18.65625 304.488281 18.65625 C 305.121094 18.65625 305.511719 19.421875 305.511719 20.285156 C 305.511719 21.230469 305.171875 22.371094 303.972656 22.371094 C 303.644531 22.371094 303.335938 22.222656 303.097656 22.003906 "/>
<path style=" stroke:none;fill-rule:nonzero;fill:rgb(0%,0%,0%);fill-opacity:1;" d="M 314.964844 19.410156 C 315.132812 19.410156 315.3125 19.410156 315.3125 19.214844 C 315.3125 19.015625 315.132812 19.015625 314.964844 19.015625 L 310.742188 19.015625 L 310.742188 16.125 C 310.742188 15.945312 310.742188 15.765625 310.546875 15.765625 C 310.347656 15.765625 310.347656 15.972656 310.347656 16.125 L 310.347656 22.300781 C 310.347656 22.449219 310.347656 22.660156 310.546875 22.660156 C 310.742188 22.660156 310.742188 22.480469 310.742188 22.300781 L 310.742188 19.410156 L 314.964844 19.410156 "/>
<path style=" stroke:none;fill-rule:nonzero;fill:rgb(0%,0%,0%);fill-opacity:1;" d="M 322.761719 16.382812 C 322.761719 16.203125 322.761719 16.023438 322.5625 16.023438 C 322.367188 16.023438 322.367188 16.234375 322.367188 16.382812 L 322.367188 22.261719 L 319.605469 22.261719 C 319.453125 22.261719 319.246094 22.261719 319.246094 22.460938 C 319.246094 22.660156 319.453125 22.660156 319.605469 22.660156 L 325.535156 22.660156 C 325.703125 22.660156 325.882812 22.660156 325.882812 22.460938 C 325.882812 22.261719 325.703125 22.261719 325.535156 22.261719 L 322.761719 22.261719 L 322.761719 16.382812 "/>
<path style=" stroke:none;fill-rule:nonzero;fill:rgb(0%,0%,0%);fill-opacity:1;" d="M 367.367188 18.511719 C 367.535156 18.511719 367.714844 18.511719 367.714844 18.3125 C 367.714844 18.113281 367.535156 18.113281 367.367188 18.113281 L 363.144531 18.113281 L 363.144531 15.222656 C 363.144531 15.042969 363.144531 14.867188 362.945312 14.867188 C 362.746094 14.867188 362.746094 15.074219 362.746094 15.222656 L 362.746094 21.402344 C 362.746094 21.550781 362.746094 21.761719 362.945312 21.761719 C 363.144531 21.761719 363.144531 21.582031 363.144531 21.402344 L 363.144531 18.511719 L 367.367188 18.511719 "/>
<path style=" stroke:none;fill-rule:nonzero;fill:rgb(0%,0%,0%);fill-opacity:1;" d="M 375.0625 15.480469 C 375.0625 15.304688 375.0625 15.125 374.863281 15.125 C 374.664062 15.125 374.664062 15.332031 374.664062 15.480469 L 374.664062 21.363281 L 371.90625 21.363281 C 371.753906 21.363281 371.546875 21.363281 371.546875 21.5625 C 371.546875 21.761719 371.753906 21.761719 371.90625 21.761719 L 377.835938 21.761719 C 378.003906 21.761719 378.183594 21.761719 378.183594 21.5625 C 378.183594 21.363281 378.003906 21.363281 377.835938 21.363281 L 375.0625 21.363281 L 375.0625 15.480469 "/>
<path style=" stroke:none;fill-rule:nonzero;fill:rgb(0%,0%,0%);fill-opacity:1;" d="M 390.28125 19.476562 C 389.914062 19.933594 389.386719 20.714844 389.140625 21.761719 L 389.539062 21.761719 C 389.84375 20.457031 390.679688 19.554688 390.976562 19.277344 C 390.660156 18.980469 389.84375 18.085938 389.539062 16.792969 L 389.140625 16.792969 C 389.386719 17.824219 389.90625 18.613281 390.28125 19.078125 L 382.503906 19.078125 C 382.324219 19.078125 382.15625 19.078125 382.15625 19.277344 C 382.15625 19.476562 382.335938 19.476562 382.503906 19.476562 L 390.28125 19.476562 "/>
<path style=" stroke:none;fill-rule:nonzero;fill:rgb(0%,0%,0%);fill-opacity:1;" d="M 396.277344 23.808594 C 396.21875 23.289062 396.1875 22.324219 396.179688 21.871094 L 396.277344 21.789062 C 396.464844 21.839844 396.664062 21.871094 396.863281 21.871094 C 398.402344 21.871094 399.445312 20.261719 399.445312 18.800781 C 399.445312 18.054688 399.097656 17.140625 398.085938 17.140625 C 397.398438 17.140625 396.792969 17.449219 396.257812 17.875 L 396.179688 17.835938 C 396.136719 17.398438 395.976562 17.089844 395.53125 17.089844 C 395.09375 17.089844 394.578125 17.449219 394.179688 17.765625 L 394.320312 17.957031 C 394.558594 17.816406 394.835938 17.667969 395.046875 17.667969 C 395.34375 17.667969 395.433594 18.183594 395.433594 18.628906 L 395.433594 20.824219 C 395.433594 21.394531 395.421875 23.429688 395.371094 24.003906 L 395.472656 24.113281 Z M 396.195312 21.105469 C 396.195312 21.09375 396.179688 20.070312 396.179688 19.257812 C 396.179688 19.148438 396.207031 18.394531 396.207031 18.332031 C 396.671875 17.964844 397.082031 17.757812 397.589844 17.757812 C 398.222656 17.757812 398.609375 18.519531 398.609375 19.386719 C 398.609375 20.332031 398.273438 21.472656 397.070312 21.472656 C 396.742188 21.472656 396.4375 21.324219 396.195312 21.105469 "/>
<g clip-path="url(#clip1)" clip-rule="nonzero">
<path style="fill:none;stroke-width:3.98;stroke-linecap:butt;stroke-linejoin:miter;stroke:rgb(0%,0%,0%);stroke-opacity:1;stroke-miterlimit:10;" d="M 2114.296875 371.607813 L 4051.5625 371.607813 " transform="matrix(0.1,0,0,-0.1,0,63.86)"/>
</g>
<path style=" stroke:none;fill-rule:nonzero;fill:rgb(0%,0%,0%);fill-opacity:1;" d="M 287.4375 31.996094 L 281.449219 31.996094 L 281.449219 32.394531 L 287.039062 32.394531 L 287.039062 34.011719 L 287.4375 34.011719 L 287.4375 31.996094 "/>
<path style=" stroke:none;fill-rule:nonzero;fill:rgb(0%,0%,0%);fill-opacity:1;" d="M 290.078125 38.105469 C 290.015625 37.589844 289.988281 36.625 289.976562 36.167969 L 290.078125 36.089844 C 290.265625 36.140625 290.464844 36.167969 290.664062 36.167969 C 292.203125 36.167969 293.246094 34.558594 293.246094 33.097656 C 293.246094 32.355469 292.898438 31.441406 291.882812 31.441406 C 291.199219 31.441406 290.59375 31.75 290.054688 32.175781 L 289.976562 32.136719 C 289.9375 31.699219 289.777344 31.390625 289.332031 31.390625 C 288.894531 31.390625 288.378906 31.75 287.980469 32.066406 L 288.121094 32.253906 C 288.359375 32.117188 288.636719 31.96875 288.84375 31.96875 C 289.144531 31.96875 289.234375 32.484375 289.234375 32.929688 L 289.234375 35.125 C 289.234375 35.691406 289.222656 37.730469 289.171875 38.304688 L 289.273438 38.414062 Z M 289.996094 35.402344 C 289.996094 35.394531 289.976562 34.371094 289.976562 33.558594 C 289.976562 33.449219 290.007812 32.691406 290.007812 32.632812 C 290.472656 32.265625 290.882812 32.058594 291.386719 32.058594 C 292.023438 32.058594 292.410156 32.820312 292.410156 33.6875 C 292.410156 34.628906 292.074219 35.773438 290.871094 35.773438 C 290.542969 35.773438 290.234375 35.621094 289.996094 35.402344 "/>
<path style=" stroke:none;fill-rule:nonzero;fill:rgb(0%,0%,0%);fill-opacity:1;" d="M 294.992188 38.144531 C 295.699219 37.332031 296.027344 36.824219 296.027344 36.328125 C 296.027344 35.980469 295.679688 34.691406 295.152344 34.691406 C 294.902344 34.691406 294.566406 34.910156 294.566406 35.167969 C 294.566406 35.265625 294.59375 35.375 294.632812 35.425781 L 295.328125 36.25 C 295.421875 36.359375 295.460938 36.527344 295.460938 36.667969 C 295.460938 37.0625 295.152344 37.550781 294.804688 38.007812 L 294.992188 38.144531 "/>
<path style=" stroke:none;fill-rule:nonzero;fill:rgb(0%,0%,0%);fill-opacity:1;" d="M 304.640625 31.996094 L 298.648438 31.996094 L 298.648438 32.394531 L 304.242188 32.394531 L 304.242188 34.011719 L 304.640625 34.011719 L 304.640625 31.996094 "/>
<path style=" stroke:none;fill-rule:nonzero;fill:rgb(0%,0%,0%);fill-opacity:1;" d="M 311.4375 31.996094 L 305.449219 31.996094 L 305.449219 32.394531 L 311.039062 32.394531 L 311.039062 34.011719 L 311.4375 34.011719 L 311.4375 31.996094 "/>
<path style=" stroke:none;fill-rule:nonzero;fill:rgb(0%,0%,0%);fill-opacity:1;" d="M 313.976562 38.105469 C 313.917969 37.589844 313.886719 36.625 313.878906 36.167969 L 313.976562 36.089844 C 314.164062 36.140625 314.363281 36.167969 314.5625 36.167969 C 316.101562 36.167969 317.144531 34.558594 317.144531 33.097656 C 317.144531 32.355469 316.796875 31.441406 315.785156 31.441406 C 315.101562 31.441406 314.492188 31.75 313.957031 32.175781 L 313.878906 32.136719 C 313.839844 31.699219 313.679688 31.390625 313.230469 31.390625 C 312.796875 31.390625 312.277344 31.75 311.882812 32.066406 L 312.019531 32.253906 C 312.257812 32.117188 312.535156 31.96875 312.746094 31.96875 C 313.042969 31.96875 313.132812 32.484375 313.132812 32.929688 L 313.132812 35.125 C 313.132812 35.691406 313.121094 37.730469 313.074219 38.304688 L 313.171875 38.414062 Z M 313.898438 35.402344 C 313.898438 35.394531 313.878906 34.371094 313.878906 33.558594 C 313.878906 33.449219 313.90625 32.691406 313.90625 32.632812 C 314.371094 32.265625 314.78125 32.058594 315.289062 32.058594 C 315.921875 32.058594 316.3125 32.820312 316.3125 33.6875 C 316.3125 34.628906 315.972656 35.773438 314.773438 35.773438 C 314.445312 35.773438 314.136719 35.621094 313.898438 35.402344 "/>
<path style=" stroke:none;fill-rule:nonzero;fill:rgb(0%,0%,0%);fill-opacity:1;" d="M 325.765625 32.8125 C 325.933594 32.8125 326.113281 32.8125 326.113281 32.613281 C 326.113281 32.414062 325.933594 32.414062 325.765625 32.414062 L 321.542969 32.414062 L 321.542969 29.523438 C 321.542969 29.34375 321.542969 29.167969 321.34375 29.167969 C 321.148438 29.167969 321.148438 29.375 321.148438 29.523438 L 321.148438 35.703125 C 321.148438 35.851562 321.148438 36.058594 321.34375 36.058594 C 321.542969 36.058594 321.542969 35.882812 321.542969 35.703125 L 321.542969 32.8125 L 325.765625 32.8125 "/>
<path style=" stroke:none;fill-rule:nonzero;fill:rgb(0%,0%,0%);fill-opacity:1;" d="M 331.476562 38.105469 C 331.417969 37.589844 331.386719 36.625 331.378906 36.167969 L 331.476562 36.089844 C 331.664062 36.140625 331.863281 36.167969 332.0625 36.167969 C 333.601562 36.167969 334.644531 34.558594 334.644531 33.097656 C 334.644531 32.355469 334.296875 31.441406 333.285156 31.441406 C 332.601562 31.441406 331.992188 31.75 331.457031 32.175781 L 331.378906 32.136719 C 331.339844 31.699219 331.179688 31.390625 330.730469 31.390625 C 330.296875 31.390625 329.777344 31.75 329.382812 32.066406 L 329.519531 32.253906 C 329.757812 32.117188 330.035156 31.96875 330.246094 31.96875 C 330.542969 31.96875 330.632812 32.484375 330.632812 32.929688 L 330.632812 35.125 C 330.632812 35.691406 330.621094 37.730469 330.574219 38.304688 L 330.671875 38.414062 Z M 331.398438 35.402344 C 331.398438 35.394531 331.378906 34.371094 331.378906 33.558594 C 331.378906 33.449219 331.40625 32.691406 331.40625 32.632812 C 331.871094 32.265625 332.28125 32.058594 332.789062 32.058594 C 333.421875 32.058594 333.8125 32.820312 333.8125 33.6875 C 333.8125 34.628906 333.472656 35.773438 332.273438 35.773438 C 331.945312 35.773438 331.636719 35.621094 331.398438 35.402344 "/>
<g clip-path="url(#clip2)" clip-rule="nonzero">
<path style="fill:none;stroke-width:3.98;stroke-linecap:butt;stroke-linejoin:miter;stroke:rgb(0%,0%,0%);stroke-opacity:1;stroke-miterlimit:10;" d="M 704.257812 238.092188 L 4051.5625 238.092188 " transform="matrix(0.1,0,0,-0.1,0,63.86)"/>
</g>
<path style=" stroke:none;fill-rule:nonzero;fill:rgb(0%,0%,0%);fill-opacity:1;" d="M 225.539062 45.296875 L 219.546875 45.296875 L 219.546875 45.695312 L 225.140625 45.695312 L 225.140625 47.3125 L 225.539062 47.3125 L 225.539062 45.296875 "/>
<path style=" stroke:none;fill-rule:nonzero;fill:rgb(0%,0%,0%);fill-opacity:1;" d="M 232.339844 45.296875 L 226.347656 45.296875 L 226.347656 45.695312 L 231.941406 45.695312 L 231.941406 47.3125 L 232.339844 47.3125 L 232.339844 45.296875 "/>
<path style=" stroke:none;fill-rule:nonzero;fill:rgb(0%,0%,0%);fill-opacity:1;" d="M 234.878906 51.40625 C 234.816406 50.890625 234.789062 49.925781 234.777344 49.46875 L 234.878906 49.390625 C 235.066406 49.441406 235.265625 49.46875 235.464844 49.46875 C 237.003906 49.46875 238.046875 47.859375 238.046875 46.398438 C 238.046875 45.65625 237.699219 44.742188 236.683594 44.742188 C 236 44.742188 235.394531 45.050781 234.855469 45.476562 L 234.777344 45.4375 C 234.738281 45 234.578125 44.691406 234.132812 44.691406 C 233.695312 44.691406 233.179688 45.050781 232.78125 45.367188 L 232.921875 45.554688 C 233.15625 45.417969 233.4375 45.269531 233.644531 45.269531 C 233.945312 45.269531 234.03125 45.785156 234.03125 46.230469 L 234.03125 48.425781 C 234.03125 48.992188 234.023438 51.027344 233.972656 51.605469 L 234.070312 51.714844 Z M 234.796875 48.703125 C 234.796875 48.695312 234.777344 47.671875 234.777344 46.855469 C 234.777344 46.746094 234.808594 45.992188 234.808594 45.933594 C 235.273438 45.566406 235.679688 45.355469 236.1875 45.355469 C 236.824219 45.355469 237.210938 46.121094 237.210938 46.988281 C 237.210938 47.929688 236.871094 49.074219 235.671875 49.074219 C 235.34375 49.074219 235.035156 48.921875 234.796875 48.703125 "/>
<path style=" stroke:none;fill-rule:nonzero;fill:rgb(0%,0%,0%);fill-opacity:1;" d="M 246.765625 46.113281 C 246.933594 46.113281 247.113281 46.113281 247.113281 45.914062 C 247.113281 45.714844 246.933594 45.714844 246.765625 45.714844 L 242.542969 45.714844 L 242.542969 42.824219 C 242.542969 42.644531 242.542969 42.464844 242.34375 42.464844 C 242.148438 42.464844 242.148438 42.675781 242.148438 42.824219 L 242.148438 49.003906 C 242.148438 49.152344 242.148438 49.359375 242.34375 49.359375 C 242.542969 49.359375 242.542969 49.183594 242.542969 49.003906 L 242.542969 46.113281 L 246.765625 46.113281 "/>
<path style=" stroke:none;fill-rule:nonzero;fill:rgb(0%,0%,0%);fill-opacity:1;" d="M 252.378906 51.40625 C 252.316406 50.890625 252.289062 49.925781 252.277344 49.46875 L 252.378906 49.390625 C 252.566406 49.441406 252.765625 49.46875 252.964844 49.46875 C 254.503906 49.46875 255.546875 47.859375 255.546875 46.398438 C 255.546875 45.65625 255.199219 44.742188 254.183594 44.742188 C 253.5 44.742188 252.894531 45.050781 252.355469 45.476562 L 252.277344 45.4375 C 252.238281 45 252.078125 44.691406 251.632812 44.691406 C 251.195312 44.691406 250.679688 45.050781 250.28125 45.367188 L 250.421875 45.554688 C 250.65625 45.417969 250.9375 45.269531 251.144531 45.269531 C 251.445312 45.269531 251.53125 45.785156 251.53125 46.230469 L 251.53125 48.425781 C 251.53125 48.992188 251.523438 51.027344 251.472656 51.605469 L 251.570312 51.714844 Z M 252.296875 48.703125 C 252.296875 48.695312 252.277344 47.671875 252.277344 46.855469 C 252.277344 46.746094 252.308594 45.992188 252.308594 45.933594 C 252.773438 45.566406 253.179688 45.355469 253.6875 45.355469 C 254.324219 45.355469 254.710938 46.121094 254.710938 46.988281 C 254.710938 47.929688 254.371094 49.074219 253.171875 49.074219 C 252.84375 49.074219 252.535156 48.921875 252.296875 48.703125 "/>
<g clip-path="url(#clip3)" clip-rule="nonzero">
<path style="fill:none;stroke-width:3.98;stroke-linecap:butt;stroke-linejoin:miter;stroke:rgb(0%,0%,0%);stroke-opacity:1;stroke-miterlimit:10;" d="M 344.53125 112.076563 L 4051.601562 112.076563 " transform="matrix(0.1,0,0,-0.1,0,63.86)"/>
</g>
<path style=" stroke:none;fill-rule:nonzero;fill:rgb(0%,0%,0%);fill-opacity:1;" d="M 200.066406 58.710938 C 200.234375 58.710938 200.414062 58.710938 200.414062 58.511719 C 200.414062 58.316406 200.234375 58.316406 200.066406 58.316406 L 195.84375 58.316406 L 195.84375 55.425781 C 195.84375 55.246094 195.84375 55.066406 195.644531 55.066406 C 195.445312 55.066406 195.445312 55.273438 195.445312 55.425781 L 195.445312 61.601562 C 195.445312 61.75 195.445312 61.960938 195.644531 61.960938 C 195.84375 61.960938 195.84375 61.78125 195.84375 61.601562 L 195.84375 58.710938 L 200.066406 58.710938 "/>
<path style=" stroke:none;fill-rule:nonzero;fill:rgb(0%,0%,0%);fill-opacity:1;" d="M 210.039062 57.898438 L 204.046875 57.898438 L 204.046875 58.292969 L 209.640625 58.292969 L 209.640625 59.914062 L 210.039062 59.914062 L 210.039062 57.898438 "/>
<path style=" stroke:none;fill-rule:nonzero;fill:rgb(0%,0%,0%);fill-opacity:1;" d="M 216.839844 57.898438 L 210.847656 57.898438 L 210.847656 58.292969 L 216.441406 58.292969 L 216.441406 59.914062 L 216.839844 59.914062 L 216.839844 57.898438 "/>
<g clip-path="url(#clip4)" clip-rule="nonzero">
<path style=" stroke:none;fill-rule:nonzero;fill:rgb(0%,0%,0%);fill-opacity:1;" d="M 219.378906 64.007812 C 219.316406 63.488281 219.289062 62.527344 219.277344 62.070312 L 219.378906 61.988281 C 219.566406 62.039062 219.765625 62.070312 219.964844 62.070312 C 221.503906 62.070312 222.546875 60.460938 222.546875 59 C 222.546875 58.253906 222.199219 57.339844 221.183594 57.339844 C 220.5 57.339844 219.894531 57.648438 219.355469 58.074219 L 219.277344 58.035156 C 219.238281 57.597656 219.078125 57.292969 218.632812 57.292969 C 218.195312 57.292969 217.679688 57.648438 217.28125 57.964844 L 217.421875 58.15625 C 217.65625 58.015625 217.9375 57.867188 218.144531 57.867188 C 218.445312 57.867188 218.53125 58.382812 218.53125 58.832031 L 218.53125 61.027344 C 218.53125 61.59375 218.523438 63.628906 218.472656 64.207031 L 218.570312 64.316406 Z M 219.296875 61.304688 C 219.296875 61.292969 219.277344 60.269531 219.277344 59.457031 C 219.277344 59.347656 219.308594 58.59375 219.308594 58.535156 C 219.773438 58.164062 220.179688 57.957031 220.6875 57.957031 C 221.324219 57.957031 221.710938 58.722656 221.710938 59.585938 C 221.710938 60.53125 221.371094 61.671875 220.171875 61.671875 C 219.84375 61.671875 219.535156 61.523438 219.296875 61.304688 "/>
</g>
<path style=" stroke:none;fill-rule:nonzero;fill:rgb(0%,0%,0%);fill-opacity:1;" d="M 234.78125 59.675781 C 234.414062 60.132812 233.886719 60.917969 233.640625 61.960938 L 234.039062 61.960938 C 234.34375 60.660156 235.179688 59.753906 235.476562 59.476562 C 235.160156 59.179688 234.34375 58.285156 234.039062 56.992188 L 233.640625 56.992188 C 233.886719 58.027344 234.40625 58.8125 234.78125 59.277344 L 227.003906 59.277344 C 226.824219 59.277344 226.65625 59.277344 226.65625 59.476562 C 226.65625 59.675781 226.835938 59.675781 227.003906 59.675781 L 234.78125 59.675781 "/>
<g clip-path="url(#clip5)" clip-rule="nonzero">
<path style=" stroke:none;fill-rule:nonzero;fill:rgb(0%,0%,0%);fill-opacity:1;" d="M 240.777344 64.007812 C 240.71875 63.488281 240.6875 62.527344 240.679688 62.070312 L 240.777344 61.988281 C 240.964844 62.039062 241.164062 62.070312 241.363281 62.070312 C 242.902344 62.070312 243.945312 60.460938 243.945312 59 C 243.945312 58.253906 243.597656 57.339844 242.585938 57.339844 C 241.898438 57.339844 241.292969 57.648438 240.757812 58.074219 L 240.679688 58.035156 C 240.636719 57.597656 240.476562 57.292969 240.03125 57.292969 C 239.59375 57.292969 239.078125 57.648438 238.679688 57.964844 L 238.820312 58.15625 C 239.058594 58.015625 239.335938 57.867188 239.546875 57.867188 C 239.84375 57.867188 239.933594 58.382812 239.933594 58.832031 L 239.933594 61.027344 C 239.933594 61.59375 239.921875 63.628906 239.871094 64.207031 L 239.972656 64.316406 Z M 240.695312 61.304688 C 240.695312 61.292969 240.679688 60.269531 240.679688 59.457031 C 240.679688 59.347656 240.707031 58.59375 240.707031 58.535156 C 241.171875 58.164062 241.582031 57.957031 242.089844 57.957031 C 242.722656 57.957031 243.109375 58.722656 243.109375 59.585938 C 243.109375 60.53125 242.773438 61.671875 241.570312 61.671875 C 241.242188 61.671875 240.9375 61.523438 240.695312 61.304688 "/>
</g>
</g>
</svg>
