<?xml version="1.0" encoding="UTF-8"?>
<svg xmlns="http://www.w3.org/2000/svg" xmlns:xlink="http://www.w3.org/1999/xlink" width="203.84pt" height="49.12pt" viewBox="0 0 203.84 49.12" version="1.1">
<defs>
<clipPath id="clip1">
  <path d="M 72 25 L 203.839844 25 L 203.839844 26 L 72 26 Z M 72 25 "/>
</clipPath>
<clipPath id="clip2">
  <path d="M 34 37 L 203.839844 37 L 203.839844 39 L 34 39 Z M 34 37 "/>
</clipPath>
<clipPath id="clip3">
  <path d="M 114 42 L 120 42 L 120 49.121094 L 114 49.121094 Z M 114 42 "/>
</clipPath>
<clipPath id="clip4">
  <path d="M 138 42 L 144 42 L 144 49.121094 L 138 49.121094 Z M 138 42 "/>
</clipPath>
</defs>
<g id="surface1">
<path style=" stroke:none;fill-rule:nonzero;fill:rgb(0%,0%,0%);fill-opacity:1;" d="M 2.992188 42.039062 C 1.710938 41.789062 1.640625 39.375 1.640625 37.699219 C 1.640625 36.199219 1.726562 33.675781 2.992188 33.359375 L 2.992188 33.089844 C 1.957031 33.269531 1.507812 34.398438 1.320312 35.355469 C 1.171875 36.097656 1.121094 36.875 1.121094 37.640625 C 1.121094 38.445312 1.164062 39.25 1.300781 40.042969 C 1.46875 40.984375 1.945312 42.1875 2.992188 42.277344 L 2.992188 42.039062 "/>
<path style=" stroke:none;fill-rule:nonzero;fill:rgb(0%,0%,0%);fill-opacity:1;" d="M 12.582031 38.136719 C 12.214844 38.59375 11.6875 39.375 11.4375 40.421875 L 11.835938 40.421875 C 12.144531 39.117188 12.980469 38.214844 13.277344 37.9375 C 12.960938 37.640625 12.144531 36.746094 11.835938 35.453125 L 11.4375 35.453125 C 11.6875 36.484375 12.203125 37.273438 12.582031 37.738281 L 4.804688 37.738281 C 4.625 37.738281 4.457031 37.738281 4.457031 37.9375 C 4.457031 38.136719 4.632812 38.136719 4.804688 38.136719 L 12.582031 38.136719 "/>
<path style=" stroke:none;fill-rule:nonzero;fill:rgb(0%,0%,0%);fill-opacity:1;" d="M 17.238281 40.429688 L 17.257812 40.191406 C 17.246094 40.191406 16.820312 40.082031 16.609375 40.023438 C 16.195312 39.914062 16.304688 39.167969 16.292969 38.742188 C 16.28125 38.136719 16.273438 37.519531 16.273438 36.855469 C 16.273438 36.078125 16.214844 34.898438 16.304688 34.3125 C 16.3125 34.191406 16.390625 34.082031 16.523438 34.054688 L 17.1875 33.902344 L 17.1875 33.695312 L 17.128906 33.636719 L 14.644531 33.636719 L 14.574219 33.695312 L 14.574219 33.914062 C 15.367188 34.09375 15.4375 34.042969 15.460938 34.339844 C 15.488281 34.71875 15.488281 35.09375 15.488281 35.484375 L 15.488281 39.089844 C 15.449219 39.914062 15.578125 39.984375 14.605469 40.171875 L 14.605469 40.429688 L 17.238281 40.429688 "/>
<path style=" stroke:none;fill-rule:nonzero;fill:rgb(0%,0%,0%);fill-opacity:1;" d="M 18.65625 33.375 C 19.460938 33.664062 19.6875 34.597656 19.835938 35.34375 C 19.984375 36.109375 20.023438 36.902344 20.023438 37.679688 C 20.023438 38.8125 20.046875 40.023438 19.6875 41.085938 C 19.488281 41.679688 19.109375 41.941406 18.65625 42.058594 L 18.65625 42.296875 C 20.433594 42.070312 20.542969 39.417969 20.542969 37.71875 C 20.542969 36.058594 20.332031 33.457031 18.65625 33.109375 L 18.65625 33.375 "/>
<path style=" stroke:none;fill-rule:nonzero;fill:rgb(0%,0%,0%);fill-opacity:1;" d="M 39.089844 29.4375 C 37.808594 29.191406 37.738281 26.777344 37.738281 25.097656 C 37.738281 23.597656 37.828125 21.074219 39.089844 20.757812 L 39.089844 20.488281 C 38.054688 20.667969 37.609375 21.800781 37.421875 22.753906 C 37.273438 23.5 37.222656 24.273438 37.222656 25.039062 C 37.222656 25.84375 37.261719 26.648438 37.402344 27.441406 C 37.570312 28.386719 38.046875 29.589844 39.089844 29.679688 L 39.089844 29.4375 "/>
<path style=" stroke:none;fill-rule:nonzero;fill:rgb(0%,0%,0%);fill-opacity:1;" d="M 48.683594 25.535156 C 48.3125 25.992188 47.789062 26.777344 47.539062 27.820312 L 47.9375 27.820312 C 48.246094 26.519531 49.078125 25.617188 49.378906 25.335938 C 49.058594 25.039062 48.246094 24.144531 47.9375 22.851562 L 47.539062 22.851562 C 47.789062 23.886719 48.304688 24.671875 48.683594 25.136719 L 40.90625 25.136719 C 40.726562 25.136719 40.554688 25.136719 40.554688 25.335938 C 40.554688 25.535156 40.734375 25.535156 40.90625 25.535156 L 48.683594 25.535156 "/>
<path style=" stroke:none;fill-rule:nonzero;fill:rgb(0%,0%,0%);fill-opacity:1;" d="M 54.429688 24.484375 L 54.488281 24.007812 L 54.429688 23.9375 C 53.902344 23.976562 53.167969 24.007812 52.640625 24.007812 C 52.273438 24.007812 51.984375 24.035156 51.984375 23.867188 L 51.984375 22.21875 C 51.984375 21.871094 52.027344 21.503906 52.226562 21.460938 L 52.621094 21.460938 C 52.691406 21.460938 54.011719 21.523438 54.699219 21.5625 L 54.738281 21.492188 L 54.757812 20.996094 C 54.628906 20.984375 54.480469 20.984375 54.300781 20.984375 C 53.59375 20.996094 52.59375 21.046875 51.898438 21.046875 L 50.425781 21.054688 L 50.355469 21.125 L 50.367188 21.324219 C 50.835938 21.394531 51.0625 21.511719 51.121094 21.640625 C 51.210938 21.839844 51.210938 22.136719 51.210938 22.277344 L 51.210938 27.164062 C 51.210938 27.433594 51.269531 27.710938 51.46875 27.820312 L 55.324219 27.820312 L 55.453125 27.292969 L 55.402344 27.242188 C 53.773438 27.382812 53.546875 27.382812 53.078125 27.382812 C 52.472656 27.382812 52.265625 27.324219 52.125 27.066406 C 51.984375 26.816406 51.976562 26.328125 51.976562 25.953125 L 51.976562 24.570312 C 51.976562 24.394531 52.679688 24.421875 53.257812 24.421875 C 53.644531 24.421875 54.042969 24.453125 54.429688 24.484375 "/>
<path style=" stroke:none;fill-rule:nonzero;fill:rgb(0%,0%,0%);fill-opacity:1;" d="M 56.855469 20.777344 C 57.660156 21.066406 57.886719 22 58.035156 22.742188 C 58.1875 23.507812 58.226562 24.304688 58.226562 25.078125 C 58.226562 26.210938 58.246094 27.421875 57.886719 28.484375 C 57.6875 29.082031 57.3125 29.339844 56.855469 29.460938 L 56.855469 29.699219 C 58.632812 29.46875 58.742188 26.816406 58.742188 25.117188 C 58.742188 23.460938 58.53125 20.855469 56.855469 20.507812 L 56.855469 20.777344 "/>
<path style=" stroke:none;fill-rule:nonzero;fill:rgb(0%,0%,0%);fill-opacity:1;" d="M 99.484375 1.882812 L 99.484375 1.605469 C 98.679688 1.625 97.496094 1.65625 97.0625 1.65625 L 95.09375 1.65625 C 94.347656 1.65625 93.601562 1.617188 92.859375 1.566406 L 92.859375 1.863281 C 93.425781 2.03125 93.515625 2.0625 93.601562 2.140625 C 93.722656 2.261719 93.734375 2.816406 93.734375 3.117188 C 93.734375 3.355469 93.734375 3.601562 93.734375 3.839844 C 93.734375 5.371094 93.722656 6.882812 93.652344 8.398438 L 93.722656 8.460938 L 94.566406 8.273438 C 94.546875 7.25 94.515625 6.035156 94.515625 5.222656 C 94.515625 4.207031 94.515625 3.203125 94.585938 2.203125 C 94.585938 2.121094 94.664062 2.0625 94.726562 2.0625 L 97.597656 2.0625 C 97.617188 2.0625 97.726562 2.09375 97.726562 2.191406 C 97.734375 3.265625 97.746094 4.46875 97.746094 5.539062 C 97.746094 6.511719 97.746094 7.476562 97.714844 8.449219 L 97.855469 8.558594 L 98.648438 8.339844 C 98.550781 7 98.53125 5.667969 98.53125 4.328125 C 98.53125 3.324219 98.550781 2.179688 98.601562 2.113281 C 98.640625 2.082031 98.679688 2.0625 98.730469 2.054688 L 99.484375 1.882812 "/>
<path style=" stroke:none;fill-rule:nonzero;fill:rgb(0%,0%,0%);fill-opacity:1;" d="M 79.578125 22.367188 C 79.515625 21.851562 79.488281 20.886719 79.476562 20.429688 L 79.578125 20.351562 C 79.765625 20.398438 79.964844 20.429688 80.164062 20.429688 C 81.703125 20.429688 82.746094 18.820312 82.746094 17.359375 C 82.746094 16.617188 82.398438 15.703125 81.382812 15.703125 C 80.699219 15.703125 80.09375 16.007812 79.554688 16.4375 L 79.476562 16.398438 C 79.4375 15.960938 79.277344 15.652344 78.832031 15.652344 C 78.394531 15.652344 77.878906 16.007812 77.480469 16.328125 L 77.621094 16.515625 C 77.859375 16.375 78.136719 16.226562 78.34375 16.226562 C 78.644531 16.226562 78.734375 16.742188 78.734375 17.191406 L 78.734375 19.386719 C 78.734375 19.953125 78.722656 21.988281 78.671875 22.566406 L 78.773438 22.675781 Z M 79.496094 19.664062 C 79.496094 19.65625 79.476562 18.632812 79.476562 17.816406 C 79.476562 17.707031 79.507812 16.953125 79.507812 16.894531 C 79.972656 16.523438 80.382812 16.316406 80.886719 16.316406 C 81.523438 16.316406 81.910156 17.082031 81.910156 17.945312 C 81.910156 18.890625 81.574219 20.03125 80.371094 20.03125 C 80.042969 20.03125 79.734375 19.882812 79.496094 19.664062 "/>
<path style=" stroke:none;fill-rule:nonzero;fill:rgb(0%,0%,0%);fill-opacity:1;" d="M 91.464844 17.070312 C 91.632812 17.070312 91.8125 17.070312 91.8125 16.875 C 91.8125 16.675781 91.632812 16.675781 91.464844 16.675781 L 87.242188 16.675781 L 87.242188 13.785156 C 87.242188 13.605469 87.242188 13.425781 87.046875 13.425781 C 86.847656 13.425781 86.847656 13.632812 86.847656 13.785156 L 86.847656 19.960938 C 86.847656 20.109375 86.847656 20.320312 87.046875 20.320312 C 87.242188 20.320312 87.242188 20.140625 87.242188 19.960938 L 87.242188 17.070312 L 91.464844 17.070312 "/>
<path style=" stroke:none;fill-rule:nonzero;fill:rgb(0%,0%,0%);fill-opacity:1;" d="M 101.339844 16.257812 L 95.347656 16.257812 L 95.347656 16.65625 L 100.941406 16.65625 L 100.941406 18.273438 L 101.339844 18.273438 L 101.339844 16.257812 "/>
<path style=" stroke:none;fill-rule:nonzero;fill:rgb(0%,0%,0%);fill-opacity:1;" d="M 108.238281 16.257812 L 102.246094 16.257812 L 102.246094 16.65625 L 107.839844 16.65625 L 107.839844 18.273438 L 108.238281 18.273438 L 108.238281 16.257812 "/>
<path style=" stroke:none;fill-rule:nonzero;fill:rgb(0%,0%,0%);fill-opacity:1;" d="M 110.777344 22.367188 C 110.71875 21.851562 110.6875 20.886719 110.679688 20.429688 L 110.777344 20.351562 C 110.964844 20.398438 111.164062 20.429688 111.363281 20.429688 C 112.902344 20.429688 113.945312 18.820312 113.945312 17.359375 C 113.945312 16.617188 113.597656 15.703125 112.585938 15.703125 C 111.898438 15.703125 111.292969 16.007812 110.757812 16.4375 L 110.679688 16.398438 C 110.636719 15.960938 110.476562 15.652344 110.03125 15.652344 C 109.59375 15.652344 109.078125 16.007812 108.679688 16.328125 L 108.820312 16.515625 C 109.058594 16.375 109.335938 16.226562 109.546875 16.226562 C 109.84375 16.226562 109.933594 16.742188 109.933594 17.191406 L 109.933594 19.386719 C 109.933594 19.953125 109.921875 21.988281 109.871094 22.566406 L 109.972656 22.675781 Z M 110.695312 19.664062 C 110.695312 19.65625 110.679688 18.632812 110.679688 17.816406 C 110.679688 17.707031 110.707031 16.953125 110.707031 16.894531 C 111.171875 16.523438 111.582031 16.316406 112.089844 16.316406 C 112.722656 16.316406 113.109375 17.082031 113.109375 17.945312 C 113.109375 18.890625 112.773438 20.03125 111.570312 20.03125 C 111.242188 20.03125 110.9375 19.882812 110.695312 19.664062 "/>
<path style=" stroke:none;fill-rule:nonzero;fill:rgb(0%,0%,0%);fill-opacity:1;" d="M 140.839844 16.257812 L 134.847656 16.257812 L 134.847656 16.65625 L 140.441406 16.65625 L 140.441406 18.273438 L 140.839844 18.273438 L 140.839844 16.257812 "/>
<path style=" stroke:none;fill-rule:nonzero;fill:rgb(0%,0%,0%);fill-opacity:1;" d="M 147.640625 16.257812 L 141.648438 16.257812 L 141.648438 16.65625 L 147.242188 16.65625 L 147.242188 18.273438 L 147.640625 18.273438 L 147.640625 16.257812 "/>
<path style=" stroke:none;fill-rule:nonzero;fill:rgb(0%,0%,0%);fill-opacity:1;" d="M 154.4375 16.257812 L 148.449219 16.257812 L 148.449219 16.65625 L 154.039062 16.65625 L 154.039062 18.273438 L 154.4375 18.273438 L 154.4375 16.257812 "/>
<path style=" stroke:none;fill-rule:nonzero;fill:rgb(0%,0%,0%);fill-opacity:1;" d="M 156.976562 22.367188 C 156.917969 21.851562 156.886719 20.886719 156.878906 20.429688 L 156.976562 20.351562 C 157.164062 20.398438 157.363281 20.429688 157.5625 20.429688 C 159.101562 20.429688 160.144531 18.820312 160.144531 17.359375 C 160.144531 16.617188 159.796875 15.703125 158.785156 15.703125 C 158.101562 15.703125 157.492188 16.007812 156.957031 16.4375 L 156.878906 16.398438 C 156.839844 15.960938 156.679688 15.652344 156.230469 15.652344 C 155.796875 15.652344 155.277344 16.007812 154.882812 16.328125 L 155.019531 16.515625 C 155.257812 16.375 155.535156 16.226562 155.746094 16.226562 C 156.042969 16.226562 156.132812 16.742188 156.132812 17.191406 L 156.132812 19.386719 C 156.132812 19.953125 156.121094 21.988281 156.074219 22.566406 L 156.171875 22.675781 Z M 156.898438 19.664062 C 156.898438 19.65625 156.878906 18.632812 156.878906 17.816406 C 156.878906 17.707031 156.90625 16.953125 156.90625 16.894531 C 157.371094 16.523438 157.78125 16.316406 158.289062 16.316406 C 158.921875 16.316406 159.3125 17.082031 159.3125 17.945312 C 159.3125 18.890625 158.972656 20.03125 157.773438 20.03125 C 157.445312 20.03125 157.136719 19.882812 156.898438 19.664062 "/>
<path style=" stroke:none;fill-rule:nonzero;fill:rgb(0%,0%,0%);fill-opacity:1;" d="M 168.867188 17.070312 C 169.035156 17.070312 169.214844 17.070312 169.214844 16.875 C 169.214844 16.675781 169.035156 16.675781 168.867188 16.675781 L 164.644531 16.675781 L 164.644531 13.785156 C 164.644531 13.605469 164.644531 13.425781 164.445312 13.425781 C 164.246094 13.425781 164.246094 13.632812 164.246094 13.785156 L 164.246094 19.960938 C 164.246094 20.109375 164.246094 20.320312 164.445312 20.320312 C 164.644531 20.320312 164.644531 20.140625 164.644531 19.960938 L 164.644531 17.070312 L 168.867188 17.070312 "/>
<path style=" stroke:none;fill-rule:nonzero;fill:rgb(0%,0%,0%);fill-opacity:1;" d="M 178.738281 16.257812 L 172.746094 16.257812 L 172.746094 16.65625 L 178.339844 16.65625 L 178.339844 18.273438 L 178.738281 18.273438 L 178.738281 16.257812 "/>
<path style=" stroke:none;fill-rule:nonzero;fill:rgb(0%,0%,0%);fill-opacity:1;" d="M 185.640625 16.257812 L 179.648438 16.257812 L 179.648438 16.65625 L 185.242188 16.65625 L 185.242188 18.273438 L 185.640625 18.273438 L 185.640625 16.257812 "/>
<path style=" stroke:none;fill-rule:nonzero;fill:rgb(0%,0%,0%);fill-opacity:1;" d="M 192.4375 16.257812 L 186.449219 16.257812 L 186.449219 16.65625 L 192.039062 16.65625 L 192.039062 18.273438 L 192.4375 18.273438 L 192.4375 16.257812 "/>
<path style=" stroke:none;fill-rule:nonzero;fill:rgb(0%,0%,0%);fill-opacity:1;" d="M 194.976562 22.367188 C 194.917969 21.851562 194.886719 20.886719 194.878906 20.429688 L 194.976562 20.351562 C 195.164062 20.398438 195.363281 20.429688 195.5625 20.429688 C 197.101562 20.429688 198.144531 18.820312 198.144531 17.359375 C 198.144531 16.617188 197.796875 15.703125 196.785156 15.703125 C 196.101562 15.703125 195.492188 16.007812 194.957031 16.4375 L 194.878906 16.398438 C 194.839844 15.960938 194.679688 15.652344 194.230469 15.652344 C 193.796875 15.652344 193.277344 16.007812 192.882812 16.328125 L 193.019531 16.515625 C 193.257812 16.375 193.535156 16.226562 193.746094 16.226562 C 194.042969 16.226562 194.132812 16.742188 194.132812 17.191406 L 194.132812 19.386719 C 194.132812 19.953125 194.121094 21.988281 194.074219 22.566406 L 194.171875 22.675781 Z M 194.898438 19.664062 C 194.898438 19.65625 194.878906 18.632812 194.878906 17.816406 C 194.878906 17.707031 194.90625 16.953125 194.90625 16.894531 C 195.371094 16.523438 195.78125 16.316406 196.289062 16.316406 C 196.921875 16.316406 197.3125 17.082031 197.3125 17.945312 C 197.3125 18.890625 196.972656 20.03125 195.773438 20.03125 C 195.445312 20.03125 195.136719 19.882812 194.898438 19.664062 "/>
<g clip-path="url(#clip1)" clip-rule="nonzero">
<path style="fill:none;stroke-width:3.98;stroke-linecap:butt;stroke-linejoin:miter;stroke:rgb(0%,0%,0%);stroke-opacity:1;stroke-miterlimit:10;" d="M 726.640625 238.114063 L 2038.398438 238.114063 " transform="matrix(0.1,0,0,-0.1,0,49.12)"/>
</g>
<path style=" stroke:none;fill-rule:nonzero;fill:rgb(0%,0%,0%);fill-opacity:1;" d="M 112.277344 36.667969 C 112.21875 36.148438 112.1875 35.1875 112.179688 34.730469 L 112.277344 34.648438 C 112.464844 34.699219 112.664062 34.730469 112.863281 34.730469 C 114.402344 34.730469 115.445312 33.121094 115.445312 31.660156 C 115.445312 30.914062 115.097656 30 114.085938 30 C 113.398438 30 112.792969 30.308594 112.257812 30.734375 L 112.179688 30.695312 C 112.136719 30.257812 111.976562 29.953125 111.53125 29.953125 C 111.09375 29.953125 110.578125 30.308594 110.179688 30.625 L 110.320312 30.816406 C 110.558594 30.675781 110.835938 30.527344 111.046875 30.527344 C 111.34375 30.527344 111.433594 31.042969 111.433594 31.492188 L 111.433594 33.6875 C 111.433594 34.253906 111.421875 36.289062 111.371094 36.867188 L 111.472656 36.976562 Z M 112.195312 33.964844 C 112.195312 33.953125 112.179688 32.929688 112.179688 32.117188 C 112.179688 32.007812 112.207031 31.253906 112.207031 31.195312 C 112.671875 30.824219 113.082031 30.617188 113.589844 30.617188 C 114.222656 30.617188 114.609375 31.382812 114.609375 32.246094 C 114.609375 33.191406 114.273438 34.332031 113.070312 34.332031 C 112.742188 34.332031 112.4375 34.183594 112.195312 33.964844 "/>
<path style=" stroke:none;fill-rule:nonzero;fill:rgb(0%,0%,0%);fill-opacity:1;" d="M 117.191406 36.707031 C 117.898438 35.890625 118.226562 35.386719 118.226562 34.890625 C 118.226562 34.539062 117.878906 33.25 117.351562 33.25 C 117.101562 33.25 116.765625 33.46875 116.765625 33.726562 C 116.765625 33.824219 116.796875 33.933594 116.835938 33.984375 L 117.53125 34.808594 C 117.621094 34.917969 117.660156 35.085938 117.660156 35.226562 C 117.660156 35.625 117.351562 36.109375 117.003906 36.566406 L 117.191406 36.707031 "/>
<path style=" stroke:none;fill-rule:nonzero;fill:rgb(0%,0%,0%);fill-opacity:1;" d="M 126.839844 30.558594 L 120.847656 30.558594 L 120.847656 30.953125 L 126.441406 30.953125 L 126.441406 32.574219 L 126.839844 32.574219 L 126.839844 30.558594 "/>
<path style=" stroke:none;fill-rule:nonzero;fill:rgb(0%,0%,0%);fill-opacity:1;" d="M 133.640625 30.558594 L 127.648438 30.558594 L 127.648438 30.953125 L 133.242188 30.953125 L 133.242188 32.574219 L 133.640625 32.574219 L 133.640625 30.558594 "/>
<path style=" stroke:none;fill-rule:nonzero;fill:rgb(0%,0%,0%);fill-opacity:1;" d="M 140.4375 30.558594 L 134.449219 30.558594 L 134.449219 30.953125 L 140.039062 30.953125 L 140.039062 32.574219 L 140.4375 32.574219 L 140.4375 30.558594 "/>
<path style=" stroke:none;fill-rule:nonzero;fill:rgb(0%,0%,0%);fill-opacity:1;" d="M 142.976562 36.667969 C 142.917969 36.148438 142.886719 35.1875 142.878906 34.730469 L 142.976562 34.648438 C 143.164062 34.699219 143.363281 34.730469 143.5625 34.730469 C 145.101562 34.730469 146.144531 33.121094 146.144531 31.660156 C 146.144531 30.914062 145.796875 30 144.785156 30 C 144.101562 30 143.492188 30.308594 142.957031 30.734375 L 142.878906 30.695312 C 142.839844 30.257812 142.679688 29.953125 142.230469 29.953125 C 141.796875 29.953125 141.277344 30.308594 140.882812 30.625 L 141.019531 30.816406 C 141.257812 30.675781 141.535156 30.527344 141.746094 30.527344 C 142.042969 30.527344 142.132812 31.042969 142.132812 31.492188 L 142.132812 33.6875 C 142.132812 34.253906 142.121094 36.289062 142.074219 36.867188 L 142.171875 36.976562 Z M 142.898438 33.964844 C 142.898438 33.953125 142.878906 32.929688 142.878906 32.117188 C 142.878906 32.007812 142.90625 31.253906 142.90625 31.195312 C 143.371094 30.824219 143.78125 30.617188 144.289062 30.617188 C 144.921875 30.617188 145.3125 31.382812 145.3125 32.246094 C 145.3125 33.191406 144.972656 34.332031 143.773438 34.332031 C 143.445312 34.332031 143.136719 34.183594 142.898438 33.964844 "/>
<path style=" stroke:none;fill-rule:nonzero;fill:rgb(0%,0%,0%);fill-opacity:1;" d="M 154.867188 31.371094 C 155.035156 31.371094 155.214844 31.371094 155.214844 31.171875 C 155.214844 30.976562 155.035156 30.976562 154.867188 30.976562 L 150.644531 30.976562 L 150.644531 28.085938 C 150.644531 27.90625 150.644531 27.726562 150.445312 27.726562 C 150.246094 27.726562 150.246094 27.933594 150.246094 28.085938 L 150.246094 34.261719 C 150.246094 34.410156 150.246094 34.621094 150.445312 34.621094 C 150.644531 34.621094 150.644531 34.441406 150.644531 34.261719 L 150.644531 31.371094 L 154.867188 31.371094 "/>
<path style=" stroke:none;fill-rule:nonzero;fill:rgb(0%,0%,0%);fill-opacity:1;" d="M 162.5625 28.34375 C 162.5625 28.164062 162.5625 27.984375 162.363281 27.984375 C 162.164062 27.984375 162.164062 28.195312 162.164062 28.34375 L 162.164062 34.222656 L 159.40625 34.222656 C 159.253906 34.222656 159.046875 34.222656 159.046875 34.421875 C 159.046875 34.621094 159.253906 34.621094 159.40625 34.621094 L 165.335938 34.621094 C 165.503906 34.621094 165.683594 34.621094 165.683594 34.421875 C 165.683594 34.222656 165.503906 34.222656 165.335938 34.222656 L 162.5625 34.222656 L 162.5625 28.34375 "/>
<g clip-path="url(#clip2)" clip-rule="nonzero">
<path style="fill:none;stroke-width:3.98;stroke-linecap:butt;stroke-linejoin:miter;stroke:rgb(0%,0%,0%);stroke-opacity:1;stroke-miterlimit:10;" d="M 344.53125 112.059375 L 2038.4375 112.059375 " transform="matrix(0.1,0,0,-0.1,0,49.12)"/>
</g>
<path style=" stroke:none;fill-rule:nonzero;fill:rgb(0%,0%,0%);fill-opacity:1;" d="M 100.039062 43.15625 L 94.046875 43.15625 L 94.046875 43.554688 L 99.640625 43.554688 L 99.640625 45.171875 L 100.039062 45.171875 L 100.039062 43.15625 "/>
<path style=" stroke:none;fill-rule:nonzero;fill:rgb(0%,0%,0%);fill-opacity:1;" d="M 106.839844 43.15625 L 100.847656 43.15625 L 100.847656 43.554688 L 106.441406 43.554688 L 106.441406 45.171875 L 106.839844 45.171875 L 106.839844 43.15625 "/>
<path style=" stroke:none;fill-rule:nonzero;fill:rgb(0%,0%,0%);fill-opacity:1;" d="M 113.738281 43.15625 L 107.746094 43.15625 L 107.746094 43.554688 L 113.339844 43.554688 L 113.339844 45.171875 L 113.738281 45.171875 L 113.738281 43.15625 "/>
<g clip-path="url(#clip3)" clip-rule="nonzero">
<path style=" stroke:none;fill-rule:nonzero;fill:rgb(0%,0%,0%);fill-opacity:1;" d="M 116.277344 49.265625 C 116.21875 48.75 116.1875 47.785156 116.179688 47.328125 L 116.277344 47.25 C 116.464844 47.300781 116.664062 47.328125 116.863281 47.328125 C 118.402344 47.328125 119.445312 45.71875 119.445312 44.257812 C 119.445312 43.515625 119.097656 42.601562 118.085938 42.601562 C 117.398438 42.601562 116.792969 42.910156 116.257812 43.335938 L 116.179688 43.296875 C 116.136719 42.859375 115.976562 42.550781 115.53125 42.550781 C 115.09375 42.550781 114.578125 42.910156 114.179688 43.226562 L 114.320312 43.414062 C 114.558594 43.277344 114.835938 43.128906 115.046875 43.128906 C 115.34375 43.128906 115.433594 43.644531 115.433594 44.089844 L 115.433594 46.285156 C 115.433594 46.851562 115.421875 48.890625 115.371094 49.464844 L 115.472656 49.574219 Z M 116.195312 46.5625 C 116.195312 46.554688 116.179688 45.53125 116.179688 44.71875 C 116.179688 44.609375 116.207031 43.851562 116.207031 43.792969 C 116.671875 43.425781 117.082031 43.21875 117.589844 43.21875 C 118.222656 43.21875 118.609375 43.980469 118.609375 44.847656 C 118.609375 45.789062 118.273438 46.933594 117.070312 46.933594 C 116.742188 46.933594 116.4375 46.78125 116.195312 46.5625 "/>
</g>
<path style=" stroke:none;fill-rule:nonzero;fill:rgb(0%,0%,0%);fill-opacity:1;" d="M 128.066406 43.972656 C 128.234375 43.972656 128.414062 43.972656 128.414062 43.773438 C 128.414062 43.574219 128.234375 43.574219 128.066406 43.574219 L 123.84375 43.574219 L 123.84375 40.683594 C 123.84375 40.503906 123.84375 40.328125 123.644531 40.328125 C 123.445312 40.328125 123.445312 40.535156 123.445312 40.683594 L 123.445312 46.863281 C 123.445312 47.011719 123.445312 47.21875 123.644531 47.21875 C 123.84375 47.21875 123.84375 47.042969 123.84375 46.863281 L 123.84375 43.972656 L 128.066406 43.972656 "/>
<path style=" stroke:none;fill-rule:nonzero;fill:rgb(0%,0%,0%);fill-opacity:1;" d="M 138.039062 43.15625 L 132.046875 43.15625 L 132.046875 43.554688 L 137.640625 43.554688 L 137.640625 45.171875 L 138.039062 45.171875 L 138.039062 43.15625 "/>
<g clip-path="url(#clip4)" clip-rule="nonzero">
<path style=" stroke:none;fill-rule:nonzero;fill:rgb(0%,0%,0%);fill-opacity:1;" d="M 140.578125 49.265625 C 140.515625 48.75 140.488281 47.785156 140.476562 47.328125 L 140.578125 47.25 C 140.765625 47.300781 140.964844 47.328125 141.164062 47.328125 C 142.703125 47.328125 143.746094 45.71875 143.746094 44.257812 C 143.746094 43.515625 143.398438 42.601562 142.382812 42.601562 C 141.699219 42.601562 141.09375 42.910156 140.554688 43.335938 L 140.476562 43.296875 C 140.4375 42.859375 140.277344 42.550781 139.832031 42.550781 C 139.394531 42.550781 138.878906 42.910156 138.480469 43.226562 L 138.621094 43.414062 C 138.859375 43.277344 139.136719 43.128906 139.34375 43.128906 C 139.644531 43.128906 139.734375 43.644531 139.734375 44.089844 L 139.734375 46.285156 C 139.734375 46.851562 139.722656 48.890625 139.671875 49.464844 L 139.773438 49.574219 Z M 140.496094 46.5625 C 140.496094 46.554688 140.476562 45.53125 140.476562 44.71875 C 140.476562 44.609375 140.507812 43.851562 140.507812 43.792969 C 140.972656 43.425781 141.382812 43.21875 141.886719 43.21875 C 142.523438 43.21875 142.910156 43.980469 142.910156 44.847656 C 142.910156 45.789062 142.574219 46.933594 141.371094 46.933594 C 141.042969 46.933594 140.734375 46.78125 140.496094 46.5625 "/>
</g>
</g>
</svg>
