<?xml version="1.0" encoding="UTF-8"?>
<svg xmlns="http://www.w3.org/2000/svg" xmlns:xlink="http://www.w3.org/1999/xlink" width="171.24pt" height="49.76pt" viewBox="0 0 171.24 49.76" version="1.1">
<defs>
<clipPath id="clip1">
  <path d="M 100 13 L 171.238281 13 L 171.238281 14 L 100 14 Z M 100 13 "/>
</clipPath>
<clipPath id="clip2">
  <path d="M 62 25 L 171.238281 25 L 171.238281 27 L 62 27 Z M 62 25 "/>
</clipPath>
<clipPath id="clip3">
  <path d="M 34 38 L 171.238281 38 L 171.238281 39 L 34 39 Z M 34 38 "/>
</clipPath>
<clipPath id="clip4">
  <path d="M 84 43 L 90 43 L 90 49.761719 L 84 49.761719 Z M 84 43 "/>
</clipPath>
<clipPath id="clip5">
  <path d="M 115 43 L 121 43 L 121 49.761719 L 115 49.761719 Z M 115 43 "/>
</clipPath>
</defs>
<g id="surface1">
<path style=" stroke:none;fill-rule:nonzero;fill:rgb(0%,0%,0%);fill-opacity:1;" d="M 2.992188 42.679688 C 1.710938 42.429688 1.640625 40.015625 1.640625 38.339844 C 1.640625 36.839844 1.726562 34.316406 2.992188 33.996094 L 2.992188 33.730469 C 1.957031 33.910156 1.507812 35.039062 1.320312 35.996094 C 1.171875 36.738281 1.121094 37.511719 1.121094 38.277344 C 1.121094 39.082031 1.164062 39.886719 1.300781 40.683594 C 1.46875 41.625 1.945312 42.828125 2.992188 42.917969 L 2.992188 42.679688 "/>
<path style=" stroke:none;fill-rule:nonzero;fill:rgb(0%,0%,0%);fill-opacity:1;" d="M 12.582031 38.777344 C 12.214844 39.230469 11.6875 40.015625 11.4375 41.058594 L 11.835938 41.058594 C 12.144531 39.757812 12.980469 38.855469 13.277344 38.578125 C 12.960938 38.277344 12.144531 37.386719 11.835938 36.09375 L 11.4375 36.09375 C 11.6875 37.125 12.203125 37.910156 12.582031 38.378906 L 4.804688 38.378906 C 4.625 38.378906 4.457031 38.378906 4.457031 38.578125 C 4.457031 38.777344 4.632812 38.777344 4.804688 38.777344 L 12.582031 38.777344 "/>
<path style=" stroke:none;fill-rule:nonzero;fill:rgb(0%,0%,0%);fill-opacity:1;" d="M 17.238281 41.070312 L 17.257812 40.832031 C 17.246094 40.832031 16.820312 40.722656 16.609375 40.664062 C 16.195312 40.554688 16.304688 39.808594 16.292969 39.382812 C 16.28125 38.777344 16.273438 38.160156 16.273438 37.496094 C 16.273438 36.71875 16.214844 35.535156 16.304688 34.949219 C 16.3125 34.832031 16.390625 34.722656 16.523438 34.691406 L 17.1875 34.542969 L 17.1875 34.335938 L 17.128906 34.277344 L 14.644531 34.277344 L 14.574219 34.335938 L 14.574219 34.554688 C 15.367188 34.730469 15.4375 34.683594 15.460938 34.980469 C 15.488281 35.359375 15.488281 35.734375 15.488281 36.121094 L 15.488281 39.730469 C 15.449219 40.554688 15.578125 40.621094 14.605469 40.8125 L 14.605469 41.070312 L 17.238281 41.070312 "/>
<path style=" stroke:none;fill-rule:nonzero;fill:rgb(0%,0%,0%);fill-opacity:1;" d="M 18.65625 34.015625 C 19.460938 34.304688 19.6875 35.238281 19.835938 35.984375 C 19.984375 36.75 20.023438 37.542969 20.023438 38.316406 C 20.023438 39.449219 20.046875 40.664062 19.6875 41.726562 C 19.488281 42.320312 19.109375 42.582031 18.65625 42.699219 L 18.65625 42.9375 C 20.433594 42.707031 20.542969 40.058594 20.542969 38.359375 C 20.542969 36.699219 20.332031 34.097656 18.65625 33.75 L 18.65625 34.015625 "/>
<path style=" stroke:none;fill-rule:nonzero;fill:rgb(0%,0%,0%);fill-opacity:1;" d="M 39.089844 30.078125 C 37.808594 29.832031 37.738281 27.417969 37.738281 25.738281 C 37.738281 24.238281 37.828125 21.714844 39.089844 21.398438 L 39.089844 21.128906 C 38.054688 21.308594 37.609375 22.441406 37.421875 23.394531 C 37.273438 24.136719 37.222656 24.914062 37.222656 25.679688 C 37.222656 26.484375 37.261719 27.289062 37.402344 28.082031 C 37.570312 29.027344 38.046875 30.230469 39.089844 30.316406 L 39.089844 30.078125 "/>
<path style=" stroke:none;fill-rule:nonzero;fill:rgb(0%,0%,0%);fill-opacity:1;" d="M 42.789062 22.101562 C 43.703125 22.101562 44.507812 22.402344 44.507812 23.433594 C 44.507812 24.535156 43.578125 25.191406 42.195312 25.191406 C 42.15625 25.191406 42.085938 25.160156 42.085938 25.074219 C 42.085938 24.207031 42.105469 23.085938 42.144531 22.210938 C 42.144531 22.160156 42.164062 22.101562 42.234375 22.101562 Z M 42.15625 28.242188 C 42.144531 27.238281 42.085938 25.988281 42.085938 25.738281 C 42.085938 25.550781 42.730469 25.570312 43.019531 25.550781 C 43.664062 25.5 44.390625 25.351562 44.828125 24.902344 C 45.246094 24.488281 45.464844 23.941406 45.464844 23.355469 C 45.464844 22.300781 44.796875 21.714844 43.167969 21.714844 L 40.617188 21.714844 L 40.546875 21.785156 L 40.546875 21.964844 C 40.921875 22.011719 41.25 22.101562 41.28125 22.5 C 41.3125 23.085938 41.332031 23.671875 41.332031 24.257812 C 41.332031 25.660156 41.28125 27.058594 41.261719 28.449219 L 41.332031 28.519531 L 42.15625 28.242188 "/>
<path style=" stroke:none;fill-rule:nonzero;fill:rgb(0%,0%,0%);fill-opacity:1;" d="M 46.855469 21.417969 C 47.660156 21.707031 47.886719 22.636719 48.035156 23.382812 C 48.1875 24.148438 48.226562 24.941406 48.226562 25.71875 C 48.226562 26.851562 48.246094 28.0625 47.886719 29.125 C 47.6875 29.722656 47.3125 29.980469 46.855469 30.097656 L 46.855469 30.339844 C 48.632812 30.109375 48.742188 27.457031 48.742188 25.757812 C 48.742188 24.097656 48.53125 21.496094 46.855469 21.148438 L 46.855469 21.417969 "/>
<path style=" stroke:none;fill-rule:nonzero;fill:rgb(0%,0%,0%);fill-opacity:1;" d="M 67.289062 17.480469 C 66.007812 17.230469 65.9375 14.816406 65.9375 13.136719 C 65.9375 11.636719 66.027344 9.113281 67.289062 8.796875 L 67.289062 8.527344 C 66.257812 8.707031 65.808594 9.839844 65.621094 10.792969 C 65.472656 11.539062 65.421875 12.3125 65.421875 13.078125 C 65.421875 13.882812 65.460938 14.6875 65.601562 15.480469 C 65.769531 16.425781 66.246094 17.628906 67.289062 17.71875 L 67.289062 17.480469 "/>
<path style=" stroke:none;fill-rule:nonzero;fill:rgb(0%,0%,0%);fill-opacity:1;" d="M 76.882812 13.574219 C 76.515625 14.03125 75.988281 14.816406 75.738281 15.859375 L 76.136719 15.859375 C 76.445312 14.558594 77.28125 13.65625 77.578125 13.378906 C 77.257812 13.078125 76.445312 12.183594 76.136719 10.894531 L 75.738281 10.894531 C 75.988281 11.925781 76.503906 12.710938 76.882812 13.175781 L 69.105469 13.175781 C 68.925781 13.175781 68.757812 13.175781 68.757812 13.378906 C 68.757812 13.574219 68.933594 13.574219 69.105469 13.574219 L 76.882812 13.574219 "/>
<path style=" stroke:none;fill-rule:nonzero;fill:rgb(0%,0%,0%);fill-opacity:1;" d="M 82.730469 12.523438 L 82.789062 12.046875 L 82.730469 11.976562 C 82.203125 12.015625 81.46875 12.046875 80.941406 12.046875 C 80.574219 12.046875 80.285156 12.074219 80.285156 11.90625 L 80.285156 10.257812 C 80.285156 9.910156 80.328125 9.542969 80.523438 9.503906 L 80.921875 9.503906 C 80.992188 9.503906 82.3125 9.5625 83 9.601562 L 83.039062 9.53125 L 83.058594 9.035156 C 82.929688 9.027344 82.78125 9.027344 82.601562 9.027344 C 81.894531 9.035156 80.890625 9.085938 80.195312 9.085938 L 78.726562 9.09375 L 78.65625 9.164062 L 78.667969 9.363281 C 79.132812 9.433594 79.363281 9.550781 79.421875 9.683594 C 79.511719 9.878906 79.511719 10.175781 79.511719 10.316406 L 79.511719 15.203125 C 79.511719 15.472656 79.570312 15.75 79.769531 15.859375 L 83.625 15.859375 L 83.753906 15.332031 L 83.703125 15.285156 C 82.074219 15.421875 81.84375 15.421875 81.378906 15.421875 C 80.773438 15.421875 80.5625 15.363281 80.425781 15.105469 C 80.285156 14.855469 80.277344 14.371094 80.277344 13.992188 L 80.277344 12.613281 C 80.277344 12.433594 80.980469 12.464844 81.558594 12.464844 C 81.945312 12.464844 82.34375 12.492188 82.730469 12.523438 "/>
<path style=" stroke:none;fill-rule:nonzero;fill:rgb(0%,0%,0%);fill-opacity:1;" d="M 85.054688 8.816406 C 85.859375 9.105469 86.085938 10.039062 86.234375 10.785156 C 86.386719 11.550781 86.425781 12.34375 86.425781 13.117188 C 86.425781 14.25 86.445312 15.464844 86.085938 16.527344 C 85.890625 17.121094 85.511719 17.378906 85.054688 17.5 L 85.054688 17.738281 C 86.832031 17.507812 86.941406 14.855469 86.941406 13.160156 C 86.941406 11.5 86.734375 8.894531 85.054688 8.550781 L 85.054688 8.816406 "/>
<path style=" stroke:none;fill-rule:nonzero;fill:rgb(0%,0%,0%);fill-opacity:1;" d="M 102.878906 10.40625 C 102.816406 9.890625 102.789062 8.925781 102.777344 8.46875 L 102.878906 8.390625 C 103.066406 8.441406 103.265625 8.46875 103.464844 8.46875 C 105.003906 8.46875 106.046875 6.859375 106.046875 5.398438 C 106.046875 4.65625 105.699219 3.742188 104.683594 3.742188 C 104 3.742188 103.394531 4.050781 102.855469 4.476562 L 102.777344 4.4375 C 102.738281 4 102.578125 3.691406 102.132812 3.691406 C 101.695312 3.691406 101.179688 4.050781 100.78125 4.367188 L 100.921875 4.554688 C 101.15625 4.417969 101.4375 4.269531 101.644531 4.269531 C 101.945312 4.269531 102.03125 4.785156 102.03125 5.230469 L 102.03125 7.425781 C 102.03125 7.992188 102.023438 10.027344 101.972656 10.605469 L 102.070312 10.714844 Z M 102.796875 7.703125 C 102.796875 7.695312 102.777344 6.671875 102.777344 5.855469 C 102.777344 5.746094 102.808594 4.992188 102.808594 4.933594 C 103.273438 4.566406 103.679688 4.355469 104.1875 4.355469 C 104.824219 4.355469 105.210938 5.121094 105.210938 5.988281 C 105.210938 6.929688 104.871094 8.074219 103.671875 8.074219 C 103.34375 8.074219 103.035156 7.921875 102.796875 7.703125 "/>
<path style=" stroke:none;fill-rule:nonzero;fill:rgb(0%,0%,0%);fill-opacity:1;" d="M 114.664062 5.113281 C 114.835938 5.113281 115.011719 5.113281 115.011719 4.914062 C 115.011719 4.714844 114.835938 4.714844 114.664062 4.714844 L 110.445312 4.714844 L 110.445312 1.824219 C 110.445312 1.644531 110.445312 1.464844 110.246094 1.464844 C 110.046875 1.464844 110.046875 1.675781 110.046875 1.824219 L 110.046875 8.003906 C 110.046875 8.152344 110.046875 8.359375 110.246094 8.359375 C 110.445312 8.359375 110.445312 8.183594 110.445312 8.003906 L 110.445312 5.113281 L 114.664062 5.113281 "/>
<path style=" stroke:none;fill-rule:nonzero;fill:rgb(0%,0%,0%);fill-opacity:1;" d="M 120.378906 10.40625 C 120.316406 9.890625 120.289062 8.925781 120.277344 8.46875 L 120.378906 8.390625 C 120.566406 8.441406 120.765625 8.46875 120.964844 8.46875 C 122.503906 8.46875 123.546875 6.859375 123.546875 5.398438 C 123.546875 4.65625 123.199219 3.742188 122.183594 3.742188 C 121.5 3.742188 120.894531 4.050781 120.355469 4.476562 L 120.277344 4.4375 C 120.238281 4 120.078125 3.691406 119.632812 3.691406 C 119.195312 3.691406 118.679688 4.050781 118.28125 4.367188 L 118.421875 4.554688 C 118.65625 4.417969 118.9375 4.269531 119.144531 4.269531 C 119.445312 4.269531 119.53125 4.785156 119.53125 5.230469 L 119.53125 7.425781 C 119.53125 7.992188 119.523438 10.027344 119.472656 10.605469 L 119.570312 10.714844 Z M 120.296875 7.703125 C 120.296875 7.695312 120.277344 6.671875 120.277344 5.855469 C 120.277344 5.746094 120.308594 4.992188 120.308594 4.933594 C 120.773438 4.566406 121.179688 4.355469 121.6875 4.355469 C 122.324219 4.355469 122.710938 5.121094 122.710938 5.988281 C 122.710938 6.929688 122.371094 8.074219 121.171875 8.074219 C 120.84375 8.074219 120.535156 7.921875 120.296875 7.703125 "/>
<path style=" stroke:none;fill-rule:nonzero;fill:rgb(0%,0%,0%);fill-opacity:1;" d="M 140.4375 4.296875 L 134.449219 4.296875 L 134.449219 4.695312 L 140.039062 4.695312 L 140.039062 6.3125 L 140.4375 6.3125 L 140.4375 4.296875 "/>
<path style=" stroke:none;fill-rule:nonzero;fill:rgb(0%,0%,0%);fill-opacity:1;" d="M 142.976562 10.40625 C 142.917969 9.890625 142.886719 8.925781 142.878906 8.46875 L 142.976562 8.390625 C 143.164062 8.441406 143.363281 8.46875 143.5625 8.46875 C 145.101562 8.46875 146.144531 6.859375 146.144531 5.398438 C 146.144531 4.65625 145.796875 3.742188 144.785156 3.742188 C 144.101562 3.742188 143.492188 4.050781 142.957031 4.476562 L 142.878906 4.4375 C 142.839844 4 142.679688 3.691406 142.230469 3.691406 C 141.796875 3.691406 141.277344 4.050781 140.882812 4.367188 L 141.019531 4.554688 C 141.257812 4.417969 141.535156 4.269531 141.746094 4.269531 C 142.042969 4.269531 142.132812 4.785156 142.132812 5.230469 L 142.132812 7.425781 C 142.132812 7.992188 142.121094 10.027344 142.074219 10.605469 L 142.171875 10.714844 Z M 142.898438 7.703125 C 142.898438 7.695312 142.878906 6.671875 142.878906 5.855469 C 142.878906 5.746094 142.90625 4.992188 142.90625 4.933594 C 143.371094 4.566406 143.78125 4.355469 144.289062 4.355469 C 144.921875 4.355469 145.3125 5.121094 145.3125 5.988281 C 145.3125 6.929688 144.972656 8.074219 143.773438 8.074219 C 143.445312 8.074219 143.136719 7.921875 142.898438 7.703125 "/>
<path style=" stroke:none;fill-rule:nonzero;fill:rgb(0%,0%,0%);fill-opacity:1;" d="M 154.867188 5.113281 C 155.035156 5.113281 155.214844 5.113281 155.214844 4.914062 C 155.214844 4.714844 155.035156 4.714844 154.867188 4.714844 L 150.644531 4.714844 L 150.644531 1.824219 C 150.644531 1.644531 150.644531 1.464844 150.445312 1.464844 C 150.246094 1.464844 150.246094 1.675781 150.246094 1.824219 L 150.246094 8.003906 C 150.246094 8.152344 150.246094 8.359375 150.445312 8.359375 C 150.644531 8.359375 150.644531 8.183594 150.644531 8.003906 L 150.644531 5.113281 L 154.867188 5.113281 "/>
<path style=" stroke:none;fill-rule:nonzero;fill:rgb(0%,0%,0%);fill-opacity:1;" d="M 164.738281 4.296875 L 158.746094 4.296875 L 158.746094 4.695312 L 164.339844 4.695312 L 164.339844 6.3125 L 164.738281 6.3125 L 164.738281 4.296875 "/>
<path style=" stroke:none;fill-rule:nonzero;fill:rgb(0%,0%,0%);fill-opacity:1;" d="M 167.378906 10.40625 C 167.316406 9.890625 167.289062 8.925781 167.277344 8.46875 L 167.378906 8.390625 C 167.566406 8.441406 167.765625 8.46875 167.964844 8.46875 C 169.503906 8.46875 170.546875 6.859375 170.546875 5.398438 C 170.546875 4.65625 170.199219 3.742188 169.183594 3.742188 C 168.5 3.742188 167.894531 4.050781 167.355469 4.476562 L 167.277344 4.4375 C 167.238281 4 167.078125 3.691406 166.632812 3.691406 C 166.195312 3.691406 165.679688 4.050781 165.28125 4.367188 L 165.421875 4.554688 C 165.65625 4.417969 165.9375 4.269531 166.144531 4.269531 C 166.445312 4.269531 166.53125 4.785156 166.53125 5.230469 L 166.53125 7.425781 C 166.53125 7.992188 166.523438 10.027344 166.472656 10.605469 L 166.570312 10.714844 Z M 167.296875 7.703125 C 167.296875 7.695312 167.277344 6.671875 167.277344 5.855469 C 167.277344 5.746094 167.308594 4.992188 167.308594 4.933594 C 167.773438 4.566406 168.179688 4.355469 168.6875 4.355469 C 169.324219 4.355469 169.710938 5.121094 169.710938 5.988281 C 169.710938 6.929688 169.371094 8.074219 168.171875 8.074219 C 167.84375 8.074219 167.535156 7.921875 167.296875 7.703125 "/>
<g clip-path="url(#clip1)" clip-rule="nonzero">
<path style="fill:none;stroke-width:3.98;stroke-linecap:butt;stroke-linejoin:miter;stroke:rgb(0%,0%,0%);stroke-opacity:1;stroke-miterlimit:10;" d="M 1008.984375 364.123438 L 1712.382812 364.123438 " transform="matrix(0.1,0,0,-0.1,0,49.76)"/>
</g>
<path style=" stroke:none;fill-rule:nonzero;fill:rgb(0%,0%,0%);fill-opacity:1;" d="M 116.878906 24.707031 C 116.816406 24.191406 116.789062 23.226562 116.777344 22.769531 L 116.878906 22.691406 C 117.066406 22.738281 117.265625 22.769531 117.464844 22.769531 C 119.003906 22.769531 120.046875 21.160156 120.046875 19.699219 C 120.046875 18.957031 119.699219 18.042969 118.683594 18.042969 C 118 18.042969 117.394531 18.347656 116.855469 18.777344 L 116.777344 18.738281 C 116.738281 18.300781 116.578125 17.992188 116.132812 17.992188 C 115.695312 17.992188 115.179688 18.347656 114.78125 18.667969 L 114.921875 18.855469 C 115.15625 18.714844 115.4375 18.566406 115.644531 18.566406 C 115.945312 18.566406 116.03125 19.082031 116.03125 19.53125 L 116.03125 21.726562 C 116.03125 22.292969 116.023438 24.328125 115.972656 24.90625 L 116.070312 25.015625 Z M 116.796875 22.003906 C 116.796875 21.996094 116.777344 20.972656 116.777344 20.15625 C 116.777344 20.046875 116.808594 19.292969 116.808594 19.234375 C 117.273438 18.863281 117.679688 18.65625 118.1875 18.65625 C 118.824219 18.65625 119.210938 19.421875 119.210938 20.285156 C 119.210938 21.230469 118.871094 22.371094 117.671875 22.371094 C 117.34375 22.371094 117.035156 22.222656 116.796875 22.003906 "/>
<path style=" stroke:none;fill-rule:nonzero;fill:rgb(0%,0%,0%);fill-opacity:1;" d="M 121.890625 24.746094 C 122.597656 23.933594 122.925781 23.425781 122.925781 22.929688 C 122.925781 22.582031 122.578125 21.289062 122.050781 21.289062 C 121.804688 21.289062 121.464844 21.507812 121.464844 21.765625 C 121.464844 21.863281 121.496094 21.972656 121.535156 22.023438 L 122.230469 22.847656 C 122.320312 22.957031 122.359375 23.128906 122.359375 23.265625 C 122.359375 23.664062 122.050781 24.152344 121.703125 24.605469 L 121.890625 24.746094 "/>
<path style=" stroke:none;fill-rule:nonzero;fill:rgb(0%,0%,0%);fill-opacity:1;" d="M 131.4375 18.597656 L 125.449219 18.597656 L 125.449219 18.996094 L 131.039062 18.996094 L 131.039062 20.613281 L 131.4375 20.613281 L 131.4375 18.597656 "/>
<path style=" stroke:none;fill-rule:nonzero;fill:rgb(0%,0%,0%);fill-opacity:1;" d="M 133.976562 24.707031 C 133.917969 24.191406 133.886719 23.226562 133.878906 22.769531 L 133.976562 22.691406 C 134.164062 22.738281 134.363281 22.769531 134.5625 22.769531 C 136.101562 22.769531 137.144531 21.160156 137.144531 19.699219 C 137.144531 18.957031 136.796875 18.042969 135.785156 18.042969 C 135.101562 18.042969 134.492188 18.347656 133.957031 18.777344 L 133.878906 18.738281 C 133.839844 18.300781 133.679688 17.992188 133.230469 17.992188 C 132.796875 17.992188 132.277344 18.347656 131.882812 18.667969 L 132.019531 18.855469 C 132.257812 18.714844 132.535156 18.566406 132.746094 18.566406 C 133.042969 18.566406 133.132812 19.082031 133.132812 19.53125 L 133.132812 21.726562 C 133.132812 22.292969 133.121094 24.328125 133.074219 24.90625 L 133.171875 25.015625 Z M 133.898438 22.003906 C 133.898438 21.996094 133.878906 20.972656 133.878906 20.15625 C 133.878906 20.046875 133.90625 19.292969 133.90625 19.234375 C 134.371094 18.863281 134.78125 18.65625 135.289062 18.65625 C 135.921875 18.65625 136.3125 19.421875 136.3125 20.285156 C 136.3125 21.230469 135.972656 22.371094 134.773438 22.371094 C 134.445312 22.371094 134.136719 22.222656 133.898438 22.003906 "/>
<path style=" stroke:none;fill-rule:nonzero;fill:rgb(0%,0%,0%);fill-opacity:1;" d="M 145.765625 19.410156 C 145.933594 19.410156 146.113281 19.410156 146.113281 19.214844 C 146.113281 19.015625 145.933594 19.015625 145.765625 19.015625 L 141.542969 19.015625 L 141.542969 16.125 C 141.542969 15.945312 141.542969 15.765625 141.34375 15.765625 C 141.148438 15.765625 141.148438 15.972656 141.148438 16.125 L 141.148438 22.300781 C 141.148438 22.449219 141.148438 22.660156 141.34375 22.660156 C 141.542969 22.660156 141.542969 22.480469 141.542969 22.300781 L 141.542969 19.410156 L 145.765625 19.410156 "/>
<path style=" stroke:none;fill-rule:nonzero;fill:rgb(0%,0%,0%);fill-opacity:1;" d="M 153.5625 16.382812 C 153.5625 16.203125 153.5625 16.023438 153.363281 16.023438 C 153.164062 16.023438 153.164062 16.234375 153.164062 16.382812 L 153.164062 22.261719 L 150.40625 22.261719 C 150.253906 22.261719 150.046875 22.261719 150.046875 22.460938 C 150.046875 22.660156 150.253906 22.660156 150.40625 22.660156 L 156.335938 22.660156 C 156.503906 22.660156 156.683594 22.660156 156.683594 22.460938 C 156.683594 22.261719 156.503906 22.261719 156.335938 22.261719 L 153.5625 22.261719 L 153.5625 16.382812 "/>
<g clip-path="url(#clip2)" clip-rule="nonzero">
<path style="fill:none;stroke-width:3.98;stroke-linecap:butt;stroke-linejoin:miter;stroke:rgb(0%,0%,0%);stroke-opacity:1;stroke-miterlimit:10;" d="M 626.835938 238.107813 L 1712.382812 238.107813 " transform="matrix(0.1,0,0,-0.1,0,49.76)"/>
</g>
<path style=" stroke:none;fill-rule:nonzero;fill:rgb(0%,0%,0%);fill-opacity:1;" d="M 102.039062 31.199219 L 96.046875 31.199219 L 96.046875 31.59375 L 101.640625 31.59375 L 101.640625 33.214844 L 102.039062 33.214844 L 102.039062 31.199219 "/>
<path style=" stroke:none;fill-rule:nonzero;fill:rgb(0%,0%,0%);fill-opacity:1;" d="M 104.578125 37.308594 C 104.515625 36.789062 104.488281 35.824219 104.476562 35.371094 L 104.578125 35.289062 C 104.765625 35.339844 104.964844 35.371094 105.164062 35.371094 C 106.703125 35.371094 107.746094 33.761719 107.746094 32.300781 C 107.746094 31.554688 107.398438 30.640625 106.382812 30.640625 C 105.699219 30.640625 105.09375 30.949219 104.554688 31.375 L 104.476562 31.335938 C 104.4375 30.898438 104.277344 30.589844 103.832031 30.589844 C 103.394531 30.589844 102.878906 30.949219 102.480469 31.265625 L 102.621094 31.457031 C 102.859375 31.316406 103.136719 31.167969 103.34375 31.167969 C 103.644531 31.167969 103.734375 31.683594 103.734375 32.128906 L 103.734375 34.324219 C 103.734375 34.894531 103.722656 36.929688 103.671875 37.503906 L 103.773438 37.613281 Z M 104.496094 34.605469 C 104.496094 34.59375 104.476562 33.570312 104.476562 32.757812 C 104.476562 32.648438 104.507812 31.894531 104.507812 31.832031 C 104.972656 31.464844 105.382812 31.257812 105.886719 31.257812 C 106.523438 31.257812 106.910156 32.019531 106.910156 32.886719 C 106.910156 33.832031 106.574219 34.972656 105.371094 34.972656 C 105.042969 34.972656 104.734375 34.824219 104.496094 34.605469 "/>
<path style=" stroke:none;fill-rule:nonzero;fill:rgb(0%,0%,0%);fill-opacity:1;" d="M 109.59375 37.347656 C 110.296875 36.53125 110.628906 36.027344 110.628906 35.527344 C 110.628906 35.179688 110.277344 33.890625 109.753906 33.890625 C 109.503906 33.890625 109.164062 34.109375 109.164062 34.367188 C 109.164062 34.464844 109.195312 34.574219 109.234375 34.625 L 109.929688 35.449219 C 110.019531 35.558594 110.058594 35.726562 110.058594 35.867188 C 110.058594 36.261719 109.753906 36.75 109.40625 37.207031 L 109.59375 37.347656 "/>
<path style=" stroke:none;fill-rule:nonzero;fill:rgb(0%,0%,0%);fill-opacity:1;" d="M 114.878906 37.308594 C 114.816406 36.789062 114.789062 35.824219 114.777344 35.371094 L 114.878906 35.289062 C 115.066406 35.339844 115.265625 35.371094 115.464844 35.371094 C 117.003906 35.371094 118.046875 33.761719 118.046875 32.300781 C 118.046875 31.554688 117.699219 30.640625 116.683594 30.640625 C 116 30.640625 115.394531 30.949219 114.855469 31.375 L 114.777344 31.335938 C 114.738281 30.898438 114.578125 30.589844 114.132812 30.589844 C 113.695312 30.589844 113.179688 30.949219 112.78125 31.265625 L 112.921875 31.457031 C 113.15625 31.316406 113.4375 31.167969 113.644531 31.167969 C 113.945312 31.167969 114.03125 31.683594 114.03125 32.128906 L 114.03125 34.324219 C 114.03125 34.894531 114.023438 36.929688 113.972656 37.503906 L 114.070312 37.613281 Z M 114.796875 34.605469 C 114.796875 34.59375 114.777344 33.570312 114.777344 32.757812 C 114.777344 32.648438 114.808594 31.894531 114.808594 31.832031 C 115.273438 31.464844 115.679688 31.257812 116.1875 31.257812 C 116.824219 31.257812 117.210938 32.019531 117.210938 32.886719 C 117.210938 33.832031 116.871094 34.972656 115.671875 34.972656 C 115.34375 34.972656 115.035156 34.824219 114.796875 34.605469 "/>
<path style=" stroke:none;fill-rule:nonzero;fill:rgb(0%,0%,0%);fill-opacity:1;" d="M 126.664062 32.011719 C 126.835938 32.011719 127.011719 32.011719 127.011719 31.8125 C 127.011719 31.613281 126.835938 31.613281 126.664062 31.613281 L 122.445312 31.613281 L 122.445312 28.722656 C 122.445312 28.542969 122.445312 28.367188 122.246094 28.367188 C 122.046875 28.367188 122.046875 28.574219 122.046875 28.722656 L 122.046875 34.902344 C 122.046875 35.050781 122.046875 35.261719 122.246094 35.261719 C 122.445312 35.261719 122.445312 35.082031 122.445312 34.902344 L 122.445312 32.011719 L 126.664062 32.011719 "/>
<path style=" stroke:none;fill-rule:nonzero;fill:rgb(0%,0%,0%);fill-opacity:1;" d="M 134.464844 28.980469 C 134.464844 28.804688 134.464844 28.625 134.265625 28.625 C 134.066406 28.625 134.066406 28.832031 134.066406 28.980469 L 134.066406 34.863281 L 131.304688 34.863281 C 131.15625 34.863281 130.945312 34.863281 130.945312 35.0625 C 130.945312 35.261719 131.15625 35.261719 131.304688 35.261719 L 137.234375 35.261719 C 137.402344 35.261719 137.582031 35.261719 137.582031 35.0625 C 137.582031 34.863281 137.402344 34.863281 137.234375 34.863281 L 134.464844 34.863281 L 134.464844 28.980469 "/>
<g clip-path="url(#clip3)" clip-rule="nonzero">
<path style="fill:none;stroke-width:3.98;stroke-linecap:butt;stroke-linejoin:miter;stroke:rgb(0%,0%,0%);stroke-opacity:1;stroke-miterlimit:10;" d="M 344.53125 112.092188 L 1712.382812 112.092188 " transform="matrix(0.1,0,0,-0.1,0,49.76)"/>
</g>
<g clip-path="url(#clip4)" clip-rule="nonzero">
<path style=" stroke:none;fill-rule:nonzero;fill:rgb(0%,0%,0%);fill-opacity:1;" d="M 86.277344 49.90625 C 86.21875 49.390625 86.1875 48.425781 86.179688 47.96875 L 86.277344 47.890625 C 86.464844 47.941406 86.664062 47.96875 86.863281 47.96875 C 88.402344 47.96875 89.445312 46.359375 89.445312 44.898438 C 89.445312 44.15625 89.097656 43.242188 88.085938 43.242188 C 87.398438 43.242188 86.792969 43.550781 86.257812 43.976562 L 86.179688 43.9375 C 86.136719 43.5 85.976562 43.191406 85.53125 43.191406 C 85.09375 43.191406 84.578125 43.550781 84.179688 43.867188 L 84.320312 44.054688 C 84.558594 43.917969 84.835938 43.769531 85.046875 43.769531 C 85.34375 43.769531 85.433594 44.285156 85.433594 44.730469 L 85.433594 46.925781 C 85.433594 47.492188 85.421875 49.527344 85.375 50.105469 L 85.472656 50.214844 Z M 86.195312 47.203125 C 86.195312 47.195312 86.179688 46.171875 86.179688 45.355469 C 86.179688 45.246094 86.207031 44.492188 86.207031 44.433594 C 86.671875 44.066406 87.082031 43.855469 87.585938 43.855469 C 88.222656 43.855469 88.609375 44.621094 88.609375 45.488281 C 88.609375 46.429688 88.273438 47.574219 87.070312 47.574219 C 86.742188 47.574219 86.4375 47.421875 86.195312 47.203125 "/>
</g>
<path style=" stroke:none;fill-rule:nonzero;fill:rgb(0%,0%,0%);fill-opacity:1;" d="M 98.164062 44.613281 C 98.335938 44.613281 98.511719 44.613281 98.511719 44.414062 C 98.511719 44.214844 98.335938 44.214844 98.164062 44.214844 L 93.945312 44.214844 L 93.945312 41.324219 C 93.945312 41.144531 93.945312 40.964844 93.746094 40.964844 C 93.546875 40.964844 93.546875 41.175781 93.546875 41.324219 L 93.546875 47.503906 C 93.546875 47.652344 93.546875 47.859375 93.746094 47.859375 C 93.945312 47.859375 93.945312 47.683594 93.945312 47.503906 L 93.945312 44.613281 L 98.164062 44.613281 "/>
<path style=" stroke:none;fill-rule:nonzero;fill:rgb(0%,0%,0%);fill-opacity:1;" d="M 108.039062 43.796875 L 102.046875 43.796875 L 102.046875 44.195312 L 107.640625 44.195312 L 107.640625 45.8125 L 108.039062 45.8125 L 108.039062 43.796875 "/>
<path style=" stroke:none;fill-rule:nonzero;fill:rgb(0%,0%,0%);fill-opacity:1;" d="M 114.9375 43.796875 L 108.949219 43.796875 L 108.949219 44.195312 L 114.539062 44.195312 L 114.539062 45.8125 L 114.9375 45.8125 L 114.9375 43.796875 "/>
<g clip-path="url(#clip5)" clip-rule="nonzero">
<path style=" stroke:none;fill-rule:nonzero;fill:rgb(0%,0%,0%);fill-opacity:1;" d="M 117.476562 49.90625 C 117.417969 49.390625 117.386719 48.425781 117.378906 47.96875 L 117.476562 47.890625 C 117.664062 47.941406 117.863281 47.96875 118.0625 47.96875 C 119.601562 47.96875 120.644531 46.359375 120.644531 44.898438 C 120.644531 44.15625 120.296875 43.242188 119.285156 43.242188 C 118.601562 43.242188 117.992188 43.550781 117.457031 43.976562 L 117.378906 43.9375 C 117.339844 43.5 117.179688 43.191406 116.730469 43.191406 C 116.296875 43.191406 115.777344 43.550781 115.382812 43.867188 L 115.519531 44.054688 C 115.757812 43.917969 116.035156 43.769531 116.246094 43.769531 C 116.542969 43.769531 116.632812 44.285156 116.632812 44.730469 L 116.632812 46.925781 C 116.632812 47.492188 116.621094 49.527344 116.574219 50.105469 L 116.671875 50.214844 Z M 117.398438 47.203125 C 117.398438 47.195312 117.378906 46.171875 117.378906 45.355469 C 117.378906 45.246094 117.40625 44.492188 117.40625 44.433594 C 117.871094 44.066406 118.28125 43.855469 118.789062 43.855469 C 119.421875 43.855469 119.8125 44.621094 119.8125 45.488281 C 119.8125 46.429688 119.472656 47.574219 118.273438 47.574219 C 117.945312 47.574219 117.636719 47.421875 117.398438 47.203125 "/>
</g>
</g>
</svg>
