<?xml version="1.0" encoding="UTF-8"?>
<svg xmlns="http://www.w3.org/2000/svg" xmlns:xlink="http://www.w3.org/1999/xlink" width="307.18pt" height="10.27pt" viewBox="0 0 307.18 10.27" version="1.1">
<defs>
<clipPath id="clip1">
  <path d="M 14 6 L 20 6 L 20 10.269531 L 14 10.269531 Z M 14 6 "/>
</clipPath>
<clipPath id="clip2">
  <path d="M 27 6 L 35 6 L 35 10.269531 L 27 10.269531 Z M 27 6 "/>
</clipPath>
<clipPath id="clip3">
  <path d="M 42 6 L 49 6 L 49 10.269531 L 42 10.269531 Z M 42 6 "/>
</clipPath>
<clipPath id="clip4">
  <path d="M 131 5 L 135 5 L 135 10.269531 L 131 10.269531 Z M 131 5 "/>
</clipPath>
<clipPath id="clip5">
  <path d="M 224 5 L 228 5 L 228 10.269531 L 224 10.269531 Z M 224 5 "/>
</clipPath>
<clipPath id="clip6">
  <path d="M 251 6 L 257 6 L 257 10.269531 L 251 10.269531 Z M 251 6 "/>
</clipPath>
</defs>
<g id="surface1">
<path style=" stroke:none;fill-rule:nonzero;fill:rgb(0%,0%,0%);fill-opacity:1;" d="M 2.53125 7.46875 L 2.53125 7.164062 C 1.867188 7.164062 1.757812 7.164062 1.757812 6.714844 L 1.757812 0.578125 L 0.328125 0.6875 L 0.328125 0.992188 C 1.023438 0.992188 1.101562 1.0625 1.101562 1.550781 L 1.101562 6.714844 C 1.101562 7.164062 0.992188 7.164062 0.328125 7.164062 L 0.328125 7.46875 L 1.429688 7.441406 L 2.53125 7.46875 "/>
<path style=" stroke:none;fill-rule:nonzero;fill:rgb(0%,0%,0%);fill-opacity:1;" d="M 5.253906 7.46875 L 5.253906 7.164062 C 4.597656 7.164062 4.558594 7.113281 4.558594 6.726562 L 4.558594 3.078125 L 3.167969 3.1875 L 3.167969 3.496094 C 3.8125 3.496094 3.902344 3.554688 3.902344 4.042969 L 3.902344 6.714844 C 3.902344 7.164062 3.792969 7.164062 3.128906 7.164062 L 3.128906 7.46875 L 4.21875 7.441406 C 4.570312 7.441406 4.914062 7.460938 5.253906 7.46875 Z M 4.707031 1.46875 C 4.707031 1.203125 4.476562 0.945312 4.179688 0.945312 C 3.84375 0.945312 3.644531 1.222656 3.644531 1.46875 C 3.644531 1.738281 3.875 1.996094 4.171875 1.996094 C 4.507812 1.996094 4.707031 1.71875 4.707031 1.46875 "/>
<path style=" stroke:none;fill-rule:nonzero;fill:rgb(0%,0%,0%);fill-opacity:1;" d="M 13.578125 7.46875 L 13.578125 7.164062 C 13.058594 7.164062 12.8125 7.164062 12.800781 6.863281 L 12.800781 4.96875 C 12.800781 4.113281 12.800781 3.804688 12.492188 3.445312 C 12.355469 3.277344 12.027344 3.078125 11.449219 3.078125 C 10.617188 3.078125 10.179688 3.675781 10.007812 4.054688 C 9.871094 3.1875 9.136719 3.078125 8.6875 3.078125 C 7.964844 3.078125 7.496094 3.507812 7.21875 4.121094 L 7.21875 3.078125 L 5.816406 3.1875 L 5.816406 3.496094 C 6.511719 3.496094 6.59375 3.566406 6.59375 4.054688 L 6.59375 6.714844 C 6.59375 7.164062 6.484375 7.164062 5.816406 7.164062 L 5.816406 7.46875 L 6.941406 7.441406 L 8.054688 7.46875 L 8.054688 7.164062 C 7.386719 7.164062 7.277344 7.164062 7.277344 6.714844 L 7.277344 4.886719 C 7.277344 3.855469 7.984375 3.296875 8.617188 3.296875 C 9.246094 3.296875 9.355469 3.835938 9.355469 4.402344 L 9.355469 6.714844 C 9.355469 7.164062 9.246094 7.164062 8.578125 7.164062 L 8.578125 7.46875 L 9.703125 7.441406 L 10.8125 7.46875 L 10.8125 7.164062 C 10.148438 7.164062 10.039062 7.164062 10.039062 6.714844 L 10.039062 4.886719 C 10.039062 3.855469 10.746094 3.296875 11.382812 3.296875 C 12.007812 3.296875 12.117188 3.835938 12.117188 4.402344 L 12.117188 6.714844 C 12.117188 7.164062 12.007812 7.164062 11.339844 7.164062 L 11.339844 7.46875 L 12.464844 7.441406 L 13.578125 7.46875 "/>
<g clip-path="url(#clip1)" clip-rule="nonzero">
<path style=" stroke:none;fill-rule:nonzero;fill:rgb(0%,0%,0%);fill-opacity:1;" d="M 15.785156 9.84375 C 15.769531 9.5625 15.761719 9.351562 15.761719 9.15625 C 15.761719 8.640625 15.789062 8.023438 15.8125 7.515625 C 16.101562 7.304688 16.464844 7.085938 16.832031 7.085938 C 17.386719 7.085938 17.546875 7.488281 17.546875 8.21875 L 17.515625 9.421875 C 17.515625 9.773438 17.65625 10.039062 18.082031 10.039062 C 18.453125 10.039062 18.96875 9.730469 19.328125 9.414062 L 19.257812 9.265625 L 19.15625 9.265625 C 18.953125 9.402344 18.703125 9.546875 18.519531 9.546875 C 18.1875 9.546875 18.140625 9.34375 18.140625 8.773438 C 18.140625 8.585938 18.140625 8.359375 18.140625 8.171875 C 18.140625 7.71875 18.140625 7.046875 17.976562 6.875 C 17.828125 6.722656 17.605469 6.671875 17.367188 6.671875 C 16.851562 6.671875 16.304688 6.941406 15.867188 7.179688 L 15.796875 7.136719 C 15.769531 6.871094 15.609375 6.660156 15.222656 6.660156 C 14.933594 6.660156 14.484375 6.945312 14.160156 7.15625 L 14.292969 7.3125 C 14.523438 7.179688 14.722656 7.066406 14.890625 7.066406 C 15.136719 7.066406 15.1875 7.375 15.1875 7.832031 C 15.1875 8.390625 15.136719 9.597656 15.109375 9.964844 L 15.234375 10.011719 L 15.785156 9.84375 "/>
</g>
<path style=" stroke:none;fill-rule:nonzero;fill:rgb(0%,0%,0%);fill-opacity:1;" d="M 26.363281 8.382812 C 26.171875 8.621094 25.765625 9.148438 25.53125 9.964844 L 25.878906 9.964844 C 26.089844 9.289062 26.445312 8.65625 27.003906 8.210938 C 26.214844 7.546875 25.953125 6.707031 25.878906 6.453125 L 25.53125 6.453125 C 25.765625 7.269531 26.171875 7.796875 26.363281 8.039062 L 20.359375 8.039062 C 20.238281 8.039062 20.085938 8.039062 20.085938 8.207031 C 20.085938 8.382812 20.234375 8.382812 20.359375 8.382812 L 26.363281 8.382812 "/>
<g clip-path="url(#clip2)" clip-rule="nonzero">
<path style=" stroke:none;fill-rule:nonzero;fill:rgb(0%,0%,0%);fill-opacity:1;" d="M 31.042969 8.59375 C 30.667969 9.167969 30.070312 9.71875 29.320312 9.71875 C 28.679688 9.71875 28.195312 9.140625 28.195312 8.460938 C 28.195312 7.804688 28.707031 7.3125 29.296875 7.3125 C 29.902344 7.3125 30.296875 7.726562 31.042969 8.59375 Z M 31.367188 7.980469 C 31.046875 7.617188 30.929688 7.480469 30.667969 7.292969 C 30.410156 7.109375 29.960938 6.871094 29.429688 6.871094 C 28.566406 6.871094 27.882812 7.585938 27.882812 8.460938 C 27.882812 9.28125 28.515625 10.039062 29.417969 10.039062 C 30.289062 10.039062 30.949219 9.378906 31.289062 8.886719 L 31.335938 8.945312 C 31.667969 9.316406 31.789062 9.449219 32.019531 9.617188 C 32.273438 9.808594 32.707031 10.039062 33.257812 10.039062 C 34.121094 10.039062 34.804688 9.324219 34.804688 8.453125 C 34.804688 7.628906 34.171875 6.871094 33.269531 6.871094 C 32.398438 6.871094 31.738281 7.53125 31.398438 8.023438 Z M 31.648438 8.320312 C 32.019531 7.742188 32.617188 7.195312 33.367188 7.195312 C 34.007812 7.195312 34.492188 7.769531 34.492188 8.453125 C 34.492188 9.105469 33.980469 9.597656 33.390625 9.597656 C 32.785156 9.597656 32.390625 9.183594 31.648438 8.320312 "/>
</g>
<path style=" stroke:none;fill-rule:nonzero;fill:rgb(0%,0%,0%);fill-opacity:1;" d="M 41.59375 2.882812 C 41.570312 2.859375 41.550781 2.859375 41.53125 2.859375 C 41.503906 2.859375 41.484375 2.859375 41.472656 2.882812 C 41.035156 3.386719 40.449219 4.082031 40.09375 4.558594 L 40.03125 4.550781 C 39.742188 3.992188 39.335938 3.277344 39.128906 3.050781 C 38.988281 2.902344 38.761719 2.859375 38.59375 2.859375 C 38.265625 2.859375 37.765625 3.226562 37.421875 3.496094 L 37.558594 3.675781 C 37.738281 3.554688 37.984375 3.425781 38.195312 3.425781 C 38.679688 3.425781 39.15625 4.492188 39.535156 5.253906 C 39.046875 5.890625 38.550781 6.578125 38.125 7.261719 L 38.125 7.339844 L 38.402344 7.589844 L 38.5625 7.550781 C 38.859375 6.785156 39.257812 6.167969 39.644531 5.574219 L 39.714844 5.574219 C 40.371094 6.855469 40.707031 7.589844 41.214844 7.589844 C 41.632812 7.589844 42.140625 7.03125 42.484375 6.65625 L 42.40625 6.46875 L 42.328125 6.46875 C 42.128906 6.636719 41.859375 6.84375 41.621094 6.84375 C 41.183594 6.84375 40.597656 5.792969 40.191406 4.898438 C 40.707031 4.292969 41.34375 3.644531 41.898438 3.257812 C 41.921875 3.25 41.929688 3.238281 41.929688 3.210938 C 41.929688 3.199219 41.910156 3.179688 41.898438 3.167969 L 41.59375 2.882812 "/>
<g clip-path="url(#clip3)" clip-rule="nonzero">
<path style=" stroke:none;fill-rule:nonzero;fill:rgb(0%,0%,0%);fill-opacity:1;" d="M 44.484375 9.84375 C 44.46875 9.5625 44.460938 9.351562 44.460938 9.15625 C 44.460938 8.640625 44.492188 8.023438 44.511719 7.515625 C 44.800781 7.304688 45.164062 7.085938 45.53125 7.085938 C 46.085938 7.085938 46.25 7.488281 46.25 8.21875 L 46.214844 9.421875 C 46.214844 9.773438 46.355469 10.039062 46.78125 10.039062 C 47.15625 10.039062 47.667969 9.730469 48.027344 9.414062 L 47.957031 9.265625 L 47.859375 9.265625 C 47.65625 9.402344 47.402344 9.546875 47.21875 9.546875 C 46.890625 9.546875 46.839844 9.34375 46.839844 8.773438 C 46.839844 8.585938 46.839844 8.359375 46.839844 8.171875 C 46.839844 7.71875 46.839844 7.046875 46.679688 6.875 C 46.53125 6.722656 46.304688 6.671875 46.066406 6.671875 C 45.554688 6.671875 45.003906 6.941406 44.570312 7.179688 L 44.5 7.136719 C 44.46875 6.871094 44.308594 6.660156 43.921875 6.660156 C 43.632812 6.660156 43.183594 6.945312 42.859375 7.15625 L 42.992188 7.3125 C 43.226562 7.179688 43.421875 7.066406 43.589844 7.066406 C 43.835938 7.066406 43.886719 7.375 43.886719 7.832031 C 43.886719 8.390625 43.835938 9.597656 43.808594 9.964844 L 43.9375 10.011719 L 44.484375 9.84375 "/>
</g>
<path style=" stroke:none;fill-rule:nonzero;fill:rgb(0%,0%,0%);fill-opacity:1;" d="M 58.710938 4.203125 L 58.773438 3.804688 L 52.207031 3.804688 L 52.136719 4.203125 Z M 58.710938 6.160156 L 58.773438 5.761719 L 52.207031 5.761719 L 52.136719 6.160156 L 58.710938 6.160156 "/>
<path style=" stroke:none;fill-rule:nonzero;fill:rgb(0%,0%,0%);fill-opacity:1;" d="M 66.09375 2.882812 C 66.070312 2.859375 66.050781 2.859375 66.03125 2.859375 C 66.003906 2.859375 65.984375 2.859375 65.972656 2.882812 C 65.535156 3.386719 64.949219 4.082031 64.59375 4.558594 L 64.53125 4.550781 C 64.242188 3.992188 63.835938 3.277344 63.628906 3.050781 C 63.488281 2.902344 63.261719 2.859375 63.09375 2.859375 C 62.765625 2.859375 62.265625 3.226562 61.921875 3.496094 L 62.058594 3.675781 C 62.238281 3.554688 62.484375 3.425781 62.695312 3.425781 C 63.179688 3.425781 63.65625 4.492188 64.035156 5.253906 C 63.546875 5.890625 63.050781 6.578125 62.625 7.261719 L 62.625 7.339844 L 62.902344 7.589844 L 63.0625 7.550781 C 63.359375 6.785156 63.757812 6.167969 64.144531 5.574219 L 64.214844 5.574219 C 64.871094 6.855469 65.207031 7.589844 65.714844 7.589844 C 66.132812 7.589844 66.640625 7.03125 66.984375 6.65625 L 66.90625 6.46875 L 66.828125 6.46875 C 66.628906 6.636719 66.359375 6.84375 66.121094 6.84375 C 65.683594 6.84375 65.097656 5.792969 64.691406 4.898438 C 65.207031 4.292969 65.84375 3.644531 66.398438 3.257812 C 66.421875 3.25 66.429688 3.238281 66.429688 3.210938 C 66.429688 3.199219 66.410156 3.179688 66.398438 3.167969 L 66.09375 2.882812 "/>
<path style=" stroke:none;fill-rule:nonzero;fill:rgb(0%,0%,0%);fill-opacity:1;" d="M 72.015625 3.824219 C 72.621094 3.03125 73.019531 2.15625 73.1875 1.539062 L 72.789062 1.539062 C 72.5625 2.355469 71.9375 3.804688 70.25 4.988281 C 71.976562 6.199219 72.582031 7.6875 72.789062 8.433594 L 73.1875 8.433594 C 73.019531 7.835938 72.640625 6.953125 72.015625 6.148438 L 77.726562 6.148438 C 77.121094 6.945312 76.726562 7.820312 76.554688 8.433594 L 76.953125 8.433594 C 77.179688 7.617188 77.808594 6.167969 79.496094 4.988281 C 77.765625 3.773438 77.160156 2.285156 76.953125 1.539062 L 76.554688 1.539062 C 76.726562 2.136719 77.101562 3.019531 77.726562 3.824219 Z M 71.679688 5.75 C 71.4375 5.492188 71.261719 5.296875 70.894531 4.988281 C 71.261719 4.679688 71.4375 4.480469 71.679688 4.222656 L 78.066406 4.222656 C 78.304688 4.480469 78.484375 4.679688 78.851562 4.988281 C 78.484375 5.296875 78.304688 5.492188 78.066406 5.75 L 71.679688 5.75 "/>
<path style=" stroke:none;fill-rule:nonzero;fill:rgb(0%,0%,0%);fill-opacity:1;" d="M 88.074219 0.953125 C 88.125 0.84375 88.125 0.824219 88.125 0.773438 C 88.125 0.675781 88.042969 0.578125 87.925781 0.578125 C 87.796875 0.578125 87.734375 0.695312 87.695312 0.804688 L 86.871094 2.992188 L 83.851562 2.992188 L 83.027344 0.804688 C 82.976562 0.664062 82.929688 0.578125 82.796875 0.578125 C 82.699219 0.578125 82.601562 0.675781 82.601562 0.773438 C 82.601562 0.796875 82.601562 0.8125 82.660156 0.953125 L 85.132812 7.460938 C 85.183594 7.601562 85.234375 7.6875 85.359375 7.6875 C 85.5 7.6875 85.539062 7.578125 85.578125 7.480469 Z M 84.011719 3.386719 L 86.710938 3.386719 L 85.359375 6.921875 Z M 84.011719 3.386719 "/>
<path style=" stroke:none;fill-rule:nonzero;fill:rgb(0%,0%,0%);fill-opacity:1;" d="M 90.871094 4.90625 C 90.859375 4.925781 90.226562 4.917969 89.859375 4.917969 L 89.796875 4.859375 C 89.820312 4.082031 90.164062 3.21875 91.121094 3.21875 C 91.648438 3.21875 91.90625 3.335938 92.320312 3.921875 L 92.453125 3.90625 L 92.820312 3.378906 C 92.453125 3.007812 91.964844 2.792969 91.449219 2.792969 C 90.015625 2.792969 88.972656 4.0625 88.972656 5.453125 C 88.972656 6.050781 89.132812 6.664062 89.5625 7.09375 C 89.929688 7.460938 90.484375 7.578125 90.992188 7.578125 C 91.707031 7.578125 92.410156 7.164062 92.96875 6.726562 L 92.847656 6.527344 L 92.769531 6.515625 C 92.382812 6.84375 91.875 7.003906 91.367188 7.003906 C 91.011719 7.003906 90.5625 6.953125 90.324219 6.714844 C 89.976562 6.367188 89.796875 5.890625 89.777344 5.40625 L 89.828125 5.34375 C 90.085938 5.335938 90.503906 5.3125 90.515625 5.3125 C 90.980469 5.3125 91.617188 5.3125 91.914062 5.324219 L 92.054688 4.90625 L 90.871094 4.90625 "/>
<path style=" stroke:none;fill-rule:nonzero;fill:rgb(0%,0%,0%);fill-opacity:1;" d="M 101.84375 5.1875 C 102.011719 5.1875 102.191406 5.1875 102.191406 4.988281 C 102.191406 4.789062 102.011719 4.789062 101.84375 4.789062 L 97.632812 4.789062 C 97.75 3.457031 98.894531 2.503906 100.292969 2.503906 L 101.84375 2.503906 C 102.011719 2.503906 102.191406 2.503906 102.191406 2.304688 C 102.191406 2.105469 102.011719 2.105469 101.84375 2.105469 L 100.273438 2.105469 C 98.574219 2.105469 97.226562 3.398438 97.226562 4.988281 C 97.226562 6.578125 98.574219 7.867188 100.273438 7.867188 L 101.84375 7.867188 C 102.011719 7.867188 102.191406 7.867188 102.191406 7.667969 C 102.191406 7.46875 102.011719 7.46875 101.84375 7.46875 L 100.292969 7.46875 C 98.894531 7.46875 97.75 6.515625 97.632812 5.1875 L 101.84375 5.1875 "/>
<path style=" stroke:none;fill-rule:nonzero;fill:rgb(0%,0%,0%);fill-opacity:1;" d="M 108.464844 4.351562 L 108.820312 4.351562 L 110.308594 6.65625 C 110.410156 6.8125 110.648438 7.203125 110.757812 7.351562 C 110.828125 7.46875 110.855469 7.46875 111.085938 7.46875 L 112.457031 7.46875 C 112.632812 7.46875 112.78125 7.46875 112.78125 7.292969 C 112.78125 7.210938 112.722656 7.140625 112.632812 7.121094 C 112.265625 7.042969 111.78125 6.386719 111.542969 6.070312 C 111.472656 5.96875 110.976562 5.3125 110.308594 4.242188 C 111.195312 4.082031 112.046875 3.703125 112.046875 2.523438 C 112.046875 1.140625 110.589844 0.664062 109.414062 0.664062 L 106.296875 0.664062 C 106.117188 0.664062 105.960938 0.664062 105.960938 0.84375 C 105.960938 1.015625 106.148438 1.015625 106.226562 1.015625 C 106.792969 1.015625 106.84375 1.082031 106.84375 1.578125 L 106.84375 6.554688 C 106.84375 7.054688 106.792969 7.121094 106.226562 7.121094 C 106.148438 7.121094 105.960938 7.121094 105.960938 7.292969 C 105.960938 7.46875 106.117188 7.46875 106.296875 7.46875 L 109.019531 7.46875 C 109.195312 7.46875 109.347656 7.46875 109.347656 7.292969 C 109.347656 7.121094 109.179688 7.121094 109.070312 7.121094 C 108.503906 7.121094 108.464844 7.042969 108.464844 6.554688 Z M 110.378906 3.863281 C 110.65625 3.496094 110.6875 2.96875 110.6875 2.53125 C 110.6875 2.054688 110.628906 1.53125 110.308594 1.125 C 110.71875 1.210938 111.699219 1.519531 111.699219 2.523438 C 111.699219 3.167969 111.402344 3.675781 110.378906 3.863281 Z M 108.464844 1.550781 C 108.464844 1.339844 108.464844 1.015625 109.078125 1.015625 C 109.921875 1.015625 110.339844 1.359375 110.339844 2.53125 C 110.339844 3.8125 110.03125 4.003906 108.464844 4.003906 Z M 107.109375 7.121094 C 107.191406 6.945312 107.191406 6.664062 107.191406 6.578125 L 107.191406 1.558594 C 107.191406 1.460938 107.191406 1.191406 107.109375 1.015625 L 108.242188 1.015625 C 108.113281 1.171875 108.113281 1.371094 108.113281 1.519531 L 108.113281 6.578125 C 108.113281 6.675781 108.113281 6.945312 108.195312 7.121094 Z M 109.226562 4.351562 C 109.296875 4.339844 109.335938 4.332031 109.414062 4.332031 C 109.566406 4.332031 109.78125 4.3125 109.933594 4.292969 C 110.082031 4.53125 111.15625 6.296875 111.976562 7.121094 L 111.015625 7.121094 L 109.226562 4.351562 "/>
<path style=" stroke:none;fill-rule:nonzero;fill:rgb(0%,0%,0%);fill-opacity:1;" d="M 117.691406 9.089844 C 116.410156 8.839844 116.339844 6.425781 116.339844 4.75 C 116.339844 3.25 116.429688 0.726562 117.691406 0.40625 L 117.691406 0.140625 C 116.65625 0.320312 116.210938 1.449219 116.023438 2.40625 C 115.871094 3.148438 115.820312 3.921875 115.820312 4.6875 C 115.820312 5.492188 115.863281 6.296875 116.003906 7.09375 C 116.171875 8.035156 116.648438 9.238281 117.691406 9.328125 L 117.691406 9.089844 "/>
<path style=" stroke:none;fill-rule:nonzero;fill:rgb(0%,0%,0%);fill-opacity:1;" d="M 123.46875 0.933594 C 123.46875 0.605469 123.4375 0.578125 123.117188 0.578125 L 119.394531 0.578125 C 119.226562 0.578125 119.046875 0.578125 119.046875 0.773438 C 119.046875 0.972656 119.226562 0.972656 119.394531 0.972656 L 123.070312 0.972656 L 123.070312 3.824219 L 119.53125 3.824219 C 119.363281 3.824219 119.1875 3.824219 119.1875 4.023438 C 119.1875 4.222656 119.363281 4.222656 119.53125 4.222656 L 123.070312 4.222656 L 123.070312 7.074219 L 119.394531 7.074219 C 119.226562 7.074219 119.046875 7.074219 119.046875 7.273438 C 119.046875 7.46875 119.226562 7.46875 119.394531 7.46875 L 123.117188 7.46875 C 123.4375 7.46875 123.46875 7.441406 123.46875 7.113281 L 123.46875 0.933594 "/>
<path style=" stroke:none;fill-rule:nonzero;fill:rgb(0%,0%,0%);fill-opacity:1;" d="M 126.1875 7.292969 C 126.164062 6.894531 126.15625 6.597656 126.15625 6.320312 C 126.15625 5.59375 126.1875 4.71875 126.214844 4.003906 C 126.574219 3.714844 127.039062 3.398438 127.496094 3.398438 C 128.203125 3.398438 128.390625 4.003906 128.390625 4.996094 L 128.34375 6.695312 C 128.34375 7.171875 128.511719 7.570312 129.054688 7.570312 C 129.535156 7.570312 130.160156 7.132812 130.617188 6.6875 L 130.527344 6.476562 L 130.398438 6.476562 C 130.148438 6.664062 129.832031 6.875 129.601562 6.875 C 129.054688 6.875 129.128906 6.425781 129.128906 4.925781 C 129.128906 4.292969 129.128906 3.335938 128.929688 3.101562 C 128.738281 2.882812 128.453125 2.8125 128.164062 2.8125 C 127.527344 2.8125 126.84375 3.1875 126.285156 3.527344 L 126.207031 3.46875 C 126.148438 3.101562 125.988281 2.792969 125.492188 2.792969 C 125.121094 2.792969 124.554688 3.199219 124.148438 3.496094 L 124.320312 3.714844 C 124.605469 3.527344 124.855469 3.367188 125.0625 3.367188 C 125.390625 3.367188 125.429688 3.84375 125.429688 4.507812 C 125.429688 5.3125 125.359375 6.953125 125.34375 7.460938 L 125.492188 7.53125 L 126.1875 7.292969 "/>
<g clip-path="url(#clip4)" clip-rule="nonzero">
<path style=" stroke:none;fill-rule:nonzero;fill:rgb(0%,0%,0%);fill-opacity:1;" d="M 133.21875 5.320312 C 132.878906 5.449219 132.484375 5.617188 132.21875 5.847656 C 131.542969 6.445312 131.183594 7.296875 131.183594 8.140625 C 131.183594 8.96875 131.421875 10.367188 132.5625 10.367188 C 133.996094 10.367188 134.574219 8.921875 134.574219 7.765625 C 134.574219 6.832031 134.1875 5.855469 133.21875 5.320312 Z M 132.773438 5.773438 C 133.132812 5.90625 133.484375 6.398438 133.539062 6.480469 C 133.882812 7.035156 134.082031 7.632812 134.082031 8.265625 C 134.082031 8.960938 133.878906 9.90625 132.921875 9.90625 C 132.402344 9.90625 132.050781 9.351562 131.886719 8.871094 C 131.753906 8.492188 131.71875 8.070312 131.71875 7.664062 C 131.71875 6.953125 132.085938 6.164062 132.773438 5.773438 "/>
</g>
<path style=" stroke:none;fill-rule:nonzero;fill:rgb(0%,0%,0%);fill-opacity:1;" d="M 143.742188 5.1875 C 143.914062 5.1875 144.089844 5.1875 144.089844 4.988281 C 144.089844 4.789062 143.914062 4.789062 143.742188 4.789062 L 139.53125 4.789062 C 139.652344 3.457031 140.792969 2.503906 142.195312 2.503906 L 143.742188 2.503906 C 143.914062 2.503906 144.089844 2.503906 144.089844 2.304688 C 144.089844 2.105469 143.914062 2.105469 143.742188 2.105469 L 142.171875 2.105469 C 140.476562 2.105469 139.125 3.398438 139.125 4.988281 C 139.125 6.578125 140.476562 7.867188 142.171875 7.867188 L 143.742188 7.867188 C 143.914062 7.867188 144.089844 7.867188 144.089844 7.667969 C 144.089844 7.46875 143.914062 7.46875 143.742188 7.46875 L 142.195312 7.46875 C 140.792969 7.46875 139.652344 6.515625 139.53125 5.1875 L 143.742188 5.1875 "/>
<path style=" stroke:none;fill-rule:nonzero;fill:rgb(0%,0%,0%);fill-opacity:1;" d="M 148.8125 1.558594 L 148.8125 6.40625 C 148.8125 6.933594 148.734375 7.113281 148.226562 7.121094 C 148.117188 7.121094 147.949219 7.132812 147.949219 7.292969 C 147.949219 7.46875 148.109375 7.46875 148.285156 7.46875 L 149.828125 7.46875 C 150.003906 7.46875 150.152344 7.46875 150.152344 7.292969 C 150.152344 7.132812 149.996094 7.121094 149.855469 7.121094 C 149.308594 7.113281 149.230469 6.90625 149.230469 6.386719 L 149.230469 1.835938 L 153.523438 7.507812 C 153.609375 7.628906 153.660156 7.660156 153.730469 7.660156 C 153.898438 7.660156 153.898438 7.5 153.898438 7.332031 L 153.898438 1.71875 C 153.898438 1.164062 153.988281 1.023438 154.445312 1.015625 C 154.503906 1.015625 154.671875 1.003906 154.671875 0.84375 C 154.671875 0.664062 154.523438 0.664062 154.34375 0.664062 L 152.894531 0.664062 C 152.71875 0.664062 152.558594 0.664062 152.558594 0.84375 C 152.558594 1.015625 152.734375 1.015625 152.84375 1.015625 C 153.402344 1.023438 153.480469 1.222656 153.480469 1.75 L 153.480469 4.859375 L 150.480469 0.804688 C 150.382812 0.664062 150.351562 0.664062 150.121094 0.664062 L 148.394531 0.664062 C 148.21875 0.664062 148.066406 0.664062 148.066406 0.84375 C 148.066406 0.992188 148.21875 1.015625 148.277344 1.015625 C 148.542969 1.042969 148.734375 1.203125 148.832031 1.320312 C 148.8125 1.402344 148.8125 1.421875 148.8125 1.558594 Z M 153.550781 6.964844 L 149.230469 1.25 C 149.128906 1.132812 149.128906 1.113281 149.023438 1.015625 L 150.203125 1.015625 L 153.550781 5.53125 L 153.550781 6.964844 "/>
<path style=" stroke:none;fill-rule:nonzero;fill:rgb(0%,0%,0%);fill-opacity:1;" d="M 159.589844 9.089844 C 158.308594 8.839844 158.238281 6.425781 158.238281 4.75 C 158.238281 3.25 158.328125 0.726562 159.589844 0.40625 L 159.589844 0.140625 C 158.554688 0.320312 158.109375 1.449219 157.921875 2.40625 C 157.773438 3.148438 157.722656 3.921875 157.722656 4.6875 C 157.722656 5.492188 157.761719 6.296875 157.902344 7.09375 C 158.070312 8.035156 158.546875 9.238281 159.589844 9.328125 L 159.589844 9.089844 "/>
<path style=" stroke:none;fill-rule:nonzero;fill:rgb(0%,0%,0%);fill-opacity:1;" d="M 165.871094 0.953125 C 165.921875 0.84375 165.921875 0.824219 165.921875 0.773438 C 165.921875 0.675781 165.84375 0.578125 165.726562 0.578125 C 165.59375 0.578125 165.535156 0.695312 165.496094 0.804688 L 164.671875 2.992188 L 161.652344 2.992188 L 160.828125 0.804688 C 160.777344 0.664062 160.726562 0.578125 160.597656 0.578125 C 160.5 0.578125 160.398438 0.675781 160.398438 0.773438 C 160.398438 0.796875 160.398438 0.8125 160.460938 0.953125 L 162.933594 7.460938 C 162.984375 7.601562 163.03125 7.6875 163.160156 7.6875 C 163.300781 7.6875 163.339844 7.578125 163.378906 7.480469 Z M 161.8125 3.386719 L 164.511719 3.386719 L 163.160156 6.921875 Z M 161.8125 3.386719 "/>
<path style=" stroke:none;fill-rule:nonzero;fill:rgb(0%,0%,0%);fill-opacity:1;" d="M 168.085938 7.292969 C 168.066406 6.894531 168.054688 6.597656 168.054688 6.320312 C 168.054688 5.59375 168.085938 4.71875 168.117188 4.003906 C 168.472656 3.714844 168.941406 3.398438 169.398438 3.398438 C 170.101562 3.398438 170.289062 4.003906 170.289062 4.996094 L 170.242188 6.695312 C 170.242188 7.171875 170.410156 7.570312 170.957031 7.570312 C 171.433594 7.570312 172.058594 7.132812 172.515625 6.6875 L 172.425781 6.476562 L 172.296875 6.476562 C 172.050781 6.664062 171.730469 6.875 171.503906 6.875 C 170.957031 6.875 171.027344 6.425781 171.027344 4.925781 C 171.027344 4.292969 171.027344 3.335938 170.828125 3.101562 C 170.640625 2.882812 170.351562 2.8125 170.0625 2.8125 C 169.425781 2.8125 168.742188 3.1875 168.1875 3.527344 L 168.105469 3.46875 C 168.046875 3.101562 167.886719 2.792969 167.390625 2.792969 C 167.023438 2.792969 166.457031 3.199219 166.050781 3.496094 L 166.21875 3.714844 C 166.507812 3.527344 166.753906 3.367188 166.964844 3.367188 C 167.289062 3.367188 167.332031 3.84375 167.332031 4.507812 C 167.332031 5.3125 167.261719 6.953125 167.242188 7.460938 L 167.390625 7.53125 L 168.085938 7.292969 "/>
<path style=" stroke:none;fill-rule:nonzero;fill:rgb(0%,0%,0%);fill-opacity:1;" d="M 180.84375 5.1875 C 181.011719 5.1875 181.191406 5.1875 181.191406 4.988281 C 181.191406 4.789062 181.011719 4.789062 180.84375 4.789062 L 176.632812 4.789062 C 176.753906 3.457031 177.894531 2.503906 179.292969 2.503906 L 180.84375 2.503906 C 181.011719 2.503906 181.191406 2.503906 181.191406 2.304688 C 181.191406 2.105469 181.011719 2.105469 180.84375 2.105469 L 179.273438 2.105469 C 177.574219 2.105469 176.226562 3.398438 176.226562 4.988281 C 176.226562 6.578125 177.574219 7.867188 179.273438 7.867188 L 180.84375 7.867188 C 181.011719 7.867188 181.191406 7.867188 181.191406 7.667969 C 181.191406 7.46875 181.011719 7.46875 180.84375 7.46875 L 179.292969 7.46875 C 177.894531 7.46875 176.753906 6.515625 176.632812 5.1875 L 180.84375 5.1875 "/>
<path style=" stroke:none;fill-rule:nonzero;fill:rgb(0%,0%,0%);fill-opacity:1;" d="M 185.914062 1.558594 L 185.914062 6.40625 C 185.914062 6.933594 185.832031 7.113281 185.328125 7.121094 C 185.21875 7.121094 185.046875 7.132812 185.046875 7.292969 C 185.046875 7.46875 185.207031 7.46875 185.386719 7.46875 L 186.925781 7.46875 C 187.105469 7.46875 187.253906 7.46875 187.253906 7.292969 C 187.253906 7.132812 187.09375 7.121094 186.957031 7.121094 C 186.410156 7.113281 186.328125 6.90625 186.328125 6.386719 L 186.328125 1.835938 L 190.621094 7.507812 C 190.710938 7.628906 190.761719 7.660156 190.828125 7.660156 C 190.996094 7.660156 190.996094 7.5 190.996094 7.332031 L 190.996094 1.71875 C 190.996094 1.164062 191.089844 1.023438 191.546875 1.015625 C 191.605469 1.015625 191.773438 1.003906 191.773438 0.84375 C 191.773438 0.664062 191.625 0.664062 191.445312 0.664062 L 189.996094 0.664062 C 189.816406 0.664062 189.65625 0.664062 189.65625 0.84375 C 189.65625 1.015625 189.835938 1.015625 189.945312 1.015625 C 190.503906 1.023438 190.582031 1.222656 190.582031 1.75 L 190.582031 4.859375 L 187.582031 0.804688 C 187.484375 0.664062 187.453125 0.664062 187.222656 0.664062 L 185.496094 0.664062 C 185.316406 0.664062 185.167969 0.664062 185.167969 0.84375 C 185.167969 0.992188 185.316406 1.015625 185.378906 1.015625 C 185.644531 1.042969 185.832031 1.203125 185.933594 1.320312 C 185.914062 1.402344 185.914062 1.421875 185.914062 1.558594 Z M 190.652344 6.964844 L 186.328125 1.25 C 186.230469 1.132812 186.230469 1.113281 186.121094 1.015625 L 187.304688 1.015625 L 190.652344 5.53125 L 190.652344 6.964844 "/>
<path style=" stroke:none;fill-rule:nonzero;fill:rgb(0%,0%,0%);fill-opacity:1;" d="M 196.589844 9.089844 C 195.308594 8.839844 195.238281 6.425781 195.238281 4.75 C 195.238281 3.25 195.328125 0.726562 196.589844 0.40625 L 196.589844 0.140625 C 195.554688 0.320312 195.109375 1.449219 194.921875 2.40625 C 194.773438 3.148438 194.722656 3.921875 194.722656 4.6875 C 194.722656 5.492188 194.761719 6.296875 194.902344 7.09375 C 195.070312 8.035156 195.546875 9.238281 196.589844 9.328125 L 196.589844 9.089844 "/>
<path style=" stroke:none;fill-rule:nonzero;fill:rgb(0%,0%,0%);fill-opacity:1;" d="M 199.585938 7.292969 C 199.566406 6.894531 199.554688 6.597656 199.554688 6.320312 C 199.554688 5.59375 199.585938 4.71875 199.617188 4.003906 C 199.972656 3.714844 200.441406 3.398438 200.898438 3.398438 C 201.601562 3.398438 201.789062 4.003906 201.789062 4.996094 L 201.742188 6.695312 C 201.742188 7.171875 201.910156 7.570312 202.457031 7.570312 C 202.933594 7.570312 203.558594 7.132812 204.015625 6.6875 L 203.925781 6.476562 L 203.796875 6.476562 C 203.550781 6.664062 203.230469 6.875 203.003906 6.875 C 202.457031 6.875 202.527344 6.425781 202.527344 4.925781 C 202.527344 4.292969 202.527344 3.335938 202.328125 3.101562 C 202.140625 2.882812 201.851562 2.8125 201.5625 2.8125 C 200.925781 2.8125 200.242188 3.1875 199.6875 3.527344 L 199.605469 3.46875 C 199.546875 3.101562 199.386719 2.792969 198.890625 2.792969 C 198.523438 2.792969 197.957031 3.199219 197.550781 3.496094 L 197.71875 3.714844 C 198.007812 3.527344 198.253906 3.367188 198.464844 3.367188 C 198.789062 3.367188 198.832031 3.84375 198.832031 4.507812 C 198.832031 5.3125 198.761719 6.953125 198.742188 7.460938 L 198.890625 7.53125 L 199.585938 7.292969 "/>
<path style=" stroke:none;fill-rule:nonzero;fill:rgb(0%,0%,0%);fill-opacity:1;" d="M 207.675781 2.5625 L 212.878906 4.945312 L 212.878906 5.035156 L 207.734375 7.449219 L 207.695312 7.539062 L 207.773438 7.777344 L 207.871094 7.828125 L 213.835938 5.046875 L 213.835938 4.925781 L 207.851562 2.195312 L 207.753906 2.226562 L 207.65625 2.464844 L 207.675781 2.5625 "/>
<path style=" stroke:none;fill-rule:nonzero;fill:rgb(0%,0%,0%);fill-opacity:1;" d="M 219.285156 7.292969 C 219.265625 6.894531 219.257812 6.597656 219.257812 6.320312 C 219.257812 5.59375 219.285156 4.71875 219.316406 4.003906 C 219.671875 3.714844 220.140625 3.398438 220.597656 3.398438 C 221.304688 3.398438 221.492188 4.003906 221.492188 4.996094 L 221.441406 6.695312 C 221.441406 7.171875 221.609375 7.570312 222.15625 7.570312 C 222.632812 7.570312 223.257812 7.132812 223.71875 6.6875 L 223.628906 6.476562 L 223.496094 6.476562 C 223.25 6.664062 222.929688 6.875 222.703125 6.875 C 222.15625 6.875 222.226562 6.425781 222.226562 4.925781 C 222.226562 4.292969 222.226562 3.335938 222.027344 3.101562 C 221.839844 2.882812 221.550781 2.8125 221.261719 2.8125 C 220.628906 2.8125 219.941406 3.1875 219.386719 3.527344 L 219.304688 3.46875 C 219.246094 3.101562 219.089844 2.792969 218.589844 2.792969 C 218.222656 2.792969 217.65625 3.199219 217.25 3.496094 L 217.417969 3.714844 C 217.707031 3.527344 217.953125 3.367188 218.164062 3.367188 C 218.492188 3.367188 218.53125 3.84375 218.53125 4.507812 C 218.53125 5.3125 218.460938 6.953125 218.441406 7.460938 L 218.589844 7.53125 L 219.285156 7.292969 "/>
<g clip-path="url(#clip5)" clip-rule="nonzero">
<path style=" stroke:none;fill-rule:nonzero;fill:rgb(0%,0%,0%);fill-opacity:1;" d="M 226.316406 5.320312 C 225.980469 5.449219 225.585938 5.617188 225.320312 5.847656 C 224.644531 6.445312 224.285156 7.296875 224.285156 8.140625 C 224.285156 8.96875 224.523438 10.367188 225.664062 10.367188 C 227.097656 10.367188 227.671875 8.921875 227.671875 7.765625 C 227.671875 6.832031 227.289062 5.855469 226.316406 5.320312 Z M 225.871094 5.773438 C 226.234375 5.90625 226.585938 6.398438 226.640625 6.480469 C 226.984375 7.035156 227.179688 7.632812 227.179688 8.265625 C 227.179688 8.960938 226.976562 9.90625 226.023438 9.90625 C 225.503906 9.90625 225.148438 9.351562 224.988281 8.871094 C 224.855469 8.492188 224.820312 8.070312 224.820312 7.664062 C 224.820312 6.953125 225.183594 6.164062 225.871094 5.773438 "/>
</g>
<path style=" stroke:none;fill-rule:nonzero;fill:rgb(0%,0%,0%);fill-opacity:1;" d="M 240.082031 5.1875 C 239.714844 5.640625 239.1875 6.425781 238.9375 7.46875 L 239.339844 7.46875 C 239.644531 6.167969 240.480469 5.265625 240.777344 4.988281 C 240.460938 4.6875 239.644531 3.796875 239.339844 2.503906 L 238.9375 2.503906 C 239.1875 3.535156 239.703125 4.320312 240.082031 4.789062 L 232.304688 4.789062 C 232.125 4.789062 231.957031 4.789062 231.957031 4.988281 C 231.957031 5.1875 232.132812 5.1875 232.304688 5.1875 L 240.082031 5.1875 "/>
<path style=" stroke:none;fill-rule:nonzero;fill:rgb(0%,0%,0%);fill-opacity:1;" d="M 245.453125 9.050781 L 245.453125 0.140625 L 245.054688 0.21875 L 245.054688 9.128906 L 245.453125 9.050781 "/>
<path style=" stroke:none;fill-rule:nonzero;fill:rgb(0%,0%,0%);fill-opacity:1;" d="M 250.492188 2.882812 C 250.472656 2.859375 250.453125 2.859375 250.433594 2.859375 C 250.402344 2.859375 250.382812 2.859375 250.371094 2.882812 C 249.9375 3.386719 249.351562 4.082031 248.992188 4.558594 L 248.933594 4.550781 C 248.644531 3.992188 248.238281 3.277344 248.027344 3.050781 C 247.890625 2.902344 247.660156 2.859375 247.492188 2.859375 C 247.164062 2.859375 246.667969 3.226562 246.320312 3.496094 L 246.460938 3.675781 C 246.636719 3.554688 246.886719 3.425781 247.09375 3.425781 C 247.582031 3.425781 248.058594 4.492188 248.4375 5.253906 C 247.949219 5.890625 247.453125 6.578125 247.023438 7.261719 L 247.023438 7.339844 L 247.304688 7.589844 L 247.464844 7.550781 C 247.761719 6.785156 248.15625 6.167969 248.546875 5.574219 L 248.613281 5.574219 C 249.269531 6.855469 249.609375 7.589844 250.113281 7.589844 C 250.53125 7.589844 251.039062 7.03125 251.386719 6.65625 L 251.304688 6.46875 L 251.226562 6.46875 C 251.027344 6.636719 250.761719 6.84375 250.523438 6.84375 C 250.085938 6.84375 249.496094 5.792969 249.089844 4.898438 C 249.609375 4.292969 250.242188 3.644531 250.800781 3.257812 C 250.820312 3.25 250.828125 3.238281 250.828125 3.210938 C 250.828125 3.199219 250.808594 3.179688 250.800781 3.167969 L 250.492188 2.882812 "/>
<g clip-path="url(#clip6)" clip-rule="nonzero">
<path style=" stroke:none;fill-rule:nonzero;fill:rgb(0%,0%,0%);fill-opacity:1;" d="M 253.382812 9.84375 C 253.371094 9.5625 253.363281 9.351562 253.363281 9.15625 C 253.363281 8.640625 253.390625 8.023438 253.414062 7.515625 C 253.699219 7.304688 254.066406 7.085938 254.429688 7.085938 C 254.988281 7.085938 255.148438 7.488281 255.148438 8.21875 L 255.113281 9.421875 C 255.113281 9.773438 255.253906 10.039062 255.683594 10.039062 C 256.054688 10.039062 256.570312 9.730469 256.925781 9.414062 L 256.855469 9.265625 L 256.757812 9.265625 C 256.554688 9.402344 256.300781 9.546875 256.117188 9.546875 C 255.789062 9.546875 255.738281 9.34375 255.738281 8.773438 C 255.738281 8.585938 255.738281 8.359375 255.738281 8.171875 C 255.738281 7.71875 255.738281 7.046875 255.578125 6.875 C 255.429688 6.722656 255.203125 6.671875 254.964844 6.671875 C 254.453125 6.671875 253.90625 6.941406 253.46875 7.179688 L 253.398438 7.136719 C 253.371094 6.871094 253.207031 6.660156 252.820312 6.660156 C 252.53125 6.660156 252.082031 6.945312 251.757812 7.15625 L 251.894531 7.3125 C 252.125 7.179688 252.320312 7.066406 252.492188 7.066406 C 252.738281 7.066406 252.785156 7.375 252.785156 7.832031 C 252.785156 8.390625 252.738281 9.597656 252.710938 9.964844 L 252.835938 10.011719 L 253.382812 9.84375 "/>
</g>
<path style=" stroke:none;fill-rule:nonzero;fill:rgb(0%,0%,0%);fill-opacity:1;" d="M 266.894531 5.125 L 266.953125 4.726562 L 260.425781 4.726562 L 260.355469 5.125 L 266.894531 5.125 "/>
<path style=" stroke:none;fill-rule:nonzero;fill:rgb(0%,0%,0%);fill-opacity:1;" d="M 273.890625 2.882812 C 273.871094 2.859375 273.851562 2.859375 273.832031 2.859375 C 273.804688 2.859375 273.78125 2.859375 273.773438 2.882812 C 273.335938 3.386719 272.75 4.082031 272.390625 4.558594 L 272.332031 4.550781 C 272.042969 3.992188 271.636719 3.277344 271.429688 3.050781 C 271.289062 2.902344 271.0625 2.859375 270.890625 2.859375 C 270.5625 2.859375 270.066406 3.226562 269.71875 3.496094 L 269.859375 3.675781 C 270.039062 3.554688 270.285156 3.425781 270.496094 3.425781 C 270.980469 3.425781 271.457031 4.492188 271.835938 5.253906 C 271.347656 5.890625 270.851562 6.578125 270.425781 7.261719 L 270.425781 7.339844 L 270.703125 7.589844 L 270.863281 7.550781 C 271.160156 6.785156 271.558594 6.167969 271.945312 5.574219 L 272.015625 5.574219 C 272.671875 6.855469 273.007812 7.589844 273.515625 7.589844 C 273.929688 7.589844 274.4375 7.03125 274.785156 6.65625 L 274.707031 6.46875 L 274.628906 6.46875 C 274.429688 6.636719 274.160156 6.84375 273.921875 6.84375 C 273.484375 6.84375 272.898438 5.792969 272.492188 4.898438 C 273.007812 4.292969 273.644531 3.644531 274.199219 3.257812 C 274.21875 3.25 274.230469 3.238281 274.230469 3.210938 C 274.230469 3.199219 274.210938 3.179688 274.199219 3.167969 L 273.890625 2.882812 "/>
<path style=" stroke:none;fill-rule:nonzero;fill:rgb(0%,0%,0%);fill-opacity:1;" d="M 276.152344 9.050781 L 276.152344 0.140625 L 275.753906 0.21875 L 275.753906 9.128906 L 276.152344 9.050781 "/>
<path style=" stroke:none;fill-rule:nonzero;fill:rgb(0%,0%,0%);fill-opacity:1;" d="M 286.554688 2.453125 L 286.464844 2.226562 L 286.355469 2.195312 L 280.386719 4.925781 L 280.386719 5.046875 L 286.347656 7.828125 L 286.445312 7.777344 L 286.554688 7.550781 L 286.503906 7.449219 L 281.351562 5.054688 L 281.351562 4.9375 L 286.535156 2.542969 L 286.554688 2.453125 "/>
<path style=" stroke:none;fill-rule:nonzero;fill:rgb(0%,0%,0%);fill-opacity:1;" d="M 292.871094 4.90625 C 292.859375 4.925781 292.226562 4.917969 291.859375 4.917969 L 291.796875 4.859375 C 291.820312 4.082031 292.164062 3.21875 293.121094 3.21875 C 293.648438 3.21875 293.90625 3.335938 294.320312 3.921875 L 294.453125 3.90625 L 294.820312 3.378906 C 294.453125 3.007812 293.964844 2.792969 293.449219 2.792969 C 292.015625 2.792969 290.972656 4.0625 290.972656 5.453125 C 290.972656 6.050781 291.132812 6.664062 291.5625 7.09375 C 291.929688 7.460938 292.484375 7.578125 292.992188 7.578125 C 293.707031 7.578125 294.410156 7.164062 294.96875 6.726562 L 294.847656 6.527344 L 294.769531 6.515625 C 294.382812 6.84375 293.875 7.003906 293.367188 7.003906 C 293.011719 7.003906 292.5625 6.953125 292.324219 6.714844 C 291.976562 6.367188 291.796875 5.890625 291.777344 5.40625 L 291.828125 5.34375 C 292.089844 5.335938 292.503906 5.3125 292.515625 5.3125 C 292.980469 5.3125 293.617188 5.3125 293.914062 5.324219 L 294.054688 4.90625 L 292.871094 4.90625 "/>
<path style=" stroke:none;fill-rule:nonzero;fill:rgb(0%,0%,0%);fill-opacity:1;" d="M 296.453125 0.425781 C 297.257812 0.714844 297.488281 1.648438 297.636719 2.394531 C 297.785156 3.160156 297.824219 3.953125 297.824219 4.726562 C 297.824219 5.859375 297.84375 7.074219 297.488281 8.136719 C 297.289062 8.730469 296.910156 8.992188 296.453125 9.109375 L 296.453125 9.347656 C 298.234375 9.117188 298.34375 6.46875 298.34375 4.769531 C 298.34375 3.109375 298.132812 0.507812 296.453125 0.160156 L 296.453125 0.425781 "/>
<path style=" stroke:none;fill-rule:nonzero;fill:rgb(0%,0%,0%);fill-opacity:1;" d="M 300.253906 0.425781 C 301.058594 0.714844 301.289062 1.648438 301.4375 2.394531 C 301.585938 3.160156 301.625 3.953125 301.625 4.726562 C 301.625 5.859375 301.644531 7.074219 301.289062 8.136719 C 301.089844 8.730469 300.710938 8.992188 300.253906 9.109375 L 300.253906 9.347656 C 302.03125 9.117188 302.140625 6.46875 302.140625 4.769531 C 302.140625 3.109375 301.933594 0.507812 300.253906 0.160156 L 300.253906 0.425781 "/>
<path style=" stroke:none;fill-rule:nonzero;fill:rgb(0%,0%,0%);fill-opacity:1;" d="M 304.15625 0.425781 C 304.960938 0.714844 305.1875 1.648438 305.335938 2.394531 C 305.484375 3.160156 305.523438 3.953125 305.523438 4.726562 C 305.523438 5.859375 305.546875 7.074219 305.1875 8.136719 C 304.988281 8.730469 304.609375 8.992188 304.15625 9.109375 L 304.15625 9.347656 C 305.933594 9.117188 306.042969 6.46875 306.042969 4.769531 C 306.042969 3.109375 305.832031 0.507812 304.15625 0.160156 L 304.15625 0.425781 "/>
</g>
</svg>
