<?xml version="1.0" encoding="UTF-8"?>
<svg xmlns="http://www.w3.org/2000/svg" xmlns:xlink="http://www.w3.org/1999/xlink" width="77.54pt" height="7.38pt" viewBox="0 0 77.54 7.38" version="1.1">
<defs>
<clipPath id="clip1">
  <path d="M 6 2 L 8 2 L 8 7.378906 L 6 7.378906 Z M 6 2 "/>
</clipPath>
<clipPath id="clip2">
  <path d="M 20 2 L 24 2 L 24 7.378906 L 20 7.378906 Z M 20 2 "/>
</clipPath>
<clipPath id="clip3">
  <path d="M 53 3 L 60 3 L 60 7.378906 L 53 7.378906 Z M 53 3 "/>
</clipPath>
</defs>
<g id="surface1">
<path style=" stroke:none;fill-rule:nonzero;fill:rgb(0%,0%,0%);fill-opacity:1;" d="M 4.191406 -0.0078125 C 4.171875 -0.03125 4.152344 -0.03125 4.132812 -0.03125 C 4.101562 -0.03125 4.082031 -0.03125 4.074219 -0.0078125 C 3.636719 0.496094 3.050781 1.191406 2.691406 1.667969 L 2.632812 1.660156 C 2.34375 1.101562 1.9375 0.386719 1.726562 0.160156 C 1.589844 0.0117188 1.359375 -0.03125 1.191406 -0.03125 C 0.863281 -0.03125 0.367188 0.335938 0.0195312 0.605469 L 0.160156 0.785156 C 0.335938 0.664062 0.585938 0.535156 0.796875 0.535156 C 1.28125 0.535156 1.757812 1.601562 2.136719 2.363281 C 1.648438 3 1.152344 3.6875 0.726562 4.371094 L 0.726562 4.449219 L 1.003906 4.699219 L 1.164062 4.660156 C 1.460938 3.894531 1.859375 3.277344 2.246094 2.683594 L 2.3125 2.683594 C 2.96875 3.964844 3.308594 4.699219 3.8125 4.699219 C 4.230469 4.699219 4.738281 4.140625 5.085938 3.765625 L 5.007812 3.578125 L 4.925781 3.578125 C 4.726562 3.746094 4.460938 3.953125 4.222656 3.953125 C 3.785156 3.953125 3.199219 2.902344 2.789062 2.007812 C 3.308594 1.402344 3.945312 0.753906 4.5 0.367188 C 4.519531 0.359375 4.53125 0.347656 4.53125 0.320312 C 4.53125 0.308594 4.507812 0.289062 4.5 0.277344 L 4.191406 -0.0078125 "/>
<g clip-path="url(#clip1)" clip-rule="nonzero">
<path style=" stroke:none;fill-rule:nonzero;fill:rgb(0%,0%,0%);fill-opacity:1;" d="M 7.863281 2.375 L 6.148438 2.886719 L 6.148438 3.078125 L 6.808594 3.078125 C 7.300781 3.078125 7.183594 3.648438 7.183594 4.433594 C 7.183594 5.417969 7.15625 6.402344 7.117188 7.378906 L 7.210938 7.414062 L 7.878906 7.226562 C 7.859375 6.691406 7.859375 5.296875 7.859375 4.34375 C 7.859375 3.71875 7.871094 3.085938 7.914062 2.460938 L 7.863281 2.375 "/>
</g>
<path style=" stroke:none;fill-rule:nonzero;fill:rgb(0%,0%,0%);fill-opacity:1;" d="M 11.191406 6.664062 C 11.898438 5.851562 12.226562 5.34375 12.226562 4.847656 C 12.226562 4.5 11.878906 3.210938 11.351562 3.210938 C 11.101562 3.210938 10.765625 3.429688 10.765625 3.6875 C 10.765625 3.785156 10.796875 3.894531 10.835938 3.945312 L 11.53125 4.769531 C 11.621094 4.878906 11.660156 5.046875 11.660156 5.1875 C 11.660156 5.582031 11.351562 6.070312 11.003906 6.527344 L 11.191406 6.664062 "/>
<path style=" stroke:none;fill-rule:nonzero;fill:rgb(0%,0%,0%);fill-opacity:1;" d="M 18.691406 -0.0078125 C 18.671875 -0.03125 18.652344 -0.03125 18.632812 -0.03125 C 18.601562 -0.03125 18.582031 -0.03125 18.574219 -0.0078125 C 18.136719 0.496094 17.550781 1.191406 17.191406 1.667969 L 17.132812 1.660156 C 16.84375 1.101562 16.4375 0.386719 16.226562 0.160156 C 16.089844 0.0117188 15.859375 -0.03125 15.691406 -0.03125 C 15.363281 -0.03125 14.867188 0.335938 14.519531 0.605469 L 14.660156 0.785156 C 14.835938 0.664062 15.085938 0.535156 15.296875 0.535156 C 15.78125 0.535156 16.257812 1.601562 16.636719 2.363281 C 16.148438 3 15.652344 3.6875 15.226562 4.371094 L 15.226562 4.449219 L 15.503906 4.699219 L 15.664062 4.660156 C 15.960938 3.894531 16.359375 3.277344 16.746094 2.683594 L 16.8125 2.683594 C 17.46875 3.964844 17.808594 4.699219 18.3125 4.699219 C 18.730469 4.699219 19.238281 4.140625 19.585938 3.765625 L 19.507812 3.578125 L 19.425781 3.578125 C 19.226562 3.746094 18.960938 3.953125 18.722656 3.953125 C 18.285156 3.953125 17.699219 2.902344 17.289062 2.007812 C 17.808594 1.402344 18.445312 0.753906 19 0.367188 C 19.019531 0.359375 19.03125 0.347656 19.03125 0.320312 C 19.03125 0.308594 19.007812 0.289062 19 0.277344 L 18.691406 -0.0078125 "/>
<g clip-path="url(#clip2)" clip-rule="nonzero">
<path style=" stroke:none;fill-rule:nonzero;fill:rgb(0%,0%,0%);fill-opacity:1;" d="M 23.765625 6.816406 L 23.730469 6.761719 L 21.277344 6.761719 C 21.226562 6.761719 21.171875 6.753906 21.171875 6.710938 C 21.171875 6.699219 21.179688 6.691406 21.183594 6.683594 C 22.140625 5.714844 23.398438 4.476562 23.398438 3.492188 C 23.398438 2.867188 22.886719 2.402344 22.203125 2.402344 C 21.542969 2.402344 20.960938 2.773438 20.523438 3.195312 L 20.679688 3.328125 C 20.980469 3.105469 21.339844 2.882812 21.773438 2.882812 C 22.429688 2.882812 22.667969 3.421875 22.667969 3.808594 C 22.667969 4.652344 22.050781 5.355469 21.429688 5.996094 C 21.007812 6.429688 20.566406 6.84375 20.117188 7.253906 L 20.117188 7.367188 L 23.582031 7.367188 L 23.765625 6.816406 "/>
</g>
<path style=" stroke:none;fill-rule:nonzero;fill:rgb(0%,0%,0%);fill-opacity:1;" d="M 25.691406 6.664062 C 26.398438 5.851562 26.726562 5.34375 26.726562 4.847656 C 26.726562 4.5 26.378906 3.210938 25.851562 3.210938 C 25.601562 3.210938 25.265625 3.429688 25.265625 3.6875 C 25.265625 3.785156 25.296875 3.894531 25.335938 3.945312 L 26.03125 4.769531 C 26.121094 4.878906 26.160156 5.046875 26.160156 5.1875 C 26.160156 5.582031 25.851562 6.070312 25.503906 6.527344 L 25.691406 6.664062 "/>
<path style=" stroke:none;fill-rule:nonzero;fill:rgb(0%,0%,0%);fill-opacity:1;" d="M 31.007812 2.097656 C 31.007812 1.808594 30.769531 1.570312 30.480469 1.570312 C 30.191406 1.570312 29.953125 1.808594 29.953125 2.097656 C 29.953125 2.382812 30.191406 2.625 30.480469 2.625 C 30.769531 2.625 31.007812 2.382812 31.007812 2.097656 "/>
<path style=" stroke:none;fill-rule:nonzero;fill:rgb(0%,0%,0%);fill-opacity:1;" d="M 35.40625 2.097656 C 35.40625 1.808594 35.167969 1.570312 34.882812 1.570312 C 34.59375 1.570312 34.355469 1.808594 34.355469 2.097656 C 34.355469 2.382812 34.59375 2.625 34.882812 2.625 C 35.167969 2.625 35.40625 2.382812 35.40625 2.097656 "/>
<path style=" stroke:none;fill-rule:nonzero;fill:rgb(0%,0%,0%);fill-opacity:1;" d="M 39.808594 2.097656 C 39.808594 1.808594 39.570312 1.570312 39.28125 1.570312 C 38.992188 1.570312 38.753906 1.808594 38.753906 2.097656 C 38.753906 2.382812 38.992188 2.625 39.28125 2.625 C 39.570312 2.625 39.808594 2.382812 39.808594 2.097656 "/>
<path style=" stroke:none;fill-rule:nonzero;fill:rgb(0%,0%,0%);fill-opacity:1;" d="M 45.09375 6.664062 C 45.796875 5.851562 46.125 5.34375 46.125 4.847656 C 46.125 4.5 45.777344 3.210938 45.25 3.210938 C 45.003906 3.210938 44.664062 3.429688 44.664062 3.6875 C 44.664062 3.785156 44.695312 3.894531 44.734375 3.945312 L 45.429688 4.769531 C 45.519531 4.878906 45.558594 5.046875 45.558594 5.1875 C 45.558594 5.582031 45.25 6.070312 44.90625 6.527344 L 45.09375 6.664062 "/>
<path style=" stroke:none;fill-rule:nonzero;fill:rgb(0%,0%,0%);fill-opacity:1;" d="M 52.59375 -0.0078125 C 52.570312 -0.03125 52.550781 -0.03125 52.53125 -0.03125 C 52.503906 -0.03125 52.484375 -0.03125 52.472656 -0.0078125 C 52.035156 0.496094 51.449219 1.191406 51.09375 1.667969 L 51.03125 1.660156 C 50.742188 1.101562 50.335938 0.386719 50.128906 0.160156 C 49.988281 0.0117188 49.761719 -0.03125 49.59375 -0.03125 C 49.265625 -0.03125 48.765625 0.335938 48.421875 0.605469 L 48.558594 0.785156 C 48.738281 0.664062 48.984375 0.535156 49.195312 0.535156 C 49.679688 0.535156 50.15625 1.601562 50.535156 2.363281 C 50.046875 3 49.550781 3.6875 49.125 4.371094 L 49.125 4.449219 L 49.402344 4.699219 L 49.5625 4.660156 C 49.859375 3.894531 50.257812 3.277344 50.644531 2.683594 L 50.714844 2.683594 C 51.371094 3.964844 51.707031 4.699219 52.214844 4.699219 C 52.632812 4.699219 53.140625 4.140625 53.484375 3.765625 L 53.40625 3.578125 L 53.328125 3.578125 C 53.128906 3.746094 52.859375 3.953125 52.621094 3.953125 C 52.183594 3.953125 51.597656 2.902344 51.191406 2.007812 C 51.707031 1.402344 52.34375 0.753906 52.898438 0.367188 C 52.921875 0.359375 52.929688 0.347656 52.929688 0.320312 C 52.929688 0.308594 52.910156 0.289062 52.898438 0.277344 L 52.59375 -0.0078125 "/>
<g clip-path="url(#clip3)" clip-rule="nonzero">
<path style=" stroke:none;fill-rule:nonzero;fill:rgb(0%,0%,0%);fill-opacity:1;" d="M 55.585938 6.953125 C 55.570312 6.671875 55.5625 6.460938 55.5625 6.265625 C 55.5625 5.75 55.589844 5.132812 55.613281 4.625 C 55.898438 4.414062 56.265625 4.195312 56.632812 4.195312 C 57.1875 4.195312 57.347656 4.597656 57.347656 5.328125 L 57.3125 6.53125 C 57.3125 6.882812 57.453125 7.148438 57.882812 7.148438 C 58.253906 7.148438 58.769531 6.839844 59.125 6.523438 L 59.054688 6.375 L 58.957031 6.375 C 58.753906 6.511719 58.5 6.65625 58.320312 6.65625 C 57.988281 6.65625 57.9375 6.453125 57.9375 5.882812 C 57.9375 5.695312 57.9375 5.46875 57.9375 5.28125 C 57.9375 4.828125 57.9375 4.15625 57.777344 3.984375 C 57.628906 3.832031 57.40625 3.78125 57.164062 3.78125 C 56.652344 3.78125 56.105469 4.050781 55.667969 4.289062 L 55.597656 4.246094 C 55.570312 3.980469 55.40625 3.769531 55.023438 3.769531 C 54.734375 3.769531 54.28125 4.054688 53.960938 4.265625 L 54.09375 4.421875 C 54.324219 4.289062 54.523438 4.175781 54.691406 4.175781 C 54.9375 4.175781 54.984375 4.484375 54.984375 4.941406 C 54.984375 5.5 54.9375 6.707031 54.910156 7.074219 L 55.035156 7.121094 L 55.585938 6.953125 "/>
</g>
<path style=" stroke:none;fill-rule:nonzero;fill:rgb(0%,0%,0%);fill-opacity:1;" d="M 60.890625 6.664062 C 61.597656 5.851562 61.925781 5.34375 61.925781 4.847656 C 61.925781 4.5 61.578125 3.210938 61.050781 3.210938 C 60.804688 3.210938 60.464844 3.429688 60.464844 3.6875 C 60.464844 3.785156 60.496094 3.894531 60.535156 3.945312 L 61.230469 4.769531 C 61.320312 4.878906 61.359375 5.046875 61.359375 5.1875 C 61.359375 5.582031 61.050781 6.070312 60.703125 6.527344 L 60.890625 6.664062 "/>
<path style=" stroke:none;fill-rule:nonzero;fill:rgb(0%,0%,0%);fill-opacity:1;" d="M 66.207031 2.097656 C 66.207031 1.808594 65.96875 1.570312 65.679688 1.570312 C 65.390625 1.570312 65.15625 1.808594 65.15625 2.097656 C 65.15625 2.382812 65.390625 2.625 65.679688 2.625 C 65.96875 2.625 66.207031 2.382812 66.207031 2.097656 "/>
<path style=" stroke:none;fill-rule:nonzero;fill:rgb(0%,0%,0%);fill-opacity:1;" d="M 70.609375 2.097656 C 70.609375 1.808594 70.367188 1.570312 70.082031 1.570312 C 69.792969 1.570312 69.554688 1.808594 69.554688 2.097656 C 69.554688 2.382812 69.792969 2.625 70.082031 2.625 C 70.367188 2.625 70.609375 2.382812 70.609375 2.097656 "/>
<path style=" stroke:none;fill-rule:nonzero;fill:rgb(0%,0%,0%);fill-opacity:1;" d="M 75.007812 2.097656 C 75.007812 1.808594 74.769531 1.570312 74.480469 1.570312 C 74.191406 1.570312 73.953125 1.808594 73.953125 2.097656 C 73.953125 2.382812 74.191406 2.625 74.480469 2.625 C 74.769531 2.625 75.007812 2.382812 75.007812 2.097656 "/>
</g>
</svg>
