<?xml version="1.0" encoding="UTF-8"?>
<svg xmlns="http://www.w3.org/2000/svg" xmlns:xlink="http://www.w3.org/1999/xlink" width="203.87pt" height="9.96pt" viewBox="0 0 203.87 9.96" version="1.1">
<defs>
<clipPath id="clip1">
  <path d="M 14 6 L 20 6 L 20 9.960938 L 14 9.960938 Z M 14 6 "/>
</clipPath>
<clipPath id="clip2">
  <path d="M 20 6 L 28 6 L 28 9.960938 L 20 9.960938 Z M 20 6 "/>
</clipPath>
<clipPath id="clip3">
  <path d="M 27 6 L 35 6 L 35 9.960938 L 27 9.960938 Z M 27 6 "/>
</clipPath>
<clipPath id="clip4">
  <path d="M 38 0 L 41 0 L 41 9.960938 L 38 9.960938 Z M 38 0 "/>
</clipPath>
<clipPath id="clip5">
  <path d="M 46 6 L 52 6 L 52 9.960938 L 46 9.960938 Z M 46 6 "/>
</clipPath>
<clipPath id="clip6">
  <path d="M 64 2 L 70 2 L 70 9.960938 L 64 9.960938 Z M 64 2 "/>
</clipPath>
<clipPath id="clip7">
  <path d="M 70 6 L 76 6 L 76 9.960938 L 70 9.960938 Z M 70 6 "/>
</clipPath>
<clipPath id="clip8">
  <path d="M 77 0 L 80 0 L 80 9.960938 L 77 9.960938 Z M 77 0 "/>
</clipPath>
<clipPath id="clip9">
  <path d="M 107 6 L 114 6 L 114 9.960938 L 107 9.960938 Z M 107 6 "/>
</clipPath>
<clipPath id="clip10">
  <path d="M 113 6 L 121 6 L 121 9.960938 L 113 9.960938 Z M 113 6 "/>
</clipPath>
<clipPath id="clip11">
  <path d="M 121 6 L 129 6 L 129 9.960938 L 121 9.960938 Z M 121 6 "/>
</clipPath>
<clipPath id="clip12">
  <path d="M 136 6 L 142 6 L 142 9.960938 L 136 9.960938 Z M 136 6 "/>
</clipPath>
<clipPath id="clip13">
  <path d="M 168 6 L 174 6 L 174 9.960938 L 168 9.960938 Z M 168 6 "/>
</clipPath>
<clipPath id="clip14">
  <path d="M 174 6 L 182 6 L 182 9.960938 L 174 9.960938 Z M 174 6 "/>
</clipPath>
<clipPath id="clip15">
  <path d="M 182 6 L 190 6 L 190 9.960938 L 182 9.960938 Z M 182 6 "/>
</clipPath>
<clipPath id="clip16">
  <path d="M 191 2 L 197 2 L 197 9.960938 L 191 9.960938 Z M 191 2 "/>
</clipPath>
<clipPath id="clip17">
  <path d="M 197 6 L 203.871094 6 L 203.871094 9.960938 L 197 9.960938 Z M 197 6 "/>
</clipPath>
</defs>
<g id="surface1">
<path style=" stroke:none;fill-rule:nonzero;fill:rgb(0%,0%,0%);fill-opacity:1;" d="M 2.53125 7.460938 L 2.53125 7.152344 C 1.867188 7.152344 1.757812 7.152344 1.757812 6.707031 L 1.757812 0.566406 L 0.328125 0.675781 L 0.328125 0.984375 C 1.023438 0.984375 1.101562 1.050781 1.101562 1.539062 L 1.101562 6.707031 C 1.101562 7.152344 0.992188 7.152344 0.328125 7.152344 L 0.328125 7.460938 L 1.429688 7.429688 L 2.53125 7.460938 "/>
<path style=" stroke:none;fill-rule:nonzero;fill:rgb(0%,0%,0%);fill-opacity:1;" d="M 5.253906 7.460938 L 5.253906 7.152344 C 4.597656 7.152344 4.558594 7.101562 4.558594 6.714844 L 4.558594 3.070312 L 3.167969 3.179688 L 3.167969 3.488281 C 3.8125 3.488281 3.902344 3.546875 3.902344 4.035156 L 3.902344 6.707031 C 3.902344 7.152344 3.792969 7.152344 3.128906 7.152344 L 3.128906 7.460938 L 4.21875 7.429688 C 4.570312 7.429688 4.914062 7.449219 5.253906 7.460938 Z M 4.707031 1.460938 C 4.707031 1.191406 4.476562 0.933594 4.179688 0.933594 C 3.84375 0.933594 3.644531 1.210938 3.644531 1.460938 C 3.644531 1.730469 3.875 1.988281 4.171875 1.988281 C 4.507812 1.988281 4.707031 1.707031 4.707031 1.460938 "/>
<path style=" stroke:none;fill-rule:nonzero;fill:rgb(0%,0%,0%);fill-opacity:1;" d="M 13.578125 7.460938 L 13.578125 7.152344 C 13.058594 7.152344 12.8125 7.152344 12.800781 6.855469 L 12.800781 4.957031 C 12.800781 4.101562 12.800781 3.792969 12.492188 3.4375 C 12.355469 3.269531 12.027344 3.070312 11.449219 3.070312 C 10.617188 3.070312 10.179688 3.664062 10.007812 4.042969 C 9.871094 3.179688 9.136719 3.070312 8.6875 3.070312 C 7.964844 3.070312 7.496094 3.496094 7.21875 4.113281 L 7.21875 3.070312 L 5.816406 3.179688 L 5.816406 3.488281 C 6.511719 3.488281 6.59375 3.554688 6.59375 4.042969 L 6.59375 6.707031 C 6.59375 7.152344 6.484375 7.152344 5.816406 7.152344 L 5.816406 7.460938 L 6.941406 7.429688 L 8.054688 7.460938 L 8.054688 7.152344 C 7.386719 7.152344 7.277344 7.152344 7.277344 6.707031 L 7.277344 4.878906 C 7.277344 3.84375 7.984375 3.289062 8.617188 3.289062 C 9.246094 3.289062 9.355469 3.824219 9.355469 4.390625 L 9.355469 6.707031 C 9.355469 7.152344 9.246094 7.152344 8.578125 7.152344 L 8.578125 7.460938 L 9.703125 7.429688 L 10.8125 7.460938 L 10.8125 7.152344 C 10.148438 7.152344 10.039062 7.152344 10.039062 6.707031 L 10.039062 4.878906 C 10.039062 3.84375 10.746094 3.289062 11.382812 3.289062 C 12.007812 3.289062 12.117188 3.824219 12.117188 4.390625 L 12.117188 6.707031 C 12.117188 7.152344 12.007812 7.152344 11.339844 7.152344 L 11.339844 7.460938 L 12.464844 7.429688 L 13.578125 7.460938 "/>
<g clip-path="url(#clip1)" clip-rule="nonzero">
<path style=" stroke:none;fill-rule:nonzero;fill:rgb(0%,0%,0%);fill-opacity:1;" d="M 15.785156 9.832031 C 15.769531 9.550781 15.761719 9.339844 15.761719 9.144531 C 15.761719 8.632812 15.789062 8.011719 15.8125 7.507812 C 16.101562 7.296875 16.464844 7.078125 16.832031 7.078125 C 17.386719 7.078125 17.546875 7.480469 17.546875 8.210938 L 17.515625 9.410156 C 17.515625 9.761719 17.65625 10.03125 18.082031 10.03125 C 18.453125 10.03125 18.96875 9.722656 19.328125 9.40625 L 19.257812 9.257812 L 19.15625 9.257812 C 18.953125 9.390625 18.703125 9.539062 18.519531 9.539062 C 18.1875 9.539062 18.140625 9.335938 18.140625 8.765625 C 18.140625 8.574219 18.140625 8.351562 18.140625 8.160156 C 18.140625 7.710938 18.140625 7.035156 17.976562 6.867188 C 17.828125 6.710938 17.605469 6.664062 17.367188 6.664062 C 16.851562 6.664062 16.304688 6.929688 15.867188 7.167969 L 15.796875 7.128906 C 15.769531 6.859375 15.609375 6.648438 15.222656 6.648438 C 14.933594 6.648438 14.484375 6.9375 14.160156 7.148438 L 14.292969 7.300781 C 14.523438 7.167969 14.722656 7.058594 14.890625 7.058594 C 15.136719 7.058594 15.1875 7.367188 15.1875 7.824219 C 15.1875 8.378906 15.136719 9.589844 15.109375 9.953125 L 15.234375 10.003906 L 15.785156 9.832031 "/>
</g>
<g clip-path="url(#clip2)" clip-rule="nonzero">
<path style=" stroke:none;fill-rule:nonzero;fill:rgb(0%,0%,0%);fill-opacity:1;" d="M 26.363281 8.371094 C 26.171875 8.609375 25.765625 9.136719 25.53125 9.953125 L 25.878906 9.953125 C 26.089844 9.277344 26.445312 8.644531 27.003906 8.203125 C 26.214844 7.535156 25.953125 6.699219 25.878906 6.445312 L 25.53125 6.445312 C 25.765625 7.261719 26.171875 7.789062 26.363281 8.027344 L 20.359375 8.027344 C 20.238281 8.027344 20.085938 8.027344 20.085938 8.195312 C 20.085938 8.371094 20.234375 8.371094 20.359375 8.371094 L 26.363281 8.371094 "/>
</g>
<g clip-path="url(#clip3)" clip-rule="nonzero">
<path style=" stroke:none;fill-rule:nonzero;fill:rgb(0%,0%,0%);fill-opacity:1;" d="M 31.042969 8.582031 C 30.667969 9.160156 30.070312 9.707031 29.320312 9.707031 C 28.679688 9.707031 28.195312 9.128906 28.195312 8.449219 C 28.195312 7.792969 28.707031 7.300781 29.296875 7.300781 C 29.902344 7.300781 30.296875 7.71875 31.042969 8.582031 Z M 31.367188 7.972656 C 31.046875 7.605469 30.929688 7.472656 30.667969 7.28125 C 30.410156 7.097656 29.960938 6.859375 29.429688 6.859375 C 28.566406 6.859375 27.882812 7.578125 27.882812 8.449219 C 27.882812 9.269531 28.515625 10.03125 29.417969 10.03125 C 30.289062 10.03125 30.949219 9.371094 31.289062 8.878906 L 31.335938 8.933594 C 31.667969 9.308594 31.789062 9.441406 32.019531 9.609375 C 32.273438 9.800781 32.707031 10.03125 33.257812 10.03125 C 34.121094 10.03125 34.804688 9.3125 34.804688 8.441406 C 34.804688 7.621094 34.171875 6.859375 33.269531 6.859375 C 32.398438 6.859375 31.738281 7.519531 31.398438 8.011719 Z M 31.648438 8.308594 C 32.019531 7.730469 32.617188 7.183594 33.367188 7.183594 C 34.007812 7.183594 34.492188 7.761719 34.492188 8.441406 C 34.492188 9.097656 33.980469 9.589844 33.390625 9.589844 C 32.785156 9.589844 32.390625 9.171875 31.648438 8.308594 "/>
</g>
<g clip-path="url(#clip4)" clip-rule="nonzero">
<path style=" stroke:none;fill-rule:nonzero;fill:rgb(0%,0%,0%);fill-opacity:1;" d="M 40.390625 9.078125 C 39.109375 8.832031 39.039062 6.417969 39.039062 4.738281 C 39.039062 3.238281 39.128906 0.714844 40.390625 0.398438 L 40.390625 0.128906 C 39.355469 0.308594 38.910156 1.441406 38.722656 2.394531 C 38.570312 3.136719 38.523438 3.914062 38.523438 4.679688 C 38.523438 5.484375 38.5625 6.289062 38.703125 7.082031 C 38.871094 8.027344 39.347656 9.230469 40.390625 9.316406 L 40.390625 9.078125 "/>
</g>
<path style=" stroke:none;fill-rule:nonzero;fill:rgb(0%,0%,0%);fill-opacity:1;" d="M 45.492188 2.871094 C 45.472656 2.851562 45.453125 2.851562 45.433594 2.851562 C 45.402344 2.851562 45.382812 2.851562 45.375 2.871094 C 44.9375 3.378906 44.351562 4.074219 43.992188 4.550781 L 43.933594 4.539062 C 43.644531 3.984375 43.238281 3.269531 43.027344 3.039062 C 42.890625 2.890625 42.660156 2.851562 42.492188 2.851562 C 42.164062 2.851562 41.667969 3.21875 41.320312 3.488281 L 41.460938 3.664062 C 41.636719 3.546875 41.886719 3.417969 42.09375 3.417969 C 42.582031 3.417969 43.058594 4.480469 43.4375 5.246094 C 42.949219 5.878906 42.453125 6.566406 42.023438 7.25 L 42.023438 7.332031 L 42.304688 7.578125 L 42.460938 7.539062 C 42.761719 6.773438 43.15625 6.160156 43.546875 5.5625 L 43.613281 5.5625 C 44.269531 6.84375 44.609375 7.578125 45.113281 7.578125 C 45.53125 7.578125 46.039062 7.023438 46.386719 6.644531 L 46.304688 6.457031 L 46.226562 6.457031 C 46.027344 6.625 45.761719 6.832031 45.523438 6.832031 C 45.085938 6.832031 44.5 5.78125 44.089844 4.886719 C 44.609375 4.28125 45.242188 3.636719 45.800781 3.246094 C 45.820312 3.238281 45.828125 3.230469 45.828125 3.199219 C 45.828125 3.1875 45.808594 3.167969 45.800781 3.160156 L 45.492188 2.871094 "/>
<g clip-path="url(#clip5)" clip-rule="nonzero">
<path style=" stroke:none;fill-rule:nonzero;fill:rgb(0%,0%,0%);fill-opacity:1;" d="M 48.382812 9.832031 C 48.371094 9.550781 48.363281 9.339844 48.363281 9.144531 C 48.363281 8.632812 48.390625 8.011719 48.414062 7.507812 C 48.699219 7.296875 49.066406 7.078125 49.429688 7.078125 C 49.988281 7.078125 50.148438 7.480469 50.148438 8.210938 L 50.113281 9.410156 C 50.113281 9.761719 50.253906 10.03125 50.683594 10.03125 C 51.054688 10.03125 51.570312 9.722656 51.925781 9.40625 L 51.855469 9.257812 L 51.757812 9.257812 C 51.554688 9.390625 51.300781 9.539062 51.117188 9.539062 C 50.789062 9.539062 50.738281 9.335938 50.738281 8.765625 C 50.738281 8.574219 50.738281 8.351562 50.738281 8.160156 C 50.738281 7.710938 50.738281 7.035156 50.578125 6.867188 C 50.429688 6.710938 50.203125 6.664062 49.964844 6.664062 C 49.453125 6.664062 48.90625 6.929688 48.46875 7.167969 L 48.398438 7.128906 C 48.371094 6.859375 48.207031 6.648438 47.820312 6.648438 C 47.53125 6.648438 47.082031 6.9375 46.757812 7.148438 L 46.894531 7.300781 C 47.125 7.167969 47.320312 7.058594 47.492188 7.058594 C 47.738281 7.058594 47.785156 7.367188 47.785156 7.824219 C 47.785156 8.378906 47.738281 9.589844 47.710938 9.953125 L 47.835938 10.003906 L 48.382812 9.832031 "/>
</g>
<path style=" stroke:none;fill-rule:nonzero;fill:rgb(0%,0%,0%);fill-opacity:1;" d="M 58.835938 4.71875 L 58.835938 1.636719 L 58.4375 1.699219 L 58.4375 4.71875 L 55.425781 4.71875 L 55.355469 5.117188 L 58.4375 5.117188 L 58.4375 8.195312 L 58.835938 8.125 L 58.835938 5.117188 L 61.894531 5.117188 L 61.945312 4.71875 L 58.835938 4.71875 "/>
<g clip-path="url(#clip6)" clip-rule="nonzero">
<path style=" stroke:none;fill-rule:nonzero;fill:rgb(0%,0%,0%);fill-opacity:1;" d="M 65.5625 9.269531 C 65.832031 9.546875 66.359375 9.773438 66.824219 9.773438 C 67.886719 9.773438 68.910156 9.238281 69.269531 7.949219 C 69.488281 7.003906 69.339844 4.898438 69.476562 2.871094 L 69.359375 2.832031 L 68.574219 3.207031 C 68.625 3.894531 68.652344 4.609375 68.652344 5.324219 C 68.652344 5.683594 68.644531 6.039062 68.632812 6.386719 C 68.265625 6.605469 67.777344 6.902344 67.300781 6.902344 C 67.0625 6.902344 66.824219 6.832031 66.675781 6.644531 C 66.515625 6.4375 66.429688 6.136719 66.398438 5.214844 C 66.398438 4.636719 66.4375 4.0625 66.4375 3.507812 C 66.4375 3.136719 66.238281 2.8125 65.8125 2.8125 C 65.355469 2.8125 64.570312 3.378906 64.429688 3.476562 L 64.539062 3.664062 C 64.769531 3.546875 65.078125 3.386719 65.246094 3.386719 C 65.652344 3.386719 65.703125 3.824219 65.703125 4.539062 C 65.703125 5.035156 65.664062 5.453125 65.664062 5.902344 C 65.664062 6.566406 65.734375 7.539062 66.695312 7.539062 C 67.332031 7.539062 68.007812 7.121094 68.5625 6.773438 L 68.625 6.824219 C 68.613281 7.144531 68.601562 7.46875 68.542969 7.796875 C 68.445312 8.363281 68.207031 9.367188 67.144531 9.367188 C 66.695312 9.367188 66.320312 8.980469 66.109375 8.601562 L 65.980469 8.601562 L 65.542969 9.160156 L 65.5625 9.269531 "/>
</g>
<g clip-path="url(#clip7)" clip-rule="nonzero">
<path style=" stroke:none;fill-rule:nonzero;fill:rgb(0%,0%,0%);fill-opacity:1;" d="M 72.382812 9.832031 C 72.371094 9.550781 72.363281 9.339844 72.363281 9.144531 C 72.363281 8.632812 72.390625 8.011719 72.414062 7.507812 C 72.699219 7.296875 73.066406 7.078125 73.429688 7.078125 C 73.988281 7.078125 74.148438 7.480469 74.148438 8.210938 L 74.113281 9.410156 C 74.113281 9.761719 74.253906 10.03125 74.683594 10.03125 C 75.054688 10.03125 75.570312 9.722656 75.925781 9.40625 L 75.855469 9.257812 L 75.757812 9.257812 C 75.554688 9.390625 75.300781 9.539062 75.117188 9.539062 C 74.789062 9.539062 74.738281 9.335938 74.738281 8.765625 C 74.738281 8.574219 74.738281 8.351562 74.738281 8.160156 C 74.738281 7.710938 74.738281 7.035156 74.578125 6.867188 C 74.429688 6.710938 74.203125 6.664062 73.964844 6.664062 C 73.453125 6.664062 72.90625 6.929688 72.46875 7.167969 L 72.398438 7.128906 C 72.371094 6.859375 72.207031 6.648438 71.820312 6.648438 C 71.53125 6.648438 71.082031 6.9375 70.757812 7.148438 L 70.894531 7.300781 C 71.125 7.167969 71.320312 7.058594 71.492188 7.058594 C 71.738281 7.058594 71.785156 7.367188 71.785156 7.824219 C 71.785156 8.378906 71.738281 9.589844 71.710938 9.953125 L 71.835938 10.003906 L 72.382812 9.832031 "/>
</g>
<g clip-path="url(#clip8)" clip-rule="nonzero">
<path style=" stroke:none;fill-rule:nonzero;fill:rgb(0%,0%,0%);fill-opacity:1;" d="M 77.554688 0.417969 C 78.359375 0.707031 78.585938 1.636719 78.734375 2.382812 C 78.886719 3.148438 78.925781 3.941406 78.925781 4.71875 C 78.925781 5.851562 78.945312 7.0625 78.585938 8.125 C 78.390625 8.722656 78.011719 8.980469 77.554688 9.097656 L 77.554688 9.339844 C 79.332031 9.109375 79.441406 6.457031 79.441406 4.757812 C 79.441406 3.097656 79.234375 0.496094 77.554688 0.148438 L 77.554688 0.417969 "/>
</g>
<path style=" stroke:none;fill-rule:nonzero;fill:rgb(0%,0%,0%);fill-opacity:1;" d="M 90.414062 4.191406 L 90.472656 3.792969 L 83.90625 3.792969 L 83.835938 4.191406 Z M 90.414062 6.148438 L 90.472656 5.75 L 83.90625 5.75 L 83.835938 6.148438 L 90.414062 6.148438 "/>
<path style=" stroke:none;fill-rule:nonzero;fill:rgb(0%,0%,0%);fill-opacity:1;" d="M 96.132812 7.460938 L 96.132812 7.152344 C 95.46875 7.152344 95.359375 7.152344 95.359375 6.707031 L 95.359375 0.566406 L 93.929688 0.675781 L 93.929688 0.984375 C 94.625 0.984375 94.703125 1.050781 94.703125 1.539062 L 94.703125 6.707031 C 94.703125 7.152344 94.59375 7.152344 93.929688 7.152344 L 93.929688 7.460938 L 95.03125 7.429688 L 96.132812 7.460938 "/>
<path style=" stroke:none;fill-rule:nonzero;fill:rgb(0%,0%,0%);fill-opacity:1;" d="M 98.851562 7.460938 L 98.851562 7.152344 C 98.199219 7.152344 98.15625 7.101562 98.15625 6.714844 L 98.15625 3.070312 L 96.765625 3.179688 L 96.765625 3.488281 C 97.414062 3.488281 97.503906 3.546875 97.503906 4.035156 L 97.503906 6.707031 C 97.503906 7.152344 97.394531 7.152344 96.726562 7.152344 L 96.726562 7.460938 L 97.820312 7.429688 C 98.167969 7.429688 98.515625 7.449219 98.851562 7.460938 Z M 98.308594 1.460938 C 98.308594 1.191406 98.078125 0.933594 97.78125 0.933594 C 97.445312 0.933594 97.242188 1.210938 97.242188 1.460938 C 97.242188 1.730469 97.472656 1.988281 97.769531 1.988281 C 98.109375 1.988281 98.308594 1.707031 98.308594 1.460938 "/>
<path style=" stroke:none;fill-rule:nonzero;fill:rgb(0%,0%,0%);fill-opacity:1;" d="M 107.277344 7.460938 L 107.277344 7.152344 C 106.757812 7.152344 106.511719 7.152344 106.503906 6.855469 L 106.503906 4.957031 C 106.503906 4.101562 106.503906 3.792969 106.195312 3.4375 C 106.054688 3.269531 105.726562 3.070312 105.148438 3.070312 C 104.316406 3.070312 103.878906 3.664062 103.710938 4.042969 C 103.570312 3.179688 102.835938 3.070312 102.390625 3.070312 C 101.664062 3.070312 101.195312 3.496094 100.917969 4.113281 L 100.917969 3.070312 L 99.515625 3.179688 L 99.515625 3.488281 C 100.214844 3.488281 100.292969 3.554688 100.292969 4.042969 L 100.292969 6.707031 C 100.292969 7.152344 100.183594 7.152344 99.515625 7.152344 L 99.515625 7.460938 L 100.640625 7.429688 L 101.753906 7.460938 L 101.753906 7.152344 C 101.089844 7.152344 100.976562 7.152344 100.976562 6.707031 L 100.976562 4.878906 C 100.976562 3.84375 101.683594 3.289062 102.320312 3.289062 C 102.945312 3.289062 103.054688 3.824219 103.054688 4.390625 L 103.054688 6.707031 C 103.054688 7.152344 102.945312 7.152344 102.28125 7.152344 L 102.28125 7.460938 L 103.402344 7.429688 L 104.515625 7.460938 L 104.515625 7.152344 C 103.847656 7.152344 103.738281 7.152344 103.738281 6.707031 L 103.738281 4.878906 C 103.738281 3.84375 104.445312 3.289062 105.082031 3.289062 C 105.707031 3.289062 105.816406 3.824219 105.816406 4.390625 L 105.816406 6.707031 C 105.816406 7.152344 105.707031 7.152344 105.039062 7.152344 L 105.039062 7.460938 L 106.164062 7.429688 L 107.277344 7.460938 "/>
<g clip-path="url(#clip9)" clip-rule="nonzero">
<path style=" stroke:none;fill-rule:nonzero;fill:rgb(0%,0%,0%);fill-opacity:1;" d="M 109.484375 9.832031 C 109.46875 9.550781 109.464844 9.339844 109.464844 9.144531 C 109.464844 8.632812 109.492188 8.011719 109.511719 7.507812 C 109.800781 7.296875 110.164062 7.078125 110.53125 7.078125 C 111.089844 7.078125 111.246094 7.480469 111.246094 8.210938 L 111.214844 9.410156 C 111.214844 9.761719 111.355469 10.03125 111.78125 10.03125 C 112.15625 10.03125 112.667969 9.722656 113.027344 9.40625 L 112.957031 9.257812 L 112.859375 9.257812 C 112.65625 9.390625 112.402344 9.539062 112.21875 9.539062 C 111.890625 9.539062 111.839844 9.335938 111.839844 8.765625 C 111.839844 8.574219 111.839844 8.351562 111.839844 8.160156 C 111.839844 7.710938 111.839844 7.035156 111.679688 6.867188 C 111.53125 6.710938 111.304688 6.664062 111.066406 6.664062 C 110.554688 6.664062 110.003906 6.929688 109.570312 7.167969 L 109.496094 7.128906 C 109.46875 6.859375 109.308594 6.648438 108.921875 6.648438 C 108.632812 6.648438 108.183594 6.9375 107.859375 7.148438 L 107.992188 7.300781 C 108.226562 7.167969 108.421875 7.058594 108.589844 7.058594 C 108.839844 7.058594 108.886719 7.367188 108.886719 7.824219 C 108.886719 8.378906 108.839844 9.589844 108.808594 9.953125 L 108.9375 10.003906 L 109.484375 9.832031 "/>
</g>
<g clip-path="url(#clip10)" clip-rule="nonzero">
<path style=" stroke:none;fill-rule:nonzero;fill:rgb(0%,0%,0%);fill-opacity:1;" d="M 119.964844 8.371094 C 119.773438 8.609375 119.367188 9.136719 119.132812 9.953125 L 119.476562 9.953125 C 119.6875 9.277344 120.046875 8.644531 120.601562 8.203125 C 119.816406 7.535156 119.554688 6.699219 119.476562 6.445312 L 119.132812 6.445312 C 119.367188 7.261719 119.773438 7.789062 119.964844 8.027344 L 113.960938 8.027344 C 113.839844 8.027344 113.683594 8.027344 113.683594 8.195312 C 113.683594 8.371094 113.832031 8.371094 113.960938 8.371094 L 119.964844 8.371094 "/>
</g>
<g clip-path="url(#clip11)" clip-rule="nonzero">
<path style=" stroke:none;fill-rule:nonzero;fill:rgb(0%,0%,0%);fill-opacity:1;" d="M 124.640625 8.582031 C 124.269531 9.160156 123.671875 9.707031 122.917969 9.707031 C 122.28125 9.707031 121.792969 9.128906 121.792969 8.449219 C 121.792969 7.792969 122.308594 7.300781 122.898438 7.300781 C 123.503906 7.300781 123.898438 7.71875 124.640625 8.582031 Z M 124.964844 7.972656 C 124.648438 7.605469 124.53125 7.472656 124.269531 7.28125 C 124.007812 7.097656 123.558594 6.859375 123.03125 6.859375 C 122.167969 6.859375 121.484375 7.578125 121.484375 8.449219 C 121.484375 9.269531 122.117188 10.03125 123.015625 10.03125 C 123.890625 10.03125 124.550781 9.371094 124.886719 8.878906 L 124.9375 8.933594 C 125.265625 9.308594 125.386719 9.441406 125.617188 9.609375 C 125.871094 9.800781 126.308594 10.03125 126.855469 10.03125 C 127.71875 10.03125 128.402344 9.3125 128.402344 8.441406 C 128.402344 7.621094 127.769531 6.859375 126.871094 6.859375 C 125.996094 6.859375 125.339844 7.519531 125 8.011719 Z M 125.246094 8.308594 C 125.617188 7.730469 126.214844 7.183594 126.96875 7.183594 C 127.609375 7.183594 128.09375 7.761719 128.09375 8.441406 C 128.09375 9.097656 127.578125 9.589844 126.988281 9.589844 C 126.382812 9.589844 125.992188 9.171875 125.246094 8.308594 "/>
</g>
<path style=" stroke:none;fill-rule:nonzero;fill:rgb(0%,0%,0%);fill-opacity:1;" d="M 135.191406 2.871094 C 135.171875 2.851562 135.152344 2.851562 135.132812 2.851562 C 135.101562 2.851562 135.082031 2.851562 135.074219 2.871094 C 134.636719 3.378906 134.050781 4.074219 133.691406 4.550781 L 133.632812 4.539062 C 133.34375 3.984375 132.9375 3.269531 132.726562 3.039062 C 132.589844 2.890625 132.359375 2.851562 132.191406 2.851562 C 131.863281 2.851562 131.367188 3.21875 131.019531 3.488281 L 131.160156 3.664062 C 131.339844 3.546875 131.585938 3.417969 131.796875 3.417969 C 132.28125 3.417969 132.757812 4.480469 133.136719 5.246094 C 132.648438 5.878906 132.152344 6.566406 131.726562 7.25 L 131.726562 7.332031 L 132.003906 7.578125 L 132.164062 7.539062 C 132.460938 6.773438 132.859375 6.160156 133.246094 5.5625 L 133.3125 5.5625 C 133.96875 6.84375 134.308594 7.578125 134.8125 7.578125 C 135.230469 7.578125 135.738281 7.023438 136.085938 6.644531 L 136.007812 6.457031 L 135.925781 6.457031 C 135.726562 6.625 135.460938 6.832031 135.222656 6.832031 C 134.785156 6.832031 134.199219 5.78125 133.789062 4.886719 C 134.308594 4.28125 134.945312 3.636719 135.5 3.246094 C 135.519531 3.238281 135.53125 3.230469 135.53125 3.199219 C 135.53125 3.1875 135.507812 3.167969 135.5 3.160156 L 135.191406 2.871094 "/>
<g clip-path="url(#clip12)" clip-rule="nonzero">
<path style=" stroke:none;fill-rule:nonzero;fill:rgb(0%,0%,0%);fill-opacity:1;" d="M 138.183594 9.832031 C 138.171875 9.550781 138.164062 9.339844 138.164062 9.144531 C 138.164062 8.632812 138.191406 8.011719 138.214844 7.507812 C 138.5 7.296875 138.867188 7.078125 139.230469 7.078125 C 139.789062 7.078125 139.949219 7.480469 139.949219 8.210938 L 139.914062 9.410156 C 139.914062 9.761719 140.054688 10.03125 140.484375 10.03125 C 140.855469 10.03125 141.367188 9.722656 141.726562 9.40625 L 141.65625 9.257812 L 141.558594 9.257812 C 141.355469 9.390625 141.101562 9.539062 140.917969 9.539062 C 140.589844 9.539062 140.539062 9.335938 140.539062 8.765625 C 140.539062 8.574219 140.539062 8.351562 140.539062 8.160156 C 140.539062 7.710938 140.539062 7.035156 140.378906 6.867188 C 140.230469 6.710938 140.003906 6.664062 139.765625 6.664062 C 139.253906 6.664062 138.703125 6.929688 138.269531 7.167969 L 138.199219 7.128906 C 138.171875 6.859375 138.007812 6.648438 137.621094 6.648438 C 137.332031 6.648438 136.882812 6.9375 136.558594 7.148438 L 136.695312 7.300781 C 136.925781 7.167969 137.121094 7.058594 137.289062 7.058594 C 137.539062 7.058594 137.585938 7.367188 137.585938 7.824219 C 137.585938 8.378906 137.539062 9.589844 137.507812 9.953125 L 137.636719 10.003906 L 138.183594 9.832031 "/>
</g>
<path style=" stroke:none;fill-rule:nonzero;fill:rgb(0%,0%,0%);fill-opacity:1;" d="M 148.632812 4.71875 L 148.632812 1.636719 L 148.234375 1.699219 L 148.234375 4.71875 L 145.226562 4.71875 L 145.15625 5.117188 L 148.234375 5.117188 L 148.234375 8.195312 L 148.632812 8.125 L 148.632812 5.117188 L 151.695312 5.117188 L 151.742188 4.71875 L 148.632812 4.71875 "/>
<path style=" stroke:none;fill-rule:nonzero;fill:rgb(0%,0%,0%);fill-opacity:1;" d="M 156.933594 7.460938 L 156.933594 7.152344 C 156.265625 7.152344 156.15625 7.152344 156.15625 6.707031 L 156.15625 0.566406 L 154.726562 0.675781 L 154.726562 0.984375 C 155.421875 0.984375 155.503906 1.050781 155.503906 1.539062 L 155.503906 6.707031 C 155.503906 7.152344 155.394531 7.152344 154.726562 7.152344 L 154.726562 7.460938 L 155.828125 7.429688 L 156.933594 7.460938 "/>
<path style=" stroke:none;fill-rule:nonzero;fill:rgb(0%,0%,0%);fill-opacity:1;" d="M 159.652344 7.460938 L 159.652344 7.152344 C 158.996094 7.152344 158.957031 7.101562 158.957031 6.714844 L 158.957031 3.070312 L 157.566406 3.179688 L 157.566406 3.488281 C 158.214844 3.488281 158.304688 3.546875 158.304688 4.035156 L 158.304688 6.707031 C 158.304688 7.152344 158.195312 7.152344 157.527344 7.152344 L 157.527344 7.460938 L 158.621094 7.429688 C 158.96875 7.429688 159.316406 7.449219 159.652344 7.460938 Z M 159.109375 1.460938 C 159.109375 1.191406 158.878906 0.933594 158.582031 0.933594 C 158.242188 0.933594 158.042969 1.210938 158.042969 1.460938 C 158.042969 1.730469 158.273438 1.988281 158.570312 1.988281 C 158.910156 1.988281 159.109375 1.707031 159.109375 1.460938 "/>
<path style=" stroke:none;fill-rule:nonzero;fill:rgb(0%,0%,0%);fill-opacity:1;" d="M 167.976562 7.460938 L 167.976562 7.152344 C 167.460938 7.152344 167.210938 7.152344 167.203125 6.855469 L 167.203125 4.957031 C 167.203125 4.101562 167.203125 3.792969 166.894531 3.4375 C 166.753906 3.269531 166.425781 3.070312 165.851562 3.070312 C 165.015625 3.070312 164.578125 3.664062 164.410156 4.042969 C 164.269531 3.179688 163.535156 3.070312 163.089844 3.070312 C 162.363281 3.070312 161.898438 3.496094 161.617188 4.113281 L 161.617188 3.070312 L 160.21875 3.179688 L 160.21875 3.488281 C 160.914062 3.488281 160.992188 3.554688 160.992188 4.042969 L 160.992188 6.707031 C 160.992188 7.152344 160.882812 7.152344 160.21875 7.152344 L 160.21875 7.460938 L 161.339844 7.429688 L 162.453125 7.460938 L 162.453125 7.152344 C 161.789062 7.152344 161.679688 7.152344 161.679688 6.707031 L 161.679688 4.878906 C 161.679688 3.84375 162.382812 3.289062 163.019531 3.289062 C 163.644531 3.289062 163.753906 3.824219 163.753906 4.390625 L 163.753906 6.707031 C 163.753906 7.152344 163.644531 7.152344 162.980469 7.152344 L 162.980469 7.460938 L 164.101562 7.429688 L 165.214844 7.460938 L 165.214844 7.152344 C 164.546875 7.152344 164.4375 7.152344 164.4375 6.707031 L 164.4375 4.878906 C 164.4375 3.84375 165.144531 3.289062 165.78125 3.289062 C 166.40625 3.289062 166.515625 3.824219 166.515625 4.390625 L 166.515625 6.707031 C 166.515625 7.152344 166.40625 7.152344 165.742188 7.152344 L 165.742188 7.460938 L 166.863281 7.429688 L 167.976562 7.460938 "/>
<g clip-path="url(#clip13)" clip-rule="nonzero">
<path style=" stroke:none;fill-rule:nonzero;fill:rgb(0%,0%,0%);fill-opacity:1;" d="M 170.183594 9.832031 C 170.171875 9.550781 170.164062 9.339844 170.164062 9.144531 C 170.164062 8.632812 170.191406 8.011719 170.214844 7.507812 C 170.5 7.296875 170.867188 7.078125 171.230469 7.078125 C 171.789062 7.078125 171.949219 7.480469 171.949219 8.210938 L 171.914062 9.410156 C 171.914062 9.761719 172.054688 10.03125 172.484375 10.03125 C 172.855469 10.03125 173.367188 9.722656 173.726562 9.40625 L 173.65625 9.257812 L 173.558594 9.257812 C 173.355469 9.390625 173.101562 9.539062 172.917969 9.539062 C 172.589844 9.539062 172.539062 9.335938 172.539062 8.765625 C 172.539062 8.574219 172.539062 8.351562 172.539062 8.160156 C 172.539062 7.710938 172.539062 7.035156 172.378906 6.867188 C 172.230469 6.710938 172.003906 6.664062 171.765625 6.664062 C 171.253906 6.664062 170.703125 6.929688 170.269531 7.167969 L 170.199219 7.128906 C 170.171875 6.859375 170.007812 6.648438 169.621094 6.648438 C 169.332031 6.648438 168.882812 6.9375 168.558594 7.148438 L 168.695312 7.300781 C 168.925781 7.167969 169.121094 7.058594 169.289062 7.058594 C 169.539062 7.058594 169.585938 7.367188 169.585938 7.824219 C 169.585938 8.378906 169.539062 9.589844 169.507812 9.953125 L 169.636719 10.003906 L 170.183594 9.832031 "/>
</g>
<g clip-path="url(#clip14)" clip-rule="nonzero">
<path style=" stroke:none;fill-rule:nonzero;fill:rgb(0%,0%,0%);fill-opacity:1;" d="M 180.761719 8.371094 C 180.574219 8.609375 180.164062 9.136719 179.933594 9.953125 L 180.277344 9.953125 C 180.488281 9.277344 180.847656 8.644531 181.402344 8.203125 C 180.617188 7.535156 180.355469 6.699219 180.277344 6.445312 L 179.933594 6.445312 C 180.164062 7.261719 180.574219 7.789062 180.761719 8.027344 L 174.757812 8.027344 C 174.640625 8.027344 174.484375 8.027344 174.484375 8.195312 C 174.484375 8.371094 174.632812 8.371094 174.757812 8.371094 L 180.761719 8.371094 "/>
</g>
<g clip-path="url(#clip15)" clip-rule="nonzero">
<path style=" stroke:none;fill-rule:nonzero;fill:rgb(0%,0%,0%);fill-opacity:1;" d="M 185.441406 8.582031 C 185.070312 9.160156 184.472656 9.707031 183.71875 9.707031 C 183.078125 9.707031 182.59375 9.128906 182.59375 8.449219 C 182.59375 7.792969 183.109375 7.300781 183.699219 7.300781 C 184.304688 7.300781 184.695312 7.71875 185.441406 8.582031 Z M 185.765625 7.972656 C 185.449219 7.605469 185.328125 7.472656 185.070312 7.28125 C 184.808594 7.097656 184.359375 6.859375 183.832031 6.859375 C 182.96875 6.859375 182.285156 7.578125 182.285156 8.449219 C 182.285156 9.269531 182.917969 10.03125 183.816406 10.03125 C 184.6875 10.03125 185.351562 9.371094 185.6875 8.878906 L 185.738281 8.933594 C 186.066406 9.308594 186.1875 9.441406 186.417969 9.609375 C 186.671875 9.800781 187.109375 10.03125 187.65625 10.03125 C 188.519531 10.03125 189.203125 9.3125 189.203125 8.441406 C 189.203125 7.621094 188.570312 6.859375 187.671875 6.859375 C 186.796875 6.859375 186.136719 7.519531 185.800781 8.011719 Z M 186.046875 8.308594 C 186.417969 7.730469 187.015625 7.183594 187.769531 7.183594 C 188.40625 7.183594 188.894531 7.761719 188.894531 8.441406 C 188.894531 9.097656 188.378906 9.589844 187.789062 9.589844 C 187.183594 9.589844 186.789062 9.171875 186.046875 8.308594 "/>
</g>
<g clip-path="url(#clip16)" clip-rule="nonzero">
<path style=" stroke:none;fill-rule:nonzero;fill:rgb(0%,0%,0%);fill-opacity:1;" d="M 192.765625 9.269531 C 193.03125 9.546875 193.558594 9.773438 194.023438 9.773438 C 195.089844 9.773438 196.109375 9.238281 196.46875 7.949219 C 196.6875 7.003906 196.539062 4.898438 196.679688 2.871094 L 196.558594 2.832031 L 195.773438 3.207031 C 195.824219 3.894531 195.851562 4.609375 195.851562 5.324219 C 195.851562 5.683594 195.84375 6.039062 195.832031 6.386719 C 195.464844 6.605469 194.976562 6.902344 194.503906 6.902344 C 194.265625 6.902344 194.023438 6.832031 193.878906 6.644531 C 193.71875 6.4375 193.628906 6.136719 193.597656 5.214844 C 193.597656 4.636719 193.636719 4.0625 193.636719 3.507812 C 193.636719 3.136719 193.4375 2.8125 193.011719 2.8125 C 192.554688 2.8125 191.769531 3.378906 191.632812 3.476562 L 191.742188 3.664062 C 191.96875 3.546875 192.277344 3.386719 192.445312 3.386719 C 192.851562 3.386719 192.902344 3.824219 192.902344 4.539062 C 192.902344 5.035156 192.863281 5.453125 192.863281 5.902344 C 192.863281 6.566406 192.933594 7.539062 193.894531 7.539062 C 194.53125 7.539062 195.207031 7.121094 195.765625 6.773438 L 195.824219 6.824219 C 195.8125 7.144531 195.804688 7.46875 195.742188 7.796875 C 195.644531 8.363281 195.40625 9.367188 194.34375 9.367188 C 193.894531 9.367188 193.519531 8.980469 193.308594 8.601562 L 193.179688 8.601562 L 192.742188 9.160156 L 192.765625 9.269531 "/>
</g>
<g clip-path="url(#clip17)" clip-rule="nonzero">
<path style=" stroke:none;fill-rule:nonzero;fill:rgb(0%,0%,0%);fill-opacity:1;" d="M 199.585938 9.832031 C 199.570312 9.550781 199.5625 9.339844 199.5625 9.144531 C 199.5625 8.632812 199.589844 8.011719 199.613281 7.507812 C 199.898438 7.296875 200.265625 7.078125 200.632812 7.078125 C 201.1875 7.078125 201.347656 7.480469 201.347656 8.210938 L 201.3125 9.410156 C 201.3125 9.761719 201.453125 10.03125 201.882812 10.03125 C 202.253906 10.03125 202.769531 9.722656 203.128906 9.40625 L 203.054688 9.257812 L 202.957031 9.257812 C 202.753906 9.390625 202.503906 9.539062 202.320312 9.539062 C 201.988281 9.539062 201.9375 9.335938 201.9375 8.765625 C 201.9375 8.574219 201.9375 8.351562 201.9375 8.160156 C 201.9375 7.710938 201.9375 7.035156 201.777344 6.867188 C 201.628906 6.710938 201.40625 6.664062 201.164062 6.664062 C 200.652344 6.664062 200.105469 6.929688 199.667969 7.167969 L 199.597656 7.128906 C 199.570312 6.859375 199.40625 6.648438 199.023438 6.648438 C 198.734375 6.648438 198.28125 6.9375 197.960938 7.148438 L 198.09375 7.300781 C 198.324219 7.167969 198.523438 7.058594 198.691406 7.058594 C 198.9375 7.058594 198.984375 7.367188 198.984375 7.824219 C 198.984375 8.378906 198.9375 9.589844 198.910156 9.953125 L 199.035156 10.003906 L 199.585938 9.832031 "/>
</g>
</g>
</svg>
