<?xml version="1.0" encoding="UTF-8"?>
<svg xmlns="http://www.w3.org/2000/svg" xmlns:xlink="http://www.w3.org/1999/xlink" width="283.32pt" height="9.96pt" viewBox="0 0 283.32 9.96" version="1.1">
<defs>
<clipPath id="clip1">
  <path d="M 14 6 L 20 6 L 20 9.960938 L 14 9.960938 Z M 14 6 "/>
</clipPath>
<clipPath id="clip2">
  <path d="M 20 6 L 28 6 L 28 9.960938 L 20 9.960938 Z M 20 6 "/>
</clipPath>
<clipPath id="clip3">
  <path d="M 27 6 L 35 6 L 35 9.960938 L 27 9.960938 Z M 27 6 "/>
</clipPath>
<clipPath id="clip4">
  <path d="M 42 6 L 49 6 L 49 9.960938 L 42 9.960938 Z M 42 6 "/>
</clipPath>
<clipPath id="clip5">
  <path d="M 96 6 L 102 6 L 102 9.960938 L 96 9.960938 Z M 96 6 "/>
</clipPath>
<clipPath id="clip6">
  <path d="M 102 6 L 110 6 L 110 9.960938 L 102 9.960938 Z M 102 6 "/>
</clipPath>
<clipPath id="clip7">
  <path d="M 110 6 L 118 6 L 118 9.960938 L 110 9.960938 Z M 110 6 "/>
</clipPath>
<clipPath id="clip8">
  <path d="M 119 2 L 125 2 L 125 9.960938 L 119 9.960938 Z M 119 2 "/>
</clipPath>
<clipPath id="clip9">
  <path d="M 126 6 L 132 6 L 132 9.960938 L 126 9.960938 Z M 126 6 "/>
</clipPath>
<clipPath id="clip10">
  <path d="M 144 2 L 150 2 L 150 9.960938 L 144 9.960938 Z M 144 2 "/>
</clipPath>
<clipPath id="clip11">
  <path d="M 180 6 L 186 6 L 186 9.960938 L 180 9.960938 Z M 180 6 "/>
</clipPath>
<clipPath id="clip12">
  <path d="M 186 6 L 194 6 L 194 9.960938 L 186 9.960938 Z M 186 6 "/>
</clipPath>
<clipPath id="clip13">
  <path d="M 194 6 L 202 6 L 202 9.960938 L 194 9.960938 Z M 194 6 "/>
</clipPath>
<clipPath id="clip14">
  <path d="M 205 0 L 207 0 L 207 9.960938 L 205 9.960938 Z M 205 0 "/>
</clipPath>
<clipPath id="clip15">
  <path d="M 213 6 L 219 6 L 219 9.960938 L 213 9.960938 Z M 213 6 "/>
</clipPath>
<clipPath id="clip16">
  <path d="M 231 2 L 237 2 L 237 9.960938 L 231 9.960938 Z M 231 2 "/>
</clipPath>
<clipPath id="clip17">
  <path d="M 237 6 L 243 6 L 243 9.960938 L 237 9.960938 Z M 237 6 "/>
</clipPath>
<clipPath id="clip18">
  <path d="M 244 0 L 247 0 L 247 9.960938 L 244 9.960938 Z M 244 0 "/>
</clipPath>
<clipPath id="clip19">
  <path d="M 277 2 L 283 2 L 283 9.960938 L 277 9.960938 Z M 277 2 "/>
</clipPath>
</defs>
<g id="surface1">
<path style=" stroke:none;fill-rule:nonzero;fill:rgb(0%,0%,0%);fill-opacity:1;" d="M 2.53125 7.460938 L 2.53125 7.152344 C 1.867188 7.152344 1.757812 7.152344 1.757812 6.707031 L 1.757812 0.566406 L 0.328125 0.675781 L 0.328125 0.984375 C 1.023438 0.984375 1.101562 1.050781 1.101562 1.539062 L 1.101562 6.707031 C 1.101562 7.152344 0.992188 7.152344 0.328125 7.152344 L 0.328125 7.460938 L 1.429688 7.429688 L 2.53125 7.460938 "/>
<path style=" stroke:none;fill-rule:nonzero;fill:rgb(0%,0%,0%);fill-opacity:1;" d="M 5.253906 7.460938 L 5.253906 7.152344 C 4.597656 7.152344 4.558594 7.101562 4.558594 6.714844 L 4.558594 3.070312 L 3.167969 3.179688 L 3.167969 3.488281 C 3.8125 3.488281 3.902344 3.546875 3.902344 4.035156 L 3.902344 6.707031 C 3.902344 7.152344 3.792969 7.152344 3.128906 7.152344 L 3.128906 7.460938 L 4.21875 7.429688 C 4.570312 7.429688 4.914062 7.449219 5.253906 7.460938 Z M 4.707031 1.460938 C 4.707031 1.191406 4.476562 0.933594 4.179688 0.933594 C 3.84375 0.933594 3.644531 1.210938 3.644531 1.460938 C 3.644531 1.730469 3.875 1.988281 4.171875 1.988281 C 4.507812 1.988281 4.707031 1.707031 4.707031 1.460938 "/>
<path style=" stroke:none;fill-rule:nonzero;fill:rgb(0%,0%,0%);fill-opacity:1;" d="M 13.578125 7.460938 L 13.578125 7.152344 C 13.058594 7.152344 12.8125 7.152344 12.800781 6.855469 L 12.800781 4.957031 C 12.800781 4.101562 12.800781 3.792969 12.492188 3.4375 C 12.355469 3.269531 12.027344 3.070312 11.449219 3.070312 C 10.617188 3.070312 10.179688 3.664062 10.007812 4.042969 C 9.871094 3.179688 9.136719 3.070312 8.6875 3.070312 C 7.964844 3.070312 7.496094 3.496094 7.21875 4.113281 L 7.21875 3.070312 L 5.816406 3.179688 L 5.816406 3.488281 C 6.511719 3.488281 6.59375 3.554688 6.59375 4.042969 L 6.59375 6.707031 C 6.59375 7.152344 6.484375 7.152344 5.816406 7.152344 L 5.816406 7.460938 L 6.941406 7.429688 L 8.054688 7.460938 L 8.054688 7.152344 C 7.386719 7.152344 7.277344 7.152344 7.277344 6.707031 L 7.277344 4.878906 C 7.277344 3.84375 7.984375 3.289062 8.617188 3.289062 C 9.246094 3.289062 9.355469 3.824219 9.355469 4.390625 L 9.355469 6.707031 C 9.355469 7.152344 9.246094 7.152344 8.578125 7.152344 L 8.578125 7.460938 L 9.703125 7.429688 L 10.8125 7.460938 L 10.8125 7.152344 C 10.148438 7.152344 10.039062 7.152344 10.039062 6.707031 L 10.039062 4.878906 C 10.039062 3.84375 10.746094 3.289062 11.382812 3.289062 C 12.007812 3.289062 12.117188 3.824219 12.117188 4.390625 L 12.117188 6.707031 C 12.117188 7.152344 12.007812 7.152344 11.339844 7.152344 L 11.339844 7.460938 L 12.464844 7.429688 L 13.578125 7.460938 "/>
<g clip-path="url(#clip1)" clip-rule="nonzero">
<path style=" stroke:none;fill-rule:nonzero;fill:rgb(0%,0%,0%);fill-opacity:1;" d="M 15.785156 9.832031 C 15.769531 9.550781 15.761719 9.339844 15.761719 9.144531 C 15.761719 8.632812 15.789062 8.011719 15.8125 7.507812 C 16.101562 7.296875 16.464844 7.078125 16.832031 7.078125 C 17.386719 7.078125 17.546875 7.480469 17.546875 8.210938 L 17.515625 9.410156 C 17.515625 9.761719 17.65625 10.03125 18.082031 10.03125 C 18.453125 10.03125 18.96875 9.722656 19.328125 9.40625 L 19.257812 9.257812 L 19.15625 9.257812 C 18.953125 9.390625 18.703125 9.539062 18.519531 9.539062 C 18.1875 9.539062 18.140625 9.335938 18.140625 8.765625 C 18.140625 8.574219 18.140625 8.351562 18.140625 8.160156 C 18.140625 7.710938 18.140625 7.035156 17.976562 6.867188 C 17.828125 6.710938 17.605469 6.664062 17.367188 6.664062 C 16.851562 6.664062 16.304688 6.929688 15.867188 7.167969 L 15.796875 7.128906 C 15.769531 6.859375 15.609375 6.648438 15.222656 6.648438 C 14.933594 6.648438 14.484375 6.9375 14.160156 7.148438 L 14.292969 7.300781 C 14.523438 7.167969 14.722656 7.058594 14.890625 7.058594 C 15.136719 7.058594 15.1875 7.367188 15.1875 7.824219 C 15.1875 8.378906 15.136719 9.589844 15.109375 9.953125 L 15.234375 10.003906 L 15.785156 9.832031 "/>
</g>
<g clip-path="url(#clip2)" clip-rule="nonzero">
<path style=" stroke:none;fill-rule:nonzero;fill:rgb(0%,0%,0%);fill-opacity:1;" d="M 26.363281 8.371094 C 26.171875 8.609375 25.765625 9.136719 25.53125 9.953125 L 25.878906 9.953125 C 26.089844 9.277344 26.445312 8.644531 27.003906 8.203125 C 26.214844 7.535156 25.953125 6.699219 25.878906 6.445312 L 25.53125 6.445312 C 25.765625 7.261719 26.171875 7.789062 26.363281 8.027344 L 20.359375 8.027344 C 20.238281 8.027344 20.085938 8.027344 20.085938 8.195312 C 20.085938 8.371094 20.234375 8.371094 20.359375 8.371094 L 26.363281 8.371094 "/>
</g>
<g clip-path="url(#clip3)" clip-rule="nonzero">
<path style=" stroke:none;fill-rule:nonzero;fill:rgb(0%,0%,0%);fill-opacity:1;" d="M 31.042969 8.582031 C 30.667969 9.160156 30.070312 9.707031 29.320312 9.707031 C 28.679688 9.707031 28.195312 9.128906 28.195312 8.449219 C 28.195312 7.792969 28.707031 7.300781 29.296875 7.300781 C 29.902344 7.300781 30.296875 7.71875 31.042969 8.582031 Z M 31.367188 7.972656 C 31.046875 7.605469 30.929688 7.472656 30.667969 7.28125 C 30.410156 7.097656 29.960938 6.859375 29.429688 6.859375 C 28.566406 6.859375 27.882812 7.578125 27.882812 8.449219 C 27.882812 9.269531 28.515625 10.03125 29.417969 10.03125 C 30.289062 10.03125 30.949219 9.371094 31.289062 8.878906 L 31.335938 8.933594 C 31.667969 9.308594 31.789062 9.441406 32.019531 9.609375 C 32.273438 9.800781 32.707031 10.03125 33.257812 10.03125 C 34.121094 10.03125 34.804688 9.3125 34.804688 8.441406 C 34.804688 7.621094 34.171875 6.859375 33.269531 6.859375 C 32.398438 6.859375 31.738281 7.519531 31.398438 8.011719 Z M 31.648438 8.308594 C 32.019531 7.730469 32.617188 7.183594 33.367188 7.183594 C 34.007812 7.183594 34.492188 7.761719 34.492188 8.441406 C 34.492188 9.097656 33.980469 9.589844 33.390625 9.589844 C 32.785156 9.589844 32.390625 9.171875 31.648438 8.308594 "/>
</g>
<path style=" stroke:none;fill-rule:nonzero;fill:rgb(0%,0%,0%);fill-opacity:1;" d="M 41.59375 2.871094 C 41.570312 2.851562 41.550781 2.851562 41.53125 2.851562 C 41.503906 2.851562 41.484375 2.851562 41.472656 2.871094 C 41.035156 3.378906 40.449219 4.074219 40.09375 4.550781 L 40.03125 4.539062 C 39.742188 3.984375 39.335938 3.269531 39.128906 3.039062 C 38.988281 2.890625 38.761719 2.851562 38.59375 2.851562 C 38.265625 2.851562 37.765625 3.21875 37.421875 3.488281 L 37.558594 3.664062 C 37.738281 3.546875 37.984375 3.417969 38.195312 3.417969 C 38.679688 3.417969 39.15625 4.480469 39.535156 5.246094 C 39.046875 5.878906 38.550781 6.566406 38.125 7.25 L 38.125 7.332031 L 38.402344 7.578125 L 38.5625 7.539062 C 38.859375 6.773438 39.257812 6.160156 39.644531 5.5625 L 39.714844 5.5625 C 40.371094 6.84375 40.707031 7.578125 41.214844 7.578125 C 41.632812 7.578125 42.140625 7.023438 42.484375 6.644531 L 42.40625 6.457031 L 42.328125 6.457031 C 42.128906 6.625 41.859375 6.832031 41.621094 6.832031 C 41.183594 6.832031 40.597656 5.78125 40.191406 4.886719 C 40.707031 4.28125 41.34375 3.636719 41.898438 3.246094 C 41.921875 3.238281 41.929688 3.230469 41.929688 3.199219 C 41.929688 3.1875 41.910156 3.167969 41.898438 3.160156 L 41.59375 2.871094 "/>
<g clip-path="url(#clip4)" clip-rule="nonzero">
<path style=" stroke:none;fill-rule:nonzero;fill:rgb(0%,0%,0%);fill-opacity:1;" d="M 44.484375 9.832031 C 44.46875 9.550781 44.460938 9.339844 44.460938 9.144531 C 44.460938 8.632812 44.492188 8.011719 44.511719 7.507812 C 44.800781 7.296875 45.164062 7.078125 45.53125 7.078125 C 46.085938 7.078125 46.25 7.480469 46.25 8.210938 L 46.214844 9.410156 C 46.214844 9.761719 46.355469 10.03125 46.78125 10.03125 C 47.15625 10.03125 47.667969 9.722656 48.027344 9.40625 L 47.957031 9.257812 L 47.859375 9.257812 C 47.65625 9.390625 47.402344 9.539062 47.21875 9.539062 C 46.890625 9.539062 46.839844 9.335938 46.839844 8.765625 C 46.839844 8.574219 46.839844 8.351562 46.839844 8.160156 C 46.839844 7.710938 46.839844 7.035156 46.679688 6.867188 C 46.53125 6.710938 46.304688 6.664062 46.066406 6.664062 C 45.554688 6.664062 45.003906 6.929688 44.570312 7.167969 L 44.5 7.128906 C 44.46875 6.859375 44.308594 6.648438 43.921875 6.648438 C 43.632812 6.648438 43.183594 6.9375 42.859375 7.148438 L 42.992188 7.300781 C 43.226562 7.167969 43.421875 7.058594 43.589844 7.058594 C 43.835938 7.058594 43.886719 7.367188 43.886719 7.824219 C 43.886719 8.378906 43.835938 9.589844 43.808594 9.953125 L 43.9375 10.003906 L 44.484375 9.832031 "/>
</g>
<path style=" stroke:none;fill-rule:nonzero;fill:rgb(0%,0%,0%);fill-opacity:1;" d="M 58.710938 4.191406 L 58.773438 3.792969 L 52.207031 3.792969 L 52.136719 4.191406 Z M 58.710938 6.148438 L 58.773438 5.75 L 52.207031 5.75 L 52.136719 6.148438 L 58.710938 6.148438 "/>
<path style=" stroke:none;fill-rule:nonzero;fill:rgb(0%,0%,0%);fill-opacity:1;" d="M 66.09375 2.871094 C 66.070312 2.851562 66.050781 2.851562 66.03125 2.851562 C 66.003906 2.851562 65.984375 2.851562 65.972656 2.871094 C 65.535156 3.378906 64.949219 4.074219 64.59375 4.550781 L 64.53125 4.539062 C 64.242188 3.984375 63.835938 3.269531 63.628906 3.039062 C 63.488281 2.890625 63.261719 2.851562 63.09375 2.851562 C 62.765625 2.851562 62.265625 3.21875 61.921875 3.488281 L 62.058594 3.664062 C 62.238281 3.546875 62.484375 3.417969 62.695312 3.417969 C 63.179688 3.417969 63.65625 4.480469 64.035156 5.246094 C 63.546875 5.878906 63.050781 6.566406 62.625 7.25 L 62.625 7.332031 L 62.902344 7.578125 L 63.0625 7.539062 C 63.359375 6.773438 63.757812 6.160156 64.144531 5.5625 L 64.214844 5.5625 C 64.871094 6.84375 65.207031 7.578125 65.714844 7.578125 C 66.132812 7.578125 66.640625 7.023438 66.984375 6.644531 L 66.90625 6.457031 L 66.828125 6.457031 C 66.628906 6.625 66.359375 6.832031 66.121094 6.832031 C 65.683594 6.832031 65.097656 5.78125 64.691406 4.886719 C 65.207031 4.28125 65.84375 3.636719 66.398438 3.246094 C 66.421875 3.238281 66.429688 3.230469 66.429688 3.199219 C 66.429688 3.1875 66.410156 3.167969 66.398438 3.160156 L 66.09375 2.871094 "/>
<path style=" stroke:none;fill-rule:nonzero;fill:rgb(0%,0%,0%);fill-opacity:1;" d="M 78.582031 5.175781 C 78.214844 5.632812 77.6875 6.417969 77.4375 7.460938 L 77.835938 7.460938 C 78.144531 6.160156 78.980469 5.253906 79.277344 4.976562 C 78.960938 4.679688 78.144531 3.785156 77.835938 2.492188 L 77.4375 2.492188 C 77.6875 3.527344 78.203125 4.3125 78.582031 4.777344 L 70.804688 4.777344 C 70.625 4.777344 70.457031 4.777344 70.457031 4.976562 C 70.457031 5.175781 70.632812 5.175781 70.804688 5.175781 L 78.582031 5.175781 "/>
<path style=" stroke:none;fill-rule:nonzero;fill:rgb(0%,0%,0%);fill-opacity:1;" d="M 85.132812 7.460938 L 85.132812 7.152344 C 84.46875 7.152344 84.359375 7.152344 84.359375 6.707031 L 84.359375 0.566406 L 82.929688 0.675781 L 82.929688 0.984375 C 83.625 0.984375 83.703125 1.050781 83.703125 1.539062 L 83.703125 6.707031 C 83.703125 7.152344 83.59375 7.152344 82.929688 7.152344 L 82.929688 7.460938 L 84.03125 7.429688 L 85.132812 7.460938 "/>
<path style=" stroke:none;fill-rule:nonzero;fill:rgb(0%,0%,0%);fill-opacity:1;" d="M 87.851562 7.460938 L 87.851562 7.152344 C 87.199219 7.152344 87.15625 7.101562 87.15625 6.714844 L 87.15625 3.070312 L 85.765625 3.179688 L 85.765625 3.488281 C 86.414062 3.488281 86.503906 3.546875 86.503906 4.035156 L 86.503906 6.707031 C 86.503906 7.152344 86.394531 7.152344 85.726562 7.152344 L 85.726562 7.460938 L 86.820312 7.429688 C 87.167969 7.429688 87.515625 7.449219 87.851562 7.460938 Z M 87.308594 1.460938 C 87.308594 1.191406 87.078125 0.933594 86.78125 0.933594 C 86.445312 0.933594 86.242188 1.210938 86.242188 1.460938 C 86.242188 1.730469 86.472656 1.988281 86.769531 1.988281 C 87.109375 1.988281 87.308594 1.707031 87.308594 1.460938 "/>
<path style=" stroke:none;fill-rule:nonzero;fill:rgb(0%,0%,0%);fill-opacity:1;" d="M 96.175781 7.460938 L 96.175781 7.152344 C 95.660156 7.152344 95.410156 7.152344 95.402344 6.855469 L 95.402344 4.957031 C 95.402344 4.101562 95.402344 3.792969 95.09375 3.4375 C 94.953125 3.269531 94.625 3.070312 94.050781 3.070312 C 93.214844 3.070312 92.777344 3.664062 92.609375 4.042969 C 92.46875 3.179688 91.734375 3.070312 91.289062 3.070312 C 90.5625 3.070312 90.097656 3.496094 89.820312 4.113281 L 89.820312 3.070312 L 88.417969 3.179688 L 88.417969 3.488281 C 89.113281 3.488281 89.191406 3.554688 89.191406 4.042969 L 89.191406 6.707031 C 89.191406 7.152344 89.082031 7.152344 88.417969 7.152344 L 88.417969 7.460938 L 89.539062 7.429688 L 90.652344 7.460938 L 90.652344 7.152344 C 89.988281 7.152344 89.878906 7.152344 89.878906 6.707031 L 89.878906 4.878906 C 89.878906 3.84375 90.582031 3.289062 91.21875 3.289062 C 91.84375 3.289062 91.953125 3.824219 91.953125 4.390625 L 91.953125 6.707031 C 91.953125 7.152344 91.84375 7.152344 91.179688 7.152344 L 91.179688 7.460938 L 92.300781 7.429688 L 93.414062 7.460938 L 93.414062 7.152344 C 92.75 7.152344 92.640625 7.152344 92.640625 6.707031 L 92.640625 4.878906 C 92.640625 3.84375 93.34375 3.289062 93.980469 3.289062 C 94.605469 3.289062 94.714844 3.824219 94.714844 4.390625 L 94.714844 6.707031 C 94.714844 7.152344 94.605469 7.152344 93.941406 7.152344 L 93.941406 7.460938 L 95.0625 7.429688 L 96.175781 7.460938 "/>
<g clip-path="url(#clip5)" clip-rule="nonzero">
<path style=" stroke:none;fill-rule:nonzero;fill:rgb(0%,0%,0%);fill-opacity:1;" d="M 98.382812 9.832031 C 98.371094 9.550781 98.363281 9.339844 98.363281 9.144531 C 98.363281 8.632812 98.390625 8.011719 98.414062 7.507812 C 98.699219 7.296875 99.066406 7.078125 99.429688 7.078125 C 99.988281 7.078125 100.148438 7.480469 100.148438 8.210938 L 100.113281 9.410156 C 100.113281 9.761719 100.253906 10.03125 100.683594 10.03125 C 101.054688 10.03125 101.570312 9.722656 101.925781 9.40625 L 101.855469 9.257812 L 101.757812 9.257812 C 101.554688 9.390625 101.300781 9.539062 101.117188 9.539062 C 100.789062 9.539062 100.738281 9.335938 100.738281 8.765625 C 100.738281 8.574219 100.738281 8.351562 100.738281 8.160156 C 100.738281 7.710938 100.738281 7.035156 100.578125 6.867188 C 100.429688 6.710938 100.203125 6.664062 99.964844 6.664062 C 99.453125 6.664062 98.90625 6.929688 98.46875 7.167969 L 98.398438 7.128906 C 98.371094 6.859375 98.207031 6.648438 97.820312 6.648438 C 97.53125 6.648438 97.082031 6.9375 96.757812 7.148438 L 96.894531 7.300781 C 97.125 7.167969 97.320312 7.058594 97.492188 7.058594 C 97.738281 7.058594 97.785156 7.367188 97.785156 7.824219 C 97.785156 8.378906 97.738281 9.589844 97.710938 9.953125 L 97.835938 10.003906 L 98.382812 9.832031 "/>
</g>
<g clip-path="url(#clip6)" clip-rule="nonzero">
<path style=" stroke:none;fill-rule:nonzero;fill:rgb(0%,0%,0%);fill-opacity:1;" d="M 108.964844 8.371094 C 108.773438 8.609375 108.367188 9.136719 108.132812 9.953125 L 108.476562 9.953125 C 108.6875 9.277344 109.046875 8.644531 109.601562 8.203125 C 108.816406 7.535156 108.554688 6.699219 108.476562 6.445312 L 108.132812 6.445312 C 108.367188 7.261719 108.773438 7.789062 108.964844 8.027344 L 102.960938 8.027344 C 102.839844 8.027344 102.683594 8.027344 102.683594 8.195312 C 102.683594 8.371094 102.832031 8.371094 102.960938 8.371094 L 108.964844 8.371094 "/>
</g>
<g clip-path="url(#clip7)" clip-rule="nonzero">
<path style=" stroke:none;fill-rule:nonzero;fill:rgb(0%,0%,0%);fill-opacity:1;" d="M 113.640625 8.582031 C 113.269531 9.160156 112.671875 9.707031 111.917969 9.707031 C 111.28125 9.707031 110.792969 9.128906 110.792969 8.449219 C 110.792969 7.792969 111.308594 7.300781 111.898438 7.300781 C 112.503906 7.300781 112.898438 7.71875 113.640625 8.582031 Z M 113.964844 7.972656 C 113.648438 7.605469 113.53125 7.472656 113.269531 7.28125 C 113.007812 7.097656 112.558594 6.859375 112.03125 6.859375 C 111.167969 6.859375 110.484375 7.578125 110.484375 8.449219 C 110.484375 9.269531 111.117188 10.03125 112.015625 10.03125 C 112.890625 10.03125 113.550781 9.371094 113.886719 8.878906 L 113.9375 8.933594 C 114.265625 9.308594 114.386719 9.441406 114.617188 9.609375 C 114.871094 9.800781 115.308594 10.03125 115.855469 10.03125 C 116.71875 10.03125 117.402344 9.3125 117.402344 8.441406 C 117.402344 7.621094 116.769531 6.859375 115.871094 6.859375 C 114.996094 6.859375 114.339844 7.519531 114 8.011719 Z M 114.246094 8.308594 C 114.617188 7.730469 115.214844 7.183594 115.96875 7.183594 C 116.609375 7.183594 117.09375 7.761719 117.09375 8.441406 C 117.09375 9.097656 116.578125 9.589844 115.988281 9.589844 C 115.382812 9.589844 114.992188 9.171875 114.246094 8.308594 "/>
</g>
<g clip-path="url(#clip8)" clip-rule="nonzero">
<path style=" stroke:none;fill-rule:nonzero;fill:rgb(0%,0%,0%);fill-opacity:1;" d="M 120.964844 9.269531 C 121.230469 9.546875 121.757812 9.773438 122.226562 9.773438 C 123.289062 9.773438 124.3125 9.238281 124.667969 7.949219 C 124.886719 7.003906 124.738281 4.898438 124.878906 2.871094 L 124.757812 2.832031 L 123.972656 3.207031 C 124.023438 3.894531 124.054688 4.609375 124.054688 5.324219 C 124.054688 5.683594 124.042969 6.039062 124.03125 6.386719 C 123.664062 6.605469 123.179688 6.902344 122.703125 6.902344 C 122.464844 6.902344 122.226562 6.832031 122.078125 6.644531 C 121.917969 6.4375 121.828125 6.136719 121.796875 5.214844 C 121.796875 4.636719 121.839844 4.0625 121.839844 3.507812 C 121.839844 3.136719 121.640625 2.8125 121.214844 2.8125 C 120.753906 2.8125 119.96875 3.378906 119.832031 3.476562 L 119.941406 3.664062 C 120.167969 3.546875 120.476562 3.386719 120.644531 3.386719 C 121.054688 3.386719 121.101562 3.824219 121.101562 4.539062 C 121.101562 5.035156 121.0625 5.453125 121.0625 5.902344 C 121.0625 6.566406 121.132812 7.539062 122.09375 7.539062 C 122.730469 7.539062 123.40625 7.121094 123.964844 6.773438 L 124.023438 6.824219 C 124.011719 7.144531 124.003906 7.46875 123.945312 7.796875 C 123.84375 8.363281 123.605469 9.367188 122.542969 9.367188 C 122.09375 9.367188 121.71875 8.980469 121.507812 8.601562 L 121.382812 8.601562 L 120.945312 9.160156 L 120.964844 9.269531 "/>
</g>
<g clip-path="url(#clip9)" clip-rule="nonzero">
<path style=" stroke:none;fill-rule:nonzero;fill:rgb(0%,0%,0%);fill-opacity:1;" d="M 127.785156 9.832031 C 127.769531 9.550781 127.761719 9.339844 127.761719 9.144531 C 127.761719 8.632812 127.789062 8.011719 127.8125 7.507812 C 128.101562 7.296875 128.464844 7.078125 128.832031 7.078125 C 129.386719 7.078125 129.546875 7.480469 129.546875 8.210938 L 129.515625 9.410156 C 129.515625 9.761719 129.65625 10.03125 130.082031 10.03125 C 130.453125 10.03125 130.96875 9.722656 131.328125 9.40625 L 131.257812 9.257812 L 131.15625 9.257812 C 130.953125 9.390625 130.703125 9.539062 130.519531 9.539062 C 130.1875 9.539062 130.140625 9.335938 130.140625 8.765625 C 130.140625 8.574219 130.140625 8.351562 130.140625 8.160156 C 130.140625 7.710938 130.140625 7.035156 129.976562 6.867188 C 129.828125 6.710938 129.605469 6.664062 129.367188 6.664062 C 128.851562 6.664062 128.304688 6.929688 127.867188 7.167969 L 127.796875 7.128906 C 127.769531 6.859375 127.609375 6.648438 127.222656 6.648438 C 126.933594 6.648438 126.484375 6.9375 126.160156 7.148438 L 126.292969 7.300781 C 126.523438 7.167969 126.722656 7.058594 126.890625 7.058594 C 127.136719 7.058594 127.1875 7.367188 127.1875 7.824219 C 127.1875 8.378906 127.136719 9.589844 127.109375 9.953125 L 127.234375 10.003906 L 127.785156 9.832031 "/>
</g>
<path style=" stroke:none;fill-rule:nonzero;fill:rgb(0%,0%,0%);fill-opacity:1;" d="M 141.914062 4.191406 L 141.972656 3.792969 L 135.40625 3.792969 L 135.335938 4.191406 Z M 141.914062 6.148438 L 141.972656 5.75 L 135.40625 5.75 L 135.335938 6.148438 L 141.914062 6.148438 "/>
<g clip-path="url(#clip10)" clip-rule="nonzero">
<path style=" stroke:none;fill-rule:nonzero;fill:rgb(0%,0%,0%);fill-opacity:1;" d="M 146.0625 9.269531 C 146.332031 9.546875 146.859375 9.773438 147.324219 9.773438 C 148.386719 9.773438 149.410156 9.238281 149.769531 7.949219 C 149.988281 7.003906 149.839844 4.898438 149.976562 2.871094 L 149.859375 2.832031 L 149.074219 3.207031 C 149.121094 3.894531 149.152344 4.609375 149.152344 5.324219 C 149.152344 5.683594 149.144531 6.039062 149.132812 6.386719 C 148.765625 6.605469 148.277344 6.902344 147.800781 6.902344 C 147.5625 6.902344 147.324219 6.832031 147.175781 6.644531 C 147.015625 6.4375 146.929688 6.136719 146.898438 5.214844 C 146.898438 4.636719 146.9375 4.0625 146.9375 3.507812 C 146.9375 3.136719 146.738281 2.8125 146.3125 2.8125 C 145.855469 2.8125 145.070312 3.378906 144.929688 3.476562 L 145.039062 3.664062 C 145.269531 3.546875 145.578125 3.386719 145.746094 3.386719 C 146.152344 3.386719 146.203125 3.824219 146.203125 4.539062 C 146.203125 5.035156 146.164062 5.453125 146.164062 5.902344 C 146.164062 6.566406 146.234375 7.539062 147.195312 7.539062 C 147.832031 7.539062 148.507812 7.121094 149.0625 6.773438 L 149.121094 6.824219 C 149.113281 7.144531 149.101562 7.46875 149.042969 7.796875 C 148.945312 8.363281 148.707031 9.367188 147.644531 9.367188 C 147.195312 9.367188 146.820312 8.980469 146.609375 8.601562 L 146.480469 8.601562 L 146.042969 9.160156 L 146.0625 9.269531 "/>
</g>
<path style=" stroke:none;fill-rule:nonzero;fill:rgb(0%,0%,0%);fill-opacity:1;" d="M 162.484375 5.175781 C 162.113281 5.632812 161.589844 6.417969 161.339844 7.460938 L 161.738281 7.460938 C 162.046875 6.160156 162.878906 5.253906 163.179688 4.976562 C 162.859375 4.679688 162.046875 3.785156 161.738281 2.492188 L 161.339844 2.492188 C 161.589844 3.527344 162.105469 4.3125 162.484375 4.777344 L 154.703125 4.777344 C 154.523438 4.777344 154.355469 4.777344 154.355469 4.976562 C 154.355469 5.175781 154.535156 5.175781 154.703125 5.175781 L 162.484375 5.175781 "/>
<path style=" stroke:none;fill-rule:nonzero;fill:rgb(0%,0%,0%);fill-opacity:1;" d="M 169.132812 7.460938 L 169.132812 7.152344 C 168.46875 7.152344 168.359375 7.152344 168.359375 6.707031 L 168.359375 0.566406 L 166.929688 0.675781 L 166.929688 0.984375 C 167.621094 0.984375 167.703125 1.050781 167.703125 1.539062 L 167.703125 6.707031 C 167.703125 7.152344 167.59375 7.152344 166.929688 7.152344 L 166.929688 7.460938 L 168.03125 7.429688 L 169.132812 7.460938 "/>
<path style=" stroke:none;fill-rule:nonzero;fill:rgb(0%,0%,0%);fill-opacity:1;" d="M 171.753906 7.460938 L 171.753906 7.152344 C 171.097656 7.152344 171.058594 7.101562 171.058594 6.714844 L 171.058594 3.070312 L 169.667969 3.179688 L 169.667969 3.488281 C 170.3125 3.488281 170.402344 3.546875 170.402344 4.035156 L 170.402344 6.707031 C 170.402344 7.152344 170.292969 7.152344 169.628906 7.152344 L 169.628906 7.460938 L 170.71875 7.429688 C 171.070312 7.429688 171.414062 7.449219 171.753906 7.460938 Z M 171.207031 1.460938 C 171.207031 1.191406 170.976562 0.933594 170.679688 0.933594 C 170.34375 0.933594 170.144531 1.210938 170.144531 1.460938 C 170.144531 1.730469 170.371094 1.988281 170.671875 1.988281 C 171.007812 1.988281 171.207031 1.707031 171.207031 1.460938 "/>
<path style=" stroke:none;fill-rule:nonzero;fill:rgb(0%,0%,0%);fill-opacity:1;" d="M 180.175781 7.460938 L 180.175781 7.152344 C 179.660156 7.152344 179.410156 7.152344 179.402344 6.855469 L 179.402344 4.957031 C 179.402344 4.101562 179.402344 3.792969 179.09375 3.4375 C 178.953125 3.269531 178.628906 3.070312 178.050781 3.070312 C 177.214844 3.070312 176.777344 3.664062 176.609375 4.042969 C 176.46875 3.179688 175.734375 3.070312 175.289062 3.070312 C 174.5625 3.070312 174.097656 3.496094 173.820312 4.113281 L 173.820312 3.070312 L 172.417969 3.179688 L 172.417969 3.488281 C 173.113281 3.488281 173.191406 3.554688 173.191406 4.042969 L 173.191406 6.707031 C 173.191406 7.152344 173.082031 7.152344 172.417969 7.152344 L 172.417969 7.460938 L 173.539062 7.429688 L 174.652344 7.460938 L 174.652344 7.152344 C 173.988281 7.152344 173.878906 7.152344 173.878906 6.707031 L 173.878906 4.878906 C 173.878906 3.84375 174.582031 3.289062 175.21875 3.289062 C 175.84375 3.289062 175.953125 3.824219 175.953125 4.390625 L 175.953125 6.707031 C 175.953125 7.152344 175.84375 7.152344 175.179688 7.152344 L 175.179688 7.460938 L 176.300781 7.429688 L 177.414062 7.460938 L 177.414062 7.152344 C 176.746094 7.152344 176.640625 7.152344 176.640625 6.707031 L 176.640625 4.878906 C 176.640625 3.84375 177.34375 3.289062 177.980469 3.289062 C 178.605469 3.289062 178.714844 3.824219 178.714844 4.390625 L 178.714844 6.707031 C 178.714844 7.152344 178.605469 7.152344 177.941406 7.152344 L 177.941406 7.460938 L 179.0625 7.429688 L 180.175781 7.460938 "/>
<g clip-path="url(#clip11)" clip-rule="nonzero">
<path style=" stroke:none;fill-rule:nonzero;fill:rgb(0%,0%,0%);fill-opacity:1;" d="M 182.382812 9.832031 C 182.371094 9.550781 182.363281 9.339844 182.363281 9.144531 C 182.363281 8.632812 182.390625 8.011719 182.414062 7.507812 C 182.699219 7.296875 183.066406 7.078125 183.429688 7.078125 C 183.988281 7.078125 184.148438 7.480469 184.148438 8.210938 L 184.113281 9.410156 C 184.113281 9.761719 184.253906 10.03125 184.683594 10.03125 C 185.054688 10.03125 185.570312 9.722656 185.925781 9.40625 L 185.855469 9.257812 L 185.757812 9.257812 C 185.554688 9.390625 185.300781 9.539062 185.117188 9.539062 C 184.789062 9.539062 184.738281 9.335938 184.738281 8.765625 C 184.738281 8.574219 184.738281 8.351562 184.738281 8.160156 C 184.738281 7.710938 184.738281 7.035156 184.578125 6.867188 C 184.429688 6.710938 184.203125 6.664062 183.964844 6.664062 C 183.453125 6.664062 182.90625 6.929688 182.46875 7.167969 L 182.398438 7.128906 C 182.371094 6.859375 182.207031 6.648438 181.820312 6.648438 C 181.53125 6.648438 181.082031 6.9375 180.757812 7.148438 L 180.894531 7.300781 C 181.125 7.167969 181.320312 7.058594 181.492188 7.058594 C 181.738281 7.058594 181.785156 7.367188 181.785156 7.824219 C 181.785156 8.378906 181.738281 9.589844 181.710938 9.953125 L 181.835938 10.003906 L 182.382812 9.832031 "/>
</g>
<g clip-path="url(#clip12)" clip-rule="nonzero">
<path style=" stroke:none;fill-rule:nonzero;fill:rgb(0%,0%,0%);fill-opacity:1;" d="M 192.863281 8.371094 C 192.671875 8.609375 192.265625 9.136719 192.03125 9.953125 L 192.378906 9.953125 C 192.589844 9.277344 192.945312 8.644531 193.503906 8.203125 C 192.714844 7.535156 192.453125 6.699219 192.378906 6.445312 L 192.03125 6.445312 C 192.265625 7.261719 192.671875 7.789062 192.863281 8.027344 L 186.859375 8.027344 C 186.738281 8.027344 186.585938 8.027344 186.585938 8.195312 C 186.585938 8.371094 186.734375 8.371094 186.859375 8.371094 L 192.863281 8.371094 "/>
</g>
<g clip-path="url(#clip13)" clip-rule="nonzero">
<path style=" stroke:none;fill-rule:nonzero;fill:rgb(0%,0%,0%);fill-opacity:1;" d="M 197.640625 8.582031 C 197.269531 9.160156 196.671875 9.707031 195.917969 9.707031 C 195.28125 9.707031 194.792969 9.128906 194.792969 8.449219 C 194.792969 7.792969 195.308594 7.300781 195.898438 7.300781 C 196.503906 7.300781 196.898438 7.71875 197.640625 8.582031 Z M 197.964844 7.972656 C 197.648438 7.605469 197.53125 7.472656 197.269531 7.28125 C 197.007812 7.097656 196.558594 6.859375 196.03125 6.859375 C 195.167969 6.859375 194.484375 7.578125 194.484375 8.449219 C 194.484375 9.269531 195.117188 10.03125 196.015625 10.03125 C 196.890625 10.03125 197.550781 9.371094 197.886719 8.878906 L 197.9375 8.933594 C 198.265625 9.308594 198.386719 9.441406 198.617188 9.609375 C 198.871094 9.800781 199.308594 10.03125 199.855469 10.03125 C 200.71875 10.03125 201.402344 9.3125 201.402344 8.441406 C 201.402344 7.621094 200.769531 6.859375 199.871094 6.859375 C 198.996094 6.859375 198.339844 7.519531 198 8.011719 Z M 198.246094 8.308594 C 198.617188 7.730469 199.214844 7.183594 199.96875 7.183594 C 200.609375 7.183594 201.09375 7.761719 201.09375 8.441406 C 201.09375 9.097656 200.578125 9.589844 199.988281 9.589844 C 199.382812 9.589844 198.992188 9.171875 198.246094 8.308594 "/>
</g>
<g clip-path="url(#clip14)" clip-rule="nonzero">
<path style=" stroke:none;fill-rule:nonzero;fill:rgb(0%,0%,0%);fill-opacity:1;" d="M 206.890625 9.078125 C 205.609375 8.832031 205.539062 6.417969 205.539062 4.738281 C 205.539062 3.238281 205.628906 0.714844 206.890625 0.398438 L 206.890625 0.128906 C 205.855469 0.308594 205.410156 1.441406 205.222656 2.394531 C 205.070312 3.136719 205.023438 3.914062 205.023438 4.679688 C 205.023438 5.484375 205.0625 6.289062 205.203125 7.082031 C 205.371094 8.027344 205.847656 9.230469 206.890625 9.316406 L 206.890625 9.078125 "/>
</g>
<path style=" stroke:none;fill-rule:nonzero;fill:rgb(0%,0%,0%);fill-opacity:1;" d="M 211.992188 2.871094 C 211.972656 2.851562 211.953125 2.851562 211.933594 2.851562 C 211.902344 2.851562 211.882812 2.851562 211.871094 2.871094 C 211.4375 3.378906 210.851562 4.074219 210.492188 4.550781 L 210.433594 4.539062 C 210.144531 3.984375 209.738281 3.269531 209.527344 3.039062 C 209.390625 2.890625 209.160156 2.851562 208.992188 2.851562 C 208.664062 2.851562 208.167969 3.21875 207.820312 3.488281 L 207.960938 3.664062 C 208.136719 3.546875 208.386719 3.417969 208.59375 3.417969 C 209.082031 3.417969 209.558594 4.480469 209.9375 5.246094 C 209.449219 5.878906 208.953125 6.566406 208.523438 7.25 L 208.523438 7.332031 L 208.804688 7.578125 L 208.964844 7.539062 C 209.261719 6.773438 209.65625 6.160156 210.046875 5.5625 L 210.113281 5.5625 C 210.769531 6.84375 211.109375 7.578125 211.613281 7.578125 C 212.03125 7.578125 212.539062 7.023438 212.886719 6.644531 L 212.804688 6.457031 L 212.726562 6.457031 C 212.527344 6.625 212.261719 6.832031 212.023438 6.832031 C 211.585938 6.832031 210.996094 5.78125 210.589844 4.886719 C 211.109375 4.28125 211.742188 3.636719 212.300781 3.246094 C 212.320312 3.238281 212.328125 3.230469 212.328125 3.199219 C 212.328125 3.1875 212.308594 3.167969 212.300781 3.160156 L 211.992188 2.871094 "/>
<g clip-path="url(#clip15)" clip-rule="nonzero">
<path style=" stroke:none;fill-rule:nonzero;fill:rgb(0%,0%,0%);fill-opacity:1;" d="M 214.984375 9.832031 C 214.96875 9.550781 214.964844 9.339844 214.964844 9.144531 C 214.964844 8.632812 214.992188 8.011719 215.011719 7.507812 C 215.300781 7.296875 215.664062 7.078125 216.03125 7.078125 C 216.589844 7.078125 216.746094 7.480469 216.746094 8.210938 L 216.714844 9.410156 C 216.714844 9.761719 216.855469 10.03125 217.28125 10.03125 C 217.65625 10.03125 218.167969 9.722656 218.527344 9.40625 L 218.457031 9.257812 L 218.359375 9.257812 C 218.15625 9.390625 217.902344 9.539062 217.71875 9.539062 C 217.390625 9.539062 217.339844 9.335938 217.339844 8.765625 C 217.339844 8.574219 217.339844 8.351562 217.339844 8.160156 C 217.339844 7.710938 217.339844 7.035156 217.179688 6.867188 C 217.03125 6.710938 216.804688 6.664062 216.566406 6.664062 C 216.054688 6.664062 215.503906 6.929688 215.070312 7.167969 L 214.996094 7.128906 C 214.96875 6.859375 214.808594 6.648438 214.421875 6.648438 C 214.132812 6.648438 213.683594 6.9375 213.359375 7.148438 L 213.492188 7.300781 C 213.726562 7.167969 213.921875 7.058594 214.089844 7.058594 C 214.339844 7.058594 214.386719 7.367188 214.386719 7.824219 C 214.386719 8.378906 214.339844 9.589844 214.308594 9.953125 L 214.4375 10.003906 L 214.984375 9.832031 "/>
</g>
<path style=" stroke:none;fill-rule:nonzero;fill:rgb(0%,0%,0%);fill-opacity:1;" d="M 225.335938 4.71875 L 225.335938 1.636719 L 224.9375 1.699219 L 224.9375 4.71875 L 221.925781 4.71875 L 221.855469 5.117188 L 224.9375 5.117188 L 224.9375 8.195312 L 225.335938 8.125 L 225.335938 5.117188 L 228.394531 5.117188 L 228.445312 4.71875 L 225.335938 4.71875 "/>
<g clip-path="url(#clip16)" clip-rule="nonzero">
<path style=" stroke:none;fill-rule:nonzero;fill:rgb(0%,0%,0%);fill-opacity:1;" d="M 232.164062 9.269531 C 232.429688 9.546875 232.957031 9.773438 233.425781 9.773438 C 234.488281 9.773438 235.511719 9.238281 235.867188 7.949219 C 236.089844 7.003906 235.9375 4.898438 236.078125 2.871094 L 235.957031 2.832031 L 235.171875 3.207031 C 235.222656 3.894531 235.253906 4.609375 235.253906 5.324219 C 235.253906 5.683594 235.242188 6.039062 235.234375 6.386719 C 234.867188 6.605469 234.378906 6.902344 233.902344 6.902344 C 233.664062 6.902344 233.425781 6.832031 233.277344 6.644531 C 233.117188 6.4375 233.027344 6.136719 232.996094 5.214844 C 232.996094 4.636719 233.039062 4.0625 233.039062 3.507812 C 233.039062 3.136719 232.839844 2.8125 232.414062 2.8125 C 231.953125 2.8125 231.171875 3.378906 231.03125 3.476562 L 231.140625 3.664062 C 231.367188 3.546875 231.675781 3.386719 231.84375 3.386719 C 232.253906 3.386719 232.304688 3.824219 232.304688 4.539062 C 232.304688 5.035156 232.261719 5.453125 232.261719 5.902344 C 232.261719 6.566406 232.332031 7.539062 233.296875 7.539062 C 233.929688 7.539062 234.609375 7.121094 235.164062 6.773438 L 235.222656 6.824219 C 235.214844 7.144531 235.203125 7.46875 235.144531 7.796875 C 235.042969 8.363281 234.804688 9.367188 233.742188 9.367188 C 233.296875 9.367188 232.917969 8.980469 232.710938 8.601562 L 232.582031 8.601562 L 232.144531 9.160156 L 232.164062 9.269531 "/>
</g>
<g clip-path="url(#clip17)" clip-rule="nonzero">
<path style=" stroke:none;fill-rule:nonzero;fill:rgb(0%,0%,0%);fill-opacity:1;" d="M 238.984375 9.832031 C 238.96875 9.550781 238.964844 9.339844 238.964844 9.144531 C 238.964844 8.632812 238.992188 8.011719 239.011719 7.507812 C 239.300781 7.296875 239.664062 7.078125 240.03125 7.078125 C 240.589844 7.078125 240.746094 7.480469 240.746094 8.210938 L 240.714844 9.410156 C 240.714844 9.761719 240.855469 10.03125 241.28125 10.03125 C 241.65625 10.03125 242.167969 9.722656 242.527344 9.40625 L 242.457031 9.257812 L 242.359375 9.257812 C 242.15625 9.390625 241.902344 9.539062 241.71875 9.539062 C 241.390625 9.539062 241.339844 9.335938 241.339844 8.765625 C 241.339844 8.574219 241.339844 8.351562 241.339844 8.160156 C 241.339844 7.710938 241.339844 7.035156 241.179688 6.867188 C 241.03125 6.710938 240.804688 6.664062 240.566406 6.664062 C 240.054688 6.664062 239.503906 6.929688 239.070312 7.167969 L 238.996094 7.128906 C 238.96875 6.859375 238.808594 6.648438 238.421875 6.648438 C 238.132812 6.648438 237.683594 6.9375 237.359375 7.148438 L 237.492188 7.300781 C 237.726562 7.167969 237.921875 7.058594 238.089844 7.058594 C 238.339844 7.058594 238.386719 7.367188 238.386719 7.824219 C 238.386719 8.378906 238.339844 9.589844 238.308594 9.953125 L 238.4375 10.003906 L 238.984375 9.832031 "/>
</g>
<g clip-path="url(#clip18)" clip-rule="nonzero">
<path style=" stroke:none;fill-rule:nonzero;fill:rgb(0%,0%,0%);fill-opacity:1;" d="M 244.15625 0.417969 C 244.960938 0.707031 245.1875 1.636719 245.335938 2.382812 C 245.484375 3.148438 245.523438 3.941406 245.523438 4.71875 C 245.523438 5.851562 245.546875 7.0625 245.1875 8.125 C 244.988281 8.722656 244.609375 8.980469 244.15625 9.097656 L 244.15625 9.339844 C 245.933594 9.109375 246.042969 6.457031 246.042969 4.757812 C 246.042969 3.097656 245.832031 0.496094 244.15625 0.148438 L 244.15625 0.417969 "/>
</g>
<path style=" stroke:none;fill-rule:nonzero;fill:rgb(0%,0%,0%);fill-opacity:1;" d="M 257.011719 4.191406 L 257.070312 3.792969 L 250.507812 3.792969 L 250.4375 4.191406 Z M 257.011719 6.148438 L 257.070312 5.75 L 250.507812 5.75 L 250.4375 6.148438 L 257.011719 6.148438 "/>
<path style=" stroke:none;fill-rule:nonzero;fill:rgb(0%,0%,0%);fill-opacity:1;" d="M 264.390625 2.871094 C 264.371094 2.851562 264.351562 2.851562 264.332031 2.851562 C 264.304688 2.851562 264.28125 2.851562 264.273438 2.871094 C 263.835938 3.378906 263.25 4.074219 262.890625 4.550781 L 262.832031 4.539062 C 262.542969 3.984375 262.136719 3.269531 261.929688 3.039062 C 261.789062 2.890625 261.5625 2.851562 261.390625 2.851562 C 261.0625 2.851562 260.566406 3.21875 260.21875 3.488281 L 260.359375 3.664062 C 260.539062 3.546875 260.785156 3.417969 260.996094 3.417969 C 261.480469 3.417969 261.957031 4.480469 262.335938 5.246094 C 261.847656 5.878906 261.351562 6.566406 260.925781 7.25 L 260.925781 7.332031 L 261.203125 7.578125 L 261.363281 7.539062 C 261.660156 6.773438 262.058594 6.160156 262.445312 5.5625 L 262.515625 5.5625 C 263.171875 6.84375 263.507812 7.578125 264.015625 7.578125 C 264.429688 7.578125 264.9375 7.023438 265.285156 6.644531 L 265.207031 6.457031 L 265.128906 6.457031 C 264.929688 6.625 264.660156 6.832031 264.421875 6.832031 C 263.984375 6.832031 263.398438 5.78125 262.992188 4.886719 C 263.507812 4.28125 264.144531 3.636719 264.699219 3.246094 C 264.71875 3.238281 264.730469 3.230469 264.730469 3.199219 C 264.730469 3.1875 264.710938 3.167969 264.699219 3.160156 L 264.390625 2.871094 "/>
<path style=" stroke:none;fill-rule:nonzero;fill:rgb(0%,0%,0%);fill-opacity:1;" d="M 271.632812 4.71875 L 271.632812 1.636719 L 271.234375 1.699219 L 271.234375 4.71875 L 268.226562 4.71875 L 268.15625 5.117188 L 271.234375 5.117188 L 271.234375 8.195312 L 271.632812 8.125 L 271.632812 5.117188 L 274.695312 5.117188 L 274.742188 4.71875 L 271.632812 4.71875 "/>
<g clip-path="url(#clip19)" clip-rule="nonzero">
<path style=" stroke:none;fill-rule:nonzero;fill:rgb(0%,0%,0%);fill-opacity:1;" d="M 278.363281 9.269531 C 278.632812 9.546875 279.15625 9.773438 279.625 9.773438 C 280.6875 9.773438 281.710938 9.238281 282.070312 7.949219 C 282.289062 7.003906 282.140625 4.898438 282.277344 2.871094 L 282.15625 2.832031 L 281.371094 3.207031 C 281.421875 3.894531 281.453125 4.609375 281.453125 5.324219 C 281.453125 5.683594 281.445312 6.039062 281.433594 6.386719 C 281.066406 6.605469 280.578125 6.902344 280.101562 6.902344 C 279.863281 6.902344 279.625 6.832031 279.476562 6.644531 C 279.316406 6.4375 279.226562 6.136719 279.199219 5.214844 C 279.199219 4.636719 279.238281 4.0625 279.238281 3.507812 C 279.238281 3.136719 279.039062 2.8125 278.613281 2.8125 C 278.15625 2.8125 277.371094 3.378906 277.230469 3.476562 L 277.339844 3.664062 C 277.570312 3.546875 277.878906 3.386719 278.046875 3.386719 C 278.453125 3.386719 278.503906 3.824219 278.503906 4.539062 C 278.503906 5.035156 278.464844 5.453125 278.464844 5.902344 C 278.464844 6.566406 278.53125 7.539062 279.496094 7.539062 C 280.132812 7.539062 280.808594 7.121094 281.363281 6.773438 L 281.421875 6.824219 C 281.414062 7.144531 281.402344 7.46875 281.34375 7.796875 C 281.242188 8.363281 281.007812 9.367188 279.945312 9.367188 C 279.496094 9.367188 279.117188 8.980469 278.910156 8.601562 L 278.78125 8.601562 L 278.34375 9.160156 L 278.363281 9.269531 "/>
</g>
</g>
</svg>
