<?xml version="1.0" encoding="UTF-8"?>
<svg xmlns="http://www.w3.org/2000/svg" xmlns:xlink="http://www.w3.org/1999/xlink" width="11.4pt" height="7.04pt" viewBox="0 0 11.4 7.04" version="1.1">
<defs>
<clipPath id="clip1">
  <path d="M 5 3 L 11 3 L 11 7.039062 L 5 7.039062 Z M 5 3 "/>
</clipPath>
</defs>
<g id="surface1">
<path style=" stroke:none;fill-rule:nonzero;fill:rgb(0%,0%,0%);fill-opacity:1;" d="M 4.191406 -0.0507812 C 4.171875 -0.0703125 4.152344 -0.0703125 4.132812 -0.0703125 C 4.101562 -0.0703125 4.082031 -0.0703125 4.074219 -0.0507812 C 3.636719 0.457031 3.050781 1.152344 2.691406 1.628906 L 2.632812 1.621094 C 2.34375 1.0625 1.9375 0.347656 1.726562 0.121094 C 1.589844 -0.0273438 1.359375 -0.0703125 1.191406 -0.0703125 C 0.863281 -0.0703125 0.367188 0.296875 0.0195312 0.566406 L 0.160156 0.746094 C 0.335938 0.625 0.585938 0.496094 0.796875 0.496094 C 1.28125 0.496094 1.757812 1.558594 2.136719 2.324219 C 1.648438 2.960938 1.152344 3.644531 0.726562 4.332031 L 0.726562 4.410156 L 1.003906 4.660156 L 1.164062 4.621094 C 1.460938 3.855469 1.859375 3.238281 2.246094 2.644531 L 2.3125 2.644531 C 2.96875 3.925781 3.308594 4.660156 3.8125 4.660156 C 4.230469 4.660156 4.738281 4.101562 5.085938 3.726562 L 5.007812 3.535156 L 4.925781 3.535156 C 4.726562 3.707031 4.460938 3.914062 4.222656 3.914062 C 3.785156 3.914062 3.199219 2.863281 2.789062 1.964844 C 3.308594 1.363281 3.945312 0.714844 4.5 0.328125 C 4.519531 0.316406 4.53125 0.308594 4.53125 0.277344 C 4.53125 0.269531 4.507812 0.25 4.5 0.238281 L 4.191406 -0.0507812 "/>
<g clip-path="url(#clip1)" clip-rule="nonzero">
<path style=" stroke:none;fill-rule:nonzero;fill:rgb(0%,0%,0%);fill-opacity:1;" d="M 7.085938 6.914062 C 7.070312 6.632812 7.0625 6.421875 7.0625 6.222656 C 7.0625 5.710938 7.089844 5.09375 7.113281 4.585938 C 7.398438 4.375 7.765625 4.15625 8.132812 4.15625 C 8.6875 4.15625 8.847656 4.558594 8.847656 5.289062 L 8.8125 6.492188 C 8.8125 6.84375 8.953125 7.109375 9.382812 7.109375 C 9.753906 7.109375 10.269531 6.800781 10.625 6.484375 L 10.554688 6.335938 L 10.457031 6.335938 C 10.253906 6.472656 10 6.617188 9.820312 6.617188 C 9.488281 6.617188 9.4375 6.414062 9.4375 5.84375 C 9.4375 5.65625 9.4375 5.429688 9.4375 5.238281 C 9.4375 4.789062 9.4375 4.113281 9.277344 3.945312 C 9.128906 3.792969 8.90625 3.742188 8.664062 3.742188 C 8.152344 3.742188 7.605469 4.011719 7.167969 4.25 L 7.097656 4.207031 C 7.070312 3.941406 6.90625 3.730469 6.523438 3.730469 C 6.234375 3.730469 5.78125 4.015625 5.460938 4.226562 L 5.59375 4.382812 C 5.824219 4.25 6.023438 4.136719 6.191406 4.136719 C 6.4375 4.136719 6.484375 4.445312 6.484375 4.902344 C 6.484375 5.457031 6.4375 6.667969 6.410156 7.035156 L 6.535156 7.082031 L 7.085938 6.914062 "/>
</g>
</g>
</svg>
