<?xml version="1.0" encoding="UTF-8"?>
<svg xmlns="http://www.w3.org/2000/svg" xmlns:xlink="http://www.w3.org/1999/xlink" width="95.25pt" height="9.67pt" viewBox="0 0 95.25 9.67" version="1.1">
<defs>
<clipPath id="clip1">
  <path d="M 6 4 L 8 4 L 8 9.671875 L 6 9.671875 Z M 6 4 "/>
</clipPath>
<clipPath id="clip2">
  <path d="M 20 4 L 24 4 L 24 9.671875 L 20 9.671875 Z M 20 4 "/>
</clipPath>
<clipPath id="clip3">
  <path d="M 53 6 L 60 6 L 60 9.671875 L 53 9.671875 Z M 53 6 "/>
</clipPath>
<clipPath id="clip4">
  <path d="M 88 0 L 95.25 0 L 95.25 7 L 88 7 Z M 88 0 "/>
</clipPath>
</defs>
<g id="surface1">
<path style=" stroke:none;fill-rule:nonzero;fill:rgb(0%,0%,0%);fill-opacity:1;" d="M 4.191406 2.28125 C 4.171875 2.261719 4.152344 2.261719 4.132812 2.261719 C 4.101562 2.261719 4.082031 2.261719 4.074219 2.28125 C 3.636719 2.789062 3.050781 3.484375 2.691406 3.960938 L 2.632812 3.949219 C 2.34375 3.394531 1.9375 2.679688 1.726562 2.449219 C 1.589844 2.300781 1.359375 2.261719 1.191406 2.261719 C 0.863281 2.261719 0.367188 2.628906 0.0195312 2.898438 L 0.160156 3.074219 C 0.335938 2.957031 0.585938 2.828125 0.796875 2.828125 C 1.28125 2.828125 1.757812 3.890625 2.136719 4.65625 C 1.648438 5.289062 1.152344 5.976562 0.726562 6.660156 L 0.726562 6.742188 L 1.003906 6.988281 L 1.164062 6.949219 C 1.460938 6.183594 1.859375 5.570312 2.246094 4.972656 L 2.3125 4.972656 C 2.96875 6.253906 3.308594 6.988281 3.8125 6.988281 C 4.230469 6.988281 4.738281 6.433594 5.085938 6.054688 L 5.007812 5.867188 L 4.925781 5.867188 C 4.726562 6.035156 4.460938 6.242188 4.222656 6.242188 C 3.785156 6.242188 3.199219 5.191406 2.789062 4.296875 C 3.308594 3.691406 3.945312 3.046875 4.5 2.65625 C 4.519531 2.648438 4.53125 2.640625 4.53125 2.609375 C 4.53125 2.597656 4.507812 2.578125 4.5 2.570312 L 4.191406 2.28125 "/>
<g clip-path="url(#clip1)" clip-rule="nonzero">
<path style=" stroke:none;fill-rule:nonzero;fill:rgb(0%,0%,0%);fill-opacity:1;" d="M 7.863281 4.664062 L 6.148438 5.179688 L 6.148438 5.367188 L 6.808594 5.367188 C 7.300781 5.367188 7.183594 5.9375 7.183594 6.726562 C 7.183594 7.710938 7.15625 8.695312 7.117188 9.671875 L 7.210938 9.703125 L 7.878906 9.515625 C 7.859375 8.980469 7.859375 7.589844 7.859375 6.632812 C 7.859375 6.007812 7.871094 5.375 7.914062 4.75 L 7.863281 4.664062 "/>
</g>
<path style=" stroke:none;fill-rule:nonzero;fill:rgb(0%,0%,0%);fill-opacity:1;" d="M 11.191406 8.957031 C 11.898438 8.140625 12.226562 7.636719 12.226562 7.140625 C 12.226562 6.789062 11.878906 5.5 11.351562 5.5 C 11.101562 5.5 10.765625 5.71875 10.765625 5.976562 C 10.765625 6.074219 10.796875 6.183594 10.835938 6.234375 L 11.53125 7.058594 C 11.621094 7.167969 11.660156 7.335938 11.660156 7.476562 C 11.660156 7.875 11.351562 8.359375 11.003906 8.816406 L 11.191406 8.957031 "/>
<path style=" stroke:none;fill-rule:nonzero;fill:rgb(0%,0%,0%);fill-opacity:1;" d="M 18.691406 2.28125 C 18.671875 2.261719 18.652344 2.261719 18.632812 2.261719 C 18.601562 2.261719 18.582031 2.261719 18.574219 2.28125 C 18.136719 2.789062 17.550781 3.484375 17.191406 3.960938 L 17.132812 3.949219 C 16.84375 3.394531 16.4375 2.679688 16.226562 2.449219 C 16.089844 2.300781 15.859375 2.261719 15.691406 2.261719 C 15.363281 2.261719 14.867188 2.628906 14.519531 2.898438 L 14.660156 3.074219 C 14.835938 2.957031 15.085938 2.828125 15.296875 2.828125 C 15.78125 2.828125 16.257812 3.890625 16.636719 4.65625 C 16.148438 5.289062 15.652344 5.976562 15.226562 6.660156 L 15.226562 6.742188 L 15.503906 6.988281 L 15.664062 6.949219 C 15.960938 6.183594 16.359375 5.570312 16.746094 4.972656 L 16.8125 4.972656 C 17.46875 6.253906 17.808594 6.988281 18.3125 6.988281 C 18.730469 6.988281 19.238281 6.433594 19.585938 6.054688 L 19.507812 5.867188 L 19.425781 5.867188 C 19.226562 6.035156 18.960938 6.242188 18.722656 6.242188 C 18.285156 6.242188 17.699219 5.191406 17.289062 4.296875 C 17.808594 3.691406 18.445312 3.046875 19 2.65625 C 19.019531 2.648438 19.03125 2.640625 19.03125 2.609375 C 19.03125 2.597656 19.007812 2.578125 19 2.570312 L 18.691406 2.28125 "/>
<g clip-path="url(#clip2)" clip-rule="nonzero">
<path style=" stroke:none;fill-rule:nonzero;fill:rgb(0%,0%,0%);fill-opacity:1;" d="M 23.765625 9.109375 L 23.730469 9.050781 L 21.277344 9.050781 C 21.226562 9.050781 21.171875 9.046875 21.171875 9.003906 C 21.171875 8.988281 21.179688 8.980469 21.183594 8.976562 C 22.140625 8.003906 23.398438 6.765625 23.398438 5.78125 C 23.398438 5.15625 22.886719 4.695312 22.203125 4.695312 C 21.542969 4.695312 20.960938 5.066406 20.523438 5.488281 L 20.679688 5.621094 C 20.980469 5.394531 21.339844 5.171875 21.773438 5.171875 C 22.429688 5.171875 22.667969 5.710938 22.667969 6.097656 C 22.667969 6.941406 22.050781 7.644531 21.429688 8.285156 C 21.007812 8.722656 20.566406 9.136719 20.117188 9.542969 L 20.117188 9.65625 L 23.582031 9.65625 L 23.765625 9.109375 "/>
</g>
<path style=" stroke:none;fill-rule:nonzero;fill:rgb(0%,0%,0%);fill-opacity:1;" d="M 25.691406 8.957031 C 26.398438 8.140625 26.726562 7.636719 26.726562 7.140625 C 26.726562 6.789062 26.378906 5.5 25.851562 5.5 C 25.601562 5.5 25.265625 5.71875 25.265625 5.976562 C 25.265625 6.074219 25.296875 6.183594 25.335938 6.234375 L 26.03125 7.058594 C 26.121094 7.167969 26.160156 7.335938 26.160156 7.476562 C 26.160156 7.875 25.851562 8.359375 25.503906 8.816406 L 25.691406 8.957031 "/>
<path style=" stroke:none;fill-rule:nonzero;fill:rgb(0%,0%,0%);fill-opacity:1;" d="M 31.007812 4.386719 C 31.007812 4.097656 30.769531 3.859375 30.480469 3.859375 C 30.191406 3.859375 29.953125 4.097656 29.953125 4.386719 C 29.953125 4.675781 30.191406 4.914062 30.480469 4.914062 C 30.769531 4.914062 31.007812 4.675781 31.007812 4.386719 "/>
<path style=" stroke:none;fill-rule:nonzero;fill:rgb(0%,0%,0%);fill-opacity:1;" d="M 35.40625 4.386719 C 35.40625 4.097656 35.167969 3.859375 34.882812 3.859375 C 34.59375 3.859375 34.355469 4.097656 34.355469 4.386719 C 34.355469 4.675781 34.59375 4.914062 34.882812 4.914062 C 35.167969 4.914062 35.40625 4.675781 35.40625 4.386719 "/>
<path style=" stroke:none;fill-rule:nonzero;fill:rgb(0%,0%,0%);fill-opacity:1;" d="M 39.808594 4.386719 C 39.808594 4.097656 39.570312 3.859375 39.28125 3.859375 C 38.992188 3.859375 38.753906 4.097656 38.753906 4.386719 C 38.753906 4.675781 38.992188 4.914062 39.28125 4.914062 C 39.570312 4.914062 39.808594 4.675781 39.808594 4.386719 "/>
<path style=" stroke:none;fill-rule:nonzero;fill:rgb(0%,0%,0%);fill-opacity:1;" d="M 45.09375 8.957031 C 45.796875 8.140625 46.125 7.636719 46.125 7.140625 C 46.125 6.789062 45.777344 5.5 45.25 5.5 C 45.003906 5.5 44.664062 5.71875 44.664062 5.976562 C 44.664062 6.074219 44.695312 6.183594 44.734375 6.234375 L 45.429688 7.058594 C 45.519531 7.167969 45.558594 7.335938 45.558594 7.476562 C 45.558594 7.875 45.25 8.359375 44.90625 8.816406 L 45.09375 8.957031 "/>
<path style=" stroke:none;fill-rule:nonzero;fill:rgb(0%,0%,0%);fill-opacity:1;" d="M 52.59375 2.28125 C 52.570312 2.261719 52.550781 2.261719 52.53125 2.261719 C 52.503906 2.261719 52.484375 2.261719 52.472656 2.28125 C 52.035156 2.789062 51.449219 3.484375 51.09375 3.960938 L 51.03125 3.949219 C 50.742188 3.394531 50.335938 2.679688 50.128906 2.449219 C 49.988281 2.300781 49.761719 2.261719 49.59375 2.261719 C 49.265625 2.261719 48.765625 2.628906 48.421875 2.898438 L 48.558594 3.074219 C 48.738281 2.957031 48.984375 2.828125 49.195312 2.828125 C 49.679688 2.828125 50.15625 3.890625 50.535156 4.65625 C 50.046875 5.289062 49.550781 5.976562 49.125 6.660156 L 49.125 6.742188 L 49.402344 6.988281 L 49.5625 6.949219 C 49.859375 6.183594 50.257812 5.570312 50.644531 4.972656 L 50.714844 4.972656 C 51.371094 6.253906 51.707031 6.988281 52.214844 6.988281 C 52.632812 6.988281 53.140625 6.433594 53.484375 6.054688 L 53.40625 5.867188 L 53.328125 5.867188 C 53.128906 6.035156 52.859375 6.242188 52.621094 6.242188 C 52.183594 6.242188 51.597656 5.191406 51.191406 4.296875 C 51.707031 3.691406 52.34375 3.046875 52.898438 2.65625 C 52.921875 2.648438 52.929688 2.640625 52.929688 2.609375 C 52.929688 2.597656 52.910156 2.578125 52.898438 2.570312 L 52.59375 2.28125 "/>
<g clip-path="url(#clip3)" clip-rule="nonzero">
<path style=" stroke:none;fill-rule:nonzero;fill:rgb(0%,0%,0%);fill-opacity:1;" d="M 55.585938 9.242188 C 55.570312 8.960938 55.5625 8.75 55.5625 8.554688 C 55.5625 8.042969 55.589844 7.421875 55.613281 6.917969 C 55.898438 6.707031 56.265625 6.488281 56.632812 6.488281 C 57.1875 6.488281 57.347656 6.890625 57.347656 7.621094 L 57.3125 8.820312 C 57.3125 9.171875 57.453125 9.441406 57.882812 9.441406 C 58.253906 9.441406 58.769531 9.132812 59.125 8.816406 L 59.054688 8.667969 L 58.957031 8.667969 C 58.753906 8.800781 58.5 8.949219 58.320312 8.949219 C 57.988281 8.949219 57.9375 8.746094 57.9375 8.175781 C 57.9375 7.984375 57.9375 7.761719 57.9375 7.570312 C 57.9375 7.121094 57.9375 6.445312 57.777344 6.277344 C 57.628906 6.121094 57.40625 6.074219 57.164062 6.074219 C 56.652344 6.074219 56.105469 6.339844 55.667969 6.578125 L 55.597656 6.539062 C 55.570312 6.269531 55.40625 6.058594 55.023438 6.058594 C 54.734375 6.058594 54.28125 6.347656 53.960938 6.558594 L 54.09375 6.710938 C 54.324219 6.578125 54.523438 6.46875 54.691406 6.46875 C 54.9375 6.46875 54.984375 6.777344 54.984375 7.234375 C 54.984375 7.789062 54.9375 9 54.910156 9.363281 L 55.035156 9.414062 L 55.585938 9.242188 "/>
</g>
<path style=" stroke:none;fill-rule:nonzero;fill:rgb(0%,0%,0%);fill-opacity:1;" d="M 60.890625 8.957031 C 61.597656 8.140625 61.925781 7.636719 61.925781 7.140625 C 61.925781 6.789062 61.578125 5.5 61.050781 5.5 C 60.804688 5.5 60.464844 5.71875 60.464844 5.976562 C 60.464844 6.074219 60.496094 6.183594 60.535156 6.234375 L 61.230469 7.058594 C 61.320312 7.167969 61.359375 7.335938 61.359375 7.476562 C 61.359375 7.875 61.050781 8.359375 60.703125 8.816406 L 60.890625 8.957031 "/>
<path style=" stroke:none;fill-rule:nonzero;fill:rgb(0%,0%,0%);fill-opacity:1;" d="M 66.207031 4.386719 C 66.207031 4.097656 65.96875 3.859375 65.679688 3.859375 C 65.390625 3.859375 65.15625 4.097656 65.15625 4.386719 C 65.15625 4.675781 65.390625 4.914062 65.679688 4.914062 C 65.96875 4.914062 66.207031 4.675781 66.207031 4.386719 "/>
<path style=" stroke:none;fill-rule:nonzero;fill:rgb(0%,0%,0%);fill-opacity:1;" d="M 70.609375 4.386719 C 70.609375 4.097656 70.367188 3.859375 70.082031 3.859375 C 69.792969 3.859375 69.554688 4.097656 69.554688 4.386719 C 69.554688 4.675781 69.792969 4.914062 70.082031 4.914062 C 70.367188 4.914062 70.609375 4.675781 70.609375 4.386719 "/>
<path style=" stroke:none;fill-rule:nonzero;fill:rgb(0%,0%,0%);fill-opacity:1;" d="M 75.007812 4.386719 C 75.007812 4.097656 74.769531 3.859375 74.480469 3.859375 C 74.191406 3.859375 73.953125 4.097656 73.953125 4.386719 C 73.953125 4.675781 74.191406 4.914062 74.480469 4.914062 C 74.769531 4.914062 75.007812 4.675781 75.007812 4.386719 "/>
<path style=" stroke:none;fill-rule:nonzero;fill:rgb(0%,0%,0%);fill-opacity:1;" d="M 84.042969 4.585938 C 84.210938 4.585938 84.390625 4.585938 84.390625 4.386719 C 84.390625 4.1875 84.210938 4.1875 84.042969 4.1875 L 79.832031 4.1875 C 79.953125 2.859375 81.09375 1.902344 82.492188 1.902344 L 84.042969 1.902344 C 84.210938 1.902344 84.390625 1.902344 84.390625 1.703125 C 84.390625 1.507812 84.210938 1.507812 84.042969 1.507812 L 82.472656 1.507812 C 80.773438 1.507812 79.425781 2.796875 79.425781 4.386719 C 79.425781 5.976562 80.773438 7.265625 82.472656 7.265625 L 84.042969 7.265625 C 84.210938 7.265625 84.390625 7.265625 84.390625 7.070312 C 84.390625 6.871094 84.210938 6.871094 84.042969 6.871094 L 82.492188 6.871094 C 81.09375 6.871094 79.953125 5.917969 79.832031 4.585938 L 84.042969 4.585938 "/>
<g clip-path="url(#clip4)" clip-rule="nonzero">
<path style=" stroke:none;fill-rule:nonzero;fill:rgb(0%,0%,0%);fill-opacity:1;" d="M 90.761719 3.75 L 91.121094 3.75 L 92.609375 6.054688 C 92.710938 6.214844 92.945312 6.601562 93.054688 6.75 C 93.125 6.871094 93.15625 6.871094 93.382812 6.871094 L 94.757812 6.871094 C 94.933594 6.871094 95.082031 6.871094 95.082031 6.691406 C 95.082031 6.613281 95.023438 6.542969 94.933594 6.523438 C 94.566406 6.445312 94.078125 5.789062 93.84375 5.46875 C 93.773438 5.371094 93.273438 4.714844 92.609375 3.640625 C 93.492188 3.484375 94.347656 3.105469 94.347656 1.921875 C 94.347656 0.542969 92.886719 0.0664062 91.714844 0.0664062 L 88.597656 0.0664062 C 88.417969 0.0664062 88.257812 0.0664062 88.257812 0.242188 C 88.257812 0.414062 88.449219 0.414062 88.527344 0.414062 C 89.09375 0.414062 89.144531 0.484375 89.144531 0.980469 L 89.144531 5.957031 C 89.144531 6.453125 89.09375 6.523438 88.527344 6.523438 C 88.449219 6.523438 88.257812 6.523438 88.257812 6.691406 C 88.257812 6.871094 88.417969 6.871094 88.597656 6.871094 L 91.320312 6.871094 C 91.496094 6.871094 91.648438 6.871094 91.648438 6.691406 C 91.648438 6.523438 91.476562 6.523438 91.367188 6.523438 C 90.800781 6.523438 90.761719 6.445312 90.761719 5.957031 Z M 92.679688 3.265625 C 92.957031 2.898438 92.988281 2.371094 92.988281 1.933594 C 92.988281 1.457031 92.929688 0.929688 92.609375 0.523438 C 93.015625 0.613281 94 0.921875 94 1.921875 C 94 2.570312 93.703125 3.074219 92.679688 3.265625 Z M 90.761719 0.949219 C 90.761719 0.742188 90.761719 0.414062 91.378906 0.414062 C 92.222656 0.414062 92.640625 0.761719 92.640625 1.933594 C 92.640625 3.214844 92.332031 3.402344 90.761719 3.402344 Z M 89.410156 6.523438 C 89.492188 6.34375 89.492188 6.066406 89.492188 5.976562 L 89.492188 0.960938 C 89.492188 0.859375 89.492188 0.59375 89.410156 0.414062 L 90.542969 0.414062 C 90.414062 0.570312 90.414062 0.769531 90.414062 0.921875 L 90.414062 5.976562 C 90.414062 6.074219 90.414062 6.34375 90.492188 6.523438 Z M 91.527344 3.75 C 91.597656 3.742188 91.636719 3.730469 91.714844 3.730469 C 91.867188 3.730469 92.082031 3.710938 92.234375 3.691406 C 92.382812 3.929688 93.453125 5.699219 94.277344 6.523438 L 93.316406 6.523438 L 91.527344 3.75 "/>
</g>
</g>
</svg>
